<svg xmlns="http://www.w3.org/2000/svg" width="469.07" height="246.13" viewBox="0 0 469.07 246.13">
  <g id="brief-01" transform="translate(-97.98 -86.582)">
    <g id="Layer_1" data-name="Layer 1" transform="translate(97.981 86.582)">
      <path id="Trazado_130531" data-name="Trazado 130531" d="M162.806,324.147c56.377,8.853,79.2-10.774,134.491-12.578,49.059-1.6,77.651,19.046,119.916,20.95,75.7,3.4,91.843-39.179,91.843-39.179s48.25,6.922,57.368-61.038c4.571-34.072-16.836-68.167-32.181-69.146,0,0,17.073-40.5-26.955-53.7-41.993-12.595-80.429,13.563-135.849,6.772-56.84-6.971-123.265-49.173-186.747-18.738-49.518,23.739-35.7,73.886-35.7,73.886s-41.435,10.611-49.646,59.134C92.3,272.221,112.406,316.23,162.806,324.147Z" transform="translate(-97.981 -86.582)" fill="#c5ceec"/>
      <path id="Trazado_130532" data-name="Trazado 130532" d="M438.491,679.992c-92.063-5.306-119.263-60.869-225.51-84.037-40-8.72-92.15,11.289-112.4,31.373,3.972,31.833,24.849,59.906,64.118,66.074,56.377,8.853,79.2-10.774,134.491-12.578,49.059-1.6,77.651,19.046,119.916,20.95,75.7,3.4,91.843-39.179,91.843-39.179S483.936,682.612,438.491,679.992Z" transform="translate(-99.873 -455.838)" fill="#d5dfff"/>
      <path id="Trazado_130533" data-name="Trazado 130533" d="M406.114,774.034c.9-.03,1.788-.049,2.672-.063-15.122-25.649-39.889-52.557-77.129-52.06-33.83.454-62.964,28.255-84.187,57.2a83.426,83.426,0,0,0,24.152,7.5C328,795.466,350.822,775.838,406.114,774.034Z" transform="translate(-206.797 -549.047)" fill="#e6edff"/>
      <ellipse id="Elipse_4302" data-name="Elipse 4302" cx="177.254" cy="10.967" rx="177.254" ry="10.967" transform="translate(54.726 177.501)" fill="#dde4f5"/>
      <path id="Trazado_130534" data-name="Trazado 130534" d="M1290.637,779.753l-5.327-3.461,3.812-2.372,3.426,2.364,1.178,3.7Z" transform="translate(-962.263 -586.91)" fill="#d3d4d4"/>
      <path id="Trazado_130535" data-name="Trazado 130535" d="M1318.619,773.952l-7.839-4.9.7-3.1,8.47,5.2.411,1.241-1.156.947Z" transform="translate(-980.803 -581.109)" fill="#d3d4d4"/>
      <path id="Trazado_130536" data-name="Trazado 130536" d="M639.021,109.45c-41.993-12.595-80.429,13.563-135.849,6.772-56.84-6.968-123.265-49.17-186.747-18.735-49.518,23.739-35.7,73.886-35.7,73.886s42.444-43.473,86.5-43.391c45.682.084,73.891,111.212,149.869,117.742s98.833-89.4,148.879-82.573C665.976,163.15,683.049,122.654,639.021,109.45Z" transform="translate(-229.714 -86.582)" fill="#d5dfff"/>
      <path id="Trazado_130537" data-name="Trazado 130537" d="M1057.365,149.218c-30.745,2.008-62.439,15.019-103.444,9.993-17.772-2.177-36.48-7.8-55.741-13.571,12.548,30.364,41.84,83.982,88.235,69.949C1025.635,203.723,1039.685,171.585,1057.365,149.218Z" transform="translate(-680.463 -129.572)" fill="#e6edff"/>
      <path id="Trazado_130538" data-name="Trazado 130538" d="M1100.662,748.269l-40.338,1.622-41.484-1.951v1.086l14.812,8.413,7.1-5.431,62.758,3.23Z" transform="translate(-768.294 -567.999)" fill="#d3d4d4"/>
      <path id="Trazado_130539" data-name="Trazado 130539" d="M420.2,443.713a25.27,25.27,0,0,0,10.225-20.183c0-8.516-3.306-15.489-9.564-20.175-6.685-5.376-15.489-7.776-28.53-7.776a122.517,122.517,0,0,0-23.042,2.043l-3.657.77v99.875l3.975.544a144.606,144.606,0,0,0,19.388,1.156c16.782,0,28.057-3.167,35.487-9.964l.1-.092a29.7,29.7,0,0,0,9.319-22.066C433.9,456.117,427.62,448.222,420.2,443.713ZM393.3,435.875h-6.372V414.329c1.741-.15,3.776-.226,6.092-.226,15.96,0,15.96,7.757,15.96,10.679C408.991,431.625,402.973,435.875,393.3,435.875Zm-.835,45.437c-2.177,0-4.008-.038-5.537-.114V454.262h5.4c7.311,0,19.571,1.749,19.571,13.457C411.9,478.95,401.332,481.312,392.468,481.312Z" transform="translate(-292.808 -311.508)" fill="#fff"/>
      <path id="Trazado_130540" data-name="Trazado 130540" d="M705.292,467.766c-1.779-7.79-4.827-13.688-9.093-17.642a29.621,29.621,0,0,0,6.982-6.35,28.945,28.945,0,0,0,6.119-18.2c0-8.609-3.162-16.142-8.9-21.222-6.75-6.1-16.053-8.815-30.165-8.815a130.44,130.44,0,0,0-24.128,2.038l-3.684.754V499.112h21.3V458.54h6.7c7.664.3,11.77,2.587,14.344,14.564v.046c3.2,14.148,5.1,20.792,6.758,23.671l1.333,2.3H715.74l-3.657-6.8C710.374,489.146,707.994,479.316,705.292,467.766Zm-41.568-53.327a66.114,66.114,0,0,1,7.316-.367C688,414.264,688,423.828,688,426.973c0,8.13-6.326,13.179-16.512,13.179h-7.76Z" transform="translate(-494.29 -311.479)" fill="#fff"/>
      <rect id="Rectángulo_30912" data-name="Rectángulo 30912" width="21.304" height="102.867" transform="translate(229.242 84.765)" fill="#fff"/>
      <path id="Trazado_130541" data-name="Trazado 130541" d="M1431.623,417.488V398.13H1371.97V501h21.3V458.618h35.433V439.4h-35.433v-21.91Z" transform="translate(-1025.345 -313.365)" fill="#fff"/>
      <path id="Trazado_130542" data-name="Trazado 130542" d="M1046.13,389.556l7.387,105.678,72.117-.076,3.507-107.427Z" transform="translate(-788.159 -305.794)" fill="#d3a085"/>
      <path id="Trazado_130543" data-name="Trazado 130543" d="M1320.446,502.12l2.6.188,1.981-99.3-5.458,4.266Z" transform="translate(-987.202 -316.917)" fill="#e6e7e8"/>
      <path id="Trazado_130544" data-name="Trazado 130544" d="M1060.7,404.438l75.891-1.428-3.776,99.894-64.912-.267Z" transform="translate(-798.765 -316.917)" fill="#fff"/>
      <path id="Trazado_130545" data-name="Trazado 130545" d="M1100.084,634.088l15.182-.476.229-11.082-16.134.939Z" transform="translate(-826.906 -476.71)" fill="#e6e7e8"/>
      <path id="Trazado_130546" data-name="Trazado 130546" d="M1095.93,572.286l.623,9.169,16.518.1.218-10.486Z" transform="translate(-824.409 -439.251)" fill="#e6e7e8"/>
      <path id="Trazado_130547" data-name="Trazado 130547" d="M1107.273,458.822l.3-14.192-20.479.226.99,14.57Z" transform="translate(-817.975 -347.213)" fill="#e6e7e8"/>
      <path id="Trazado_130548" data-name="Trazado 130548" d="M1091.8,509.667l.835,12.284,17.707.182.3-14.374Z" transform="translate(-821.403 -393.167)" fill="#e6e7e8"/>
      <path id="Trazado_130549" data-name="Trazado 130549" d="M1102.76,675.99l.917,12.5,13.74-.427.34-12.061Z" transform="translate(-829.381 -515.625)" fill="#e6e7e8"/>
      <path id="Trazado_130550" data-name="Trazado 130550" d="M1271.624,397.213a22.893,22.893,0,0,0-2.005-8.233l-3.752.117-5.537,1.793,9.727,4.081Z" transform="translate(-944.08 -306.704)" fill="#e6e7e8"/>
      <path id="Trazado_130551" data-name="Trazado 130551" d="M1095.22,453.364l3.382-1.107,4.062,4.492,4.508-9.1h4.1l-7.885,12.012Z" transform="translate(-823.893 -349.411)" fill="#37bad1"/>
      <path id="Trazado_130552" data-name="Trazado 130552" d="M1095.22,515.394l3.382-1.107,4.062,4.489,4.508-9.1h4.1l-7.885,12.012Z" transform="translate(-823.893 -394.564)" fill="#37bad1"/>
      <path id="Trazado_130553" data-name="Trazado 130553" d="M1095.22,570.224l3.382-1.107,4.062,4.489,4.508-9.1h4.1l-7.885,12.012Z" transform="translate(-823.893 -434.476)" fill="#37bad1"/>
      <path id="Trazado_130554" data-name="Trazado 130554" d="M1095.22,622.094l3.382-1.107,4.062,4.489,4.508-9.1h4.1l-7.885,12.012Z" transform="translate(-823.893 -472.233)" fill="#37bad1"/>
      <path id="Trazado_130555" data-name="Trazado 130555" d="M1095.22,677.2l3.382-1.107,4.062,4.489,4.508-9.1h4.1l-7.885,12.012Z" transform="translate(-823.893 -512.349)" fill="#37bad1"/>
      <path id="Trazado_130556" data-name="Trazado 130556" d="M1173.18,444.63v3.7l31.923-1.034V444.63Z" transform="translate(-880.641 -347.213)" fill="#f1f2f2"/>
      <path id="Trazado_130557" data-name="Trazado 130557" d="M1173.18,463.89v3.7h40.98v-2.767Z" transform="translate(-880.641 -361.233)" fill="#f1f2f2"/>
      <path id="Trazado_130558" data-name="Trazado 130558" d="M1173.18,483.15v3.7h22.457v-2.917Z" transform="translate(-880.641 -375.252)" fill="#f1f2f2"/>
      <path id="Trazado_130559" data-name="Trazado 130559" d="M1171.31,510.18v3.406l36.4-.952V510.18Z" transform="translate(-879.28 -394.928)" fill="#f1f2f2"/>
      <path id="Trazado_130560" data-name="Trazado 130560" d="M1171.31,527.92v3.406h28.462V528.78Z" transform="translate(-879.28 -407.841)" fill="#f1f2f2"/>
      <path id="Trazado_130561" data-name="Trazado 130561" d="M1171.31,545.65v3.406h33.754v-2.685Z" transform="translate(-879.28 -420.747)" fill="#f1f2f2"/>
      <path id="Trazado_130562" data-name="Trazado 130562" d="M1168.95,578.41v3.4h28.462V579.27Z" transform="translate(-877.562 -444.594)" fill="#f1f2f2"/>
      <path id="Trazado_130563" data-name="Trazado 130563" d="M1168.95,596.14v3.406h40.98v-2.685Z" transform="translate(-877.562 -457.5)" fill="#f1f2f2"/>
      <path id="Trazado_130564" data-name="Trazado 130564" d="M1168.95,622.53v3.406h22.591v-2.544Z" transform="translate(-877.562 -476.71)" fill="#f1f2f2"/>
      <path id="Trazado_130565" data-name="Trazado 130565" d="M1168.95,640.26v3.406h34.4v-2.685Z" transform="translate(-877.562 -489.616)" fill="#f1f2f2"/>
      <path id="Trazado_130566" data-name="Trazado 130566" d="M1168.95,707.66v3.406h27.374v-2.685Z" transform="translate(-877.562 -538.678)" fill="#f1f2f2"/>
      <path id="Trazado_130567" data-name="Trazado 130567" d="M1168.95,675.99V679.4H1200.6v-2.688Z" transform="translate(-877.562 -515.625)" fill="#f1f2f2"/>
      <path id="Trazado_130568" data-name="Trazado 130568" d="M1110.084,392.643a22.471,22.471,0,0,0-1.064,8.116l2.974-3.39,4.411-3.094V392.51Z" transform="translate(-833.905 -309.274)" fill="#e6e7e8"/>
      <path id="Trazado_130569" data-name="Trazado 130569" d="M1172.01,294.526a10.8,10.8,0,1,0,11.131,10.464,10.8,10.8,0,0,0-11.131-10.464Zm-.416,16.665a5.368,5.368,0,1,1,5.2-5.534,5.368,5.368,0,0,1-5.2,5.534Z" transform="translate(-872.174 -237.945)" fill="#faaf4e"/>
      <path id="Trazado_130570" data-name="Trazado 130570" d="M1109.14,375.438s4.682-17.04,25.26-17.685a27.925,27.925,0,0,1,27.17,16.719Z" transform="translate(-834.025 -283.961)" fill="#faaf4e"/>
      <path id="Trazado_130571" data-name="Trazado 130571" d="M1163.24,367.188l2.177,2.136a14.779,14.779,0,0,1,5.618-4.263A21.769,21.769,0,0,0,1163.24,367.188Z" transform="translate(-873.406 -289.292)" fill="#ffc982"/>
      <path id="Trazado_130572" data-name="Trazado 130572" d="M1124.44,385.21a28.927,28.927,0,0,0-7.15,8.753l10.208-.321a23.264,23.264,0,0,1,2.473-6.7Z" transform="translate(-839.958 -303.96)" fill="#ffc982"/>
      <path id="Trazado_130573" data-name="Trazado 130573" d="M530.168,272.145c-12.418,6.086-9.523,32.429,11.928,30.255s18.441-21.57,12.788-26.963A21.751,21.751,0,0,0,530.168,272.145Z" transform="translate(-407.23 -219.901)" fill="#f1f2f2"/>
      <path id="Trazado_130574" data-name="Trazado 130574" d="M545.32,295.188l6.524-1.978,18.784,17.144-7.118,1.777Z" transform="translate(-423.609 -236.991)" fill="#d13756"/>
      <path id="Trazado_130575" data-name="Trazado 130575" d="M563.186,293.21,547.74,310.133l4.416,3.094,16.784-18.918Z" transform="translate(-425.37 -236.991)" fill="#d13756"/>
      <path id="Trazado_130576" data-name="Trazado 130576" d="M728.342,192.538c-12.415,6.086-9.523,32.426,11.931,30.255s18.442-21.57,12.788-26.963A21.743,21.743,0,0,0,728.342,192.538Z" transform="translate(-551.485 -161.952)" fill="#f1f2f2"/>
      <path id="Trazado_130577" data-name="Trazado 130577" d="M709.75,176.517h9.795l8.285,13.332,15.862-22.038,10.255,3.537-24.258,30.745Z" transform="translate(-543.301 -145.71)" fill="#37bad1"/>
      <path id="Trazado_130578" data-name="Trazado 130578" d="M931.974,268.264c-10.121,4.96-7.762,26.438,9.727,24.664s15.035-17.584,10.429-21.981A17.733,17.733,0,0,0,931.974,268.264Z" transform="translate(-700.702 -217.399)" fill="#f1f2f2"/>
      <path id="Trazado_130579" data-name="Trazado 130579" d="M916.84,255.229h7.985l6.756,10.87,12.932-17.968,8.358,2.884-19.777,25.067Z" transform="translate(-694.046 -204.176)" fill="#3796d1"/>
      <path id="Trazado_130580" data-name="Trazado 130580" d="M1210.174,518.089l-.226-2.432-6.105-.131-13.653-5.972-14.964-5-5.866.272,8.723,8.957,17.75,4.848V529.51l7.281-.512-1.088,18.684.566.5c-2.547,10.339-1.739,30.661-1.681,32.026h7.237Z" transform="translate(-877.861 -390.83)" fill="#d3d4d4"/>
      <path id="Trazado_130581" data-name="Trazado 130581" d="M1274.13,533.625l-8.853,2.1.128-12.075-3.1-.713-1.673,18.15,11.62-.781v-.838Z" transform="translate(-944.298 -404.216)" fill="#3c79cd"/>
      <path id="Trazado_130582" data-name="Trazado 130582" d="M1435.341,580.25l5.109,2.141-3.091,8.312-5.73-2.215Z" transform="translate(-1068.773 -445.934)" fill="#faaf4e"/>
      <path id="Trazado_130583" data-name="Trazado 130583" d="M1243.8,515.059l-3.82,9.047-61.824-22.721-8.81-8.742,13.226-1.083Z" transform="translate(-877.853 -381.374)" fill="#37bad1"/>
      <path id="Trazado_130584" data-name="Trazado 130584" d="M1180.086,495.1l2.209,2.626-4.691.974.555,2.688-8.81-8.742,13.226-1.083,1.208,3.477Z" transform="translate(-877.853 -381.374)" fill="#f5f5f5"/>
      <path id="Trazado_130585" data-name="Trazado 130585" d="M1172.966,498.11l-3.616-3.589,4.628-.381Z" transform="translate(-877.853 -383.252)" fill="#37bad1"/>
      <path id="Trazado_130586" data-name="Trazado 130586" d="M1438.25,605.539l-.89,2.394-5.73-2.215.811-1.8Z" transform="translate(-1068.773 -463.163)" fill="#f79b3f"/>
      <path id="Trazado_130587" data-name="Trazado 130587" d="M1241.105,524.348l-2.212,2.245-60.733-22.311-8.81-8.742,8.255,6.054Z" transform="translate(-877.853 -384.271)" fill="#dedfe0"/>
      <path id="Trazado_130588" data-name="Trazado 130588" d="M1413.707,567.3l6.7,3.221-4.5,9.8-6.535-2.062Z" transform="translate(-1052.569 -436.507)" fill="#f1f1f2"/>
      <path id="Trazado_130589" data-name="Trazado 130589" d="M1416.675,603.589l-.77,1.679-6.535-2.062.648-1.635Z" transform="translate(-1052.569 -461.453)" fill="#d7d8d9"/>
      <path id="Trazado_130590" data-name="Trazado 130590" d="M1275.537,524.194l-54.018-20.414-.258.158,54.184,20.49Z" transform="translate(-915.64 -390.269)" fill="#fff"/>
      <path id="Trazado_130591" data-name="Trazado 130591" d="M1270.3,534.843,1216.1,513.52l-.1.231,54.209,21.326Z" transform="translate(-911.811 -397.359)" fill="#fff"/>
      <g id="Grupo_56044" data-name="Grupo 56044" transform="translate(363.755 134.714)">
        <path id="Trazado_130592" data-name="Trazado 130592" d="M1439.251,581.944l-3.126,8.415-1.194-.463,3.757-8.187Z" transform="translate(-1434.93 -581.71)" fill="#f1f2f2"/>
      </g>
      <path id="Trazado_130593" data-name="Trazado 130593" d="M1312.115,570.6l-2.043,5.289a55.3,55.3,0,0,0,.784,12.222l1.189,7.074,8.32-.857-.566-21.418-1.409-3.028-3.243-.762Z" transform="translate(-980.239 -437.832)" fill="#f4f9fc"/>
      <path id="Trazado_130594" data-name="Trazado 130594" d="M1322.37,578.64l-.678.468-2.122,10.87,3.11,4.677,2-4.326.269-4.193-1.943-7.028-.37-.468Z" transform="translate(-987.202 -444.762)" fill="#d13756"/>
      <path id="Trazado_130595" data-name="Trazado 130595" d="M1343.79,781.49V783.7l.928-.166.269-1.739Z" transform="translate(-1004.832 -592.42)" fill="#f29c50"/>
      <path id="Trazado_130596" data-name="Trazado 130596" d="M1308.54,781.762l.18,1.673.735.063.335-2.008Z" transform="translate(-979.173 -592.42)" fill="#f29c50"/>
      <path id="Trazado_130597" data-name="Trazado 130597" d="M1303.568,653.737l-.544.471a218.828,218.828,0,0,0,1.317,34.714h1.26l4.9-30.252s3.39,26.231,3.39,30.252h1.257s3.975-14.913,1.306-35.253l-3.151-.909-6.941.375Z" transform="translate(-975.02 -498.715)" fill="#3469b3"/>
      <path id="Trazado_130598" data-name="Trazado 130598" d="M1306.027,788.14h.776s1.129.816,1.232,1.246a1.937,1.937,0,0,1-.084.952s-.378.378-1.73.378-1.36-.612-1.36-.612v-.612A5.5,5.5,0,0,1,1306.027,788.14Z" transform="translate(-976.494 -597.261)" fill="#102762"/>
      <path id="Trazado_130599" data-name="Trazado 130599" d="M1306.248,794.334c1.36,0,1.73-.378,1.73-.378a2.228,2.228,0,0,0,.117-.718c-2.334.8-3.205-.128-3.205-.128v.612S1304.9,794.334,1306.248,794.334Z" transform="translate(-976.516 -600.879)" fill="#1e49b8"/>
      <path id="Trazado_130600" data-name="Trazado 130600" d="M1340.725,788.14h.963s.96.816,1.067,1.246a1.937,1.937,0,0,1-.084.952s-.378.378-1.73.378-1.36-.612-1.36-.612v-.612Z" transform="translate(-1001.768 -597.261)" fill="#102762"/>
      <path id="Trazado_130601" data-name="Trazado 130601" d="M1340.94,794.334c1.36,0,1.73-.378,1.73-.378a2.238,2.238,0,0,0,.117-.718c-2.334.8-3.208-.128-3.208-.128v.612S1339.588,794.334,1340.94,794.334Z" transform="translate(-1001.768 -600.879)" fill="#1e49b8"/>
      <path id="Trazado_130602" data-name="Trazado 130602" d="M1310.632,659.14l-.272-3.94-3.937-.8-2.448.544-.544.471s-.027.5-.06,1.426Z" transform="translate(-975.41 -499.909)" fill="#2c5a99"/>
      <path id="Trazado_130603" data-name="Trazado 130603" d="M1338.422,656.8l-3.915-.6-1.227.18-.37.131v4.068l5.738-1.793Q1338.547,657.8,1338.422,656.8Z" transform="translate(-996.912 -501.219)" fill="#2c5a99"/>
      <path id="Trazado_130604" data-name="Trazado 130604" d="M1319.207,648.348l6.114-.158-.106,2.1-1.388.392h-5.286l.427-1.477Z" transform="translate(-986.452 -495.389)" fill="#7d4629"/>
      <path id="Trazado_130605" data-name="Trazado 130605" d="M1318.427,550.851l-.133,2.375-.533.775,1.894,1.709.947.639,1.8-1.042.239-2.294-.294-2.484h-3.39Z" transform="translate(-985.884 -424.3)" fill="#f7d5a0"/>
      <g id="Grupo_56045" data-name="Grupo 56045" transform="translate(332.42 126.23)">
        <path id="Trazado_130606" data-name="Trazado 130606" d="M1324.021,552.334l-.2-1.725-.3-.079h-3.1l-.544.321-.112,2A5.843,5.843,0,0,0,1324.021,552.334Z" transform="translate(-1319.76 -550.53)" fill="#f2c094"/>
      </g>
      <path id="Trazado_130607" data-name="Trazado 130607" d="M1323.45,570.208l1.067,1.709h1.314l.955-1.709-1.164-1.448-.691.1-.713.014Z" transform="translate(-990.026 -437.57)" fill="#d13756"/>
      <path id="Trazado_130608" data-name="Trazado 130608" d="M1299.328,568.948a83.706,83.706,0,0,1,.5,8.706v11.212l7.126,2.057-.174-12.6s-.849-12.461-2.079-14.624l-2.405-1.5-2.974.713Z" transform="translate(-972.461 -432.795)" fill="#3c79cd"/>
      <path id="Trazado_130609" data-name="Trazado 130609" d="M1307.387,562.624l-.588-.414-1.29,2.642,2.242,1.227-1.418,1.633,4.949,10.633-.188-3.477a58.688,58.688,0,0,0-1.774-11.155l-.8-.373-.933-.522Z" transform="translate(-976.967 -432.802)" fill="#2b5691"/>
      <path id="Trazado_130610" data-name="Trazado 130610" d="M1312.848,559.07l-2.6.854s1.113,3.213,3.461,4.625c0,0,1.146-1.758,1.611-2.721C1315.322,561.8,1313.039,560.659,1312.848,559.07Z" transform="translate(-980.418 -430.516)" fill="#c9dff2"/>
      <path id="Trazado_130611" data-name="Trazado 130611" d="M1341.588,571.239a13.245,13.245,0,0,0-1.336,4.734c-.272,2.8.348,13.454.348,13.454l-5.874,2.269s-.561-11.971.272-15.563l2.03-4.9a22.383,22.383,0,0,1-.161-3.3c.133-.56.359-5.006.359-5.006l3.455,1.79-.052,4.25Z" transform="translate(-998.1 -433.326)" fill="#3c79cd"/>
      <path id="Trazado_130612" data-name="Trazado 130612" d="M1336.85,563h.574l2.177,2.237-1.633,1.36,1.633,1.934-2.843,6.44-1.937,4.454s.71-11.876,1.23-15.024l.615-.99Z" transform="translate(-998.303 -433.377)" fill="#2b5691"/>
      <path id="Trazado_130613" data-name="Trazado 130613" d="M1330.71,558.58a20.4,20.4,0,0,1,2.4,1.186,11.445,11.445,0,0,1-2.228,4.272s-1.507-1.869-1.989-2.59A3.406,3.406,0,0,0,1330.71,558.58Z" transform="translate(-993.986 -430.16)" fill="#c9dff2"/>
      <path id="Trazado_130614" data-name="Trazado 130614" d="M1351.048,569.52l11,14.651-12.878.827-.378-2.117,4.952-.99-3.98-5.208.713-3.453-.261-2.816Z" transform="translate(-1008.472 -438.123)" fill="#3c79cd"/>
      <path id="Trazado_130615" data-name="Trazado 130615" d="M1328.066,609.111l-.6,9.359h-6.209l-.1-9.49Z" transform="translate(-988.352 -466.847)" fill="#f1f2f2"/>
      <path id="Trazado_130616" data-name="Trazado 130616" d="M1334.783,616.282a6.056,6.056,0,0,0-.754-1.292l-.084,1.292s-4.024-.171-4.057.207.778.427.778.427-1.211.15-1.2.354,1.382.326,1.382.326-.958-.049-.963.378,1.76.229,1.76.229-1.028.073-.982.351,1.856.155,3.148-.15,1.257-.509,1.257-.509Z" transform="translate(-994.408 -471.222)" fill="#f7d5a0"/>
      <path id="Trazado_130617" data-name="Trazado 130617" d="M1311.758,505.287a8.242,8.242,0,0,0-6.258,7.055l1.567.272a5.159,5.159,0,0,0,.158,4.331c1.175,2.155,4.4,2.748,8.481-.661S1318.448,503.549,1311.758,505.287Z" transform="translate(-976.96 -391.211)" fill="#f7d5a0"/>
      <path id="Trazado_130618" data-name="Trazado 130618" d="M1312.916,498.526s-1.45-4.555,2.021-5.673,5.229,1.744,7.988,5.344c2.362,3.08,3.265,6.674.4,8.658a10.358,10.358,0,0,1-4.582,1.9l2.073-5.262c-2.449-.272-6.037-3.747-5.814-6.554A9.175,9.175,0,0,0,1312.916,498.526Z" transform="translate(-982.14 -382.137)" fill="#6e3d24"/>
      <path id="Trazado_130619" data-name="Trazado 130619" d="M1332.37,528.144a2.6,2.6,0,0,1,2.609-1.039c1.551.435-.887,4.84-2.476,4.236S1332.37,528.144,1332.37,528.144Z" transform="translate(-996.076 -407.19)" fill="#f7d5a0"/>
      <path id="Trazado_130620" data-name="Trazado 130620" d="M1346.62,626.137a5.374,5.374,0,0,1-1.36.52l.033-.405a4.266,4.266,0,0,0,1.257-.482l1.45.174h0v.476Z" transform="translate(-1005.902 -479.069)" fill="#2c5a99"/>
      <path id="Trazado_130621" data-name="Trazado 130621" d="M1318,493.937a3.592,3.592,0,0,1,.841-.4,10.948,10.948,0,0,0,4.658,1.252,16.134,16.134,0,0,1,1.36,1.507,7.833,7.833,0,0,1-3.57.063A4.408,4.408,0,0,1,1318,493.937Z" transform="translate(-986.059 -382.816)" fill="#8c4d2e"/>
      <path id="Trazado_130622" data-name="Trazado 130622" d="M1327.462,618.47h-6.209l-.1-9.49h.626c0,.318.37,7.58,4.4,8.619.492.128.933.229,1.325.31Z" transform="translate(-988.352 -466.847)" fill="#e6e7e8"/>
      <path id="Trazado_130623" data-name="Trazado 130623" d="M1353.972,597.958l-1.252-1.638,1.007,2.386Z" transform="translate(-1011.332 -457.631)" fill="#2c5a99"/>
      <path id="Trazado_130624" data-name="Trazado 130624" d="M1299.459,587.908a6.215,6.215,0,0,0-.109-.868h1.676Z" transform="translate(-972.483 -450.876)" fill="#2c5a99"/>
      <path id="Trazado_130625" data-name="Trazado 130625" d="M1271.621,508.928c2,.868,3.026,2.974,2.481,3.126s-1.39-1.067-1.39-1.067,1.442,1.763.884,2.147-1.556-1.725-1.556-1.725.672,1.4.057,1.458-.9-1.543-.9-1.543.359,1.047-.068,1.178S1268.8,507.72,1271.621,508.928Z" transform="translate(-951.197 -393.878)" fill="#f7d5a0"/>
    </g>
  </g>
</svg>
