<svg xmlns="http://www.w3.org/2000/svg" xmlns:xlink="http://www.w3.org/1999/xlink" width="279.734" height="234.123" viewBox="0 0 279.734 234.123">
  <defs>
    <linearGradient id="linear-gradient" x1="0.374" y1="1.075" x2="0.618" y2="-0.112" gradientUnits="objectBoundingBox">
      <stop offset="0" stop-color="#26264f"/>
      <stop offset="1" stop-color="#444b8c"/>
    </linearGradient>
    <linearGradient id="linear-gradient-2" x1="0.298" y1="1.036" x2="0.602" y2="-0.065" xlink:href="#linear-gradient"/>
    <linearGradient id="linear-gradient-3" x1="0.2" y1="0.998" x2="0.68" y2="-0.019" xlink:href="#linear-gradient"/>
    <linearGradient id="linear-gradient-4" x1="0.107" y1="0.982" x2="0.782" y2="0.001" xlink:href="#linear-gradient"/>
    <linearGradient id="linear-gradient-5" x1="0.071" y1="0.982" x2="1.042" y2="0.05" xlink:href="#linear-gradient"/>
    <linearGradient id="linear-gradient-6" x1="2.618" y1="-6.7" x2="-1.041" y2="5.732" gradientUnits="objectBoundingBox">
      <stop offset="0" stop-color="#e38ddd"/>
      <stop offset="1" stop-color="#9571f6"/>
    </linearGradient>
    <linearGradient id="linear-gradient-7" x1="2.367" y1="-3.697" x2="-1.441" y2="4.856" xlink:href="#linear-gradient-6"/>
    <linearGradient id="linear-gradient-8" x1="2.026" y1="-1.434" x2="-1.934" y2="3.572" xlink:href="#linear-gradient-6"/>
    <linearGradient id="linear-gradient-9" x1="1.67" y1="-0.523" x2="-2.445" y2="3.055" xlink:href="#linear-gradient-6"/>
    <linearGradient id="linear-gradient-10" x1="1.059" y1="0.242" x2="-2.167" y2="2.281" xlink:href="#linear-gradient-6"/>
    <linearGradient id="linear-gradient-11" x1="0.742" y1="-0.156" x2="0.199" y2="1.555" gradientUnits="objectBoundingBox">
      <stop offset="0" stop-color="#ffc444"/>
      <stop offset="1" stop-color="#f36f56"/>
    </linearGradient>
    <linearGradient id="linear-gradient-12" x1="0.63" y1="0.061" x2="0.211" y2="1.471" gradientUnits="objectBoundingBox">
      <stop offset="0" stop-color="#fff"/>
      <stop offset="1" stop-color="#ebeff2"/>
    </linearGradient>
    <linearGradient id="linear-gradient-13" x1="0.67" y1="0.158" x2="0.236" y2="1.356" xlink:href="#linear-gradient-11"/>
    <linearGradient id="linear-gradient-14" x1="0.63" y1="0.061" x2="0.211" y2="1.471" xlink:href="#linear-gradient-12"/>
    <linearGradient id="linear-gradient-15" x1="9.324" y1="-7.072" x2="10.33" y2="-7.072" xlink:href="#linear-gradient-11"/>
    <linearGradient id="linear-gradient-16" x1="7.607" y1="-2.861" x2="8.685" y2="-2.861" gradientUnits="objectBoundingBox">
      <stop offset="0" stop-color="#444b8c"/>
      <stop offset="1" stop-color="#26264f"/>
    </linearGradient>
    <linearGradient id="linear-gradient-17" x1="11.684" y1="-3.858" x2="12.908" y2="-3.858" xlink:href="#linear-gradient-11"/>
    <linearGradient id="linear-gradient-18" x1="11.124" y1="-3.616" x2="12.362" y2="-3.616" gradientUnits="objectBoundingBox">
      <stop offset="0" stop-color="#ab316d"/>
      <stop offset="1" stop-color="#792d3d"/>
    </linearGradient>
    <linearGradient id="linear-gradient-19" x1="8.823" y1="-6.916" x2="9.835" y2="-6.916" xlink:href="#linear-gradient-18"/>
    <linearGradient id="linear-gradient-20" x1="15.107" y1="-3.315" x2="15.139" y2="-1.76" xlink:href="#linear-gradient-18"/>
    <linearGradient id="linear-gradient-21" x1="19.984" y1="-3.659" x2="20.026" y2="-1.979" xlink:href="#linear-gradient-18"/>
    <linearGradient id="linear-gradient-22" x1="4.959" y1="-1.805" x2="5.02" y2="-0.879" xlink:href="#linear-gradient-12"/>
    <linearGradient id="linear-gradient-23" x1="1.039" y1="-0.209" x2="-0.247" y2="1.475" gradientUnits="objectBoundingBox">
      <stop offset="0" stop-color="#ff9085"/>
      <stop offset="1" stop-color="#fb6fbb"/>
    </linearGradient>
    <linearGradient id="linear-gradient-24" x1="0.807" y1="-0.297" x2="0.076" y2="1.59" xlink:href="#linear-gradient-23"/>
    <linearGradient id="linear-gradient-25" x1="0.695" y1="-0.44" x2="0.232" y2="1.786" xlink:href="#linear-gradient-23"/>
    <linearGradient id="linear-gradient-26" x1="1.379" y1="-0.171" x2="-0.717" y2="1.426" xlink:href="#linear-gradient-23"/>
    <linearGradient id="linear-gradient-27" x1="1.297" y1="-0.177" x2="-0.603" y2="1.434" xlink:href="#linear-gradient-23"/>
    <linearGradient id="linear-gradient-28" x1="1.477" y1="-0.166" x2="-0.853" y2="1.419" xlink:href="#linear-gradient-23"/>
    <linearGradient id="linear-gradient-29" x1="1.23" y1="-0.184" x2="-0.51" y2="1.442" xlink:href="#linear-gradient-23"/>
    <linearGradient id="linear-gradient-30" x1="0.947" y1="-0.232" x2="-0.118" y2="1.504" xlink:href="#linear-gradient-23"/>
    <linearGradient id="linear-gradient-31" x1="-79.961" y1="0.5" x2="-78.961" y2="0.5" gradientUnits="objectBoundingBox">
      <stop offset="0" stop-color="#40447e"/>
      <stop offset="1" stop-color="#3c3b6b"/>
    </linearGradient>
    <linearGradient id="linear-gradient-32" x1="-111.038" y1="0.5" x2="-110.038" y2="0.5" xlink:href="#linear-gradient-31"/>
    <linearGradient id="linear-gradient-33" x1="-151.072" y1="1.085" x2="-150.385" y2="3.062" gradientUnits="objectBoundingBox">
      <stop offset="0" stop-color="#311944"/>
      <stop offset="1" stop-color="#a03976"/>
    </linearGradient>
    <linearGradient id="linear-gradient-34" x1="-207.305" y1="-2.414" x2="-208.88" y2="5.497" xlink:href="#linear-gradient-33"/>
    <linearGradient id="linear-gradient-35" x1="-24.425" y1="0.872" x2="-25.271" y2="0.479" xlink:href="#linear-gradient-18"/>
    <linearGradient id="linear-gradient-36" x1="-18.955" y1="-0.044" x2="-19.31" y2="0.875" xlink:href="#linear-gradient-11"/>
    <linearGradient id="linear-gradient-37" x1="-82.91" y1="1.235" x2="-83.451" y2="0.559" xlink:href="#linear-gradient-33"/>
    <linearGradient id="linear-gradient-38" x1="-14.267" y1="0.116" x2="-14.553" y2="1.45" xlink:href="#linear-gradient-11"/>
    <linearGradient id="linear-gradient-39" x1="-20.411" y1="-0.356" x2="-20.793" y2="0.833" xlink:href="#linear-gradient-11"/>
    <linearGradient id="linear-gradient-40" x1="-78.72" y1="1.51" x2="-77.591" y2="-0.984" xlink:href="#linear-gradient-33"/>
    <linearGradient id="linear-gradient-41" x1="-117.912" y1="2.049" x2="-116.222" y2="-0.191" xlink:href="#linear-gradient-33"/>
    <linearGradient id="linear-gradient-42" x1="-652.987" y1="6.889" x2="-643.654" y2="-3.201" xlink:href="#linear-gradient-33"/>
    <linearGradient id="linear-gradient-43" x1="37.751" y1="-8.828" x2="36.964" y2="-15.509" xlink:href="#linear-gradient-16"/>
    <linearGradient id="linear-gradient-44" x1="129.459" y1="-8.362" x2="129.459" y2="-18.127" xlink:href="#linear-gradient-11"/>
    <linearGradient id="linear-gradient-45" x1="88.752" y1="-8.816" x2="88.752" y2="-18.226" xlink:href="#linear-gradient-11"/>
    <linearGradient id="linear-gradient-46" x1="49.4" y1="-5.754" x2="48.362" y2="-9.486" xlink:href="#linear-gradient-16"/>
    <linearGradient id="linear-gradient-47" x1="-3.129" y1="-3.636" x2="-2.674" y2="-1.632" gradientUnits="objectBoundingBox">
      <stop offset="0" stop-color="#aa80f9"/>
      <stop offset="1" stop-color="#6165d7"/>
    </linearGradient>
    <linearGradient id="linear-gradient-48" x1="26.647" y1="-2.539" x2="25.987" y2="-1.672" xlink:href="#linear-gradient-11"/>
    <linearGradient id="linear-gradient-49" x1="11.094" y1="-1.483" x2="10.559" y2="-0.538" xlink:href="#linear-gradient-16"/>
    <linearGradient id="linear-gradient-50" x1="13.71" y1="-1.652" x2="13.139" y2="-0.482" xlink:href="#linear-gradient-12"/>
    <linearGradient id="linear-gradient-51" x1="77.795" y1="-6.814" x2="76.848" y2="-5.882" xlink:href="#linear-gradient-11"/>
  </defs>
  <g id="objetivo-01" transform="translate(-466.959 -503.689)">
    <g id="Illustration" transform="translate(466.959 503.689)">
      <path id="Trazado_131448" data-name="Trazado 131448" d="M719.535,545.007c-4.265-4.652-40.778-43.123-99.964-41.252-2.957.094-60.68,2.523-81.97,32.679-15.749,22.308.925,42.1-18.289,57.3-16.741,13.243-37.315,4.477-47.6,15.186-15.671,16.313,9.285,60.37,47.629,84.94,39.59,25.37,115.337,43.983,174.209,10.134C759.645,665.994,758.974,588.024,719.535,545.007Z" transform="translate(-466.959 -503.689)" fill="rgba(125,110,178,0.6)" opacity="0.3"/>
      <path id="Trazado_131465" data-name="Trazado 131465" d="M720.944,2895.412l-22.611,4.356c-4.575.45-10.633-4.469-10.633-8.646v-7.99c0-4.177,3.722-7.895,8.3-8.3l24.947-2.226c4.468-.4,8.078,2.612,8.078,6.716v7.858C729.022,2891.286,725.411,2894.973,720.944,2895.412Z" transform="translate(-667.11 -2671.652)" fill="url(#linear-gradient)"/>
      <path id="Trazado_131466" data-name="Trazado 131466" d="M1256.811,2731.255l-21.747,4.21c-4.4.432-10.194-4.384-10.194-8.478v-20.035c0-4.094,3.574-7.714,7.969-8.084l23.972-2.021c4.291-.362,11.781,2.957,11.781,6.986l-4.016,19.363C1264.576,2727.223,1261.105,2730.83,1256.811,2731.255Z" transform="translate(-1148.075 -2512.296)" fill="url(#linear-gradient-2)"/>
      <path id="Trazado_131467" data-name="Trazado 131467" d="M1771.774,2427.02l-20.1,4.249c-4.227.416-10.61-4.477-10.61-8.488v-46.865a8.178,8.178,0,0,1,7.662-7.826l23.053-1.685c4.131-.3,12.236,3.012,12.236,6.962l-4.766,45.765A8.254,8.254,0,0,1,1771.774,2427.02Z" transform="translate(-1611.999 -2212.683)" fill="url(#linear-gradient-3)"/>
      <path id="Trazado_131468" data-name="Trazado 131468" d="M2267.047,2134.265l-18.489,4.236c-4.066.4-11.068-4.517-11.068-8.454v-72.661a7.827,7.827,0,0,1,7.369-7.584l22.186-1.371c3.976-.245,11.308,2.92,11.308,6.8l-4.115,71.316A8.015,8.015,0,0,1,2267.047,2134.265Z" transform="translate(-2058.278 -1924.372)" fill="url(#linear-gradient-4)"/>
      <path id="Trazado_131469" data-name="Trazado 131469" d="M2699.323,1337.779l-16.451-41.876c-.35-.716-5.829-2.787-6.53-2.774a2.016,2.016,0,0,0-1.794,1.165l-21.7,45.9a1.877,1.877,0,0,0,.423,2.233c.352.313,5.219,2.211,5.219,2.211v100.141c0,1.75,5.387,4.993,7.165,4.819l25.091-4.825a3.527,3.527,0,0,0,3.132-3.429V1340.81l3.71-.2A2.018,2.018,0,0,0,2699.323,1337.779Z" transform="translate(-2430.029 -1239.534)" fill="url(#linear-gradient-5)"/>
      <path id="Trazado_131470" data-name="Trazado 131470" d="M774.306,2917.232l-24.95,2.456c-4.57.451-8.3-2.569-8.3-6.746v-7.99c0-4.177,3.721-7.895,8.3-8.3l24.947-2.226c4.469-.4,8.079,2.611,8.079,6.715V2909C782.385,2913.106,778.775,2916.793,774.306,2917.232Z" transform="translate(-715.493 -2691.437)" fill="url(#linear-gradient-6)"/>
      <path id="Trazado_131471" data-name="Trazado 131471" d="M1310.2,2753.045l-23.972,2.36c-4.4.433-7.969-2.534-7.969-6.628v-20.032c0-4.094,3.574-7.714,7.969-8.084l23.972-2.021c4.291-.362,7.764,2.612,7.764,6.638v19.71C1317.965,2749.016,1314.5,2752.622,1310.2,2753.045Z" transform="translate(-1196.174 -2532.054)" fill="url(#linear-gradient-7)"/>
      <path id="Trazado_131472" data-name="Trazado 131472" d="M1825.155,2448.82l-23.053,2.269c-4.225.416-7.663-2.5-7.663-6.513v-46.86a8.179,8.179,0,0,1,7.663-7.827l23.053-1.685a6.706,6.706,0,0,1,7.469,6.608v46.12A8.255,8.255,0,0,1,1825.155,2448.82Z" transform="translate(-1660.2 -2232.448)" fill="url(#linear-gradient-8)"/>
      <path id="Trazado_131473" data-name="Trazado 131473" d="M2320.464,2156.049l-22.185,2.181a6.459,6.459,0,0,1-7.369-6.4v-72.661a7.825,7.825,0,0,1,7.369-7.584l22.185-1.371a6.6,6.6,0,0,1,7.19,6.573v71.54A8.016,8.016,0,0,1,2320.464,2156.049Z" transform="translate(-2106.556 -1944.121)" fill="url(#linear-gradient-9)"/>
      <path id="Trazado_131474" data-name="Trazado 131474" d="M2752.753,1359.6l-21.237-43.6a1.968,1.968,0,0,0-3.537.115l-21.7,45.9a1.868,1.868,0,0,0,1.8,2.7l3.838-.2V1466.6a2.845,2.845,0,0,0,3.221,2.851l29.037-2.858a3.529,3.529,0,0,0,3.132-3.429V1362.63l3.709-.2A2.015,2.015,0,0,0,2752.753,1359.6Z" transform="translate(-2478.479 -1259.318)" fill="url(#linear-gradient-10)"/>
      <path id="Trazado_131475" data-name="Trazado 131475" d="M744.089,1160.347c0,43.739-33.392,81.492-76.87,84.482-46.246,3.179-85.949-33.737-85.949-82.641s39.7-86.718,85.949-84.584C710.7,1079.609,744.089,1116.608,744.089,1160.347Z" transform="translate(-570.608 -1044.033)" fill="#d3af4d"/>
      <path id="Trazado_131476" data-name="Trazado 131476" d="M791.129,1160.347c0,43.739-33.392,81.492-76.87,84.482-46.246,3.179-85.949-33.737-85.949-82.641s39.7-86.718,85.949-84.584C757.746,1079.609,791.129,1116.608,791.129,1160.347Z" transform="translate(-613.26 -1044.033)" fill="#f5ca56"/>
      <g id="Grupo_56065" data-name="Grupo 56065" transform="translate(15.05 59.905)" opacity="0.3">
        <path id="Trazado_131477" data-name="Trazado 131477" d="M729.56,1473.627c-15.7-17.848-.865-40.749-17.319-62.984-15.269-20.633-36.76-13.331-53.315-35.081a54.477,54.477,0,0,1-7.937-14.782,85.541,85.541,0,0,0-22.679,58.248c0,48.9,39.7,85.821,85.949,82.641a80.474,80.474,0,0,0,42.644-15.841C743.432,1484.595,734.961,1479.766,729.56,1473.627Z" transform="translate(-628.31 -1360.78)" fill="url(#linear-gradient-11)"/>
      </g>
      <path id="Trazado_131478" data-name="Trazado 131478" d="M871.771,1241.959c0,39.575-30.3,73.565-69.551,76.038-41.49,2.612-76.9-30.628-76.9-74.384s35.414-77.8,76.9-76.12C841.472,1169.079,871.771,1202.385,871.771,1241.959Z" transform="translate(-701.221 -1117.237)" fill="url(#linear-gradient-12)"/>
      <path id="Trazado_131479" data-name="Trazado 131479" d="M802.22,1579.439a72.061,72.061,0,0,0,31.606-9.567,34.468,34.468,0,0,1-16.305-10.116c-15.7-17.848-.865-40.749-17.319-62.984-15.269-20.633-36.76-13.331-53.315-35.081a52.368,52.368,0,0,1-3.9-5.922,77.037,77.037,0,0,0-17.668,49.285C725.32,1548.812,760.735,1582.053,802.22,1579.439Z" transform="translate(-701.222 -1380.365)" fill="#eff2f6"/>
      <path id="Trazado_131480" data-name="Trazado 131480" d="M1029.8,1405.033c0,31.11-23.962,57.564-54.676,59.146-32.07,1.652-59.119-24.223-59.119-57.862s27.05-60.124,59.117-59.2C1005.828,1348.009,1029.8,1373.922,1029.8,1405.033Z" transform="translate(-868.78 -1279.732)" fill="#f5ca56"/>
      <path id="Trazado_131481" data-name="Trazado 131481" d="M973.1,1631.031c-13.026-17.6-30.561-14.879-45.724-27.191A59.981,59.981,0,0,0,916,1639.113c0,33.638,27.05,59.509,59.117,57.861a55.833,55.833,0,0,0,15.3-2.959h0C974.711,1676.167,989.551,1653.266,973.1,1631.031Z" transform="translate(-869.907 -1513.807)" opacity="0.3" fill="url(#linear-gradient-13)"/>
      <path id="Trazado_131482" data-name="Trazado 131482" d="M1183.46,1567.95c0,22.462-17.407,41.369-39.478,42.253-22.759.91-41.742-17.584-41.742-41.336s18.98-42.674,41.742-42.278C1166.054,1526.974,1183.46,1545.487,1183.46,1567.95Z" transform="translate(-1036.804 -1442.228)" fill="url(#linear-gradient-14)"/>
      <path id="Trazado_131483" data-name="Trazado 131483" d="M1111.453,1694.16a42.823,42.823,0,0,0-9.234,26.652c0,23.751,18.98,42.246,41.742,41.335a39.9,39.9,0,0,0,8.176-1.182c-2.913-14.9,1.984-31.583-10.194-48.036C1133.129,1701.013,1122.262,1698.411,1111.453,1694.16Z" transform="translate(-1037.702 -1594.918)" fill="#eff2f6"/>
      <path id="Trazado_131484" data-name="Trazado 131484" d="M1333.008,1730.78c0,13.625-10.623,24.974-23.946,25.354-13.573.388-24.762-10.714-24.762-24.8s11.193-25.444,24.762-25.364C1322.385,1706.041,1333.008,1717.149,1333.008,1730.78Z" transform="translate(-1201.329 -1604.709)" fill="#f5ca56"/>
      <path id="Trazado_131485" data-name="Trazado 131485" d="M1315.969,1811.268c-.325-10.167-1.13-20.734-8.926-31.27a40.239,40.239,0,0,0-13.759-11.867,25.628,25.628,0,0,0-8.984,19.562c0,14.089,11.193,25.192,24.761,24.8A23.831,23.831,0,0,0,1315.969,1811.268Z" transform="translate(-1201.828 -1661.325)" fill="#f5ca56" opacity="0.3"/>
      <path id="Trazado_131486" data-name="Trazado 131486" d="M2537.094,2373.6c.1.012-14.744-8.547-14.744-8.547l10.79-2.8c3.626-.941,16.684,7.648,19.661,9.99l-.476.933Z" transform="translate(-2311.884 -2202.998)" fill="url(#linear-gradient-15)"/>
      <path id="Trazado_131487" data-name="Trazado 131487" d="M1599.87,2000.671l-32.711-18.183c-.271-.15-.027-.629.259-.507l34.524,14.628Z" transform="translate(-1455.922 -1855.69)" fill="url(#linear-gradient-16)"/>
      <path id="Trazado_131488" data-name="Trazado 131488" d="M2490.036,2494.757c.073.075-16.136-6.847-16.136-6.847l4.2,10.12c1.412,3.4,16.278,8.444,19.979,9.366l.475-.933Z" transform="translate(-2271.851 -2318.473)" fill="url(#linear-gradient-17)"/>
      <path id="Trazado_131489" data-name="Trazado 131489" d="M2471.754,2485.694c.073.074-16.064-6.814-16.064-6.814l4.175,10.089a11.56,11.56,0,0,0,7.908,6.8l13.8,3.436Z" transform="translate(-2255.398 -2310.269)" fill="url(#linear-gradient-18)"/>
      <path id="Trazado_131490" data-name="Trazado 131490" d="M2519.234,2361.565c.1.011-15.224-8.463-15.224-8.463l10.75-2.8a11.833,11.833,0,0,1,10.311,2.092l11.1,8.722Z" transform="translate(-2295.255 -2191.792)" fill="url(#linear-gradient-19)"/>
      <path id="Trazado_131491" data-name="Trazado 131491" d="M1908.855,2122.593l-9.11-4.548c-3.2-1.6-4.323-5.734-2.53-9.249h0c1.794-3.516,5.844-5.13,9.075-3.586l9.194,4.384Z" transform="translate(-1752.699 -1967.836)" fill="url(#linear-gradient-20)"/>
      <g id="Grupo_56066" data-name="Grupo 56066" transform="translate(143.467 138.075)" opacity="0.3">
        <path id="Trazado_131492" data-name="Trazado 131492" d="M1904.438,2127.731a19.893,19.893,0,0,1-4.774-8.861,7.856,7.856,0,0,0-2.448,2.844h0c-1.793,3.516-.671,7.649,2.53,9.25l9.11,4.548,1.948-3.818A15,15,0,0,1,1904.438,2127.731Z" transform="translate(-1896.362 -2118.87)" fill="url(#linear-gradient-21)"/>
      </g>
      <path id="Trazado_131493" data-name="Trazado 131493" d="M2079.523,2194.462l-59.034-25.2c-3.539-1.8,3.09-14.8,6.629-13l55.825,31.491Z" transform="translate(-1860.923 -2016.116)" fill="url(#linear-gradient-22)"/>
      <g id="Grupo_56067" data-name="Grupo 56067" transform="translate(158.415 148.067)" opacity="0.3">
        <path id="Trazado_131494" data-name="Trazado 131494" d="M2062.565,2265.214c-11.006-6.14-11.215-9.749-21.7-13.991-9.66-3.913-15.844-3.425-20.921-6.063-.675,2.248-.678,4.237.56,4.866l59.033,25.2,1.33-2.607A81.024,81.024,0,0,1,2062.565,2265.214Z" transform="translate(-2019.493 -2245.16)" fill="#d8dee8"/>
      </g>
      <path id="Trazado_131495" data-name="Trazado 131495" d="M2662.578,2499.054c-.953,1.865-2.225,3.138-2.838,2.834s-.339-2.059.612-3.922,2.219-3.134,2.835-2.836S2663.531,2497.185,2662.578,2499.054Z" transform="translate(-2439.986 -2324.242)" fill="#d8dee8"/>
      <path id="Trazado_131496" data-name="Trazado 131496" d="M1769.53,913.69v49.342a2.892,2.892,0,0,0,2.954,2.9l88.611-1.837a2.506,2.506,0,0,0,2.269-2.637V918.383Z" transform="translate(-1634.404 -875.447)" fill="#aee6e6" opacity="0.48"/>
      <path id="Trazado_131497" data-name="Trazado 131497" d="M1861.092,853.5l-88.611-5.18a2.763,2.763,0,0,0-2.954,2.8v5.055l93.834,4.467v-4.419A2.623,2.623,0,0,0,1861.092,853.5Z" transform="translate(-1634.401 -816.173)" fill="#26aab7"/>
      <path id="Trazado_131498" data-name="Trazado 131498" d="M1816.6,879.353a1.224,1.224,0,0,1-1.3,1.24,1.391,1.391,0,0,1-1.306-1.378,1.223,1.223,0,0,1,1.306-1.242A1.391,1.391,0,0,1,1816.6,879.353Z" transform="translate(-1679.236 -843.059)" fill="#fff"/>
      <path id="Trazado_131499" data-name="Trazado 131499" d="M1913.968,1049.463l-7.248.087v-36.39l7.248.276Z" transform="translate(-1762.503 -969.963)" fill="#fff"/>
      <path id="Trazado_131500" data-name="Trazado 131500" d="M1913.968,1235.26l-7.248.087V1218.07l7.248.086Z" transform="translate(-1762.503 -1157.015)" fill="url(#linear-gradient-23)"/>
      <path id="Trazado_131501" data-name="Trazado 131501" d="M2021.471,1053.073l-7.051.084V1017.27l7.051.269Z" transform="translate(-1859.424 -973.715)" fill="#fff"/>
      <path id="Trazado_131502" data-name="Trazado 131502" d="M2021.471,1319.106l-7.051.084v-8.519h7.051Z" transform="translate(-1859.424 -1241.479)" fill="url(#linear-gradient-24)"/>
      <path id="Trazado_131503" data-name="Trazado 131503" d="M2126.051,1056.576l-6.861.082v-35.4l6.861.261Z" transform="translate(-1953.708 -977.357)" fill="#fff"/>
      <path id="Trazado_131504" data-name="Trazado 131504" d="M2126.051,1357.409l-6.861.082v-4.412l6.861-.039Z" transform="translate(-1953.708 -1280.113)" fill="url(#linear-gradient-25)"/>
      <path id="Trazado_131505" data-name="Trazado 131505" d="M2227.818,1059.982l-6.678.08V1025.14l6.678.255Z" transform="translate(-2045.456 -980.898)" fill="#fff"/>
      <path id="Trazado_131506" data-name="Trazado 131506" d="M2227.818,1133.517l-6.678.08V1106.24l6.678.182Z" transform="translate(-2045.456 -1054.95)" fill="url(#linear-gradient-26)"/>
      <path id="Trazado_131507" data-name="Trazado 131507" d="M2326.893,1063.3l-6.5.077V1028.92l6.5.248Z" transform="translate(-2134.774 -984.348)" fill="#fff"/>
      <path id="Trazado_131508" data-name="Trazado 131508" d="M2326.893,1165.679l-6.5.077V1141.83l6.5.148Z" transform="translate(-2134.774 -1087.433)" fill="url(#linear-gradient-27)"/>
      <path id="Trazado_131509" data-name="Trazado 131509" d="M2423.365,1066.531l-6.335.075V1032.6l6.335.242Z" transform="translate(-2221.745 -987.707)" fill="#fff"/>
      <path id="Trazado_131510" data-name="Trazado 131510" d="M2423.365,1114.606l-6.335.076V1085.62l6.335.195Z" transform="translate(-2221.745 -1036.12)" fill="url(#linear-gradient-28)"/>
      <path id="Trazado_131511" data-name="Trazado 131511" d="M2517.353,1069.684l-6.173.074V1036.19l6.173.235Z" transform="translate(-2306.476 -990.983)" fill="#fff"/>
      <path id="Trazado_131512" data-name="Trazado 131512" d="M2517.353,1195.565l-6.173.074V1175.02l6.173.116Z" transform="translate(-2306.476 -1117.719)" fill="url(#linear-gradient-29)"/>
      <path id="Trazado_131513" data-name="Trazado 131513" d="M2608.946,1072.748l-6.016.072v-33.14l6.016.229Z" transform="translate(-2389.047 -994.168)" fill="#fff"/>
      <path id="Trazado_131514" data-name="Trazado 131514" d="M2608.946,1283.053l-6.016.072V1271.62l6.016.033Z" transform="translate(-2389.047 -1205.847)" fill="url(#linear-gradient-30)"/>
      <path id="Trazado_131515" data-name="Trazado 131515" d="M2572.973,2042.63c.763.77,1.073,1.6.8,2.081-.192.335-.616.423-1.079.511a6.3,6.3,0,0,1-3.068-.341c-1.466-.414-2.332-.657-2.332-1.01,0-.329.753-.586,1.415-.811a8.288,8.288,0,0,1,2.32-.431Z" transform="translate(-2356.944 -1910.413)" fill="url(#linear-gradient-31)"/>
      <path id="Trazado_131516" data-name="Trazado 131516" d="M2350.537,1908.73a1.472,1.472,0,0,1,.9.839c.187.683-.545,1.388-1.711,2.488-.876.824-2.059,1.939-2.471,1.658-.252-.173-.1-.791.035-1.367a7.708,7.708,0,0,1,1.45-2.944Z" transform="translate(-2158.937 -1788.114)" fill="url(#linear-gradient-32)"/>
      <path id="Trazado_131517" data-name="Trazado 131517" d="M2593.333,2024.44l1.643,1.821a.341.341,0,0,1-.159.56,2.528,2.528,0,0,1-1.322.051.641.641,0,0,1-.266-.163l-1.639-1.6Z" transform="translate(-2378.986 -1893.778)" fill="url(#linear-gradient-33)"/>
      <path id="Trazado_131518" data-name="Trazado 131518" d="M2360.7,1896.94l.885,1.276a.374.374,0,0,1-.128.535,3.129,3.129,0,0,1-.437.2.669.669,0,0,1-.728-.181l-.961-1.082Z" transform="translate(-2170.025 -1777.215)" fill="url(#linear-gradient-34)"/>
      <path id="Trazado_131519" data-name="Trazado 131519" d="M2427.818,1579.334a30.95,30.95,0,0,0-2.473,7.472,33.5,33.5,0,0,0,1.133,16.164,34.565,34.565,0,0,0,9.261,14.568,6.263,6.263,0,0,1-3.816,1.48,38.83,38.83,0,0,1-12.365-14.234c-5.385-10.769-4.034-21.341-1.679-25.812a4.979,4.979,0,0,1,2.635-2.617C2423.688,1575.221,2427.369,1578.877,2427.818,1579.334Z" transform="translate(-2219.897 -1485.485)" fill="#3a277b"/>
      <path id="Trazado_131520" data-name="Trazado 131520" d="M2417.877,1578.972a4.98,4.98,0,0,1,2.635-2.617c3.171-1.135,6.856,2.518,7.3,2.978a31,31,0,0,0-2.445,7.342c-2.217.521-5.317,1.758-6.826,4.682-2.443,4.729,1.069,10.4,1.8,11.573,1.6,2.588,2.574,2.346,4.944,6.063,1.789,2.811,1.926,4.035,3.484,5.394a9.742,9.742,0,0,0,5.964,2.168c.362.367.7.695,1,.979a6.263,6.263,0,0,1-3.816,1.48,38.83,38.83,0,0,1-12.365-14.234C2414.171,1594.015,2415.523,1583.443,2417.877,1578.972Z" transform="translate(-2219.896 -1485.483)" opacity="0.3" fill="url(#linear-gradient-35)"/>
      <path id="Trazado_131521" data-name="Trazado 131521" d="M2268.765,1561.732a12.561,12.561,0,0,1-2.192,3.146c-2.846,2.968-5.508,2.687-8.523,5.13a12.987,12.987,0,0,0-4.029,5.749c-1.9,6.219,3.619,12.353,4.23,13.014a6.644,6.644,0,0,1-3.364,1.67c-7.911-7.229-11.777-15.988-9.141-21.681,1.435-3.1,4.835-5.362,7.346-7.029a32.761,32.761,0,0,1,10.575-4.57Z" transform="translate(-2065.973 -1467.714)" fill="#3a277b"/>
      <path id="Trazado_131522" data-name="Trazado 131522" d="M2414.559,1318.192c-.12,3.5.692,5.317-.444,8.167a11.186,11.186,0,0,1-3.195,4.337,13.618,13.618,0,0,0,12.253,7.347,27.43,27.43,0,0,0,9.912-8.524c2.191-3.107,4.6-6.519,3.959-10.867-.809-5.526-5.928-8.477-7.38-9.313-.955-.551-7.555-4.355-11.586-1.559C2414.836,1310.028,2414.647,1315.576,2414.559,1318.192Z" transform="translate(-2215.115 -1238.518)" fill="url(#linear-gradient-36)"/>
      <path id="Trazado_131523" data-name="Trazado 131523" d="M2161.846,1444.508a2.412,2.412,0,0,0-.746-1.213c-.268-.27-.323-.228-.5-.449-.44-.56-.334-1.133-.5-1.152-.147-.017-.406.4-.388.826.02.479.373.621.3.887-.093.373-.922.644-1.657.506-.852-.161-1.268-.848-1.6-.674-.242.127-.227.579-.225.618.037.848,1.17,1.738,2.275,1.854.636.066.875-.164,1.63.028.5.127.675.3.927.2C2161.779,1445.772,2161.946,1445.048,2161.846,1444.508Z" transform="translate(-1987.378 -1361.15)" fill="url(#linear-gradient-37)"/>
      <path id="Trazado_131524" data-name="Trazado 131524" d="M2202.632,1322.763c6.809.472,10.882-1.3,13.338-3,5.565-3.849,6.656-9.966,13.11-11.612,1.176-.3,3.226-.823,4.345.225,2.323,2.177-.417,10.154-5.244,15.057a19.488,19.488,0,0,1-11.245,5.725,20.1,20.1,0,0,1-14.958-4.307,1.288,1.288,0,0,1-.25-1.306A1.347,1.347,0,0,1,2202.632,1322.763Z" transform="translate(-2026.561 -1239.151)" fill="url(#linear-gradient-38)"/>
      <path id="Trazado_131525" data-name="Trazado 131525" d="M2443.25,1401.528c1.919-1.817,1.01-2.943,3.371-6.592,2.4-3.718,4.136-3.787,5.244-6.293a8.922,8.922,0,0,0,.295-5.833,10.547,10.547,0,0,1,2.041,4.8c.637,4.348-1.772,7.76-3.959,10.867a27.429,27.429,0,0,1-9.913,8.524,13.8,13.8,0,0,1-7.653-2.239,13.523,13.523,0,0,1-2.836-2.5,12.634,12.634,0,0,0,3.447,1.3C2433.927,1403.688,2439.734,1404.858,2443.25,1401.528Z" transform="translate(-2232.239 -1307.88)" opacity="0.3" fill="url(#linear-gradient-39)"/>
      <path id="Trazado_131526" data-name="Trazado 131526" d="M2557.652,1289.792l.56,1.875a3.012,3.012,0,0,0,1.026,1.515l1.473,1.154s-4.492-.755-6.64-2.848l1.312-.413a.332.332,0,0,0,.231-.316v-1.379Z" transform="translate(-2345.044 -1221.93)" fill="url(#linear-gradient-40)"/>
      <path id="Trazado_131527" data-name="Trazado 131527" d="M2551.162,1250.437c-.214-.048-1.764.206-2.2-.539-.6-1.012,0-2.628.058-2.878.251-1.045.345-1.2.539-1.425l.274-.29.035-.025a3.9,3.9,0,0,1,1.057-.352c.491-.025,1.492,1.737,2.063,4.452.047.093.093.195.138.294C2553.241,1249.927,2551.176,1250.53,2551.162,1250.437Z" transform="translate(-2340.33 -1181.306)" fill="url(#linear-gradient-41)"/>
      <path id="Trazado_131528" data-name="Trazado 131528" d="M2547.339,1210.107a3.23,3.23,0,0,0,1.087,1.7,1.4,1.4,0,0,1,.388.248.433.433,0,0,1,.074.085c.321.475-.346,1.311-.124,1.5.162.138.666-.239.772-.11s-.293.532-.177.678c.088.11.346-.081.579.062.116.071.11.153.28.419a2.852,2.852,0,0,0,.308.395c.417.41,1.276.373,1.38.135.029-.066-.021-.1-.024-.3a1.462,1.462,0,0,1,.062-.407,3.913,3.913,0,0,1,.776-1.035,2.774,2.774,0,0,0,.713-1.441c.008-.062.01-.107.011-.141a3.192,3.192,0,0,0-.626-2.041c-.707-.8-1.63-.086-2.724-.776-1.263-.8-1.064-2.4-1.639-2.416C2547.827,1206.649,2546.925,1208.574,2547.339,1210.107Z" transform="translate(-2338.917 -1146.399)" fill="#26264f"/>
      <path id="Trazado_131529" data-name="Trazado 131529" d="M2565.018,1276.742c.13-.333.56-.166.653.195a.686.686,0,0,1-.51.85C2564.8,1277.806,2564.846,1277.191,2565.018,1276.742Z" transform="translate(-2355.103 -1210.129)" fill="url(#linear-gradient-42)"/>
      <path id="Trazado_131530" data-name="Trazado 131530" d="M1128.3,3165.31c-.623,1-.526,1.46-.419,1.672.314.621,1.275.166,3.6.692a3.978,3.978,0,0,0,1.469.1c.578-.073,1.275-.3,1.263-.459,0-.056-.1-.089-.14-.1-.64-.208-4.606-1.893-4.606-1.893Z" transform="translate(-1061.624 -2937.088)" fill="url(#linear-gradient-43)"/>
      <path id="Trazado_131531" data-name="Trazado 131531" d="M1132.36,3140.24l.12,2.383s.933.817,1.288-.02a12.274,12.274,0,0,0,.425-2.278Z" transform="translate(-1065.804 -2914.356)" fill="url(#linear-gradient-44)"/>
      <path id="Trazado_131532" data-name="Trazado 131532" d="M1232.464,3163.6l-1.271,2.6-1.412-.378.594-2.465Z" transform="translate(-1153.463 -2935.311)" fill="url(#linear-gradient-45)"/>
      <path id="Trazado_131533" data-name="Trazado 131533" d="M1225.713,3183.384c-.609-.9-1.238-.888-1.306-1.469a1.17,1.17,0,0,1,.712-1.138c.609-.231,1.262.3,1.409.417,1,.812.6,1.875,1.561,2.455a2.744,2.744,0,0,1,.814.606c.13.151.454.525.346.746-.125.258-.764.187-1.371.109a2.673,2.673,0,0,1-1.42-.385C1226.005,3184.373,1226.183,3184.077,1225.713,3183.384Z" transform="translate(-1148.579 -2951.06)" fill="url(#linear-gradient-46)"/>
      <path id="Trazado_131534" data-name="Trazado 131534" d="M1095.339,2530.35a77.879,77.879,0,0,0,.481,14.107c.529,4.182.977,4.935,1.013,7.8.077,6.235-1.99,6.955-2.935,13.915a42.748,42.748,0,0,0,1.113,16.4,44.585,44.585,0,0,0,1.6,5.011c.653.676,1.758.528,2.918.391,1-6.967,2.071-13.513,3.072-20.48q3.344-15.631,6.686-31.262Z" transform="translate(-1030.632 -2361.354)" fill="#0d585f"/>
      <path id="Trazado_131535" data-name="Trazado 131535" d="M1116.524,2587.973c1-6.967,2.071-13.513,3.072-20.48q3.344-15.631,6.686-31.262l-13.945-5.881c-.02.364-.031.714-.046,1.071,6.221,6.377,7.151,11.1,6.825,14.238-.4,3.808-2.639,5.527-2.69,11.092-.036,3.979,1.095,4.775.8,8.344-.381,4.6-2.568,7.016-3.749,9.593-1.142,2.489-1.772,6.1-.409,11.418.191.553.373,1.049.539,1.477C1114.262,2588.258,1115.364,2588.11,1116.524,2587.973Z" transform="translate(-1047.528 -2361.353)" fill="#0d585f" opacity="0.3"/>
      <path id="Trazado_131536" data-name="Trazado 131536" d="M1198.8,2536.347a82.765,82.765,0,0,1,5.41,14.024,19.831,19.831,0,0,1,.872,6.107,18.84,18.84,0,0,1-1.5,6.833,36.353,36.353,0,0,0-2.4,6.76,38.46,38.46,0,0,0,.551,19.831l2.47,1.155a140.875,140.875,0,0,0,7.829-21.933,76.259,76.259,0,0,0,2.822-14.159,60.333,60.333,0,0,0-3.179-24.585Z" transform="translate(-1125.308 -2361.381)" fill="#0d585f"/>
      <path id="Trazado_131537" data-name="Trazado 131537" d="M815.854,2086.5c5.323,1.376,9.354,2.682,10.955,5.662,1.692,3.148-1.577,5.141-2.959,11.626-2.116,9.928,3.344,14.156.846,24.122a26.192,26.192,0,0,1-3.143,7.394,27.591,27.591,0,0,1-8.675,4c-5.635,1.462-8.244.124-15.646-.065-12.108-.311-14.2,3.035-19.468.435-5.322-2.629-8.818-8.827-7.443-11.24.824-1.444,2.95-.323,6.265-1.9,4.272-2.039,3.856-5.34,7.393-7.848,5.081-3.6,9.314.812,13.665-2.327,4.4-3.171,5.6-11.684,4.275-16.918-.866-3.418-.587-7.036-1.151-10.517a2.211,2.211,0,0,1,.154-1.244c.839-1.9,4.455-1.983,7.188-2.017A31.14,31.14,0,0,1,815.854,2086.5Z" transform="translate(-741.753 -1952.763)" fill="#26aab7"/>
      <path id="Trazado_131538" data-name="Trazado 131538" d="M784.392,2421.77c1.76-.974,1.119-4.2,3.731-5.668,2.425-1.363,4.043.816,7.509.061,4.446-.97,4.565-5.163,8.829-6.151,3.067-.711,3.81,1.271,8.115,1.711a17.188,17.188,0,0,0,14.03-5.13,15.4,15.4,0,0,0,3.317-5.682c.839,3.812,1.794,7.508.453,12.857a26.193,26.193,0,0,1-3.143,7.394,27.584,27.584,0,0,1-8.675,4c-5.635,1.462-8.244.124-15.646-.065-12.108-.311-14.2,3.035-19.468.435a15.676,15.676,0,0,1-7.164-7.492C780.755,2421.891,783.114,2422.477,784.392,2421.77Z" transform="translate(-747.428 -2239.298)" opacity="0.3" fill="url(#linear-gradient-47)"/>
      <path id="Trazado_131539" data-name="Trazado 131539" d="M1230.956,1997.34a14.678,14.678,0,0,1,1.188,4.885c-.069,1.968-2.269,1.642-2.269,1.642l-.02,1.244a2.689,2.689,0,0,0,1.556,2.48l.847.394s-5.8.746-8.728-1.709l.9-.013a2.688,2.688,0,0,0,2.6-2.2l.093-.525S1226.652,1997.349,1230.956,1997.34Z" transform="translate(-1147.716 -1869.375)" fill="url(#linear-gradient-48)"/>
      <path id="Trazado_131540" data-name="Trazado 131540" d="M1365.44,2190.981l8.674-14.955a.485.485,0,0,1,.53-.229l12.126,2.834a.485.485,0,0,1,.3.729l-10.061,16.087a.486.486,0,0,1-.577.2l-10.662-3.851Z" transform="translate(-1275.068 -2033.022)" fill="url(#linear-gradient-49)"/>
      <path id="Trazado_131541" data-name="Trazado 131541" d="M1388.3,2200.886l7.021-12.109a.393.393,0,0,1,.429-.187l9.822,2.3a.393.393,0,0,1,.243.59l-8.146,13.026a.394.394,0,0,1-.466.161l-8.633-3.118Z" transform="translate(-1295.743 -2044.517)" fill="url(#linear-gradient-50)"/>
      <path id="Trazado_131542" data-name="Trazado 131542" d="M1485.323,2181.006l.56-.971a.355.355,0,0,1,.386-.17l5.052,1.136a.354.354,0,0,1,.229.526l-.619,1.056a.357.357,0,0,1-.391.165l-4.99-1.221a.354.354,0,0,1-.226-.521Z" transform="translate(-1383.299 -2035.861)" fill="#d8dee8"/>
      <path id="Trazado_131543" data-name="Trazado 131543" d="M1468.5,2212.5h-.023l-8.894-2.1a.2.2,0,0,1-.153-.245.207.207,0,0,1,.246-.152l8.895,2.1a.2.2,0,0,1-.071.4Z" transform="translate(-1359.955 -2063.392)" fill="#d8dee8"/>
      <path id="Trazado_131544" data-name="Trazado 131544" d="M1462.949,2220.87l-.025,0-8.84-2.182a.2.2,0,1,1,.093-.4l8.839,2.182a.205.205,0,0,1-.073.4Z" transform="translate(-1355.003 -2070.967)" fill="#d8dee8"/>
      <path id="Trazado_131545" data-name="Trazado 131545" d="M1452.273,2239.5a.165.165,0,0,1-.031-.005l-4.806-1.326a.2.2,0,0,1,.108-.395l4.807,1.326a.205.205,0,0,1-.078.4Z" transform="translate(-1349.144 -2088.733)" fill="#d8dee8"/>
      <path id="Trazado_131546" data-name="Trazado 131546" d="M1515.88,2297.358s2.145-1.153,2.48-2.088a13.934,13.934,0,0,0,.466-2.75l-1.434,2.425a1.379,1.379,0,0,1-.7-1.086c-.156-.865-.646-.139-.547.512A18.656,18.656,0,0,1,1515.88,2297.358Z" transform="translate(-1410.933 -2138.947)" fill="url(#linear-gradient-51)"/>
      <path id="Trazado_131547" data-name="Trazado 131547" d="M1319.6,2144.24a15,15,0,0,1,3.687,4.026c3.469,5.612,1.327,10.981,4.441,13.285.891.658,2.509,1.287,5.627.538l1.09.733s.658,7.309-8.066,6.668-11.927-11.9-11.927-11.9Z" transform="translate(-1229.25 -2004.474)" fill="#26aab7"/>
      <path id="Trazado_131548" data-name="Trazado 131548" d="M868.34,1954.508c-.292-.049-.5-.443-.715-.349s-.243.646-.093,1.043a1.384,1.384,0,0,0,.486.618,3.62,3.62,0,0,0-.757,1.391,5.016,5.016,0,0,0,.532,3.288c1.162,3.122-1.427,7.691-4.035,9.887-2.12,1.788-2.969.928-4.269,2.425-2.532,2.91.326,6.578-1.2,10.652-2.316,6.2-12.489,7.252-12.91,7.291-.166.015-.28.024-.449.037-4.553.341-11.453.858-15.944-3.227-3.358-3.057-4.607-8-3.985-12.2a13.709,13.709,0,0,1,4.578-8.465c.592-.5,4.095-3.466,8.469-3.143,2.317.172,2.716,1.026,4.528.668,2.481-.49,4.157-2.57,5.2-3.86,1.912-2.373,1.265-2.968,2.593-4.1,2.6-2.224,5.262-.088,8.006-2.013,2.7-1.9,1.415-4.885,4.011-6.507,2.674-1.672,7.437-.616,8.278,1.71C871.384,1951.647,869.237,1954.657,868.34,1954.508Z" transform="translate(-791.466 -1825.167)" fill="#12263f"/>
    </g>
  </g>
</svg>
