<svg xmlns="http://www.w3.org/2000/svg" xmlns:xlink="http://www.w3.org/1999/xlink" width="68" height="68" viewBox="0 0 68 68">
  <defs>
    <filter id="Elipse_180" x="0" y="0" width="68" height="68" filterUnits="userSpaceOnUse">
      <feOffset dy="3" input="SourceAlpha"/>
      <feGaussianBlur stdDeviation="3" result="blur"/>
      <feFlood flood-opacity="0.161"/>
      <feComposite operator="in" in2="blur"/>
      <feComposite in="SourceGraphic"/>
    </filter>
  </defs>
  <g id="Grupo_56198" data-name="Grupo 56198" transform="translate(9 6)">
    <g transform="matrix(1, 0, 0, 1, -9, -6)" filter="url(#Elipse_180)">
      <circle id="Elipse_180-2" data-name="Elipse 180" cx="25" cy="25" r="25" transform="translate(9 6)" fill="#fe62aa"/>
    </g>
    <path id="Trazado_133000" data-name="Trazado 133000" d="M-7.676-8.042A9.682,9.682,0,0,1-6.05-13.975a5.352,5.352,0,0,1,4.541-2.168,4.552,4.552,0,0,1,3.574,1.67V-22.5H7.017V0H2.578L2.329-1.7A4.674,4.674,0,0,1-1.538.293,5.342,5.342,0,0,1-6.021-1.875,9.989,9.989,0,0,1-7.676-8.042Zm4.937.308q0,4.219,2.461,4.219A2.43,2.43,0,0,0,2.065-4.893v-6.035A2.365,2.365,0,0,0-.249-12.334q-2.285,0-2.476,3.691Z" transform="translate(25 38)" fill="#fff"/>
  </g>
</svg>
