<svg xmlns="http://www.w3.org/2000/svg" xmlns:xlink="http://www.w3.org/1999/xlink" width="68" height="68" viewBox="0 0 68 68">
  <defs>
    <filter id="Elipse_180" x="0" y="0" width="68" height="68" filterUnits="userSpaceOnUse">
      <feOffset dy="3" input="SourceAlpha"/>
      <feGaussianBlur stdDeviation="3" result="blur"/>
      <feFlood flood-opacity="0.161"/>
      <feComposite operator="in" in2="blur"/>
      <feComposite in="SourceGraphic"/>
    </filter>
  </defs>
  <g id="Grupo_56200" data-name="Grupo 56200" transform="translate(9 6)">
    <g transform="matrix(1, 0, 0, 1, -9, -6)" filter="url(#Elipse_180)">
      <circle id="Elipse_180-2" data-name="Elipse 180" cx="25" cy="25" r="25" transform="translate(9 6)" fill="#fe62aa"/>
    </g>
    <path id="Trazado_133002" data-name="Trazado 133002" d="M-2.959,0V-12.422h-2.3V-15.85h2.3v-1.26a5.476,5.476,0,0,1,1.6-4.2A6.308,6.308,0,0,1,3.12-22.808a9.816,9.816,0,0,1,2.314.308l.015,3.633A4.51,4.51,0,0,0,4.233-19q-2.241,0-2.241,1.934v1.216H5.083v3.428H1.992V0Z" transform="translate(25 38)" fill="#fff"/>
  </g>
</svg>
