<svg xmlns="http://www.w3.org/2000/svg" width="81" height="81" viewBox="0 0 81 81">
  <g id="Grupo_56205" data-name="Grupo 56205" transform="translate(-858.25 -4649)">
    <g id="Grupo_55866" data-name="Grupo 55866" transform="translate(3 3746)">
      <path id="Trazado_130522" data-name="Trazado 130522" d="M40.5,0A40.5,40.5,0,1,1,0,40.5,40.5,40.5,0,0,1,40.5,0Z" transform="translate(855.25 903)" fill="#aee6e6"/>
    </g>
    <g id="shopping-bag" transform="translate(874.99 4667.491)">
      <g id="Grupo_56099" data-name="Grupo 56099" transform="translate(0.009 0)">
        <path id="Trazado_131784" data-name="Trazado 131784" d="M47.467,46.577,42.721,8.605a.791.791,0,0,0-.785-.693h-8.2a10.272,10.272,0,0,0-19.994,0h-8.2a.791.791,0,0,0-.785.693L.016,46.577a.791.791,0,0,0,.785.889H46.683a.791.791,0,0,0,.785-.889ZM33.234,15.823a.791.791,0,0,0,.791-.791V13.67a1.582,1.582,0,1,1-1.582,0v1.362A.791.791,0,0,0,33.234,15.823ZM23.742,1.584a8.712,8.712,0,0,1,8.365,6.329H15.377A8.712,8.712,0,0,1,23.742,1.584ZM14.249,15.823a.791.791,0,0,0,.791-.791V13.67a1.582,1.582,0,1,1-1.582,0v1.362A.791.791,0,0,0,14.249,15.823ZM1.7,45.884,6.245,9.495H13.5c-.021.262-.04,2.486-.04,2.486a3.164,3.164,0,1,0,1.582,0s.017-2.225.04-2.486H32.4c.024.261.04,2.486.04,2.486a3.164,3.164,0,1,0,1.582,0s-.02-2.224-.04-2.486h7.253l4.549,36.389Z" transform="translate(-0.009 0)" fill="#0d585f"/>
      </g>
    </g>
  </g>
</svg>
