<svg xmlns="http://www.w3.org/2000/svg" width="81" height="81" viewBox="0 0 81 81">
  <g id="Grupo_56204" data-name="Grupo 56204" transform="translate(-659.75 -4649)">
    <g id="Grupo_55659" data-name="Grupo 55659" transform="translate(450.75 3646)">
      <circle id="Elipse_4085" data-name="Elipse 4085" cx="40.5" cy="40.5" r="40.5" transform="translate(209 1003)" fill="rgba(125,110,178,0.6)"/>
    </g>
    <g id="love" transform="translate(672.75 4633.029)">
      <g id="Grupo_56096" data-name="Grupo 56096" transform="translate(14.396 42.988)">
        <g id="Grupo_56095" data-name="Grupo 56095">
          <path id="Trazado_131781" data-name="Trazado 131781" d="M158.014,116.472a8.3,8.3,0,0,0-10.6-.938,8.288,8.288,0,0,0-10.6,12.658l9.482,9.482a1.582,1.582,0,0,0,2.237,0l9.482-9.482a8.287,8.287,0,0,0,0-11.72Zm-2.237,9.482-8.364,8.364-8.364-8.364a5.123,5.123,0,0,1,7.245-7.245,1.582,1.582,0,0,0,2.238,0,5.123,5.123,0,1,1,7.245,7.245Z" transform="translate(-134.384 -114.049)" fill="#3a277b"/>
        </g>
      </g>
      <g id="Grupo_56098" data-name="Grupo 56098" transform="translate(0 34.462)">
        <g id="Grupo_56097" data-name="Grupo 56097">
          <path id="Trazado_131782" data-name="Trazado 131782" d="M50.1,34.462H4.747A4.752,4.752,0,0,0,0,39.209V68.743A4.752,4.752,0,0,0,4.747,73.49H20.3L26.159,81.3a1.582,1.582,0,0,0,2.531,0l5.854-7.806H50.1a4.752,4.752,0,0,0,4.747-4.747V39.209A4.752,4.752,0,0,0,50.1,34.462Zm1.582,34.281A1.584,1.584,0,0,1,50.1,70.325H33.754a1.582,1.582,0,0,0-1.266.633l-5.063,6.751-5.063-6.751a1.582,1.582,0,0,0-1.266-.633H4.747a1.584,1.584,0,0,1-1.582-1.582V39.209a1.584,1.584,0,0,1,1.582-1.582H50.1a1.584,1.584,0,0,1,1.582,1.582Z" transform="translate(0 -34.462)" fill="#3a277b"/>
        </g>
      </g>
    </g>
  </g>
</svg>
