<svg xmlns="http://www.w3.org/2000/svg" width="81" height="81" viewBox="0 0 81 81">
  <g id="Grupo_56206" data-name="Grupo 56206" transform="translate(-1057 -4649)">
    <g id="Grupo_56001" data-name="Grupo 56001" transform="translate(394.25 3746)">
      <g id="Grupo_55659" data-name="Grupo 55659" transform="translate(453.75 -100)">
        <circle id="Elipse_4085" data-name="Elipse 4085" cx="40.5" cy="40.5" r="40.5" transform="translate(209 1003)" fill="rgba(125,110,178,0.6)"/>
      </g>
    </g>
    <g id="Monitoring" transform="translate(1068 4660.01)">
      <path id="Trazado_131888" data-name="Trazado 131888" d="M20.584,23.742a11.828,11.828,0,1,0,4.33-16.157A11.828,11.828,0,0,0,20.584,23.742Zm5.24-14.581a9.944,9.944,0,1,1-4.689,6.07,10.008,10.008,0,0,1,4.689-6.07Z" transform="translate(-1.533 -0.361)" fill="#3a277b"/>
      <path id="Trazado_131889" data-name="Trazado 131889" d="M55.68,47.491H53.837a4.5,4.5,0,0,0,.933-2.729V17.466a4.555,4.555,0,0,0-4.549-4.549H44.066a15.438,15.438,0,0,0-29.529,0H8.369A4.555,4.555,0,0,0,3.82,17.466V44.761a4.5,4.5,0,0,0,.933,2.729H2.91A.91.91,0,0,0,2,48.4V52.04a4.555,4.555,0,0,0,4.549,4.549H52.041A4.555,4.555,0,0,0,56.59,52.04V48.4A.91.91,0,0,0,55.68,47.491ZM50.221,14.737a2.729,2.729,0,0,1,2.729,2.729V44.761a2.724,2.724,0,0,1-2.477,2.7,4.534,4.534,0,0,0,.02-1.849.9.9,0,0,0,.637-.855V17.466a.91.91,0,0,0-.91-.91h-5.5a15.429,15.429,0,0,0-.216-1.82ZM13.872,18.376A15.405,15.405,0,0,0,25.292,32.407a15.566,15.566,0,0,0,4.028.533,15.285,15.285,0,0,0,5.222-.926l2.4,4.152-.787.455a.91.91,0,0,0-.333,1.243l3.458,5.988h-30V18.376ZM37.794,30.367l2.3,3.979-1.576.91L36.226,31.29c.273-.136.539-.273.8-.429S37.54,30.533,37.794,30.367Zm.056,7.375,2.366-1.365,1.576-.91h0l.786-.455,5.832,10.1v0h0a2.731,2.731,0,1,1-4.731,2.729ZM43.7,33.314a.91.91,0,0,0-1.243-.333l-.788.455-2.4-4.161a15.49,15.49,0,0,0,5.459-10.9h4.588V43.038ZM22.471,5.648a13.565,13.565,0,0,1,6.8-1.835,13.658,13.658,0,1,1-6.8,1.835ZM5.639,17.466a2.729,2.729,0,0,1,2.729-2.729h5.716a15.641,15.641,0,0,0-.219,1.82h-5.5a.91.91,0,0,0-.91.91V44.761a.91.91,0,0,0,.91.91H40.326l1.051,1.82H8.369a2.729,2.729,0,0,1-2.729-2.729ZM32.934,49.31v.91a.91.91,0,0,1-.91.91H26.565a.91.91,0,0,1-.91-.91v-.91ZM54.77,52.04a2.729,2.729,0,0,1-2.729,2.729H6.549A2.729,2.729,0,0,1,3.82,52.04V49.31H23.836v.91a2.729,2.729,0,0,0,2.729,2.729h5.459a2.729,2.729,0,0,0,2.729-2.729v-.91h7.734a4.523,4.523,0,0,0,7.116,0H54.77Z" fill="#3a277b"/>
      <path id="Trazado_131890" data-name="Trazado 131890" d="M35.91,23.918h2.729a.91.91,0,0,0,.91-.91v-9.1a.91.91,0,0,0-.91-.91H35.91a.91.91,0,0,0-.91.91v9.1A.91.91,0,0,0,35.91,23.918Zm.91-9.1h.91V22.1h-.91Z" transform="translate(-2.976 -0.993)" fill="#3a277b"/>
      <path id="Trazado_131891" data-name="Trazado 131891" d="M29.91,24.188h2.729a.91.91,0,0,0,.91-.91V16.91a.91.91,0,0,0-.91-.91H29.91a.91.91,0,0,0-.91.91v6.369A.91.91,0,0,0,29.91,24.188Zm.91-6.369h.91v4.549h-.91Z" transform="translate(-2.435 -1.263)" fill="#3a277b"/>
      <path id="Trazado_131892" data-name="Trazado 131892" d="M23.91,24.459h2.729a.91.91,0,0,0,.91-.91V19.91a.91.91,0,0,0-.91-.91H23.91a.91.91,0,0,0-.91.91v3.639A.91.91,0,0,0,23.91,24.459Zm.91-3.639h.91v1.82h-.91Z" transform="translate(-1.894 -1.534)" fill="#3a277b"/>
      <path id="Trazado_131893" data-name="Trazado 131893" d="M14.91,41.82h1.82a.91.91,0,1,0,0-1.82H14.91a.91.91,0,1,0,0,1.82Z" transform="translate(-1.082 -3.427)" fill="#3a277b"/>
      <path id="Trazado_131894" data-name="Trazado 131894" d="M20.91,41.82H34.557a.91.91,0,1,0,0-1.82H20.91a.91.91,0,1,0,0,1.82Z" transform="translate(-1.623 -3.427)" fill="#3a277b"/>
      <path id="Trazado_131895" data-name="Trazado 131895" d="M14.91,37.82h1.82a.91.91,0,1,0,0-1.82H14.91a.91.91,0,1,0,0,1.82Z" transform="translate(-1.082 -3.067)" fill="#3a277b"/>
      <path id="Trazado_131896" data-name="Trazado 131896" d="M20.91,37.82h3.639a.91.91,0,1,0,0-1.82H20.91a.91.91,0,0,0,0,1.82Z" transform="translate(-1.623 -3.067)" fill="#3a277b"/>
      <path id="Trazado_131897" data-name="Trazado 131897" d="M14.91,45.82h1.82a.91.91,0,1,0,0-1.82H14.91a.91.91,0,1,0,0,1.82Z" transform="translate(-1.082 -3.788)" fill="#3a277b"/>
      <path id="Trazado_131898" data-name="Trazado 131898" d="M20.91,45.82H34.557a.91.91,0,0,0,0-1.82H20.91a.91.91,0,0,0,0,1.82Z" transform="translate(-1.623 -3.788)" fill="#3a277b"/>
    </g>
  </g>
</svg>
