<svg xmlns="http://www.w3.org/2000/svg" xmlns:xlink="http://www.w3.org/1999/xlink" width="344.585" height="328.45" viewBox="0 0 344.585 328.45">
  <defs>
    <linearGradient id="linear-gradient" y1="0.5" x2="1" y2="0.5" gradientUnits="objectBoundingBox">
      <stop offset="0" stop-color="#ff9085"/>
      <stop offset="1" stop-color="#fb6fbb"/>
    </linearGradient>
    <linearGradient id="linear-gradient-2" x1="0" y1="0.5" x2="1" y2="0.5" xlink:href="#linear-gradient"/>
    <linearGradient id="linear-gradient-3" x1="0" y1="0.5" x2="1" y2="0.5" xlink:href="#linear-gradient"/>
    <clipPath id="clip-path">
      <path id="Trazado_131657" data-name="Trazado 131657" d="M548.027,2179.126l-10.783,16.729s-14.418.566-15.455-7.234-14.206-9.176-21.091-10.765c-18.681-4.31-9.677-24.648-33.132-32.218-6.239-2.009-18.92-3.632-21.916-10.83-3.414-8.2,3.782-11.073.492-16.7-5.141-8.793-4.129-20.051,5.673-23.8,9.676-3.7,22.019,8.547,27.53,30.9,5.734,15.454,8.672,16.611,16.327,18,5.364.975,20.554.065,23.282,9.188s6.491,16.638,13.287,15.646C542.582,2166.54,548.027,2179.126,548.027,2179.126Z" transform="translate(-443.091 -2093.654)" fill="none"/>
    </clipPath>
    <clipPath id="clip-path-2">
      <path id="Trazado_131664" data-name="Trazado 131664" d="M579.4,1611.01,564.18,1638.7c-4.617-.372-12.631-1.976-11.145-8.672,2.066-9.308-11.4-16.586-17.406-16.87-7.429-.355-24.692-1.536-21.716-15.955,2.482-12.013,6.459-19.382-5.88-26.75s-16.341-18.811-9.039-30.537c7.682-12.341-2.836-31.237,8.211-38.866,19.264-13.293,38.41,17.837,34.576,44.223s10.629,17.647,21.371,22.483c14.663,6.6.724,25.206,3.427,33.453C568.709,1607.672,575.172,1610.045,579.4,1611.01Z" transform="translate(-495.35 -1497.874)" fill="none"/>
    </clipPath>
    <linearGradient id="linear-gradient-4" x1="0.106" y1="0.499" x2="1.607" y2="0.465" gradientUnits="objectBoundingBox">
      <stop offset="0" stop-color="#444b8c"/>
      <stop offset="1" stop-color="#26264f"/>
    </linearGradient>
    <linearGradient id="linear-gradient-5" y1="0.5" x2="1" y2="0.5" gradientUnits="objectBoundingBox">
      <stop offset="0" stop-color="#e38ddd"/>
      <stop offset="1" stop-color="#9571f6"/>
    </linearGradient>
    <linearGradient id="linear-gradient-6" x1="0.793" y1="0.123" x2="-0.826" y2="2.208" xlink:href="#linear-gradient-5"/>
    <linearGradient id="linear-gradient-7" x1="9.445" y1="-17.086" x2="10.68" y2="-17.086" gradientUnits="objectBoundingBox">
      <stop offset="0" stop-color="#311944"/>
      <stop offset="1" stop-color="#6b3976"/>
    </linearGradient>
    <linearGradient id="linear-gradient-8" x1="-12.986" y1="3.244" x2="-4.828" y2="6.599" gradientUnits="objectBoundingBox">
      <stop offset="0" stop-color="#ab316d"/>
      <stop offset="1" stop-color="#792d3d"/>
    </linearGradient>
    <linearGradient id="linear-gradient-9" x1="-0.139" y1="0.686" x2="0.505" y2="0.525" gradientUnits="objectBoundingBox">
      <stop offset="0" stop-color="#40447e"/>
      <stop offset="1" stop-color="#3c3b6b"/>
    </linearGradient>
    <linearGradient id="linear-gradient-11" x1="-0.248" y1="0.177" x2="0.664" y2="0.641" gradientUnits="objectBoundingBox">
      <stop offset="0" stop-color="#aa80f9"/>
      <stop offset="1" stop-color="#6165d7"/>
    </linearGradient>
    <linearGradient id="linear-gradient-12" x1="-8.152" y1="2.889" x2="-8.257" y2="5.821" xlink:href="#linear-gradient-8"/>
    <linearGradient id="linear-gradient-13" x1="-1.171" y1="0.685" x2="-0.867" y2="1.025" xlink:href="#linear-gradient-9"/>
    <linearGradient id="linear-gradient-14" x1="0.16" y1="0.256" x2="0.565" y2="0.624" xlink:href="#linear-gradient-9"/>
    <linearGradient id="linear-gradient-15" x1="0.591" y1="0.33" x2="1.786" y2="0.863" xlink:href="#linear-gradient-11"/>
    <linearGradient id="linear-gradient-16" x1="-26.986" y1="5.627" x2="-26.914" y2="4.131" gradientUnits="objectBoundingBox">
      <stop offset="0" stop-color="#311944"/>
      <stop offset="1" stop-color="#893976"/>
    </linearGradient>
    <linearGradient id="linear-gradient-17" x1="-58.603" y1="-14.393" x2="-58.668" y2="-16.249" gradientUnits="objectBoundingBox">
      <stop offset="0" stop-color="#311944"/>
      <stop offset="1" stop-color="#a03976"/>
    </linearGradient>
    <linearGradient id="linear-gradient-18" x1="0.495" y1="0.278" x2="1.913" y2="0.864" xlink:href="#linear-gradient-11"/>
    <linearGradient id="linear-gradient-19" x1="0.269" y1="0.431" x2="1.215" y2="0.917" xlink:href="#linear-gradient-11"/>
    <linearGradient id="linear-gradient-20" x1="0" y1="0.5" x2="1.667" y2="0.5" xlink:href="#linear-gradient-17"/>
    <linearGradient id="linear-gradient-21" x1="-0.04" y1="0.155" x2="0.236" y2="0.332" xlink:href="#linear-gradient-11"/>
    <linearGradient id="linear-gradient-22" x1="0" y1="0.5" x2="1" y2="0.5" xlink:href="#linear-gradient-11"/>
    <linearGradient id="linear-gradient-23" x1="0" y1="0.5" x2="1" y2="0.5" xlink:href="#linear-gradient-9"/>
    <linearGradient id="linear-gradient-24" x1="-0.04" y1="0.155" x2="0.237" y2="0.332" xlink:href="#linear-gradient-11"/>
    <linearGradient id="linear-gradient-25" x1="0" y1="0.5" x2="1" y2="0.5" xlink:href="#linear-gradient-11"/>
    <linearGradient id="linear-gradient-27" x1="-0.001" y1="0.5" x2="0.999" y2="0.5" xlink:href="#linear-gradient-9"/>
    <linearGradient id="linear-gradient-28" x1="-0.04" y1="0.155" x2="0.237" y2="0.332" xlink:href="#linear-gradient-11"/>
    <linearGradient id="linear-gradient-30" x1="-0.001" y1="0.499" x2="0.999" y2="0.499" xlink:href="#linear-gradient-9"/>
    <linearGradient id="linear-gradient-31" x1="-0.04" y1="0.155" x2="0.236" y2="0.331" xlink:href="#linear-gradient-11"/>
    <linearGradient id="linear-gradient-32" x1="0" y1="0.5" x2="1" y2="0.5" xlink:href="#linear-gradient-11"/>
    <linearGradient id="linear-gradient-33" x1="0.001" y1="0.5" x2="1.001" y2="0.5" xlink:href="#linear-gradient-9"/>
    <linearGradient id="linear-gradient-34" x1="0.923" y1="-0.71" x2="0.479" y2="0.453" xlink:href="#linear-gradient-17"/>
    <linearGradient id="linear-gradient-35" x1="-0.109" y1="0.34" x2="0.094" y2="0.428" xlink:href="#linear-gradient-8"/>
    <linearGradient id="linear-gradient-36" x1="-0.248" y1="0.127" x2="0.49" y2="0.614" xlink:href="#linear-gradient"/>
    <linearGradient id="linear-gradient-37" x1="0.364" y1="-0.088" x2="0.54" y2="1.094" xlink:href="#linear-gradient-8"/>
    <linearGradient id="linear-gradient-38" x1="0.113" y1="0.311" x2="0.932" y2="0.944" xlink:href="#linear-gradient"/>
    <linearGradient id="linear-gradient-39" x1="-0.174" y1="0.25" x2="0.027" y2="0.324" xlink:href="#linear-gradient-8"/>
    <linearGradient id="linear-gradient-40" x1="-0.174" y1="0.249" x2="0.027" y2="0.324" xlink:href="#linear-gradient-8"/>
    <linearGradient id="linear-gradient-41" x1="0.287" y1="-0.873" x2="1.372" y2="5.575" gradientUnits="objectBoundingBox">
      <stop offset="0" stop-color="#ffc444"/>
      <stop offset="1" stop-color="#f36f56"/>
    </linearGradient>
    <linearGradient id="linear-gradient-42" x1="0.241" y1="-1.114" x2="1.363" y2="5.414" xlink:href="#linear-gradient-41"/>
    <linearGradient id="linear-gradient-43" x1="0.194" y1="-1.354" x2="1.352" y2="5.248" xlink:href="#linear-gradient-41"/>
    <linearGradient id="linear-gradient-44" x1="0.145" y1="-1.593" x2="1.34" y2="5.083" xlink:href="#linear-gradient-41"/>
    <linearGradient id="linear-gradient-45" x1="0.473" y1="-0.984" x2="0.527" y2="1.996" xlink:href="#linear-gradient"/>
    <linearGradient id="linear-gradient-46" x1="0.579" y1="0.103" x2="-0.159" y2="3.804" xlink:href="#linear-gradient"/>
    <clipPath id="clip-path-3">
      <path id="Trazado_131749" data-name="Trazado 131749" d="M1635.675,636.715c0,7.252-6.3,12.98-14.125,12.793-7.873-.189-14.3-6.292-14.3-13.631s6.421-13.064,14.3-12.789C1629.373,623.362,1635.675,629.463,1635.675,636.715Z" transform="translate(-1607.25 -623.079)" fill="url(#linear-gradient)"/>
    </clipPath>
    <linearGradient id="linear-gradient-48" x1="0.29" y1="-0.845" x2="1.354" y2="5.4" xlink:href="#linear-gradient-41"/>
    <linearGradient id="linear-gradient-49" x1="0.245" y1="-1.078" x2="1.345" y2="5.243" xlink:href="#linear-gradient-41"/>
    <linearGradient id="linear-gradient-50" x1="0.199" y1="-1.311" x2="1.335" y2="5.088" xlink:href="#linear-gradient-41"/>
    <linearGradient id="linear-gradient-51" x1="0.478" y1="-0.936" x2="0.522" y2="1.918" xlink:href="#linear-gradient"/>
    <linearGradient id="linear-gradient-52" x1="0.58" y1="0.098" x2="-0.167" y2="3.847" xlink:href="#linear-gradient"/>
    <clipPath id="clip-path-4">
      <path id="Trazado_131764" data-name="Trazado 131764" d="M1716.218,1770.1c0,7.265-6.325,13.347-14.174,13.591-7.9.236-14.344-5.524-14.344-12.875s6.443-13.437,14.344-13.591C1709.9,1757.069,1716.218,1762.837,1716.218,1770.1Z" transform="translate(-1687.7 -1757.223)" fill="url(#linear-gradient-2)"/>
    </clipPath>
    <linearGradient id="linear-gradient-54" x1="0.284" y1="-0.859" x2="1.381" y2="5.485" xlink:href="#linear-gradient-41"/>
    <linearGradient id="linear-gradient-55" x1="0.238" y1="-1.096" x2="1.372" y2="5.326" xlink:href="#linear-gradient-41"/>
    <linearGradient id="linear-gradient-56" x1="0.19" y1="-1.332" x2="1.361" y2="5.167" xlink:href="#linear-gradient-41"/>
    <linearGradient id="linear-gradient-57" x1="0.14" y1="-1.569" x2="1.348" y2="5.009" xlink:href="#linear-gradient-41"/>
    <linearGradient id="linear-gradient-58" x1="0.088" y1="-1.804" x2="1.336" y2="4.846" xlink:href="#linear-gradient-41"/>
    <linearGradient id="linear-gradient-59" x1="0.476" y1="-1.384" x2="0.524" y2="2.395" xlink:href="#linear-gradient"/>
    <linearGradient id="linear-gradient-60" x1="0.581" y1="0.101" x2="-0.178" y2="3.823" xlink:href="#linear-gradient"/>
    <clipPath id="clip-path-5">
      <path id="Trazado_131779" data-name="Trazado 131779" d="M2120.747,1213.448c0,7.091-6.036,12.882-13.525,12.91-7.537.033-13.682-5.76-13.682-12.94s6.146-12.96,13.682-12.91C2114.711,1200.565,2120.747,1206.356,2120.747,1213.448Z" transform="translate(-2093.54 -1200.507)" fill="url(#linear-gradient-3)"/>
    </clipPath>
  </defs>
  <g id="rating-01" transform="translate(-443.091 -447.369)">
    <g id="Illustration" transform="translate(443.091 434.079)">
      <g id="Grupo_56084" data-name="Grupo 56084" transform="translate(0 196.134)" clip-path="url(#clip-path)">
        <g id="Grupo_56083" data-name="Grupo 56083" transform="translate(-0.353 -7.858)" opacity="0.5">
          <path id="Trazado_131649" data-name="Trazado 131649" d="M576.3,2127.5l-.174.354c-1.967-.937-3.937-1.909-5.856-2.887a212.157,212.157,0,0,1-38.528-25,173.34,173.34,0,0,1-25.55-25.851,149.017,149.017,0,0,1-15.223-23.222,123.568,123.568,0,0,1-7.345-16.752c-.335-.96-.624-1.964-.9-2.935-.373-1.294-.759-2.632-1.255-3.874l.346-.169c.5,1.26.891,2.6,1.267,3.909.278.966.566,1.966.9,2.915a123.246,123.246,0,0,0,7.327,16.7,148.7,148.7,0,0,0,15.187,23.164,173.121,173.121,0,0,0,25.5,25.8,211.912,211.912,0,0,0,38.464,24.961C572.363,2125.587,574.331,2126.561,576.3,2127.5Z" transform="translate(-476.572 -2027.16)" fill="#fcfdfe"/>
          <path id="Trazado_131650" data-name="Trazado 131650" d="M482.766,2414.1l-.266.288c-11.173-11.132-38.317-13.236-38.59-13.262l.05-.388C444.234,2400.76,471.5,2402.88,482.766,2414.1Z" transform="translate(-443.46 -2356.589)" fill="#fcfdfe"/>
          <path id="Trazado_131651" data-name="Trazado 131651" d="M990.583,2540.421l-.236.316c-8.509-6.58-9.181-28.364-9.186-28.581l.373-.037C981.542,2512.342,982.213,2533.944,990.583,2540.421Z" transform="translate(-917.216 -2454.806)" fill="#fcfdfe"/>
          <path id="Trazado_131652" data-name="Trazado 131652" d="M880.043,2756.6l-.181.354c-6.264-3.154-16.634-3.856-29.216-1.976-.633.094-.633.094-.7.064l.176-.354-.087.176.02-.193c.041,0,.281-.037.558-.078C863.27,2752.7,873.72,2753.418,880.043,2756.6Z" transform="translate(-801.512 -2667.711)" fill="#fcfdfe"/>
          <path id="Trazado_131653" data-name="Trazado 131653" d="M1219.565,2731.24l-.266.29c-5.519-5.452-4.178-17.588-4.164-17.709l.37.022C1215.491,2713.959,1214.172,2725.914,1219.565,2731.24Z" transform="translate(-1123.404 -2632.668)" fill="#fcfdfe"/>
          <path id="Trazado_131654" data-name="Trazado 131654" d="M1127.779,2877.475c-6.286-.465-13.026.946-20.6,4.32l-.126-.354c7.635-3.4,14.431-4.82,20.78-4.351Z" transform="translate(-1028.228 -2776.565)" fill="#fcfdfe"/>
          <path id="Trazado_131655" data-name="Trazado 131655" d="M457.374,2158.231l-.28.274c-5.857-6.573-13.566-11.962-16.1-13.733-.613-.429-.827-.58-.895-.647l.271-.285c.051.051.4.3.845.606C443.752,2146.223,451.49,2151.629,457.374,2158.231Z" transform="translate(-440.1 -2130.051)" fill="#fcfdfe"/>
          <path id="Trazado_131656" data-name="Trazado 131656" d="M642.935,2184.248l-.34.181c-3.4-7.7,2.647-24.287,2.906-24.989l.346.118C645.784,2159.729,639.6,2176.695,642.935,2184.248Z" transform="translate(-617.753 -2143.807)" fill="#fcfdfe"/>
        </g>
      </g>
      <g id="Grupo_56086" data-name="Grupo 56086" transform="translate(6.176 125.723)" clip-path="url(#clip-path-2)">
        <g id="Grupo_56085" data-name="Grupo 56085" transform="translate(-2.69 -3.201)" opacity="0.5">
          <path id="Trazado_131659" data-name="Trazado 131659" d="M701.646,1597.957l-.434.531c-36.312-30.276-57.052-79.207-54.128-127.7h.658C644.83,1519.081,665.485,1567.807,701.646,1597.957Z" transform="translate(-626.221 -1470.79)" fill="#fcfdfe"/>
          <path id="Trazado_131660" data-name="Trazado 131660" d="M671.786,2361.393l-.326.6c-16.451-8.657-37.322-.616-37.531-.534l-.208-.625C633.932,2360.751,655.076,2352.6,671.786,2361.393Z" transform="translate(-614.677 -2252.542)" fill="#fcfdfe"/>
          <path id="Trazado_131661" data-name="Trazado 131661" d="M1025.427,2133.122l-.56.387c-10.152-16.041,5.082-48.958,5.243-49.288l.591.263C1030.554,2084.813,1015.468,2117.389,1025.427,2133.122Z" transform="translate(-956.523 -2011.723)" fill="#fcfdfe"/>
          <path id="Trazado_131662" data-name="Trazado 131662" d="M505.685,1950.38l-.528.432c-9.13-11.918-32.334-13.427-32.567-13.441l.073-.671C472.9,1936.714,496.393,1938.242,505.685,1950.38Z" transform="translate(-472.59 -1881.637)" fill="#fcfdfe"/>
          <path id="Trazado_131663" data-name="Trazado 131663" d="M672.443,1532.806l-.659.058c-.554-17.642,15.175-36.237,15.334-36.424l.487.427C687.446,1497.05,671.9,1515.438,672.443,1532.806Z" transform="translate(-648.229 -1493.409)" fill="#fcfdfe"/>
        </g>
      </g>
      <path id="Trazado_131665" data-name="Trazado 131665" d="M646.175,887.387Q660.638,1009.62,675.1,1129.3a6.178,6.178,0,0,1-5.5,7.036q-58.122,5.516-116.252,11.27c-6.911.336-10.707-3.527-11.153-7.394q-14.891-129.2-29.772-261.1c-.446-3.95,2.9-7.344,9.809-7.007q58.41,4.165,116.821,8.22A8.166,8.166,0,0,1,646.175,887.387Z" transform="translate(-504.198 -820.319)" fill="#26264f"/>
      <path id="Trazado_131666" data-name="Trazado 131666" d="M685.385,887.374q14.554,122.765,29.107,242.948a6.21,6.21,0,0,1-5.531,7.067q-60.355,5.113-120.709,10.426a7.16,7.16,0,0,1-7.5-6.468q-14.984-129.788-29.964-262.315c-.448-3.966,2.214-7.011,5.909-6.76q60.759,4.054,121.521,8.009A8.222,8.222,0,0,1,685.385,887.374Z" transform="translate(-538.021 -820.472)" fill="url(#linear-gradient-4)"/>
      <path id="Trazado_131667" data-name="Trazado 131667" d="M726.638,1015.219q13.48,113.743,26.96,225.266a5.782,5.782,0,0,1-5.168,6.592q-56.76,4.642-113.521,9.455a6.7,6.7,0,0,1-6.98-6.039q-13.85-119.873-27.7-242.093c-.417-3.686,2.059-6.539,5.5-6.336q57.113,3.326,114.227,6.582A7.591,7.591,0,0,1,726.638,1015.219Z" transform="translate(-581.616 -934.928)" fill="url(#linear-gradient-5)"/>
      <path id="Trazado_131668" data-name="Trazado 131668" d="M771.433,1009.33q-56.436-3.216-112.873-6.5a86.3,86.3,0,0,0,6.61,21.384c12.48,27.076,30.814,28.566,37.988,52.161,7.39,24.308-9.276,31.915-1.135,53.863,8.835,23.815,30.5,20.369,41.955,46.492,9.872,22.516-2.836,32.809,7.371,46.492,11.188,15,31.886,9.913,53.369,14.993q-13.3-110.077-26.6-222.31A7.589,7.589,0,0,0,771.433,1009.33Z" transform="translate(-633.095 -935.613)" opacity="0.3" fill="url(#linear-gradient-6)"/>
      <path id="Trazado_131669" data-name="Trazado 131669" d="M1114.807,954.328a1.894,1.894,0,0,1-1.979,2.256,2.893,2.893,0,0,1-2.536-2.534,1.887,1.887,0,0,1,1.982-2.255A2.9,2.9,0,0,1,1114.807,954.328Z" transform="translate(-1031.424 -890.606)" fill="#de8bdf"/>
      <ellipse id="Elipse_4329" data-name="Elipse 4329" cx="8.709" cy="10.274" rx="8.709" ry="10.274" transform="translate(88.266 116.452)" fill="#57c5cf"/>
      <ellipse id="Elipse_4330" data-name="Elipse 4330" cx="8.709" cy="10.274" rx="8.709" ry="10.274" transform="translate(122.932 116.452)" fill="#57c5cf"/>
      <ellipse id="Elipse_4331" data-name="Elipse 4331" cx="8.833" cy="10.274" rx="8.833" ry="10.274" transform="translate(105.379 116.452)" fill="#d8dee8"/>
      <ellipse id="Elipse_4332" data-name="Elipse 4332" cx="8.709" cy="10.274" rx="8.709" ry="10.274" transform="translate(157.597 116.452)" fill="#57c5cf"/>
      <ellipse id="Elipse_4333" data-name="Elipse 4333" cx="8.833" cy="10.274" rx="8.833" ry="10.274" transform="translate(140.045 116.452)" fill="#d8dee8"/>
      <ellipse id="Elipse_4334" data-name="Elipse 4334" cx="8.833" cy="10.274" rx="8.833" ry="10.274" transform="translate(174.709 116.452)" fill="#d8dee8"/>
      <ellipse id="Elipse_4335" data-name="Elipse 4335" cx="8.833" cy="10.274" rx="8.833" ry="10.274" transform="translate(70.714 116.452)" fill="#d8dee8"/>
      <path id="Trazado_131670" data-name="Trazado 131670" d="M585.78,993.54l54.041,62H779.3l-67.585-54.147Z" transform="translate(-568.917 -927.421)" fill="#26aab7"/>
      <path id="Trazado_131671" data-name="Trazado 131671" d="M585.78,993.54l54.041,62H657.3l-56.98-61.093Z" transform="translate(-568.917 -927.421)" fill="#f4f7fa"/>
      <path id="Trazado_131672" data-name="Trazado 131672" d="M840.85,1009.44l58.593,60.12h17.263l-60.133-59.139Z" transform="translate(-793.841 -941.442)" fill="#f4f7fa"/>
      <path id="Trazado_131673" data-name="Trazado 131673" d="M1107.92,1026.1l61.6,58.151h17.346l-62.982-57.156Z" transform="translate(-1029.348 -956.133)" fill="#f4f7fa"/>
      <path id="Trazado_131674" data-name="Trazado 131674" d="M1395.245,1044.01,1379.04,1043l64.291,56.154h17.431Z" transform="translate(-1268.427 -971.036)" fill="#f4f7fa"/>
      <path id="Trazado_131675" data-name="Trazado 131675" d="M2070.66,1518.14c.577,5.013,4.211,8.883,8.619,8.883s8.037-3.869,8.621-8.883Z" transform="translate(-1878.308 -1390.022)" fill="#57c5cf"/>
      <path id="Trazado_131676" data-name="Trazado 131676" d="M1052.924,1686.9c-7.544-17.385-26.68-25.828-42.742-18.857s-22.97,26.709-15.427,44.1,26.68,25.827,42.742,18.861S1060.468,1704.288,1052.924,1686.9Zm-23.686,24.772.644,4.9-4.7.618-.6-4.561a19.459,19.459,0,0,1-8.432-.99l.7-5.806a17.1,17.1,0,0,0,8.248,1.064c2.736-.355,4.47-1.663,4.217-3.582-.236-1.826-1.928-2.775-5.637-3.509-5.364-1.053-9.184-2.994-9.8-7.65-.555-4.224,1.985-7.929,6.99-9.612l-.6-4.561,4.7-.618.554,4.225a17.428,17.428,0,0,1,7.17.669l-.68,5.608a16.012,16.012,0,0,0-7.128-.723c-3.121.41-3.952,1.891-3.782,3.231.209,1.585,2.021,2.372,6.3,3.372,5.979,1.266,8.627,3.6,9.2,7.918C1037.178,1705.95,1034.636,1709.991,1029.238,1711.677Z" transform="translate(-926.864 -1520.057)" fill="#f4f7fa" opacity="0.63"/>
      <g id="Grupo_56087" data-name="Grupo 56087" transform="translate(61.404 231.711)" opacity="0.63">
        <path id="Trazado_131677" data-name="Trazado 131677" d="M1044.549,2424.219l-73.523,2.228a5.229,5.229,0,0,1-5.328-4.44l-2.981-19.6a5.23,5.23,0,0,1,5.049-6.013l73.6-1.7a5.228,5.228,0,0,1,5.291,4.441l2.9,19.076a5.23,5.23,0,0,1-5.015,6.012Z" transform="translate(-962.658 -2394.688)" fill="#f4f7fa"/>
        <path id="Trazado_131678" data-name="Trazado 131678" d="M1087.652,2702.9l-73.479,2.514a5.23,5.23,0,0,1-5.349-4.44l-.027-.184a5.229,5.229,0,0,1,5-6.012l73.51-2.328a5.229,5.229,0,0,1,5.332,4.436h0a5.229,5.229,0,0,1-4.991,6.016Z" transform="translate(-1003.291 -2657.257)" fill="#f4f7fa"/>
      </g>
      <path id="Trazado_131679" data-name="Trazado 131679" d="M2991.3,1758.977a8.572,8.572,0,0,0,3.89.07c1.767-.389,4.311-1.571,4.316-2.967,0-.669-.582-.9-1.389-1.872-1.679-2.025-1.268-3.575-2.147-5.111-1.931-3.374-8.591-4.068-9.635-2.417-.435.688.1,1.782,1.1,3.8,1.016,2.068,1.739,2.539,2.6,4.271A13.65,13.65,0,0,1,2991.3,1758.977Z" transform="translate(-2685.632 -1590.796)" fill="url(#linear-gradient-7)"/>
      <path id="Trazado_131680" data-name="Trazado 131680" d="M3329.92,2817.166l.354-.617a.629.629,0,0,1,.946.409c.306.792,2.017,4.93,2.11,6.809-.45,1.123-1.725.171-1.987-.591s-1.173-3.595-1.173-3.595Z" transform="translate(-2988.745 -2534.899)" fill="url(#linear-gradient-8)"/>
      <path id="Trazado_131681" data-name="Trazado 131681" d="M3010.491,2351.011c.532-.007,1.063,0,1.6-.027q1.464-.065,2.942-.213-.248-1.536-.494-3.073-.753-.287-1.474-.577c-.246-.1-.48-.2-.72-.3s-.456-.187-.677-.28c-.325-.137-.639-.277-.952-.415-.125-.054-.255-.109-.378-.164-.369-.165-.727-.331-1.081-.5l-.181-.083q-.574-.271-1.123-.542c-.026-.014-.054-.027-.081-.04q-.578-.287-1.128-.575l-.015-.007q-1.119-.591-2.127-1.182h0c-8.328-4.867-11.082-9.809-11.936-13.694-2.387-10.933,9.3-17.953,6.282-29.809-2.275-8.934-11.879-16.583-17.792-14.8-6.68,2.009-7.726,14.959-8.37,22.927-.726,8.97-1.536,18.962,4.2,27.914,5.436,8.476,15.245,13.691,26.539,15.08h0c.27.032.544.047.814.076.655.07,1.308.142,1.972.186.3.02.612.021.917.037.648.031,1.293.066,1.947.073C3009.615,2351.038,3010.06,2351.018,3010.491,2351.011Z" transform="translate(-2673.366 -2065.789)" fill="url(#linear-gradient-9)"/>
      <path id="Trazado_131682" data-name="Trazado 131682" d="M3010.491,2351.011c.532-.007,1.063,0,1.6-.027q1.464-.065,2.942-.213-.248-1.536-.494-3.073-.753-.287-1.474-.577c-.246-.1-.48-.2-.72-.3s-.456-.187-.677-.28c-.325-.137-.639-.277-.952-.415-.125-.054-.255-.109-.378-.164-.369-.165-.727-.331-1.081-.5l-.181-.083q-.574-.271-1.123-.542c-.026-.014-.054-.027-.081-.04q-.578-.287-1.128-.575l-.015-.007q-1.119-.591-2.127-1.182h0c-8.328-4.867-11.082-9.809-11.936-13.694-2.387-10.933,9.3-17.953,6.282-29.809-2.275-8.934-11.879-16.583-17.792-14.8-6.68,2.009-7.726,14.959-8.37,22.927-.726,8.97-1.536,18.962,4.2,27.914,5.436,8.476,15.245,13.691,26.539,15.08h0c.27.032.544.047.814.076.655.07,1.308.142,1.972.186.3.02.612.021.917.037.648.031,1.293.066,1.947.073C3009.615,2351.038,3010.06,2351.018,3010.491,2351.011Z" transform="translate(-2673.366 -2065.789)" opacity="0.25" fill="url(#linear-gradient-9)"/>
      <path id="Trazado_131683" data-name="Trazado 131683" d="M2834.134,1967.295c-1.277-2.026,4.676-5.015,6.612-13.328,1.634-7.019-1.7-8.8.118-18.193,1.014-5.233,2.743-8.273,4.758-10.478,1.662-1.819,3.82-4.181,5.765-3.872,6.1.968,13.324,28.711,1.137,40.809C2846.261,1968.448,2835.674,1969.739,2834.134,1967.295Z" transform="translate(-2551.396 -1745.621)" fill="url(#linear-gradient-11)"/>
      <path id="Trazado_131684" data-name="Trazado 131684" d="M3053.674,3051.93c-.278-.639-1.8.968-3.226,2.666l.55,7.327a6.113,6.113,0,0,0-1.86-.838c-.863-.2-2.354.112-2.469.525-.709,2.547,5.643,3.1,6.339,2.3a2.269,2.269,0,0,0,.537-1.737,22.661,22.661,0,0,1-.254-7.871C3053.505,3053.112,3053.828,3052.285,3053.674,3051.93Z" transform="translate(-2738.92 -2742.417)" fill="url(#linear-gradient-12)"/>
      <path id="Trazado_131685" data-name="Trazado 131685" d="M3022.4,2212.32c-3.625-5.343-7.157-10.755-10.7-16.146a9.014,9.014,0,0,1-1.3-3.583,24.8,24.8,0,0,0-3.993,4.018c-1,5-2.538,12.516-4.569,21.628-5.163,23.15-7.337,28.947-8.432,36.228-1.684,11.2-1.087,27.712,10.04,49.817l2.547.253c1.788-18.909,3.84-35.974,4.875-44.744.355-2.976,1.388-11.9,6.167-19.093.078-.118,7.15-9.787,9.589-13.65.813-1.287,1.83-2.955,2.984-5.187A73.87,73.87,0,0,1,3022.4,2212.32Z" transform="translate(-2691.379 -1984.763)" fill="url(#linear-gradient-13)"/>
      <path id="Trazado_131686" data-name="Trazado 131686" d="M3086.206,2212.32c-3.625-5.343-7.157-10.755-10.7-16.146a9.018,9.018,0,0,1-1.3-3.583,24.8,24.8,0,0,0-3.993,4.018c-1.581,6.113-2.708,11.346-3.5,15.34-2.187,11.09-2.063,14.157-.5,16.911,2.154,3.782,4.635,2.762,6.21,6.056,2.76,5.777-4.632,9.723-4.564,20.862.038,6.176,2.245,7.727,1.241,13.4a32.888,32.888,0,0,0-.67,9.1c.143,1.939.3,1.517.418,3.27.338,4.993-.853,9.583-.337,12.7a7.392,7.392,0,0,0,.709,2.188,7.106,7.106,0,0,0,1.19,1.655c1.622-16.277,3.333-30.532,4.254-38.292.355-2.976,1.388-11.9,6.167-19.093.078-.118,7.15-9.787,9.589-13.65.813-1.287,1.83-2.955,2.984-5.187A74.291,74.291,0,0,1,3086.206,2212.32Z" transform="translate(-2755.186 -1984.763)" opacity="0.25" fill="url(#linear-gradient-14)"/>
      <path id="Trazado_131687" data-name="Trazado 131687" d="M2912.313,1888.28a16.775,16.775,0,0,0-1.773,10.164,21.232,21.232,0,0,0,5.024,10.508c3.6,4.628,6.411,13.781,1.94,33.845a31.63,31.63,0,0,1,11.447.214c12.236,2.55,17.12,11.636,22.99,9.98,2.167-.612,5.11-2.868,7.163-11.3a55.541,55.541,0,0,0,1.655-37.464,54.352,54.352,0,0,0-15.885-24.128c-3.357-1.131-13.842-4.186-23.816.644C2918.573,1881.944,2914.711,1883.885,2912.313,1888.28Z" transform="translate(-2618.791 -1707.446)" fill="url(#linear-gradient-15)"/>
      <path id="Trazado_131688" data-name="Trazado 131688" d="M2976.545,1824.13c0,.883.031,5.61,2.127,6.382a12.815,12.815,0,0,0,2.865.118c1.161.031,2.1.092,2.718.139a14.9,14.9,0,0,1-.739,3.1c-2.613,7.353-11.071,12.463-13.937,10.622-1.491-.958-1.607-3.834-1.655-5.026a10.041,10.041,0,0,1,.675-4.024q1.574-1.142,3.22-2.289,1.077-.75,2.139-1.469-.071-1.356-.143-2.718Z" transform="translate(-2669.525 -1659.849)" fill="url(#linear-gradient-16)"/>
      <path id="Trazado_131689" data-name="Trazado 131689" d="M2993.061,1795.405s-2.527,2.955-5.707,1.891c-2.848-.953-1.363-8.281.851-9.173a3.962,3.962,0,0,1,3.043.334c.655.385,3.021,2.391,2.1,4.812a1.632,1.632,0,0,1,1.832-.109,1.022,1.022,0,0,1,.287.473C2995.676,1794.488,2994.75,1795.257,2993.061,1795.405Z" transform="translate(-2685.281 -1627.949)" fill="url(#linear-gradient-17)"/>
      <path id="Trazado_131690" data-name="Trazado 131690" d="M3013.924,1940.68a54.093,54.093,0,0,0-12.846-21.23c-4.727,3.124-9.534,7.357-9.133,11.9.458,5.165,7.357,7.3,6.713,10.565-.934,4.734-15.964,2.94-17.718,8.155-2.067,6.14,15.755,17.686,14.8,18.993-.682.936-8.879-5.673-18.182-4.136a12.819,12.819,0,0,0-4.863,1.929,99.488,99.488,0,0,1-2.024,12.4,31.631,31.631,0,0,1,11.447.214c12.235,2.55,17.12,11.636,22.99,9.98,2.167-.612,5.11-2.868,7.163-11.3A55.543,55.543,0,0,0,3013.924,1940.68Z" transform="translate(-2671.953 -1743.904)" opacity="0.3" fill="url(#linear-gradient-18)"/>
      <path id="Trazado_131691" data-name="Trazado 131691" d="M3067.3,1890.543c2.836-.709,2.854-1.632,6.654-.355,10.908,3.672,22.455,20.135,16.488,31.761-3.32,6.466-11.273,12.291-20.043,10.951-7.138-1.094-11.331-6.41-12.4-7.852q-.621-2.482-1.24-4.964c4.652,2.638,7.929,2.637,10.125,2.067,3.738-.971,4.568-3.649,10.744-5.992,2.406-.914,3.853-1.1,3.926-1.86.153-1.566-5.9-2.087-9.711-5.373C3069.063,1906.538,3066.289,1901.659,3067.3,1890.543Z" transform="translate(-2747.868 -1717.539)" fill="url(#linear-gradient-19)"/>
      <path id="Trazado_131692" data-name="Trazado 131692" d="M2996.877,2134.988l-1.3-.375a21.443,21.443,0,0,0-2.731-1.635,2.762,2.762,0,0,0-1.23-.262h0s-3.849-1.6-3.02-.67a7.137,7.137,0,0,0,1.791,1.418.222.222,0,0,1-.035.08c-.015.022-.024.039-.04.063a1.149,1.149,0,0,0-.174.429c-.237.73-.189,1.98,2.364,2.66h0a7.1,7.1,0,0,0,2.052.138,14.378,14.378,0,0,1,2.988.8Z" transform="translate(-2687.656 -1931.12)" fill="url(#linear-gradient-20)"/>
      <path id="Trazado_131693" data-name="Trazado 131693" d="M1918.621,3124.622c0,2.78-1.713,5.032-3.826,5.032s-3.826-2.253-3.826-5.032,1.714-5.032,3.826-5.032S1918.621,3121.842,1918.621,3124.622Z" transform="translate(-1737.491 -2802.207)" fill="url(#linear-gradient-21)"/>
      <path id="Trazado_131694" data-name="Trazado 131694" d="M1927.65,3129.452c0,2.78-1.712,5.032-3.826,5.032s-3.824-2.255-3.824-5.032,1.712-5.032,3.825-5.032S1927.65,3126.67,1927.65,3129.452Z" transform="translate(-1745.454 -2806.467)" fill="url(#linear-gradient-22)"/>
      <path id="Trazado_131695" data-name="Trazado 131695" d="M1942,3152.1a1.664,1.664,0,1,1-1.6-2.11A1.909,1.909,0,0,1,1942,3152.1Z" transform="translate(-1762.023 -2829.014)" fill="url(#linear-gradient-23)"/>
      <path id="Trazado_131696" data-name="Trazado 131696" d="M1943.34,3111.922v5.526a1.469,1.469,0,0,0,1.469,1.469h0a1.468,1.468,0,0,0,1.182-.6l4.964-6.805Z" transform="translate(-1766.036 -2795.082)" fill="#c2c2c2"/>
      <path id="Trazado_131697" data-name="Trazado 131697" d="M2265.181,3087.282c0,2.78-1.712,5.032-3.826,5.032s-3.825-2.252-3.825-5.032,1.714-5.032,3.825-5.032S2265.181,3084.5,2265.181,3087.282Z" transform="translate(-2043.093 -2769.28)" fill="url(#linear-gradient-24)"/>
      <path id="Trazado_131698" data-name="Trazado 131698" d="M2274.2,3092.092c0,2.78-1.713,5.032-3.826,5.032s-3.826-2.252-3.826-5.032,1.712-5.032,3.826-5.032S2274.2,3089.312,2274.2,3092.092Z" transform="translate(-2051.047 -2773.521)" fill="url(#linear-gradient-25)"/>
      <path id="Trazado_131699" data-name="Trazado 131699" d="M2288.556,3114.759a1.664,1.664,0,1,1-1.6-2.109A1.908,1.908,0,0,1,2288.556,3114.759Z" transform="translate(-2067.625 -2796.087)" fill="url(#linear-gradient-23)"/>
      <path id="Trazado_131700" data-name="Trazado 131700" d="M2289.9,3074.582v5.526a1.469,1.469,0,0,0,1.469,1.469h0a1.468,1.468,0,0,0,1.182-.6l4.971-6.805Z" transform="translate(-2071.638 -2762.155)" fill="#c2c2c2"/>
      <path id="Trazado_131701" data-name="Trazado 131701" d="M1934.789,2407.068a.474.474,0,1,1-.053-.946l48.5-5.466a7.577,7.577,0,0,0,6-5.491l20.319-75.649a9.247,9.247,0,0,1,8.292-6.824l14.748-.879a.474.474,0,1,1,.057.946l-14.745.879a8.293,8.293,0,0,0-7.432,6.121l-20.318,75.646a8.54,8.54,0,0,1-6.787,6.186l-48.528,5.476Z" transform="translate(-1758.054 -2089.896)" fill="#c2c2c2"/>
      <path id="Trazado_131702" data-name="Trazado 131702" d="M2135.231,2560.524a.473.473,0,0,1-.458-.345l-11.421-39.967a.476.476,0,0,1,.916-.261l11.421,39.967a.473.473,0,0,1-.327.591A.5.5,0,0,1,2135.231,2560.524Z" transform="translate(-1924.758 -2273.13)" fill="#c2c2c2"/>
      <path id="Trazado_131703" data-name="Trazado 131703" d="M2266.763,2549.19a.473.473,0,0,1-.473-.393l-7.046-39.591a.476.476,0,1,1,.937-.167l7.046,39.591a.472.472,0,0,1-.385.552A.432.432,0,0,1,2266.763,2549.19Z" transform="translate(-2044.599 -2263.468)" fill="#c2c2c2"/>
      <path id="Trazado_131704" data-name="Trazado 131704" d="M2380.791,2541.336h-.02a.473.473,0,0,1-.455-.5l1.625-39.172a.465.465,0,0,1,.5-.456.472.472,0,0,1,.456.5l-1.626,39.171A.473.473,0,0,1,2380.791,2541.336Z" transform="translate(-2151.368 -2256.911)" fill="#c2c2c2"/>
      <path id="Trazado_131705" data-name="Trazado 131705" d="M1985.568,2572.768a.473.473,0,0,1-.452-.325l-13.411-39.985a.476.476,0,1,1,.9-.3l13.41,39.985a.473.473,0,0,1-.3.6A.491.491,0,0,1,1985.568,2572.768Z" transform="translate(-1791.026 -2283.911)" fill="#c2c2c2"/>
      <path id="Trazado_131706" data-name="Trazado 131706" d="M2798.754,2310.4h-.082l-33.754-2.718a.953.953,0,0,1,.159-1.9l33.754,2.719a.952.952,0,1,1-.078,1.9Z" transform="translate(-2489.747 -2084.575)" fill="url(#linear-gradient-27)"/>
      <path id="Trazado_131707" data-name="Trazado 131707" d="M2222.655,3240.752c0,2.78-1.713,5.034-3.826,5.034s-3.829-2.254-3.829-5.034,1.712-5.032,3.825-5.032S2222.655,3237.974,2222.655,3240.752Z" transform="translate(-2005.59 -2904.613)" fill="url(#linear-gradient-28)"/>
      <path id="Trazado_131708" data-name="Trazado 131708" d="M2231.7,3245.562c0,2.78-1.714,5.032-3.826,5.032s-3.825-2.253-3.825-5.032,1.712-5.032,3.825-5.032S2231.7,3242.784,2231.7,3245.562Z" transform="translate(-2013.57 -2908.854)" fill="url(#linear-gradient-25)"/>
      <path id="Trazado_131709" data-name="Trazado 131709" d="M2246.076,3268.268a1.664,1.664,0,1,1-1.6-2.108A1.908,1.908,0,0,1,2246.076,3268.268Z" transform="translate(-2030.166 -2931.455)" fill="url(#linear-gradient-30)"/>
      <path id="Trazado_131710" data-name="Trazado 131710" d="M2247.4,3228.053v5.525a1.468,1.468,0,0,0,1.469,1.469h0a1.468,1.468,0,0,0,1.182-.6l4.969-6.8Z" transform="translate(-2034.161 -2897.487)" fill="#999"/>
      <path id="Trazado_131711" data-name="Trazado 131711" d="M2522.731,3210.722c0,2.778-1.714,5.032-3.826,5.032s-3.826-2.254-3.826-5.032,1.713-5.032,3.826-5.032S2522.731,3207.942,2522.731,3210.722Z" transform="translate(-2270.205 -2878.132)" fill="url(#linear-gradient-31)"/>
      <path id="Trazado_131712" data-name="Trazado 131712" d="M2531.741,3215.522c0,2.78-1.712,5.033-3.824,5.033s-3.827-2.254-3.827-5.033,1.714-5.032,3.827-5.032S2531.741,3212.744,2531.741,3215.522Z" transform="translate(-2278.15 -2882.365)" fill="url(#linear-gradient-32)"/>
      <path id="Trazado_131713" data-name="Trazado 131713" d="M2546.085,3238.2a1.663,1.663,0,1,1-1.6-2.108A1.909,1.909,0,0,1,2546.085,3238.2Z" transform="translate(-2294.72 -2904.939)" fill="url(#linear-gradient-33)"/>
      <path id="Trazado_131714" data-name="Trazado 131714" d="M2547.45,3198.014v5.526a1.469,1.469,0,0,0,1.469,1.469h0a1.471,1.471,0,0,0,1.182-.6l4.964-6.806Z" transform="translate(-2298.75 -2870.998)" fill="#999"/>
      <path id="Trazado_131715" data-name="Trazado 131715" d="M1807.172,2494.159a.473.473,0,1,1-.034-.945l86.386-6.221a.531.531,0,0,1,.118.006l35.762,6.091a.476.476,0,1,1-.16.938l-35.705-6.082-86.328,6.214Z" transform="translate(-1645.528 -2244.371)" fill="#c2c2c2"/>
      <path id="Trazado_131716" data-name="Trazado 131716" d="M1836.628,2548.5a.465.465,0,0,1-.138-.021l-29.352-8.911a.476.476,0,0,1,.277-.911l29.262,8.884,92.7-9.029a.475.475,0,0,1,.092.946l-92.8,9.037Z" transform="translate(-1645.633 -2289.802)" fill="#999"/>
      <path id="Trazado_131717" data-name="Trazado 131717" d="M2082.371,2842.294a.524.524,0,0,1-.073,0l-35.256-5.417-53.6,5.16a.475.475,0,1,1-.091-.945l53.663-5.165a.4.4,0,0,1,.118,0l35.316,5.417a.474.474,0,0,1-.072.945Z" transform="translate(-1809.753 -2552.064)" fill="#c2c2c2"/>
      <path id="Trazado_131718" data-name="Trazado 131718" d="M2073.451,2653.537a.473.473,0,0,1-.43-.272l-17.814-37.6a.476.476,0,1,1,.861-.408l17.672,37.3,63.474-6.035a.475.475,0,0,1,.091.945l-63.807,6.067Z" transform="translate(-1864.641 -2357.239)" fill="#999"/>
      <path id="Trazado_131719" data-name="Trazado 131719" d="M1854.421,2587.02a.494.494,0,0,1-.118-.014l-25.173-6.32a.473.473,0,0,1-.3-.236l-21.994-40.189a.476.476,0,0,1,.836-.458l21.895,40.008,24.97,6.264a.473.473,0,0,1-.118.938Z" transform="translate(-1645.609 -2290.722)" fill="#999"/>
      <path id="Trazado_131720" data-name="Trazado 131720" d="M1904.221,2671.165a.467.467,0,0,1-.134-.019l-27.639-8.107a.476.476,0,1,1,.268-.914l27.558,8.077,81.73-7.123a.474.474,0,1,1,.083.945l-81.817,7.136Z" transform="translate(-1706.747 -2398.79)" fill="#999"/>
      <path id="Trazado_131721" data-name="Trazado 131721" d="M1970.018,2796.911a.48.48,0,0,1-.128-.018l-26.482-7.419a.476.476,0,0,1,.256-.916l26.4,7.4,70.98-6.209a.474.474,0,1,1,.083.945l-71.065,6.218Z" transform="translate(-1765.789 -2510.282)" fill="#999"/>
      <path id="Trazado_131722" data-name="Trazado 131722" d="M2231.857,2639.208a.472.472,0,0,1-.456-.34l-11.36-38.114a.476.476,0,1,1,.912-.272l11.36,38.114a.473.473,0,0,1-.32.591A.492.492,0,0,1,2231.857,2639.208Z" transform="translate(-2010.017 -2344.149)" fill="#999"/>
      <path id="Trazado_131723" data-name="Trazado 131723" d="M2372.091,2625.359a.472.472,0,0,1-.473-.392l-6.813-38.615a.476.476,0,0,1,.938-.166l6.814,38.615a.476.476,0,0,1-.466.558Z" transform="translate(-2137.684 -2331.496)" fill="#999"/>
      <path id="Trazado_131724" data-name="Trazado 131724" d="M2526.875,2613.739a.473.473,0,0,1-.473-.449l-2.147-38.343a.476.476,0,1,1,.951-.053l2.146,38.343a.473.473,0,0,1-.448.5Z" transform="translate(-2278.295 -2321.488)" fill="#999"/>
      <path id="Trazado_131725" data-name="Trazado 131725" d="M2656.475,2596.5h-.026a.473.473,0,0,1-.454-.5l2.043-38.954a.473.473,0,1,1,.945.05l-2.043,38.955A.472.472,0,0,1,2656.475,2596.5Z" transform="translate(-2394.466 -2305.749)" fill="#999"/>
      <path id="Trazado_131726" data-name="Trazado 131726" d="M2004.958,2633.142a.472.472,0,0,1-.429-.271l-18.361-38.163a.476.476,0,1,1,.858-.412l18.361,38.164a.473.473,0,0,1-.429.683Z" transform="translate(-1803.761 -2338.756)" fill="#999"/>
      <path id="Trazado_131727" data-name="Trazado 131727" d="M1910.212,2604.914a.473.473,0,0,1-.427-.264l-19.491-39.042a.476.476,0,1,1,.852-.426l19.491,39.043a.476.476,0,0,1-.426.688Z" transform="translate(-1719.215 -2313.09)" fill="#999"/>
      <path id="Trazado_131728" data-name="Trazado 131728" d="M1971.256,2439.968a.471.471,0,0,1-.175-.033l-36.317-14.411a.477.477,0,1,1,.354-.885l36.2,14.366,43.937-5.368a8.218,8.218,0,0,0,6.95-6l24.013-87.172a9.259,9.259,0,0,1,8.243-6.765l12.74-.924a.474.474,0,0,1,.069.946l-12.74.924a8.307,8.307,0,0,0-7.395,6.068l-24.011,87.172a9.167,9.167,0,0,1-7.753,6.688l-44.057,5.382a.579.579,0,0,1-.058.008Z" transform="translate(-1758.209 -2108.384)" fill="#999"/>
      <path id="Trazado_131729" data-name="Trazado 131729" d="M2797.815,2294.559s-3.367-2.965-6.673-1.88a2.891,2.891,0,0,0-1.743,1.315,2.676,2.676,0,0,0,.3,2.817c.855,1.063,2.5,1.063,4.092-.354-.142-.037-1.071.406-1.3-.374a1.4,1.4,0,0,1,.009-.739C2792.916,2294.043,2797.5,2294.547,2797.815,2294.559Z" transform="translate(-2511.865 -2072.813)" fill="url(#linear-gradient-34)"/>
      <path id="Trazado_131730" data-name="Trazado 131730" d="M670.882,2508.65a.854.854,0,0,1-.849-.773,45.3,45.3,0,0,0-7.2-20.983c-3.452-5.039-7.564-8.047-10.991-8.047h-.012c-12.5.025-15.119,28.733-15.144,29.022a.853.853,0,1,1-1.7-.145c.106-1.248,2.783-30.556,16.841-30.583h.015c4.056,0,8.575,3.2,12.4,8.789a46.974,46.974,0,0,1,7.49,21.786.853.853,0,0,1-.768.931C670.938,2508.649,670.913,2508.65,670.882,2508.65Z" transform="translate(-612.305 -2235.684)" fill="url(#linear-gradient-35)"/>
      <path id="Trazado_131731" data-name="Trazado 131731" d="M484.967,2771.38l16.461,8.333,9.974-30.6-16.427-41.03-4.66,1.142-7.07,58.926A3.191,3.191,0,0,0,484.967,2771.38Z" transform="translate(-478.477 -2439.331)" fill="url(#linear-gradient-36)"/>
      <path id="Trazado_131732" data-name="Trazado 131732" d="M568.11,2749.108l-16.427-41.028-2.749.674a89.462,89.462,0,0,0,.046,13.27c1.091,13.969,4.755,17.856,2.982,27.6-1.474,8.1-4.692,9.2-4.411,14.655.306,5.938,4.447,10.911,9.371,14.82l1.215.615Z" transform="translate(-535.19 -2439.331)" fill="#f5ca56" opacity="0.52"/>
      <path id="Trazado_131733" data-name="Trazado 131733" d="M582.59,2708.08h61.373l20.312,65.572-75.225,6.062Z" transform="translate(-566.103 -2439.331)" fill="#f5ca56"/>
      <path id="Trazado_131734" data-name="Trazado 131734" d="M725.723,2515.09a.852.852,0,0,1-.827-.658c-.175-.745-4.207-18.318,1.479-26.937a9.921,9.921,0,0,1,6.767-4.491c14.7-2.59,23.747,28.979,24.125,30.323a.854.854,0,1,1-1.644.462c-.089-.314-9-31.437-22.184-29.1a8.173,8.173,0,0,0-5.639,3.743c-5.285,8.017-1.283,25.433-1.242,25.608a.853.853,0,0,1-.827,1.048Z" transform="translate(-690.225 -2240.722)" fill="url(#linear-gradient-37)"/>
      <g id="Grupo_56088" data-name="Grupo 56088" transform="translate(26.621 268.749)" opacity="0.3">
        <path id="Trazado_131735" data-name="Trazado 131735" d="M719.578,2708.08H689.132a8.266,8.266,0,0,0-2.669,5.261c-.479,9.279,20.85,12.325,22.906,25.042,1.484,9.172-7.646,19.756-15.793,24.471-8.582,4.964-14.4,2.452-20.209,7.968a19.036,19.036,0,0,0-5.028,8.594l71.545-5.765Z" transform="translate(-668.34 -2708.08)" fill="url(#linear-gradient-38)"/>
      </g>
      <circle id="Elipse_4336" data-name="Elipse 4336" cx="2.386" cy="2.386" r="2.386" transform="translate(33.118 272.111)" fill="url(#linear-gradient-39)"/>
      <circle id="Elipse_4337" data-name="Elipse 4337" cx="2.386" cy="2.386" r="2.386" transform="translate(63.499 272.986) rotate(-22.5)" fill="url(#linear-gradient-40)"/>
      <path id="Trazado_131736" data-name="Trazado 131736" d="M1525.9,591.285l101.756,2.058,23.085.463a8.5,8.5,0,0,0,8.663-8.438V560.809a8.94,8.94,0,0,0-8.627-8.775l-124.653-4.8a10.843,10.843,0,0,0-4.659.841,8.7,8.7,0,0,0-5.414,7.761v26.109C1516.05,586.889,1520.559,591.177,1525.9,591.285Z" transform="translate(-1389.244 -533.851)" fill="#97a6b7"/>
      <path id="Trazado_131737" data-name="Trazado 131737" d="M1676.474,560.143v24.582A8.355,8.355,0,0,1,1667.8,593l-124.784-2.533c-5.35-.109-9.721-4.23-9.721-9.184V555.154a8.528,8.528,0,0,1,5.238-7.767,10.058,10.058,0,0,1,4.483-.845l124.784,4.812A8.981,8.981,0,0,1,1676.474,560.143Z" transform="translate(-1404.455 -533.243)" fill="#d8dee8"/>
      <path id="Trazado_131738" data-name="Trazado 131738" d="M1679.409,566.907c0-4.061-3.642-7.481-7.813-7.641l-124.989-4.757c-4.656-.178-8.837,3.171-8.837,7.483v25.785c0,4.311,4.041,7.886,8.7,7.984l125,2.619c4.171.089,7.936-3.133,7.936-7.193Z" transform="translate(-1408.397 -540.27)" fill="#fff"/>
      <path id="Trazado_131739" data-name="Trazado 131739" d="M1904.838,694.87l2.448,4.454,5.429.8a.626.626,0,0,1,.394,1.091l-3.914,3.358.928,4.835a.7.7,0,0,1-1.039.665l-4.889-2.322-4.939,2.261a.723.723,0,0,1-1.064-.688l.945-4.87-4.034-3.517a.625.625,0,0,1,.409-1.1l5.555-.618,2.466-4.373A.773.773,0,0,1,1904.838,694.87Z" transform="translate(-1723.303 -663.721)" fill="url(#linear-gradient-41)"/>
      <path id="Trazado_131740" data-name="Trazado 131740" d="M2080.556,698.681l2.346,4.361,5.207.776a.612.612,0,0,1,.377,1.064l-3.758,3.29.89,4.727a.671.671,0,0,1-1,.652l-4.687-2.273-4.735,2.214a.694.694,0,0,1-1.018-.672l.91-4.77-3.866-3.442a.613.613,0,0,1,.392-1.074l5.329-.608,2.364-4.284A.734.734,0,0,1,2080.556,698.681Z" transform="translate(-1878.619 -667.087)" fill="url(#linear-gradient-42)"/>
      <path id="Trazado_131741" data-name="Trazado 131741" d="M2249.029,702.371l2.251,4.271,5,.76a.605.605,0,0,1,.363,1.046l-3.607,3.224.853,4.638a.646.646,0,0,1-.955.639l-4.5-2.227-4.543,2.17a.667.667,0,0,1-.976-.659l.873-4.671-3.708-3.371a.6.6,0,0,1,.375-1.052l5.113-.591,2.268-4.2A.693.693,0,0,1,2249.029,702.371Z" transform="translate(-2027.523 -670.353)" fill="url(#linear-gradient-43)"/>
      <path id="Trazado_131742" data-name="Trazado 131742" d="M2410.694,705.879l2.163,4.184,4.8.743a.6.6,0,0,1,.347,1.026l-3.465,3.161.82,4.544a.622.622,0,0,1-.917.626l-4.322-2.18-4.362,2.127a.641.641,0,0,1-.937-.645l.838-4.577-3.559-3.3a.591.591,0,0,1,.36-1.032l4.908-.591,2.179-4.114A.658.658,0,0,1,2410.694,705.879Z" transform="translate(-2170.403 -673.449)" fill="url(#linear-gradient-44)"/>
      <path id="Trazado_131743" data-name="Trazado 131743" d="M2565.925,709.214l2.079,4.1,4.609.728a.591.591,0,0,1,.334,1.006l-3.332,3.1.788,4.456a.6.6,0,0,1-.882.615l-4.154-2.138-4.192,2.085a.619.619,0,0,1-.9-.632l.8-4.491-3.42-3.234a.584.584,0,0,1,.345-1.012l4.718-.577,2.093-4.035a.626.626,0,0,1,1.109.028Z" transform="translate(-2307.587 -676.39)" fill="#d8dee8"/>
      <path id="Trazado_131744" data-name="Trazado 131744" d="M1967.656,629.769a1.546,1.546,0,0,1-1.625,1.612l-60.587-2.034a1.987,1.987,0,0,1-1.975-1.773v-.307a1.9,1.9,0,0,1,2.032-1.655l60.429,2.127a1.773,1.773,0,0,1,1.725,1.73Z" transform="translate(-1730.878 -602.976)" fill="url(#linear-gradient-45)"/>
      <path id="Trazado_131745" data-name="Trazado 131745" d="M1612.124,641.97c-8.556-.2-15.563-6.855-15.563-14.833s7.007-14.22,15.563-13.916c8.5.3,15.364,6.953,15.364,14.827S1620.62,642.17,1612.124,641.97Z" transform="translate(-1460.239 -592.04)" fill="url(#linear-gradient-46)"/>
      <path id="Trazado_131746" data-name="Trazado 131746" d="M1635.675,636.715c0,7.252-6.3,12.98-14.125,12.793-7.873-.189-14.3-6.292-14.3-13.631s6.421-13.064,14.3-12.789C1629.373,623.362,1635.675,629.463,1635.675,636.715Z" transform="translate(-1469.666 -600.743)" fill="url(#linear-gradient)"/>
      <g id="Grupo_56089" data-name="Grupo 56089" transform="translate(137.584 22.337)" clip-path="url(#clip-path-3)">
        <path id="Trazado_131747" data-name="Trazado 131747" d="M1684.569,664.146a6.324,6.324,0,0,1-6.767,6.1,6.815,6.815,0,0,1-6.8-6.518,6.325,6.325,0,0,1,6.806-6.1A6.8,6.8,0,0,1,1684.569,664.146Z" transform="translate(-1663.466 -653.542)" fill="#fff"/>
        <path id="Trazado_131748" data-name="Trazado 131748" d="M1664.322,788.091c-.454-4.707-4.659-8.441-9.8-8.581-5.165-.141-9.42,3.391-9.881,8.113Z" transform="translate(-1640.221 -761.019)" fill="#fff"/>
      </g>
      <g id="Grupo_56090" data-name="Grupo 56090" transform="translate(128.845 14.144)" opacity="0.3">
        <path id="Trazado_131750" data-name="Trazado 131750" d="M1644.869,598.906l-101.848-2.068c-5.35-.109-9.721-4.23-9.721-9.184V561.527a8.528,8.528,0,0,1,5.238-7.767c.331.215.66.437.981.667l.209.152a21.116,21.116,0,0,1,7.3,8.781c.16.379.312.767.448,1.165l.007.018a64.794,64.794,0,0,0,2.425,6.105c2.747,5.951,6.3,10.655,11.582,13.591a23.974,23.974,0,0,0,3.516,1.6c.454.164.919.319,1.4.46,5.143,1.545,11.582,1.817,19.79.541.606-.093,1.2-.188,1.807-.28.337-.053.672-.1,1.009-.155,3.775-.576,7.469-1.106,11.1-1.476l.756-.074q1.641-.156,3.26-.261c.817-.053,1.627-.095,2.437-.126.171-.006.344-.012.515-.015q1.3-.041,2.573-.036.813,0,1.625.026c1.371.039,2.736.118,4.092.253,1.515.148,3.02.355,4.517.642q.927.174,1.854.388c7.43,1.716,14.691,5.33,21.931,12.037.388.355.778.727,1.165,1.1C1644.839,598.878,1644.854,598.891,1644.869,598.906Z" transform="translate(-1533.3 -553.76)" fill="#d8dee8"/>
      </g>
      <path id="Trazado_131751" data-name="Trazado 131751" d="M1730.429,1669.651l-125.046,1.978a10.281,10.281,0,0,0-4.462,1.09,9.1,9.1,0,0,0-5.22,8.061v26.149c0,4.964,4.366,9.014,9.725,8.831l101.966-3.483,22.983-.785a9.08,9.08,0,0,0,8.676-8.919v-24.6A8.363,8.363,0,0,0,1730.429,1669.651Z" transform="translate(-1459.481 -1523.626)" fill="#97a6b7"/>
      <path id="Trazado_131752" data-name="Trazado 131752" d="M1757.125,1678.241v24.618a8.954,8.954,0,0,1-8.7,8.765l-125.2,4.271c-5.368.182-9.754-3.706-9.754-8.67v-26.176a9.135,9.135,0,0,1,5.257-8.066,10.454,10.454,0,0,1,4.491-1.09l125.2-1.981A8.434,8.434,0,0,1,1757.125,1678.241Z" transform="translate(-1475.151 -1523.856)" fill="#d8dee8"/>
      <path id="Trazado_131753" data-name="Trazado 131753" d="M1762.3,1684.822a7.319,7.319,0,0,0-7.564-7.24l-125.091,2.028c-4.672.076-8.549,3.64-8.549,7.958V1713.4c0,4.318,3.873,7.693,8.546,7.536l125.059-4.173a7.8,7.8,0,0,0,7.605-7.618Z" transform="translate(-1481.879 -1530.62)" fill="#fff"/>
      <path id="Trazado_131754" data-name="Trazado 131754" d="M1986.306,1815.625l2.456,4.329,5.447.5a.608.608,0,0,1,.4,1.071l-3.932,3.577.93,4.792a.735.735,0,0,1-1.041.723l-4.906-2.059-4.956,2.53c-.539.275-1.169-.1-1.064-.631l.953-4.931-4.049-3.3a.645.645,0,0,1,.41-1.123l5.58-.922,2.475-4.517A.772.772,0,0,1,1986.306,1815.625Z" transform="translate(-1795.115 -1652.052)" fill="url(#linear-gradient-48)"/>
      <path id="Trazado_131755" data-name="Trazado 131755" d="M2162.6,1810.036l2.354,4.24,5.224.5a.6.6,0,0,1,.379,1.05l-3.771,3.5.892,4.692a.708.708,0,0,1-1,.709l-4.7-2.021-4.75,2.475a.662.662,0,0,1-1.021-.618l.912-4.827-3.879-3.236a.633.633,0,0,1,.394-1.1l5.347-.9,2.373-4.42A.731.731,0,0,1,2162.6,1810.036Z" transform="translate(-1950.938 -1647.13)" fill="url(#linear-gradient-49)"/>
      <path id="Trazado_131756" data-name="Trazado 131756" d="M2331.635,1804.676l2.26,4.154,5.013.489a.591.591,0,0,1,.364,1.028l-3.62,3.427.857,4.6a.681.681,0,0,1-.958.693l-4.515-1.984-4.557,2.419a.637.637,0,0,1-.979-.606l.876-4.727-3.72-3.173a.623.623,0,0,1,.377-1.075l5.129-.876,2.276-4.328A.7.7,0,0,1,2331.635,1804.676Z" transform="translate(-2100.34 -1642.408)" fill="url(#linear-gradient-50)"/>
      <path id="Trazado_131757" data-name="Trazado 131757" d="M2493.895,1799.529l2.171,4.074,4.815.483a.579.579,0,0,1,.355,1.008l-3.477,3.355.827,4.507a.657.657,0,0,1-.922.677l-4.335-1.949-4.373,2.364a.618.618,0,0,1-.946-.591l.842-4.63-3.573-3.112a.613.613,0,0,1,.362-1.053l4.926-.854,2.185-4.24A.654.654,0,0,1,2493.895,1799.529Z" transform="translate(-2243.753 -1637.876)" fill="#d8dee8"/>
      <path id="Trazado_131758" data-name="Trazado 131758" d="M2649.663,1794.583l2.086,3.995,4.629.473a.571.571,0,0,1,.337.989l-3.343,3.287.792,4.42a.634.634,0,0,1-.885.664l-4.167-1.914-4.206,2.316a.593.593,0,0,1-.9-.584l.808-4.538-3.427-3.054a.6.6,0,0,1,.347-1.032l4.727-.834,2.1-4.155A.629.629,0,0,1,2649.663,1794.583Z" transform="translate(-2381.413 -1633.518)" fill="#d8dee8"/>
      <path id="Trazado_131759" data-name="Trazado 131759" d="M2054.116,1741.273a1.654,1.654,0,0,1-1.631,1.705l-60.466,1.256a1.592,1.592,0,0,1-1.662-1.682v-.3a1.721,1.721,0,0,1,1.717-1.755l60.47-1.159a1.534,1.534,0,0,1,1.572,1.643Z" transform="translate(-1807.496 -1585.077)" fill="url(#linear-gradient-51)"/>
      <path id="Trazado_131760" data-name="Trazado 131760" d="M1692.587,1776.1c-8.586.266-15.617-6.019-15.617-14.009s7.031-14.626,15.617-14.788c8.525-.162,15.415,6.127,15.415,14.015S1701.111,1775.843,1692.587,1776.1Z" transform="translate(-1531.146 -1592.103)" fill="url(#linear-gradient-52)"/>
      <path id="Trazado_131761" data-name="Trazado 131761" d="M1716.218,1770.1c0,7.265-6.325,13.347-14.174,13.591-7.9.236-14.344-5.524-14.344-12.875s6.443-13.437,14.344-13.591C1709.9,1757.069,1716.218,1762.837,1716.218,1770.1Z" transform="translate(-1540.608 -1600.85)" fill="url(#linear-gradient-2)"/>
      <g id="Grupo_56091" data-name="Grupo 56091" transform="translate(147.092 156.374)" clip-path="url(#clip-path-4)">
        <path id="Trazado_131762" data-name="Trazado 131762" d="M1765.24,1797.906a6.768,6.768,0,0,1-6.791,6.48,6.4,6.4,0,0,1-6.829-6.157,6.77,6.77,0,0,1,6.829-6.481A6.387,6.387,0,0,1,1765.24,1797.906Z" transform="translate(-1744.066 -1787.666)" fill="#fff"/>
        <path id="Trazado_131763" data-name="Trazado 131763" d="M1744.959,1921.891c-.455-4.691-4.674-8.2-9.834-8.061-5.182.141-9.455,3.91-9.916,8.665Z" transform="translate(-1720.777 -1895.318)" fill="#fff"/>
      </g>
      <g id="Grupo_56092" data-name="Grupo 56092" transform="translate(138.319 149.126)" opacity="0.3">
        <path id="Trazado_131765" data-name="Trazado 131765" d="M1725.416,1735.325l-102.192,3.488c-5.368.182-9.754-3.706-9.754-8.67v-26.176a9.135,9.135,0,0,1,5.257-8.066c.331.2.661.4.983.615.071.046.141.093.21.142a19.579,19.579,0,0,1,7.32,8.4c.161.371.312.75.45,1.142a.109.109,0,0,0,0,.018,63.075,63.075,0,0,0,2.433,5.985c2.756,5.81,6.324,10.33,11.625,12.985a22.75,22.75,0,0,0,3.527,1.406q.684.209,1.4.384c5.16,1.267,11.621,1.188,19.855-.536l1.813-.379,1.013-.21c3.782-.782,7.494-1.515,11.133-2.084.252-.038.506-.078.759-.118q1.645-.248,3.27-.441,1.228-.145,2.444-.259c.172-.015.346-.031.519-.044.864-.073,1.724-.135,2.58-.175.545-.027,1.09-.048,1.631-.064,1.375-.034,2.745-.028,4.106.031,1.519.065,3.029.193,4.531.4.621.083,1.242.178,1.86.287a44.555,44.555,0,0,1,22,10.861c.389.339.78.685,1.168,1.044A.308.308,0,0,1,1725.416,1735.325Z" transform="translate(-1613.47 -1695.9)" fill="#d8dee8"/>
      </g>
      <path id="Trazado_131766" data-name="Trazado 131766" d="M2133.924,1130.209,2014.484,1129a10.432,10.432,0,0,0-4.457.945,8.809,8.809,0,0,0-5.178,7.739v25.535c0,4.845,4.313,8.918,9.424,8.877l97.476-.792,22.143-.178a8.524,8.524,0,0,0,8.316-8.5v-24.053A8.376,8.376,0,0,0,2133.924,1130.209Z" transform="translate(-1820.276 -1046.868)" fill="#97a6b7"/>
      <path id="Trazado_131767" data-name="Trazado 131767" d="M2159.9,1138.421v24.074a8.387,8.387,0,0,1-8.317,8.349l-119.566.964a8.987,8.987,0,0,1-9.3-8.716v-25.558a8.649,8.649,0,0,1,5.012-7.745,9.6,9.6,0,0,1,4.29-.945l119.566,1.219A8.4,8.4,0,0,1,2159.9,1138.421Z" transform="translate(-1836.034 -1046.733)" fill="#d8dee8"/>
      <path id="Trazado_131768" data-name="Trazado 131768" d="M2168.14,1145.07a7.292,7.292,0,0,0-7.225-7.273l-119.227-1.17a7.637,7.637,0,0,0-7.918,7.557v25.224a7.663,7.663,0,0,0,7.918,7.578l119.3-.876a7.2,7.2,0,0,0,7.145-7.253Z" transform="translate(-1845.778 -1053.597)" fill="#fff"/>
      <path id="Trazado_131769" data-name="Trazado 131769" d="M2378.425,1263.855l2.345,4.291,5.2.628a.605.605,0,0,1,.377,1.057l-3.753,3.4.889,4.7a.689.689,0,0,1-1,.681l-4.684-2.137-4.727,2.348a.675.675,0,0,1-1.018-.643l.91-4.794-3.864-3.329a.623.623,0,0,1,.391-1.086l5.326-.759,2.364-4.35A.723.723,0,0,1,2378.425,1263.855Z" transform="translate(-2141.294 -1165.484)" fill="url(#linear-gradient-54)"/>
      <path id="Trazado_131770" data-name="Trazado 131770" d="M2546.725,1262.82l2.246,4.2,4.988.616a.6.6,0,0,1,.363,1.036l-3.6,3.326.852,4.609a.662.662,0,0,1-.954.666l-4.491-2.094-4.536,2.3a.648.648,0,0,1-.975-.63l.871-4.693-3.7-3.262a.613.613,0,0,1,.375-1.064l5.105-.742,2.266-4.255a.69.69,0,0,1,1.191-.013Z" transform="translate(-2290.048 -1164.581)" fill="url(#linear-gradient-55)"/>
      <path id="Trazado_131771" data-name="Trazado 131771" d="M2708.143,1261.732l2.158,4.119,4.79.6a.591.591,0,0,1,.347,1.014l-3.458,3.257.819,4.517a.638.638,0,0,1-.916.652l-4.312-2.055-4.354,2.246a.625.625,0,0,1-.936-.618l.837-4.6-3.554-3.191a.6.6,0,0,1,.354-1.041l4.9-.727,2.174-4.172a.656.656,0,0,1,1.15-.008Z" transform="translate(-2432.712 -1163.62)" fill="url(#linear-gradient-56)"/>
      <path id="Trazado_131772" data-name="Trazado 131772" d="M2863.138,1260.8l2.074,4.037,4.609.591a.577.577,0,0,1,.335.994l-3.324,3.191.786,4.427a.615.615,0,0,1-.879.639l-4.144-2.009-4.185,2.2a.6.6,0,0,1-.9-.605l.8-4.505-3.413-3.133a.591.591,0,0,1,.345-1.021l4.708-.709,2.088-4.089a.623.623,0,0,1,1.1-.008Z" transform="translate(-2569.699 -1162.816)" fill="url(#linear-gradient-57)"/>
      <path id="Trazado_131773" data-name="Trazado 131773" d="M3012.106,1259.863l1.995,3.96,4.426.583a.57.57,0,0,1,.321.976l-3.191,3.13.756,4.342a.591.591,0,0,1-.846.626l-3.99-1.978-4.018,2.164a.582.582,0,0,1-.864-.591l.773-4.417-3.281-3.073a.591.591,0,0,1,.332-1l4.524-.695,2.009-4.01a.591.591,0,0,1,1.053-.016Z" transform="translate(-2701.357 -1161.992)" fill="url(#linear-gradient-58)"/>
      <path id="Trazado_131774" data-name="Trazado 131774" d="M2439.408,1199.881a1.633,1.633,0,0,1-1.655,1.626l-58.061-.3a1.863,1.863,0,0,1-1.9-1.686v-.3a1.845,1.845,0,0,1,1.905-1.669l57.984.394a1.722,1.722,0,0,1,1.73,1.645Z" transform="translate(-2149.141 -1107.32)" fill="url(#linear-gradient-59)"/>
      <path id="Trazado_131775" data-name="Trazado 131775" d="M2098.2,1219.026c-8.19.04-14.891-6.277-14.891-14.08s6.707-14.108,14.891-14.048c8.135.058,14.71,6.374,14.71,14.08S2106.336,1218.985,2098.2,1219.026Z" transform="translate(-1889.464 -1101.453)" fill="url(#linear-gradient-60)"/>
      <path id="Trazado_131776" data-name="Trazado 131776" d="M2120.747,1213.448c0,7.091-6.036,12.882-13.525,12.91-7.537.033-13.682-5.76-13.682-12.94s6.146-12.96,13.682-12.91C2114.711,1200.565,2120.747,1206.356,2120.747,1213.448Z" transform="translate(-1898.484 -1109.928)" fill="url(#linear-gradient-3)"/>
      <g id="Grupo_56093" data-name="Grupo 56093" transform="translate(195.056 90.579)" clip-path="url(#clip-path-5)">
        <path id="Trazado_131777" data-name="Trazado 131777" d="M2167.464,1240.477a6.506,6.506,0,1,1-6.479-6.188A6.324,6.324,0,0,1,2167.464,1240.477Z" transform="translate(-2147.269 -1230.297)" fill="#fff"/>
        <path id="Trazado_131778" data-name="Trazado 131778" d="M2148.148,1361.675a9.2,9.2,0,0,0-9.384-8.125,9.308,9.308,0,0,0-9.455,8.211Z" transform="translate(-2125.083 -1335.463)" fill="#fff"/>
      </g>
      <g id="Grupo_56094" data-name="Grupo 56094" transform="translate(186.686 83.056)" opacity="0.3">
        <path id="Trazado_131780" data-name="Trazado 131780" d="M2129.591,1178.082l-97.569.787a8.987,8.987,0,0,1-9.3-8.716v-25.558a8.649,8.649,0,0,1,5.012-7.745c.317.2.631.41.94.625l.2.143a19.723,19.723,0,0,1,6.981,8.391c.154.368.3.742.429,1.127l.007.018a63.382,63.382,0,0,0,2.321,5.909c2.63,5.745,6.033,10.25,11.09,12.978a21.936,21.936,0,0,0,3.366,1.463c.434.149.881.287,1.337.412,4.925,1.368,11.091,1.456,18.952-.019.58-.109,1.154-.217,1.73-.324.324-.062.644-.118.968-.18,3.615-.669,7.155-1.291,10.628-1.753l.724-.093c1.048-.134,2.087-.249,3.124-.346q1.174-.112,2.334-.191c.166-.011.33-.021.5-.029.827-.05,1.647-.088,2.464-.105q.78-.02,1.558-.02,1.972,0,3.921.134c1.451.1,2.895.266,4.328.5q.89.143,1.773.327c7.123,1.475,14.084,4.813,21.026,11.179.371.342.744.69,1.116,1.049A.107.107,0,0,1,2129.591,1178.082Z" transform="translate(-2022.72 -1136.85)" fill="#d8dee8"/>
      </g>
    </g>
  </g>
</svg>
