<svg xmlns="http://www.w3.org/2000/svg" xmlns:xlink="http://www.w3.org/1999/xlink" width="379.472" height="334.19" viewBox="0 0 379.472 334.19">
  <defs>
    <linearGradient id="linear-gradient" x1="0.691" y1="0.085" x2="0.112" y2="1.249" gradientUnits="objectBoundingBox">
      <stop offset="0" stop-color="#e38ddd"/>
      <stop offset="1" stop-color="#9571f6"/>
    </linearGradient>
    <linearGradient id="linear-gradient-2" x1="0.637" y1="0.163" x2="0.362" y2="0.845" gradientUnits="objectBoundingBox">
      <stop offset="0" stop-color="#aa80f9"/>
      <stop offset="1" stop-color="#6165d7"/>
    </linearGradient>
    <clipPath id="clip-path">
      <path id="Trazado_131792" data-name="Trazado 131792" d="M210.961,2100.683a13.95,13.95,0,0,0,3.059-5.827c.454-7.444,2.206-21.325-2.654-27.531-.835-1.06-6.479,1.333-7.877.8-3.972.652-5.31,1.123-9.39-.112-12.045-3.648-7.9-29.024-28.679-22.551-15.221,4.741-22.8,16.365-34.9-3.988S78.53,1996.387,67.4,2024.131c-6.389,15.922,16.991,24.167,19.366,40.54,2.258,15.559,13.761,21.692,30.867,20.126s14.233,8.324,18.274,21.8c4.853,16.186,26.8,4.457,36.471-1.823C180.167,2099.717,203.409,2092.095,210.961,2100.683Z" transform="translate(-66.299 -2011.755)" fill="url(#linear-gradient)"/>
    </clipPath>
    <clipPath id="clip-path-2">
      <path id="Trazado_131801" data-name="Trazado 131801" d="M190.547,1536.075q13.018-9.548,25.737-19.705c.205.052-4.985-21.442-18.829-26.666-27.2-9.906-22-34.916-22.813-47.61-.517-18.231-10.31-32.953-25.958-24.736-17.5,8.78-32.315-17.753-39.821-45.136-2.769-13.845-21.006-22.537-34.374-19.524-13.769,2.774-22.66,17.257-16.047,44.249,6.336,31.974,34.882,37.8,48.781,48,13.664,10,.349,31.346,20.121,36.035,16.879,4.543,35.64,4.2,35.822,21.344C163.125,1519.389,169.223,1530.007,190.547,1536.075Z" transform="translate(-56.209 -1352.101)" fill="url(#linear-gradient-2)"/>
    </clipPath>
    <linearGradient id="linear-gradient-5" x1="0.302" y1="0.298" x2="0.81" y2="0.84" gradientUnits="objectBoundingBox">
      <stop offset="0" stop-color="#ff9085"/>
      <stop offset="1" stop-color="#fb6fbb"/>
    </linearGradient>
    <linearGradient id="linear-gradient-6" x1="0.978" y1="0.047" x2="0.263" y2="0.702" gradientUnits="objectBoundingBox">
      <stop offset="0" stop-color="#fff"/>
      <stop offset="1" stop-color="#ebeff2"/>
    </linearGradient>
    <linearGradient id="linear-gradient-7" x1="0" y1="0.5" x2="1" y2="0.5" xlink:href="#linear-gradient-6"/>
    <linearGradient id="linear-gradient-8" x1="0" y1="0.499" x2="1" y2="0.499" xlink:href="#linear-gradient-6"/>
    <linearGradient id="linear-gradient-9" x1="0" y1="0.5" x2="1" y2="0.5" xlink:href="#linear-gradient-6"/>
    <linearGradient id="linear-gradient-10" x1="0" y1="0.501" x2="1" y2="0.501" xlink:href="#linear-gradient-6"/>
    <linearGradient id="linear-gradient-11" x1="0" y1="0.5" x2="1" y2="0.5" xlink:href="#linear-gradient-6"/>
    <linearGradient id="linear-gradient-12" x1="0" y1="0.5" x2="1" y2="0.5" xlink:href="#linear-gradient-6"/>
    <linearGradient id="linear-gradient-13" x1="0.453" y1="1.21" x2="0.493" y2="0.605" gradientUnits="objectBoundingBox">
      <stop offset="0" stop-color="#26264f"/>
      <stop offset="1" stop-color="#444b8c"/>
    </linearGradient>
    <linearGradient id="linear-gradient-14" x1="0.341" y1="0.938" x2="0.642" y2="-0.277" xlink:href="#linear-gradient-13"/>
    <linearGradient id="linear-gradient-15" x1="0" y1="0.5" x2="1" y2="0.5" xlink:href="#linear-gradient-13"/>
    <linearGradient id="linear-gradient-16" x1="0.384" y1="1.047" x2="0.649" y2="-0.416" xlink:href="#linear-gradient-13"/>
    <linearGradient id="linear-gradient-17" x1="0" y1="0.5" x2="1" y2="0.5" xlink:href="#linear-gradient-13"/>
    <linearGradient id="linear-gradient-18" x1="0" y1="0.5" x2="1" y2="0.5" xlink:href="#linear-gradient-13"/>
    <linearGradient id="linear-gradient-19" x1="0.475" y1="1.004" x2="0.575" y2="-0.995" xlink:href="#linear-gradient-13"/>
    <linearGradient id="linear-gradient-20" x1="-0.642" y1="0.986" x2="0.67" y2="0.427" gradientUnits="objectBoundingBox">
      <stop offset="0" stop-color="#ffc444"/>
      <stop offset="1" stop-color="#f36f56"/>
    </linearGradient>
    <linearGradient id="linear-gradient-21" x1="-0.788" y1="1.049" x2="0.523" y2="0.49" xlink:href="#linear-gradient-20"/>
    <linearGradient id="linear-gradient-22" x1="-0.572" y1="10.266" x2="0.045" y2="4.833" xlink:href="#linear-gradient-20"/>
    <linearGradient id="linear-gradient-23" x1="0.546" y1="0.061" x2="0.39" y2="1.002" gradientUnits="objectBoundingBox">
      <stop offset="0" stop-color="#fcb148"/>
      <stop offset="0.05" stop-color="#fdba46"/>
      <stop offset="0.14" stop-color="#ffc244"/>
      <stop offset="0.32" stop-color="#ffc444"/>
      <stop offset="0.48" stop-color="#fdb946"/>
      <stop offset="0.78" stop-color="#f99c4d"/>
      <stop offset="0.87" stop-color="#f8924f"/>
      <stop offset="1" stop-color="#f8924f"/>
    </linearGradient>
    <linearGradient id="linear-gradient-24" x1="0" y1="0.5" x2="1" y2="0.5" xlink:href="#linear-gradient-20"/>
    <linearGradient id="linear-gradient-25" x1="0.881" y1="0.067" x2="0.433" y2="0.559" xlink:href="#linear-gradient"/>
    <linearGradient id="linear-gradient-27" x1="0.473" y1="0.366" x2="1.052" y2="2.183" xlink:href="#linear-gradient"/>
    <linearGradient id="linear-gradient-28" x1="-0.012" y1="0.026" x2="1.499" y2="1.304" xlink:href="#linear-gradient-2"/>
    <linearGradient id="linear-gradient-29" x1="0.974" y1="-0.105" x2="0.276" y2="0.797" xlink:href="#linear-gradient-5"/>
    <linearGradient id="linear-gradient-30" x1="0.593" y1="-0.143" x2="0.053" y2="3.782" xlink:href="#linear-gradient-5"/>
    <linearGradient id="linear-gradient-31" x1="-22.511" y1="-27.185" x2="-23.304" y2="-25.248" xlink:href="#linear-gradient-5"/>
    <linearGradient id="linear-gradient-34" x1="0.473" y1="0.366" x2="1.052" y2="2.182" xlink:href="#linear-gradient"/>
    <linearGradient id="linear-gradient-35" x1="-0.012" y1="0.026" x2="1.499" y2="1.304" xlink:href="#linear-gradient-2"/>
    <linearGradient id="linear-gradient-37" x1="-20.767" y1="-16.975" x2="-21.56" y2="-15.04" xlink:href="#linear-gradient-5"/>
    <linearGradient id="linear-gradient-38" x1="8.365" y1="-2.306" x2="8.545" y2="2.731" gradientUnits="objectBoundingBox">
      <stop offset="0" stop-color="#311944"/>
      <stop offset="1" stop-color="#a03976"/>
    </linearGradient>
    <linearGradient id="linear-gradient-39" x1="30.23" y1="1.262" x2="30.108" y2="-4.954" xlink:href="#linear-gradient-20"/>
    <linearGradient id="linear-gradient-40" x1="12.948" y1="-1.417" x2="13.234" y2="1.534" xlink:href="#linear-gradient-38"/>
    <linearGradient id="linear-gradient-41" x1="21.553" y1="1.444" x2="21.467" y2="-2.936" xlink:href="#linear-gradient-20"/>
    <linearGradient id="linear-gradient-42" x1="4.565" y1="0.506" x2="5.566" y2="0.506" gradientUnits="objectBoundingBox">
      <stop offset="0" stop-color="#444b8c"/>
      <stop offset="1" stop-color="#3e4177"/>
    </linearGradient>
    <linearGradient id="linear-gradient-43" x1="4.822" y1="0.506" x2="5.896" y2="0.506" xlink:href="#linear-gradient-42"/>
    <linearGradient id="linear-gradient-44" x1="2.256" y1="0.507" x2="3.253" y2="0.507" xlink:href="#linear-gradient-42"/>
    <linearGradient id="linear-gradient-45" x1="0.549" y1="0.204" x2="0.293" y2="3.433" xlink:href="#linear-gradient-20"/>
    <linearGradient id="linear-gradient-46" x1="24.579" y1="9.511" x2="23.829" y2="7.836" xlink:href="#linear-gradient-42"/>
    <linearGradient id="linear-gradient-47" x1="0.44" y1="-0.008" x2="0.939" y2="4.489" xlink:href="#linear-gradient-20"/>
    <linearGradient id="linear-gradient-48" x1="0" y1="0.5" x2="1" y2="0.5" xlink:href="#linear-gradient-2"/>
    <linearGradient id="linear-gradient-49" x1="58.526" y1="-43.223" x2="59.406" y2="-43.223" xlink:href="#linear-gradient-20"/>
    <linearGradient id="linear-gradient-50" y1="0.5" x2="1" y2="0.5" gradientUnits="objectBoundingBox">
      <stop offset="0" stop-color="#444b8c"/>
      <stop offset="1" stop-color="#26264f"/>
    </linearGradient>
    <linearGradient id="linear-gradient-52" x1="-10.944" y1="2.397" x2="-11.447" y2="1.853" xlink:href="#linear-gradient-50"/>
    <linearGradient id="linear-gradient-53" x1="-12.415" y1="1.669" x2="-11.691" y2="2.437" xlink:href="#linear-gradient-50"/>
    <linearGradient id="linear-gradient-54" x1="-117.823" y1="-34.738" x2="-117.618" y2="-36.47" xlink:href="#linear-gradient-20"/>
    <linearGradient id="linear-gradient-55" x1="-0.526" y1="-0.018" x2="1.792" y2="1.129" xlink:href="#linear-gradient-42"/>
    <linearGradient id="linear-gradient-56" x1="-1.535" y1="-0.119" x2="2.33" y2="1.124" xlink:href="#linear-gradient-42"/>
  </defs>
  <g id="metrics-01" transform="translate(-56.209 -455.017)">
    <g id="Illustration" transform="translate(56.209 455.017)">
      <g id="Competitive_intelligence" data-name="Competitive intelligence">
        <path id="Trazado_131785" data-name="Trazado 131785" d="M553.635,475.1c-11.069,16.135,1.91,42.293-14.515,54.425-15.993,11.816-35.627-7.549-50.693,2.619-22.351,15.086-18.269,84.1,14.408,126.987,9.828,12.89,18.039,17.914,21.676,32.5,7.809,31.318-19.636,49.948-14.413,65.438,11.76,34.881,192.619,64.142,265.188-40.67,33.9-48.953,38.964-119.641,8.682-173.33C729.249,446.051,578.47,438.9,553.635,475.1Z" transform="translate(-424.498 -455.017)" fill="rgba(125,110,178,0.6)" opacity="0.3"/>
        <g id="Grupo_56102" data-name="Grupo 56102" transform="translate(1.204 185.802)">
          <path id="Trazado_131786" data-name="Trazado 131786" d="M210.961,2100.683a13.95,13.95,0,0,0,3.059-5.827c.454-7.444,2.206-21.325-2.654-27.531-.835-1.06-6.479,1.333-7.877.8-3.972.652-5.31,1.123-9.39-.112-12.045-3.648-7.9-29.024-28.679-22.551-15.221,4.741-22.8,16.365-34.9-3.988S78.53,1996.387,67.4,2024.131c-6.389,15.922,16.991,24.167,19.366,40.54,2.258,15.559,13.761,21.692,30.867,20.126s14.233,8.324,18.274,21.8c4.853,16.186,26.8,4.457,36.471-1.823C180.167,2099.717,203.409,2092.095,210.961,2100.683Z" transform="translate(-66.299 -2011.755)" fill="url(#linear-gradient)"/>
          <g id="Grupo_56101" data-name="Grupo 56101" clip-path="url(#clip-path)">
            <path id="Trazado_131787" data-name="Trazado 131787" d="M208.365,2103.119a139.13,139.13,0,0,1-60.824-14.134c-24.42-11.841-46.19-30.708-62.971-54.564l.331-.232c16.736,23.8,38.458,42.622,62.816,54.432a137.7,137.7,0,0,0,81.222,12.526l.062.4A136.154,136.154,0,0,1,208.365,2103.119Z" transform="translate(-82.389 -2031.512)" fill="#fcfdfe"/>
            <path id="Trazado_131788" data-name="Trazado 131788" d="M657.731,2634.658l-.321-.239c9.2-12.142,29.027-26.026,44.2-30.949l.119.384C686.628,2608.75,666.887,2622.571,657.731,2634.658Z" transform="translate(-586.859 -2532.847)" fill="#fcfdfe"/>
            <path id="Trazado_131789" data-name="Trazado 131789" d="M954.533,2306.307c-8.3-1.074-15.731-6.29-22.08-15.5-4.63-6.717-8.593-15.369-11.773-25.717l.385-.119c3.17,10.307,7.112,18.924,11.719,25.606,6.28,9.111,13.615,14.27,21.8,15.33Z" transform="translate(-818.707 -2234.748)" fill="#fcfdfe"/>
            <path id="Trazado_131790" data-name="Trazado 131790" d="M248.415,2480.439l-.215-.341c9.834-6.159,24.775-12.91,40.117-10.118l-.073.4C273.03,2467.6,258.188,2474.319,248.415,2480.439Z" transform="translate(-226.489 -2414.718)" fill="#fcfdfe"/>
            <path id="Trazado_131791" data-name="Trazado 131791" d="M252.817,2001.177c-4.761-5.907-12.507-19.239-10.91-42.057l.4.029c-1.587,22.677,6.1,35.909,10.822,41.774Z" transform="translate(-220.76 -1965.402)" fill="#fcfdfe"/>
          </g>
        </g>
        <g id="Grupo_56104" data-name="Grupo 56104" transform="translate(0 107.07)">
          <path id="Trazado_131793" data-name="Trazado 131793" d="M190.547,1536.075q13.018-9.548,25.737-19.705c.205.052-4.985-21.442-18.829-26.666-27.2-9.906-22-34.916-22.813-47.61-.517-18.231-10.31-32.953-25.958-24.736-17.5,8.78-32.315-17.753-39.821-45.136-2.769-13.845-21.006-22.537-34.374-19.524-13.769,2.774-22.66,17.257-16.047,44.249,6.336,31.974,34.882,37.8,48.781,48,13.664,10,.349,31.346,20.121,36.035,16.879,4.543,35.64,4.2,35.822,21.344C163.125,1519.389,169.223,1530.007,190.547,1536.075Z" transform="translate(-56.209 -1352.101)" fill="url(#linear-gradient-2)"/>
          <g id="Grupo_56103" data-name="Grupo 56103" clip-path="url(#clip-path-2)">
            <path id="Trazado_131794" data-name="Trazado 131794" d="M337.94,1469.9c-.144-.253-25.994-36.9-58.112-69.344-4.842-5.454-9.871-10.848-14.733-16.063-13.044-13.985-26.533-28.454-36.791-44.615-11.489-18.1-17.736-36.633-19.1-56.662l.8-.055c1.358,19.891,7.567,38.3,18.977,56.285,10.218,16.1,23.681,30.538,36.7,44.5,4.866,5.218,9.9,10.615,14.732,16.063,31.108,31.419,57.935,68.738,58.261,69.563l-.375.148Z" transform="translate(-190.94 -1291.388)" fill="#fff"/>
            <path id="Trazado_131795" data-name="Trazado 131795" d="M84.39,1719.866c-15-5.721-34.091-15.046-44.347-20.051-4.3-2.1-7.691-3.757-8.116-3.842a.35.35,0,0,0,.26-.072l-.477-.647c.319-.239.329-.248,8.69,3.836,10.244,5,29.313,14.322,44.28,20.027Z" transform="translate(-34.634 -1654.223)" fill="#fff"/>
            <path id="Trazado_131796" data-name="Trazado 131796" d="M374.928,1444.778c-5.679-24.768,4.177-42.8,6.923-45.943.166-.19.325-.341.553-.325l-.074.8a.337.337,0,0,0,.239-.057c-.3.239-3.588,4.6-6.07,12.856a63.4,63.4,0,0,0-.783,32.486Z" transform="translate(-335.361 -1392.97)" fill="#fff"/>
            <path id="Trazado_131797" data-name="Trazado 131797" d="M909.106,1910.391c-6.506-11.377-9.061-26.019-7.593-43.5a141.158,141.158,0,0,1,5.471-28.253c.138-.465.258-.868.272-.955l.8.109a11.1,11.1,0,0,1-.3,1.074,140.324,140.324,0,0,0-5.441,28.1c-1.457,17.319,1.066,31.8,7.494,43.032Z" transform="translate(-800.268 -1779.724)" fill="#fff"/>
            <path id="Trazado_131798" data-name="Trazado 131798" d="M535.657,2315.848l-.437-.219.093-.477a54.555,54.555,0,0,1,14.472-4.515c7.568-1.324,18.6-1.626,28.191,4.456l-.432.681c-18.032-11.438-41.535-.106-41.747.019l-.2-.346-.014.006Z" transform="translate(-478.048 -2195.541)" fill="#fff"/>
            <path id="Trazado_131799" data-name="Trazado 131799" d="M1233.234,2539.9c-2.411-5.234-4.257-15.361.63-33.882.11-.416.2-.775.215-.851l.358.05.389-.239c.1.171.1.171-.18,1.245-4.827,18.29-3.033,28.225-.678,33.339Z" transform="translate(-1090.602 -2367.38)" fill="#fff"/>
            <path id="Trazado_131800" data-name="Trazado 131800" d="M964.443,2669.3c-6.647-7.9-23.884-7.1-30.985-6.383-.31.031-.511.051-.584.054l-.024-.807c.067,0,.246-.02.526-.049,20.92-2.1,28.831,3.274,31.684,6.666Z" transform="translate(-828.22 -2505.343)" fill="#fff"/>
          </g>
        </g>
        <path id="Trazado_131802" data-name="Trazado 131802" d="M1442.037,583.214l-115.415-3.905a4.568,4.568,0,0,0-4.782,4.565V793.524a4.447,4.447,0,0,0,4.782,4.456l115.415-6.564a4.718,4.718,0,0,0,4.318-4.73V587.842A4.587,4.587,0,0,0,1442.037,583.214Z" transform="translate(-1170.782 -564.472)" fill="url(#linear-gradient-5)"/>
        <g id="Grupo_56105" data-name="Grupo 56105" transform="translate(151.061 14.837)" opacity="0.3">
          <path id="Trazado_131803" data-name="Trazado 131803" d="M1394.71,738.042c-1.962-23.972,12.763-33.867,7.148-55.584-6.942-26.846-33.637-28-42.729-54.323-3.484-10.087-4.86-25.335,5.112-47.535l-37.589-1.271a4.568,4.568,0,0,0-4.782,4.565V793.541a4.447,4.447,0,0,0,4.782,4.456l102.908-5.848C1403.379,771.873,1395.917,752.776,1394.71,738.042Z" transform="translate(-1321.87 -579.326)" fill="#d8dee8"/>
        </g>
        <path id="Trazado_131804" data-name="Trazado 131804" d="M1462.847,606.379l-115.415-3.773a1.879,1.879,0,0,0-1.962,1.876v209.4a1.828,1.828,0,0,0,1.962,1.831l115.415-6.43a1.941,1.941,0,0,0,1.776-1.944V608.282A1.886,1.886,0,0,0,1462.847,606.379Z" transform="translate(-1191.592 -584.989)" opacity="0.3" fill="url(#linear-gradient-6)"/>
        <path id="Trazado_131805" data-name="Trazado 131805" d="M1607.475,1962.428l-70.029,2.523a3.128,3.128,0,0,0-3,3.1h0a2.864,2.864,0,0,0,3,2.875l70.029-2.706a3,3,0,0,0,2.814-3h0A2.736,2.736,0,0,0,1607.475,1962.428Z" transform="translate(-1358.017 -1782.512)" opacity="0.6" fill="url(#linear-gradient-7)"/>
        <path id="Trazado_131806" data-name="Trazado 131806" d="M1607.475,2048.982l-70.03,2.835a3.146,3.146,0,0,0-3,3.113h0a2.844,2.844,0,0,0,3,2.865l70.03-3.01a3.012,3.012,0,0,0,2.814-3.018h0A2.717,2.717,0,0,0,1607.475,2048.982Z" transform="translate(-1358.016 -1858.734)" opacity="0.6" fill="url(#linear-gradient-8)"/>
        <path id="Trazado_131807" data-name="Trazado 131807" d="M1607.474,2135.49l-70.03,3.149a3.161,3.161,0,0,0-3,3.125h0a2.829,2.829,0,0,0,3,2.849l70.03-3.323a3.029,3.029,0,0,0,2.814-3.029h0A2.707,2.707,0,0,0,1607.474,2135.49Z" transform="translate(-1358.016 -1934.917)" opacity="0.6" fill="url(#linear-gradient-9)"/>
        <path id="Trazado_131808" data-name="Trazado 131808" d="M1571.131,697.1l-35.227-1a1.432,1.432,0,0,0-1.484,1.432h0a1.531,1.531,0,0,0,1.484,1.521l35.227.955a1.4,1.4,0,0,0,1.432-1.418h0A1.5,1.5,0,0,0,1571.131,697.1Z" transform="translate(-1357.99 -667.328)" opacity="0.6" fill="url(#linear-gradient-10)"/>
        <path id="Trazado_131809" data-name="Trazado 131809" d="M1571.131,741.2l-35.227-.92a1.432,1.432,0,0,0-1.484,1.442h0a1.528,1.528,0,0,0,1.484,1.517l35.227.874a1.4,1.4,0,0,0,1.432-1.42h0A1.494,1.494,0,0,0,1571.131,741.2Z" transform="translate(-1357.99 -706.235)" opacity="0.6" fill="url(#linear-gradient-11)"/>
        <path id="Trazado_131810" data-name="Trazado 131810" d="M1571.131,785.258l-35.227-.843a1.441,1.441,0,0,0-1.484,1.445h0a1.523,1.523,0,0,0,1.484,1.513l35.227.8a1.408,1.408,0,0,0,1.432-1.424h0A1.491,1.491,0,0,0,1571.131,785.258Z" transform="translate(-1357.99 -745.1)" opacity="0.6" fill="url(#linear-gradient-12)"/>
        <path id="Trazado_131811" data-name="Trazado 131811" d="M1417.855,758.577c-1.962-23.97,12.759-33.863,7.146-55.578-6.94-26.844-33.63-27.994-42.719-54.317-3.342-9.668-4.742-24.084,3.939-44.833l-36.41-1.193a1.877,1.877,0,0,0-1.961,1.875V813.914a1.828,1.828,0,0,0,1.961,1.831l99.76-5.558C1425.917,790.834,1419.012,772.7,1417.855,758.577Z" transform="translate(-1193.688 -585.033)" fill="#fff" opacity="0.35"/>
        <path id="Trazado_131812" data-name="Trazado 131812" d="M1106.146,900.356c0-20.085-17.1-36.366-38.193-36.366s-38.193,16.281-38.193,36.366a35.825,35.825,0,0,0,15.965,29.576,15,15,0,0,1,6.588,12.378v2.783a10.948,10.948,0,0,0,10.948,10.948h9.384a10.948,10.948,0,0,0,10.948-10.948V942.31a15,15,0,0,1,6.588-12.378A35.822,35.822,0,0,0,1106.146,900.356Z" transform="translate(-913.563 -815.178)" fill="#f4f7fa" opacity="0.75"/>
        <ellipse id="Elipse_4338" data-name="Elipse 4338" cx="8.472" cy="4.485" rx="8.472" ry="4.485" transform="translate(145.918 152.593)" fill="url(#linear-gradient-13)"/>
        <path id="Trazado_131813" data-name="Trazado 131813" d="M1255.45,1704v4.581a4.025,4.025,0,0,0,2.281,3.637,21.478,21.478,0,0,0,9.862,1.823,22.084,22.084,0,0,0,7.868-1.373,4.092,4.092,0,0,0,2.506-3.79v-2.539Z" transform="translate(-1112.316 -1554.929)" fill="url(#linear-gradient-14)"/>
        <path id="Trazado_131814" data-name="Trazado 131814" d="M1255.45,1708.008a4.44,4.44,0,0,0,1.186.828c2.178,1.04,16.449,3.361,19.891,2.067a4.605,4.605,0,0,0,1.2-.664,4.157,4.157,0,0,0,.239-1.367v-2.534L1255.45,1704Z" transform="translate(-1112.316 -1554.929)" opacity="0.3" fill="url(#linear-gradient-15)"/>
        <path id="Trazado_131815" data-name="Trazado 131815" d="M1246.321,1677.764a2.148,2.148,0,0,0-2.371,2.136v.13a4.515,4.515,0,0,0,2.559,4.081c2.178,1.038,16.449,3.36,19.891,2.066a4.158,4.158,0,0,0,2.807-3.989v-.11a2.148,2.148,0,0,0-1.926-2.138Z" transform="translate(-1102.189 -1531.815)" fill="url(#linear-gradient-16)"/>
        <path id="Trazado_131816" data-name="Trazado 131816" d="M1269.967,1679.948l-20.96-2.182a2.148,2.148,0,0,0-2.007.945,4.479,4.479,0,0,0,2.195,2.3c2.178,1.04,17.057,3.664,19.891,2.329a4.923,4.923,0,0,0,2.432-2.465A2.148,2.148,0,0,0,1269.967,1679.948Z" transform="translate(-1104.875 -1531.817)" opacity="0.3" fill="url(#linear-gradient-17)"/>
        <path id="Trazado_131817" data-name="Trazado 131817" d="M1245.552,1615.626a1.552,1.552,0,0,0-1.552,1.552v3.581a4.515,4.515,0,0,0,2.559,4.081c2.178,1.038,17.057,3.663,19.891,2.327a4.739,4.739,0,0,0,2.807-4.25v-5.745a1.552,1.552,0,0,0-1.552-1.552Z" transform="translate(-1102.233 -1477.098)" fill="url(#linear-gradient-18)"/>
        <ellipse id="Elipse_4339" data-name="Elipse 4339" cx="12.316" cy="2.912" rx="12.316" ry="2.912" transform="translate(142.074 136.733)" fill="url(#linear-gradient-19)"/>
        <path id="Trazado_131818" data-name="Trazado 131818" d="M1106.146,900.356c0-20.085-17.1-36.366-38.193-36.366s-38.193,16.281-38.193,36.366a35.825,35.825,0,0,0,15.965,29.576,15,15,0,0,1,6.588,12.378v2.783a10.948,10.948,0,0,0,10.948,10.948h9.384a10.948,10.948,0,0,0,10.948-10.948V942.31a15,15,0,0,1,6.588-12.378A35.822,35.822,0,0,0,1106.146,900.356Z" transform="translate(-913.563 -815.178)" fill="#fff"/>
        <ellipse id="Elipse_4340" data-name="Elipse 4340" cx="9.012" cy="2.13" rx="9.012" ry="2.13" transform="translate(145.377 135.218)" fill="#f4f7fa" opacity="0.5"/>
        <path id="Trazado_131819" data-name="Trazado 131819" d="M1277.342,1228.741a.52.52,0,0,1-.516-.455l-6.63-51.561a.522.522,0,0,1,1.034-.132l6.63,51.561a.521.521,0,0,1-.451.582A.409.409,0,0,1,1277.342,1228.741Z" transform="translate(-1125.302 -1090.09)" fill="url(#linear-gradient-20)"/>
        <path id="Trazado_131820" data-name="Trazado 131820" d="M1360.735,1228.778a.408.408,0,0,1-.067,0,.52.52,0,0,1-.45-.582l6.63-51.561a.522.522,0,0,1,1.034.133l-6.63,51.561a.522.522,0,0,1-.517.45Z" transform="translate(-1204.576 -1090.127)" fill="url(#linear-gradient-21)"/>
        <path id="Trazado_131821" data-name="Trazado 131821" d="M1293.487,1140.65a.519.519,0,0,1-.434-.239l-1.831-2.776a.082.082,0,0,0-.074-.042.08.08,0,0,0-.07.044l-1.208,2.029a1.124,1.124,0,0,1-1.91.047l-1.659-2.486a.082.082,0,0,0-.072-.042.092.092,0,0,0-.069.038l-1.457,2.107a1.126,1.126,0,0,1-.923.487h0a1.128,1.128,0,0,1-.925-.486l-2.1-3.009a.094.094,0,0,0-.074-.039.081.081,0,0,0-.07.045l-1.918,3.31a.521.521,0,1,1-.9-.523l1.918-3.31a1.123,1.123,0,0,1,1.9-.079l2.1,3.009a.086.086,0,0,0,.072.039h0a.082.082,0,0,0,.069-.038l1.457-2.107a1.123,1.123,0,0,1,1.864.019l1.658,2.486c.019.027.047.051.074.041a.08.08,0,0,0,.07-.043l1.209-2.023a1.123,1.123,0,0,1,1.91-.042l1.83,2.776a.52.52,0,0,1-.434.807Z" transform="translate(-1131.929 -1054.054)" fill="url(#linear-gradient-22)"/>
        <path id="Trazado_131822" data-name="Trazado 131822" d="M1068.7,972.675c.818-14.017,24.447-17.3,24.348-29.816-.063-7.709-9.453-13.436-11.458-14.581-14.775-8.45-32.959,1.313-36.715-5.6a6.448,6.448,0,0,1-.247-4.655,9.983,9.983,0,0,1,2.5-4.484,35.412,35.412,0,0,0-1.342,60.028,15,15,0,0,1,6.588,12.378v2.783a10.948,10.948,0,0,0,10.948,10.948h9.384a10.948,10.948,0,0,0,10.948-10.948V986.5a7.22,7.22,0,0,1-4.4,1.671C1073.6,988.124,1068.292,979.652,1068.7,972.675Z" transform="translate(-913.616 -858.814)" opacity="0.3" fill="url(#linear-gradient-23)"/>
        <ellipse id="Elipse_4341" data-name="Elipse 4341" cx="32.866" cy="31.696" rx="32.866" ry="31.696" transform="translate(122.135 54.901)" opacity="0.2" fill="url(#linear-gradient-24)"/>
        <path id="Trazado_131823" data-name="Trazado 131823" d="M998.023,1707.692l-89.543-3.031a3.544,3.544,0,0,0-3.711,3.544v162.656a3.452,3.452,0,0,0,3.711,3.461l89.543-5.092a3.66,3.66,0,0,0,3.35-3.67V1711.285A3.558,3.558,0,0,0,998.023,1707.692Z" transform="translate(-803.491 -1555.508)" fill="url(#linear-gradient-25)"/>
        <g id="Grupo_56106" data-name="Grupo 56106" transform="translate(101.279 149.15)" opacity="0.3">
          <path id="Trazado_131824" data-name="Trazado 131824" d="M961.284,1827.81c-1.523-18.6,9.906-26.275,5.545-43.125-5.385-20.83-26.1-21.722-33.152-42.147-2.7-7.825-3.77-19.656,3.966-36.88l-29.163-.987a3.544,3.544,0,0,0-3.711,3.544v162.655a3.452,3.452,0,0,0,3.711,3.461l79.842-4.535C968.008,1854.058,962.22,1839.242,961.284,1827.81Z" transform="translate(-904.77 -1704.667)" fill="#d8dee8"/>
        </g>
        <path id="Trazado_131825" data-name="Trazado 131825" d="M1014.165,1725.686l-89.543-2.927a1.457,1.457,0,0,0-1.523,1.46v162.463a1.419,1.419,0,0,0,1.523,1.42l89.543-4.989a1.5,1.5,0,0,0,1.377-1.507V1727.162A1.463,1.463,0,0,0,1014.165,1725.686Z" transform="translate(-819.633 -1571.448)" fill="url(#linear-gradient-6)"/>
        <path id="Trazado_131826" data-name="Trazado 131826" d="M1126.357,2777.78l-54.333,1.957a2.428,2.428,0,0,0-2.324,2.405h0a2.219,2.219,0,0,0,2.324,2.231l54.333-2.095a2.322,2.322,0,0,0,2.184-2.331h0A2.122,2.122,0,0,0,1126.357,2777.78Z" transform="translate(-948.736 -2500.548)" fill="#d8dee8"/>
        <path id="Trazado_131827" data-name="Trazado 131827" d="M1126.357,2844.917l-54.333,2.2a2.442,2.442,0,0,0-2.324,2.415h0a2.207,2.207,0,0,0,2.324,2.221l54.333-2.337a2.334,2.334,0,0,0,2.184-2.341h0A2.111,2.111,0,0,0,1126.357,2844.917Z" transform="translate(-948.736 -2559.672)" fill="#d8dee8"/>
        <path id="Trazado_131828" data-name="Trazado 131828" d="M1126.356,2912.054l-54.333,2.442a2.455,2.455,0,0,0-2.324,2.425h0a2.195,2.195,0,0,0,2.324,2.21l54.333-2.578a2.348,2.348,0,0,0,2.184-2.351h0A2.1,2.1,0,0,0,1126.356,2912.054Z" transform="translate(-948.736 -2618.796)" fill="#d8dee8"/>
        <path id="Trazado_131829" data-name="Trazado 131829" d="M1098.182,1796.078l-27.332-.773a1.11,1.11,0,0,0-1.151,1.115h0a1.194,1.194,0,0,0,1.151,1.18l27.332.74a1.087,1.087,0,0,0,1.115-1.1h0a1.161,1.161,0,0,0-1.115-1.161Z" transform="translate(-948.736 -1635.336)" fill="#d8dee8"/>
        <path id="Trazado_131830" data-name="Trazado 131830" d="M1098.182,1830.252l-27.332-.716a1.115,1.115,0,0,0-1.151,1.118h0a1.184,1.184,0,0,0,1.151,1.177l27.332.68a1.088,1.088,0,0,0,1.115-1.1h0A1.16,1.16,0,0,0,1098.182,1830.252Z" transform="translate(-948.736 -1665.481)" fill="#d8dee8"/>
        <path id="Trazado_131831" data-name="Trazado 131831" d="M1098.182,1864.47l-27.332-.654a1.117,1.117,0,0,0-1.151,1.121h0a1.182,1.182,0,0,0,1.151,1.174l27.332.619a1.091,1.091,0,0,0,1.115-1.1h0a1.155,1.155,0,0,0-1.115-1.156Z" transform="translate(-948.736 -1695.671)" fill="#d8dee8"/>
        <path id="Trazado_131832" data-name="Trazado 131832" d="M1104.506,2063.776a11.7,11.7,0,0,1,8.987-6.186l.271-16.59a28.063,28.063,0,0,0-24.925,16.93Z" transform="translate(-965.592 -1851.707)" fill="#f5ca56"/>
        <path id="Trazado_131833" data-name="Trazado 131833" d="M1218.957,2295a11.743,11.743,0,0,1-11.4,9.794,11.468,11.468,0,0,1-4.761-.98L1194.1,2318.1a27.519,27.519,0,0,0,13.453,3.212,28.236,28.236,0,0,0,27.417-25.709Z" transform="translate(-1058.289 -2075.391)" fill="url(#linear-gradient-27)"/>
        <path id="Trazado_131834" data-name="Trazado 131834" d="M1081.114,2239.841l8.713-14.3a11.8,11.8,0,0,1-4.305-9.147,11.98,11.98,0,0,1,.285-2.6l-15.685-5.821a28.674,28.674,0,0,0-1.272,8.474A28.286,28.286,0,0,0,1081.114,2239.841Z" transform="translate(-947.987 -1998.749)" fill="url(#linear-gradient-28)"/>
        <path id="Trazado_131835" data-name="Trazado 131835" d="M1321.42,1977.117a11.709,11.709,0,0,1,9.787,10.542l26.5,1.047v-.035a39.053,39.053,0,0,0-35.835-39.122Z" transform="translate(-1170.413 -1771.172)" fill="url(#linear-gradient-29)"/>
        <path id="Trazado_131836" data-name="Trazado 131836" d="M979.244,1843.788c-1.522-18.6,9.906-26.272,5.544-43.12-5.384-20.826-26.091-21.722-33.143-42.141-2.59-7.5-3.678-18.686,3.057-34.784l-28.249-.922a1.457,1.457,0,0,0-1.523,1.452v162.451a1.418,1.418,0,0,0,1.522,1.42l77.4-4.312C985.5,1868.815,980.14,1854.745,979.244,1843.788Z" transform="translate(-821.245 -1571.501)" fill="#fff" opacity="0.35"/>
        <path id="Trazado_131837" data-name="Trazado 131837" d="M796.241,1948.99l-43.336-.431a1.772,1.772,0,0,1-1.775-1.744v-16.483a1.7,1.7,0,0,1,1.775-1.684l37.726.9a1.727,1.727,0,0,1,1.679,1.718v14.166Z" transform="translate(-668.189 -1752.764)" fill="url(#linear-gradient-30)"/>
        <path id="Trazado_131838" data-name="Trazado 131838" d="M833.409,1967.395l-28.7-.56v-1.975l28.7.6Z" transform="translate(-715.374 -1784.655)" fill="#fff" opacity="0.67"/>
        <path id="Trazado_131839" data-name="Trazado 131839" d="M833.409,2000.426l-28.7-.48v-1.976l28.7.52Z" transform="translate(-715.374 -1813.813)" fill="#fff" opacity="0.67"/>
        <path id="Trazado_131840" data-name="Trazado 131840" d="M833.409,2033.458l-28.7-.4v-1.976l28.7.44Z" transform="translate(-715.374 -1842.971)" fill="#fff" opacity="0.67"/>
        <path id="Trazado_131841" data-name="Trazado 131841" d="M1279.7,2541.236l38.717-.835a1.809,1.809,0,0,1,1.825,1.849v18.022a1.933,1.933,0,0,1-1.825,1.949l-40.807,1.376a1.849,1.849,0,0,1-1.91-1.87V2538.17Z" transform="translate(-1130.148 -2289.538)" opacity="0.3" fill="url(#linear-gradient-31)"/>
        <path id="Trazado_131842" data-name="Trazado 131842" d="M1333.41,2684.878l31.044-.928v2.178l-31.044.967Z" transform="translate(-1180.972 -2417.919)" fill="#fff" opacity="0.67"/>
        <path id="Trazado_131843" data-name="Trazado 131843" d="M1333.41,2648.293l31.044-.853v2.179l-31.044.891Z" transform="translate(-1180.972 -2385.766)" fill="#fff" opacity="0.67"/>
        <path id="Trazado_131844" data-name="Trazado 131844" d="M1333.41,2611.707l31.044-.777v2.179l-31.044.814Z" transform="translate(-1180.972 -2353.614)" fill="#fff" opacity="0.67"/>
        <path id="Trazado_131845" data-name="Trazado 131845" d="M1918.738,883.831l-120.331-4.072a4.767,4.767,0,0,0-4.987,4.761V1103.1a4.636,4.636,0,0,0,4.987,4.646l120.331-6.843a4.919,4.919,0,0,0,4.5-4.932V888.659A4.783,4.783,0,0,0,1918.738,883.831Z" transform="translate(-1586.078 -829.061)" fill="url(#linear-gradient-25)"/>
        <g id="Grupo_56107" data-name="Grupo 56107" transform="translate(207.342 50.694)" opacity="0.3">
          <path id="Trazado_131846" data-name="Trazado 131846" d="M1869.366,1045.238c-2.047-24.993,13.306-35.31,7.451-57.953-7.236-27.99-35.071-29.19-44.55-56.638-3.632-10.516-5.067-26.415,5.33-49.563l-39.191-1.326a4.767,4.767,0,0,0-4.987,4.761V1103.1a4.636,4.636,0,0,0,4.987,4.646l107.3-6.1C1878.4,1080.512,1870.623,1060.605,1869.366,1045.238Z" transform="translate(-1793.42 -879.755)" fill="#d8dee8"/>
        </g>
        <path id="Trazado_131847" data-name="Trazado 131847" d="M1940.427,907.924,1820.1,903.985a1.959,1.959,0,0,0-2.047,1.955v218.338a1.91,1.91,0,0,0,2.047,1.91l120.331-6.7a2.023,2.023,0,0,0,1.851-2.029V909.911A1.973,1.973,0,0,0,1940.427,907.924Z" transform="translate(-1607.768 -850.397)" fill="url(#linear-gradient-6)"/>
        <path id="Trazado_131848" data-name="Trazado 131848" d="M2091.218,2321.836l-73.015,2.626a3.261,3.261,0,0,0-3.124,3.231h0a2.984,2.984,0,0,0,3.124,3l73.015-2.808a3.12,3.12,0,0,0,2.935-3.132h0A2.855,2.855,0,0,0,2091.218,2321.836Z" transform="translate(-1781.281 -2099.023)" fill="#d8dee8"/>
        <path id="Trazado_131849" data-name="Trazado 131849" d="M2091.217,2412.052l-73.014,2.956a3.28,3.28,0,0,0-3.124,3.245h0a2.965,2.965,0,0,0,3.124,2.984l73.014-3.139a3.139,3.139,0,0,0,2.935-3.146h0A2.84,2.84,0,0,0,2091.217,2412.052Z" transform="translate(-1781.281 -2178.471)" fill="#d8dee8"/>
        <path id="Trazado_131850" data-name="Trazado 131850" d="M2091.217,2502.278l-73.015,3.282a3.3,3.3,0,0,0-3.123,3.258h0a2.948,2.948,0,0,0,3.123,2.969l73.015-3.459a3.154,3.154,0,0,0,2.935-3.158h0A2.826,2.826,0,0,0,2091.217,2502.278Z" transform="translate(-1781.281 -2257.927)" fill="#d8dee8"/>
        <path id="Trazado_131851" data-name="Trazado 131851" d="M2053.282,1002.581l-36.731-1.04a1.493,1.493,0,0,0-1.552,1.5h0a1.6,1.6,0,0,0,1.552,1.585l36.729,1a1.461,1.461,0,0,0,1.5-1.479h0a1.562,1.562,0,0,0-1.5-1.561Z" transform="translate(-1781.211 -936.311)" fill="#d8dee8"/>
        <path id="Trazado_131852" data-name="Trazado 131852" d="M2053.3,1048.568l-36.729-.955a1.5,1.5,0,0,0-1.552,1.5h0a1.593,1.593,0,0,0,1.552,1.581l36.729.913a1.463,1.463,0,0,0,1.5-1.481h0a1.551,1.551,0,0,0-1.5-1.562Z" transform="translate(-1781.229 -976.884)" fill="#d8dee8"/>
        <path id="Trazado_131853" data-name="Trazado 131853" d="M2053.283,1094.495l-36.731-.881a1.5,1.5,0,0,0-1.552,1.506h0a1.588,1.588,0,0,0,1.552,1.578l36.729.836a1.468,1.468,0,0,0,1.5-1.485h0A1.551,1.551,0,0,0,2053.283,1094.495Z" transform="translate(-1781.211 -1017.394)" fill="#d8dee8"/>
        <path id="Trazado_131854" data-name="Trazado 131854" d="M2061.834,1362.345a15.728,15.728,0,0,1,12.076-8.313l.365-22.292a37.721,37.721,0,0,0-33.5,22.752Z" transform="translate(-1803.914 -1227.1)" fill="#f5ca56"/>
        <path id="Trazado_131855" data-name="Trazado 131855" d="M2215.635,1673.1a15.782,15.782,0,0,1-15.325,13.161,15.405,15.405,0,0,1-6.4-1.313l-11.681,19.2a36.97,36.97,0,0,0,18.08,4.316,37.942,37.942,0,0,0,36.843-34.548Z" transform="translate(-1928.482 -1527.717)" fill="url(#linear-gradient-34)"/>
        <path id="Trazado_131856" data-name="Trazado 131856" d="M2030.436,1598.836l11.715-19.216a15.853,15.853,0,0,1-5.786-12.293,16.136,16.136,0,0,1,.382-3.5l-21.077-7.83a38.55,38.55,0,0,0-1.709,11.384A38.026,38.026,0,0,0,2030.436,1598.836Z" transform="translate(-1780.296 -1424.594)" fill="url(#linear-gradient-35)"/>
        <path id="Trazado_131857" data-name="Trazado 131857" d="M2353.33,1245.875a15.729,15.729,0,0,1,13.149,14.167l35.613,1.408v-.048c0-27.6-21.074-50.536-48.157-52.573Z" transform="translate(-2079.161 -1118.859)" fill="url(#linear-gradient-29)"/>
        <path id="Trazado_131858" data-name="Trazado 131858" d="M1893.458,1066.7c-2.046-24.99,13.3-35.306,7.451-57.947-7.236-27.987-35.064-29.187-44.54-56.631-3.482-10.082-4.944-25.112,4.108-46.744l-37.962-1.241a1.959,1.959,0,0,0-2.046,1.955v218.3a1.91,1.91,0,0,0,2.046,1.91l104.017-5.8C1901.868,1100.335,1894.668,1081.423,1893.458,1066.7Z" transform="translate(-1609.899 -850.53)" fill="#fff" opacity="0.35"/>
        <path id="Trazado_131859" data-name="Trazado 131859" d="M2297.236,2003.952l52.03-1.118a2.43,2.43,0,0,1,2.452,2.484v24.229a2.6,2.6,0,0,1-2.452,2.62l-54.838,1.849a2.482,2.482,0,0,1-2.57-2.514V1999.83Z" transform="translate(-2025.026 -1815.451)" opacity="0.3" fill="url(#linear-gradient-37)"/>
        <path id="Trazado_131860" data-name="Trazado 131860" d="M2369.45,2196.987l41.718-1.247v2.928l-41.718,1.3Z" transform="translate(-2093.356 -1987.979)" fill="#fff" opacity="0.67"/>
        <path id="Trazado_131861" data-name="Trazado 131861" d="M2369.45,2147.826l41.718-1.146v2.928l-41.718,1.2Z" transform="translate(-2093.356 -1944.774)" fill="#fff" opacity="0.67"/>
        <path id="Trazado_131862" data-name="Trazado 131862" d="M2369.45,2098.656l41.718-1.046v2.929l-41.718,1.094Z" transform="translate(-2093.356 -1901.561)" fill="#fff" opacity="0.67"/>
        <path id="Trazado_131863" data-name="Trazado 131863" d="M2274.41,3158.389s-8.521,3.9-8.658,4.516,5.484-.22,7.781-.136,4.185-.6,3.975-1.572-1.021-3.417-1.021-3.417Z" transform="translate(-2002.033 -2835.196)" fill="url(#linear-gradient-38)"/>
        <path id="Trazado_131864" data-name="Trazado 131864" d="M2335.63,3133.086l.529,3.84a3.01,3.01,0,0,0,2.257-.093l.377-4.213Z" transform="translate(-2063.573 -2813.038)" fill="url(#linear-gradient-39)"/>
        <path id="Trazado_131865" data-name="Trazado 131865" d="M2626.908,3136.49l1,1.591a1.9,1.9,0,0,1,.231,1.488c-.344,1.326-1.031,3.909-1.332,4.582-.408.918-5.927,1.476-5.927,1.476s-.494-.692.649-1.531,1.881-.973,2.282-2.208a32.417,32.417,0,0,0,.664-4.729Z" transform="translate(-2314.681 -2816.447)" fill="url(#linear-gradient-40)"/>
        <path id="Trazado_131866" data-name="Trazado 131866" d="M2637.52,3099.181a52.613,52.613,0,0,1,2.148,5.666s.575.732,1.664-.358.492-.487.492-.487l-.217-5.292Z" transform="translate(-2329.431 -2783.175)" fill="url(#linear-gradient-41)"/>
        <path id="Trazado_131867" data-name="Trazado 131867" d="M2292.656,2450.525c-.423,11.458-.412,23.9.279,37.2.778,14.972,2.3,28.806,4.213,41.346q1.048.032,2.2,0c.518-.015,1.019-.043,1.505-.077a95.011,95.011,0,0,0,3.135-10.115,97.282,97.282,0,0,0,2.179-11.841c1.611-12.978-.317-14.106.993-23.726,1.16-8.518,2.838-8.855,4.78-20.951,2.107-13.129.511-15.09-.265-15.8C2308.373,2443.541,2300.636,2445.621,2292.656,2450.525Z" transform="translate(-2025.477 -2207.624)" fill="url(#linear-gradient-42)"/>
        <path id="Trazado_131868" data-name="Trazado 131868" d="M2321.917,2446.573c-3.151-2.88-10.335-1.115-17.917,3.311,8.757,9.416,9.724,15.535,8.687,19.51-1.172,4.492-4.767,5.793-4.742,10.7.031,6.033,5.479,7.618,5.379,14-.067,4.222-2.458,4.183-3.011,9.4-.654,6.171,2.477,8.288,1.475,12.854-.431,1.965-1.671,4.535-5.2,7.185.26,1.874.526,3.729.8,5.548q1.048.032,2.2,0c.518-.015,1.019-.043,1.5-.077a95.013,95.013,0,0,0,3.135-10.115,97.329,97.329,0,0,0,2.179-11.841c1.611-12.979-.317-14.106.993-23.726,1.16-8.518,2.838-8.856,4.78-20.951C2324.29,2449.246,2322.693,2447.281,2321.917,2446.573Z" transform="translate(-2035.718 -2207.636)" opacity="0.3" fill="url(#linear-gradient-43)"/>
        <path id="Trazado_131869" data-name="Trazado 131869" d="M2340.08,2441.1a257.256,257.256,0,0,1,35.448,75.395,4.578,4.578,0,0,0,2.518.384,4.691,4.691,0,0,0,2.849-1.552,74.136,74.136,0,0,0,.61-18.27,63.056,63.056,0,0,0-2.6-13.726c-2.092-6.692-3.521-7.066-6.247-14.145-2.829-7.347-2.148-9.184-4.867-18.38a121.333,121.333,0,0,0-6.051-16.122Z" transform="translate(-2067.492 -2198.409)" fill="url(#linear-gradient-44)"/>
        <path id="Trazado_131870" data-name="Trazado 131870" d="M2083.2,2062.178c.072,2.673,4.465,5.028,8,5.75,8.271,1.689,17.861-4.322,22.413-10.971.894-1.3,1.887-2.888,2.126-2.765.542.277-4.431,8.448-6.587,17.741-1.1,4.754-.814,6.98-2.876,10.145-.468.716-1.043,1.463-.836,2.312.506,2.123,5.364,2.676,8.734,3.058a77.628,77.628,0,0,0,10.155.317c5.252-.078,5.665-.35,6.863.239,3.652,1.79,3.4,6.087,6.153,6.659,2.308.478,4.655-2.1,5.391-2.913,3.859-4.247,3.652-9.368,4.336-14.532,1.591-12.008,8.116-25.165,14.5-33.493,1.936-2.525,3.282-3.854,3.366-6.206.247-6.891-10.67-14.5-19.759-15.372a68.267,68.267,0,0,0-11.135.23c-1.671.156-3.452.389-5.364.723-4.639.812-7.868,1.376-11.159,2.882-13.27,6.072-10.374,19.587-24.737,28.932C2087.844,2058.132,2083.129,2059.379,2083.2,2062.178Z" transform="translate(-1841.274 -1834.983)" fill="#26aab7"/>
        <path id="Trazado_131871" data-name="Trazado 131871" d="M2479.671,1963.29a19.745,19.745,0,0,0,1.881,5.445c1.186,2.047,6.087,2.78,7.11,3.137s-1.541,2.135-4.266,2.78-10.7,1.067-12.255.209,1.013-1.121,2.888-2.105,2.506-4.993,1.922-6.7S2479.671,1963.29,2479.671,1963.29Z" transform="translate(-2183.367 -1783.272)" fill="url(#linear-gradient-45)"/>
        <path id="Trazado_131872" data-name="Trazado 131872" d="M2480.722,1909.952c-1.978-1.413-2.526-5.235-1.432-6.087.314-.246.614-.134,5.076,1.657,2.217.889,3.306,1.363,3.665,2.342a3.105,3.105,0,0,1-.059,2.04,7.812,7.812,0,0,1-.908,1.512c-.477.69-.446.666-.6.866a11.146,11.146,0,0,1-2.282,2.233,7.548,7.548,0,0,0-.358-1.264,6.671,6.671,0,0,0-.808-1.5A7.473,7.473,0,0,0,2480.722,1909.952Z" transform="translate(-2189.598 -1730.854)" fill="url(#linear-gradient-46)"/>
        <path id="Trazado_131873" data-name="Trazado 131873" d="M2497.5,1951.458a4.116,4.116,0,0,1-3.689,1.671c-2.148-.239-2.25-5.074-.835-6.037a2.715,2.715,0,0,1,2.135-.181c.436.142.576.333,1.292.551.661.2.853.137,1.048.316.239.223.4.752-.079,2.148a1.181,1.181,0,0,1,1.271-.358.74.74,0,0,1,.273.292C2499.2,1950.422,2498.663,1951.1,2497.5,1951.458Z" transform="translate(-2201.308 -1768.73)" fill="url(#linear-gradient-47)"/>
        <path id="Trazado_131874" data-name="Trazado 131874" d="M2104.4,2254.325c6-1.351,8.387-1.307,11.353-3.7,4.938-3.979,5.68-10.034,8.549-9.96,1.356.035,2.457,1.419,3.241,2.776l-2.167,3.393c0-.043-.012-.076-.037-.088-.239-.119-1.232,1.461-2.126,2.765-4.552,6.649-14.142,12.66-22.413,10.971a14.308,14.308,0,0,1-6.7-3.26A102.511,102.511,0,0,1,2104.4,2254.325Z" transform="translate(-1850.87 -2027.541)" opacity="0.3" fill="url(#linear-gradient-48)"/>
        <path id="Trazado_131875" data-name="Trazado 131875" d="M2035.486,2387.384a23.318,23.318,0,0,1-5.4-1.193c-2.016-.857-3.319.376-3.134,1.234s3.5,2.05,4.829,2.093S2035.486,2387.384,2035.486,2387.384Z" transform="translate(-1791.721 -2155.443)" fill="url(#linear-gradient-49)"/>
        <path id="Trazado_131876" data-name="Trazado 131876" d="M2583.037,2111.541c3.633.325,11.816.478,17.6-4.879,9.631-8.909,4.853-25.866,1.5-33.16-3.843-8.362-9.96-13.042-13.677-15.886-4.613-3.529-7.427-5.684-10.814-5.2-8.758,1.247-14.824,19.2-10.016,24.339,1.574,1.683,3.133.729,7.688,2.18,1.484.478,12.556,4,14.484,12.154,1.349,5.708-2.086,12.391-8.2,16.88Z" transform="translate(-2266.386 -1861.7)" fill="#26aab7"/>
        <path id="Trazado_131877" data-name="Trazado 131877" d="M2283.678,2235.432c4.114-2.6,4.723-5.234,9.329-7.014,5.984-2.313,8.86.625,11.827-1.747,3.53-2.823.4-7.74,3.047-16.274.448-1.449,3.854-12.451,11.669-13.852,3.645-.654,8.459.742,10.313,3.83,1.451,2.417.1,4.219,1.864,6.888s3.873,2.014,6.12,4.238c3.571,3.532,4.118,10.981.9,15.189-1.5,1.965-3.461,2.745-7.133,4.2a34.6,34.6,0,0,1-6.13,1.8c4.5-4.321,6.836-9.891,5.686-14.758-1.2-5.083-5.957-8.368-9.727-10.236-3.773,7.1-6.857,15.33-7.885,23.082-.684,5.164-.477,10.286-4.336,14.532-.742.818-3.083,3.394-5.391,2.914-2.745-.573-2.5-4.867-6.153-6.659-1.194-.588-1.613-.316-6.863-.239a77.621,77.621,0,0,1-10.154-.317c-3-.34-7.161-.818-8.407-2.412A21.881,21.881,0,0,0,2283.678,2235.432Z" transform="translate(-2007.757 -1988.548)" fill="#0d585f" opacity="0.3"/>
        <path id="Trazado_131878" data-name="Trazado 131878" d="M2065.332,2348.22l.424-1.245a3.692,3.692,0,0,0-2.478-4.725l-80.068-24.39-2.44,8.269,79.664,24.538A3.95,3.95,0,0,0,2065.332,2348.22Z" transform="translate(-1751.067 -2095.523)" fill="url(#linear-gradient-50)"/>
        <path id="Trazado_131879" data-name="Trazado 131879" d="M1323.973,1882.11c6.122-24.186,30.112-38.761,53.836-31.931,24.161,6.957,37.993,33.134,30.652,57.81-7.168,24.1-31.748,37.1-54.689,29.662C1331.23,1930.345,1317.991,1905.744,1323.973,1882.11Zm77.519,23.745c6.067-20.648-5.509-42.524-25.684-48.393-19.871-5.781-40.059,6.352-45.267,26.659-5.11,19.918,6.048,40.678,25.082,46.794,19.316,6.206,39.921-4.816,45.869-25.06Z" transform="translate(-1171.396 -1682.177)" fill="url(#linear-gradient-50)"/>
        <path id="Trazado_131880" data-name="Trazado 131880" d="M1983.219,2317.86l10.208,3.1a10.611,10.611,0,0,0,3.434,6.259c5.157,4.274,12.043-.388,21.649,4.625,4.821,2.515,3.9,4.115,8.423,5.871,7.47,2.9,10.89-1.119,17.5,1.523,6.684,2.671,7.346,8.444,11.139,8.235,1.622-.088,3.711-1.269,6.039-5.743l1.671.51a3.692,3.692,0,0,1,2.478,4.725l-.424,1.245a3.949,3.949,0,0,1-4.894,2.447l-79.664-24.538Z" transform="translate(-1751.076 -2095.523)" fill="#d8dee8" opacity="0.3"/>
        <path id="Trazado_131881" data-name="Trazado 131881" d="M1383.053,1994.924c19.98,6.43,41.312-4.957,47.48-25.906,6.3-21.386-5.69-44.042-26.591-50.111-20.574-5.975-41.457,6.6-46.836,27.618C1351.835,1967.125,1363.37,1988.591,1383.053,1994.924Z" transform="translate(-1200.716 -1742.876)" fill="#fff" opacity="0.56"/>
        <path id="Trazado_131882" data-name="Trazado 131882" d="M1310.98,1899.489c6.122-24.185,30.11-38.76,53.836-31.929,24.16,6.956,37.993,33.134,30.651,57.81-7.168,24.1-31.748,37.1-54.689,29.662C1318.237,1947.724,1305,1923.124,1310.98,1899.489Zm77.518,23.745c6.067-20.648-5.508-42.523-25.684-48.392-19.87-5.781-40.057,6.352-45.267,26.659-5.108,19.918,6.049,40.678,25.082,46.794C1361.946,1954.5,1382.552,1943.479,1388.5,1923.234Z" transform="translate(-1159.954 -1697.482)" fill="url(#linear-gradient-52)"/>
        <path id="Trazado_131883" data-name="Trazado 131883" d="M1330.912,1919.87c5.8-22.814,28.448-36.522,50.808-30.059,22.745,6.573,35.777,31.223,28.892,54.472-6.734,22.734-29.908,35.04-51.561,28.041C1337.74,1965.439,1325.235,1942.192,1330.912,1919.87Zm75.2,23.035c6.067-20.648-5.508-42.523-25.684-48.392-19.87-5.781-40.057,6.352-45.267,26.659-5.108,19.918,6.049,40.678,25.082,46.794,19.317,6.2,39.924-4.817,45.87-25.062Z" transform="translate(-1177.568 -1717.152)" fill="url(#linear-gradient-53)"/>
        <path id="Trazado_131884" data-name="Trazado 131884" d="M2646.6,2518.289l-.809-2.011a4.132,4.132,0,0,1-2.4-.7,3.133,3.133,0,0,0-1.943-.464c-.3.085-1.456.034-.144.66s1.3,1.09.754,1.6a9.5,9.5,0,0,1-3.375,1.671c-.75.052.6,1.21,1.361,1.358a4.655,4.655,0,0,0,3.525-.567C2644.118,2519.515,2646.6,2518.289,2646.6,2518.289Z" transform="translate(-2330.255 -2269.214)" fill="url(#linear-gradient-54)"/>
        <path id="Trazado_131885" data-name="Trazado 131885" d="M1974.267,691.813a2.9,2.9,0,0,0,2.611-5.15c-.068-.035-.138-.063-.208-.092a16.514,16.514,0,0,0,.551-2.373,2.086,2.086,0,0,0,.228-.008,3.023,3.023,0,0,0,2.657-3.076,2.56,2.56,0,0,0-2.77-2.592c-.079.007-.155.019-.233.032a15.271,15.271,0,0,0-.641-2.268,2.311,2.311,0,0,0,.2-.129,3.021,3.021,0,0,0,.916-3.959,2.561,2.561,0,0,0-3.727-.708c-.066.047-.127.1-.189.147a13.5,13.5,0,0,0-1.663-1.552,2.328,2.328,0,0,0,.119-.212c.722-1.423,1.671-2.976.341-3.622-3.062-1.494-4.377-.215-5.1,1.207-.037.074-.069.149-.1.224a13.481,13.481,0,0,0-2.234-.427c0-.079.008-.158.007-.239-.032-1.565.433-2.412-1.074-2.441-3.28-.063-4.386,1.359-4.355,2.925a2.239,2.239,0,0,0,.017.239,15.151,15.151,0,0,0-2.209.82c-.033-.07-.069-.14-.11-.208a2.56,2.56,0,0,0-3.727-.707,3.022,3.022,0,0,0-.916,3.96c.039.066.084.128.128.189a16.6,16.6,0,0,0-1.591,1.846,2,2,0,0,0-.2-.113,2.9,2.9,0,0,0-2.611,5.15c.068.035.137.063.206.091a16.865,16.865,0,0,0-.551,2.374,2.067,2.067,0,0,0-.227.008,3.021,3.021,0,0,0-2.657,3.076,2.56,2.56,0,0,0,2.77,2.592c.078-.007.155-.019.232-.033a15.192,15.192,0,0,0,.642,2.268c-.069.041-.139.082-.205.129a3.023,3.023,0,0,0-.916,3.96,3.748,3.748,0,0,0,4.63.989c.066-.047-.775-.378-.716-.428a13.488,13.488,0,0,0,1.663,1.552c-.042.069-.083.14-.119.214a2.677,2.677,0,1,0,4.76,2.415c.037-.073.069-.148.1-.223a13.39,13.39,0,0,0,2.234.426c0,.08-.008.159-.006.239a2.558,2.558,0,0,0,2.77,2.592,3.022,3.022,0,0,0,2.657-3.076c0-.082-.01-.162-.017-.239a15.262,15.262,0,0,0,2.208-.82c.035.07.069.14.11.206a2.56,2.56,0,0,0,3.727.708,3.023,3.023,0,0,0,.917-3.96c-.041-.066-.083-.128-.128-.189a16.7,16.7,0,0,0,1.59-1.846C1974.133,691.74,1974.2,691.778,1974.267,691.813Zm-16.374.208c-4.774-2.421-6.51-8.57-3.889-13.734s8.614-7.387,13.383-4.966,6.51,8.571,3.887,13.735-8.615,7.387-13.383,4.965Z" transform="translate(-1719.711 -639.562)" fill="url(#linear-gradient-55)"/>
        <path id="Trazado_131886" data-name="Trazado 131886" d="M2080.634,705.93a3.024,3.024,0,0,0,2.657-3.076,2.56,2.56,0,0,0-2.771-2.592c-.079.007-.155.019-.233.032a15.256,15.256,0,0,0-.641-2.268,2.3,2.3,0,0,0,.2-.129c1.282-.9,2.865-3.069,1.965-4.27-1.718-2.282-3.493-1.294-4.774-.4-.066.047-.126.1-.188.147a13.532,13.532,0,0,0-1.663-1.552,2.263,2.263,0,0,0,.119-.212,2.983,2.983,0,0,0,.167-2.354q-1.856,3.27-3.659,6.564c3.8,2.788,5.013,8.282,2.638,12.967a10.5,10.5,0,0,1-9.933,5.919c-.174.452-.346.907-.532,1.355-.507,1.216-1.084,2.407-1.66,3.6q.544.1,1.092.16c0,.08-.009.159-.006.239.031,1.566.981,2.9,3.7,2.745,1.5-.08,1.76-1.671,1.729-3.234,0-.082-.01-.162-.017-.239a15.268,15.268,0,0,0,2.208-.82c.034.07.069.14.11.206a3.906,3.906,0,0,0,4.753.938c1.282-.9.667-2.9-.108-4.19-.041-.067-.084-.128-.128-.189a16.71,16.71,0,0,0,1.59-1.846c.064.041.129.079.2.113a2.9,2.9,0,0,0,2.611-5.15c-.068-.035-.138-.063-.208-.092a16.5,16.5,0,0,0,.551-2.373A1.051,1.051,0,0,0,2080.634,705.93Z" transform="translate(-1822.892 -661.302)" fill="url(#linear-gradient-56)"/>
        <path id="Trazado_131887" data-name="Trazado 131887" d="M1986.1,691.973a2.9,2.9,0,0,0,2.613-5.15c-.068-.035-.137-.064-.206-.092a16.831,16.831,0,0,0,.551-2.374,2.067,2.067,0,0,0,.227-.008,3.021,3.021,0,0,0,2.657-3.076,2.559,2.559,0,0,0-2.77-2.592c-.078.007-.155.02-.231.033a15.32,15.32,0,0,0-.641-2.268c.068-.041.137-.082.2-.129a3.022,3.022,0,0,0,.915-3.96,2.558,2.558,0,0,0-3.727-.707c-.066.045-.128.1-.189.146a13.578,13.578,0,0,0-1.662-1.552c.042-.069.083-.14.119-.214a2.677,2.677,0,1,0-4.76-2.414c-.037.074-.069.148-.1.223a13.627,13.627,0,0,0-2.234-.426c0-.079.008-.159.006-.239a2.559,2.559,0,0,0-2.77-2.592,3.022,3.022,0,0,0-2.657,3.076c0,.082.01.162.017.239a15.469,15.469,0,0,0-2.208.82c-.035-.069-.069-.138-.11-.206a2.559,2.559,0,0,0-3.728-.707,3.021,3.021,0,0,0-.915,3.959c.039.067.082.129.127.19a16.589,16.589,0,0,0-1.59,1.845c-.064-.039-.129-.079-.2-.113a2.9,2.9,0,0,0-2.611,5.15c.068.035.138.064.208.092a16.5,16.5,0,0,0-.551,2.374,2.1,2.1,0,0,0-.228.008,3.023,3.023,0,0,0-2.657,3.076,2.558,2.558,0,0,0,2.77,2.591,1.545,1.545,0,0,0,.239-.032,15.206,15.206,0,0,0,.641,2.268c-.069.041-.137.082-.2.129a3.022,3.022,0,0,0-.916,3.96,2.559,2.559,0,0,0,3.727.707c.066-.047.128-.1.189-.146a13.483,13.483,0,0,0,1.663,1.552,2.329,2.329,0,0,0-.119.214,2.677,2.677,0,1,0,4.76,2.414c.037-.074.069-.148.1-.223a13.6,13.6,0,0,0,2.234.426c0,.079-.008.159-.007.239a2.56,2.56,0,0,0,2.77,2.592A3.022,3.022,0,0,0,1977.5,698a2.2,2.2,0,0,0-.017-.239,15.44,15.44,0,0,0,2.209-.82c.033.069.069.138.11.206a2.559,2.559,0,0,0,3.727.707,3.022,3.022,0,0,0,.915-3.96c-.039-.066-.084-.128-.128-.189a16.583,16.583,0,0,0,1.591-1.845A1.57,1.57,0,0,0,1986.1,691.973Zm-16.374.208c-4.774-2.422-6.51-8.571-3.887-13.734s8.614-7.388,13.382-4.966,6.51,8.571,3.889,13.734S1974.492,694.6,1969.722,692.181Z" transform="translate(-1730.13 -639.561)" fill="#26aab7"/>
      </g>
    </g>
  </g>
</svg>
