<svg xmlns="http://www.w3.org/2000/svg" width="81" height="81" viewBox="0 0 81 81">
  <g id="Grupo_56216" data-name="Grupo 56216" transform="translate(-659.75 -5093.199)">
    <g id="Grupo_56037" data-name="Grupo 56037" transform="translate(659.75 5093.199)">
      <g id="Grupo_55659" data-name="Grupo 55659">
        <circle id="Elipse_4085" data-name="Elipse 4085" cx="40.5" cy="40.5" r="40.5" fill="rgba(125,110,178,0.6)"/>
      </g>
    </g>
    <g id="chat" transform="translate(674 5106.603)">
      <g id="Grupo_56144" data-name="Grupo 56144" transform="translate(9.938 9.938)">
        <g id="Grupo_56143" data-name="Grupo 56143">
          <path id="Trazado_132675" data-name="Trazado 132675" d="M117.531,96H97.656a1.656,1.656,0,1,0,0,3.313h19.875a1.656,1.656,0,0,0,0-3.313Z" transform="translate(-96 -96)" fill="#3a277b"/>
        </g>
      </g>
      <g id="Grupo_56146" data-name="Grupo 56146" transform="translate(9.938 16.563)">
        <g id="Grupo_56145" data-name="Grupo 56145">
          <path id="Trazado_132676" data-name="Trazado 132676" d="M110.906,160H97.656a1.656,1.656,0,1,0,0,3.313h13.25a1.656,1.656,0,0,0,0-3.313Z" transform="translate(-96 -160)" fill="#3a277b"/>
        </g>
      </g>
      <g id="Grupo_56148" data-name="Grupo 56148">
        <g id="Grupo_56147" data-name="Grupo 56147">
          <path id="Trazado_132677" data-name="Trazado 132677" d="M36.438,0H6.625A6.632,6.632,0,0,0,0,6.625V39.75a1.655,1.655,0,0,0,.954,1.5,1.68,1.68,0,0,0,.7.156,1.656,1.656,0,0,0,1.06-.384l9.477-7.9H36.438A6.632,6.632,0,0,0,43.063,26.5V6.625A6.632,6.632,0,0,0,36.438,0ZM39.75,26.5a3.316,3.316,0,0,1-3.312,3.313H11.594a1.654,1.654,0,0,0-1.06.384L3.313,36.216V6.625A3.316,3.316,0,0,1,6.625,3.313H36.438A3.316,3.316,0,0,1,39.75,6.625Z" fill="#3a277b"/>
        </g>
      </g>
      <g id="Grupo_56150" data-name="Grupo 56150" transform="translate(13.25 13.25)">
        <g id="Grupo_56149" data-name="Grupo 56149">
          <path id="Trazado_132678" data-name="Trazado 132678" d="M161.125,128a1.656,1.656,0,0,0,0,3.313,3.316,3.316,0,0,1,3.313,3.313v28.02l-5.591-4.472a1.669,1.669,0,0,0-1.034-.361H134.625a3.316,3.316,0,0,1-3.312-3.312v-1.656a1.656,1.656,0,0,0-3.312,0V154.5a6.632,6.632,0,0,0,6.625,6.625h22.6l7.827,6.264a1.657,1.657,0,0,0,2.693-1.3V134.625A6.632,6.632,0,0,0,161.125,128Z" transform="translate(-128 -128)" fill="#3a277b"/>
        </g>
      </g>
    </g>
  </g>
</svg>
