<svg xmlns="http://www.w3.org/2000/svg" width="81" height="81" viewBox="0 0 81 81">
  <g id="Grupo_56215" data-name="Grupo 56215" transform="translate(-455.75 -5093.199)">
    <g id="Grupo_56035" data-name="Grupo 56035" transform="translate(455.75 5093.199)">
      <g id="Grupo_55846" data-name="Grupo 55846">
        <circle id="Elipse_4123" data-name="Elipse 4123" cx="40.5" cy="40.5" r="40.5" fill="#aee6e6"/>
      </g>
    </g>
    <g id="innovation" transform="translate(449.822 5102.603)">
      <path id="Trazado_132666" data-name="Trazado 132666" d="M125.243,38.006a21.2,21.2,0,0,0,.7-33.045.964.964,0,0,0-1.241,1.477,19.272,19.272,0,0,1-.64,30.04A5.22,5.22,0,0,0,122,40.636V42.6h-4.462V40.336a2,2,0,0,0-1.993-1.993h-.137V36.012h1.166a3.094,3.094,0,1,0-3.094-3.094v1.166h-2.332V32.917a3.095,3.095,0,1,0-3.094,3.094h1.166v2.332h-.137a2,2,0,0,0-1.993,1.993V42.6h-4.462V40.636a5.225,5.225,0,0,0-2.065-4.16A19.26,19.26,0,0,1,112.988,1.941a19.041,19.041,0,0,1,8.574,2.346.964.964,0,1,0,.926-1.692,21.177,21.177,0,0,0-31.37,18.371,20.986,20.986,0,0,0,2.2,9.651A21.39,21.39,0,0,0,99.389,38a3.31,3.31,0,0,1,1.313,2.633v2.122a3.094,3.094,0,0,0,0,5.88v8.885a4.055,4.055,0,0,0,4.05,4.05h.277a5.086,5.086,0,0,0,5.012,4.26h4.552a5.087,5.087,0,0,0,5.012-4.26h.277a4.055,4.055,0,0,0,4.05-4.05V48.638a3.094,3.094,0,0,0,0-5.88V40.636a3.305,3.305,0,0,1,1.31-2.63Zm-9.831-5.089a1.166,1.166,0,1,1,1.166,1.166h-1.166Zm-7.355,1.166a1.166,1.166,0,1,1,1.166-1.166v1.166Zm3.094,1.929h2.332v2.332h-2.332Zm-2.13,4.325a.064.064,0,0,1,.064-.064h6.463a.064.064,0,0,1,.064.064V42.6h-6.592ZM122,51.124H108.82a.964.964,0,0,0,0,1.929H122v2.332H102.631V53.053h2.332a.964.964,0,0,0,0-1.929h-2.332V48.793H122Zm-7.411,12.781h-4.552A3.156,3.156,0,0,1,107,61.574h10.637a3.156,3.156,0,0,1-3.042,2.332Zm5.289-4.26h-15.13a2.124,2.124,0,0,1-2.122-2.122v-.21H122v.21A2.124,2.124,0,0,1,119.883,59.645Zm3.086-12.781h-21.3a1.166,1.166,0,0,1,0-2.332h21.3a1.166,1.166,0,0,1,0,2.332Z" transform="translate(-64.964 0)" fill="#0d585f"/>
      <path id="Trazado_132667" data-name="Trazado 132667" d="M22.756,158.348a.964.964,0,0,0-.964-.964h-4.26a.964.964,0,0,0,0,1.929h4.26A.964.964,0,0,0,22.756,158.348Z" transform="translate(0 -137.147)" fill="#0d585f"/>
      <path id="Trazado_132668" data-name="Trazado 132668" d="M51.811,256.911l-3.69,2.13a.964.964,0,1,0,.964,1.67l3.69-2.13a.964.964,0,0,0-.964-1.67Z" transform="translate(-27.077 -223.764)" fill="#0d585f"/>
      <path id="Trazado_132669" data-name="Trazado 132669" d="M425.8,259.041l-3.69-2.13a.964.964,0,0,0-.964,1.67l3.69,2.13a.964.964,0,1,0,.964-1.67Z" transform="translate(-352.138 -223.763)" fill="#0d585f"/>
      <path id="Trazado_132670" data-name="Trazado 132670" d="M452.523,157.384h-4.26a.964.964,0,1,0,0,1.929h4.26a.964.964,0,1,0,0-1.929Z" transform="translate(-375.347 -137.147)" fill="#0d585f"/>
      <path id="Trazado_132671" data-name="Trazado 132671" d="M421.629,45.477a.96.96,0,0,0,.481-.129l3.69-2.13a.964.964,0,1,0-.964-1.67l-3.69,2.13a.964.964,0,0,0,.483,1.8Z" transform="translate(-352.138 -36.092)" fill="#0d585f"/>
      <path id="Trazado_132672" data-name="Trazado 132672" d="M48.121,43.216l3.69,2.13a.964.964,0,0,0,.964-1.67l-3.69-2.13a.964.964,0,1,0-.964,1.67Z" transform="translate(-27.077 -36.091)" fill="#0d585f"/>
      <path id="Trazado_132673" data-name="Trazado 132673" d="M235.028,99.4a3.095,3.095,0,1,0,3.094,3.095A3.1,3.1,0,0,0,235.028,99.4Zm0,4.26a1.166,1.166,0,1,1,1.166-1.166A1.167,1.167,0,0,1,235.028,103.661Z" transform="translate(-187.675 -86.62)" fill="#0d585f"/>
      <path id="Trazado_132674" data-name="Trazado 132674" d="M186.06,41.157l-.031-.075.689-1.148a2.027,2.027,0,0,0-.305-2.479l-1.836-1.837a2.027,2.027,0,0,0-2.479-.305L180.949,36l-.076-.031-.325-1.3a2.027,2.027,0,0,0-1.969-1.537h-2.6a2.027,2.027,0,0,0-1.969,1.537l-.325,1.3-.076.031-1.148-.689a2.027,2.027,0,0,0-2.479.305l-1.836,1.837a2.027,2.027,0,0,0-.305,2.479l.689,1.148-.031.075-1.3.325a2.026,2.026,0,0,0-1.537,1.969v2.6a2.027,2.027,0,0,0,1.537,1.969l1.3.325.031.075-.689,1.148a2.027,2.027,0,0,0,.305,2.479l1.836,1.836a2.027,2.027,0,0,0,2.479.305l1.148-.689.076.031.325,1.3a2.027,2.027,0,0,0,1.969,1.537h2.6a2.026,2.026,0,0,0,1.969-1.537l.325-1.3.076-.031,1.148.689a2.027,2.027,0,0,0,2.479-.305l1.836-1.837a2.027,2.027,0,0,0,.305-2.479l-.689-1.148.031-.075,1.3-.325a2.027,2.027,0,0,0,1.537-1.969v-2.6a2.026,2.026,0,0,0-1.537-1.969Zm.908,4.891a.1.1,0,0,1-.076.1l-1.789.447a.965.965,0,0,0-.678.621,7.554,7.554,0,0,1-.348.844.964.964,0,0,0,.04.919l.948,1.581a.1.1,0,0,1-.015.123l-1.836,1.836a.1.1,0,0,1-.123.015l-1.581-.948a.964.964,0,0,0-.919-.04,7.536,7.536,0,0,1-.844.348.964.964,0,0,0-.621.678l-.447,1.789a.1.1,0,0,1-.1.076h-2.6a.1.1,0,0,1-.1-.076l-.447-1.789a.964.964,0,0,0-.621-.678,7.556,7.556,0,0,1-.844-.348.964.964,0,0,0-.919.04l-1.581.948a.1.1,0,0,1-.123-.015l-1.836-1.836a.1.1,0,0,1-.015-.123l.948-1.581a.964.964,0,0,0,.04-.919,7.546,7.546,0,0,1-.348-.844.965.965,0,0,0-.678-.621l-1.789-.447a.1.1,0,0,1-.076-.1v-2.6a.1.1,0,0,1,.076-.1l1.789-.447a.965.965,0,0,0,.678-.621,7.552,7.552,0,0,1,.348-.844.964.964,0,0,0-.04-.919l-.948-1.581a.1.1,0,0,1,.015-.123l1.836-1.837a.1.1,0,0,1,.123-.015l1.581.948a.964.964,0,0,0,.919.04,7.545,7.545,0,0,1,.844-.348.964.964,0,0,0,.621-.678l.447-1.789a.1.1,0,0,1,.1-.076h2.6a.1.1,0,0,1,.1.076l.447,1.789a.964.964,0,0,0,.621.678,7.557,7.557,0,0,1,.844.348.964.964,0,0,0,.919-.04l1.581-.948a.1.1,0,0,1,.123.015l1.836,1.837a.1.1,0,0,1,.015.123l-.948,1.581a.964.964,0,0,0-.04.919,7.551,7.551,0,0,1,.348.844.964.964,0,0,0,.678.621l1.789.447a.1.1,0,0,1,.076.1v2.6Z" transform="translate(-129.928 -28.873)" fill="#0d585f"/>
    </g>
  </g>
</svg>
