<svg xmlns="http://www.w3.org/2000/svg" width="81" height="81" viewBox="0 0 81 81">
  <g id="Grupo_56179" data-name="Grupo 56179" transform="translate(-1176 -3238)">
    <g id="Grupo_56178" data-name="Grupo 56178" transform="translate(1176 3238)">
      <g id="Grupo_55846" data-name="Grupo 55846">
        <circle id="Elipse_4123" data-name="Elipse 4123" cx="40.5" cy="40.5" r="40.5" fill="#6a5d99"/>
      </g>
    </g>
    <g id="mission" transform="translate(1181 3242)">
      <path id="Trazado_132907" data-name="Trazado 132907" d="M56.278,47.958a28.038,28.038,0,0,0-10.762-18.5V24.439A32.307,32.307,0,0,0,35.992,1.447l-.107-.107a1.16,1.16,0,0,0-1.642,0l-.107.107a32.3,32.3,0,0,0-9.524,22.992v5.018a28.038,28.038,0,0,0-10.762,18.5l-.841,6.308a1.162,1.162,0,0,0,.779,1.254,1.185,1.185,0,0,0,.372.06A1.161,1.161,0,0,0,15.169,55l1.188-2.08a10.866,10.866,0,0,1,8.256-5.387v1.085a1.162,1.162,0,0,0,1.161,1.161h1.161v3.484A1.162,1.162,0,0,0,28.1,54.419H33.9v4.645h2.323V54.419h5.806a1.162,1.162,0,0,0,1.161-1.161V49.774h1.161a1.162,1.162,0,0,0,1.161-1.161V47.529a10.863,10.863,0,0,1,8.256,5.387L54.96,55a1.161,1.161,0,0,0,2.159-.732ZM35.064,3.828a30.1,30.1,0,0,1,5.725,8.785H29.339a30.1,30.1,0,0,1,5.725-8.785ZM15.99,49.485l.163-1.221a25.7,25.7,0,0,1,8.46-15.783V45.19a13.216,13.216,0,0,0-8.623,4.294ZM40.871,52.1H29.258V49.774H40.871Zm2.323-4.645H26.935V24.439a30.252,30.252,0,0,1,1.525-9.5H41.67a30.285,30.285,0,0,1,1.524,9.5Zm2.323-2.26V32.481a25.71,25.71,0,0,1,8.46,15.783l.163,1.221A13.209,13.209,0,0,0,45.516,45.192Z" fill="#fff"/>
      <path id="Trazado_132908" data-name="Trazado 132908" d="M32.968,19a6.968,6.968,0,1,0,6.968,6.968A6.975,6.975,0,0,0,32.968,19Zm0,11.613a4.645,4.645,0,1,1,4.645-4.645A4.65,4.65,0,0,1,32.968,30.613Z" transform="translate(2.097 2.903)" fill="#fff"/>
      <path id="Trazado_132909" data-name="Trazado 132909" d="M38.74,48.445l-1.932,1.288,1.234,1.852a5.318,5.318,0,0,1-.664,6.71l-4.249,4.249L28.88,58.3a5.318,5.318,0,0,1-.664-6.71l1.234-1.852-1.932-1.288L26.283,50.3a7.639,7.639,0,0,0,.955,9.64l5.07,5.07a1.161,1.161,0,0,0,1.642,0l5.07-5.07a7.639,7.639,0,0,0,.955-9.64Z" transform="translate(1.935 7.652)" fill="#fff"/>
    </g>
  </g>
</svg>
