<svg xmlns="http://www.w3.org/2000/svg" width="81" height="81" viewBox="0 0 81 81">
  <g id="Grupo_56173" data-name="Grupo 56173" transform="translate(-760 -896)">
    <g id="Grupo_56164" data-name="Grupo 56164" transform="translate(760 896)">
      <g id="Grupo_55846" data-name="Grupo 55846">
        <circle id="Elipse_4123" data-name="Elipse 4123" cx="40.5" cy="40.5" r="40.5" fill="#6a5d99"/>
      </g>
    </g>
    <g id="XMLID_1321_" transform="translate(769 854.352)">
      <g id="XMLID_396_" transform="translate(0 57.647)">
        <path id="XMLID_429_" d="M63.2,74.4l-1.657-2.869a1.242,1.242,0,0,0-2.151,1.242l1.657,2.869a.485.485,0,0,1-.177.662L56.49,78.829a.486.486,0,0,1-.662-.177L47.015,63.387a.486.486,0,0,1,.177-.662L51.573,60.2a.486.486,0,0,1,.662.177L53.8,63.087a1.242,1.242,0,0,0,2.151-1.242l-1.567-2.713a2.972,2.972,0,0,0-4.056-1.087L45.95,60.574a2.958,2.958,0,0,0-1.343,1.669H32.189a6.485,6.485,0,0,0-4.616,1.912L26.3,65.427a14.7,14.7,0,0,0-3.408-.4H19.036A2.96,2.96,0,0,0,17.648,63.2l-4.381-2.529a2.969,2.969,0,0,0-4.056,1.087L.4,77.018a2.969,2.969,0,0,0,1.087,4.056L5.866,83.6a2.95,2.95,0,0,0,1.479.4,2.989,2.989,0,0,0,.545-.051l3.586,3.586a4.518,4.518,0,0,0-.083.865,4.463,4.463,0,0,0,4.22,4.459,4.538,4.538,0,0,0-.025.472A4.469,4.469,0,0,0,20.057,97.8l.1,0c0,.032,0,.064,0,.1a4.469,4.469,0,0,0,4.469,4.469l.1,0c0,.032,0,.064,0,.1a4.469,4.469,0,0,0,7.628,3.16l1.767-1.767a4.441,4.441,0,0,0,1.091-1.787,4.472,4.472,0,0,0,6.92-2.271,4.471,4.471,0,0,0,6.816-2.843,4.469,4.469,0,0,0,4.569-7.4l-2.9-2.9L55.9,81.355a2.989,2.989,0,0,0,.355.022,2.951,2.951,0,0,0,1.479-.4l4.381-2.529A2.969,2.969,0,0,0,63.2,74.4ZM2.728,78.923a.485.485,0,0,1-.177-.662L11.363,63a.483.483,0,0,1,.294-.226.5.5,0,0,1,.127-.017.478.478,0,0,1,.241.065l4.381,2.529a.486.486,0,0,1,.177.662L7.771,81.275a.486.486,0,0,1-.662.177ZM13.878,88.4a1.971,1.971,0,0,1,.581-1.4l1.072-1.072a1.984,1.984,0,1,1,2.806,2.806L17.265,89.8a1.984,1.984,0,0,1-3.388-1.4Zm6.18,6.915a1.984,1.984,0,0,1-1.4-3.387l1.767-1.767a1.984,1.984,0,1,1,2.806,2.806L21.46,94.733A1.971,1.971,0,0,1,20.057,95.315Zm4.563,4.563a1.984,1.984,0,0,1-1.4-3.388l1.767-1.767A1.984,1.984,0,1,1,27.79,97.53L26.023,99.3A1.971,1.971,0,0,1,24.62,99.878Zm7.733,2.215-1.767,1.767a1.984,1.984,0,1,1-2.806-2.806l1.767-1.767a1.984,1.984,0,1,1,2.806,2.806Zm19.4-7.983a1.984,1.984,0,0,1-2.806,0L37.086,82.253a1.242,1.242,0,0,0-1.757,1.757L45.962,94.643a1.984,1.984,0,1,1-2.806,2.806L30.379,84.672a1.242,1.242,0,0,0-1.757,1.757L39.255,97.062a1.984,1.984,0,1,1-2.806,2.806L34.11,97.529l-.01-.009a4.454,4.454,0,0,0-3.247-1.295c0-.033,0-.066,0-.1a4.463,4.463,0,0,0-4.565-4.464c0-.033,0-.066,0-.1a4.466,4.466,0,0,0-4.9-4.446,4.469,4.469,0,0,0-7.623-2.949L12.7,85.24l0,0L9.94,82.486l8.647-14.977h4.305a12.2,12.2,0,0,1,1.261.066l-1.42,1.42a4.469,4.469,0,0,0,6.32,6.32l3.353-3.353L51.748,91.3a1.987,1.987,0,0,1,0,2.806ZM39.814,75.856a7.049,7.049,0,0,0,2.916-5.713,1.242,1.242,0,1,0-2.484,0,4.565,4.565,0,0,1-2.225,3.92L33.29,69.332a1.241,1.241,0,0,0-1.755-.013L27.3,73.557a1.984,1.984,0,1,1-2.806-2.806l4.84-4.84a4.017,4.017,0,0,1,2.859-1.184H44.92l8.756,15.167c.021.036.043.07.065.1l-4.892,4.892Z" transform="translate(0 -57.647)" fill="#fff"/>
        <path id="XMLID_436_" d="M455.55,127.9a1.243,1.243,0,1,0-.878-.364A1.254,1.254,0,0,0,455.55,127.9Z" transform="translate(-397.877 -116.997)" fill="#fff"/>
      </g>
    </g>
  </g>
</svg>
