<svg xmlns="http://www.w3.org/2000/svg" xmlns:xlink="http://www.w3.org/1999/xlink" width="438.577" height="320.558" viewBox="0 0 438.577 320.558">
  <defs>
    <linearGradient id="linear-gradient" x1="0.428" y1="0.616" x2="0.689" y2="2.043" gradientUnits="objectBoundingBox">
      <stop offset="0" stop-color="#2b3582"/>
      <stop offset="1" stop-color="#150e42"/>
    </linearGradient>
    <linearGradient id="linear-gradient-2" x1="-1.502" y1="6.815" x2="-0.476" y2="5.744" gradientUnits="objectBoundingBox">
      <stop offset="0" stop-color="#a737d5"/>
      <stop offset="1" stop-color="#ef497a"/>
    </linearGradient>
    <linearGradient id="linear-gradient-3" x1="-11.484" y1="51.106" x2="-15.894" y2="56.664" xlink:href="#linear-gradient-2"/>
    <linearGradient id="linear-gradient-4" x1="-11.445" y1="51.105" x2="-15.852" y2="56.663" xlink:href="#linear-gradient-2"/>
    <linearGradient id="linear-gradient-5" x1="-10.707" y1="50.148" x2="-15.118" y2="55.713" xlink:href="#linear-gradient-2"/>
    <linearGradient id="linear-gradient-6" x1="-10.052" y1="50.091" x2="-15.855" y2="56.065" xlink:href="#linear-gradient-2"/>
    <linearGradient id="linear-gradient-7" x1="-9.144" y1="48.051" x2="-13.555" y2="53.609" xlink:href="#linear-gradient-2"/>
    <linearGradient id="linear-gradient-8" x1="0.689" y1="-1.147" x2="-2.328" y2="2.512" xlink:href="#linear-gradient"/>
    <linearGradient id="linear-gradient-9" x1="-2.535" y1="89.063" x2="-3.613" y2="95.21" xlink:href="#linear-gradient"/>
    <linearGradient id="linear-gradient-10" x1="-1.387" y1="87.915" x2="-1.832" y2="93.78" xlink:href="#linear-gradient"/>
    <linearGradient id="linear-gradient-11" x1="-181.697" y1="0.5" x2="-180.696" y2="0.5" gradientUnits="objectBoundingBox">
      <stop offset="0" stop-color="#f9b776"/>
      <stop offset="1" stop-color="#f47960"/>
    </linearGradient>
    <linearGradient id="linear-gradient-12" x1="-242.185" y1="0.502" x2="-241.185" y2="0.502" xlink:href="#linear-gradient-2"/>
    <linearGradient id="linear-gradient-13" x1="-243.629" y1="-12.954" x2="-247.327" y2="11.14" gradientUnits="objectBoundingBox">
      <stop offset="0" stop-color="#53d8ff"/>
      <stop offset="1" stop-color="#3840f7"/>
    </linearGradient>
    <linearGradient id="linear-gradient-14" x1="-640.454" y1="-0.842" x2="-640.959" y2="2.387" xlink:href="#linear-gradient-11"/>
    <linearGradient id="linear-gradient-15" x1="-166.295" y1="-5.4" x2="-168.81" y2="17.716" xlink:href="#linear-gradient-13"/>
    <linearGradient id="linear-gradient-16" x1="-168.233" y1="0.5" x2="-167.233" y2="0.5" xlink:href="#linear-gradient-2"/>
    <linearGradient id="linear-gradient-17" x1="-651.773" y1="-0.223" x2="-652.288" y2="2.539" xlink:href="#linear-gradient-11"/>
    <linearGradient id="linear-gradient-18" x1="-95.105" y1="-0.312" x2="-97.55" y2="1.239" gradientUnits="objectBoundingBox">
      <stop offset="0" stop-color="#7c27dd"/>
      <stop offset="1" stop-color="#2b41d9"/>
    </linearGradient>
    <linearGradient id="linear-gradient-19" x1="-270.942" y1="-0.222" x2="-271.76" y2="2.967" xlink:href="#linear-gradient-11"/>
    <linearGradient id="linear-gradient-20" x1="-202.077" y1="-176.07" x2="-203.149" y2="-174.789" xlink:href="#linear-gradient-11"/>
    <linearGradient id="linear-gradient-21" x1="-143.451" y1="-116.215" x2="-142.544" y2="-116.215" xlink:href="#linear-gradient"/>
    <linearGradient id="linear-gradient-22" x1="-581.999" y1="-585.295" x2="-579.54" y2="-587.951" xlink:href="#linear-gradient-11"/>
    <linearGradient id="linear-gradient-23" x1="-1335.95" y1="-0.965" x2="-1344.313" y2="1.467" xlink:href="#linear-gradient-13"/>
    <linearGradient id="linear-gradient-24" x1="-434.901" y1="-0.867" x2="-435.824" y2="0.839" xlink:href="#linear-gradient"/>
    <linearGradient id="linear-gradient-25" x1="-197.827" y1="-1.461" x2="-201.061" y2="3.372" xlink:href="#linear-gradient-11"/>
    <linearGradient id="linear-gradient-26" x1="-196.609" y1="-1.012" x2="-199.818" y2="5.17" xlink:href="#linear-gradient-11"/>
    <linearGradient id="linear-gradient-27" x1="-23.208" y1="27.156" x2="-24.022" y2="28.326" xlink:href="#linear-gradient"/>
    <linearGradient id="linear-gradient-28" x1="82.075" y1="-15.597" x2="80.857" y2="-15.084" xlink:href="#linear-gradient-2"/>
    <linearGradient id="linear-gradient-29" x1="24.858" y1="-17.883" x2="22.764" y2="-15.58" gradientUnits="objectBoundingBox">
      <stop offset="0" stop-color="#fdf53f"/>
      <stop offset="1" stop-color="#d93c65"/>
    </linearGradient>
    <linearGradient id="linear-gradient-30" x1="25.056" y1="-17.457" x2="22.963" y2="-15.154" xlink:href="#linear-gradient-29"/>
    <linearGradient id="linear-gradient-31" x1="25.289" y1="-16.871" x2="23.194" y2="-14.569" xlink:href="#linear-gradient-29"/>
    <linearGradient id="linear-gradient-32" x1="25.54" y1="-16.291" x2="23.447" y2="-13.989" xlink:href="#linear-gradient-29"/>
    <linearGradient id="linear-gradient-33" x1="165.628" y1="-40.928" x2="154.953" y2="-38.87" xlink:href="#linear-gradient-2"/>
    <linearGradient id="linear-gradient-34" x1="57.16" y1="-26.775" x2="53.494" y2="-25.426" xlink:href="#linear-gradient-2"/>
    <linearGradient id="linear-gradient-35" x1="38.937" y1="-28.271" x2="36.488" y2="-26.892" xlink:href="#linear-gradient-2"/>
    <linearGradient id="linear-gradient-36" x1="0.911" y1="-0.799" x2="-1.201" y2="5.475" xlink:href="#linear-gradient-13"/>
    <linearGradient id="linear-gradient-37" x1="0.824" y1="-4.479" x2="-2.615" y2="48.45" xlink:href="#linear-gradient-13"/>
    <linearGradient id="linear-gradient-38" x1="0.739" y1="-2.59" x2="-3.316" y2="50.22" xlink:href="#linear-gradient-13"/>
    <linearGradient id="linear-gradient-39" x1="91.144" y1="1.664" x2="90.164" y2="0.244" gradientUnits="objectBoundingBox">
      <stop offset="0" stop-color="#e92556"/>
      <stop offset="1" stop-color="#f9c342"/>
    </linearGradient>
    <linearGradient id="linear-gradient-40" x1="135.388" y1="1.664" x2="134.409" y2="0.244" xlink:href="#linear-gradient-39"/>
    <linearGradient id="linear-gradient-41" x1="-544.308" y1="-212.372" x2="-549.561" y2="-215.263" xlink:href="#linear-gradient-13"/>
    <linearGradient id="linear-gradient-42" x1="-88.466" y1="-58.316" x2="-89.445" y2="-59.912" xlink:href="#linear-gradient-13"/>
    <linearGradient id="linear-gradient-43" x1="-115.36" y1="-70.289" x2="-116.407" y2="-71.193" xlink:href="#linear-gradient-13"/>
    <linearGradient id="linear-gradient-44" x1="-24.697" y1="-272.276" x2="-20.383" y2="-273.126" xlink:href="#linear-gradient-13"/>
  </defs>
  <g id="chek-01" transform="translate(-5.431 -14.38)">
    <g id="Grupo_56151" data-name="Grupo 56151" transform="translate(5.431 25.557)" opacity="0.8">
      <path id="Trazado_132689" data-name="Trazado 132689" d="M333.739,182.368a31.572,31.572,0,0,0,30.7,8.784c10.425-2.584,22.762-1.85,35.354,7.559,24.412,18.2,25.5,50.612,14.554,70.66a48.093,48.093,0,0,0-4.619,34.454c2.525,10.205.426,21.645-17.795,26.895-36.777,10.6-238.687.14-264.481-4.594S5.449,295.269,66.493,260.391c0,0-105.816-123.659-38.853-190.345,60.622-60.367,123.833-26.43,152.777-4.521a58.7,58.7,0,0,0,37.23,12.112c33.867-1,96.515,6.795,93.986,78.633-.335,9.616,5.308,18.229,13.8,21.071A20.207,20.207,0,0,1,333.739,182.368Z" transform="translate(-5.431 -36.012)" fill="#7d6eb2" opacity="0.25"/>
    </g>
    <path id="Trazado_132694" data-name="Trazado 132694" d="M203.946,528.706a.45.45,0,0,1-.253-.377c-1.927-37.859-22.218-84.849-22.4-85.319a.439.439,0,1,1,.8-.351c.207.47,20.539,47.6,22.477,85.629a.429.429,0,0,1-.413.455A.46.46,0,0,1,203.946,528.706Z" transform="translate(-96.127 -206.838)" fill="#fff" opacity="0.53"/>
    <path id="Trazado_132695" data-name="Trazado 132695" d="M231.113,84.327l171.232,2.93A17.744,17.744,0,0,1,419.773,104.4l8.407,248.449a13.083,13.083,0,0,1-13.057,13.527l-196.313.222a12.4,12.4,0,0,1-12.432-12.634l4.258-249.844A20.152,20.152,0,0,1,231.113,84.327Z" transform="translate(-119.086 -33.804)" fill="url(#linear-gradient)"/>
    <path id="Trazado_132696" data-name="Trazado 132696" d="M253.289,578.505h0l-21.955-.661a13.589,13.589,0,0,1-13.135-13.76l.563-33.157a.517.517,0,1,1,1.033,0l-.563,33.157a12.556,12.556,0,0,0,12.132,12.711l21.955.661a.517.517,0,0,1,0,1.033Z" transform="translate(-116.699 -249.393)" fill="#fff"/>
    <path id="Trazado_132697" data-name="Trazado 132697" d="M220.117,506.557h0a.517.517,0,0,1-.517-.517l.093-5.374a.517.517,0,1,1,1.033,0l-.093,5.369a.517.517,0,0,1-.517.522Z" transform="translate(-116.496 -234.769)" fill="#fff"/>
    <path id="Trazado_132698" data-name="Trazado 132698" d="M246.307,80.4c23.329,3.565,103.569,14.747,170.137,10.773a5.41,5.41,0,0,1,5.735,5.2l9.006,249.57a6.2,6.2,0,0,1-5.963,6.443C397.237,353.565,281.98,358,240.98,353a4.935,4.935,0,0,1-4.33-4.955l2.925-261.935a5.849,5.849,0,0,1,6.733-5.71Z" transform="translate(-134.746 -31.873)" fill="url(#linear-gradient-2)"/>
    <path id="Trazado_132699" data-name="Trazado 132699" d="M251.3,93c22.451,3.436,99.668,14.189,163.729,10.37a5.2,5.2,0,0,1,5.524,5l8.65,240.182a5.994,5.994,0,0,1-5.735,6.2c-26.936,1.132-137.853,5.4-177.308.589a4.754,4.754,0,0,1-4.165-4.769L244.8,98.495A5.627,5.627,0,0,1,251.3,93Z" transform="translate(-137.301 -37.963)" fill="#fff" opacity="0.6"/>
    <g id="Grupo_56153" data-name="Grupo 56153" transform="translate(127.757 79.36)" opacity="0.6">
      <path id="Trazado_132700" data-name="Trazado 132700" d="M435.411,147.228a1.8,1.8,0,0,0,1.984-1.695,2.116,2.116,0,0,0-2.15-1.777l-144.539-3.617c-1.137-.031-1.5.682-.806,1.586l1.085,1.411a4.857,4.857,0,0,0,3.328,1.669Z" transform="translate(-289.549 -140.138)" fill="#fff"/>
    </g>
    <g id="Grupo_56154" data-name="Grupo 56154" transform="translate(127.622 88.966)" opacity="0.6">
      <path id="Trazado_132701" data-name="Trazado 132701" d="M290.395,158.729c-1.137-.031-1.5.687-.806,1.586l1.08,1.411A4.883,4.883,0,0,0,294,163.4l141.1,2.4a1.79,1.79,0,0,0,1.979-1.695,2.116,2.116,0,0,0-2.15-1.777Z" transform="translate(-289.235 -158.728)" fill="#fff"/>
    </g>
    <path id="Trazado_132702" data-name="Trazado 132702" d="M311.374,303.47h-.052l-19.273.114a5.239,5.239,0,0,1-5.4-4.366l-1.943-16.142a3.55,3.55,0,0,1,.8-2.692,4.284,4.284,0,0,1,2.961-1.519h0c1.622-.134,3.86-.362,6.319-.6,5.358-.543,11.43-1.152,14.985-1.25h.077a5.425,5.425,0,0,1,5.42,3.731c1.064,3.7,1.085,10.732,1.033,18.224A4.829,4.829,0,0,1,311.374,303.47Zm-22.782-23.035a2.7,2.7,0,0,0-1.87.94,1.994,1.994,0,0,0-.455,1.509l1.943,16.142a3.66,3.66,0,0,0,3.829,2.981l19.273-.108h.036a3.246,3.246,0,0,0,3.369-2.956c.072-7.373.057-14.277-.946-17.775a3.9,3.9,0,0,0-3.948-2.584c-3.514.1-9.817.734-14.881,1.24-2.475.253-4.718.475-6.35.615Z" transform="translate(-153.008 -126.927)" fill="#fff"/>
    <path id="Trazado_132703" data-name="Trazado 132703" d="M294.035,285.325c4.041-.341,12.83-1.369,17-1.483a3.72,3.72,0,0,1,3.772,2.522c.853,2.966.837,8.9.78,14.38a3.2,3.2,0,0,1-3.343,2.987l-15.4.088a3.565,3.565,0,0,1-3.684-2.935l-1.55-12.918a2.5,2.5,0,0,1,2.429-2.64Z" transform="translate(-156.502 -130.225)" fill="#fff" opacity="0.6"/>
    <g id="Grupo_56155" data-name="Grupo 56155" transform="translate(164.447 159.502)" opacity="0.6">
      <path id="Trazado_132704" data-name="Trazado 132704" d="M368.025,295.245a1.473,1.473,0,0,0-1.509,1.974l1.55,5.611a2.837,2.837,0,0,0,2.625,1.958l96.061-1.473a2.015,2.015,0,0,0,1.989-2.1l-.114-3.054a2.186,2.186,0,0,0-2.144-2.067Z" transform="translate(-366.426 -295.24)" fill="#fff"/>
    </g>
    <path id="Trazado_132705" data-name="Trazado 132705" d="M296.617,278.3h0a2.961,2.961,0,0,1,4.1,1.033l3.906,6.753a.951.951,0,0,0,1.695-.1l9.1-21.133a1.033,1.033,0,0,1,2.02.424,41.463,41.463,0,0,1-11.616,29.023s-5.684-2.113-10.391-12.039a3.1,3.1,0,0,1,1.183-3.963Z" transform="translate(-158.37 -120.682)" fill="url(#linear-gradient-3)"/>
    <path id="Trazado_132706" data-name="Trazado 132706" d="M313.554,219.725H313.5l-19.273.109a5.234,5.234,0,0,1-5.4-4.366l-1.943-16.142a3.534,3.534,0,0,1,.8-2.692,4.273,4.273,0,0,1,2.956-1.514h0c1.622-.134,3.86-.362,6.319-.61,5.358-.517,11.43-1.152,14.985-1.25h.078a5.389,5.389,0,0,1,5.42,3.725c1.064,3.7,1.085,10.732,1.008,18.224A4.778,4.778,0,0,1,313.554,219.725Zm-22.777-23.04a2.682,2.682,0,0,0-1.87.946,2,2,0,0,0-.46,1.509l1.943,16.142a3.661,3.661,0,0,0,3.829,2.981l19.273-.114h.041a3.237,3.237,0,0,0,3.364-2.956c.072-7.368.057-14.277-.946-17.775a3.891,3.891,0,0,0-3.942-2.584c-3.514.1-9.817.734-14.886,1.245-2.47.248-4.718.475-6.345.61Z" transform="translate(-154.202 -86.451)" fill="#fff"/>
    <path id="Trazado_132707" data-name="Trazado 132707" d="M296.215,201.605c4.046-.341,12.83-1.369,17-1.483a3.736,3.736,0,0,1,3.777,2.516c.847,2.966.832,8.9.775,14.385a3.2,3.2,0,0,1-3.343,2.987l-15.4.088a3.571,3.571,0,0,1-3.689-2.935l-1.55-12.918a2.506,2.506,0,0,1,2.429-2.64Z" transform="translate(-157.694 -89.764)" fill="#fff" opacity="0.6"/>
    <g id="Grupo_56156" data-name="Grupo 56156" transform="translate(165.407 116.233)" opacity="0.6">
      <path id="Trazado_132708" data-name="Trazado 132708" d="M370.2,211.5a1.473,1.473,0,0,0-1.509,1.974l1.55,5.606a2.847,2.847,0,0,0,2.625,1.963l96.061-1.478a2.02,2.02,0,0,0,1.994-2.093l-.114-3.059a2.2,2.2,0,0,0-2.144-2.067Z" transform="translate(-368.606 -211.5)" fill="#fff"/>
    </g>
    <path id="Trazado_132709" data-name="Trazado 132709" d="M298.752,194.592h0a2.961,2.961,0,0,1,4.1,1.033l3.906,6.795a.951.951,0,0,0,1.695-.1l9.1-21.133a1.033,1.033,0,0,1,2.02.424,41.448,41.448,0,0,1-11.616,29.023s-5.684-2.108-10.391-12.039A3.1,3.1,0,0,1,298.752,194.592Z" transform="translate(-159.529 -80.244)" fill="url(#linear-gradient-4)"/>
    <path id="Trazado_132710" data-name="Trazado 132710" d="M312.625,383.394h-.057l-19.273.109a5.238,5.238,0,0,1-5.4-4.366L285.978,363a3.576,3.576,0,0,1,.8-2.692,4.283,4.283,0,0,1,2.961-1.514h0c1.622-.14,3.86-.362,6.319-.61,5.353-.517,11.424-1.152,14.985-1.25h.083a5.42,5.42,0,0,1,5.42,3.726c1.059,3.7,1.08,10.732,1,18.224A4.836,4.836,0,0,1,312.625,383.394Zm-22.782-23.035a2.718,2.718,0,0,0-1.87.94,2.01,2.01,0,0,0-.46,1.514l1.943,16.142a3.666,3.666,0,0,0,3.834,2.981l19.273-.114h.036a3.233,3.233,0,0,0,3.364-2.956c.078-7.368.062-14.277-.946-17.775a3.907,3.907,0,0,0-3.943-2.584c-3.514.1-9.817.734-14.886,1.245-2.47.248-4.712.47-6.345.61Z" transform="translate(-153.705 -165.55)" fill="#fff"/>
    <path id="Trazado_132711" data-name="Trazado 132711" d="M295.255,365.255c4.046-.341,12.83-1.369,17-1.483a3.725,3.725,0,0,1,3.772,2.522c.853,2.966.837,8.9.78,14.385a3.2,3.2,0,0,1-3.343,2.981l-15.4.088a3.566,3.566,0,0,1-3.689-2.935l-1.55-12.918a2.5,2.5,0,0,1,2.429-2.64Z" transform="translate(-157.169 -168.855)" fill="#fff" opacity="0.6"/>
    <g id="Grupo_56157" data-name="Grupo 56157" transform="translate(164.982 200.808)" opacity="0.6">
      <path id="Trazado_132712" data-name="Trazado 132712" d="M369.245,375.185a1.473,1.473,0,0,0-1.509,1.974l1.576,5.606a2.832,2.832,0,0,0,2.625,1.958L468,383.251a2.02,2.02,0,0,0,1.989-2.1l-.114-3.054a2.191,2.191,0,0,0-2.144-2.067Z" transform="translate(-367.646 -375.18)" fill="#fff"/>
    </g>
    <path id="Trazado_132713" data-name="Trazado 132713" d="M297.813,358.267h0a2.961,2.961,0,0,1,4.1,1.033l3.9,6.753a.951.951,0,0,0,1.695-.1l9.11-21.133a1.033,1.033,0,0,1,2.015.424,41.448,41.448,0,0,1-11.616,29.024s-5.684-2.108-10.391-12.039A3.1,3.1,0,0,1,297.813,358.267Z" transform="translate(-159.021 -159.345)" fill="url(#linear-gradient-5)"/>
    <path id="Trazado_132714" data-name="Trazado 132714" d="M310.285,460.249h-.052l-19.273.114a5.238,5.238,0,0,1-5.4-4.366l-1.943-16.142a3.576,3.576,0,0,1,.8-2.692,4.3,4.3,0,0,1,2.956-1.519h0c1.622-.134,3.86-.357,6.314-.6,5.095-.517,11.435-1.152,14.985-1.25a5.5,5.5,0,0,1,5.5,3.725c1.059,3.7,1.08,10.732,1,18.224A4.8,4.8,0,0,1,310.285,460.249Zm-22.777-23.035a2.692,2.692,0,0,0-1.87.94,2,2,0,0,0-.46,1.509l1.943,16.142a3.655,3.655,0,0,0,3.829,2.981l19.273-.108a3.311,3.311,0,0,0,3.405-2.956c.072-7.373.057-14.277-.946-17.775a3.932,3.932,0,0,0-3.943-2.584c-3.519.1-9.817.734-14.892,1.245-2.47.248-4.712.47-6.34.61Z" transform="translate(-152.412 -202.696)" fill="#fff"/>
    <path id="Trazado_132715" data-name="Trazado 132715" d="M292.945,442.065c4.046-.341,12.83-1.369,17-1.483a3.726,3.726,0,0,1,3.777,2.522c.847,2.966.832,8.9.78,14.385a3.2,3.2,0,0,1-3.343,2.981l-15.4.088a3.566,3.566,0,0,1-3.689-2.935l-1.55-12.918a2.5,2.5,0,0,1,2.428-2.64Z" transform="translate(-155.906 -205.976)" fill="#fff" opacity="0.6"/>
    <g id="Grupo_56158" data-name="Grupo 56158" transform="translate(163.968 240.496)" opacity="0.6">
      <path id="Trazado_132716" data-name="Trazado 132716" d="M366.936,452a1.473,1.473,0,0,0-1.509,1.969l1.55,5.611a2.837,2.837,0,0,0,2.625,1.958l96.066-1.473a2.02,2.02,0,0,0,1.989-2.1l-.114-3.054a2.2,2.2,0,0,0-2.144-2.067Z" transform="translate(-365.34 -451.99)" fill="#fff"/>
    </g>
    <path id="Trazado_132717" data-name="Trazado 132717" d="M295.5,435.043h0a2.956,2.956,0,0,1,4.1,1.033l3.906,6.753a.951.951,0,0,0,1.695-.1l9.1-21.133a1.033,1.033,0,0,1,2.02.424A41.455,41.455,0,0,1,304.7,451.046s-5.684-2.113-10.391-12.039a3.1,3.1,0,0,1,1.183-3.963Z" transform="translate(-157.757 -196.433)" fill="url(#linear-gradient-6)"/>
    <path id="Trazado_132718" data-name="Trazado 132718" d="M307.264,539.431h-.052l-19.273.114a5.235,5.235,0,0,1-5.4-4.366L280.6,519.036a3.534,3.534,0,0,1,.8-2.692,4.258,4.258,0,0,1,2.956-1.519h0c1.622-.134,3.86-.357,6.319-.6,5.358-.517,11.43-1.152,14.985-1.25a5.483,5.483,0,0,1,5.5,3.726c1.064,3.7,1.085,10.732,1.008,18.224A4.784,4.784,0,0,1,307.264,539.431ZM284.482,516.4a2.671,2.671,0,0,0-1.865.94,2,2,0,0,0-.46,1.509l1.943,16.142a3.656,3.656,0,0,0,3.829,2.981l19.273-.108h.041a3.244,3.244,0,0,0,3.364-2.956c.072-7.373.057-14.277-.946-17.775a3.954,3.954,0,0,0-3.948-2.583c-3.514.1-9.817.734-14.881,1.24-2.47.253-4.718.475-6.35.615Z" transform="translate(-150.756 -240.965)" fill="#fff"/>
    <path id="Trazado_132719" data-name="Trazado 132719" d="M289.925,521.285c4.03-.351,12.814-1.385,17-1.483a3.731,3.731,0,0,1,3.777,2.522c.847,2.966.832,8.9.775,14.38a3.2,3.2,0,0,1-3.343,2.987l-15.4.088a3.565,3.565,0,0,1-3.684-2.935l-1.55-12.918a2.5,2.5,0,0,1,2.428-2.64Z" transform="translate(-154.254 -244.263)" fill="#fff" opacity="0.6"/>
    <g id="Grupo_56159" data-name="Grupo 56159" transform="translate(162.636 281.425)" opacity="0.6">
      <path id="Trazado_132720" data-name="Trazado 132720" d="M363.915,531.205a1.473,1.473,0,0,0-1.509,1.974l1.55,5.611a2.836,2.836,0,0,0,2.625,1.958l96.061-1.473a2.015,2.015,0,0,0,1.989-2.1l-.114-3.054a2.186,2.186,0,0,0-2.139-2.067Z" transform="translate(-362.316 -531.2)" fill="#fff"/>
    </g>
    <path id="Trazado_132721" data-name="Trazado 132721" d="M292.477,514.263h0a2.956,2.956,0,0,1,4.1,1.033l3.906,6.753a.951.951,0,0,0,1.695-.1l9.1-21.133a1.033,1.033,0,0,1,2.02.424,41.455,41.455,0,0,1-11.616,29.023s-5.684-2.113-10.391-12.039a3.1,3.1,0,0,1,1.183-3.963Z" transform="translate(-156.106 -234.719)" fill="url(#linear-gradient-7)"/>
    <path id="Trazado_132722" data-name="Trazado 132722" d="M422.141,18.317c-6.107-4.408-11.492-4.413-15.295-3.364a7.549,7.549,0,0,0-5.5,7.849l1.328,17.847,19.4,2.067S434.129,26.962,422.141,18.317Zm-8.784,14.23a5.073,5.073,0,1,0-.005,0Z" transform="translate(-216.622)" fill="url(#linear-gradient-8)"/>
    <path id="Trazado_132723" data-name="Trazado 132723" d="M406.163,35.627a.966.966,0,0,1-.615-.832l-.212-2.842a.966.966,0,0,1,1.922-.145l.212,2.847a.966.966,0,0,1-.889,1.033A.951.951,0,0,1,406.163,35.627Zm-.413-5.57a.966.966,0,0,1-.615-.827l-.155-2.16a7.694,7.694,0,0,1,5.6-7.983,15.026,15.026,0,0,1,7.322-.181.971.971,0,0,1,.729,1.152.961.961,0,0,1-1.147.729,13.073,13.073,0,0,0-6.412.155,5.777,5.777,0,0,0-4.2,5.989l.176,2.181a.966.966,0,0,1-.889,1.033.94.94,0,0,1-.408-.088Z" transform="translate(-217.952 -2.011)" fill="#fff"/>
    <path id="Trazado_132724" data-name="Trazado 132724" d="M352.25,73.232l.15-8.96a5.467,5.467,0,0,1,5.746-5.369l61.736,3.147a5.322,5.322,0,0,1,5.043,5.084l.367,8.619Z" transform="translate(-192.221 -21.514)" fill="url(#linear-gradient-9)"/>
    <path id="Trazado_132725" data-name="Trazado 132725" d="M394.2,65.09h0l-2.687-.057a.517.517,0,1,1,0-1.033h0l2.656.047a.517.517,0,1,1,0,1.033Z" transform="translate(-209.85 -23.981)" fill="#fff"/>
    <path id="Trazado_132726" data-name="Trazado 132726" d="M357.594,72.768a.966.966,0,0,1-.594-.915l.062-3.617a5.575,5.575,0,0,1,5.684-5.477l9.766.165a.966.966,0,0,1-.031,1.927l-9.8-.176a3.653,3.653,0,0,0-3.71,3.586l-.062,3.617a.966.966,0,0,1-.982.946A1.033,1.033,0,0,1,357.594,72.768Z" transform="translate(-191.912 -23.381)" fill="#fff"/>
    <path id="Trazado_132727" data-name="Trazado 132727" d="M309.053,79.649,417.1,81.489a7.988,7.988,0,0,1,7.751,6.759l.083.517a6.862,6.862,0,0,1-6.893,7.911L307.2,94.815a4.464,4.464,0,0,1-4.376-4.749l.326-4.955a5.823,5.823,0,0,1,5.906-5.462Z" transform="translate(-167.59 -31.544)" fill="url(#linear-gradient-10)"/>
    <path id="Trazado_132728" data-name="Trazado 132728" d="M129.5,449.72a24.42,24.42,0,0,1-5.72,4.18,47.448,47.448,0,0,0,10.458,9.3l1.292,2.9,4.134-4.966S132.239,457.434,129.5,449.72Z" transform="translate(-57.197 -210.396)" fill="url(#linear-gradient-11)"/>
    <path id="Trazado_132729" data-name="Trazado 132729" d="M166.624,623.668a1.184,1.184,0,0,0-.026-.269c-1.343-5.322-8-8.639-8-8.639l-2.64.207c-1.519,4.692-1.323,7.57-1.08,8.851a.155.155,0,0,0,.026.1,62.714,62.714,0,0,0,11.724-.253Z" transform="translate(-72.144 -290.159)" fill="url(#linear-gradient-12)"/>
    <path id="Trazado_132730" data-name="Trazado 132730" d="M155.08,632.283a1.152,1.152,0,0,0,.837.847c3.1.651,8.024.124,10.091-.145a.956.956,0,0,0,.8-.956,62.7,62.7,0,0,1-11.724.253Z" transform="translate(-72.324 -298.505)" fill="url(#linear-gradient-13)"/>
    <path id="Trazado_132731" data-name="Trazado 132731" d="M155.06,607.59l1.121,5.379a.873.873,0,0,0,.749.723,7.618,7.618,0,0,0,1.736,0,1.106,1.106,0,0,0,.873-1.3l-.775-4.774Z" transform="translate(-72.314 -286.694)" fill="url(#linear-gradient-14)"/>
    <path id="Trazado_132732" data-name="Trazado 132732" d="M195.033,631.724a15.9,15.9,0,0,1-5.2-.744v.889a.568.568,0,0,0,.548.584l16.018-.1a.729.729,0,0,0,.589-1.064C204.9,631.461,199.539,631.848,195.033,631.724Z" transform="translate(-100.679 -297.998)" fill="url(#linear-gradient-15)"/>
    <path id="Trazado_132733" data-name="Trazado 132733" d="M206.955,624.234a1.32,1.32,0,0,0-.062-.119c-1.416-1.974-5.017-5.911-12.132-7.616l-3.41-.109a15.951,15.951,0,0,0-1.55,7.539,15.9,15.9,0,0,0,5.2.744A119.576,119.576,0,0,0,206.955,624.234Z" transform="translate(-100.66 -290.947)" fill="url(#linear-gradient-16)"/>
    <path id="Trazado_132734" data-name="Trazado 132734" d="M191.6,605.607c.036.258.517,4.134.687,5.622a.744.744,0,0,0,.625.672,7.839,7.839,0,0,0,2.346-.036,1.034,1.034,0,0,0,.765-1.033V604.78Z" transform="translate(-101.341 -285.336)" fill="url(#linear-gradient-17)"/>
    <path id="Trazado_132735" data-name="Trazado 132735" d="M166.039,469.81a304.87,304.87,0,0,1,8.112,70.66,1.55,1.55,0,0,1-1.209,1.483,18.136,18.136,0,0,1-3.818.444,1.421,1.421,0,0,1-1.349-1.183c-1.152-6.769-7.776-44.907-11.554-51.1,0,0-2.48,33.968-1.69,51.588a.832.832,0,0,1-.734.868,13.878,13.878,0,0,1-3.064,0,1.116,1.116,0,0,1-1-.946c-.822-5.73-5.555-39.833-5.353-64.4,0-1.385,3.663-7.41,3.663-7.41Z" transform="translate(-67.152 -220.106)" fill="url(#linear-gradient-18)"/>
    <path id="Trazado_132736" data-name="Trazado 132736" d="M161.738,386.17a34.283,34.283,0,0,1-3.488-5.322c-1.364-2.583-.109,1.674-.481-1.245-10.241-7.389-25.66-3.648-31.628-2.894a7.958,7.958,0,0,0-5.033,2.7c-5.11,5.916-16.328,22.11-3.126,38.428a24.418,24.418,0,0,0,5.72-4.18c-1.457-4.134-1.581-9.378,1.483-15.832a15.575,15.575,0,0,0,.388,1.519,94,94,0,0,1,4.439,27.05.842.842,0,0,0,.517.791c5.555,2.227,16.24.9,19.831.367a1.2,1.2,0,0,0,1.008-1.369c-1.762-12.758,7.275-33.746,9.662-39A3.415,3.415,0,0,1,161.738,386.17Z" transform="translate(-51.4 -174.331)" fill="#f5ca56"/>
    <path id="Trazado_132737" data-name="Trazado 132737" d="M157.14,357.14l-1.07,10.928s6.154,1.855,10.624-1.3l-3.142-9.936Z" transform="translate(-72.802 -165.503)" fill="url(#linear-gradient-19)"/>
    <path id="Trazado_132738" data-name="Trazado 132738" d="M164.393,332.88c.145.139,6.247,12.117,6.247,12.117l-6.914,3.338-7.466-10.494S161.892,330.55,164.393,332.88Z" transform="translate(-72.894 -153.707)" fill="url(#linear-gradient-20)"/>
    <path id="Trazado_132739" data-name="Trazado 132739" d="M155.523,333.51a1.1,1.1,0,0,0,.083.971l3.462,5.746a1.177,1.177,0,0,0,.186.238c.413.382,1.819,1.493,2.9,0a9.661,9.661,0,0,1,2.723-2.945,1.1,1.1,0,0,1,1.488.491,40.436,40.436,0,0,1,2.341,5.591,1.1,1.1,0,0,1-.636,1.343,30.392,30.392,0,0,1-6.624,1.932,1.09,1.09,0,0,1-1.033-.444c-1.033-1.447-4.035-5.487-5.053-6.5-.94-.94-2.682-.584-3.467-.362a1.106,1.106,0,0,1-.884-.114,2.432,2.432,0,0,1-.915-3.7,1.106,1.106,0,0,0-.341-1.5,2.441,2.441,0,0,1-.935-3.462,3.455,3.455,0,0,1,3.725-1.819,1.142,1.142,0,0,0,1.2-.672.734.734,0,0,1,.574-.444,1.075,1.075,0,0,0,.863-1.261,2.832,2.832,0,0,1,1.576-3.235c2.987-1.638,5.6,1.033,6.262,3.286s-2.671,3.849-4.769,4.134C156.707,330.952,155.859,332.631,155.523,333.51Z" transform="translate(-69.119 -149.087)" fill="url(#linear-gradient-21)"/>
    <path id="Trazado_132740" data-name="Trazado 132740" d="M159.625,356.5s-1.328-3.881-3.023-3.736-3.033,1.834-.93,3.736C158.287,358.838,159.625,356.5,159.625,356.5Z" transform="translate(-72.089 -163.538)" fill="url(#linear-gradient-22)"/>
    <path id="Trazado_132741" data-name="Trazado 132741" d="M135.164,404.435c-2.237-6.123-1.426-13.522-1.416-13.595l.615.072c0,.072-.8,7.327,1.385,13.31Z" transform="translate(-61.941 -181.94)" fill="url(#linear-gradient-23)"/>
    <path id="Trazado_132742" data-name="Trazado 132742" d="M160.77,501.612a.31.31,0,0,1-.3-.233c-.687-2.635-5.8-5.529-5.849-5.555a.311.311,0,0,1,.3-.543c.217.124,5.394,3.054,6.144,5.942a.31.31,0,0,1-.222.377Z" transform="translate(-72.026 -232.397)" fill="url(#linear-gradient-24)"/>
    <path id="Trazado_132743" data-name="Trazado 132743" d="M213.183,390.365c-11.585,1.741-19.118-5.57-24.755-10-7.43-5.849-13.207-3.007-13.207-3.007l7.921,15.114c11.827,11.151,23.955,8.676,31.6,5.064a14.768,14.768,0,0,0-1.555-7.167Z" transform="translate(-93.221 -175.089)" fill="#f5ca56"/>
    <path id="Trazado_132744" data-name="Trazado 132744" d="M264.966,389.81l-3.839,2.067a33.532,33.532,0,0,1-12.437,4.842,14.768,14.768,0,0,1,1.55,7.172,35.423,35.423,0,0,0,7.921-5.064C266.868,393.639,264.966,389.81,264.966,389.81Z" transform="translate(-132.791 -181.442)" fill="url(#linear-gradient-25)"/>
    <path id="Trazado_132745" data-name="Trazado 132745" d="M286.992,391.605a2.832,2.832,0,0,0-1.653-1.814l-7.8-3.136s-.119-1,1.648-1.679a2.339,2.339,0,0,0,1.349-2.656s-2.408,1.1-5.937,2.847a8.267,8.267,0,0,0-3.751,4.082l2,2.64a35.689,35.689,0,0,0,14.571,1.147Z" transform="translate(-144.892 -177.823)" fill="url(#linear-gradient-26)"/>
    <path id="Trazado_132746" data-name="Trazado 132746" d="M716,470.584a6.17,6.17,0,0,1-8.133-3.157L686.686,419.42a5.43,5.43,0,0,1,2.532-7.048l68.04-34.232a4,4,0,0,1,5.436,1.9l25.262,54.585a3.808,3.808,0,0,1-1.917,5.079Z" transform="translate(-387.202 -175.596)" fill="url(#linear-gradient-27)"/>
    <path id="Trazado_132747" data-name="Trazado 132747" d="M711.555,472.482a1.8,1.8,0,0,1-2.459-1.142c-2-6.945-9.187-30.7-18.839-48.71a1.659,1.659,0,0,1,.713-2.263l68.3-34.557a1.912,1.912,0,0,1,2.558.832c3.922,7.637,19.95,39.13,23.82,51.154a1.514,1.514,0,0,1-.822,1.839Z" transform="translate(-389.056 -179.41)" fill="url(#linear-gradient-28)"/>
    <path id="Trazado_132748" data-name="Trazado 132748" d="M715.044,472.567a1.726,1.726,0,0,1-2.361-1.1c-1.927-6.686-8.846-29.551-18.131-46.881a1.591,1.591,0,0,1,.682-2.175l65.7-33.24a1.834,1.834,0,0,1,2.46.8c3.772,7.342,19.2,37.653,22.921,49.247a1.457,1.457,0,0,1-.791,1.772Z" transform="translate(-391.135 -181.04)" fill="#fff" opacity="0.6"/>
    <path id="Trazado_132749" data-name="Trazado 132749" d="M705.726,441.539l-.641.284a1.38,1.38,0,0,1-1.814-.7l-4.134-9.358a1.369,1.369,0,0,1,.258-1.5l1.1-1.152a1.374,1.374,0,0,1,2.294.481l3.669,10.231a1.374,1.374,0,0,1-.729,1.721Z" transform="translate(-377.825 -200.226)" fill="url(#linear-gradient-29)"/>
    <path id="Trazado_132750" data-name="Trazado 132750" d="M730.526,428.968l-.641.279a1.38,1.38,0,0,1-1.814-.7l-4.134-9.358a1.369,1.369,0,0,1,.258-1.5l1.1-1.152a1.38,1.38,0,0,1,2.294.481l3.669,10.231A1.374,1.374,0,0,1,730.526,428.968Z" transform="translate(-391.334 -194.15)" fill="url(#linear-gradient-30)"/>
    <path id="Trazado_132751" data-name="Trazado 132751" d="M764.406,414.048l-.641.279a1.369,1.369,0,0,1-1.814-.7l-4.134-9.352a1.369,1.369,0,0,1,.258-1.5l1.1-1.157a1.374,1.374,0,0,1,2.3.512l3.669,10.226A1.38,1.38,0,0,1,764.406,414.048Z" transform="translate(-409.79 -186.939)" fill="url(#linear-gradient-31)"/>
    <path id="Trazado_132752" data-name="Trazado 132752" d="M797.476,397.275l-.641.284a1.38,1.38,0,0,1-1.814-.708l-4.134-9.352a1.369,1.369,0,0,1,.258-1.5l1.1-1.157a1.375,1.375,0,0,1,2.294.486l3.669,10.226A1.369,1.369,0,0,1,797.476,397.275Z" transform="translate(-437.728 -178.832)" fill="url(#linear-gradient-32)"/>
    <path id="Trazado_132753" data-name="Trazado 132753" d="M779.774,436.953,781.9,441.8a1.452,1.452,0,0,0,1.932.734l4.94-2.273a1.447,1.447,0,0,0,.718-1.9l-2.248-5.1a1.447,1.447,0,0,0-1.995-.7l-4.831,2.516a1.457,1.457,0,0,0-.641,1.87Z" transform="translate(-432.354 -202.026)" fill="#fff" opacity="0.72"/>
    <path id="Trazado_132754" data-name="Trazado 132754" d="M748.435,459.81l4.94-2.274a1.447,1.447,0,0,0,.723-1.9l-1.912-4.335a1.447,1.447,0,0,0-1.984-.708l-4.852,2.48a1.447,1.447,0,0,0-.667,1.876l1.824,4.134a1.447,1.447,0,0,0,1.927.729Z" transform="translate(-402.832 -210.741)" fill="#fff" opacity="0.72"/>
    <path id="Trazado_132755" data-name="Trazado 132755" d="M774.465,505.951l-4.707,2.139a1.581,1.581,0,0,0-.791,2.067l1.953,4.433a1.586,1.586,0,0,0,2.067.822l4.774-1.984a1.586,1.586,0,0,0,.842-2.1l-2.026-4.588a1.581,1.581,0,0,0-2.113-.791Z" transform="translate(-416.086 -237.501)" fill="#fff" opacity="0.72"/>
    <path id="Trazado_132756" data-name="Trazado 132756" d="M760.538,519.2l-1.912-4.335a1.55,1.55,0,0,0-2.067-.785l-4.759,2.165a1.55,1.55,0,0,0-.775,2.067l1.839,4.175a1.55,1.55,0,0,0,2.02.811l4.826-2.01a1.55,1.55,0,0,0,.827-2.087Z" transform="translate(-406.291 -241.431)" fill="#fff" opacity="0.72"/>
    <path id="Trazado_132757" data-name="Trazado 132757" d="M744.2,482l-1.55-3.56a1.674,1.674,0,0,0-2.243-.837l-4.516,2.119a1.664,1.664,0,0,0-.822,2.186l1.5,3.4a1.664,1.664,0,0,0,2.186.863l4.588-1.958A1.669,1.669,0,0,0,744.2,482Z" transform="translate(-397.557 -223.794)" fill="#fff" opacity="0.72"/>
    <path id="Trazado_132758" data-name="Trazado 132758" d="M752.19,500.3l-2.4-5.441a1.55,1.55,0,0,0-2.031-.8l-4.712,2a1.674,1.674,0,0,0-.873,2.217l2.423,5.5a1.55,1.55,0,0,0,2.067.78l4.733-2.212a1.55,1.55,0,0,0,.791-2.051Z" transform="translate(-401.514 -231.766)" fill="#fff" opacity="0.72"/>
    <path id="Trazado_132759" data-name="Trazado 132759" d="M766.171,451.231l4.94-2.274a1.436,1.436,0,0,0,.723-1.9l-2.067-4.728a1.447,1.447,0,0,0-1.984-.7l-4.852,2.475a1.452,1.452,0,0,0-.667,1.876l1.995,4.516a1.447,1.447,0,0,0,1.912.734Z" transform="translate(-412.43 -206.41)" fill="#fff" opacity="0.72"/>
    <path id="Trazado_132760" data-name="Trazado 132760" d="M770.148,492.259l-2.243-5.09a1.586,1.586,0,0,0-2.067-.816l-4.738,2.031a1.581,1.581,0,0,0-.827,2.093l2.31,5.245a1.581,1.581,0,0,0,2.118.8l4.687-2.186A1.581,1.581,0,0,0,770.148,492.259Z" transform="translate(-411.37 -228.04)" fill="#fff" opacity="0.72"/>
    <path id="Trazado_132761" data-name="Trazado 132761" d="M776.334,460.547l-5.374,2.516a1.2,1.2,0,0,0-.589,1.55l2.155,4.893a1.2,1.2,0,0,0,1.55.62l5.456-2.33a1.194,1.194,0,0,0,.625-1.586l-2.237-5.084A1.2,1.2,0,0,0,776.334,460.547Z" transform="translate(-416.879 -215.576)" fill="#fff" opacity="0.72"/>
    <path id="Trazado_132762" data-name="Trazado 132762" d="M788.378,456.641l2.067,4.65a1.5,1.5,0,0,0,1.969.78L797.307,460a1.509,1.509,0,0,0,.791-1.994l-2.139-4.852a1.514,1.514,0,0,0-2.02-.76l-4.821,2.258a1.514,1.514,0,0,0-.739,1.984Z" transform="translate(-436.51 -211.623)" fill="#fff" opacity="0.72"/>
    <path id="Trazado_132763" data-name="Trazado 132763" d="M756.122,478.213l5.462-2.33a1.2,1.2,0,0,0,.625-1.586l-2.1-4.764a1.2,1.2,0,0,0-1.607-.6l-5.374,2.516a1.2,1.2,0,0,0-.589,1.55l2.015,4.573A1.2,1.2,0,0,0,756.122,478.213Z" transform="translate(-407.15 -219.627)" fill="#fff" opacity="0.72"/>
    <path id="Trazado_132764" data-name="Trazado 132764" d="M783.911,478.622l-4.759,2.031a1.586,1.586,0,0,0-.827,2.093l2.18,4.94a1.576,1.576,0,0,0,2.113.8l4.692-2.186a1.55,1.55,0,0,0,.775-2.067l-2.108-4.785a1.581,1.581,0,0,0-2.067-.822Z" transform="translate(-431.65 -224.303)" fill="#fff" opacity="0.72"/>
    <path id="Trazado_132765" data-name="Trazado 132765" d="M802.116,470.774l-5.09,2.17a1.4,1.4,0,0,0-.729,1.855l2.191,4.971a1.4,1.4,0,0,0,1.87.708l5.017-2.341a1.4,1.4,0,0,0,.692-1.834l-2.124-4.805A1.4,1.4,0,0,0,802.116,470.774Z" transform="translate(-440.342 -220.517)" fill="#fff" opacity="0.72"/>
    <path id="Trazado_132766" data-name="Trazado 132766" d="M731.5,468.083l3.746-1.726a2.015,2.015,0,0,0,1-2.635l-1.374-3.1a1.8,1.8,0,0,0-2.454-.873l-4.092,2.1a1.963,1.963,0,0,0-.9,2.542l1.147,2.584a2.2,2.2,0,0,0,2.93,1.106Z" transform="translate(-393.356 -215.15)" fill="#fff" opacity="0.72"/>
    <path id="Trazado_132767" data-name="Trazado 132767" d="M742.976,523.156a1.669,1.669,0,0,0-2.222-.847l-1.638.744a2.314,2.314,0,0,0-1.416,2.9l1.328,3.007a2.312,2.312,0,0,0,3.069.925l1.783-.744a1.55,1.55,0,0,0,.827-2.067Z" transform="translate(-398.793 -245.405)" fill="#fff" opacity="0.72"/>
    <path id="Trazado_132768" data-name="Trazado 132768" d="M844.627,474.571l-3.219,1.462a1.581,1.581,0,0,0-.791,2.067l2.485,5.642a1.586,1.586,0,0,0,2.067.822l3.25-1.354a2.325,2.325,0,0,0,1.509-2.935l-2.134-4.842A2.344,2.344,0,0,0,844.627,474.571Z" transform="translate(-461.756 -222.278)" fill="#fff" opacity="0.72"/>
    <path id="Trazado_132769" data-name="Trazado 132769" d="M733.986,511.2l1.586-.739a1.674,1.674,0,0,0,.827-2.191l-2.439-5.534a1.674,1.674,0,0,0-2.191-.863l-1.622.692a2.323,2.323,0,0,0-1.478,2.925l2.134,4.842A2.329,2.329,0,0,0,733.986,511.2Z" transform="translate(-393.94 -235.536)" fill="#fff" opacity="0.72"/>
    <path id="Trazado_132770" data-name="Trazado 132770" d="M725.854,492.823l2.031-.868a1.266,1.266,0,0,0,.661-1.674l-1.762-3.989a1.261,1.261,0,0,0-1.695-.636l-2.02.946a2.3,2.3,0,0,0-1.38,2.883l1.07,2.434A2.319,2.319,0,0,0,725.854,492.823Z" transform="translate(-390.056 -227.706)" fill="#fff" opacity="0.72"/>
    <path id="Trazado_132771" data-name="Trazado 132771" d="M818.718,416.068l-3.157,1.617a1.5,1.5,0,0,0-.692,1.948l2.454,5.575a1.509,1.509,0,0,0,2.01.76l3.317-1.524a2.309,2.309,0,0,0,1.405-2.888l-2.067-4.65A2.332,2.332,0,0,0,818.718,416.068Z" transform="translate(-449.312 -193.977)" fill="#fff" opacity="0.72"/>
    <path id="Trazado_132772" data-name="Trazado 132772" d="M792.38,497.809l-4.712,2.144a1.581,1.581,0,0,0-.791,2.067l2.067,4.733a1.581,1.581,0,0,0,2.067.822l4.774-1.984a1.586,1.586,0,0,0,.842-2.1l-2.16-4.893a1.576,1.576,0,0,0-2.088-.791Z" transform="translate(-435.784 -233.57)" fill="#fff" opacity="0.72"/>
    <path id="Trazado_132773" data-name="Trazado 132773" d="M828.014,437.008l-3.255,1.55a1.509,1.509,0,0,0-.739,1.974l2.341,5.3a1.5,1.5,0,0,0,1.969.78l3.323-1.421a2.325,2.325,0,0,0,1.478-2.925l-1.948-4.366A2.284,2.284,0,0,0,828.014,437.008Z" transform="translate(-453.736 -204.118)" fill="#fff" opacity="0.72"/>
    <path id="Trazado_132774" data-name="Trazado 132774" d="M836.662,456.548l-3.457,1.473a1.411,1.411,0,0,0-.734,1.855l1.927,4.366a1.4,1.4,0,0,0,1.907.692l3.41-1.591a2.3,2.3,0,0,0,1.39-2.883l-1.328-3.012A2.354,2.354,0,0,0,836.662,456.548Z" transform="translate(-457.826 -213.582)" fill="#fff" opacity="0.72"/>
    <path id="Trazado_132775" data-name="Trazado 132775" d="M814.384,467.049l2.067,4.65a1.405,1.405,0,0,0,1.876.7l5.017-2.341a1.4,1.4,0,0,0,.687-1.834l-1.984-4.5a1.4,1.4,0,0,0-1.834-.723l-5.084,2.17a1.405,1.405,0,0,0-.744,1.876Z" transform="translate(-449.081 -216.761)" fill="#fff" opacity="0.72"/>
    <path id="Trazado_132776" data-name="Trazado 132776" d="M828.2,481.521l-4.707,2.139a1.581,1.581,0,0,0-.8,2.067l2.356,5.343a1.586,1.586,0,0,0,2.067.822l4.774-1.984a1.586,1.586,0,0,0,.837-2.1l-2.418-5.493a1.581,1.581,0,0,0-2.113-.791Z" transform="translate(-453.096 -225.694)" fill="#fff" opacity="0.72"/>
    <path id="Trazado_132777" data-name="Trazado 132777" d="M718.26,475.334l1.963-.9a1.266,1.266,0,0,0,.63-1.664l-1.731-3.906a1.261,1.261,0,0,0-1.731-.615l-2.041,1.033a2.279,2.279,0,0,0-1.292,2.837l1.033,2.33A2.321,2.321,0,0,0,718.26,475.334Z" transform="translate(-385.894 -219.284)" fill="#fff" opacity="0.72"/>
    <path id="Trazado_132778" data-name="Trazado 132778" d="M810.309,489.667l-4.625,2.1a1.674,1.674,0,0,0-.837,2.2l2.186,4.955a1.581,1.581,0,0,0,2.067.822l4.774-1.984a1.576,1.576,0,0,0,.837-2.1l-2.284-5.167a1.586,1.586,0,0,0-2.118-.827Z" transform="translate(-444.464 -229.633)" fill="#fff" opacity="0.72"/>
    <path id="Trazado_132779" data-name="Trazado 132779" d="M797.321,427.994l2.284,5.167a1.509,1.509,0,0,0,2.01.76l4.836-2.222a1.514,1.514,0,0,0,.749-1.979l-2.356-5.369a1.514,1.514,0,0,0-2.067-.734l-4.743,2.423a1.5,1.5,0,0,0-.713,1.953Z" transform="translate(-440.834 -197.702)" fill="#fff" opacity="0.72"/>
    <path id="Trazado_132780" data-name="Trazado 132780" d="M806.193,448.281l2.2,4.981a1.514,1.514,0,0,0,1.974.78l4.893-2.093a1.509,1.509,0,0,0,.785-1.994l-2.268-5.167a1.514,1.514,0,0,0-2.02-.76l-4.821,2.258A1.509,1.509,0,0,0,806.193,448.281Z" transform="translate(-445.117 -207.578)" fill="#fff" opacity="0.72"/>
    <path id="Trazado_132781" data-name="Trazado 132781" d="M711.885,460.9l.982,1.524a1.173,1.173,0,0,0,1.468.439l.078-.031a1.178,1.178,0,0,0,.6-1.55l-.739-1.679a1.173,1.173,0,0,0-1.69-.517l-.32.191a1.183,1.183,0,0,0-.377,1.622Z" transform="translate(-384.375 -214.837)" fill="#fff"/>
    <path id="Trazado_132782" data-name="Trazado 132782" d="M726.114,453.276l.982,1.524a1.183,1.183,0,0,0,1.468.439l.077-.036a1.178,1.178,0,0,0,.6-1.55l-.744-1.679a1.178,1.178,0,0,0-1.69-.517l-.326.2A1.183,1.183,0,0,0,726.114,453.276Z" transform="translate(-392.119 -211.152)" fill="#fff"/>
    <path id="Trazado_132783" data-name="Trazado 132783" d="M744.21,445.131l.977,1.524a1.183,1.183,0,0,0,1.467.439l.078-.036a1.168,1.168,0,0,0,.6-1.55l-.739-1.684a1.183,1.183,0,0,0-1.695-.517l-.315.2a1.173,1.173,0,0,0-.377,1.628Z" transform="translate(-401.964 -207.213)" fill="#fff"/>
    <path id="Trazado_132784" data-name="Trazado 132784" d="M761.361,436.185l.977,1.519a1.183,1.183,0,0,0,1.467.444l.078-.036a1.178,1.178,0,0,0,.6-1.55l-.739-1.679a1.183,1.183,0,0,0-1.695-.517l-.315.191a1.178,1.178,0,0,0-.377,1.628Z" transform="translate(-411.3 -202.892)" fill="#fff"/>
    <path id="Trazado_132785" data-name="Trazado 132785" d="M778.283,425.506l.982,1.519a1.178,1.178,0,0,0,1.467.444l.078-.036a1.178,1.178,0,0,0,.6-1.55l-.739-1.679a1.178,1.178,0,0,0-1.69-.517l-.32.191A1.183,1.183,0,0,0,778.283,425.506Z" transform="translate(-431.608 -197.73)" fill="#fff"/>
    <path id="Trazado_132786" data-name="Trazado 132786" d="M797.525,417.016l.982,1.524a1.183,1.183,0,0,0,1.467.439l.078-.031a1.183,1.183,0,0,0,.6-1.55l-.744-1.684a1.178,1.178,0,0,0-1.69-.517l-.315.2a1.178,1.178,0,0,0-.382,1.622Z" transform="translate(-440.908 -193.627)" fill="#fff"/>
    <path id="Trazado_132787" data-name="Trazado 132787" d="M813.453,409.131l.982,1.524a1.183,1.183,0,0,0,1.467.439l.078-.036a1.173,1.173,0,0,0,.6-1.55l-.744-1.685a1.178,1.178,0,0,0-1.69-.517l-.315.2a1.178,1.178,0,0,0-.382,1.628Z" transform="translate(-448.605 -189.814)" fill="#fff"/>
    <path id="Trazado_132788" data-name="Trazado 132788" d="M800.72,460a.434.434,0,0,0-.791,0,6.266,6.266,0,0,0-.325,3.1c.031,1.219.088,2.439.2,3.653a31.58,31.58,0,0,0,.579,3.813A26.517,26.517,0,0,0,796.7,467.5c-.351-.243-.822.212-.517.558,1.721,1.995,3.565,3.875,5.25,5.9a.8.8,0,0,0,1.338-.822,29.049,29.049,0,0,1-1.421-6.893c-.1-1.121-.15-2.248-.181-3.374A6.237,6.237,0,0,0,800.72,460Z" transform="translate(-440.3 -215.242)" fill="url(#linear-gradient-33)"/>
    <path id="Trazado_132789" data-name="Trazado 132789" d="M798.429,462.391a.574.574,0,0,0,.171,1.132c4.857-.1,7.72,4.65,6.2,9.032a22.221,22.221,0,0,1-3.229,5.684,10.788,10.788,0,0,1-4.94,4.1c-4.836,1.69-7.658-2.718-7.968-6.991a14.3,14.3,0,0,1,4.17-11.042c.372-.377-.145-1.033-.517-.646a16.167,16.167,0,0,0-4.733,10.133c-.284,3.519.594,7.885,3.968,9.714,3.5,1.886,7.6.036,10.1-2.584,2.759-2.9,5.818-7.317,5.5-11.512C806.815,464.985,802.945,461.234,798.429,462.391Z" transform="translate(-436.165 -216.418)" fill="url(#linear-gradient-34)"/>
    <path id="Trazado_132790" data-name="Trazado 132790" d="M758.116,469.244a9.6,9.6,0,0,0-1.917-3.059c-.3-.269-.7.083-.677.413a8.938,8.938,0,0,0,1.08,3.028c.212.465.517.966.749,1.478-1.261-1.354-2.945-2.925-4.924-2.863s-3.617,1.6-4.867,3.054c-2.919,3.41-4.33,7.787-6.826,11.471-1.5,2.217-4.035,4.557-6.645,2.4-1.85-1.55-2.64-4.423-2.873-6.717a16.281,16.281,0,0,1,3.994-12.2c.212-.243-.181-.62-.413-.393a15.63,15.63,0,0,0-4.6,11.3c0,3.519,1.147,9.208,5.229,10.128,4.454,1.008,7.208-4.692,8.872-7.849a44.7,44.7,0,0,1,3.839-6.531,8.6,8.6,0,0,1,3.312-2.956c1.891-.739,3.514.966,4.65,2.258a.873.873,0,0,0,1.5-.574,5.919,5.919,0,0,1,.31.822c-1.426.594-3.359.052-4.542,1.188a.284.284,0,0,0,.145.517c1.607.186,4.2.315,5.617-.548a.837.837,0,0,0,.465-.842A12.559,12.559,0,0,0,758.116,469.244Z" transform="translate(-396.894 -218.16)" fill="url(#linear-gradient-35)"/>
    <path id="Trazado_132791" data-name="Trazado 132791" d="M818.756,447.075a1.147,1.147,0,0,0,.8-.32l15.677-14.85a7.291,7.291,0,0,1,5.028-2h53.371a1.157,1.157,0,0,0,0-2.31H840.256a9.58,9.58,0,0,0-6.614,2.64l-15.677,14.85a1.157,1.157,0,0,0,.791,1.994Z" transform="translate(-450.699 -199.701)" fill="url(#linear-gradient-36)"/>
    <path id="Trazado_132792" data-name="Trazado 132792" d="M876.29,416.04h45.176a1.157,1.157,0,0,0,0-2.31H876.29a1.157,1.157,0,0,0,0,2.31Z" transform="translate(-478.538 -193.003)" fill="url(#linear-gradient-37)"/>
    <path id="Trazado_132793" data-name="Trazado 132793" d="M890.375,402.177H928.2a1.157,1.157,0,0,0,0-2.31H890.375a1.157,1.157,0,1,0,0,2.31Z" transform="translate(-485.271 -186.302)" fill="url(#linear-gradient-38)"/>
    <circle id="Elipse_4382" data-name="Elipse 4382" cx="23.546" cy="23.546" r="23.546" transform="matrix(0.95, -0.313, 0.313, 0.95, 278.376, 250.186)" fill="url(#linear-gradient-39)"/>
    <g id="Grupo_56160" data-name="Grupo 56160" transform="translate(285.58 242.274)" opacity="0.8">
      <path id="Trazado_132794" data-name="Trazado 132794" d="M650.846,501.262a22.916,22.916,0,1,1,22.916-22.916,22.916,22.916,0,0,1-22.916,22.916Zm0-45.4a22.482,22.482,0,1,0,22.482,22.482,22.482,22.482,0,0,0-22.482-22.482Z" transform="translate(-627.93 -455.43)" fill="#fff"/>
      <path id="Trazado_132795" data-name="Trazado 132795" d="M635.26,481.9a19.118,19.118,0,1,1,19.118,19.118A19.118,19.118,0,0,1,635.26,481.9Zm1.178,0a17.95,17.95,0,1,0,17.949-17.945A17.95,17.95,0,0,0,636.438,481.9Z" transform="translate(-631.473 -458.982)" fill="#fff"/>
      <path id="Trazado_132796" data-name="Trazado 132796" d="M670.667,485.756h1.891a.444.444,0,0,0,.465-.408v-1.292a4.4,4.4,0,0,0-4.408-4.361h-2.521v-1.762c0-.4-.486-.723-1.085-.723s-1.08.326-1.08.723v1.752h-2.491A4.428,4.428,0,0,0,657,484.046V486.4a4.392,4.392,0,0,0,4.439,4.32h2.491v4.547h-2.491a1.6,1.6,0,0,1-1.622-1.6v-.109a.455.455,0,0,0-.429-.46h-1.87a.517.517,0,0,0-.517.46v.109a4.289,4.289,0,0,0,4.439,4.2h2.49v1.969c0,.4.486.718,1.08.718s1.085-.32,1.085-.718V497.9h2.522a4.263,4.263,0,0,0,4.4-4.216v-1.276a4.511,4.511,0,0,0-4.408-4.49h-2.516v-5.627h2.521a1.726,1.726,0,0,1,1.591,1.762v1.312A.439.439,0,0,0,670.667,485.756Zm-2.067,4.981a1.643,1.643,0,0,1,1.591,1.674v1.276a1.576,1.576,0,0,1-1.591,1.6h-2.506v-4.547Zm-4.687-2.816h-2.491a1.55,1.55,0,0,1-1.622-1.5v-2.361a1.752,1.752,0,0,1,1.622-1.762h2.491Z" transform="translate(-641.979 -465.956)" fill="#fff"/>
    </g>
    <circle id="Elipse_4383" data-name="Elipse 4383" cx="15.543" cy="15.543" r="15.543" transform="matrix(0.989, -0.149, 0.149, 0.989, 318.528, 292.642)" fill="url(#linear-gradient-40)"/>
    <g id="Grupo_56161" data-name="Grupo 56161" transform="translate(321.249 290.566)" opacity="0.8">
      <path id="Trazado_132797" data-name="Trazado 132797" d="M718.854,579.138a15.124,15.124,0,1,1,15.124-15.124,15.124,15.124,0,0,1-15.124,15.124Zm0-29.969a14.5,14.5,0,1,1,0,.005Z" transform="translate(-703.73 -548.89)" fill="#fff"/>
      <path id="Trazado_132798" data-name="Trazado 132798" d="M708.61,566.344a12.628,12.628,0,1,1,12.6,12.623,12.628,12.628,0,0,1-12.6-12.623Zm.78,0A11.848,11.848,0,1,0,721.213,554.5,11.848,11.848,0,0,0,709.39,566.344Z" transform="translate(-706.088 -551.219)" fill="#fff"/>
      <path id="Trazado_132799" data-name="Trazado 132799" d="M732,568.9h1.25a.3.3,0,0,0,.31-.269v-.858a2.909,2.909,0,0,0-2.914-2.878h-1.659v-1.163c0-.263-.326-.475-.718-.475s-.713.212-.713.475V564.9h-1.643A2.919,2.919,0,0,0,723,567.776v1.55a2.9,2.9,0,0,0,2.93,2.852h1.643v3H725.93a1.064,1.064,0,0,1-1.075-1.033v-.072a.3.3,0,0,0-.279-.3h-1.25a.341.341,0,0,0-.325.3v.072a2.832,2.832,0,0,0,2.93,2.77h1.643v1.276c0,.258.32.475.713.475s.718-.217.718-.475v-1.276h1.659a2.816,2.816,0,0,0,2.914-2.77V573.3a2.976,2.976,0,0,0-2.914-2.961H729v-3.715h1.659a1.137,1.137,0,0,1,1.033,1.163v.853A.289.289,0,0,0,732,568.9Zm-1.354,3.286a1.085,1.085,0,0,1,1.034,1.106v.842a1.033,1.033,0,0,1-1.033,1.033h-1.659v-3Zm-3.1-1.855H725.9a1.033,1.033,0,0,1-1.075-1v-1.55a1.157,1.157,0,0,1,1.075-1.163h1.643Z" transform="translate(-713.043 -555.835)" fill="#fff"/>
    </g>
    <g id="Grupo_56162" data-name="Grupo 56162" transform="translate(27.24 53.385)" opacity="0.6">
      <path id="Trazado_132800" data-name="Trazado 132800" d="M75.573,165.457a.971.971,0,0,1-.176,0l-6.076-.765a1.457,1.457,0,0,1-1.245-1.137l-.951-4.439a23.251,23.251,0,0,1-5.575-3.142l-4.289,1.483a1.452,1.452,0,0,1-1.617-.481l-3.777-4.816a1.442,1.442,0,0,1-.072-1.684l2.465-3.813a23.252,23.252,0,0,1-1.726-6.159l-4.077-1.984a1.452,1.452,0,0,1-.806-1.483l.734-6.076a1.462,1.462,0,0,1,1.137-1.245l4.439-.946a23.128,23.128,0,0,1,3.167-5.575L55.648,118.9a1.447,1.447,0,0,1,.475-1.617l4.816-3.772a1.452,1.452,0,0,1,1.684-.078l3.8,2.465a23.055,23.055,0,0,1,6.159-1.721L74.57,110.1a1.462,1.462,0,0,1,1.483-.806l6.076.739a1.452,1.452,0,0,1,1.245,1.137l.951,4.433a23.149,23.149,0,0,1,5.57,3.147l4.294-1.483a1.457,1.457,0,0,1,1.617.475l3.777,4.816a1.462,1.462,0,0,1,.072,1.684l-2.465,3.813a23.149,23.149,0,0,1,1.721,6.164l4.082,1.984a1.447,1.447,0,0,1,.806,1.478l-.754,6.077A1.442,1.442,0,0,1,101.909,145l-4.433.951a23.107,23.107,0,0,1-3.147,5.555l1.483,4.289a1.447,1.447,0,0,1-.475,1.617l-4.816,3.777a1.452,1.452,0,0,1-1.684.077l-3.808-2.444a23.288,23.288,0,0,1-6.164,1.721L76.88,164.62a1.442,1.442,0,0,1-1.307.837ZM70,162.713l5.208.61,2.289-4.7.563-.062a21.154,21.154,0,0,0,6.614-1.85l.517-.238,4.4,2.842,4.134-3.235-1.71-4.95.357-.444a21.108,21.108,0,0,0,3.374-5.978l.2-.517,5.115-1.1.63-5.208L96.98,135.6l-.062-.568a21.144,21.144,0,0,0-1.845-6.614l-.243-.517,2.842-4.4-3.235-4.134-4.945,1.71-.444-.362a21.3,21.3,0,0,0-5.978-3.374l-.517-.191-1.142-5.126-5.167-.63-2.289,4.7-.563.062a21.247,21.247,0,0,0-6.614,1.845l-.517.243-4.4-2.842-4.134,3.235,1.695,4.96-.357.444a21.185,21.185,0,0,0-3.374,5.983l-.2.517-5.09,1.1-.63,5.2,4.707,2.289.062.568a21.113,21.113,0,0,0,1.819,6.629l.243.517-2.847,4.392L57,155.381l4.945-1.71.444.357A21.186,21.186,0,0,0,68.37,157.4l.517.2Zm-19.563-31.5Zm-1.033-.124Zm26.445,22.007a16.232,16.232,0,0,1-1.932-.119,15.837,15.837,0,0,1-7.787-3.2,1.035,1.035,0,0,1,1.271-1.633,13.677,13.677,0,1,0-5.255-9.554,1.038,1.038,0,0,1-2.067.186,15.8,15.8,0,1,1,15.765,14.344Z" transform="translate(-47.639 -99.25)" fill="#fff"/>
      <path id="Trazado_132801" data-name="Trazado 132801" d="M95.959,164.037a6.469,6.469,0,0,1-6.03-8.784h0a6.469,6.469,0,1,1,6.03,8.784Zm-4.134-8.05a4.376,4.376,0,1,0,2.316-2.446,4.4,4.4,0,0,0-2.316,2.446Z" transform="translate(-67.87 -119.46)" fill="#fff"/>
      <path id="Trazado_132802" data-name="Trazado 132802" d="M170.679,116.619a.971.971,0,0,1-.744-.346l-1.318-1.55a11.254,11.254,0,0,1-2.857-.067l-1.4,1.488a.982.982,0,0,1-1.111.233l-2.692-1.188a.977.977,0,0,1-.579-.977l.165-2.025a11.687,11.687,0,0,1-1.974-2.067l-2.031.077a.982.982,0,0,1-.951-.625l-1.064-2.744a.971.971,0,0,1,.284-1.1l1.55-1.318a11.5,11.5,0,0,1,.067-2.857l-1.483-1.38a.982.982,0,0,1-.233-1.111l1.194-2.7a.982.982,0,0,1,.971-.574l2.026.165a11.481,11.481,0,0,1,2.067-1.969l-.077-2.036a.987.987,0,0,1,.625-.951l2.728-1.07a.971.971,0,0,1,1.1.279l1.312,1.55a11.745,11.745,0,0,1,2.857.067l1.38-1.493a.977.977,0,0,1,1.111-.227L174.3,91.3a.977.977,0,0,1,.584.971l-.171,2.025a11.688,11.688,0,0,1,1.974,2.067l2.031-.078a.992.992,0,0,1,.951.625l1.064,2.744a.987.987,0,0,1-.279,1.1l-1.55,1.312a11.248,11.248,0,0,1-.072,2.852l1.493,1.38a.982.982,0,0,1,.227,1.116l-1.183,2.692a.987.987,0,0,1-.977.579l-2.025-.171a11.688,11.688,0,0,1-2.067,1.974l.078,2.031a.982.982,0,0,1-.625.951l-2.744,1.064A1.033,1.033,0,0,1,170.679,116.619ZM163.244,115.069Zm6.009-2.02,1.6,1.886,1.984-.765-.093-2.475.351-.238a10,10,0,0,0,2.325-2.222l.258-.341,2.46.207.858-1.943-1.814-1.679.083-.424a9.978,9.978,0,0,0,.072-3.209l-.062-.424,1.886-1.6-.765-1.984-2.475.093-.238-.351a10,10,0,0,0-2.222-2.325l-.341-.253.207-2.465-1.943-.858L169.7,93.5l-.419-.077a9.693,9.693,0,0,0-3.209-.072l-.424.057-1.6-1.886-1.984.77.093,2.47-.351.243a9.869,9.869,0,0,0-2.325,2.217l-.253.341-2.465-.207-.858,1.948,1.814,1.679-.083.419a9.817,9.817,0,0,0-.067,3.209l.057.424-1.886,1.6.77,1.979,2.47-.093.238.351a10,10,0,0,0,2.222,2.325l.341.258-.207,2.46,1.943.858,1.684-1.814.419.083a9.978,9.978,0,0,0,3.209.072Zm10.04-5.617ZM156.356,97.341ZM156.93,97ZM173.7,92.727ZM171,91.538Zm-6.573-.15Zm-.646-.165Zm3.72,19.888a7.885,7.885,0,0,1-6.428-3.328.78.78,0,0,1,.186-1.08.77.77,0,0,1,1.08.186,6.48,6.48,0,1,0-.625-6.211,6.266,6.266,0,0,0-.408,1.281.776.776,0,1,1-1.519-.315,7.858,7.858,0,1,1,7.714,9.476Z" transform="translate(-99.073 -89.869)" fill="#fff"/>
    </g>
    <path id="Trazado_132803" data-name="Trazado 132803" d="M38.676,191.04C22.56,196.822,6.934,211.258,9.11,229.7c1.85,15.677,19.842,20.307,30.76,21.96a12.608,12.608,0,0,1,7.787,4.382c4.728,5.653,14.855,15.072,25.97,8.784a.894.894,0,0,0-.481-1.664c-2.956.119-7.151-.31-10-3.1a7.589,7.589,0,0,1,2.542-12.4c9.507-3.87,27.448-14.4,25.122-38.262C87.665,177.187,38.676,191.04,38.676,191.04Z" transform="translate(-1.679 -83.947)" fill="#26aab7"/>
    <path id="Trazado_132804" data-name="Trazado 132804" d="M70.248,235.02s.775-10.789,11.548-9.006c10.189,1.69,6.929,15.625-7.425,24.5a5.617,5.617,0,0,1-5.167.388c-6.3-2.677-20.984-10.334-12.887-21.015C61.546,223,70.248,235.02,70.248,235.02Z" transform="translate(-23.444 -102.185)" fill="#fff"/>
    <path id="Trazado_132805" data-name="Trazado 132805" d="M20.271,219.769a1.035,1.035,0,0,1-.951-1.447c5.983-14.091,20.3-20.358,31.245-23.133a1.033,1.033,0,1,1,.517,2c-10.5,2.677-24.218,8.645-29.861,21.95A1.033,1.033,0,0,1,20.271,219.769Z" transform="translate(-6.671 -87.363)" fill="#fff"/>
    <path id="Trazado_132806" data-name="Trazado 132806" d="M15.57,264.039a1.033,1.033,0,0,1-1.033-.889,23.851,23.851,0,0,1,0-5.214,1.038,1.038,0,0,1,2.067.186,22.172,22.172,0,0,0,0,4.733,1.033,1.033,0,0,1-.863,1.168Z" transform="translate(-4.331 -117.252)" fill="#fff"/>
    <path id="Trazado_132807" data-name="Trazado 132807" d="M700.676,351.93l-1.741,4.289L696.78,353.2Z" transform="translate(-376.293 -163.135)" fill="url(#linear-gradient-41)"/>
    <path id="Trazado_132808" data-name="Trazado 132808" d="M669,332l7.446,14.861a1.163,1.163,0,0,0,1.607.517l14.638-8.035a.475.475,0,0,0,.243-.47.47.47,0,0,0-.346-.393Z" transform="translate(-362.888 -153.503)" fill="url(#linear-gradient-42)"/>
    <path id="Trazado_132809" data-name="Trazado 132809" d="M687.231,342.3,668.96,332l15.909,11.605-.434,1.209Z" transform="translate(-362.367 -153.503)" fill="url(#linear-gradient-43)"/>
    <path id="Trazado_132810" data-name="Trazado 132810" d="M697.03,355.22l2.026,2.222-.62-2.981Z" transform="translate(-376.269 -164.358)" fill="url(#linear-gradient-44)"/>
    <path id="Trazado_132811" data-name="Trazado 132811" d="M703.654,363.522c.248.227.517.434.744.646s.517.408.77.61a.295.295,0,1,0,.362-.465c-.253-.2-.517-.4-.754-.6s-.491-.413-.718-.62h0a.3.3,0,0,0-.4.439Z" transform="translate(-379.828 -168.491)" fill="#ce41a4"/>
    <path id="Trazado_132812" data-name="Trazado 132812" d="M709.61,368.118c.517.367,1.085.723,1.643,1.064a.3.3,0,1,0,.3-.517c-.548-.336-1.085-.687-1.612-1.033a.3.3,0,0,0-.413.078A.294.294,0,0,0,709.61,368.118Z" transform="translate(-383.061 -170.699)" fill="#ce41a4"/>
    <path id="Trazado_132813" data-name="Trazado 132813" d="M716.046,372.055c.579.31,1.157.6,1.752.878a.289.289,0,0,0,.248-.517q-.873-.413-1.721-.868a.3.3,0,0,0-.4.119.3.3,0,0,0,.119.4Z" transform="translate(-386.554 -172.601)" fill="#ce41a4"/>
    <path id="Trazado_132814" data-name="Trazado 132814" d="M722.964,375.265c.61.238,1.225.46,1.85.656a.289.289,0,0,0,.186-.527c-.61-.2-1.214-.413-1.814-.646a.289.289,0,0,0-.212.517Z" transform="translate(-390.344 -174.162)" fill="#ce41a4"/>
    <path id="Trazado_132815" data-name="Trazado 132815" d="M730.116,377.476c.635.155,1.281.284,1.927.388a.288.288,0,0,0,.088-.568c-.63-.1-1.256-.227-1.881-.377a.289.289,0,0,0-.134.558Z" transform="translate(-394.206 -175.211)" fill="#ce41a4"/>
    <path id="Trazado_132816" data-name="Trazado 132816" d="M737.585,378.694c.651.046,1.307.067,1.964.057a.284.284,0,0,0,0-.568c-.636,0-1.276,0-1.912-.062a.289.289,0,0,0-.047.574Z" transform="translate(-398.249 -175.793)" fill="#ce41a4"/>
    <path id="Trazado_132817" data-name="Trazado 132817" d="M745.1,378.333c.651-.067,1.292-.16,1.938-.269a.283.283,0,0,0-.093-.558c-.635.1-1.271.2-1.907.264a.284.284,0,0,0-.253.31.279.279,0,0,0,.31.253Z" transform="translate(-402.294 -175.494)" fill="#ce41a4"/>
    <path id="Trazado_132818" data-name="Trazado 132818" d="M752.557,376.956l1.9-.444a.281.281,0,0,0-.124-.548h0l-1.881.434h0a.274.274,0,0,0-.212.336.284.284,0,0,0,.336.212Z" transform="translate(-406.342 -174.748)" fill="#ce41a4"/>
    <path id="Trazado_132819" data-name="Trazado 132819" d="M759.905,374.932c.625-.191,1.245-.4,1.855-.62a.279.279,0,0,0-.191-.517c-.6.222-1.209.424-1.824.61a.279.279,0,0,0,.16.517Z" transform="translate(-410.342 -173.7)" fill="#ce41a4"/>
    <path id="Trazado_132820" data-name="Trazado 132820" d="M766.925,372.068c.594-.269,1.183-.563,1.757-.889a.274.274,0,0,0,.1-.377.269.269,0,0,0-.372-.1c-.553.315-1.126.6-1.71.863a.274.274,0,0,0-.14.362.279.279,0,0,0,.367.139Z" transform="translate(-414.108 -172.19)" fill="#ce41a4"/>
    <path id="Trazado_132821" data-name="Trazado 132821" d="M773.464,367.822a8.669,8.669,0,0,0,1.431-1.39.274.274,0,1,0-.424-.346,8.049,8.049,0,0,1-1.349,1.3.279.279,0,0,0-.047.388.274.274,0,0,0,.382.046Z" transform="translate(-417.603 -169.928)" fill="#ce41a4"/>
    <path id="Trazado_132822" data-name="Trazado 132822" d="M778.077,361.333a4.448,4.448,0,0,0,.2-1.008,4.344,4.344,0,0,0,0-.517,4.412,4.412,0,0,0-.041-.517.269.269,0,0,0-.517.072h0a3.149,3.149,0,0,1,.036.45,3.365,3.365,0,0,1,0,.455,3.988,3.988,0,0,1-.176.889.274.274,0,0,0,.517.165Z" transform="translate(-431.351 -166.612)" fill="#ce41a4"/>
    <path id="Trazado_132823" data-name="Trazado 132823" d="M774.736,355.015a6.2,6.2,0,0,0-1.741-1.033.269.269,0,0,0-.351.15.274.274,0,0,0,.155.351,5.762,5.762,0,0,1,1.586.935.269.269,0,0,0,.382-.026.274.274,0,0,0-.031-.382Z" transform="translate(-417.415 -164.117)" fill="#ce41a4"/>
    <path id="Trazado_132824" data-name="Trazado 132824" d="M767.573,353.2a3.437,3.437,0,0,0-1.033.124,2.321,2.321,0,0,0-.517.222,4.065,4.065,0,0,0-.429.3.274.274,0,0,0-.031.377.264.264,0,0,0,.377.031A3.013,3.013,0,0,1,766.3,354a1.6,1.6,0,0,1,.382-.171,2.719,2.719,0,0,1,.873-.1.269.269,0,1,0,0-.517Z" transform="translate(-413.557 -163.747)" fill="#ce41a4"/>
    <path id="Trazado_132825" data-name="Trazado 132825" d="M763.535,357.728a5.941,5.941,0,0,0-.047,2.026.263.263,0,0,0,.294.227.258.258,0,0,0,.227-.295,5.482,5.482,0,0,1,.041-1.839.265.265,0,1,0-.517-.119Z" transform="translate(-412.262 -165.838)" fill="#ce41a4"/>
    <path id="Trazado_132826" data-name="Trazado 132826" d="M764.379,365.262a11.553,11.553,0,0,0,.77,1.824.264.264,0,0,0,.465-.238,11.481,11.481,0,0,1-.739-1.746.27.27,0,1,0-.517.16Z" transform="translate(-412.824 -169.409)" fill="#ce41a4"/>
    <path id="Trazado_132827" data-name="Trazado 132827" d="M767.873,371.987a15.512,15.512,0,0,0,1.256,1.524.259.259,0,1,0,.377-.357,15.8,15.8,0,0,1-1.209-1.473.269.269,0,0,0-.367-.057.258.258,0,0,0-.057.362Z" transform="translate(-414.76 -172.63)" fill="#ce41a4"/>
    <path id="Trazado_132828" data-name="Trazado 132828" d="M772.99,377.57c.491.434,1,.842,1.524,1.235a.258.258,0,0,0,.362-.057.253.253,0,0,0-.052-.357,18.127,18.127,0,0,1-1.493-1.209.258.258,0,1,0-.341.388Z" transform="translate(-417.544 -175.305)" fill="#ce41a4"/>
    <path id="Trazado_132829" data-name="Trazado 132829" d="M779.048,382.06c.269.181.553.346.832.517l.847.517a.253.253,0,0,0,.346-.088.258.258,0,0,0-.088-.351h0l-.832-.517c-.274-.165-.553-.326-.822-.517a.253.253,0,0,0-.351.072.258.258,0,0,0,.072.357h0Z" transform="translate(-432.01 -177.464)" fill="#ce41a4"/>
    <path id="Trazado_132830" data-name="Trazado 132830" d="M785.634,385.737c.589.279,1.188.517,1.793.78a.253.253,0,1,0,.186-.47c-.594-.238-1.183-.517-1.762-.77a.254.254,0,1,0-.217.46Z" transform="translate(-435.176 -179.24)" fill="#ce41a4"/>
    <path id="Trazado_132831" data-name="Trazado 132831" d="M792.628,388.538c.62.207,1.24.4,1.87.574a.253.253,0,1,0,.134-.486c-.62-.171-1.235-.362-1.845-.568a.253.253,0,1,0-.16.481Z" transform="translate(-438.543 -180.589)" fill="#ce41a4"/>
    <path id="Trazado_132832" data-name="Trazado 132832" d="M799.905,390.542l1.907.4a.243.243,0,0,0,.294-.191.248.248,0,0,0-.191-.295h0l-1.886-.4h0a.253.253,0,0,0-.294.2.248.248,0,0,0,.191.294Z" transform="translate(-442.059 -181.559)" fill="#ce41a4"/>
    <path id="Trazado_132833" data-name="Trazado 132833" d="M807.291,391.988l1.932.269a.248.248,0,0,0,.067-.491h0l-1.917-.269h0a.248.248,0,0,0-.072.491Z" transform="translate(-445.616 -182.257)" fill="#ce41a4"/>
    <path id="Trazado_132834" data-name="Trazado 132834" d="M814.8,392.935l1.938.181a.243.243,0,0,0,.264-.222.238.238,0,0,0-.217-.264h0l-1.927-.181h0a.244.244,0,1,0-.047.486Z" transform="translate(-449.242 -182.717)" fill="#ce41a4"/>
    <path id="Trazado_132835" data-name="Trazado 132835" d="M822.252,393.545l1.938.124a.238.238,0,0,0,.258-.222.243.243,0,0,0-.227-.258l-1.933-.129h0a.243.243,0,0,0-.258.227.248.248,0,0,0,.227.258Z" transform="translate(-452.836 -183.013)" fill="#ce41a4"/>
    <path id="Trazado_132836" data-name="Trazado 132836" d="M829.792,394.05l1.938.114a.243.243,0,1,0,.031-.481l-1.938-.114a.238.238,0,0,0-.253.227A.243.243,0,0,0,829.792,394.05Z" transform="translate(-456.48 -183.259)" fill="#ce41a4"/>
    <path id="Trazado_132837" data-name="Trazado 132837" d="M837.247,394.555l1.932.14h0a.243.243,0,0,0,.253-.222.238.238,0,0,0-.222-.253l-1.938-.139a.238.238,0,1,0-.031.475Z" transform="translate(-460.081 -183.506)" fill="#ce41a4"/>
    <path id="Trazado_132838" data-name="Trazado 132838" d="M844.731,395.089l1.927.191h0a.232.232,0,0,0,.258-.207.238.238,0,0,0-.212-.258l-1.938-.2a.233.233,0,0,0-.258.207.243.243,0,0,0,.212.263h0Z" transform="translate(-463.7 -183.766)" fill="#ce41a4"/>
    <path id="Trazado_132839" data-name="Trazado 132839" d="M852.187,395.927l1.907.295h0a.227.227,0,0,0,.264-.2.233.233,0,0,0-.191-.264l-1.927-.295a.233.233,0,1,0-.072.46h0Z" transform="translate(-467.306 -184.175)" fill="#ce41a4"/>
    <path id="Trazado_132840" data-name="Trazado 132840" d="M859.6,397.194l1.886.429h0a.232.232,0,0,0,.279-.17.238.238,0,0,0-.176-.279l-1.9-.434a.233.233,0,0,0-.1.45h0Z" transform="translate(-470.914 -184.791)" fill="#ce41a4"/>
    <path id="Trazado_132841" data-name="Trazado 132841" d="M866.838,399.02c.615.191,1.225.4,1.839.594h0a.222.222,0,0,0,.284-.145.227.227,0,0,0-.145-.284c-.62-.2-1.23-.413-1.855-.6a.23.23,0,0,0-.134.439h0Z" transform="translate(-474.409 -185.676)" fill="#ce41a4"/>
    <path id="Trazado_132842" data-name="Trazado 132842" d="M873.947,401.479c.594.233,1.188.486,1.772.749a.214.214,0,0,0,.181-.388c-.589-.274-1.188-.517-1.793-.775a.217.217,0,0,0-.284.124.212.212,0,0,0,.119.284Z" transform="translate(-477.859 -186.874)" fill="#ce41a4"/>
    <path id="Trazado_132843" data-name="Trazado 132843" d="M880.755,404.63c.563.3,1.121.625,1.664.966a.2.2,0,0,0,.217-.341c-.548-.357-1.111-.687-1.685-1a.212.212,0,0,0-.284.088.207.207,0,0,0,.083.279Z" transform="translate(-481.163 -188.413)" fill="#ce41a4"/>
    <path id="Trazado_132844" data-name="Trazado 132844" d="M887.089,408.692c.517.388,1,.8,1.473,1.23a.186.186,0,0,0,.274,0,.2.2,0,0,0,0-.274c-.475-.444-.977-.863-1.493-1.261a.2.2,0,0,0-.243.315Z" transform="translate(-484.257 -190.409)" fill="#ce41a4"/>
  </g>
</svg>
