<svg xmlns="http://www.w3.org/2000/svg" width="81" height="81" viewBox="0 0 81 81">
  <g id="Grupo_56180" data-name="Grupo 56180" transform="translate(-760 -896)">
    <g id="Grupo_56164" data-name="Grupo 56164" transform="translate(760 896)">
      <g id="Grupo_55846" data-name="Grupo 55846">
        <circle id="Elipse_4123" data-name="Elipse 4123" cx="40.5" cy="40.5" r="40.5" fill="#6a5d99"/>
      </g>
    </g>
    <g id="Grupo_56214" data-name="Grupo 56214">
      <g id="badge" transform="translate(766.001 902.5)">
        <path id="Trazado_132910" data-name="Trazado 132910" d="M69.168,118.826c.013-.02.025-.041.037-.063s.025-.046.036-.07.01-.018.014-.028.008-.025.013-.038.017-.049.025-.075.012-.047.017-.07.01-.049.013-.074.006-.049.007-.073,0-.049,0-.074,0-.049,0-.074,0-.049-.008-.073-.008-.049-.014-.073-.012-.047-.019-.07-.016-.049-.026-.074-.007-.023-.012-.034-.011-.021-.016-.031-.023-.046-.036-.069-.025-.042-.039-.063-.028-.04-.043-.059-.033-.041-.051-.06l-.024-.028L54.556,102.85a1.063,1.063,0,0,0-.09-.08l-.028-.021c-.024-.017-.049-.035-.074-.05l-.031-.019a1.023,1.023,0,0,0-.1-.05l-.009,0a1.2,1.2,0,0,0-.114-.04l-.034-.008c-.029-.007-.059-.013-.089-.018l-.036-.005a.949.949,0,0,0-.123-.008H27.092a1.019,1.019,0,1,0,0,2.038h5.646l-8.06,11.822-7.344-11.822h5.139a1.019,1.019,0,1,0,0-2.038H15.5l-.028,0-.054,0-.044,0-.056.008-.043.008-.055.014-.042.013-.051.019-.045.019-.046.022-.046.025-.027.015-.016.011-.042.029c-.015.011-.029.021-.043.032l-.033.028c-.015.014-.03.027-.044.041l-.01.009L.29,117.557c-.008.008-.015.019-.023.028s-.035.04-.052.061-.029.038-.042.058-.028.042-.04.065-.024.044-.035.067-.012.021-.017.032-.007.024-.012.035-.017.047-.025.071-.014.047-.02.071-.01.047-.013.071-.007.05-.009.075,0,.048,0,.072,0,.05,0,.075,0,.047.007.071.007.05.013.076.011.046.017.068.016.051.025.076.007.025.013.037.01.018.014.027.023.048.036.071.024.042.036.062.028.041.043.06.031.041.048.06l.019.023,18.9,20.149a1.019,1.019,0,0,0,1.486-1.394L3.369,119.291h20.5l8.7,31.134-8.689-9.266a1.019,1.019,0,1,0-1.486,1.394l11.532,12.3,0,0,.009.009a1.018,1.018,0,0,0,.1.09l.023.018a1.076,1.076,0,0,0,.12.077l.022.011a1.063,1.063,0,0,0,.118.051l.025.009a.965.965,0,0,0,.139.035l.032,0a.892.892,0,0,0,.3,0l.032-.005a.942.942,0,0,0,.138-.035l.025-.009a1.021,1.021,0,0,0,.118-.051l.022-.011a1.03,1.03,0,0,0,.12-.077l.023-.018a1.084,1.084,0,0,0,.1-.09l.01-.009,0,0,33.65-35.882c.006-.007.012-.015.019-.023s.033-.04.049-.061.029-.039.042-.06Zm-42.6-1.573,8.1-11.879,8.1,11.879Zm39.315,0H46.527l7.485-12.05ZM52,104.584l-7.344,11.822-8.06-11.822Zm-36.679.618,7.485,12.05H3.45Zm28.032,14.09-8.685,31.076-8.685-31.076Zm-6.585,31.132,8.7-31.134h20.5Zm0,0" transform="translate(0 -88.228)" fill="#fff"/>
        <path id="Trazado_132911" data-name="Trazado 132911" d="M249.5,6.432a1.019,1.019,0,0,0,1.019-1.019V1.519a1.019,1.019,0,0,0-2.038,0V5.414A1.019,1.019,0,0,0,249.5,6.432Zm0,0" transform="translate(-214.83)" fill="#fff"/>
        <path id="Trazado_132912" data-name="Trazado 132912" d="M154.462,23.583a1.019,1.019,0,1,0,1.441-1.441l-2.754-2.754a1.019,1.019,0,1,0-1.441,1.441Zm0,0" transform="translate(-130.907 -16.073)" fill="#fff"/>
        <path id="Trazado_132913" data-name="Trazado 132913" d="M326.225,23.882a1.016,1.016,0,0,0,.72-.3L329.7,20.83a1.019,1.019,0,0,0-1.441-1.441L325.5,22.143a1.019,1.019,0,0,0,.72,1.739Zm0,0" transform="translate(-281.169 -16.073)" fill="#fff"/>
      </g>
    </g>
  </g>
</svg>
