<svg xmlns="http://www.w3.org/2000/svg" width="81" height="81" viewBox="0 0 81 81">
  <g id="Grupo_56174" data-name="Grupo 56174" transform="translate(-760 -896)">
    <g id="Grupo_56164" data-name="Grupo 56164" transform="translate(760 896)">
      <g id="Grupo_55846" data-name="Grupo 55846">
        <circle id="Elipse_4123" data-name="Elipse 4123" cx="40.5" cy="40.5" r="40.5" fill="#6a5d99"/>
      </g>
    </g>
    <g id="favorite" transform="translate(773.267 908.8)">
      <path id="Trazado_132884" data-name="Trazado 132884" d="M46.889,8.045A27.467,27.467,0,0,0,8.045,46.889,27.467,27.467,0,0,0,46.889,8.045ZM27.467,51.715A24.248,24.248,0,1,1,51.715,27.467,24.275,24.275,0,0,1,27.467,51.715Z" fill="#fff"/>
      <path id="Trazado_132885" data-name="Trazado 132885" d="M126.329,94.252a1.609,1.609,0,0,0-1.3-1.1l-10.283-1.494-4.6-9.318a1.609,1.609,0,0,0-2.886,0l-4.6,9.318L92.379,93.157a1.609,1.609,0,0,0-.892,2.745l7.441,7.253L97.172,113.4a1.609,1.609,0,0,0,2.335,1.7l9.2-4.835,9.2,4.835a1.609,1.609,0,0,0,2.335-1.7l-1.757-10.242,7.441-7.253A1.609,1.609,0,0,0,126.329,94.252Zm-10.7,7.189a1.61,1.61,0,0,0-.463,1.425l1.348,7.862-7.06-3.712a1.609,1.609,0,0,0-1.5,0l-7.06,3.712,1.348-7.862a1.61,1.61,0,0,0-.463-1.425l-5.712-5.568,7.893-1.147a1.61,1.61,0,0,0,1.212-.88l3.53-7.153,3.53,7.153a1.61,1.61,0,0,0,1.212.88l7.893,1.147Z" transform="translate(-81.237 -72.708)" fill="#fff"/>
    </g>
  </g>
</svg>
