<svg xmlns="http://www.w3.org/2000/svg" width="57" height="57" viewBox="0 0 57 57">
  <g id="Grupo_56135" data-name="Grupo 56135" transform="translate(9632 11907)">
    <g id="_360-grados" data-name="360-grados" transform="translate(-9632 -11974.592)">
      <g id="Grupo_56133" data-name="Grupo 56133" transform="translate(0 76.592)">
        <g id="Grupo_56132" data-name="Grupo 56132" transform="translate(0 0)">
          <path id="Trazado_132650" data-name="Trazado 132650" d="M264.563,210.383a1.188,1.188,0,0,0-.653,2.283c5.42,1.55,8.787,3.8,8.787,5.868,0,1.514-1.842,3.176-5.053,4.56a48.319,48.319,0,0,1-14.118,3.138l-4.864-.066h-.017a1.187,1.187,0,0,0-.016,2.375l4.926.067h.016q.053,0,.105,0a50.772,50.772,0,0,0,14.908-3.328c5.363-2.311,6.488-4.942,6.488-6.741C275.072,215.216,271.34,212.321,264.563,210.383Z" transform="translate(-218.072 -194.454)" fill="#7d6eb2"/>
          <path id="Trazado_132651" data-name="Trazado 132651" d="M88.066,145.283a1.188,1.188,0,0,0,0,2.375H92.95v4.908H88.066a1.188,1.188,0,0,0,0,2.375h6.071a1.187,1.187,0,0,0,1.188-1.187V139.188A1.187,1.187,0,0,0,94.137,138H88.066a1.188,1.188,0,0,0,0,2.375H92.95v4.908Z" transform="translate(-76.562 -130.708)" fill="#7d6eb2"/>
          <path id="Trazado_132652" data-name="Trazado 132652" d="M180.066,154.942h7.283a1.188,1.188,0,0,0,1.188-1.187v-7.283a1.187,1.187,0,0,0-1.187-1.187h-6.1v-4.908h4.883a1.188,1.188,0,1,0,0-2.375h-6.071a1.187,1.187,0,0,0-1.187,1.188v14.567A1.187,1.187,0,0,0,180.066,154.942Zm1.188-7.283h4.908v4.908h-4.908Z" transform="translate(-157.637 -130.708)" fill="#7d6eb2"/>
          <path id="Trazado_132653" data-name="Trazado 132653" d="M282.309,154.942h7.283a1.188,1.188,0,0,0,1.188-1.187V139.188A1.188,1.188,0,0,0,289.592,138h-7.283a1.188,1.188,0,0,0-1.187,1.188v14.567A1.188,1.188,0,0,0,282.309,154.942Zm1.188-14.567H288.4v12.192H283.5Z" transform="translate(-247.738 -130.708)" fill="#7d6eb2"/>
          <path id="Trazado_132654" data-name="Trazado 132654" d="M21.714,224.584a1.188,1.188,0,0,0-1.813,1.534l2.656,3.14a51.519,51.519,0,0,1-14.413-2.927c-3.666-1.447-5.769-3.216-5.769-4.854,0-1.9,2.819-3.952,7.54-5.483a1.188,1.188,0,0,0-.733-2.259,21.508,21.508,0,0,0-6.474,3.15C.911,218.276,0,219.821,0,221.477c0,2.744,2.515,5.186,7.272,7.063A53.445,53.445,0,0,0,22.024,231.6l-2.368,2.625a1.187,1.187,0,1,0,1.763,1.591l4.321-4.789a1.187,1.187,0,0,0,.306-.8v-.091a1.187,1.187,0,0,0-.281-.767Z" transform="translate(0 -197.397)" fill="#7d6eb2"/>
          <path id="Trazado_132655" data-name="Trazado 132655" d="M372.6,83.823h4.854a1.188,1.188,0,0,0,1.188-1.187V77.78a1.188,1.188,0,0,0-1.187-1.187H372.6a1.188,1.188,0,0,0-1.187,1.188v4.856A1.188,1.188,0,0,0,372.6,83.823Zm1.188-4.856h2.479v2.481h-2.479Z" transform="translate(-327.309 -76.592)" fill="#7d6eb2"/>
        </g>
      </g>
    </g>
    <rect id="Rectángulo_31338" data-name="Rectángulo 31338" width="57" height="57" transform="translate(-9632 -11907)" fill="none"/>
  </g>
</svg>
