<svg xmlns="http://www.w3.org/2000/svg" xmlns:xlink="http://www.w3.org/1999/xlink" width="397.371" height="398.076" viewBox="0 0 397.371 398.076">
  <defs>
    <linearGradient id="linear-gradient" y1="0.5" x2="1" y2="0.5" gradientUnits="objectBoundingBox">
      <stop offset="0" stop-color="#c4c0c3"/>
      <stop offset="0.47" stop-color="#e1dfe0"/>
      <stop offset="0.96" stop-color="#fff"/>
    </linearGradient>
    <linearGradient id="linear-gradient-2" x1="0.269" y1="0.025" x2="0.756" y2="1.027" xlink:href="#linear-gradient"/>
  </defs>
  <g id="figuras-16-16" transform="translate(-4.923 -6.928)">
    <g id="OBJECTS" transform="translate(4.923 6.928)">
      <path id="Trazado_132629" data-name="Trazado 132629" d="M155.772,290.363,50.385,247.49a170.813,170.813,0,0,0-8.957,35.06,28.534,28.534,0,0,0,.86,54.042,171.448,171.448,0,0,0,9.02,32.253l104.815-44.2a57.241,57.241,0,0,1-.352-34.286Z" transform="translate(-12.342 -108.567)" fill="#26aab7"/>
      <path id="Trazado_132630" data-name="Trazado 132630" d="M576.874,305.155a28.54,28.54,0,0,0-19.225-26.461,171.768,171.768,0,0,0-9.355-34.834l-104.844,44.2a57.172,57.172,0,0,1,.069,34.436l105.352,42.867a171.157,171.157,0,0,0,8.691-32.715,28.534,28.534,0,0,0,19.311-27.494Z" transform="translate(-190.203 -107.033)" fill="#26aab7"/>
      <path id="Trazado_132631" data-name="Trazado 132631" d="M366.447,550.152l-44.2-104.832a57.212,57.212,0,0,1-34.188.156L245.19,550.857a171.225,171.225,0,0,0,33.033,8.662,28.54,28.54,0,0,0,54.232-.156A171.716,171.716,0,0,0,366.447,550.152Z" transform="translate(-106.437 -192.151)" fill="#26aab7"/>
      <path id="Trazado_132632" data-name="Trazado 132632" d="M328.69,43.816a28.534,28.534,0,0,0-53.672.468,172.307,172.307,0,0,0-33.627,9.24l44.2,104.821a57.207,57.207,0,0,1,34.534-.271l42.9-105.364a170.6,170.6,0,0,0-34.326-8.893Z" transform="translate(-104.832 -14.652)" fill="#26aab7"/>
      <path id="Trazado_132633" data-name="Trazado 132633" d="M162.7,81.17a172.134,172.134,0,0,0-30.988,18.382,28.528,28.528,0,0,0-37.248,38.115,170.987,170.987,0,0,0-17.025,30.07L182.81,210.6A57.247,57.247,0,0,1,206.9,186Z" transform="translate(-35.562 -38.296)" fill="#7d6eb2"/>
      <path id="Trazado_132634" data-name="Trazado 132634" d="M208.485,421.378A57.172,57.172,0,0,1,184.121,397.4L79.3,441.6a171.514,171.514,0,0,0,17.6,29.955,28.528,28.528,0,0,0,38.692,38.115,171.375,171.375,0,0,0,30.03,17.065Z" transform="translate(-36.348 -171.905)" fill="#7d6eb2"/>
      <path id="Trazado_132635" data-name="Trazado 132635" d="M510.25,483.018a28.382,28.382,0,0,0-3.367-12.936,171.2,171.2,0,0,0,17.671-30.8L419.162,396.4A57.229,57.229,0,0,1,395,420.707l44.167,104.821a171.82,171.82,0,0,0,29.054-16.851,28.528,28.528,0,0,0,42.03-25.652Z" transform="translate(-169.733 -171.482)" fill="#7d6eb2"/>
      <path id="Trazado_132636" data-name="Trazado 132636" d="M505.859,134.887a28.528,28.528,0,0,0-38.115-37.809A170.938,170.938,0,0,0,436.993,79.5L394.12,184.893A57.172,57.172,0,0,1,418.658,209.2L523.479,165A171.59,171.59,0,0,0,505.859,134.887Z" transform="translate(-169.361 -37.59)" fill="#7d6eb2"/>
      <path id="Trazado_132637" data-name="Trazado 132637" d="M364.108,305.164a61.214,61.214,0,1,0-17.929,43.5,61.434,61.434,0,0,0,17.929-43.5Z" transform="translate(-104.768 -106.978)" fill="#e8c85f"/>
      <circle id="Elipse_4377" data-name="Elipse 4377" cx="55.232" cy="55.232" r="55.232" transform="translate(120.581 199.038) rotate(-45)" fill="url(#linear-gradient)"/>
      <circle id="Elipse_4378" data-name="Elipse 4378" cx="51.154" cy="51.154" r="51.154" transform="translate(126.347 199.038) rotate(-45)" fill="url(#linear-gradient-2)"/>
      <path id="Trazado_132638" data-name="Trazado 132638" d="M274.195,349.512a3.962,3.962,0,0,1-1.265,2.645,4.129,4.129,0,0,1-2.824.93,3.805,3.805,0,0,1-3.066-1.369,5.527,5.527,0,0,1-1.155-3.673v-1.034a6.174,6.174,0,0,1,.537-2.651,4.042,4.042,0,0,1,1.519-1.732,4.233,4.233,0,0,1,2.31-.612,3.892,3.892,0,0,1,2.755.959,4,4,0,0,1,1.207,2.656h-1.426a3.1,3.1,0,0,0-.808-1.871,2.42,2.42,0,0,0-1.733-.577,2.564,2.564,0,0,0-2.143,1.011,4.649,4.649,0,0,0-.774,2.887v1.045a4.805,4.805,0,0,0,.733,2.8,2.379,2.379,0,0,0,2.056,1.039,2.738,2.738,0,0,0,1.819-.537,3,3,0,0,0,.843-1.877Z" transform="translate(-115.178 -148.503)" fill="#786ead"/>
      <path id="Trazado_132639" data-name="Trazado 132639" d="M291.661,347.884a6.761,6.761,0,0,1-.531,2.772,4.043,4.043,0,0,1-1.513,1.8,4.164,4.164,0,0,1-6.041-1.8,6.422,6.422,0,0,1-.578-2.685v-.78a6.561,6.561,0,0,1,.543-2.749A4.008,4.008,0,0,1,287.33,342a4.146,4.146,0,0,1,2.31.63,4.042,4.042,0,0,1,1.525,1.813,6.75,6.75,0,0,1,.5,2.755Zm-1.415-.693a4.856,4.856,0,0,0-.768-2.951,2.553,2.553,0,0,0-2.16-1.022,2.524,2.524,0,0,0-2.125,1.022,4.793,4.793,0,0,0-.8,2.853v.791a4.869,4.869,0,0,0,.785,2.928,2.737,2.737,0,0,0,4.285.058,4.81,4.81,0,0,0,.78-2.887Z" transform="translate(-122.411 -148.497)" fill="#786ead"/>
      <path id="Trazado_132640" data-name="Trazado 132640" d="M310.013,353.038h-1.432l-5.428-8.316v8.316H301.72V342.25h1.432L308.6,350.6V342.25h1.415Z" transform="translate(-130.322 -148.604)" fill="#786ead"/>
      <path id="Trazado_132641" data-name="Trazado 132641" d="M323.211,348.114a6.67,6.67,0,0,1-2.662-1.288,2.478,2.478,0,0,1-.832-1.894,2.61,2.61,0,0,1,1.016-2.114,4.042,4.042,0,0,1,2.651-.832,4.458,4.458,0,0,1,1.981.427,3.28,3.28,0,0,1,1.351,1.19,3.044,3.044,0,0,1,.479,1.652h-1.432a1.975,1.975,0,0,0-.647-1.53,2.523,2.523,0,0,0-1.732-.577,2.593,2.593,0,0,0-1.646.468,1.553,1.553,0,0,0-.578,1.288,1.386,1.386,0,0,0,.578,1.115,5.525,5.525,0,0,0,1.906.837,8.794,8.794,0,0,1,2.108.837,3.234,3.234,0,0,1,1.126,1.063,2.738,2.738,0,0,1,.364,1.432,2.518,2.518,0,0,1-1.022,2.1,4.325,4.325,0,0,1-2.732.791,5.093,5.093,0,0,1-2.079-.427,3.465,3.465,0,0,1-1.484-1.155,2.888,2.888,0,0,1-.526-1.681h1.432a1.854,1.854,0,0,0,.722,1.542,3.038,3.038,0,0,0,1.935.577,2.806,2.806,0,0,0,1.732-.462,1.5,1.5,0,0,0,.578-1.253,1.455,1.455,0,0,0-.577-1.224A6.389,6.389,0,0,0,323.211,348.114Z" transform="translate(-137.791 -148.491)" fill="#786ead"/>
      <path id="Trazado_132642" data-name="Trazado 132642" d="M343.491,342.25v7.363a3.465,3.465,0,0,1-.959,2.5,3.893,3.893,0,0,1-2.587,1.091h-.375a4.043,4.043,0,0,1-2.824-.953,3.43,3.43,0,0,1-1.068-2.633V342.25h1.409v7.305a2.252,2.252,0,0,0,2.483,2.472,2.507,2.507,0,0,0,1.848-.647,2.472,2.472,0,0,0,.641-1.819V342.25Z" transform="translate(-144.668 -148.604)" fill="#786ead"/>
      <path id="Trazado_132643" data-name="Trazado 132643" d="M354.936,342.25l3.528,8.8,3.529-8.8h1.842v10.788h-1.421v-4.2l.133-4.539-3.54,8.738h-1.091l-3.534-8.714.139,4.516v4.2H353.1V342.25Z" transform="translate(-152.03 -148.604)" fill="#786ead"/>
      <path id="Trazado_132644" data-name="Trazado 132644" d="M377.646,353.038H376.22V342.25h1.426Z" transform="translate(-161.798 -148.604)" fill="#786ead"/>
      <path id="Trazado_132645" data-name="Trazado 132645" d="M383.19,353.037V342.249h3.049a4.955,4.955,0,0,1,2.489.618,4.245,4.245,0,0,1,1.675,1.773,5.774,5.774,0,0,1,.577,2.639v.693a5.775,5.775,0,0,1-.577,2.674,4.106,4.106,0,0,1-1.686,1.732,5.163,5.163,0,0,1-2.541.629Zm1.426-9.627v8.466h1.5a3.268,3.268,0,0,0,2.564-1.022,4.262,4.262,0,0,0,.912-2.887V347.3a4.3,4.3,0,0,0-.866-2.887,3.084,3.084,0,0,0-2.449-1.034Z" transform="translate(-164.743 -148.603)" fill="#786ead"/>
      <path id="Trazado_132646" data-name="Trazado 132646" d="M408.446,347.876a6.672,6.672,0,0,1-.537,2.772,4.043,4.043,0,0,1-1.513,1.8,4.164,4.164,0,0,1-6.07-1.79,6.353,6.353,0,0,1-.577-2.685v-.785a6.653,6.653,0,0,1,.537-2.749,4.25,4.25,0,0,1,6.081-1.831,3.984,3.984,0,0,1,1.525,1.813,6.658,6.658,0,0,1,.537,2.766Zm-1.421-.693a4.856,4.856,0,0,0-.768-2.951,2.547,2.547,0,0,0-2.154-1.022,2.518,2.518,0,0,0-2.125,1.022,4.718,4.718,0,0,0-.8,2.853v.791a4.868,4.868,0,0,0,.78,2.928,2.743,2.743,0,0,0,4.291.058,4.81,4.81,0,0,0,.774-2.887Z" transform="translate(-171.739 -148.489)" fill="#786ead"/>
      <path id="Trazado_132647" data-name="Trazado 132647" d="M422.47,348.665h-2.518v4.366H418.52V342.244h3.575a4.267,4.267,0,0,1,2.807.826,3,3,0,0,1,.982,2.42,2.888,2.888,0,0,1-.549,1.732,3.275,3.275,0,0,1-1.513,1.12l2.535,4.58v.087h-1.53Zm-2.535-1.155h2.183a2.472,2.472,0,0,0,1.686-.549,1.854,1.854,0,0,0,.629-1.473,1.952,1.952,0,0,0-.577-1.536,2.506,2.506,0,0,0-1.733-.543h-2.171Z" transform="translate(-179.67 -148.597)" fill="#786ead"/>
      <path id="Trazado_132648" data-name="Trazado 132648" d="M402.284,208.134q.035-3.569-.046-7.132c-.035-1.571-.081-3.142-.156-4.712-.04-.878-.1-1.732-.156-2.633-.116-1.923-.254-3.846-.427-5.775-.046-.474-.081-.947-.127-1.421A198.589,198.589,0,0,0,370.66,98.006C311.351,5.884,188.172-20.814,96.027,38.524A198.551,198.551,0,0,0,5.158,196.752c-5.2,107.264,76.46,199.94,184.14,207.73C298.571,412.371,393.91,329.91,401.81,220.643c.271-3.765.4-7.507.468-11.267C402.284,208.954,402.284,208.544,402.284,208.134ZM203.833,375.527a168.473,168.473,0,0,1-101.541-33.778,13.956,13.956,0,0,0-2.379-2.362,167.826,167.826,0,0,1-35.8-38.034C34.148,257.66,27.594,204.1,41.927,156.4a169.275,169.275,0,0,1,80.087-98.37,14.091,14.091,0,0,0,3.217-2.437c76.662-40.119,172.925-15.708,220.643,58.385a169.12,169.12,0,0,1,20.692,46.061,12.974,12.974,0,0,0,.323,1.536,167.286,167.286,0,0,1,5.5,31.889c.052.745.081,1.5.127,2.241.063,1.068.127,2.143.167,3.211.058,1.386.092,2.766.116,4.152V204a169.3,169.3,0,0,1-14.922,71.113,14.38,14.38,0,0,0-.641,1.767C330.27,335.033,271.267,375.567,203.833,375.527Z" transform="translate(-4.923 -6.928)" fill="#6a5d99"/>
      <path id="Trazado_132649" data-name="Trazado 132649" d="M394.339,223.349q-.04-2.01-.127-4.014c-.04-.751-.092-1.5-.139-2.246q-.15-2.46-.364-4.909c-.035-.4-.069-.8-.11-1.207a169.074,169.074,0,0,0-26.155-75.334C316.937,57.187,212.012,34.451,133.56,84.964a169.161,169.161,0,0,0-77.4,134.764C51.74,311.077,121.282,390,212.982,396.638c93.057,6.734,174.259-63.507,180.987-156.576.237-3.205.346-6.4.4-9.592v-1.051C394.4,227.392,394.4,225.365,394.339,223.349ZM116.044,302.195a132,132,0,0,1,45.3-190.342,11.071,11.071,0,0,0,2.518-1.906c59.961-31.387,135.278-12.312,172.6,45.68a132.331,132.331,0,0,1,16.17,36.036,11.139,11.139,0,0,0,.254,1.2,130.449,130.449,0,0,1,4.3,24.948c.04.577.069,1.155.1,1.732.052.837.1,1.675.133,2.512.04,1.08.069,2.166.087,3.246v.733a132.506,132.506,0,0,1-11.625,55.63,10.734,10.734,0,0,0-.5,1.38c-21.107,45.5-67.261,77.2-120.015,77.171a131.8,131.8,0,0,1-79.434-26.426,11.232,11.232,0,0,0-1.86-1.842,131.414,131.414,0,0,1-28.032-29.753Z" transform="translate(-26.488 -28.536)" fill="#aee6e6"/>
      <text id="INTERACCIÓN_VIA_WEB" data-name="INTERACCIÓN VIA WEB" transform="translate(91.02 125.59)" fill="#fff" font-size="10" font-family="Roboto-Regular, Roboto"><tspan x="-31.96" y="10">INTERACCIÓN </tspan><tspan x="-19.431" y="20">VIA WEB</tspan></text>
      <path id="Trazado_133026" data-name="Trazado 133026" d="M25.577,7.217V10h-.937V2.891h2.622a2.634,2.634,0,0,1,1.829.6,2.02,2.02,0,0,1,.662,1.577A1.993,1.993,0,0,1,29.1,6.658a2.752,2.752,0,0,1-1.853.559Zm0-.767h1.685A1.684,1.684,0,0,0,28.414,6.1a1.3,1.3,0,0,0,.4-1.025,1.34,1.34,0,0,0-.4-1.017,1.578,1.578,0,0,0-1.1-.4H25.577Zm3.667,3.076a.566.566,0,0,1,.139-.391.53.53,0,0,1,.417-.156.546.546,0,0,1,.422.156.554.554,0,0,1,.144.391.524.524,0,0,1-.144.376.556.556,0,0,1-.422.151.5.5,0,0,1-.557-.527Zm8.223-2.852A4.4,4.4,0,0,1,37.115,8.5a2.663,2.663,0,0,1-1,1.189,2.749,2.749,0,0,1-4-1.179,4.22,4.22,0,0,1-.369-1.77V6.226a4.346,4.346,0,0,1,.356-1.812,2.636,2.636,0,0,1,2.5-1.621,2.756,2.756,0,0,1,1.506.413,2.658,2.658,0,0,1,1,1.2,4.419,4.419,0,0,1,.352,1.824Zm-.933-.459a3.188,3.188,0,0,0-.508-1.941A1.675,1.675,0,0,0,34.605,3.6a1.657,1.657,0,0,0-1.4.676,3.122,3.122,0,0,0-.525,1.877v.522A3.192,3.192,0,0,0,33.2,8.6a1.805,1.805,0,0,0,2.825.039,3.174,3.174,0,0,0,.513-1.9Zm1.719,3.311a.566.566,0,0,1,.139-.391.53.53,0,0,1,.417-.156.546.546,0,0,1,.422.156.554.554,0,0,1,.144.391.524.524,0,0,1-.144.376.556.556,0,0,1-.422.151.5.5,0,0,1-.557-.527Zm3.691-2.31V10h-.937V2.891h2.622a2.634,2.634,0,0,1,1.829.6,2.02,2.02,0,0,1,.662,1.577,1.993,1.993,0,0,1-.647,1.594,2.752,2.752,0,0,1-1.853.559Zm0-.767h1.685A1.684,1.684,0,0,0,44.781,6.1a1.3,1.3,0,0,0,.4-1.025,1.34,1.34,0,0,0-.4-1.017,1.578,1.578,0,0,0-1.1-.4H41.944Z" transform="translate(164.253 100.203)" fill="#fff"/>
      <path id="Trazado_133030" data-name="Trazado 133030" d="M12.389,6.714H9.308v2.52h3.579V10H8.37V2.891h4.468v.767H9.308v2.29h3.081Zm4.019,2.041,2.031-5.864h1.025L16.827,10H16L13.366,2.891h1.021Zm8.027-2.041H21.354v2.52h3.579V10H20.416V2.891h4.468v.767h-3.53v2.29h3.081ZM31.564,10h-.942L27.042,4.521V10H26.1V2.891h.942l3.589,5.5v-5.5h.933Zm6.577-6.343H35.856V10h-.933V3.657h-2.28V2.891h5.5Zm6.387,3.018A4.4,4.4,0,0,1,44.176,8.5a2.663,2.663,0,0,1-1,1.189,2.749,2.749,0,0,1-4-1.179,4.22,4.22,0,0,1-.369-1.77V6.226a4.346,4.346,0,0,1,.356-1.812,2.636,2.636,0,0,1,2.5-1.621,2.756,2.756,0,0,1,1.506.413,2.658,2.658,0,0,1,1,1.2,4.419,4.419,0,0,1,.352,1.824Zm-.933-.459a3.188,3.188,0,0,0-.508-1.941A1.675,1.675,0,0,0,41.666,3.6a1.657,1.657,0,0,0-1.4.676,3.122,3.122,0,0,0-.525,1.877v.522A3.192,3.192,0,0,0,40.258,8.6a1.805,1.805,0,0,0,2.825.039,3.174,3.174,0,0,0,.513-1.9Zm4.434.615a4.408,4.408,0,0,1-1.755-.852,1.628,1.628,0,0,1-.549-1.248A1.72,1.72,0,0,1,46.4,3.342a2.668,2.668,0,0,1,1.746-.549,2.913,2.913,0,0,1,1.306.283,2.148,2.148,0,0,1,.889.781,2,2,0,0,1,.315,1.089h-.942A1.3,1.3,0,0,0,49.3,3.93a1.668,1.668,0,0,0-1.157-.37,1.708,1.708,0,0,0-1.082.306,1.02,1.02,0,0,0-.388.849.918.918,0,0,0,.369.736A3.616,3.616,0,0,0,48.295,6a5.823,5.823,0,0,1,1.387.55,2.1,2.1,0,0,1,.742.7,1.788,1.788,0,0,1,.242.942,1.661,1.661,0,0,1-.674,1.384,2.873,2.873,0,0,1-1.8.52,3.342,3.342,0,0,1-1.367-.281,2.3,2.3,0,0,1-.979-.769A1.877,1.877,0,0,1,45.5,7.939h.942a1.224,1.224,0,0,0,.476,1.018,2,2,0,0,0,1.272.374,1.843,1.843,0,0,0,1.138-.3.983.983,0,0,0,.4-.825.965.965,0,0,0-.366-.808A4.222,4.222,0,0,0,48.029,6.831ZM17.767,16.86H14.784V20h-.937V12.891h4.4v.767H14.784v2.437h2.983Zm5.625-.146H20.311v2.52H23.89V20H19.374V12.891h4.468v.767h-3.53v2.29h3.081Zm4.272.41h-1.67V20h-.942V12.891h2.354a2.786,2.786,0,0,1,1.848.547,1.968,1.968,0,0,1,.647,1.592,1.914,1.914,0,0,1-.359,1.157,2.142,2.142,0,0,1-1,.737l1.67,3.018V20H29.208Zm-1.67-.767h1.44A1.625,1.625,0,0,0,28.546,16a1.224,1.224,0,0,0,.413-.969,1.289,1.289,0,0,0-.393-1.013,1.664,1.664,0,0,0-1.135-.357H25.995ZM32.22,20h-.937V12.891h.937Zm5.64-1.86H34.882L34.213,20h-.967l2.715-7.109h.82L39.5,20h-.962Zm-2.7-.767h2.417l-1.211-3.325Zm7.388-.542a4.408,4.408,0,0,1-1.755-.852,1.628,1.628,0,0,1-.549-1.248,1.72,1.72,0,0,1,.671-1.389,2.668,2.668,0,0,1,1.746-.549,2.913,2.913,0,0,1,1.306.283,2.148,2.148,0,0,1,.889.781,2,2,0,0,1,.315,1.089h-.942a1.3,1.3,0,0,0-.41-1.017,1.668,1.668,0,0,0-1.157-.37,1.708,1.708,0,0,0-1.082.306,1.02,1.02,0,0,0-.388.849.918.918,0,0,0,.369.736,3.616,3.616,0,0,0,1.255.55,5.823,5.823,0,0,1,1.387.55,2.1,2.1,0,0,1,.742.7,1.788,1.788,0,0,1,.242.942,1.661,1.661,0,0,1-.674,1.384,2.873,2.873,0,0,1-1.8.52,3.342,3.342,0,0,1-1.367-.281,2.3,2.3,0,0,1-.979-.769,1.877,1.877,0,0,1-.344-1.108h.942a1.224,1.224,0,0,0,.476,1.018,2,2,0,0,0,1.272.374,1.843,1.843,0,0,0,1.138-.3.983.983,0,0,0,.4-.825.965.965,0,0,0-.366-.808A4.222,4.222,0,0,0,42.553,16.831Z" transform="translate(170.111 283.773)" fill="#fff"/>
      <text id="CONTENIDOS_INTERNET" data-name="CONTENIDOS INTERNET" transform="translate(67.585 187.106)" fill="#fff" font-size="10" font-family="Roboto-Regular, Roboto"><tspan x="-30.688" y="10">CONTENIDOS </tspan><tspan x="-23.267" y="20">INTERNET</tspan></text>
      <path id="Trazado_133027" data-name="Trazado 133027" d="M8.632,6.831a4.408,4.408,0,0,1-1.755-.852,1.628,1.628,0,0,1-.549-1.248A1.72,1.72,0,0,1,7,3.342a2.668,2.668,0,0,1,1.746-.549,2.913,2.913,0,0,1,1.306.283,2.148,2.148,0,0,1,.889.781,2,2,0,0,1,.315,1.089h-.942A1.3,1.3,0,0,0,9.9,3.93a1.668,1.668,0,0,0-1.157-.37,1.708,1.708,0,0,0-1.082.306,1.02,1.02,0,0,0-.388.849.918.918,0,0,0,.369.736A3.616,3.616,0,0,0,8.9,6a5.823,5.823,0,0,1,1.387.55,2.1,2.1,0,0,1,.742.7,1.788,1.788,0,0,1,.242.942,1.661,1.661,0,0,1-.674,1.384,2.873,2.873,0,0,1-1.8.52,3.342,3.342,0,0,1-1.367-.281,2.3,2.3,0,0,1-.979-.769A1.877,1.877,0,0,1,6.1,7.939h.942a1.224,1.224,0,0,0,.476,1.018,2,2,0,0,0,1.272.374,1.843,1.843,0,0,0,1.138-.3.983.983,0,0,0,.4-.825A.965.965,0,0,0,9.96,7.4,4.222,4.222,0,0,0,8.632,6.831Zm4.775.386V10H12.47V2.891h2.622a2.634,2.634,0,0,1,1.829.6,2.02,2.02,0,0,1,.662,1.577,1.993,1.993,0,0,1-.647,1.594,2.752,2.752,0,0,1-1.853.559Zm0-.767h1.685A1.684,1.684,0,0,0,16.244,6.1a1.3,1.3,0,0,0,.4-1.025,1.34,1.34,0,0,0-.4-1.017,1.578,1.578,0,0,0-1.1-.4H13.407Zm10.84.225A4.4,4.4,0,0,1,23.9,8.5a2.663,2.663,0,0,1-1,1.189,2.749,2.749,0,0,1-4-1.179,4.22,4.22,0,0,1-.369-1.77V6.226a4.346,4.346,0,0,1,.356-1.812,2.636,2.636,0,0,1,2.5-1.621,2.756,2.756,0,0,1,1.506.413,2.658,2.658,0,0,1,1,1.2,4.419,4.419,0,0,1,.352,1.824Zm-.933-.459a3.188,3.188,0,0,0-.508-1.941A1.675,1.675,0,0,0,21.386,3.6a1.657,1.657,0,0,0-1.4.676,3.122,3.122,0,0,0-.525,1.877v.522A3.192,3.192,0,0,0,19.977,8.6,1.805,1.805,0,0,0,22.8,8.64a3.174,3.174,0,0,0,.513-1.9ZM31.117,10h-.942L26.6,4.521V10h-.942V2.891H26.6l3.589,5.5v-5.5h.933Zm3.76-3.169a4.408,4.408,0,0,1-1.755-.852,1.628,1.628,0,0,1-.549-1.248,1.72,1.72,0,0,1,.671-1.389,2.668,2.668,0,0,1,1.746-.549,2.913,2.913,0,0,1,1.306.283,2.148,2.148,0,0,1,.889.781A2,2,0,0,1,37.5,4.946h-.942a1.3,1.3,0,0,0-.41-1.017,1.668,1.668,0,0,0-1.157-.37,1.708,1.708,0,0,0-1.082.306,1.02,1.02,0,0,0-.388.849.918.918,0,0,0,.369.736A3.616,3.616,0,0,0,35.143,6a5.823,5.823,0,0,1,1.387.55,2.1,2.1,0,0,1,.742.7,1.788,1.788,0,0,1,.242.942,1.661,1.661,0,0,1-.674,1.384,2.873,2.873,0,0,1-1.8.52,3.342,3.342,0,0,1-1.367-.281,2.3,2.3,0,0,1-.979-.769,1.877,1.877,0,0,1-.344-1.108h.942a1.224,1.224,0,0,0,.476,1.018,2,2,0,0,0,1.272.374,1.843,1.843,0,0,0,1.138-.3.983.983,0,0,0,.4-.825A.965.965,0,0,0,36.2,7.4,4.222,4.222,0,0,0,34.877,6.831Zm9.307-.156A4.4,4.4,0,0,1,43.832,8.5a2.663,2.663,0,0,1-1,1.189,2.749,2.749,0,0,1-4-1.179,4.22,4.22,0,0,1-.369-1.77V6.226a4.346,4.346,0,0,1,.356-1.812,2.636,2.636,0,0,1,2.5-1.621,2.756,2.756,0,0,1,1.506.413,2.658,2.658,0,0,1,1,1.2,4.419,4.419,0,0,1,.352,1.824Zm-.933-.459a3.188,3.188,0,0,0-.508-1.941A1.675,1.675,0,0,0,41.322,3.6a1.657,1.657,0,0,0-1.4.676A3.122,3.122,0,0,0,39.4,6.152v.522A3.192,3.192,0,0,0,39.913,8.6a1.805,1.805,0,0,0,2.825.039,3.174,3.174,0,0,0,.513-1.9Zm4.946.908h-1.67V10h-.942V2.891h2.354a2.786,2.786,0,0,1,1.848.547,1.968,1.968,0,0,1,.647,1.592,1.914,1.914,0,0,1-.359,1.157,2.142,2.142,0,0,1-1,.737l1.67,3.018V10H49.74Zm-1.67-.767h1.44A1.625,1.625,0,0,0,49.079,6a1.224,1.224,0,0,0,.413-.969A1.289,1.289,0,0,0,49.1,4.014a1.664,1.664,0,0,0-1.135-.357H46.527Z" transform="translate(241.392 125.59)" fill="#fff"/>
      <path id="Trazado_133028" data-name="Trazado 133028" d="M14.035,6.714H10.954v2.52h3.579V10H10.016V2.891h4.468v.767h-3.53v2.29h3.081ZM21.163,10h-.942L16.642,4.521V10H15.7V2.891h.942l3.589,5.5v-5.5h.933Zm6.577-6.343H25.455V10h-.933V3.657h-2.28V2.891h5.5ZM31.4,7.124h-1.67V10H28.79V2.891h2.354a2.786,2.786,0,0,1,1.848.547,1.968,1.968,0,0,1,.647,1.592,1.914,1.914,0,0,1-.359,1.157,2.142,2.142,0,0,1-1,.737l1.67,3.018V10H32.946Zm-1.67-.767h1.44A1.625,1.625,0,0,0,32.284,6a1.224,1.224,0,0,0,.413-.969A1.289,1.289,0,0,0,32.3,4.014a1.664,1.664,0,0,0-1.135-.357H29.733Zm9.238.356H35.89v2.52h3.579V10H34.953V2.891H39.42v.767H35.89v2.29h3.081Zm6.675-3.057H43.361V10h-.933V3.657h-2.28V2.891h5.5Zm-.132,5.869a.566.566,0,0,1,.139-.391.53.53,0,0,1,.417-.156.546.546,0,0,1,.422.156.554.554,0,0,1,.144.391.524.524,0,0,1-.144.376.556.556,0,0,1-.422.151.5.5,0,0,1-.557-.527ZM9.682,16.714H6.6v2.52H10.18V20H5.663V12.891h4.468v.767H6.6v2.29H9.682Zm3.76.117a4.408,4.408,0,0,1-1.755-.852,1.628,1.628,0,0,1-.549-1.248,1.72,1.72,0,0,1,.671-1.389,2.668,2.668,0,0,1,1.746-.549,2.913,2.913,0,0,1,1.306.283,2.148,2.148,0,0,1,.889.781,2,2,0,0,1,.315,1.089h-.942a1.3,1.3,0,0,0-.41-1.017,1.668,1.668,0,0,0-1.157-.37,1.708,1.708,0,0,0-1.082.306,1.02,1.02,0,0,0-.388.849.918.918,0,0,0,.369.736,3.616,3.616,0,0,0,1.255.55,5.823,5.823,0,0,1,1.387.55,2.1,2.1,0,0,1,.742.7,1.788,1.788,0,0,1,.242.942,1.661,1.661,0,0,1-.674,1.384,2.873,2.873,0,0,1-1.8.52,3.342,3.342,0,0,1-1.367-.281,2.3,2.3,0,0,1-.979-.769,1.877,1.877,0,0,1-.344-1.108h.942a1.224,1.224,0,0,0,.476,1.018,2,2,0,0,0,1.272.374,1.843,1.843,0,0,0,1.138-.3.983.983,0,0,0,.4-.825.965.965,0,0,0-.366-.808A4.222,4.222,0,0,0,13.441,16.831Zm8.75-3.174H19.906V20h-.933V13.657h-2.28v-.767h5.5ZM24.252,20h-.937V12.891h.938Zm2.656-.767h3.369V20H25.966V12.891h.942Zm9.59-2.559a4.4,4.4,0,0,1-.352,1.824,2.663,2.663,0,0,1-1,1.189,2.749,2.749,0,0,1-4-1.179,4.22,4.22,0,0,1-.369-1.77v-.513a4.346,4.346,0,0,1,.356-1.812,2.636,2.636,0,0,1,2.5-1.621,2.756,2.756,0,0,1,1.506.413,2.658,2.658,0,0,1,1,1.2,4.419,4.419,0,0,1,.352,1.824Zm-.933-.459a3.188,3.188,0,0,0-.508-1.941,1.675,1.675,0,0,0-1.421-.676,1.657,1.657,0,0,0-1.4.676,3.122,3.122,0,0,0-.525,1.877v.522a3.192,3.192,0,0,0,.515,1.926,1.805,1.805,0,0,0,2.825.039,3.174,3.174,0,0,0,.513-1.9ZM40.38,20V12.891h2.007a3.231,3.231,0,0,1,1.641.41,2.774,2.774,0,0,1,1.1,1.167,3.8,3.8,0,0,1,.393,1.738v.454a3.812,3.812,0,0,1-.388,1.763,2.731,2.731,0,0,1-1.108,1.162A3.436,3.436,0,0,1,42.348,20Zm.938-6.343v5.576H42.3a2.146,2.146,0,0,0,1.687-.674,2.786,2.786,0,0,0,.6-1.921v-.415a2.831,2.831,0,0,0-.569-1.884,2.024,2.024,0,0,0-1.614-.682Zm9.639,3.057H47.875v2.52h3.579V20H46.937V12.891h4.468v.767h-3.53v2.29h3.081ZM20.414,28.755l2.031-5.864h1.025L20.834,30H20l-2.632-7.109h1.021ZM25.429,30h-.937V22.891h.938Zm1.714,0V22.891h2.007a3.231,3.231,0,0,1,1.641.41,2.774,2.774,0,0,1,1.1,1.167,3.8,3.8,0,0,1,.393,1.738v.454a3.812,3.812,0,0,1-.388,1.763,2.731,2.731,0,0,1-1.108,1.162A3.436,3.436,0,0,1,29.11,30Zm.938-6.343v5.576h.986a2.146,2.146,0,0,0,1.687-.674,2.786,2.786,0,0,0,.6-1.921v-.415a2.831,2.831,0,0,0-.569-1.884,2.024,2.024,0,0,0-1.614-.682Zm9.546,4.482H34.647L33.978,30h-.967l2.715-7.109h.82L39.267,30H38.3Zm-2.7-.767h2.417l-1.211-3.325Z" transform="translate(264.826 180.271)" fill="#fff"/>
      <path id="Trazado_133029" data-name="Trazado 133029" d="M13.185,3.657H10.9V10H9.967V3.657H7.687V2.891h5.5ZM17.779,8.14H14.8L14.132,10h-.967L15.88,2.891h.82L19.42,10h-.962Zm-2.7-.767H17.5L16.29,4.048Zm7.9-.249h-1.67V10h-.942V2.891h2.354a2.786,2.786,0,0,1,1.848.547,1.968,1.968,0,0,1,.647,1.592,1.914,1.914,0,0,1-.359,1.157,2.142,2.142,0,0,1-1,.737l1.67,3.018V10H24.527Zm-1.67-.767h1.44A1.625,1.625,0,0,0,23.866,6a1.224,1.224,0,0,0,.413-.969,1.289,1.289,0,0,0-.393-1.013,1.664,1.664,0,0,0-1.135-.357H21.314Zm8.2-3.467h.942V7.925a2.085,2.085,0,0,1-.613,1.6,2.287,2.287,0,0,1-1.633.576,2.351,2.351,0,0,1-1.65-.542,1.957,1.957,0,0,1-.591-1.519h.938a1.178,1.178,0,0,0,1.3,1.294,1.257,1.257,0,0,0,.94-.366,1.419,1.419,0,0,0,.364-1.025ZM36.07,6.714H32.989v2.52h3.579V10H32.052V2.891H36.52v.767h-3.53v2.29H36.07Zm6.675-3.057H40.46V10h-.933V3.657h-2.28V2.891h5.5ZM47.34,8.14H44.361L43.692,10h-.967L45.44,2.891h.82L48.98,10h-.962Zm-2.7-.767h2.417L45.851,4.048Zm7.388-.542a4.408,4.408,0,0,1-1.755-.852,1.628,1.628,0,0,1-.549-1.248A1.72,1.72,0,0,1,50.4,3.342a2.668,2.668,0,0,1,1.746-.549,2.913,2.913,0,0,1,1.306.283,2.148,2.148,0,0,1,.889.781,2,2,0,0,1,.315,1.089h-.942A1.3,1.3,0,0,0,53.3,3.93a1.668,1.668,0,0,0-1.157-.37,1.708,1.708,0,0,0-1.082.306,1.02,1.02,0,0,0-.388.849.918.918,0,0,0,.369.736A3.616,3.616,0,0,0,52.3,6a5.823,5.823,0,0,1,1.387.55,2.1,2.1,0,0,1,.742.7,1.788,1.788,0,0,1,.242.942A1.661,1.661,0,0,1,54,9.578a2.873,2.873,0,0,1-1.8.52,3.342,3.342,0,0,1-1.367-.281,2.3,2.3,0,0,1-.979-.769A1.877,1.877,0,0,1,49.5,7.939h.942a1.224,1.224,0,0,0,.476,1.018,2,2,0,0,0,1.272.374,1.843,1.843,0,0,0,1.138-.3.983.983,0,0,0,.4-.825A.965.965,0,0,0,53.36,7.4,4.222,4.222,0,0,0,52.032,6.831ZM17.3,16.86H14.313V20h-.937V12.891h4.4v.767H14.313v2.437H17.3Zm5.625-.146H19.84v2.52h3.579V20H18.9V12.891H23.37v.767H19.84v2.29h3.081Zm6.895,1.03a2.616,2.616,0,0,1-.833,1.741,2.728,2.728,0,0,1-1.863.613,2.505,2.505,0,0,1-2.019-.9,3.634,3.634,0,0,1-.759-2.417v-.684a4.051,4.051,0,0,1,.354-1.743,2.644,2.644,0,0,1,1-1.155,2.794,2.794,0,0,1,1.5-.4,2.569,2.569,0,0,1,1.816.632,2.647,2.647,0,0,1,.8,1.75h-.942a2.043,2.043,0,0,0-.53-1.234,1.6,1.6,0,0,0-1.14-.382,1.677,1.677,0,0,0-1.409.665,3.051,3.051,0,0,0-.51,1.891V16.8a3.136,3.136,0,0,0,.483,1.842,1.562,1.562,0,0,0,1.353.684,1.8,1.8,0,0,0,1.2-.354,1.964,1.964,0,0,0,.554-1.233ZM36.559,20h-.942V16.714H32.032V20h-.937V12.891h.937v3.057h3.584V12.891h.942Zm5.679-1.86H39.259L38.59,20h-.967l2.715-7.109h.82L43.878,20h-.962Zm-2.7-.767h2.417l-1.211-3.325Zm7.388-.542a4.408,4.408,0,0,1-1.755-.852,1.628,1.628,0,0,1-.549-1.248,1.72,1.72,0,0,1,.671-1.389,2.668,2.668,0,0,1,1.746-.549,2.913,2.913,0,0,1,1.306.283,2.148,2.148,0,0,1,.889.781,2,2,0,0,1,.315,1.089h-.942a1.3,1.3,0,0,0-.41-1.017,1.668,1.668,0,0,0-1.157-.37,1.708,1.708,0,0,0-1.082.306,1.02,1.02,0,0,0-.388.849.918.918,0,0,0,.369.736A3.616,3.616,0,0,0,47.2,16a5.823,5.823,0,0,1,1.387.55,2.1,2.1,0,0,1,.742.7,1.788,1.788,0,0,1,.242.942,1.661,1.661,0,0,1-.674,1.384,2.873,2.873,0,0,1-1.8.52,3.342,3.342,0,0,1-1.367-.281,2.3,2.3,0,0,1-.979-.769,1.877,1.877,0,0,1-.344-1.108h.942a1.224,1.224,0,0,0,.476,1.018,2,2,0,0,0,1.272.374,1.843,1.843,0,0,0,1.138-.3.983.983,0,0,0,.4-.825.965.965,0,0,0-.366-.808A4.222,4.222,0,0,0,46.93,16.831ZM7.911,26.714H4.83v2.52H8.409V30H3.893V22.891H8.36v.767H4.83v2.29H7.911Zm3.76.117a4.408,4.408,0,0,1-1.755-.852,1.628,1.628,0,0,1-.549-1.248,1.72,1.72,0,0,1,.671-1.389,2.668,2.668,0,0,1,1.746-.549,2.913,2.913,0,0,1,1.306.283,2.148,2.148,0,0,1,.889.781,2,2,0,0,1,.315,1.089h-.942a1.3,1.3,0,0,0-.41-1.017,1.668,1.668,0,0,0-1.157-.37,1.708,1.708,0,0,0-1.082.306,1.02,1.02,0,0,0-.388.849.918.918,0,0,0,.369.736,3.616,3.616,0,0,0,1.255.55,5.823,5.823,0,0,1,1.387.55,2.1,2.1,0,0,1,.742.7,1.788,1.788,0,0,1,.242.942,1.661,1.661,0,0,1-.674,1.384,2.873,2.873,0,0,1-1.8.52,3.342,3.342,0,0,1-1.367-.281,2.3,2.3,0,0,1-.979-.769,1.877,1.877,0,0,1-.344-1.108h.942a1.224,1.224,0,0,0,.476,1.018,2,2,0,0,0,1.272.374,1.843,1.843,0,0,0,1.138-.3.983.983,0,0,0,.4-.825A.965.965,0,0,0,13,27.4,4.222,4.222,0,0,0,11.671,26.831Zm4.775.386V30h-.937V22.891h2.622a2.634,2.634,0,0,1,1.829.6,2.02,2.02,0,0,1,.662,1.577,1.993,1.993,0,0,1-.647,1.594,2.752,2.752,0,0,1-1.853.559Zm0-.767h1.685a1.684,1.684,0,0,0,1.152-.355,1.3,1.3,0,0,0,.4-1.025,1.34,1.34,0,0,0-.4-1.017,1.578,1.578,0,0,0-1.1-.4H16.446Zm9.39.264H22.755v2.52h3.579V30H21.817V22.891h4.468v.767h-3.53v2.29h3.081Zm6.895,1.03a2.616,2.616,0,0,1-.833,1.741,2.728,2.728,0,0,1-1.863.613,2.505,2.505,0,0,1-2.019-.9,3.634,3.634,0,0,1-.759-2.417v-.684a4.051,4.051,0,0,1,.354-1.743,2.644,2.644,0,0,1,1-1.155,2.794,2.794,0,0,1,1.5-.4,2.569,2.569,0,0,1,1.816.632,2.647,2.647,0,0,1,.8,1.75h-.942a2.043,2.043,0,0,0-.53-1.234,1.6,1.6,0,0,0-1.14-.382,1.677,1.677,0,0,0-1.409.665,3.051,3.051,0,0,0-.51,1.891V26.8a3.136,3.136,0,0,0,.483,1.842,1.562,1.562,0,0,0,1.353.684,1.8,1.8,0,0,0,1.2-.354,1.964,1.964,0,0,0,.554-1.233ZM35.016,30h-.937V22.891h.938Zm5.64-1.86H37.677L37.008,30h-.967l2.715-7.109h.82L42.3,30h-.962Zm-2.7-.767h2.417l-1.211-3.325Zm6.235,1.86h3.369V30H43.253V22.891H44.2Zm8.457-2.52H49.571v2.52H53.15V30H48.634V22.891H53.1v.767h-3.53v2.29h3.081Zm3.76.117a4.408,4.408,0,0,1-1.755-.852,1.628,1.628,0,0,1-.549-1.248,1.72,1.72,0,0,1,.671-1.389,2.668,2.668,0,0,1,1.746-.549,2.913,2.913,0,0,1,1.306.283,2.148,2.148,0,0,1,.889.781,2,2,0,0,1,.315,1.089h-.942a1.3,1.3,0,0,0-.41-1.017,1.668,1.668,0,0,0-1.157-.37,1.708,1.708,0,0,0-1.082.306,1.02,1.02,0,0,0-.388.849.918.918,0,0,0,.369.736,3.616,3.616,0,0,0,1.255.55,5.823,5.823,0,0,1,1.387.55,2.1,2.1,0,0,1,.742.7,1.788,1.788,0,0,1,.242.942,1.661,1.661,0,0,1-.674,1.384,2.873,2.873,0,0,1-1.8.52,3.342,3.342,0,0,1-1.367-.281,2.3,2.3,0,0,1-.979-.769,1.877,1.877,0,0,1-.344-1.108h.942a1.224,1.224,0,0,0,.476,1.018,2,2,0,0,0,1.272.374,1.843,1.843,0,0,0,1.138-.3.983.983,0,0,0,.4-.825.965.965,0,0,0-.366-.808A4.222,4.222,0,0,0,56.412,26.831Z" transform="translate(238.462 246.669)" fill="#fff"/>
      <path id="Trazado_133031" data-name="Trazado 133031" d="M20.038,3.657H17.752V10H16.82V3.657H14.54V2.891h5.5Zm6.387,3.018A4.4,4.4,0,0,1,26.073,8.5a2.663,2.663,0,0,1-1,1.189,2.749,2.749,0,0,1-4-1.179,4.22,4.22,0,0,1-.369-1.77V6.226a4.346,4.346,0,0,1,.356-1.812,2.636,2.636,0,0,1,2.5-1.621,2.756,2.756,0,0,1,1.506.413,2.658,2.658,0,0,1,1,1.2,4.419,4.419,0,0,1,.352,1.824Zm-.933-.459a3.188,3.188,0,0,0-.508-1.941A1.675,1.675,0,0,0,23.563,3.6a1.657,1.657,0,0,0-1.4.676,3.122,3.122,0,0,0-.525,1.877v.522A3.192,3.192,0,0,0,22.154,8.6a1.805,1.805,0,0,0,2.825.039,3.174,3.174,0,0,0,.513-1.9Zm3.55-3.325,2.324,5.8,2.324-5.8h1.216V10h-.937V7.231l.088-2.988L31.722,10H31L28.675,4.258l.093,2.974V10h-.937V2.891ZM40.487,8.14H37.508L36.839,10h-.967l2.715-7.109h.82L42.127,10h-.962Zm-2.7-.767h2.417L39,4.048Zm7.388-.542a4.408,4.408,0,0,1-1.755-.852,1.628,1.628,0,0,1-.549-1.248,1.72,1.72,0,0,1,.671-1.389,2.668,2.668,0,0,1,1.746-.549,2.913,2.913,0,0,1,1.306.283,2.148,2.148,0,0,1,.889.781A2,2,0,0,1,47.8,4.946h-.942a1.3,1.3,0,0,0-.41-1.017,1.668,1.668,0,0,0-1.157-.37,1.708,1.708,0,0,0-1.082.306,1.02,1.02,0,0,0-.388.849.918.918,0,0,0,.369.736A3.616,3.616,0,0,0,45.445,6a5.823,5.823,0,0,1,1.387.55,2.1,2.1,0,0,1,.742.7,1.788,1.788,0,0,1,.242.942,1.661,1.661,0,0,1-.674,1.384,2.873,2.873,0,0,1-1.8.52,3.342,3.342,0,0,1-1.367-.281,2.3,2.3,0,0,1-.979-.769,1.877,1.877,0,0,1-.344-1.108h.942a1.224,1.224,0,0,0,.476,1.018,2,2,0,0,0,1.272.374,1.843,1.843,0,0,0,1.138-.3.983.983,0,0,0,.4-.825.965.965,0,0,0-.366-.808A4.222,4.222,0,0,0,45.179,6.831ZM6.371,17.217V20H5.433V12.891H8.055a2.634,2.634,0,0,1,1.829.6,2.02,2.02,0,0,1,.662,1.577A1.993,1.993,0,0,1,9.9,16.658a2.752,2.752,0,0,1-1.853.559Zm0-.767H8.055A1.684,1.684,0,0,0,9.208,16.1a1.3,1.3,0,0,0,.4-1.025,1.34,1.34,0,0,0-.4-1.017,1.578,1.578,0,0,0-1.1-.4H6.371Zm10.376-3.56v4.834a2.268,2.268,0,0,1-.632,1.646,2.548,2.548,0,0,1-1.7.718l-.249.01a2.661,2.661,0,0,1-1.86-.63,2.253,2.253,0,0,1-.7-1.733V12.891h.928v4.814a1.483,1.483,0,0,0,1.636,1.626,1.644,1.644,0,0,0,1.218-.425,1.623,1.623,0,0,0,.422-1.2V12.891ZM23.69,20h-.942l-3.579-5.479V20h-.942V12.891h.942l3.589,5.5v-5.5h.933Zm6.577-6.343H27.982V20h-.933V13.657h-2.28v-.767h5.5Zm6.387,3.018A4.4,4.4,0,0,1,36.3,18.5a2.663,2.663,0,0,1-1,1.189,2.749,2.749,0,0,1-4-1.179,4.22,4.22,0,0,1-.369-1.77v-.513a4.346,4.346,0,0,1,.356-1.812,2.636,2.636,0,0,1,2.5-1.621,2.756,2.756,0,0,1,1.506.413,2.658,2.658,0,0,1,1,1.2,4.419,4.419,0,0,1,.352,1.824Zm-.933-.459a3.188,3.188,0,0,0-.508-1.941,1.675,1.675,0,0,0-1.421-.676,1.657,1.657,0,0,0-1.4.676,3.122,3.122,0,0,0-.525,1.877v.522a3.192,3.192,0,0,0,.515,1.926,1.805,1.805,0,0,0,2.825.039,3.174,3.174,0,0,0,.513-1.9Zm4.434.615a4.408,4.408,0,0,1-1.755-.852,1.628,1.628,0,0,1-.549-1.248,1.72,1.72,0,0,1,.671-1.389,2.668,2.668,0,0,1,1.746-.549,2.913,2.913,0,0,1,1.306.283,2.148,2.148,0,0,1,.889.781,2,2,0,0,1,.315,1.089h-.942a1.3,1.3,0,0,0-.41-1.017,1.668,1.668,0,0,0-1.157-.37,1.708,1.708,0,0,0-1.082.306,1.02,1.02,0,0,0-.388.849.918.918,0,0,0,.369.736,3.616,3.616,0,0,0,1.255.55,5.823,5.823,0,0,1,1.387.55,2.1,2.1,0,0,1,.742.7,1.788,1.788,0,0,1,.242.942,1.661,1.661,0,0,1-.674,1.384,2.873,2.873,0,0,1-1.8.52,3.342,3.342,0,0,1-1.367-.281,2.3,2.3,0,0,1-.979-.769,1.877,1.877,0,0,1-.344-1.108h.942a1.224,1.224,0,0,0,.476,1.018,2,2,0,0,0,1.272.374,1.843,1.843,0,0,0,1.138-.3.983.983,0,0,0,.4-.825.965.965,0,0,0-.366-.808A4.222,4.222,0,0,0,40.155,16.831ZM46.468,20V12.891h2.007a3.231,3.231,0,0,1,1.641.41,2.774,2.774,0,0,1,1.1,1.167,3.8,3.8,0,0,1,.393,1.738v.454a3.812,3.812,0,0,1-.388,1.763,2.731,2.731,0,0,1-1.108,1.162A3.436,3.436,0,0,1,48.436,20Zm.938-6.343v5.576h.986a2.146,2.146,0,0,0,1.687-.674,2.786,2.786,0,0,0,.6-1.921v-.415a2.831,2.831,0,0,0-.569-1.884,2.024,2.024,0,0,0-1.614-.682Zm9.639,3.057H53.963v2.52h3.579V20H53.026V12.891h4.468v.767h-3.53v2.29h3.081ZM19.012,28.755l2.031-5.864h1.025L19.432,30H18.6L15.97,22.891h1.021Zm8.027-2.041H23.959v2.52h3.579V30H23.021V22.891h4.468v.767h-3.53v2.29H27.04ZM34.168,30h-.942l-3.579-5.479V30H28.7V22.891h.942l3.589,5.5v-5.5h.933Zm6.577-6.343H38.46V30h-.933V23.657h-2.28v-.767h5.5Zm5.073,3.057H42.738v2.52h3.579V30H41.8V22.891h4.468v.767h-3.53v2.29h3.081Z" transform="translate(96.878 247.645)" fill="#fff"/>
    </g>
  </g>
</svg>
