<svg xmlns="http://www.w3.org/2000/svg" xmlns:xlink="http://www.w3.org/1999/xlink" width="397.665" height="398.364" viewBox="0 0 397.665 398.364">
  <defs>
    <linearGradient id="linear-gradient" y1="0.5" x2="1" y2="0.5" gradientUnits="objectBoundingBox">
      <stop offset="0" stop-color="#c4c0c3"/>
      <stop offset="0.47" stop-color="#e1dfe0"/>
      <stop offset="0.96" stop-color="#fff"/>
    </linearGradient>
    <linearGradient id="linear-gradient-2" x1="0.269" y1="0.025" x2="0.756" y2="1.027" xlink:href="#linear-gradient"/>
  </defs>
  <g id="OBJECTS" transform="translate(-4.913 -6.203)">
    <path id="Trazado_132418" data-name="Trazado 132418" d="M155.869,289.664,50.405,246.76a170.887,170.887,0,0,0-8.963,35.091,28.555,28.555,0,0,0,.861,54.081,171.693,171.693,0,0,0,9.027,32.277l104.891-44.228A57.3,57.3,0,0,1,155.869,289.664Z" transform="translate(-7.415 -101.536)" fill="#26aab7"/>
    <path id="Trazado_132419" data-name="Trazado 132419" d="M576.971,304.452a28.572,28.572,0,0,0-19.239-26.48,171.992,171.992,0,0,0-9.362-34.842L443.45,287.364a57.213,57.213,0,0,1,.069,34.461l105.429,42.9a171.222,171.222,0,0,0,8.7-32.733,28.566,28.566,0,0,0,19.325-27.538Z" transform="translate(-185.1 -100.004)" fill="#26aab7"/>
    <path id="Trazado_132420" data-name="Trazado 132420" d="M366.534,549.5,322.3,444.6a57.254,57.254,0,0,1-34.212.15l-42.9,105.458a170.913,170.913,0,0,0,33.057,8.669,28.561,28.561,0,0,0,54.272-.156A171.849,171.849,0,0,0,366.534,549.5Z" transform="translate(-101.418 -185.042)" fill="#26aab7"/>
    <path id="Trazado_132421" data-name="Trazado 132421" d="M328.753,43.1a28.555,28.555,0,0,0-53.711.474,171.638,171.638,0,0,0-33.652,9.247l44.228,104.891a57.248,57.248,0,0,1,34.559-.272L363.1,52a171.5,171.5,0,0,0-34.351-8.9Z" transform="translate(-99.814 -7.716)" fill="#26aab7"/>
    <path id="Trazado_132422" data-name="Trazado 132422" d="M162.763,80.45a171.9,171.9,0,0,0-31.011,18.378A28.549,28.549,0,0,0,94.477,136.97a171.375,171.375,0,0,0-17.037,30.1l105.446,42.91A57.3,57.3,0,0,1,207,185.37Z" transform="translate(-30.613 -31.339)" fill="#786ead"/>
    <path id="Trazado_132423" data-name="Trazado 132423" d="M208.579,420.665A57.213,57.213,0,0,1,184.2,396.67L79.3,440.9A171.639,171.639,0,0,0,96.909,470.88a28.555,28.555,0,0,0,38.72,38.142,171.466,171.466,0,0,0,30.051,17.072Z" transform="translate(-31.398 -164.811)" fill="#786ead"/>
    <path id="Trazado_132424" data-name="Trazado 132424" d="M510.334,482.361a28.364,28.364,0,0,0-3.369-12.945,171.578,171.578,0,0,0,17.684-30.832L419.18,395.68A57.253,57.253,0,0,1,395,420l44.228,104.9A171.586,171.586,0,0,0,468.3,508.026a28.549,28.549,0,0,0,42.06-25.665Z" transform="translate(-164.65 -164.393)" fill="#786ead"/>
    <path id="Trazado_132425" data-name="Trazado 132425" d="M505.94,134.2A28.555,28.555,0,0,0,467.8,96.362,171.39,171.39,0,0,0,437.007,78.77L394.12,184.228a57.254,57.254,0,0,1,24.556,24.324l104.9-44.228A171.924,171.924,0,0,0,505.94,134.2Z" transform="translate(-164.279 -30.63)" fill="#786ead"/>
    <path id="Trazado_132426" data-name="Trazado 132426" d="M377.47,272.245a106.694,106.694,0,0,0-26.9-70.962A107.093,107.093,0,0,0,192.9,346.2a107.1,107.1,0,0,0,184.568-73.95Z" transform="translate(-67.992 -68.352)" fill="#aee6e6"/>
    <path id="Trazado_132427" data-name="Trazado 132427" d="M364.2,304.478a61.259,61.259,0,1,0-17.942,43.537A61.478,61.478,0,0,0,364.2,304.478Z" transform="translate(-99.75 -99.949)" fill="#e8c85f"/>
    <circle id="Elipse_4369" data-name="Elipse 4369" cx="55.272" cy="55.272" r="55.272" transform="translate(125.584 205.384) rotate(-45)" fill="url(#linear-gradient)"/>
    <circle id="Elipse_4370" data-name="Elipse 4370" cx="51.192" cy="51.192" r="51.192" transform="translate(131.354 205.384) rotate(-45)" fill="url(#linear-gradient-2)"/>
    <path id="Trazado_132428" data-name="Trazado 132428" d="M274.2,348.8a3.959,3.959,0,0,1-1.266,2.641,4.1,4.1,0,0,1-2.826.93A3.808,3.808,0,0,1,267.04,351a5.513,5.513,0,0,1-1.156-3.67v-1.04a6.132,6.132,0,0,1,.537-2.647,4.046,4.046,0,0,1,1.52-1.734,4.288,4.288,0,0,1,2.312-.613,3.924,3.924,0,0,1,2.757.959,4.011,4.011,0,0,1,1.208,2.664h-1.427a3.109,3.109,0,0,0-.809-1.878,2.421,2.421,0,0,0-1.734-.578,2.548,2.548,0,0,0-2.144,1.011,4.623,4.623,0,0,0-.774,2.89v1.046a4.79,4.79,0,0,0,.734,2.8,2.381,2.381,0,0,0,2.057,1.04,2.739,2.739,0,0,0,1.82-.537,2.988,2.988,0,0,0,.844-1.872Z" transform="translate(-110.149 -141.437)" fill="#786ead"/>
    <path id="Trazado_132429" data-name="Trazado 132429" d="M291.621,347.16a6.721,6.721,0,0,1-.532,2.768,4.045,4.045,0,0,1-1.514,1.809,4.208,4.208,0,0,1-2.312.618,4.045,4.045,0,0,1-3.8-2.41,6.432,6.432,0,0,1-.578-2.693v-.774a6.576,6.576,0,0,1,.543-2.757,4.011,4.011,0,0,1,3.8-2.462,4.2,4.2,0,0,1,2.312.63,4.045,4.045,0,0,1,1.526,1.815,6.784,6.784,0,0,1,.532,2.774Zm-1.416-.7a4.826,4.826,0,0,0-.769-2.947,2.543,2.543,0,0,0-2.161-1.029,2.514,2.514,0,0,0-2.127,1.029,4.768,4.768,0,0,0-.8,2.849v.8a4.855,4.855,0,0,0,.786,2.924,2.739,2.739,0,0,0,4.288.058,4.8,4.8,0,0,0,.78-2.89Z" transform="translate(-117.329 -141.422)" fill="#786ead"/>
    <path id="Trazado_132430" data-name="Trazado 132430" d="M310.019,352.321h-1.433L303.153,344v8.322H301.72v-10.8h1.433l5.45,8.368V341.52h1.416Z" transform="translate(-125.278 -141.533)" fill="#786ead"/>
    <path id="Trazado_132431" data-name="Trazado 132431" d="M323.231,347.394a6.75,6.75,0,0,1-2.664-1.295,2.479,2.479,0,0,1-.832-1.9,2.6,2.6,0,0,1,1.017-2.109,4.045,4.045,0,0,1,2.653-.838,4.386,4.386,0,0,1,1.982.433,3.23,3.23,0,0,1,1.352,1.185,3.045,3.045,0,0,1,.48,1.653h-1.433a1.976,1.976,0,0,0-.624-1.543,2.525,2.525,0,0,0-1.734-.578,2.635,2.635,0,0,0-1.647.462,1.566,1.566,0,0,0-.578,1.289,1.4,1.4,0,0,0,.578,1.121,5.432,5.432,0,0,0,1.907.832,8.8,8.8,0,0,1,2.109.838,3.289,3.289,0,0,1,1.127,1.063,2.739,2.739,0,0,1,.364,1.433,2.525,2.525,0,0,1-1.023,2.1,4.363,4.363,0,0,1-2.734.786,5.09,5.09,0,0,1-2.08-.422,3.513,3.513,0,0,1-1.485-1.156,2.849,2.849,0,0,1-.526-1.682h1.433a1.873,1.873,0,0,0,.722,1.549,3.075,3.075,0,0,0,1.936.578,2.809,2.809,0,0,0,1.734-.462,1.5,1.5,0,0,0,.578-1.254,1.456,1.456,0,0,0-.578-1.225A6.413,6.413,0,0,0,323.231,347.394Z" transform="translate(-132.757 -141.42)" fill="#786ead"/>
    <path id="Trazado_132432" data-name="Trazado 132432" d="M343.5,341.52v7.345a3.468,3.468,0,0,1-.959,2.5,3.9,3.9,0,0,1-2.589,1.092h-.376a4.045,4.045,0,0,1-2.826-.954,3.421,3.421,0,0,1-1.069-2.635V341.52h1.41v7.316a2.479,2.479,0,0,0,.641,1.82,2.514,2.514,0,0,0,1.844.647,2.485,2.485,0,0,0,1.849-.647,2.456,2.456,0,0,0,.641-1.815V341.52Z" transform="translate(-139.61 -141.533)" fill="#786ead"/>
    <path id="Trazado_132433" data-name="Trazado 132433" d="M354.938,341.52l3.531,8.813L362,341.52h1.844v10.8h-1.422v-4.207l.133-4.537-3.543,8.744H357.92l-3.537-8.726.139,4.519v4.207H353.1v-10.8Z" transform="translate(-146.965 -141.533)" fill="#786ead"/>
    <path id="Trazado_132434" data-name="Trazado 132434" d="M377.647,352.321H376.22v-10.8h1.427Z" transform="translate(-156.724 -141.533)" fill="#786ead"/>
    <path id="Trazado_132435" data-name="Trazado 132435" d="M383.19,352.32v-10.8h3.051a4.907,4.907,0,0,1,2.491.624,4.213,4.213,0,0,1,1.676,1.774,5.778,5.778,0,0,1,.578,2.635v.694a5.779,5.779,0,0,1-.578,2.676,4.126,4.126,0,0,1-1.687,1.768,5.2,5.2,0,0,1-2.543.63Zm1.427-9.634v8.466h1.5a3.271,3.271,0,0,0,2.566-1.023,4.248,4.248,0,0,0,.913-2.918v-.63a4.282,4.282,0,0,0-.867-2.861,3.051,3.051,0,0,0-2.45-1.034Z" transform="translate(-159.665 -141.532)" fill="#786ead"/>
    <path id="Trazado_132436" data-name="Trazado 132436" d="M408.452,347.16a6.628,6.628,0,0,1-.537,2.768,4.045,4.045,0,0,1-1.514,1.809,4.19,4.19,0,0,1-2.283.618,4.045,4.045,0,0,1-3.791-2.41,6.358,6.358,0,0,1-.578-2.693v-.774a6.664,6.664,0,0,1,.537-2.757,4.253,4.253,0,0,1,6.085-1.832A3.988,3.988,0,0,1,407.9,343.7a6.692,6.692,0,0,1,.537,2.774Zm-1.422-.7a4.825,4.825,0,0,0-.769-2.947,2.543,2.543,0,0,0-2.156-1.029,2.508,2.508,0,0,0-2.127,1.029,4.687,4.687,0,0,0-.8,2.849v.8a4.854,4.854,0,0,0,.78,2.924,2.745,2.745,0,0,0,4.294.058,4.8,4.8,0,0,0,.774-2.89Z" transform="translate(-166.654 -141.423)" fill="#786ead"/>
    <path id="Trazado_132437" data-name="Trazado 132437" d="M422.473,347.946h-2.52v4.369H418.52v-10.8H422.1a4.242,4.242,0,0,1,2.809.832,2.994,2.994,0,0,1,.982,2.416,2.89,2.89,0,0,1-.549,1.734,3.242,3.242,0,0,1-1.514,1.121l2.537,4.583v.092h-1.531Zm-2.537-1.156h2.185a2.445,2.445,0,0,0,1.688-.549,1.844,1.844,0,0,0,.63-1.474,1.965,1.965,0,0,0-.578-1.537,2.508,2.508,0,0,0-1.734-.537h-2.173Z" transform="translate(-174.578 -141.527)" fill="#786ead"/>
    <path id="Trazado_132438" data-name="Trazado 132438" d="M402.568,207.552q.035-3.571-.046-7.137c-.035-1.572-.081-3.144-.156-4.716-.04-.878-.1-1.734-.156-2.635-.116-1.924-.254-3.849-.428-5.779-.046-.474-.081-.948-.127-1.416a198.727,198.727,0,0,0-30.733-88.525C311.57,5.155,188.3-21.556,96.089,37.819A198.748,198.748,0,0,0,5.148,196.167C-.053,303.5,81.664,396.246,189.422,404.042c109.353,7.906,204.761-74.626,212.672-183.984.272-3.768.4-7.513.468-11.269C402.568,208.355,402.568,207.962,402.568,207.552ZM203.974,375.066a168.594,168.594,0,0,1-101.615-33.791,14.181,14.181,0,0,0-2.381-2.364A167.826,167.826,0,0,1,64.148,300.85c-29.982-43.731-36.542-97.338-22.2-145.085a169.363,169.363,0,0,1,80.145-98.419,14.1,14.1,0,0,0,3.219-2.439c76.718-40.153,173.05-15.748,220.8,58.421a169.242,169.242,0,0,1,20.707,46.094,12.988,12.988,0,0,0,.324,1.537,167.468,167.468,0,0,1,5.508,31.918c.052.746.081,1.491.127,2.237.064,1.075.127,2.144.168,3.219.058,1.381.092,2.768.116,4.149v.936a169.4,169.4,0,0,1-14.933,71.159,14.77,14.77,0,0,0-.642,1.768C330.5,334.543,271.457,375.106,203.974,375.066Z" transform="translate(0 0)" fill="#6a5d99"/>
    <path id="Trazado_133034" data-name="Trazado 133034" d="M.825,0V-7.109H2.832a3.231,3.231,0,0,1,1.641.41,2.774,2.774,0,0,1,1.1,1.167,3.8,3.8,0,0,1,.393,1.738v.454a3.812,3.812,0,0,1-.388,1.763A2.731,2.731,0,0,1,4.47-.415,3.436,3.436,0,0,1,2.793,0Zm.938-6.343V-.767h.986a2.146,2.146,0,0,0,1.687-.674,2.786,2.786,0,0,0,.6-1.921v-.415A2.831,2.831,0,0,0,4.47-5.661a2.024,2.024,0,0,0-1.614-.682ZM9.99-2.876H8.32V0H7.378V-7.109H9.731a2.786,2.786,0,0,1,1.848.547,1.968,1.968,0,0,1,.647,1.592,1.914,1.914,0,0,1-.359,1.157,2.142,2.142,0,0,1-1,.737l1.67,3.018V0H11.533ZM8.32-3.643h1.44A1.625,1.625,0,0,0,10.872-4a1.224,1.224,0,0,0,.413-.969,1.289,1.289,0,0,0-.393-1.013,1.664,1.664,0,0,0-1.135-.357H8.32Zm10.3.767h-1.67V0h-.942V-7.109h2.354a2.786,2.786,0,0,1,1.848.547,1.968,1.968,0,0,1,.647,1.592A1.914,1.914,0,0,1,20.5-3.813a2.142,2.142,0,0,1-1,.737l1.67,3.018V0H20.166Zm-1.67-.767h1.44A1.625,1.625,0,0,0,19.5-4a1.224,1.224,0,0,0,.413-.969,1.289,1.289,0,0,0-.393-1.013,1.664,1.664,0,0,0-1.135-.357H16.953ZM26.1-1.86H23.12L22.451,0h-.967L24.2-7.109h.82L27.739,0h-.962Zm-2.7-.767H25.82L24.609-5.952ZM28.7,0V-7.109H30.7a3.231,3.231,0,0,1,1.641.41,2.774,2.774,0,0,1,1.1,1.167,3.8,3.8,0,0,1,.393,1.738v.454a3.812,3.812,0,0,1-.388,1.763A2.731,2.731,0,0,1,32.341-.415,3.436,3.436,0,0,1,30.664,0Zm.938-6.343V-.767h.986a2.146,2.146,0,0,0,1.687-.674,2.786,2.786,0,0,0,.6-1.921v-.415a2.831,2.831,0,0,0-.569-1.884,2.024,2.024,0,0,0-1.614-.682ZM36.26,0h-.937V-7.109h.938Zm7.183-3.325A4.4,4.4,0,0,1,43.091-1.5a2.663,2.663,0,0,1-1,1.189,2.741,2.741,0,0,1-1.5.41A2.717,2.717,0,0,1,39.1-.315a2.727,2.727,0,0,1-1.008-1.177,4.22,4.22,0,0,1-.369-1.77v-.513a4.346,4.346,0,0,1,.356-1.812,2.717,2.717,0,0,1,1.008-1.2,2.706,2.706,0,0,1,1.492-.417,2.756,2.756,0,0,1,1.506.413,2.658,2.658,0,0,1,1,1.2,4.419,4.419,0,0,1,.352,1.824Zm-.933-.459A3.188,3.188,0,0,0,42-5.725,1.675,1.675,0,0,0,40.581-6.4a1.657,1.657,0,0,0-1.4.676,3.122,3.122,0,0,0-.525,1.877v.522A3.192,3.192,0,0,0,39.172-1.4a1.664,1.664,0,0,0,1.418.7A1.657,1.657,0,0,0,42-1.36a3.174,3.174,0,0,0,.513-1.9Z" transform="translate(85.438 107.904)" fill="#fff"/>
    <path id="Trazado_133024" data-name="Trazado 133024" d="M6.055-2.256A2.616,2.616,0,0,1,5.222-.515,2.728,2.728,0,0,1,3.359.1a2.505,2.505,0,0,1-2.019-.9A3.634,3.634,0,0,1,.581-3.223v-.684A4.051,4.051,0,0,1,.935-5.649a2.644,2.644,0,0,1,1-1.155,2.794,2.794,0,0,1,1.5-.4,2.569,2.569,0,0,1,1.816.632,2.647,2.647,0,0,1,.8,1.75H5.112a2.043,2.043,0,0,0-.53-1.234,1.6,1.6,0,0,0-1.14-.382,1.677,1.677,0,0,0-1.409.665,3.051,3.051,0,0,0-.51,1.891V-3.2a3.136,3.136,0,0,0,.483,1.842,1.562,1.562,0,0,0,1.353.684,1.8,1.8,0,0,0,1.2-.354,1.964,1.964,0,0,0,.554-1.233ZM8.276-.767h3.369V0H7.334V-7.109h.942Zm8.88-6.343v4.834A2.268,2.268,0,0,1,16.524-.63a2.548,2.548,0,0,1-1.7.718L14.573.1a2.661,2.661,0,0,1-1.86-.63,2.253,2.253,0,0,1-.7-1.733V-7.109h.928v4.814a1.626,1.626,0,0,0,.425,1.2,1.633,1.633,0,0,0,1.211.427,1.644,1.644,0,0,0,1.218-.425,1.623,1.623,0,0,0,.422-1.2V-7.109ZM18.636,0V-7.109H20.96a2.7,2.7,0,0,1,1.741.479,1.725,1.725,0,0,1,.583,1.416A1.444,1.444,0,0,1,23-4.333a1.836,1.836,0,0,1-.771.593,1.649,1.649,0,0,1,.911.613,1.759,1.759,0,0,1,.334,1.077,1.9,1.9,0,0,1-.62,1.5A2.564,2.564,0,0,1,21.1,0Zm.938-3.325V-.767h1.548a1.49,1.49,0,0,0,1.033-.339,1.192,1.192,0,0,0,.378-.935q0-1.284-1.4-1.284Zm0-.752h1.416a1.484,1.484,0,0,0,.984-.308,1.033,1.033,0,0,0,.369-.837A1.016,1.016,0,0,0,22-6.076a1.679,1.679,0,0,0-1.04-.267H19.573Zm9.307.791H25.8v2.52h3.579V0H24.861V-7.109h4.468v.767H25.8v2.29H28.88Zm3.76.117a4.408,4.408,0,0,1-1.755-.852,1.628,1.628,0,0,1-.549-1.248,1.72,1.72,0,0,1,.671-1.389,2.668,2.668,0,0,1,1.746-.549,2.913,2.913,0,0,1,1.306.283,2.148,2.148,0,0,1,.889.781,2,2,0,0,1,.315,1.089h-.942a1.3,1.3,0,0,0-.41-1.017,1.668,1.668,0,0,0-1.157-.37,1.708,1.708,0,0,0-1.082.306,1.02,1.02,0,0,0-.388.849.918.918,0,0,0,.369.736A3.616,3.616,0,0,0,32.906-4a5.823,5.823,0,0,1,1.387.55,2.1,2.1,0,0,1,.742.7,1.788,1.788,0,0,1,.242.942A1.661,1.661,0,0,1,34.6-.422,2.873,2.873,0,0,1,32.8.1a3.342,3.342,0,0,1-1.367-.281,2.3,2.3,0,0,1-.979-.769,1.877,1.877,0,0,1-.344-1.108h.942a1.224,1.224,0,0,0,.476,1.018A2,2,0,0,0,32.8-.669a1.843,1.843,0,0,0,1.138-.3.983.983,0,0,0,.4-.825.965.965,0,0,0-.366-.808A4.222,4.222,0,0,0,32.639-3.169Z" transform="translate(86.513 302.615)" fill="#fff"/>
    <path id="Trazado_133022" data-name="Trazado 133022" d="M6.055-2.256A2.616,2.616,0,0,1,5.222-.515,2.728,2.728,0,0,1,3.359.1a2.505,2.505,0,0,1-2.019-.9A3.634,3.634,0,0,1,.581-3.223v-.684A4.051,4.051,0,0,1,.935-5.649a2.644,2.644,0,0,1,1-1.155,2.794,2.794,0,0,1,1.5-.4,2.569,2.569,0,0,1,1.816.632,2.647,2.647,0,0,1,.8,1.75H5.112a2.043,2.043,0,0,0-.53-1.234,1.6,1.6,0,0,0-1.14-.382,1.677,1.677,0,0,0-1.409.665,3.051,3.051,0,0,0-.51,1.891V-3.2a3.136,3.136,0,0,0,.483,1.842,1.562,1.562,0,0,0,1.353.684,1.8,1.8,0,0,0,1.2-.354,1.964,1.964,0,0,0,.554-1.233ZM12.8-3.325A4.4,4.4,0,0,1,12.451-1.5a2.663,2.663,0,0,1-1,1.189,2.741,2.741,0,0,1-1.5.41A2.717,2.717,0,0,1,8.462-.315,2.727,2.727,0,0,1,7.454-1.492a4.22,4.22,0,0,1-.369-1.77v-.513a4.346,4.346,0,0,1,.356-1.812A2.717,2.717,0,0,1,8.45-6.79a2.706,2.706,0,0,1,1.492-.417,2.756,2.756,0,0,1,1.506.413,2.658,2.658,0,0,1,1,1.2A4.419,4.419,0,0,1,12.8-3.774Zm-.933-.459a3.188,3.188,0,0,0-.508-1.941A1.675,1.675,0,0,0,9.941-6.4a1.657,1.657,0,0,0-1.4.676,3.122,3.122,0,0,0-.525,1.877v.522A3.192,3.192,0,0,0,8.533-1.4a1.664,1.664,0,0,0,1.418.7,1.657,1.657,0,0,0,1.406-.662,3.174,3.174,0,0,0,.513-1.9ZM19.673,0H18.73L15.151-5.479V0h-.942V-7.109h.942l3.589,5.5v-5.5h.933Zm6.895-2.256a2.616,2.616,0,0,1-.833,1.741A2.728,2.728,0,0,1,23.872.1a2.505,2.505,0,0,1-2.019-.9,3.634,3.634,0,0,1-.759-2.417v-.684a4.051,4.051,0,0,1,.354-1.743,2.644,2.644,0,0,1,1-1.155,2.794,2.794,0,0,1,1.5-.4,2.569,2.569,0,0,1,1.816.632,2.647,2.647,0,0,1,.8,1.75h-.942a2.043,2.043,0,0,0-.53-1.234,1.6,1.6,0,0,0-1.14-.382,1.677,1.677,0,0,0-1.409.665,3.051,3.051,0,0,0-.51,1.891V-3.2a3.136,3.136,0,0,0,.483,1.842,1.562,1.562,0,0,0,1.353.684,1.8,1.8,0,0,0,1.2-.354,1.964,1.964,0,0,0,.554-1.233Zm6.284-4.854v4.834A2.268,2.268,0,0,1,32.219-.63a2.548,2.548,0,0,1-1.7.718L30.269.1a2.661,2.661,0,0,1-1.86-.63,2.253,2.253,0,0,1-.7-1.733V-7.109h.928v4.814a1.626,1.626,0,0,0,.425,1.2,1.633,1.633,0,0,0,1.211.427,1.644,1.644,0,0,0,1.218-.425,1.623,1.623,0,0,0,.422-1.2V-7.109Zm4.087,4.233h-1.67V0h-.942V-7.109H36.68a2.786,2.786,0,0,1,1.848.547,1.968,1.968,0,0,1,.647,1.592,1.914,1.914,0,0,1-.359,1.157,2.142,2.142,0,0,1-1,.737l1.67,3.018V0H38.481Zm-1.67-.767h1.44A1.625,1.625,0,0,0,37.82-4a1.224,1.224,0,0,0,.413-.969,1.289,1.289,0,0,0-.393-1.013A1.664,1.664,0,0,0,36.7-6.343H35.269Zm7.314.474a4.408,4.408,0,0,1-1.755-.852,1.628,1.628,0,0,1-.549-1.248,1.72,1.72,0,0,1,.671-1.389A2.668,2.668,0,0,1,42.7-7.207,2.913,2.913,0,0,1,44-6.924a2.148,2.148,0,0,1,.889.781,2,2,0,0,1,.315,1.089h-.942a1.3,1.3,0,0,0-.41-1.017A1.668,1.668,0,0,0,42.7-6.44a1.708,1.708,0,0,0-1.082.306,1.02,1.02,0,0,0-.388.849.918.918,0,0,0,.369.736A3.616,3.616,0,0,0,42.849-4a5.823,5.823,0,0,1,1.387.55,2.1,2.1,0,0,1,.742.7,1.788,1.788,0,0,1,.242.942,1.661,1.661,0,0,1-.674,1.384,2.873,2.873,0,0,1-1.8.52,3.342,3.342,0,0,1-1.367-.281A2.3,2.3,0,0,1,40.4-.952a1.877,1.877,0,0,1-.344-1.108H41a1.224,1.224,0,0,0,.476,1.018,2,2,0,0,0,1.272.374,1.843,1.843,0,0,0,1.138-.3.983.983,0,0,0,.4-.825.965.965,0,0,0-.366-.808A4.222,4.222,0,0,0,42.583-3.169Zm9.307-.156A4.4,4.4,0,0,1,51.538-1.5a2.663,2.663,0,0,1-1,1.189,2.741,2.741,0,0,1-1.5.41,2.717,2.717,0,0,1-1.489-.413,2.727,2.727,0,0,1-1.008-1.177,4.22,4.22,0,0,1-.369-1.77v-.513a4.346,4.346,0,0,1,.356-1.812,2.717,2.717,0,0,1,1.008-1.2,2.706,2.706,0,0,1,1.492-.417,2.756,2.756,0,0,1,1.506.413,2.658,2.658,0,0,1,1,1.2,4.419,4.419,0,0,1,.352,1.824Zm-.933-.459a3.188,3.188,0,0,0-.508-1.941A1.675,1.675,0,0,0,49.028-6.4a1.657,1.657,0,0,0-1.4.676A3.122,3.122,0,0,0,47.1-3.848v.522A3.192,3.192,0,0,0,47.62-1.4a1.664,1.664,0,0,0,1.418.7,1.657,1.657,0,0,0,1.406-.662,3.174,3.174,0,0,0,.513-1.9Zm4.434.615a4.408,4.408,0,0,1-1.755-.852,1.628,1.628,0,0,1-.549-1.248,1.72,1.72,0,0,1,.671-1.389A2.668,2.668,0,0,1,55.5-7.207a2.913,2.913,0,0,1,1.306.283,2.148,2.148,0,0,1,.889.781,2,2,0,0,1,.315,1.089H57.07a1.3,1.3,0,0,0-.41-1.017A1.668,1.668,0,0,0,55.5-6.44a1.708,1.708,0,0,0-1.082.306,1.02,1.02,0,0,0-.388.849.918.918,0,0,0,.369.736A3.616,3.616,0,0,0,55.657-4a5.823,5.823,0,0,1,1.387.55,2.1,2.1,0,0,1,.742.7,1.788,1.788,0,0,1,.242.942,1.661,1.661,0,0,1-.674,1.384,2.873,2.873,0,0,1-1.8.52,3.342,3.342,0,0,1-1.367-.281,2.3,2.3,0,0,1-.979-.769,1.877,1.877,0,0,1-.344-1.108H53.8a1.224,1.224,0,0,0,.476,1.018,2,2,0,0,0,1.272.374,1.843,1.843,0,0,0,1.138-.3.983.983,0,0,0,.4-.825.965.965,0,0,0-.366-.808A4.222,4.222,0,0,0,55.391-3.169Z" transform="translate(275.265 302.615)" fill="#fff"/>
    <path id="Trazado_133023" data-name="Trazado 133023" d="M.825,0V-7.109H3.149a2.7,2.7,0,0,1,1.741.479,1.725,1.725,0,0,1,.583,1.416,1.444,1.444,0,0,1-.283.881,1.836,1.836,0,0,1-.771.593,1.649,1.649,0,0,1,.911.613,1.759,1.759,0,0,1,.334,1.077,1.9,1.9,0,0,1-.62,1.5A2.564,2.564,0,0,1,3.291,0Zm.938-3.325V-.767H3.311a1.49,1.49,0,0,0,1.033-.339,1.192,1.192,0,0,0,.378-.935q0-1.284-1.4-1.284Zm0-.752H3.179a1.484,1.484,0,0,0,.984-.308,1.033,1.033,0,0,0,.369-.837,1.016,1.016,0,0,0-.342-.854,1.679,1.679,0,0,0-1.04-.267H1.763Zm10.757.752A4.4,4.4,0,0,1,12.168-1.5a2.663,2.663,0,0,1-1,1.189,2.741,2.741,0,0,1-1.5.41A2.717,2.717,0,0,1,8.179-.315,2.727,2.727,0,0,1,7.17-1.492,4.22,4.22,0,0,1,6.8-3.262v-.513a4.346,4.346,0,0,1,.356-1.812,2.717,2.717,0,0,1,1.008-1.2,2.706,2.706,0,0,1,1.492-.417,2.756,2.756,0,0,1,1.506.413,2.658,2.658,0,0,1,1,1.2,4.419,4.419,0,0,1,.352,1.824Zm-.933-.459a3.188,3.188,0,0,0-.508-1.941A1.675,1.675,0,0,0,9.658-6.4a1.657,1.657,0,0,0-1.4.676,3.122,3.122,0,0,0-.525,1.877v.522A3.192,3.192,0,0,0,8.25-1.4a1.664,1.664,0,0,0,1.418.7,1.657,1.657,0,0,0,1.406-.662,3.174,3.174,0,0,0,.513-1.9ZM19.39,0h-.942L14.868-5.479V0h-.942V-7.109h.942l3.589,5.5v-5.5h.933Zm7.134-3.325A4.4,4.4,0,0,1,26.172-1.5a2.663,2.663,0,0,1-1,1.189,2.741,2.741,0,0,1-1.5.41,2.717,2.717,0,0,1-1.489-.413,2.727,2.727,0,0,1-1.008-1.177,4.22,4.22,0,0,1-.369-1.77v-.513a4.346,4.346,0,0,1,.356-1.812,2.717,2.717,0,0,1,1.008-1.2,2.706,2.706,0,0,1,1.492-.417,2.756,2.756,0,0,1,1.506.413,2.658,2.658,0,0,1,1,1.2,4.419,4.419,0,0,1,.352,1.824Zm-.933-.459a3.188,3.188,0,0,0-.508-1.941A1.675,1.675,0,0,0,23.662-6.4a1.657,1.657,0,0,0-1.4.676,3.122,3.122,0,0,0-.525,1.877v.522A3.192,3.192,0,0,0,22.253-1.4a1.664,1.664,0,0,0,1.418.7,1.657,1.657,0,0,0,1.406-.662,3.174,3.174,0,0,0,.513-1.9Zm4.434.615a4.408,4.408,0,0,1-1.755-.852,1.628,1.628,0,0,1-.549-1.248,1.72,1.72,0,0,1,.671-1.389,2.668,2.668,0,0,1,1.746-.549,2.913,2.913,0,0,1,1.306.283,2.148,2.148,0,0,1,.889.781,2,2,0,0,1,.315,1.089H31.7a1.3,1.3,0,0,0-.41-1.017,1.668,1.668,0,0,0-1.157-.37,1.708,1.708,0,0,0-1.082.306,1.02,1.02,0,0,0-.388.849.918.918,0,0,0,.369.736A3.616,3.616,0,0,0,30.291-4a5.822,5.822,0,0,1,1.387.55,2.1,2.1,0,0,1,.742.7,1.788,1.788,0,0,1,.242.942,1.661,1.661,0,0,1-.674,1.384,2.873,2.873,0,0,1-1.8.52,3.342,3.342,0,0,1-1.367-.281,2.3,2.3,0,0,1-.979-.769A1.877,1.877,0,0,1,27.5-2.061h.942a1.224,1.224,0,0,0,.476,1.018,2,2,0,0,0,1.272.374,1.843,1.843,0,0,0,1.138-.3.983.983,0,0,0,.4-.825.965.965,0,0,0-.366-.808A4.222,4.222,0,0,0,30.024-3.169Z" transform="translate(185.129 349.917)" fill="#fff"/>
    <path id="Trazado_133021" data-name="Trazado 133021" d="M15.926,7.744a2.616,2.616,0,0,1-.833,1.741,2.728,2.728,0,0,1-1.863.613,2.505,2.505,0,0,1-2.019-.9,3.634,3.634,0,0,1-.759-2.417V6.094a4.051,4.051,0,0,1,.354-1.743,2.644,2.644,0,0,1,1-1.155,2.794,2.794,0,0,1,1.5-.4,2.569,2.569,0,0,1,1.816.632,2.647,2.647,0,0,1,.8,1.75h-.942a2.043,2.043,0,0,0-.53-1.234,1.6,1.6,0,0,0-1.14-.382,1.677,1.677,0,0,0-1.409.665,3.051,3.051,0,0,0-.51,1.891V6.8a3.136,3.136,0,0,0,.483,1.842,1.562,1.562,0,0,0,1.353.684,1.8,1.8,0,0,0,1.2-.354,1.964,1.964,0,0,0,.554-1.233Zm6.748-1.069A4.4,4.4,0,0,1,22.323,8.5a2.663,2.663,0,0,1-1,1.189,2.749,2.749,0,0,1-4-1.179,4.22,4.22,0,0,1-.369-1.77V6.226a4.346,4.346,0,0,1,.356-1.812,2.636,2.636,0,0,1,2.5-1.621,2.756,2.756,0,0,1,1.506.413,2.658,2.658,0,0,1,1,1.2,4.419,4.419,0,0,1,.352,1.824Zm-.933-.459a3.188,3.188,0,0,0-.508-1.941A1.675,1.675,0,0,0,19.813,3.6a1.657,1.657,0,0,0-1.4.676,3.122,3.122,0,0,0-.525,1.877v.522A3.192,3.192,0,0,0,18.4,8.6a1.805,1.805,0,0,0,2.825.039,3.174,3.174,0,0,0,.513-1.9Zm4.946.908h-1.67V10h-.942V2.891h2.354a2.786,2.786,0,0,1,1.848.547,1.968,1.968,0,0,1,.647,1.592,1.914,1.914,0,0,1-.359,1.157,2.142,2.142,0,0,1-1,.737l1.67,3.018V10H28.231Zm-1.67-.767h1.44A1.625,1.625,0,0,0,27.569,6a1.224,1.224,0,0,0,.413-.969,1.289,1.289,0,0,0-.393-1.013,1.664,1.664,0,0,0-1.135-.357H25.018Zm7.827.767h-1.67V10h-.942V2.891h2.354a2.786,2.786,0,0,1,1.848.547,1.968,1.968,0,0,1,.647,1.592,1.914,1.914,0,0,1-.359,1.157,2.142,2.142,0,0,1-1,.737l1.67,3.018V10H34.388Zm-1.67-.767h1.44A1.625,1.625,0,0,0,33.727,6a1.224,1.224,0,0,0,.413-.969,1.289,1.289,0,0,0-.393-1.013,1.664,1.664,0,0,0-1.135-.357H31.175Zm9.238.356H37.333v2.52h3.579V10H36.4V2.891h4.468v.767h-3.53v2.29h3.081Zm7.134-.039A4.4,4.4,0,0,1,47.2,8.5a2.663,2.663,0,0,1-1,1.189,2.749,2.749,0,0,1-4-1.179,4.22,4.22,0,0,1-.369-1.77V6.226a4.346,4.346,0,0,1,.356-1.812,2.636,2.636,0,0,1,2.5-1.621,2.756,2.756,0,0,1,1.506.413,2.658,2.658,0,0,1,1,1.2,4.419,4.419,0,0,1,.352,1.824Zm-.933-.459a3.188,3.188,0,0,0-.508-1.941A1.675,1.675,0,0,0,44.686,3.6a1.657,1.657,0,0,0-1.4.676,3.122,3.122,0,0,0-.525,1.877v.522A3.192,3.192,0,0,0,43.277,8.6,1.805,1.805,0,0,0,46.1,8.64a3.174,3.174,0,0,0,.513-1.9ZM9.73,20V12.891h2.007a3.231,3.231,0,0,1,1.641.41,2.774,2.774,0,0,1,1.1,1.167,3.8,3.8,0,0,1,.393,1.738v.454a3.812,3.812,0,0,1-.388,1.763,2.731,2.731,0,0,1-1.108,1.162A3.436,3.436,0,0,1,11.7,20Zm.938-6.343v5.576h.986a2.146,2.146,0,0,0,1.687-.674,2.786,2.786,0,0,0,.6-1.921v-.415a2.831,2.831,0,0,0-.569-1.884,2.024,2.024,0,0,0-1.614-.682ZM17.293,20h-.937V12.891h.938Zm4.321-2.876h-1.67V20H19V12.891h2.354a2.786,2.786,0,0,1,1.848.547,1.968,1.968,0,0,1,.647,1.592,1.914,1.914,0,0,1-.359,1.157,2.142,2.142,0,0,1-1,.737l1.67,3.018V20H23.158Zm-1.67-.767h1.44A1.625,1.625,0,0,0,22.5,16a1.224,1.224,0,0,0,.413-.969,1.289,1.289,0,0,0-.393-1.013,1.664,1.664,0,0,0-1.135-.357H19.945Zm9.238.356H26.1v2.52h3.579V20H25.165V12.891h4.468v.767H26.1v2.29h3.081Zm6.895,1.03a2.616,2.616,0,0,1-.833,1.741,2.728,2.728,0,0,1-1.863.613,2.505,2.505,0,0,1-2.019-.9,3.634,3.634,0,0,1-.759-2.417v-.684a4.051,4.051,0,0,1,.354-1.743,2.644,2.644,0,0,1,1-1.155,2.794,2.794,0,0,1,1.5-.4,2.569,2.569,0,0,1,1.816.632,2.647,2.647,0,0,1,.8,1.75h-.942a2.043,2.043,0,0,0-.53-1.234,1.6,1.6,0,0,0-1.14-.382,1.677,1.677,0,0,0-1.409.665,3.051,3.051,0,0,0-.51,1.891V16.8a3.136,3.136,0,0,0,.483,1.842,1.562,1.562,0,0,0,1.353.684,1.8,1.8,0,0,0,1.2-.354,1.964,1.964,0,0,0,.554-1.233Zm6.05-4.087H39.842V20H38.91V13.657h-2.28v-.767h5.5Zm6.387,3.018a4.4,4.4,0,0,1-.352,1.824,2.663,2.663,0,0,1-1,1.189,2.749,2.749,0,0,1-4-1.179,4.22,4.22,0,0,1-.369-1.77v-.513a4.346,4.346,0,0,1,.356-1.812,2.636,2.636,0,0,1,2.5-1.621,2.756,2.756,0,0,1,1.506.413,2.658,2.658,0,0,1,1,1.2,4.419,4.419,0,0,1,.352,1.824Zm-.933-.459a3.188,3.188,0,0,0-.508-1.941,1.675,1.675,0,0,0-1.421-.676,1.657,1.657,0,0,0-1.4.676,3.122,3.122,0,0,0-.525,1.877v.522a3.192,3.192,0,0,0,.515,1.926,1.805,1.805,0,0,0,2.825.039,3.174,3.174,0,0,0,.513-1.9Z" transform="translate(309.129 189.406)" fill="#fff"/>
    <path id="Trazado_133019" data-name="Trazado 133019" d="M7.58,3.657H5.294V10H4.362V3.657H2.082V2.891h5.5Zm5.073,3.057H9.572v2.52h3.579V10H8.634V2.891H13.1v.767H9.572v2.29h3.081Zm3.76.117a4.408,4.408,0,0,1-1.755-.852,1.628,1.628,0,0,1-.549-1.248,1.72,1.72,0,0,1,.671-1.389,2.668,2.668,0,0,1,1.746-.549,2.913,2.913,0,0,1,1.306.283,2.148,2.148,0,0,1,.889.781,2,2,0,0,1,.315,1.089h-.942a1.3,1.3,0,0,0-.41-1.017,1.668,1.668,0,0,0-1.157-.37,1.708,1.708,0,0,0-1.082.306,1.02,1.02,0,0,0-.388.849.918.918,0,0,0,.369.736A3.616,3.616,0,0,0,16.679,6a5.822,5.822,0,0,1,1.387.55,2.1,2.1,0,0,1,.742.7,1.788,1.788,0,0,1,.242.942,1.661,1.661,0,0,1-.674,1.384,2.873,2.873,0,0,1-1.8.52,3.342,3.342,0,0,1-1.367-.281,2.3,2.3,0,0,1-.979-.769,1.877,1.877,0,0,1-.344-1.108h.942A1.224,1.224,0,0,0,15.3,8.958a2,2,0,0,0,1.272.374,1.843,1.843,0,0,0,1.138-.3.983.983,0,0,0,.4-.825.965.965,0,0,0-.366-.808A4.222,4.222,0,0,0,16.413,6.831Zm8.75-3.174H22.877V10h-.933V3.657h-2.28V2.891h5.5ZM27.223,10h-.937V2.891h.938Zm2.925-7.109,2.324,5.8,2.324-5.8h1.216V10h-.937V7.231l.088-2.988L32.829,10h-.718L29.782,4.258l.093,2.974V10h-.937V2.891ZM43.136,6.675A4.4,4.4,0,0,1,42.785,8.5a2.663,2.663,0,0,1-1,1.189,2.749,2.749,0,0,1-4-1.179,4.22,4.22,0,0,1-.369-1.77V6.226a4.346,4.346,0,0,1,.356-1.812,2.636,2.636,0,0,1,2.5-1.621,2.756,2.756,0,0,1,1.506.413,2.658,2.658,0,0,1,1,1.2,4.419,4.419,0,0,1,.352,1.824ZM42.2,6.216A3.188,3.188,0,0,0,41.7,4.275,1.675,1.675,0,0,0,40.275,3.6a1.657,1.657,0,0,0-1.4.676,3.122,3.122,0,0,0-.525,1.877v.522A3.192,3.192,0,0,0,38.866,8.6a1.805,1.805,0,0,0,2.825.039,3.174,3.174,0,0,0,.513-1.9ZM50.006,10h-.942L45.485,4.521V10h-.942V2.891h.942l3.589,5.5v-5.5h.933Zm2.671,0H51.74V2.891h.938ZM59.86,6.675A4.4,4.4,0,0,1,59.508,8.5a2.663,2.663,0,0,1-1,1.189,2.749,2.749,0,0,1-4-1.179,4.22,4.22,0,0,1-.369-1.77V6.226A4.346,4.346,0,0,1,54.5,4.414,2.636,2.636,0,0,1,57,2.793a2.756,2.756,0,0,1,1.506.413,2.658,2.658,0,0,1,1,1.2,4.419,4.419,0,0,1,.352,1.824Zm-.933-.459a3.188,3.188,0,0,0-.508-1.941A1.675,1.675,0,0,0,57,3.6a1.657,1.657,0,0,0-1.4.676,3.122,3.122,0,0,0-.525,1.877v.522A3.192,3.192,0,0,0,55.59,8.6a1.805,1.805,0,0,0,2.825.039,3.174,3.174,0,0,0,.513-1.9ZM63.742,10V2.891h2.007a3.231,3.231,0,0,1,1.641.41,2.774,2.774,0,0,1,1.1,1.167,3.8,3.8,0,0,1,.393,1.738V6.66A3.812,3.812,0,0,1,68.5,8.423a2.731,2.731,0,0,1-1.108,1.162A3.436,3.436,0,0,1,65.709,10Zm.938-6.343V9.233h.986a2.146,2.146,0,0,0,1.687-.674,2.786,2.786,0,0,0,.6-1.921V6.223a2.831,2.831,0,0,0-.569-1.884,2.024,2.024,0,0,0-1.614-.682Zm9.639,3.057H71.237v2.52h3.579V10H70.3V2.891h4.468v.767h-3.53v2.29h3.081Zm-55.149,10H16.088v2.52h3.579V20H15.15V12.891h4.468v.767h-3.53v2.29h3.081Zm3.984-1.1,1.7-2.725h1.1l-2.246,3.525L26.015,20H24.9l-1.748-2.773L21.4,20H20.287l2.3-3.584-2.251-3.525h1.1Zm4.888,1.6V20H27.1V12.891h2.622a2.634,2.634,0,0,1,1.829.6,2.02,2.02,0,0,1,.662,1.577,1.993,1.993,0,0,1-.647,1.594,2.752,2.752,0,0,1-1.853.559Zm0-.767h1.685a1.684,1.684,0,0,0,1.152-.355,1.3,1.3,0,0,0,.4-1.025,1.34,1.34,0,0,0-.4-1.017,1.578,1.578,0,0,0-1.1-.4H28.041Zm9.39.264H34.35v2.52h3.579V20H33.412V12.891H37.88v.767H34.35v2.29h3.081Zm4.272.41h-1.67V20h-.942V12.891h2.354a2.786,2.786,0,0,1,1.848.547,1.968,1.968,0,0,1,.647,1.592,1.914,1.914,0,0,1-.359,1.157,2.142,2.142,0,0,1-1,.737l1.67,3.018V20H43.246Zm-1.67-.767h1.44A1.625,1.625,0,0,0,42.584,16,1.224,1.224,0,0,0,43,15.027a1.289,1.289,0,0,0-.393-1.013,1.664,1.664,0,0,0-1.135-.357H40.033Zm9.741-2.7H47.489V20h-.933V13.657h-2.28v-.767h5.5Zm6.387,3.018A4.4,4.4,0,0,1,55.81,18.5a2.663,2.663,0,0,1-1,1.189,2.749,2.749,0,0,1-4-1.179,4.22,4.22,0,0,1-.369-1.77v-.513a4.346,4.346,0,0,1,.356-1.812,2.636,2.636,0,0,1,2.5-1.621,2.756,2.756,0,0,1,1.506.413,2.658,2.658,0,0,1,1,1.2,4.419,4.419,0,0,1,.352,1.824Zm-.933-.459a3.188,3.188,0,0,0-.508-1.941A1.675,1.675,0,0,0,53.3,13.6a1.657,1.657,0,0,0-1.4.676,3.122,3.122,0,0,0-.525,1.877v.522a3.192,3.192,0,0,0,.515,1.926,1.805,1.805,0,0,0,2.825.039,3.174,3.174,0,0,0,.513-1.9Zm4.434.615a4.408,4.408,0,0,1-1.755-.852,1.628,1.628,0,0,1-.549-1.248,1.72,1.72,0,0,1,.671-1.389,2.668,2.668,0,0,1,1.746-.549,2.913,2.913,0,0,1,1.306.283,2.148,2.148,0,0,1,.889.781,2,2,0,0,1,.315,1.089h-.942a1.3,1.3,0,0,0-.41-1.017,1.668,1.668,0,0,0-1.157-.37,1.708,1.708,0,0,0-1.082.306,1.02,1.02,0,0,0-.388.849.918.918,0,0,0,.369.736,3.616,3.616,0,0,0,1.255.55,5.823,5.823,0,0,1,1.387.55,2.1,2.1,0,0,1,.742.7,1.788,1.788,0,0,1,.242.942,1.661,1.661,0,0,1-.674,1.384,2.873,2.873,0,0,1-1.8.52,3.342,3.342,0,0,1-1.367-.281,2.3,2.3,0,0,1-.979-.769,1.877,1.877,0,0,1-.344-1.108h.942a1.224,1.224,0,0,0,.476,1.018,2,2,0,0,0,1.272.374,1.843,1.843,0,0,0,1.138-.3.983.983,0,0,0,.4-.825.965.965,0,0,0-.366-.808A4.222,4.222,0,0,0,59.662,16.831Z" transform="translate(163.129 56.406)" fill="#fff"/>
    <path id="Trazado_133020" data-name="Trazado 133020" d="M6.753,7.217V10H5.815V2.891H8.438a2.634,2.634,0,0,1,1.829.6,2.02,2.02,0,0,1,.662,1.577,1.993,1.993,0,0,1-.647,1.594,2.752,2.752,0,0,1-1.853.559Zm0-.767H8.438A1.684,1.684,0,0,0,9.59,6.1a1.3,1.3,0,0,0,.4-1.025,1.34,1.34,0,0,0-.4-1.017,1.578,1.578,0,0,0-1.1-.4H6.753Zm7.979.674h-1.67V10h-.942V2.891h2.354a2.786,2.786,0,0,1,1.848.547,1.968,1.968,0,0,1,.647,1.592,1.914,1.914,0,0,1-.359,1.157,2.142,2.142,0,0,1-1,.737l1.67,3.018V10H16.274Zm-1.67-.767H14.5A1.625,1.625,0,0,0,15.613,6a1.224,1.224,0,0,0,.413-.969,1.289,1.289,0,0,0-.393-1.013A1.664,1.664,0,0,0,14.5,3.657H13.062Zm10.688.317A4.4,4.4,0,0,1,23.4,8.5a2.663,2.663,0,0,1-1,1.189,2.749,2.749,0,0,1-4-1.179,4.22,4.22,0,0,1-.369-1.77V6.226a4.346,4.346,0,0,1,.356-1.812,2.636,2.636,0,0,1,2.5-1.621,2.756,2.756,0,0,1,1.506.413,2.658,2.658,0,0,1,1,1.2,4.419,4.419,0,0,1,.352,1.824Zm-.933-.459a3.188,3.188,0,0,0-.508-1.941A1.675,1.675,0,0,0,20.889,3.6a1.657,1.657,0,0,0-1.4.676,3.122,3.122,0,0,0-.525,1.877v.522A3.192,3.192,0,0,0,19.48,8.6,1.805,1.805,0,0,0,22.3,8.64a3.174,3.174,0,0,0,.513-1.9Zm7.588,2.852a2.166,2.166,0,0,1-1.008.774,4.073,4.073,0,0,1-1.506.256,2.921,2.921,0,0,1-1.543-.408,2.716,2.716,0,0,1-1.042-1.16,4.005,4.005,0,0,1-.378-1.743v-.62a3.739,3.739,0,0,1,.75-2.49,2.612,2.612,0,0,1,2.107-.884,2.7,2.7,0,0,1,1.792.569,2.478,2.478,0,0,1,.83,1.614h-.937a1.55,1.55,0,0,0-1.68-1.416,1.66,1.66,0,0,0-1.428.662,3.233,3.233,0,0,0-.491,1.918v.582a3.03,3.03,0,0,0,.547,1.9,1.773,1.773,0,0,0,1.479.706,3.268,3.268,0,0,0,.923-.117,1.427,1.427,0,0,0,.654-.395V7.227H27.827V6.46h2.578Zm4.17-1.943h-1.67V10h-.942V2.891h2.354a2.786,2.786,0,0,1,1.848.547,1.968,1.968,0,0,1,.647,1.592,1.914,1.914,0,0,1-.359,1.157,2.142,2.142,0,0,1-1,.737l1.67,3.018V10H36.118Zm-1.67-.767h1.44A1.625,1.625,0,0,0,35.457,6a1.224,1.224,0,0,0,.413-.969,1.289,1.289,0,0,0-.393-1.013,1.664,1.664,0,0,0-1.135-.357H32.905ZM42.051,8.14H39.072L38.4,10h-.967l2.715-7.109h.82L43.691,10h-.962Zm-2.7-.767h2.417L40.562,4.048Zm6.5-4.482,2.324,5.8,2.324-5.8h1.216V10h-.937V7.231l.088-2.988L48.54,10h-.718L45.493,4.258l.093,2.974V10h-.937V2.891ZM57.3,8.14H54.326L53.657,10H52.69l2.715-7.109h.82L58.945,10h-.962Zm-2.7-.767h2.417L55.815,4.048ZM62,6.831a4.408,4.408,0,0,1-1.755-.852,1.628,1.628,0,0,1-.549-1.248,1.72,1.72,0,0,1,.671-1.389,2.668,2.668,0,0,1,1.746-.549,2.913,2.913,0,0,1,1.306.283,2.148,2.148,0,0,1,.889.781,2,2,0,0,1,.315,1.089h-.942a1.3,1.3,0,0,0-.41-1.017,1.668,1.668,0,0,0-1.157-.37,1.708,1.708,0,0,0-1.082.306,1.02,1.02,0,0,0-.388.849.918.918,0,0,0,.369.736A3.616,3.616,0,0,0,62.263,6a5.823,5.823,0,0,1,1.387.55,2.1,2.1,0,0,1,.742.7,1.788,1.788,0,0,1,.242.942,1.661,1.661,0,0,1-.674,1.384,2.873,2.873,0,0,1-1.8.52,3.342,3.342,0,0,1-1.367-.281,2.3,2.3,0,0,1-.979-.769,1.877,1.877,0,0,1-.344-1.108h.942a1.224,1.224,0,0,0,.476,1.018,2,2,0,0,0,1.272.374,1.843,1.843,0,0,0,1.138-.3.983.983,0,0,0,.4-.825.965.965,0,0,0-.366-.808A4.222,4.222,0,0,0,62,6.831ZM29.7,20V12.891h2.007a3.231,3.231,0,0,1,1.641.41,2.774,2.774,0,0,1,1.1,1.167,3.8,3.8,0,0,1,.393,1.738v.454a3.812,3.812,0,0,1-.388,1.763,2.731,2.731,0,0,1-1.108,1.162A3.436,3.436,0,0,1,31.672,20Zm.938-6.343v5.576h.986a2.146,2.146,0,0,0,1.687-.674,2.786,2.786,0,0,0,.6-1.921v-.415a2.831,2.831,0,0,0-.569-1.884,2.024,2.024,0,0,0-1.614-.682Zm9.639,3.057H37.2v2.52h3.579V20H36.262V12.891H40.73v.767H37.2v2.29h3.081ZM7.549,26.86H4.565V30H3.628V22.891h4.4v.767H4.565v2.437H7.549ZM10.161,30H9.224V22.891h.938Zm1.714,0V22.891h2.007a3.231,3.231,0,0,1,1.641.41,2.774,2.774,0,0,1,1.1,1.167,3.8,3.8,0,0,1,.393,1.738v.454a3.812,3.812,0,0,1-.388,1.763,2.731,2.731,0,0,1-1.108,1.162A3.436,3.436,0,0,1,13.843,30Zm.938-6.343v5.576H13.8a2.146,2.146,0,0,0,1.687-.674,2.786,2.786,0,0,0,.6-1.921v-.415a2.831,2.831,0,0,0-.569-1.884,2.024,2.024,0,0,0-1.614-.682Zm9.639,3.057H19.37v2.52h3.579V30H18.433V22.891H22.9v.767H19.37v2.29h3.081Zm2.607,2.52h3.369V30H24.116V22.891h.942ZM30.5,30h-.937V22.891H30.5Zm2.417-.767h4.067V30H31.812v-.7l3.9-5.64H31.875v-.767h4.956v.684Zm9.272-1.094H39.214L38.545,30h-.967l2.715-7.109h.82L43.833,30h-.962Zm-2.7-.767h2.417L40.7,24.048Zm10.522.371a2.616,2.616,0,0,1-.833,1.741,2.728,2.728,0,0,1-1.863.613,2.505,2.505,0,0,1-2.019-.9,3.634,3.634,0,0,1-.759-2.417v-.684a4.051,4.051,0,0,1,.354-1.743,2.644,2.644,0,0,1,1-1.155,2.794,2.794,0,0,1,1.5-.4,2.569,2.569,0,0,1,1.816.632,2.647,2.647,0,0,1,.8,1.75h-.942a2.043,2.043,0,0,0-.53-1.234,1.6,1.6,0,0,0-1.14-.382A1.677,1.677,0,0,0,46,24.224a3.051,3.051,0,0,0-.51,1.891V26.8a3.136,3.136,0,0,0,.483,1.842,1.562,1.562,0,0,0,1.353.684,1.8,1.8,0,0,0,1.2-.354,1.964,1.964,0,0,0,.554-1.233ZM52.3,30h-.937V22.891H52.3Zm7.183-3.325a4.4,4.4,0,0,1-.352,1.824,2.663,2.663,0,0,1-1,1.189,2.749,2.749,0,0,1-4-1.179,4.22,4.22,0,0,1-.369-1.77v-.513a4.346,4.346,0,0,1,.356-1.812,2.636,2.636,0,0,1,2.5-1.621,2.756,2.756,0,0,1,1.506.413,2.658,2.658,0,0,1,1,1.2,4.419,4.419,0,0,1,.352,1.824Zm-.933-.459a3.188,3.188,0,0,0-.508-1.941,1.675,1.675,0,0,0-1.421-.676,1.657,1.657,0,0,0-1.4.676,3.122,3.122,0,0,0-.525,1.877v.522a3.192,3.192,0,0,0,.515,1.926,1.805,1.805,0,0,0,2.825.039,3.174,3.174,0,0,0,.513-1.9Zm-1.47-5.239h1.094L56.87,22.412l-.728,0ZM66.357,30h-.942l-3.579-5.479V30h-.942V22.891h.942l3.589,5.5v-5.5h.933Z" transform="translate(256.129 82.406)" fill="#fff"/>
    <path id="Trazado_133025" data-name="Trazado 133025" d="M7.005,6.675A4.4,4.4,0,0,1,6.654,8.5a2.663,2.663,0,0,1-1,1.189,2.741,2.741,0,0,1-1.5.41,2.652,2.652,0,0,1-2.5-1.589,4.22,4.22,0,0,1-.369-1.77V6.226a4.346,4.346,0,0,1,.356-1.812,2.717,2.717,0,0,1,1.008-1.2,2.706,2.706,0,0,1,1.492-.417,2.756,2.756,0,0,1,1.506.413,2.658,2.658,0,0,1,1,1.2,4.419,4.419,0,0,1,.352,1.824Zm-.933-.459a3.188,3.188,0,0,0-.508-1.941A1.675,1.675,0,0,0,4.144,3.6a1.657,1.657,0,0,0-1.4.676A3.122,3.122,0,0,0,2.22,6.152v.522A3.192,3.192,0,0,0,2.735,8.6a1.664,1.664,0,0,0,1.418.7A1.657,1.657,0,0,0,5.56,8.64a3.174,3.174,0,0,0,.513-1.9Zm6.26.645H9.349V10H8.412V2.891h4.4v.767H9.349V6.094h2.983Zm5.625-.146H14.876v2.52h3.579V10H13.939V2.891h4.468v.767h-3.53v2.29h3.081Zm4.272.41H20.56V10h-.942V2.891h2.354a2.786,2.786,0,0,1,1.848.547,1.968,1.968,0,0,1,.647,1.592,1.914,1.914,0,0,1-.359,1.157,2.142,2.142,0,0,1-1,.737l1.67,3.018V10H23.773Zm-1.67-.767H22A1.625,1.625,0,0,0,23.111,6a1.224,1.224,0,0,0,.413-.969,1.289,1.289,0,0,0-.393-1.013A1.664,1.664,0,0,0,22,3.657H20.56Zm9.741-2.7H28.016V10h-.933V3.657H24.8V2.891h5.5ZM34.9,8.14H31.917L31.249,10h-.967L33,2.891h.82L36.537,10h-.962Zm-2.7-.767h2.417L33.407,4.048Zm7.388-.542a4.408,4.408,0,0,1-1.755-.852,1.628,1.628,0,0,1-.549-1.248,1.72,1.72,0,0,1,.671-1.389A2.668,2.668,0,0,1,39.7,2.793a2.913,2.913,0,0,1,1.306.283,2.148,2.148,0,0,1,.889.781,2,2,0,0,1,.315,1.089h-.942a1.3,1.3,0,0,0-.41-1.017A1.668,1.668,0,0,0,39.7,3.56a1.708,1.708,0,0,0-1.082.306,1.02,1.02,0,0,0-.388.849.918.918,0,0,0,.369.736A3.616,3.616,0,0,0,39.854,6a5.823,5.823,0,0,1,1.387.55,2.1,2.1,0,0,1,.742.7,1.788,1.788,0,0,1,.242.942,1.661,1.661,0,0,1-.674,1.384,2.873,2.873,0,0,1-1.8.52,3.342,3.342,0,0,1-1.367-.281,2.3,2.3,0,0,1-.979-.769,1.877,1.877,0,0,1-.344-1.108H38a1.224,1.224,0,0,0,.476,1.018,2,2,0,0,0,1.272.374,1.843,1.843,0,0,0,1.138-.3.983.983,0,0,0,.4-.825.965.965,0,0,0-.366-.808A4.222,4.222,0,0,0,39.588,6.831Zm11.03-3.174H48.333V10H47.4V3.657h-2.28V2.891h5.5Zm3.486,5.1,2.031-5.864h1.025L54.525,10h-.83L51.063,2.891h1.021ZM16.124,20V12.891h2.007a3.231,3.231,0,0,1,1.641.41,2.774,2.774,0,0,1,1.1,1.167,3.8,3.8,0,0,1,.393,1.738v.454a3.812,3.812,0,0,1-.388,1.763,2.731,2.731,0,0,1-1.108,1.162A3.436,3.436,0,0,1,18.092,20Zm.938-6.343v5.576h.986a2.146,2.146,0,0,0,1.687-.674,2.786,2.786,0,0,0,.6-1.921v-.415a2.831,2.831,0,0,0-.569-1.884,2.024,2.024,0,0,0-1.614-.682Zm8.228,3.467h-1.67V20h-.942V12.891H25.03a2.786,2.786,0,0,1,1.848.547,1.968,1.968,0,0,1,.647,1.592,1.914,1.914,0,0,1-.359,1.157,2.142,2.142,0,0,1-1,.737l1.67,3.018V20H26.832Zm-1.67-.767h1.44A1.625,1.625,0,0,0,26.17,16a1.224,1.224,0,0,0,.413-.969,1.289,1.289,0,0,0-.393-1.013,1.664,1.664,0,0,0-1.135-.357H23.619Zm12.412-2.7H33.746V20h-.933V13.657h-2.28v-.767h5.5Zm3.486,5.1,2.031-5.864h1.025L39.938,20h-.83l-2.632-7.109H37.5Z" transform="translate(38.129 189.406)" fill="#fff"/>
  </g>
</svg>
