<svg xmlns="http://www.w3.org/2000/svg" width="81" height="81" viewBox="0 0 81 81">
  <g id="Grupo_56166" data-name="Grupo 56166" transform="translate(-760 -896)">
    <g id="Grupo_56164" data-name="Grupo 56164" transform="translate(760 896)">
      <g id="Grupo_55846" data-name="Grupo 55846">
        <circle id="Elipse_4123" data-name="Elipse 4123" cx="40.5" cy="40.5" r="40.5" fill="#6a5d99"/>
      </g>
    </g>
    <g id="budget" transform="translate(756.433 907)">
      <path id="Trazado_132848" data-name="Trazado 132848" d="M102.182,325.742a1.049,1.049,0,0,1,1.048,1.048.867.867,0,0,0,1.734,0,2.786,2.786,0,0,0-1.915-2.643v-.23a.867.867,0,0,0-1.734,0v.23a2.782,2.782,0,0,0,.867,5.425,1.048,1.048,0,1,1-1.048,1.048.867.867,0,1,0-1.734,0,2.787,2.787,0,0,0,1.915,2.643v.23a.867.867,0,1,0,1.734,0v-.23a2.782,2.782,0,0,0-.867-5.425,1.048,1.048,0,1,1,0-2.1Z" transform="translate(-73.258 -285.707)" fill="#fff"/>
      <path id="Trazado_132849" data-name="Trazado 132849" d="M65.515,302.3a.867.867,0,1,0-1.481.9,6.79,6.79,0,1,1-2.216-2.242.867.867,0,0,0,.918-1.471,8.524,8.524,0,1,0,2.779,2.811Z" transform="translate(-29.302 -263.729)" fill="#fff"/>
      <path id="Trazado_132850" data-name="Trazado 132850" d="M69.139,5.745H66.176V2.782A2.785,2.785,0,0,0,63.394,0H27.009a2.785,2.785,0,0,0-2.782,2.782v9.756a.867.867,0,1,0,1.734,0V2.782a1.049,1.049,0,0,1,1.048-1.048H63.394a1.049,1.049,0,0,1,1.048,1.048V50.657a1.049,1.049,0,0,1-1.048,1.048H37.683a12.339,12.339,0,0,0,2.588-13.6.873.873,0,0,0,.143.013h7.66a.867.867,0,1,0,0-1.734h-7.66a.866.866,0,0,0-.77.47A12.356,12.356,0,0,0,25.961,31V16.006a.867.867,0,1,0-1.734,0V31.569a12.357,12.357,0,0,0,4.7,23.786c.353,0,.7-.016,1.048-.045V56.4a2.785,2.785,0,0,0,2.782,2.782H69.139A2.785,2.785,0,0,0,71.921,56.4V8.527a2.785,2.785,0,0,0-2.782-2.782ZM28.924,53.621A10.623,10.623,0,1,1,39.547,43,10.635,10.635,0,0,1,28.924,53.621ZM70.188,56.4a1.049,1.049,0,0,1-1.048,1.048H32.754A1.049,1.049,0,0,1,31.706,56.4V55.039a12.288,12.288,0,0,0,3.818-1.6h27.87a2.785,2.785,0,0,0,2.782-2.782V7.479h2.963a1.049,1.049,0,0,1,1.048,1.048Z" transform="translate(0)" fill="#fff"/>
      <path id="Trazado_132851" data-name="Trazado 132851" d="M210.232,33.133h-9.641a1.794,1.794,0,0,0-1.792,1.792v1.98a1.794,1.794,0,0,0,1.792,1.792h9.641a1.794,1.794,0,0,0,1.792-1.792v-1.98A1.794,1.794,0,0,0,210.232,33.133Zm.058,3.772a.058.058,0,0,1-.058.058h-9.641a.058.058,0,0,1-.058-.058V34.925a.058.058,0,0,1,.058-.058h9.641a.058.058,0,0,1,.058.058Z" transform="translate(-161.168 -29.303)" fill="#fff"/>
      <path id="Trazado_132852" data-name="Trazado 132852" d="M291.15,364.467h-7.726a1.794,1.794,0,0,0-1.792,1.792v1.98a1.794,1.794,0,0,0,1.792,1.792h7.726a1.794,1.794,0,0,0,1.792-1.792v-1.98A1.794,1.794,0,0,0,291.15,364.467Zm.058,3.772a.058.058,0,0,1-.058.058h-7.726a.058.058,0,0,1-.058-.058v-1.98a.058.058,0,0,1,.058-.058h7.726a.058.058,0,0,1,.058.058Z" transform="translate(-234.426 -322.336)" fill="#fff"/>
      <path id="Trazado_132853" data-name="Trazado 132853" d="M233.469,115.967H216.234a.867.867,0,1,0,0,1.734h17.235a.867.867,0,0,0,0-1.734Z" transform="translate(-175.82 -102.562)" fill="#fff"/>
      <path id="Trazado_132854" data-name="Trazado 132854" d="M150.892,121.531h1.98a1.794,1.794,0,0,0,1.792-1.792v-1.98a1.794,1.794,0,0,0-1.792-1.792h-1.98a1.794,1.794,0,0,0-1.792,1.792v1.98A1.794,1.794,0,0,0,150.892,121.531Zm-.058-3.772a.058.058,0,0,1,.058-.058h1.98a.058.058,0,0,1,.058.058v1.98a.058.058,0,0,1-.058.058h-1.98a.058.058,0,0,1-.058-.058Z" transform="translate(-117.213 -102.562)" fill="#fff"/>
      <path id="Trazado_132855" data-name="Trazado 132855" d="M216.233,150.834h7.66a.867.867,0,1,0,0-1.734h-7.66a.867.867,0,1,0,0,1.734Z" transform="translate(-175.819 -131.865)" fill="#fff"/>
      <path id="Trazado_132856" data-name="Trazado 132856" d="M233.469,198.8H216.234a.867.867,0,1,0,0,1.734h17.235a.867.867,0,0,0,0-1.734Z" transform="translate(-175.82 -175.82)" fill="#fff"/>
      <path id="Trazado_132857" data-name="Trazado 132857" d="M149.1,202.572a1.794,1.794,0,0,0,1.792,1.792h1.98a1.794,1.794,0,0,0,1.792-1.792v-1.981a1.794,1.794,0,0,0-1.792-1.792h-1.98a1.794,1.794,0,0,0-1.792,1.792Zm1.734-1.981a.058.058,0,0,1,.058-.058h1.98a.058.058,0,0,1,.058.058v1.981a.058.058,0,0,1-.058.058h-1.98a.058.058,0,0,1-.058-.058Z" transform="translate(-117.213 -175.82)" fill="#fff"/>
      <path id="Trazado_132858" data-name="Trazado 132858" d="M216.233,233.667h7.66a.867.867,0,1,0,0-1.734h-7.66a.867.867,0,1,0,0,1.734Z" transform="translate(-175.819 -205.123)" fill="#fff"/>
      <path id="Trazado_132859" data-name="Trazado 132859" d="M233.469,281.633H216.234a.867.867,0,1,0,0,1.734h17.235a.867.867,0,0,0,0-1.734Z" transform="translate(-175.82 -249.078)" fill="#fff"/>
    </g>
  </g>
</svg>
