<svg xmlns="http://www.w3.org/2000/svg" width="81" height="81" viewBox="0 0 81 81">
  <g id="Grupo_56212" data-name="Grupo 56212" transform="translate(-344 -896)">
    <g id="Grupo_56163" data-name="Grupo 56163" transform="translate(344 896)">
      <g id="Grupo_55846" data-name="Grupo 55846">
        <circle id="Elipse_4123" data-name="Elipse 4123" cx="40.5" cy="40.5" r="40.5" fill="#6a5d99"/>
      </g>
    </g>
    <g id="Outline" transform="translate(341 893)">
      <path id="Trazado_132866" data-name="Trazado 132866" d="M370.034,246.1h-1.824V219.649h-1.824V246.1H360v1.824h10.946a.912.912,0,0,0,.912-.912V216h-1.824Z" transform="translate(-304.778 -177.196)" fill="#fff"/>
      <path id="Trazado_132867" data-name="Trazado 132867" d="M59.783,133.4V116.979H57.959v15.506H51.574a.912.912,0,0,0-.912.912v6.385h-30.1v-4.561H23.3V133.4H20.561v-6.385H23.3v-1.824H20.561V118.8H23.3v-1.824H20.561v-6.385H23.3V108.77H20.561v-6.385H23.3v-1.824H20.561V96H18.736v4.561H16v1.824h2.736v6.385H16v1.824h2.736v6.385H16V118.8h2.736v6.385H16v1.824h2.736V133.4H16v1.824h2.736v5.473a.912.912,0,0,0,.912.912H51.574a.912.912,0,0,0,.645-.267l7.3-7.3A.912.912,0,0,0,59.783,133.4Zm-3.114.912-4.183,4.183V134.31Z" transform="translate(0 -70.879)" fill="#fff"/>
      <path id="Trazado_132868" data-name="Trazado 132868" d="M23.3,21.473H20.561V17.824h37.4v7.3h1.824v-7.3h1.824V23.3h1.824V17.824h1.824V23.3H67.08V16.912A.912.912,0,0,0,66.168,16H19.649a.912.912,0,0,0-.912.912v4.561H16V23.3h7.3Z" fill="#fff"/>
      <path id="Trazado_132869" data-name="Trazado 132869" d="M184,96h18.243v1.824H184Z" transform="translate(-148.845 -70.879)" fill="#fff"/>
      <path id="Trazado_132870" data-name="Trazado 132870" d="M184,160h16.419v1.824H184Z" transform="translate(-148.845 -127.581)" fill="#fff"/>
      <path id="Trazado_132871" data-name="Trazado 132871" d="M184,224h12.77v1.824H184Z" transform="translate(-148.845 -184.284)" fill="#fff"/>
      <path id="Trazado_132872" data-name="Trazado 132872" d="M114.736,272a2.736,2.736,0,1,0,2.736,2.736A2.736,2.736,0,0,0,114.736,272Zm0,3.649a.912.912,0,1,1,.912-.912A.912.912,0,0,1,114.736,275.649Z" transform="translate(-85.054 -226.811)" fill="#fff"/>
      <path id="Trazado_132873" data-name="Trazado 132873" d="M184,288h8.209v1.824H184Z" transform="translate(-148.845 -240.987)" fill="#fff"/>
      <path id="Trazado_132874" data-name="Trazado 132874" d="M114.736,336a2.736,2.736,0,1,0,2.736,2.736A2.736,2.736,0,0,0,114.736,336Zm0,3.649a.912.912,0,1,1,.912-.912A.912.912,0,0,1,114.736,339.649Z" transform="translate(-85.054 -283.514)" fill="#fff"/>
      <path id="Trazado_132875" data-name="Trazado 132875" d="M184,352h18.243v1.824H184Z" transform="translate(-148.845 -297.69)" fill="#fff"/>
      <path id="Trazado_132876" data-name="Trazado 132876" d="M114.736,400a2.736,2.736,0,1,0,2.736,2.736A2.736,2.736,0,0,0,114.736,400Zm0,3.649a.912.912,0,1,1,.912-.912A.912.912,0,0,1,114.736,403.649Z" transform="translate(-85.054 -340.217)" fill="#fff"/>
      <path id="Trazado_132877" data-name="Trazado 132877" d="M184,416h13.682v1.824H184Z" transform="translate(-148.845 -354.393)" fill="#fff"/>
      <path id="Trazado_132878" data-name="Trazado 132878" d="M117.727,66.343,115.9,68.167a2.737,2.737,0,1,0,1.29,1.29l1.824-1.824Zm-3.916,4.294a.909.909,0,0,1,.267-.645l1.289,1.289a.912.912,0,0,1-1.557-.645Z" transform="translate(-85.042 -44.603)" fill="#fff"/>
      <path id="Trazado_132879" data-name="Trazado 132879" d="M117.727,130.343l-1.824,1.824a2.737,2.737,0,1,0,1.29,1.29l1.824-1.824Zm-3.916,4.294a.909.909,0,0,1,.267-.645l1.289,1.289a.912.912,0,0,1-1.557-.645Z" transform="translate(-85.042 -101.306)" fill="#fff"/>
      <path id="Trazado_132880" data-name="Trazado 132880" d="M117.727,194.343l-1.824,1.824a2.737,2.737,0,1,0,1.29,1.29l1.824-1.824Zm-3.916,4.294a.909.909,0,0,1,.267-.645l1.289,1.289a.912.912,0,0,1-1.557-.645Z" transform="translate(-85.042 -158.009)" fill="#fff"/>
      <path id="Trazado_132881" data-name="Trazado 132881" d="M286.969,102.784a3.47,3.47,0,0,0-2.469,1.023l-.424.424-.8-.8a2.736,2.736,0,0,0-3.87,0l-6.007,6.007,1.29,1.29,6.007-6.007a.913.913,0,0,1,1.29,0l.8.8-17.6,17.6a.908.908,0,0,0-.249.466v.006l-.911,4.555a.912.912,0,0,0,1.073,1.073l4.561-.912a.913.913,0,0,0,.466-.249l19.31-19.312a3.492,3.492,0,0,0-2.469-5.961Zm-2.893,4.026,2.359,2.359-5.551,5.551-2.359-2.359Zm-17.683,18.8,1.238,1.238-1.548.309Zm3.088.509-2.359-2.359,10.112-10.112,2.359,2.359Zm18.667-18.667-.424.424-2.359-2.359.424-.424a1.668,1.668,0,1,1,2.359,2.359Z" transform="translate(-219.733 -76.75)" fill="#fff"/>
    </g>
  </g>
</svg>
