<svg xmlns="http://www.w3.org/2000/svg" width="81" height="81" viewBox="0 0 81 81">
  <g id="Grupo_56170" data-name="Grupo 56170" transform="translate(-344 -896)">
    <g id="Grupo_56171" data-name="Grupo 56171">
      <g id="Grupo_56163" data-name="Grupo 56163" transform="translate(344 896)">
        <g id="Grupo_55846" data-name="Grupo 55846">
          <circle id="Elipse_4123" data-name="Elipse 4123" cx="40.5" cy="40.5" r="40.5" fill="#6a5d99"/>
        </g>
      </g>
      <path id="Trazado_132882" data-name="Trazado 132882" d="M48.651,47.3A2.651,2.651,0,1,0,46,44.651,2.654,2.654,0,0,0,48.651,47.3Zm0-3.535a.884.884,0,1,1-.884.884A.885.885,0,0,1,48.651,43.767Z" transform="translate(336 892)" fill="#fff"/>
      <path id="Trazado_132883" data-name="Trazado 132883" d="M52.4,36.153a1.7,1.7,0,0,1,.361-1.859l1.286-1.287L50.3,29.258l-1.288,1.287a1.705,1.705,0,0,1-1.892.346,1.684,1.684,0,0,1-1.045-1.562V27.512H44.258a15.656,15.656,0,0,0-.783-4.109L53.7,13.177A7.133,7.133,0,1,0,43.616,3.089L33.4,13.306a15.7,15.7,0,0,0-4.169-.779,7.033,7.033,0,0,0-8.077-3.3A8.82,8.82,0,0,0,4.769,15.368,5.3,5.3,0,0,0,6.3,25.745h6.411a16.024,16.024,0,0,0-.224,2.651,12.134,12.134,0,0,0,.94,4.88L5.545,41.161,1.158,52.566A2.352,2.352,0,0,0,1,53.417a2.374,2.374,0,0,0,3.227,2.216l11.406-4.387L21.4,45.481a2.583,2.583,0,0,0,.619,2.357,2.628,2.628,0,0,0,1.29,4.321,5.383,5.383,0,0,0,10.181,0,2.647,2.647,0,0,0,1.98-2.554c0-.066-.015-.128-.019-.193l1.1,1.1,1.288-1.287a1.731,1.731,0,0,1,2.937,1.217v1.816h5.3V50.441a1.732,1.732,0,0,1,2.938-1.217L50.3,50.511l3.751-3.751L52.76,45.473a1.709,1.709,0,0,1-.347-1.892,1.687,1.687,0,0,1,1.563-1.045h1.816v-5.3H53.976a1.7,1.7,0,0,1-1.577-1.08ZM39.156,38.759a26.375,26.375,0,0,0,2.763-3.014,4.367,4.367,0,0,1,1.5-.278,4.462,4.462,0,1,1-4.263,3.293Zm1.061-20.934L44.3,13.738l3.169,3.169-4.72,4.72A16.038,16.038,0,0,0,40.218,17.825Zm.916-9.755,1.4-1.4,7.588,7.588-1.4,1.4Zm7.525-5.3a5.365,5.365,0,0,1,3.794,9.159l-1.08,1.08L43.785,5.419l1.08-1.08a5.333,5.333,0,0,1,3.794-1.571ZM39.885,9.32l3.169,3.169L38.97,16.572a16.02,16.02,0,0,0-3.8-2.537ZM42.536,28.4c0,4.6-2.315,6.857-4.767,9.247a17.283,17.283,0,0,0-4.431,5.829,2.613,2.613,0,0,0-.523-.053H29.28V39a2.654,2.654,0,0,0-2.651-2.651H24.861a.884.884,0,0,1,0-1.767H33.7a2.651,2.651,0,1,0,0-5.3h-7.07a.885.885,0,0,1-.884-.884V25.745h4.419a4.419,4.419,0,0,0,0-8.837c-.025,0-.048.007-.072.007a6.958,6.958,0,0,0,.072-.891,7.08,7.08,0,0,0-.209-1.676A14.215,14.215,0,0,1,42.536,28.4ZM23.094,46.071a.885.885,0,0,1,.884-.884h8.837a.884.884,0,0,1,0,1.767H23.977A.885.885,0,0,1,23.094,46.071Zm-11.123,0,6.5-6.5a16.042,16.042,0,0,1,2.84,3.5L15.14,49.24Zm-9.2-25.629a3.535,3.535,0,0,1,7.07,0H11.6a5.3,5.3,0,0,0-5.076-5.291,7.063,7.063,0,0,1,13-5.225,7.076,7.076,0,0,0-3.463,5.325,3.534,3.534,0,0,0-2.7,3.424H15.14a1.767,1.767,0,0,1,3.535,0h1.767a3.529,3.529,0,0,0-2.594-3.392,5.3,5.3,0,1,1,10.353,2.1,4.41,4.41,0,0,0-2.457,3.939h1.767a2.651,2.651,0,1,1,2.651,2.651H6.3A3.539,3.539,0,0,1,2.767,20.442Zm21.21,5.3V28.4a2.654,2.654,0,0,0,2.651,2.651H33.7a.884.884,0,1,1,0,1.767H24.861a2.651,2.651,0,1,0,0,5.3h1.767a.885.885,0,0,1,.884.884V43.42H23.977a2.613,2.613,0,0,0-.523.053,17.283,17.283,0,0,0-4.431-5.829c-2.451-2.391-4.767-4.649-4.767-9.247a14.246,14.246,0,0,1,.272-2.651ZM17.205,38.337l-6.484,6.484L7.552,41.652,14.3,34.909A19.88,19.88,0,0,0,17.205,38.337Zm-10.566,4.9,6.914,6.914L7.7,52.4,4.387,49.092ZM3.593,53.984a.608.608,0,0,1-.786-.784l.886-2.3,2.2,2.2Zm24.8.041a3.631,3.631,0,0,1-3.114-1.767H31.51A3.631,3.631,0,0,1,28.4,54.025Zm4.419-3.535H23.977a.884.884,0,0,1,0-1.767h8.837a.884.884,0,0,1,0,1.767Zm21.21-9.721h-.049a3.5,3.5,0,0,0-2.467,5.955l.037.037L50.3,48.012l-.037-.037A3.5,3.5,0,0,0,44.3,50.441v.049H42.536v-.049a3.5,3.5,0,0,0-5.956-2.467l-.037.037-1.2-1.2a2.59,2.59,0,0,0,.12-.743,2.626,2.626,0,0,0-.594-1.652,11.4,11.4,0,0,1,2.414-3.767A6.184,6.184,0,1,0,43.42,33.7c-.087,0-.171.009-.256.012a11.6,11.6,0,0,0,1.113-4.431H44.3v.049a3.5,3.5,0,0,0,5.955,2.467l.037-.037,1.251,1.251-.037.037A3.5,3.5,0,0,0,53.976,39h.049Z" transform="translate(356 908)" fill="#fff"/>
    </g>
  </g>
</svg>
