<svg xmlns="http://www.w3.org/2000/svg" xmlns:xlink="http://www.w3.org/1999/xlink" width="543.494" height="358.824" viewBox="0 0 543.494 358.824">
  <defs>
    <linearGradient id="linear-gradient" y1="0.5" x2="1" y2="0.5" gradientUnits="objectBoundingBox">
      <stop offset="0" stop-color="#aa80f9"/>
      <stop offset="1" stop-color="#6165d7"/>
    </linearGradient>
    <linearGradient id="linear-gradient-2" x1="0.681" y1="-0.086" x2="0.426" y2="0.838" gradientUnits="objectBoundingBox">
      <stop offset="0" stop-color="#e38ddd"/>
      <stop offset="1" stop-color="#9571f6"/>
    </linearGradient>
    <linearGradient id="linear-gradient-3" x1="1.193" y1="0.815" x2="0.347" y2="0.444" gradientUnits="objectBoundingBox">
      <stop offset="0" stop-color="#444b8c"/>
      <stop offset="1" stop-color="#26264f"/>
    </linearGradient>
    <linearGradient id="linear-gradient-4" x1="-3.36" y1="1.391" x2="-0.209" y2="1.452" xlink:href="#linear-gradient-3"/>
    <linearGradient id="linear-gradient-5" x1="0.5" x2="0.5" y2="1" gradientUnits="objectBoundingBox">
      <stop offset="0" stop-color="#c1cbd9"/>
      <stop offset="1" stop-color="#5866e9"/>
    </linearGradient>
    <clipPath id="clip-path">
      <path id="Trazado_130417" data-name="Trazado 130417" d="M1405.66,452.9c10.2-9.569,23.651-25.108,29.739-47.08,7.984-28.817-3.709-43.379-2.384-92.168.816-30.849,1.717-52.362,17.267-63.881,12.186-9.007,31.919-10.814,43.893-2.453,9.958,6.954,15.717,21.739,17.484,32.293,1.433,8.6.283,14.835,5.242,19.378,5.065,4.631,10.536,2.008,15.275,5.439,9.608,6.957,4.045,30,3.145,33.72-10,41.421-48.169,69.356-64.964,81.328A257.9,257.9,0,0,1,1405.66,452.9Z" transform="translate(-1405.66 -241.938)" fill="url(#linear-gradient)"/>
    </clipPath>
    <clipPath id="clip-path-2">
      <path id="Trazado_130422" data-name="Trazado 130422" d="M1418.84,733.409c19.826,9.712,46.468,19.254,76.045,19.961,7.547.183,54.177,1.3,58.05-18.319,1.367-6.909-3.727-10.557-2.064-19.826,1.971-10.986,10.382-12.9,20.4-22.941,5.984-5.992,23.5-23.532,16.485-41.289-4.188-10.6-16.954-20.817-29.093-23.524-17.818-3.974-30.83,8.965-52.471,31.241-19.182,19.746-19.945,26.491-34.007,40.47C1461.761,709.557,1445.156,722.762,1418.84,733.409Z" transform="translate(-1418.84 -626.758)" fill="url(#linear-gradient-2)"/>
    </clipPath>
    <linearGradient id="linear-gradient-6" x1="0.5" y1="0.245" x2="0.5" y2="0.788" gradientUnits="objectBoundingBox">
      <stop offset="0.49" stop-color="#ebeff2"/>
      <stop offset="1" stop-color="#fff"/>
    </linearGradient>
    <linearGradient id="linear-gradient-7" x1="-8.372" y1="-1.61" x2="-9.843" y2="2.828" gradientUnits="objectBoundingBox">
      <stop offset="0" stop-color="#311944"/>
      <stop offset="1" stop-color="#893976"/>
    </linearGradient>
    <linearGradient id="linear-gradient-8" x1="0.5" y1="0" x2="0.5" y2="1" xlink:href="#linear-gradient-2"/>
    <linearGradient id="linear-gradient-10" x1="-0.008" y1="0.35" x2="0.749" y2="0.573" xlink:href="#linear-gradient"/>
    <linearGradient id="linear-gradient-11" x1="-47.741" y1="-0.027" x2="-46.813" y2="2" xlink:href="#linear-gradient"/>
    <linearGradient id="linear-gradient-12" x1="0.159" y1="-0.004" x2="0.496" y2="0.493" gradientUnits="objectBoundingBox">
      <stop offset="0" stop-color="#ffc444"/>
      <stop offset="1" stop-color="#f36f56"/>
    </linearGradient>
    <linearGradient id="linear-gradient-13" x1="0.128" y1="0.474" x2="0.868" y2="0.526" xlink:href="#linear-gradient"/>
    <linearGradient id="linear-gradient-14" x1="-27.207" y1="0.083" x2="-26.56" y2="1.624" xlink:href="#linear-gradient"/>
    <linearGradient id="linear-gradient-15" x1="-40.112" y1="-0.028" x2="-39.189" y2="2.017" xlink:href="#linear-gradient-2"/>
    <linearGradient id="linear-gradient-16" x1="0.459" y1="0.267" x2="0.72" y2="1.661" xlink:href="#linear-gradient-12"/>
    <linearGradient id="linear-gradient-17" x1="-223.233" y1="64.176" x2="-223.017" y2="65.982" xlink:href="#linear-gradient-12"/>
    <linearGradient id="linear-gradient-18" x1="-840.339" y1="14.869" x2="-840.339" y2="5.324" xlink:href="#linear-gradient-12"/>
    <linearGradient id="linear-gradient-19" x1="-140.35" y1="0.803" x2="-140.521" y2="1.768" xlink:href="#linear-gradient-7"/>
    <linearGradient id="linear-gradient-20" x1="-140.409" y1="0.803" x2="-140.58" y2="1.768" xlink:href="#linear-gradient-7"/>
    <linearGradient id="linear-gradient-21" x1="-394.821" y1="10.893" x2="-395.81" y2="6.915" gradientUnits="objectBoundingBox">
      <stop offset="0" stop-color="#ff9085"/>
      <stop offset="1" stop-color="#fb6fbb"/>
    </linearGradient>
    <linearGradient id="linear-gradient-22" x1="-294.975" y1="147.374" x2="-294.975" y2="137.268" xlink:href="#linear-gradient-12"/>
    <linearGradient id="linear-gradient-23" x1="-413.374" y1="65.22" x2="-415.41" y2="62.437" xlink:href="#linear-gradient-21"/>
    <linearGradient id="linear-gradient-24" x1="1.993" y1="0.532" x2="-0.419" y2="0.475" xlink:href="#linear-gradient-7"/>
    <linearGradient id="linear-gradient-25" x1="-227.551" y1="4.044" x2="-228.203" y2="4.904" xlink:href="#linear-gradient-12"/>
    <linearGradient id="linear-gradient-26" x1="-46.862" y1="1.898" x2="-46.328" y2="0.815" xlink:href="#linear-gradient-3"/>
    <linearGradient id="linear-gradient-27" x1="-380.385" y1="0.116" x2="-379.347" y2="1.288" xlink:href="#linear-gradient-12"/>
    <linearGradient id="linear-gradient-28" x1="-373.621" y1="-55.03" x2="-372.569" y2="-53.581" xlink:href="#linear-gradient-3"/>
    <linearGradient id="linear-gradient-29" x1="-568.071" y1="-24.71" x2="-568.071" y2="-26.061" xlink:href="#linear-gradient-12"/>
    <linearGradient id="linear-gradient-30" x1="-472.145" y1="-68.344" x2="-470.815" y2="-66.556" xlink:href="#linear-gradient-3"/>
    <linearGradient id="linear-gradient-31" x1="-387.364" y1="-0.515" x2="-386.269" y2="0.793" xlink:href="#linear-gradient-3"/>
    <linearGradient id="linear-gradient-32" x1="-719.986" y1="1.222" x2="-719.986" y2="-0.194" xlink:href="#linear-gradient-12"/>
    <linearGradient id="linear-gradient-33" x1="8.4" y1="1.09" x2="7.744" y2="-0.252" xlink:href="#linear-gradient-3"/>
    <linearGradient id="linear-gradient-34" x1="-480.879" y1="-1.298" x2="-479.518" y2="0.48" xlink:href="#linear-gradient-3"/>
    <linearGradient id="linear-gradient-35" x1="-66.534" y1="23.558" x2="-65.271" y2="25.206" xlink:href="#linear-gradient-12"/>
    <linearGradient id="linear-gradient-36" x1="-730.634" y1="185.413" x2="-716.234" y2="199.191" xlink:href="#linear-gradient-12"/>
    <linearGradient id="linear-gradient-37" x1="-8.647" y1="0.186" x2="-9.758" y2="0.814" xlink:href="#linear-gradient-2"/>
    <clipPath id="clip-path-3">
      <path id="Trazado_130455" data-name="Trazado 130455" d="M1192.406,642.785c4.3,0,8.524-1.8,12.556-5.36,4.1-3.618,7.814-8.854,11.029-15.56,6.76-14.1,10.483-32.9,10.483-52.944s-3.723-38.843-10.483-52.941c-3.215-6.706-6.926-11.942-11.029-15.562-4.032-3.555-8.256-5.358-12.556-5.358s-8.521,1.8-12.553,5.358c-4.1,3.62-7.814,8.856-11.029,15.562-6.76,14.1-10.483,32.9-10.483,52.941s3.723,38.845,10.483,52.944c3.215,6.706,6.926,11.942,11.029,15.56C1183.885,640.982,1188.109,642.785,1192.406,642.785Z" transform="translate(-1158.34 -495.06)" fill="none"/>
    </clipPath>
    <linearGradient id="linear-gradient-38" x1="-25.425" y1="0.5" x2="-24.425" y2="0.5" xlink:href="#linear-gradient-3"/>
    <linearGradient id="linear-gradient-39" x1="182.988" y1="-30.215" x2="183.413" y2="-26.68" xlink:href="#linear-gradient-3"/>
    <linearGradient id="linear-gradient-40" x1="-29.071" y1="0.5" x2="-27.906" y2="0.5" gradientUnits="objectBoundingBox">
      <stop offset="0" stop-color="#444b8c"/>
      <stop offset="1" stop-color="#3e4177"/>
    </linearGradient>
    <linearGradient id="linear-gradient-41" x1="-0.075" y1="-0.147" x2="0.421" y2="0.274" gradientUnits="objectBoundingBox">
      <stop offset="0" stop-color="#311944"/>
      <stop offset="1" stop-color="#a03976"/>
    </linearGradient>
    <linearGradient id="linear-gradient-42" x1="-23.642" y1="-0.037" x2="-22.777" y2="0.548" xlink:href="#linear-gradient-3"/>
    <linearGradient id="linear-gradient-43" x1="10.57" y1="13.901" x2="9.74" y2="12.897" xlink:href="#linear-gradient-3"/>
    <linearGradient id="linear-gradient-44" x1="28.91" y1="10.66" x2="27.78" y2="9.468" xlink:href="#linear-gradient-41"/>
    <linearGradient id="linear-gradient-45" x1="0" y1="0.5" x2="1" y2="0.5" xlink:href="#linear-gradient-12"/>
    <linearGradient id="linear-gradient-46" x1="-27.959" y1="4.651" x2="-28.39" y2="1.863" xlink:href="#linear-gradient-41"/>
    <linearGradient id="linear-gradient-47" x1="-94.133" y1="1.134" x2="-98.851" y2="4.644" xlink:href="#linear-gradient-41"/>
    <linearGradient id="linear-gradient-48" x1="-76.867" y1="-19.344" x2="-80.454" y2="-17.684" xlink:href="#linear-gradient-41"/>
    <linearGradient id="linear-gradient-49" x1="0" y1="0.5" x2="1" y2="0.5" xlink:href="#linear-gradient-12"/>
  </defs>
  <g id="portada-01" transform="translate(-106.376 -28.725)">
    <g id="Background" transform="translate(106.376 178.685)">
      <path id="Trazado_130404" data-name="Trazado 130404" d="M150.41,152.448V338.869c0,2.788-2.386,3.467-5.09,3.645L51.091,350.5l-1.449.1a5,5,0,0,1-5.422-4.98V149.3a5.195,5.195,0,0,1,5.422-5.165l1.968.063,94.552,7.23C148.866,151.517,150.41,149.659,150.41,152.448Z" transform="translate(-44.22 -144.133)" fill="url(#linear-gradient-3)"/>
      <path id="Trazado_130405" data-name="Trazado 130405" d="M166.35,152.5V338.838a5.424,5.424,0,0,1-4.909,5.39L65.679,350.57a4.986,4.986,0,0,1-5.409-4.978V149.371a5.191,5.191,0,0,1,5.409-5.161l95.762,3.081A5.182,5.182,0,0,1,166.35,152.5Z" transform="translate(-57.276 -144.192)" fill="url(#linear-gradient-4)"/>
      <path id="Trazado_130406" data-name="Trazado 130406" d="M178.057,211.9V384.6a5.083,5.083,0,0,1-4.609,5.036L83.4,395.42a4.647,4.647,0,0,1-5.036-4.646v-181.3a4.8,4.8,0,0,1,2.466-4.225,4.954,4.954,0,0,1,2.559-.629l90.064,2.425A4.847,4.847,0,0,1,178.057,211.9Z" transform="translate(-71.992 -193.337)" fill="url(#linear-gradient-5)"/>
      <path id="Trazado_130407" data-name="Trazado 130407" d="M345.979,175.783a1.725,1.725,0,0,1-1.778,1.74,1.852,1.852,0,0,1-1.781-1.845,1.725,1.725,0,0,1,1.781-1.742A1.852,1.852,0,0,1,345.979,175.783Z" transform="translate(-286.799 -168.376)" fill="#de8bdf"/>
    </g>
    <g id="Illustration" transform="translate(143.2 18.369)">
      <path id="Trazado_130409" data-name="Trazado 130409" d="M753.644,1082.027c-56.165.866-119.359,6.957-119.745,16.084-.253,5.959,27.614,9.547,27.256,15.639-.7,12.071-103.624,7.9-105,20.107-1.548,13.717,124.487,56.3,228.858,23.261,3.236-1.023,10.771-4.329,21.929-7.235,30.735-8,46.89-3.58,85.849-4.917,19.807-.677,62.4-2.128,63.819-11.593.719-4.8-9.4-10.055-15.6-13.113C861.815,1081.181,769.824,1081.776,753.644,1082.027Z" transform="translate(-466.905 -800.218)" fill="#3a277b" opacity="0.2"/>
      <path id="Trazado_130410" data-name="Trazado 130410" d="M739.412,1265.132c-49.484,5.276-75.719.068-76.405,4.917-.92,6.521,46.319,17.845,50.11,18.733,42.364,10.029,111.845,18.775,117.338,2.262,2.606-7.837-9.835-19.461-19.1-25.024C792.992,1255,776.161,1261.212,739.412,1265.132Z" transform="translate(-548.738 -936.407)" fill="#3a277b" opacity="0.29"/>
      <path id="Trazado_130411" data-name="Trazado 130411" d="M1100.37,1097.433c-31.447.119-72.612,5.107-72.823,12.064-.2,6.535,35.7,14.255,66.576,15.639,41.914,1.873,86.383-7.4,86.235-14.752S1135.072,1097.3,1100.37,1097.433Z" transform="translate(-827.929 -812.051)" fill="#3a277b" opacity="0.29"/>
      <g id="Grupo_55982" data-name="Grupo 55982" transform="translate(261.68 59.226)" clip-path="url(#clip-path)">
        <g id="Grupo_55981" data-name="Grupo 55981" transform="translate(-11.897 -11.049)" opacity="0.5">
          <path id="Trazado_130413" data-name="Trazado 130413" d="M1360.938,429.749l-.188-.5c17.723-6.734,32.968-14.763,45.318-23.863,18.226-13.431,29.572-28.843,33.726-45.808,3.253-13.283,2.1-27.021.506-46.052a258.07,258.07,0,0,0-5.547-35.233c-2.615-12.257-4.681-21.937-3.243-35.972a106.831,106.831,0,0,1,13.961-42.094l.461.265a106.18,106.18,0,0,0-13.894,41.888c-1.428,13.95.628,23.6,3.232,35.805a258.565,258.565,0,0,1,5.563,35.291c1.589,19.074,2.755,32.849-.53,46.224-4.183,17.087-15.6,32.6-33.924,46.094C1393.994,414.945,1378.706,423,1360.938,429.749Z" transform="translate(-1360.75 -200.23)" fill="#fff"/>
          <path id="Trazado_130414" data-name="Trazado 130414" d="M1542.647,393.472l-.265-.122a72.117,72.117,0,0,1-20.245-14.869,73.818,73.818,0,0,1-14.154-20.523,77.77,77.77,0,0,1-6.943-30.965h.53a77.211,77.211,0,0,0,6.888,30.73,74.967,74.967,0,0,0,33.858,35.019,123.438,123.438,0,0,1,15.423-33.14,108.816,108.816,0,0,1,18.544-21.272c11.9-10.48,22.009-14.453,22.109-14.5l.193.5c-.1.04-10.128,3.992-21.967,14.416a108.3,108.3,0,0,0-18.454,21.161,122.768,122.768,0,0,0-15.431,33.273Z" transform="translate(-1463.876 -291.087)" fill="#fff"/>
          <path id="Trazado_130415" data-name="Trazado 130415" d="M1483.568,506.963l-.109-.159a209.275,209.275,0,0,0-22.968-27.336c-12.832-12.591-42.849-16.954-43.151-17l.074-.53c.3.042,30.491,4.437,43.445,17.15a210.423,210.423,0,0,1,22.925,27.257c7.222-2.175,15.134-7.9,23.527-17.013a196.611,196.611,0,0,0,21.119-28.488,367.6,367.6,0,0,0,20.9-38.579l.482.217a367.626,367.626,0,0,1-20.928,38.642,197.168,197.168,0,0,1-21.177,28.568c-8.53,9.272-16.586,15.055-23.951,17.219Z" transform="translate(-1402.349 -363.442)" fill="#fff"/>
          <path id="Trazado_130416" data-name="Trazado 130416" d="M1493.715,712.246l.265-.458a36.325,36.325,0,0,0,4.843-23.966,47.32,47.32,0,0,0-8.337-19.794,81.262,81.262,0,0,0-18.136-18.44l.3-.437a82.081,82.081,0,0,1,18.279,18.576,48.047,48.047,0,0,1,8.424,20.017,36.743,36.743,0,0,1-4.644,23.842,196.224,196.224,0,0,0,66.429-23.278,144.182,144.182,0,0,0,32.033-24.872l39.355-41.194.384.368-39.366,41.183a144.952,144.952,0,0,1-32.155,24.968,196.278,196.278,0,0,1-67.152,23.413Z" transform="translate(-1442.786 -510.445)" fill="#fff"/>
        </g>
      </g>
      <g id="Grupo_55984" data-name="Grupo 55984" transform="translate(265.172 161.169)" clip-path="url(#clip-path-2)">
        <g id="Grupo_55983" data-name="Grupo 55983" transform="translate(-87.987 -17.108)" opacity="0.5">
          <path id="Trazado_130419" data-name="Trazado 130419" d="M1175.05,685.456a122.172,122.172,0,0,1-25.768-2.731,132.242,132.242,0,0,1-26.555-8.8,150.34,150.34,0,0,1-36.028-23.153l.344-.4a150.51,150.51,0,0,0,35.917,23.068,131.711,131.711,0,0,0,26.449,8.758,124.012,124.012,0,0,0,47.522.813,155.156,155.156,0,0,0,44.2-15.208c32.335-16.62,56.789-41.133,71.608-58.768,10.273-12.228,17.018-27.99,20.046-46.855l.53.085c-3.041,18.96-9.826,34.809-20.162,47.112-14.851,17.672-39.358,42.237-71.772,58.9a155.639,155.639,0,0,1-44.354,15.259A128.172,128.172,0,0,1,1175.05,685.456Z" transform="translate(-1086.7 -562.18)" fill="#fff"/>
          <path id="Trazado_130420" data-name="Trazado 130420" d="M1811.208,683.119l-.055-.23a90.653,90.653,0,0,1-1.648-22.478c.556-11.789,3.709-28.756,15.555-42.651l.4.344c-11.751,13.775-14.877,30.61-15.428,42.317a90.78,90.78,0,0,0,1.589,22.1c55.65-7.1,70.395-38.817,73.592-48.381.09-.265.13-.384.159-.448l.477.236c-.019.034-.074.2-.132.379-3.227,9.653-18.117,41.692-74.27,48.77Z" transform="translate(-1617.95 -603.036)" fill="#fff"/>
          <path id="Trazado_130421" data-name="Trazado 130421" d="M1723.03,717.3a75.144,75.144,0,0,1-19.9-2.792,109.03,109.03,0,0,1-31.906-15.222l-.117-.08v-.143a107.6,107.6,0,0,1,2.421-18.925,147,147,0,0,1,16.409-43.135l18.623-32.247.461.265L1690.4,637.272a146.337,146.337,0,0,0-16.348,42.963,110.067,110.067,0,0,0-2.411,18.695A108.355,108.355,0,0,0,1703.273,714a72.624,72.624,0,0,0,24.4,2.6c13.338-.954,21.082-5.8,21.158-5.847l.286.448c-.079.05-7.947,4.964-21.407,5.929Q1725.388,717.3,1723.03,717.3Z" transform="translate(-1516.294 -593.48)" fill="#fff"/>
        </g>
      </g>
      <path id="Trazado_130429" data-name="Trazado 130429" d="M1700.034,1274.471c-70.914-1.794-84.17-2.679-84.4-.728-.321,2.677,24.16,8.448,44.764,10.626,20.18,2.135,35.807.738,49.023-.515,14.738-1.4,37.215-4.564,37.086-6.7C1746.4,1275.534,1733.242,1275.312,1700.034,1274.471Z" transform="translate(-1278.306 -946.234)" fill="#3a277b" opacity="0.29"/>
      <path id="Trazado_130432" data-name="Trazado 130432" d="M1217.844,49.086l.217,4.008a2.111,2.111,0,0,1-2.368,2.061l-2.514-.061a22.051,22.051,0,0,1-1.325,5.518l2.141,1.078a2.065,2.065,0,0,1,1.059,2.933l-2.156,3.444a2.653,2.653,0,0,1-3.38.718l-2.04-1.015a26.847,26.847,0,0,1-4.591,4.1l1.208,1.661a1.9,1.9,0,0,1-.763,2.914l-4.027,1.974a2.93,2.93,0,0,1-3.529-.832l-1.176-1.605a35.377,35.377,0,0,1-6.755,1.478l.1,1.828a2.229,2.229,0,0,1-2.469,2.146l-4.9-.048a2.615,2.615,0,0,1-2.737-2.209l-.1-1.838a39.953,39.953,0,0,1-7.086-1.669l-1.036,1.605a2.86,2.86,0,0,1-3.579.763l-4.466-2.119a2.107,2.107,0,0,1-1.152-3.033l1.089-1.672a35.12,35.12,0,0,1-5.372-4.4l-2.077.972a3.181,3.181,0,0,1-3.746-.88l-2.768-3.685a1.93,1.93,0,0,1,.824-3.023l2.2-1.02a25.6,25.6,0,0,1-2.119-5.844l-2.739-.077a2.8,2.8,0,0,1-2.866-2.313l-.241-4.212c-.072-1.237,1.1-2.2,2.612-2.148l2.914.1a22.163,22.163,0,0,1,1.629-5.582l-2.668-1.325a2.174,2.174,0,0,1-1.174-3.092l2.358-3.537a2.914,2.914,0,0,1,3.666-.66l2.779,1.4a27.445,27.445,0,0,1,4.752-3.809l-1.719-2.347a1.9,1.9,0,0,1,.811-2.983l4.252-1.876a3.179,3.179,0,0,1,3.685.988l1.74,2.384a35.962,35.962,0,0,1,6.464-1.126l-.148-2.684a2.158,2.158,0,0,1,2.5-2.058l4.919.252a2.752,2.752,0,0,1,2.721,2.313l.149,2.665a39.779,39.779,0,0,1,6.482,1.722l1.431-2.2a2.669,2.669,0,0,1,3.444-.623l4.268,2.236a2.126,2.126,0,0,1,1.091,2.986l-1.383,2.146a34.741,34.741,0,0,1,4.909,4.088l2.456-1.134a2.914,2.914,0,0,1,3.476.93l2.543,3.582a1.87,1.87,0,0,1-.755,2.882l-2.323,1.091a25.7,25.7,0,0,1,2.09,5.481l2.649.087A2.587,2.587,0,0,1,1217.844,49.086Zm-17.134,1.891c-.493-8.97-9.537-16.6-20.316-17.039-10.943-.448-19.513,6.655-18.991,15.863s9.91,16.827,20.827,17.034c10.763.207,18.976-6.893,18.48-15.858Z" transform="translate(-952.251 -8.014)" fill="rgba(125,110,178,0.6)"/>
      <path id="Trazado_130433" data-name="Trazado 130433" d="M1622.22,98.876l-112.028-9.19c-12.4-1.02-22.6,6.964-22.6,17.844s10.2,20.284,22.6,20.994l112.028,6.4c10.522.6,18.941-6.888,18.941-16.705S1632.743,99.74,1622.22,98.876Z" transform="translate(-1134.492 -48.978)" fill="#3a277b" opacity="0.43"/>
      <path id="Trazado_130434" data-name="Trazado 130434" d="M1712.815,293.73l.159,3.113a1.644,1.644,0,0,1-1.717,1.666h-1.817a18.706,18.706,0,0,1-.964,4.326l1.547.781a1.627,1.627,0,0,1,.779,2.254l-1.566,2.723a1.854,1.854,0,0,1-2.443.641l-1.478-.736a20.925,20.925,0,0,1-3.311,3.293l.871,1.261a1.56,1.56,0,0,1-.551,2.286l-2.914,1.624a1.974,1.974,0,0,1-2.541-.562l-.845-1.216a24.188,24.188,0,0,1-4.85,1.3l.074,1.412a1.71,1.71,0,0,1-1.77,1.714l-3.5.077a1.854,1.854,0,0,1-1.958-1.645l-.074-1.417a26.241,26.241,0,0,1-5.054-1.123l-.737,1.261a1.974,1.974,0,0,1-2.548.668l-3.179-1.536a1.641,1.641,0,0,1-.818-2.307l.773-1.325a24.079,24.079,0,0,1-3.809-3.258l-1.47.795a2.1,2.1,0,0,1-2.649-.585l-1.958-2.76a1.59,1.59,0,0,1,.583-2.344l1.558-.837a20.088,20.088,0,0,1-1.491-4.435l-1.937.013a1.942,1.942,0,0,1-2.019-1.7l-.172-3.227a1.733,1.733,0,0,1,1.854-1.719h2.05a18.815,18.815,0,0,1,1.15-4.331l-1.884-.94a1.666,1.666,0,0,1-.829-2.339l1.666-2.784a1.987,1.987,0,0,1,2.591-.615l1.968.993a21.079,21.079,0,0,1,3.364-3.068l-1.219-1.754a1.552,1.552,0,0,1,.575-2.321l3.017-1.574a2.09,2.09,0,0,1,2.62.644l1.237,1.788a24.631,24.631,0,0,1,4.609-1.06l-.109-2.066a1.662,1.662,0,0,1,1.788-1.672l3.518.04a1.909,1.909,0,0,1,1.947,1.7l.106,2.056a26.13,26.13,0,0,1,4.649,1.134l1.028-1.748a1.885,1.885,0,0,1,2.485-.591l3.073,1.589a1.667,1.667,0,0,1,.795,2.286l-1,1.717a23.985,23.985,0,0,1,3.531,3.033l1.775-.956a1.971,1.971,0,0,1,2.511.62l1.854,2.707a1.539,1.539,0,0,1-.546,2.265l-1.682.914a20.238,20.238,0,0,1,1.513,4.2h1.923A1.835,1.835,0,0,1,1712.815,293.73Zm-12.387,1.939c-.355-6.943-6.853-12.591-14.586-12.615-7.809-.024-13.9,5.7-13.531,12.769s7.049,12.716,14.835,12.6C1694.875,308.319,1700.783,302.6,1700.428,295.67Z" transform="translate(-1406.983 -214.267)" fill="#26aab7" opacity="0.42"/>
      <path id="Trazado_130435" data-name="Trazado 130435" d="M1988.454,313.51l-85.5-4.088c-9.317-.445-16.954,6.26-16.954,14.983s7.643,16,16.954,16.242l85.5,2.254a14.137,14.137,0,0,0,14.7-14.152A15.462,15.462,0,0,0,1988.454,313.51Z" transform="translate(-1542.18 -237.496)" fill="#0d585f" opacity="0.23"/>
      <path id="Trazado_130436" data-name="Trazado 130436" d="M2111.242,641.809l.127,2.649a1.409,1.409,0,0,1-1.367,1.465l-1.447.061a16.993,16.993,0,0,1-.768,3.709l1.235.625a1.4,1.4,0,0,1,.617,1.9l-1.245,2.36a1.463,1.463,0,0,1-1.945.612l-1.174-.591a18.162,18.162,0,0,1-2.633,2.893l.691,1.06a1.4,1.4,0,0,1-.437,1.96l-2.307,1.457a1.481,1.481,0,0,1-2.019-.413l-.67-1.015a18.678,18.678,0,0,1-3.852,1.232l.058,1.2a1.462,1.462,0,0,1-1.4,1.5l-2.781.151a1.446,1.446,0,0,1-1.55-1.348l-.058-1.205a18.958,18.958,0,0,1-4.008-.827l-.585,1.091a1.536,1.536,0,0,1-2.019.633l-2.514-1.227a1.406,1.406,0,0,1-.646-1.939l.612-1.136a18.553,18.553,0,0,1-3.015-2.673l-1.166.718a1.558,1.558,0,0,1-2.1-.432l-1.547-2.294a1.41,1.41,0,0,1,.461-2.005l1.232-.752a17.486,17.486,0,0,1-1.182-3.73l-1.529.064a1.507,1.507,0,0,1-1.589-1.391l-.135-2.737a1.47,1.47,0,0,1,1.455-1.51l1.621-.058a17.194,17.194,0,0,1,.908-3.709l-1.489-.75a1.431,1.431,0,0,1-.655-1.966l1.325-2.411a1.539,1.539,0,0,1,2.048-.593l1.558.795a18.059,18.059,0,0,1,2.665-2.7l-.967-1.457a1.4,1.4,0,0,1,.455-1.99l2.384-1.423a1.555,1.555,0,0,1,2.074.477l.98,1.486a18.841,18.841,0,0,1,3.653-1.036l-.087-1.756a1.422,1.422,0,0,1,1.417-1.47l2.79-.066a1.5,1.5,0,0,1,1.547,1.4l.085,1.746a19.388,19.388,0,0,1,3.69.834l.816-1.515a1.462,1.462,0,0,1,1.971-.572l2.442,1.274a1.42,1.42,0,0,1,.625,1.923l-.795,1.481a18.742,18.742,0,0,1,2.808,2.485l1.412-.861a1.478,1.478,0,0,1,2,.458l1.465,2.257a1.388,1.388,0,0,1-.434,1.944l-1.338.824a17.529,17.529,0,0,1,1.2,3.542l1.529-.058A1.441,1.441,0,0,1,2111.242,641.809Zm-9.852,1.987a11.1,11.1,0,0,0-11.579-10.347,10.861,10.861,0,0,0-10.723,11.224A11.1,11.1,0,0,0,2090.852,655,10.863,10.863,0,0,0,2101.39,643.8Z" transform="translate(-1666.525 -545.164)" fill="#d8dee8" opacity="0.5"/>
      <path id="Trazado_130437" data-name="Trazado 130437" d="M1665.07,478.423l-95.633-1.571c-10.461-.172-19.047,7.184-19.047,16.424s8.586,16.7,19.047,16.65l95.633-.474c9.089-.045,16.374-6.951,16.374-15.426S1674.159,478.574,1665.07,478.423Z" transform="translate(-1270.58 -379.186)" fill="#12263f" opacity="0.2"/>
      <path id="Trazado_130439" data-name="Trazado 130439" d="M1561.1,648.176l-85.937,1.155c-9.32.124-16.954,6.79-16.954,14.883s7.64,14.414,16.954,14.117l85.937-2.739c8.234-.265,14.835-6.551,14.835-14.04S1569.335,648.065,1561.1,648.176Z" transform="translate(-1182.609 -481.332)" fill="#d8dee8"/>
      <path id="Trazado_130440" data-name="Trazado 130440" d="M1285.013,1016.012a12.965,12.965,0,0,1-8.6-9.762l-6.39-31.62-54.651,1.952-6.729,32.942c-.941,4.615,2.829,9.243,7.174,10.943l22.865,8.946a29.723,29.723,0,0,0,13.37,1.937l48.322-4.133a3,3,0,0,0,2.71-2.649c.164-1.425,1.155-3.023-.193-3.47Z" transform="translate(-999.051 -721.306)" fill="#97a6b7"/>
      <path id="Trazado_130441" data-name="Trazado 130441" d="M1290.669,1010.192a12.851,12.851,0,0,1-8.586-9.64L1275.7,969.33l-53.321,1.918-6.718,32.528a9.513,9.513,0,0,0,5.886,10.8l22.843,8.835a30.021,30.021,0,0,0,13.354,1.915l48.275-4.082a2.98,2.98,0,0,0,.678-5.8Z" transform="translate(-1004.167 -717.41)" fill="url(#linear-gradient-6)"/>
      <path id="Trazado_130442" data-name="Trazado 130442" d="M782.984,497.708c-5.926.355-10.774-3.492-10.774-8.573V305.987c0-5.081,4.848-9.007,10.774-8.742l8.037,5.394,266.052,6.482a8.284,8.284,0,0,1,7.876,8.183V473.071a8.452,8.452,0,0,1-7.876,8.308Z" transform="translate(-678.337 -223.358)" fill="#97a6b7"/>
      <path id="Trazado_130443" data-name="Trazado 130443" d="M792.284,497.708c-5.926.355-10.774-3.492-10.774-8.573V305.987c0-5.081,4.848-9.007,10.774-8.742l274.09,11.876a8.284,8.284,0,0,1,7.876,8.183V473.071a8.452,8.452,0,0,1-7.876,8.308Z" transform="translate(-685.174 -223.358)" fill="#26264f"/>
      <path id="Trazado_130444" data-name="Trazado 130444" d="M1080.333,324.621l-274.09-11.277c-3.179-.13-5.743,1.963-5.743,4.678V500.689c0,2.713,2.575,4.768,5.743,4.583l274.09-15.741a4.5,4.5,0,0,0,4.217-4.44v-156.1a4.422,4.422,0,0,0-4.218-4.371Z" transform="translate(-699.133 -235.198)" fill="#d8dee8" opacity="0.3"/>
      <path id="Trazado_130445" data-name="Trazado 130445" d="M815.968,498.015a1.98,1.98,0,0,1-2.238-1.8V326.459a2,2,0,0,1,2.238-1.825l274.09,10.861a1.732,1.732,0,0,1,1.65,1.709V482.743a1.751,1.751,0,0,1-1.651,1.722Z" transform="translate(-708.858 -243.499)" fill="#d8dee8"/>
      <path id="Trazado_130446" data-name="Trazado 130446" d="M1018.735,444.212c-21.336-12.134-6.438-46.637-30.41-63.972-24.171-17.475-58.179,3.96-75.11-14.139-12.605-13.477,2.146-29.748-9.893-42.422-18.884-19.877-67.2,7.46-89.4-12.122a26.938,26.938,0,0,1-8.142-13.763l-14.3-.57c-5.486-.225-9.974,3.119-9.974,7.437v155.8c0,4.322,4.488,7.595,9.974,7.293l253.739-13.9c4.029-.225,7.291-3.38,7.291-7.067v-2.355C1035.666,449.686,1025.366,447.982,1018.735,444.212Z" transform="translate(-671.603 -215.855)" fill="#fff" opacity="0.6"/>
      <g id="Grupo_55993" data-name="Grupo 55993">
        <path id="Trazado_130456" data-name="Trazado 130456" d="M1425.69,312.516s8.089-5.024,12.8-12.887c-7.163-8.17-11.373-18.209-11.373-28.911,0-25.658,24.184-47.188,55.331-48.13,31.864-.964,59.017,19.775,60.408,46.757v.026c.017.335.031.672.039,1.009v.148c0,.329.013.661.013.992a42.275,42.275,0,0,1-.245,4.54q-.105.957-.252,1.9-.3,1.893-.76,3.733-.229.925-.5,1.823c-.12.4-.248.8-.37,1.2a47.711,47.711,0,0,1-17.95,23.491l-.542.383a58.922,58.922,0,0,1-9.417,5.33c-.209.1-.42.185-.631.281q-2.221.971-4.537,1.784-1,.348-2.008.664-.674.211-1.358.407-1.025.3-2.065.555-.694.174-1.4.337a68.534,68.534,0,0,1-18.431,1.665q-.711-.03-1.412-.076l-.409-.03c-.335-.024-.668-.048-1-.076l-.442-.041c-.324-.03-.646-.059-.968-.094-.137-.013-.274-.03-.413-.046-.333-.037-.666-.074-1-.117l-.353-.046c-.357-.048-.713-.1-1.066-.148l-.268-.041q-.583-.089-1.162-.185l-.157-.026c-.435-.074-.866-.154-1.3-.235h0a66.02,66.02,0,0,1-10.467-2.905l.013-.011a61.93,61.93,0,0,1-5.713-2.448C1451.893,316.58,1440.513,322.99,1425.69,312.516Z" transform="translate(-1201.716 -99.097)" fill="url(#linear-gradient-7)"/>
        <path id="Trazado_130458" data-name="Trazado 130458" d="M1411,269.768c0,14.7,7.941,28.159,20.814,37.394a64.257,64.257,0,0,0,34.517,11.5c32.717,1.443,60.468-20.06,60.468-48.1s-27.758-49.922-60.468-48.932C1435.181,222.58,1411,244.11,1411,269.768Z" transform="translate(-1189.743 -98.322)" fill="url(#linear-gradient-8)"/>
        <path id="Trazado_130459" data-name="Trazado 130459" d="M1450.033,614.818s-19.243,21.254-46.783,1.791c0,0,22.038-13.683,23.023-32.849Z" transform="translate(-1184.047 -406.531)" fill="url(#linear-gradient-8)"/>
        <path id="Trazado_130460" data-name="Trazado 130460" d="M1533.018,361.175c2.343-6.679,8.194-11.473,15.108-11.555,9.129-.109,16.625,8.018,16.625,18.157,0-10.139,7.587-18.448,17.06-18.563,7.359-.089,13.716,4.782,16.285,11.76,9.889,25.182-33.348,47.277-33.348,47.277S1524.2,384.848,1533.018,361.175Z" transform="translate(-1288.161 -202.316)" fill="#fff"/>
        <g id="Grupo_55988" data-name="Grupo 55988" transform="translate(256.168 141.652)" opacity="0.15">
          <path id="Trazado_130461" data-name="Trazado 130461" d="M1606.2,386.723c6.86-14.012-.076-27.427,9.216-36.527,9.578-9.382,22.236-.531,36.137-8.294,5.452-3.046,11.566-8.912,16.148-21.031,8.031,8.385,12.848,19.014,12.848,30.595,0,28.035-27.758,49.539-60.468,48.1a67.472,67.472,0,0,1-20.421-4.071A29.925,29.925,0,0,0,1606.2,386.723Z" transform="translate(-1599.66 -320.87)" fill="#aee6e6"/>
        </g>
      </g>
      <path id="Trazado_130462" data-name="Trazado 130462" d="M2080.162,155.343c14.024.429,25.8,8.991,28.1,19.831v.042a17.992,17.992,0,0,1,.286,1.8.356.356,0,0,0,.014.119c.029.283.053.57.069.856v.154c.016.291.024.585.024.88,0,12.6-12.854,22.141-28.5,21.331q-.625-.032-1.24-.087h-.122c-.389-.034-.776-.077-1.163-.124l-.177-.021c-.374-.048-.745-.1-1.113-.162l-.207-.034c-.363-.058-.721-.125-1.078-.2l-.215-.045c-.355-.072-.708-.148-1.06-.233l-.2-.048c-.347-.085-.694-.175-1.036-.265l-.183-.053c-.307-.087-.612-.177-.917-.265l-.23-.072q-.461-.151-.914-.31l-.2-.069h0c-10.4-3.754-17.717-12.2-17.717-21.643C2052.4,164.435,2064.731,154.869,2080.162,155.343Z" transform="translate(-1633.702 -99.722)" fill="url(#linear-gradient-10)"/>
      <path id="Trazado_130463" data-name="Trazado 130463" d="M2041.24,176.684c0,12.268,12.342,22.854,27.765,23.651,15.648.811,28.5-8.742,28.5-21.331s-12.854-23.2-28.5-23.68C2053.582,154.855,2041.24,164.421,2041.24,176.684Z" transform="translate(-1625.513 -99.708)" fill="#3a277b"/>
      <path id="Trazado_130464" data-name="Trazado 130464" d="M2118.269,184.739a10.577,10.577,0,0,1,10.106,10.506c0,3.637-4.254,11.905-7.242,17.259a3.258,3.258,0,0,1-5.722-.265c-2.964-5.605-7.152-14.173-7.152-17.773a9.627,9.627,0,0,1,10.011-9.728Zm0,15.542a5.168,5.168,0,0,0,5.415-5.219,5.677,5.677,0,0,0-5.415-5.64,5.171,5.171,0,0,0-5.391,5.219A5.683,5.683,0,0,0,2118.269,200.281Z" transform="translate(-1674.777 -121.337)" fill="#fff"/>
      <g id="Grupo_55989" data-name="Grupo 55989" transform="translate(433.442 65.259)" opacity="0.15">
        <path id="Trazado_130465" data-name="Trazado 130465" d="M2111.353,221.077c3.375-6.469-.037-12.819,4.53-16.915,4.662-4.178,10.75.132,17.341-3.179,2.559-1.282,5.41-3.825,7.534-9.214a20.554,20.554,0,0,1,5.905,14.04c0,12.6-12.854,22.141-28.5,21.331a34.97,34.97,0,0,1-10.051-2.008,13.851,13.851,0,0,0,3.243-4.056Z" transform="translate(-2108.11 -191.77)" fill="url(#linear-gradient-11)"/>
      </g>
      <path id="Trazado_130466" data-name="Trazado 130466" d="M2173.846,513.929c.013.138.024.265.034.411l.024.342c0,.164.018.328.024.5v1.046a25.9,25.9,0,0,1-.2,3.38,26.383,26.383,0,0,1-1.407,5.669q-.143.4-.3.795a28.753,28.753,0,0,1-1.441,3.047,32.513,32.513,0,0,1-4.525,6.31q-.6.652-1.229,1.285t-1.3,1.237a41.47,41.47,0,0,1-5.91,4.44q-.4.249-.811.493-.818.485-1.667.94a48.24,48.24,0,0,1-6.265,2.8q-.938.342-1.9.649t-1.944.583q-.985.265-1.987.509a53.664,53.664,0,0,1-11.545,1.407h-2.416l-.644-.024-.379-.019-.633-.034-.368-.024-.644-.048-.344-.029-.667-.064-.313-.032-.707-.082-.265-.032c-.265-.032-.53-.066-.776-.1l-.18-.027c-.3-.042-.6-.087-.9-.138h-.053a48.966,48.966,0,0,1-5.537-1.237h0c-15.259-4.371-25.932-15.7-25.932-29.124,0-17.458,18.035-32.436,40.743-33.471,21.927-1,40.282,11.3,42.272,27.985,0,.109.027.217.037.326S2173.835,513.8,2173.846,513.929Z" transform="translate(-1678.263 -391.078)" fill="url(#linear-gradient-12)"/>
      <path id="Trazado_130467" data-name="Trazado 130467" d="M2080.52,518.578c0,17.46,17.646,31.363,39.858,31.05,22.727-.318,41.535-15.33,41.535-33.522s-18.808-32.054-41.535-30.995C2098.166,486.143,2080.52,501.121,2080.52,518.578Z" transform="translate(-1670.75 -390.953)" fill="#ff4490"/>
      <path id="Trazado_130468" data-name="Trazado 130468" d="M2186.26,535.33v30.886c0,1.982,1.679,3.221,3.131,2.31l25.863-16.226a2.98,2.98,0,0,0,0-4.795l-25.863-14.666C2187.939,532.006,2186.26,533.346,2186.26,535.33Z" transform="translate(-1748.478 -425.894)" fill="#fff"/>
      <g id="Grupo_55990" data-name="Grupo 55990" transform="translate(448.748 108.466)" opacity="0.15">
        <path id="Trazado_130469" data-name="Trazado 130469" d="M2179.809,570.789c3.688-9.06-.04-17.322,4.949-23.3,5.1-6.115,11.787-.871,19.051-6.005,2.825-2,5.98-5.755,8.332-13.3a29.1,29.1,0,0,1,6.554,18.546c0,17.182-14.238,31.362-31.442,31.662a30.345,30.345,0,0,1-10.973-1.814A20.664,20.664,0,0,0,2179.809,570.789Z" transform="translate(-2176.279 -528.18)" fill="#fff"/>
      </g>
      <path id="Trazado_130470" data-name="Trazado 130470" d="M1837.417,705.778l-.265-.021-.5-.04-.265-.026-.5-.05-.265-.029c-.17-.019-.339-.037-.509-.061l-.236-.029-.53-.074-.2-.032-.6-.079-.151-.026c-.217-.034-.432-.074-.646-.114h-.077a39.386,39.386,0,0,1-4.954-1.29h0c-11.529-3.788-19.561-12.594-19.561-22.594,0-13.01,13.59-23.657,30.791-23.784,16.719-.125,30.785,9.685,32.29,22.324l.024.207.032.313.024.294a1.269,1.269,0,0,0,.018.265c.019.087,0,.246.019.368v.8c0,6.639-3.444,12.554-9.031,16.827-.358.265-.729.543-1.1.795s-.763.516-1.155.763l-.6.366c-.4.241-.811.474-1.229.7s-.842.442-1.274.652q-.548.265-1.113.511a36.5,36.5,0,0,1-6.739,2.2q-.684.154-1.383.286a40.948,40.948,0,0,1-8.8.657c-.265,0-.53-.021-.776-.034l-.241-.013Z" transform="translate(-1439.853 -488.206)" fill="url(#linear-gradient-13)"/>
      <path id="Trazado_130471" data-name="Trazado 130471" d="M1802.11,681.29c0,13.01,13.349,24,30.242,24.552,17.383.57,31.85-10.067,31.85-23.765s-14.467-24.7-31.85-24.571C1815.459,657.636,1802.11,668.281,1802.11,681.29Z" transform="translate(-1435.406 -488.191)" fill="url(#linear-gradient-14)"/>
      <path id="Trazado_130472" data-name="Trazado 130472" d="M1894.8,719.771l-1.364-9.155,4.262.08v-4.7l-5.1-.077-.837-5.712,4.464.048V695.5l-5.2-.034-1.3-8.845h-4.623l1.3,8.811-4.7-.029-1.325-8.776h-4.551l1.325,8.742-4.069-.024V700l4.784.05.818,5.645-4.238-.064v4.615l5,.093,1.282,9.049,4.641.122-1.293-9.084,4.718.09,1.3,9.118Zm-11.561-14-.824-5.669,4.7.05.832,5.688Z" transform="translate(-1487.568 -509.593)" fill="#fff"/>
      <g id="Grupo_55991" data-name="Grupo 55991" transform="translate(385.91 178.836)" opacity="0.15">
        <path id="Trazado_130473" data-name="Trazado 130473" d="M1878.157,725.915c3.709-7.012-.04-13.725,4.978-18.247,5.142-4.631,11.889-.185,19.238-3.974,2.864-1.473,6.064-4.323,8.453-10.244a21.26,21.26,0,0,1,6.668,15.055c0,13.7-14.467,24.335-31.85,23.765a38.92,38.92,0,0,1-11.033-1.952A15.251,15.251,0,0,0,1878.157,725.915Z" transform="translate(-1874.61 -693.45)" fill="url(#linear-gradient-15)"/>
      </g>
      <path id="Trazado_130474" data-name="Trazado 130474" d="M2035.35,862.444a4.085,4.085,0,0,0,1.28-1.685c.336-.869.1-1.253.53-1.8a2.157,2.157,0,0,1,2.384-.646.967.967,0,0,1,.474.376c.334.564-.411,1.544-1,2.066a8.939,8.939,0,0,1-1.1.7,4.553,4.553,0,0,0-1.513,1.918Z" transform="translate(-1606.858 -635.712)" fill="url(#linear-gradient-16)"/>
      <path id="Trazado_130475" data-name="Trazado 130475" d="M2113.125,848.719a4.1,4.1,0,0,1-1.836-1.06c-.649-.665-.58-1.113-1.181-1.446a2.145,2.145,0,0,0-2.45.336.957.957,0,0,0-.292.53c-.087.652.98,1.264,1.73,1.51a8.68,8.68,0,0,0,1.29.212,4.554,4.554,0,0,1,2.138,1.176Z" transform="translate(-1659.793 -626.732)" fill="url(#linear-gradient-17)"/>
      <path id="Trazado_130476" data-name="Trazado 130476" d="M2097.837,853.979c-.331,1.571,1.367,2.967,2.593,4.339,2.456,2.752,5.033,7.664,4.085,11.879a9.165,9.165,0,0,1-4.5,5.971c-2.513,1.269-4.019.114-6.623,1.621-.193.111-3.5,2.072-3.595,4.716-.117,3.264,4.678,6.734,8.784,7,7.51.487,16.56-9.5,16.138-19.41-.458-10.79-12.051-19.352-15.386-17.9a2.747,2.747,0,0,0-1.494,1.786Z" transform="translate(-1646.878 -631.186)" fill="#f5ca56"/>
      <path id="Trazado_130477" data-name="Trazado 130477" d="M2106.8,1280.9l-.268,2.734,1.271-.23.856-2.567Z" transform="translate(-1659.182 -946.398)" fill="url(#linear-gradient-18)"/>
      <path id="Trazado_130478" data-name="Trazado 130478" d="M2101.521,1090.44a68.748,68.748,0,0,1-1.454,12.4c-.771,3.648-1.221,4.278-1.462,6.8-.53,5.489,1.245,6.273,1.571,12.477a37.849,37.849,0,0,1-2.177,14.374,39.664,39.664,0,0,1-1.775,4.3c-.628.548-1.589.336-2.6.132-.373-6.215-.837-12.061-1.211-18.279q-1.8-14.019-3.61-28.041Z" transform="translate(-1646.149 -806.437)" fill="url(#linear-gradient-19)"/>
      <path id="Trazado_130479" data-name="Trazado 130479" d="M2093.621,1140.914c-.373-6.215-.837-12.061-1.211-18.279q-1.8-14.019-3.61-28.041l12.715-4.164c0,.321-.024.631-.037.946-5.95,5.166-7.113,9.272-7.054,12.051.072,3.386,1.921,5.065,1.56,9.974-.265,3.51-1.325,4.127-1.325,7.3,0,4.077,1.751,6.358,2.6,8.742.824,2.278,1.118,5.5-.474,10.093-.209.474-.408.9-.583,1.261C2095.595,1141.33,2094.634,1141.118,2093.621,1140.914Z" transform="translate(-1646.149 -806.43)" opacity="0.3" fill="url(#linear-gradient-20)"/>
      <path id="Trazado_130480" data-name="Trazado 130480" d="M2100.329,1288.443c.6-.747,1.158-.691,1.258-1.2a1.033,1.033,0,0,0-.546-1.06,1.4,1.4,0,0,0-1.271.265c-.943.644-.662,1.608-1.555,2.05a2.436,2.436,0,0,0-.763.474c-.125.124-.437.429-.358.633s.66.217,1.2.2a2.341,2.341,0,0,0,1.28-.236C2100,1289.294,2099.865,1289.021,2100.329,1288.443Z" transform="translate(-1652.236 -950.271)" fill="url(#linear-gradient-21)"/>
      <path id="Trazado_130481" data-name="Trazado 130481" d="M2104.51,1202.739l2.382.932.694-1.091-1.862-1.25Z" transform="translate(-1657.697 -887.951)" fill="url(#linear-gradient-22)"/>
      <path id="Trazado_130482" data-name="Trazado 130482" d="M2113.063,1206.489c-.138-.948.265-1.325-.027-1.735a1.035,1.035,0,0,0-1.144-.318c-.53.214-.646.948-.67,1.115-.167,1.128.734,1.589.45,2.532a2.456,2.456,0,0,0-.167.882c0,.177.019.615.222.694s.6-.339.956-.75c.424-.49.636-.736.7-1.1C2113.466,1207.307,2113.172,1207.223,2113.063,1206.489Z" transform="translate(-1662.616 -890.19)" fill="url(#linear-gradient-23)"/>
      <path id="Trazado_130483" data-name="Trazado 130483" d="M2046.962,1074.15a65.743,65.743,0,0,0-6.509,21.508c-.368,3.179-.331,5.123.58,7.092,3.266,7.041,14.66,7.507,16.393,7.555l1.708-3.5a17.664,17.664,0,0,0-6.01-6.623c-2.408-1.515-3.351-1.189-3.953-2.207-2.413-4.085,10.615-12.933,8.668-18.809C2057.167,1077.125,2054.576,1075.059,2046.962,1074.15Z" transform="translate(-1610.449 -794.462)" fill="url(#linear-gradient-24)"/>
      <path id="Trazado_130484" data-name="Trazado 130484" d="M2071.158,950.549c-4.792.821-8.44,1.68-10.067,4.188-1.722,2.649,1.015,4.647,1.759,10.464,1.139,8.906-3.973,12.231-2.509,21.193a22.579,22.579,0,0,0,1,3.878,9.152,9.152,0,0,0,3.786,4.7,23.648,23.648,0,0,0,4.8,2.318c4.861,1.7,7.258.713,13.8,1.086,10.692.612,12.294,3.709,17.126,1.807,4.882-1.929,8.416-7.137,7.38-9.362-.62-1.324-2.578-.5-5.383-2.138-3.616-2.119-3.009-4.988-5.942-7.457-4.215-3.547-8.271.034-11.873-3.049-3.648-3.121-4.082-10.708-2.533-15.224,1.012-2.949,1.031-6.157,1.783-9.185a1.957,1.957,0,0,0-.045-1.107c-.6-1.741-3.78-2.074-6.188-2.3A27.441,27.441,0,0,0,2071.158,950.549Z" transform="translate(-1625.033 -703.368)" fill="#f5ca56"/>
      <path id="Trazado_130485" data-name="Trazado 130485" d="M2100.292,1065.8c-1.481-.988-.678-3.786-2.872-5.269-2.035-1.378-3.624.424-6.623-.5-3.847-1.179-3.646-4.885-7.333-6.067-2.649-.85-3.444.843-7.274.917a15.157,15.157,0,0,1-11.992-5.563,13.66,13.66,0,0,1-2.509-5.25c-1.02,3.3-2.119,6.488-1.324,11.3a22.978,22.978,0,0,0,1.393,4.919,6.834,6.834,0,0,0,2.419,3.023,23.963,23.963,0,0,0,5.767,2.959c4.861,1.7,7.259.713,13.8,1.086,10.692.612,12.294,3.709,17.126,1.807a13.877,13.877,0,0,0,6.861-6.08C2103.487,1066.169,2101.367,1066.513,2100.292,1065.8Z" transform="translate(-1625.047 -772.351)" fill="#f5ca56" opacity="0.3"/>
      <path id="Trazado_130486" data-name="Trazado 130486" d="M2086.116,920.13a12.905,12.905,0,0,0-1.4,4.217c-.079,1.738,1.881,1.613,1.881,1.613l-.074,1.1a2.384,2.384,0,0,1-1.552,2.074l-.776.286s5.057,1.081,7.817-.869l-.794-.08a2.384,2.384,0,0,1-2.135-2.119l-.048-.469S2089.907,920.453,2086.116,920.13Z" transform="translate(-1642.76 -681.244)" fill="url(#linear-gradient-25)"/>
      <path id="Trazado_130487" data-name="Trazado 130487" d="M2010.539,872.457c.75,1.417-.5,3.229-1.3,4.885-1.589,3.325-2.721,8.742-.652,12.543a9.181,9.181,0,0,0,5.976,4.5c2.766.53,3.894-1,6.822-.265.217.053,3.934,1.025,4.755,3.542,1.015,3.1-2.649,7.762-6.511,9.15-7.086,2.538-18.544-4.564-20.867-14.207-2.532-10.5,6.247-21.927,9.855-21.458a2.747,2.747,0,0,1,1.918,1.306Z" transform="translate(-1579.634 -645.23)" fill="#f5ca56"/>
      <path id="Trazado_130488" data-name="Trazado 130488" d="M2089.175,911.851c.265-.021.477-.352.657-.265s.167.588,0,.927a1.219,1.219,0,0,1-.474.509,3.157,3.157,0,0,1,.567,1.28,4.43,4.43,0,0,1-.71,2.861c-1.25,2.665.7,6.888,2.834,9.007,1.738,1.73,2.549,1.036,3.587,2.448,2.019,2.75-.768,5.775.265,9.476,1.59,5.629,10.477,7.3,10.848,7.37l.392.066c3.987.633,10.032,1.589,14.289-1.68a12.426,12.426,0,0,0,4.4-10.464,12.132,12.132,0,0,0-3.417-7.8c-.485-.485-3.354-3.354-7.235-3.388-2.053-.019-2.469.7-4.04.265-2.151-.612-3.476-2.567-4.3-3.78-1.513-2.233-.9-2.71-1.987-3.807-2.119-2.151-4.631-.461-6.909-2.36s-.89-4.408-3.054-6.027c-2.236-1.669-6.512-1.086-7.417.9C2086.7,909.109,2088.375,911.917,2089.175,911.851Z" transform="translate(-1645.029 -670.501)" fill="url(#linear-gradient-26)"/>
      <path id="Trazado_130489" data-name="Trazado 130489" d="M1844.37,805.133s1.041-5.444,2.085-7.068a9.2,9.2,0,0,1,2.988-2.665s.405.668-.885,2.072-.215,1.544,0,2a2.952,2.952,0,0,1-1.176,2.649c-.927.578-1.274,3.738-1.274,3.738Z" transform="translate(-1466.471 -589.556)" fill="url(#linear-gradient-27)"/>
      <path id="Trazado_130490" data-name="Trazado 130490" d="M1752.379,827.91l-3.362-.58a52.92,52.92,0,0,1-11.9,14.981c-3.778,3.277-6.218,5.394-10.226,6.453-5.923,1.568-11.039-.265-11.7,1.391-.323.813.795,1.693,2.609,3.852,5.253,6.289,4.768,9.669,7.645,10.6,2.384.771,4.79-.887,8.864-3.793,3.709-2.649,8.355-5.961,12.281-12.281A39.166,39.166,0,0,0,1752.379,827.91Z" transform="translate(-1371.468 -613.028)" fill="#f5ca56"/>
      <path id="Trazado_130491" data-name="Trazado 130491" d="M1639.411,916c-.543.207-8.848,3.51-10.554,12.186-.138.7-1.473,8.149,3.576,13.41,5.664,5.9,16.568,5.751,20.9.821a8.837,8.837,0,0,0,1.839-3.5l-1.139-3.031a7.424,7.424,0,0,0-4.3-2.326c-2.5-.615-4.379.5-5.807-.707a3.742,3.742,0,0,1-1.089-2.479c-.477-2.914,1.168-4.708,1.288-6.506.09-1.343.559-4.286-1.195-6.207A5.74,5.74,0,0,0,1639.411,916Z" transform="translate(-1307.858 -678.208)" fill="#f5ca56"/>
      <path id="Trazado_130492" data-name="Trazado 130492" d="M1648.238,1278.836c-.1-.53-1.82-1.017-2.673-.3-.424.355-.715,1.075-.472,1.4.09.119-.265.326.074.331C1646.328,1280.277,1648.333,1279.366,1648.238,1278.836Z" transform="translate(-1319.92 -944.439)" fill="url(#linear-gradient-28)"/>
      <path id="Trazado_130493" data-name="Trazado 130493" d="M1645.472,1269.227l-1.772-.249c.821-.988.67-4.138.67-4.138l1.884.421s-.215.864-.58,2.141a8.407,8.407,0,0,0-.2,1.825Z" transform="translate(-1318.96 -934.636)" fill="url(#linear-gradient-29)"/>
      <path id="Trazado_130494" data-name="Trazado 130494" d="M1643.982,1279.911s-2.119-.493-2.363-.069-.411,1.558.943,1.521S1644.1,1280.272,1643.982,1279.911Z" transform="translate(-1317.309 -945.538)" fill="url(#linear-gradient-30)"/>
      <path id="Trazado_130495" data-name="Trazado 130495" d="M1740.4,1286.927c-.172-.514-1.945-.75-2.689.077-.371.411-.559,1.163-.265,1.452.1.1-.228.36.119.315C1738.713,1288.622,1740.572,1287.438,1740.4,1286.927Z" transform="translate(-1387.768 -950.53)" fill="url(#linear-gradient-31)"/>
      <path id="Trazado_130496" data-name="Trazado 130496" d="M1737.381,1278.278h-1.791c.675-1.091.085-4.188.085-4.188l1.923.154s-.09.885-.265,2.2A8.246,8.246,0,0,0,1737.381,1278.278Z" transform="translate(-1386.508 -941.436)" fill="url(#linear-gradient-32)"/>
      <path id="Trazado_130497" data-name="Trazado 130497" d="M1675.349,1030.385a82.586,82.586,0,0,1,2.774,12.7c2.175,15.813-2.445,16.318-1.59,33.842.265,5.592-4.848,18.491-5.3,18.777a5.5,5.5,0,0,1-.707.026,7.09,7.09,0,0,1-1.8-.3c-.813-.14-3.738-8.064-3.06-12.774.479-3.333.342-6.911.063-14.067-.045-1.16-3.012-22.557-3.012-22.557-.9,7.921-1.939,14.649-2.84,19.868-2.89,16.763-12.289,26.91-12.779,27.071a1.987,1.987,0,0,1-1.7-.114,1.172,1.172,0,0,1-.429-.485c-.265-.2.074-16.737,2.941-29.185,4.162-18.067,2.35-22.295,3.669-30.367C1652.723,1025.839,1675.349,1030.385,1675.349,1030.385Z" transform="translate(-1319.837 -761.222)" fill="url(#linear-gradient-33)"/>
      <path id="Trazado_130498" data-name="Trazado 130498" d="M1667.352,910.146c2.76-.082,9.11-1.06,12.607,2.09.061.056-.654.437-.3.85a22.713,22.713,0,0,1,2.469,3.544,23.739,23.739,0,0,1,2.077,5.134,44.136,44.136,0,0,1,1.637,8.954c.639,8.408,0,12.287-.569,14.925a29.1,29.1,0,0,1-16.6,2.437,25.827,25.827,0,0,1-8.276-2.726c1.99-6.024.427-9.248-.31-12.22-1.06-4.239-1.06-3.915-1.931-7.282-1.425-5.563-1.661-11.23-.681-12.39C1660.115,910.331,1664.878,910.22,1667.352,910.146Z" transform="translate(-1328.646 -673.753)" fill="#f5ca56"/>
      <path id="Trazado_130499" data-name="Trazado 130499" d="M1736.076,1288.892s-2.18-.188-2.35.265-.188,1.589,1.147,1.372S1736.245,1289.232,1736.076,1288.892Z" transform="translate(-1385.078 -952.289)" fill="url(#linear-gradient-34)"/>
      <path id="Trazado_130500" data-name="Trazado 130500" d="M1689.193,875.5a4.823,4.823,0,0,0-.517-3.444c-.731-1.351-.919-1.536-1.269-1.77l-.488-.3-.058-.024a5.543,5.543,0,0,0-1.589-.1c-.689.146-1.42,2.948-1.211,6.911-.029.151-.056.3-.085.456-.106.628-.193,1.24-.265,1.854a1.537,1.537,0,0,1-.985,1.266c-3.656,1.38-3.648.265-4.027,1.465-.207.646,3.945,1.69,5.99,1.454,4.594.034,8.331-.456,7.931-1.179-.18-.321-3.74-1.25-4.742-2.172a3.061,3.061,0,0,1-.917-2.342C1687.251,877.426,1688.856,876.69,1689.193,875.5Z" transform="translate(-1344.683 -644.28)" fill="url(#linear-gradient-35)"/>
      <path id="Trazado_130501" data-name="Trazado 130501" d="M1692.973,854.053a4.578,4.578,0,0,1-.877,2.75,2.066,2.066,0,0,0-.445.485.749.749,0,0,0-.069.146c-.265.773.962,1.682.723,2.029-.172.265-1.007-.085-1.107.133s.6.628.5.872c-.079.186-.509.016-.779.3-.133.141-.093.252-.236.684a3.983,3.983,0,0,1-.281.657c-.424.721-1.627.985-1.854.7-.064-.079,0-.148-.074-.419a2.139,2.139,0,0,0-.236-.53,5.543,5.543,0,0,0-1.454-1.144,4,4,0,0,1-1.518-1.73c-.032-.082-.053-.143-.066-.188a4.558,4.558,0,0,1,.114-3.052c.681-1.37,2.217-.72,3.476-2.077,1.452-1.566.588-3.709,1.375-3.942C1691.026,849.454,1692.981,851.783,1692.973,854.053Z" transform="translate(-1349.311 -629.472)" fill="#26264f"/>
      <path id="Trazado_130502" data-name="Trazado 130502" d="M1708.684,884.98c-.3-.413-.832-.024-.834.511s.53,1.091,1.02.985S1709.077,885.536,1708.684,884.98Z" transform="translate(-1366.116 -655.278)" fill="url(#linear-gradient-36)"/>
      <path id="Trazado_130503" data-name="Trazado 130503" d="M1665.03,987.077h0a.074.074,0,0,1-.069-.082,16.694,16.694,0,0,0-.819-6.959c-.132-.464-.265-.9-.365-1.343-.6-2.405-.858-3.335-1.134-4.318-.18-.638-.366-1.3-.654-2.405a.077.077,0,0,1,.146-.04c.289,1.1.474,1.764.654,2.405.265.983.53,1.913,1.134,4.321.109.437.233.874.366,1.338a16.983,16.983,0,0,1,.824,7.017.074.074,0,0,1-.082.066Z" transform="translate(-1332.405 -719.289)" fill="#9b305e"/>
      <path id="Trazado_130504" data-name="Trazado 130504" d="M1710,882.08l.7.909s.752,1.113,1.192.5c.358-.5.453-.487.474-.466h0s-.053-.249-.106-.464a4.042,4.042,0,0,1,.6,1.279,2.3,2.3,0,0,1,0,1.754,1.749,1.749,0,0,1-1.025.795,4.641,4.641,0,0,1-1.349-.133s1.192-.866,1.211-1.06c.048-.559-.726-.861-1.3-2.005A4.547,4.547,0,0,1,1710,882.08Z" transform="translate(-1367.697 -653.274)" fill="#26264f"/>
      <g id="Grupo_55992" data-name="Grupo 55992" transform="translate(0 30.204)">
        <path id="Trazado_130438" data-name="Trazado 130438" d="M1279.428,645.027l.141,2.543a1.5,1.5,0,0,1-1.517,1.454l-1.6.1a14.986,14.986,0,0,1-.848,3.594l1.367.564a1.238,1.238,0,0,1,.684,1.808l-1.379,2.311a1.782,1.782,0,0,1-2.157.649l-1.3-.531a19.358,19.358,0,0,1-2.922,2.866l.768.99a1.273,1.273,0,0,1-.484,1.9l-2.56,1.478a1.782,1.782,0,0,1-2.238-.335l-.747-.955a23.526,23.526,0,0,1-4.274,1.3l.066,1.154a1.559,1.559,0,0,1-1.56,1.492l-3.086.234a1.493,1.493,0,0,1-1.721-1.25l-.066-1.157a23.568,23.568,0,0,1-4.449-.67l-.649,1.068a1.87,1.87,0,0,1-2.241.674l-2.791-1.1a1.253,1.253,0,0,1-.719-1.848l.679-1.115a19.3,19.3,0,0,1-3.349-2.475l-1.292.726a1.9,1.9,0,0,1-2.342-.349l-1.719-2.161a1.279,1.279,0,0,1,.51-1.944l1.37-.766a14.8,14.8,0,0,1-1.311-3.552l-1.7.108a1.556,1.556,0,0,1-1.775-1.288l-.15-2.63a1.579,1.579,0,0,1,1.618-1.5l1.8-.11a15.138,15.138,0,0,1,1.009-3.6l-1.656-.674a1.275,1.275,0,0,1-.728-1.873l1.464-2.363a1.879,1.879,0,0,1,2.276-.635l1.731.7a19.908,19.908,0,0,1,2.96-2.681l-1.072-1.372a1.264,1.264,0,0,1,.506-1.927l2.653-1.442a1.886,1.886,0,0,1,2.3.393l1.089,1.405a23.9,23.9,0,0,1,4.053-1.108l-.094-1.688a1.522,1.522,0,0,1,1.571-1.456l3.1-.15a1.537,1.537,0,0,1,1.714,1.293l.094,1.679a23.647,23.647,0,0,1,4.1.691l.906-1.485a1.794,1.794,0,0,1,2.19-.611l2.709,1.152a1.269,1.269,0,0,1,.7,1.831l-.878,1.45a19.19,19.19,0,0,1,3.114,2.3l1.564-.873a1.77,1.77,0,0,1,2.215.379l1.625,2.129a1.246,1.246,0,0,1-.48,1.873l-1.484.836a14.9,14.9,0,0,1,1.335,3.367l1.7-.1A1.5,1.5,0,0,1,1279.428,645.027Zm-10.928,2.215c-.314-5.674-6.041-9.973-12.851-9.6-6.873.377-12.23,5.367-11.907,11.139s6.2,10.05,13.064,9.575C1263.6,657.885,1268.811,652.911,1268.5,647.242Z" transform="translate(-1074.231 -478.412)" fill="#d8dee8"/>
        <path id="Trazado_130447" data-name="Trazado 130447" d="M633.5,867.324a15.771,15.771,0,0,1-13.45-9.566l-32.782-78.727a13.764,13.764,0,0,1,7.556-18.159c7.226-2.9,18.5.515,21.543,7.76l33.625,79.58a13.462,13.462,0,0,1-7.945,18.29A33.1,33.1,0,0,1,633.5,867.324Z" transform="translate(-579.585 -579.505)" fill="#aee6e6"/>
        <path id="Trazado_130448" data-name="Trazado 130448" d="M594.855,760.842c7.226-2.9,18.5.515,21.543,7.76l30.745,72.763c-5.152-1.321-11.24-1.2-17.094-6.322-9.706-8.542-4.929-19.48-12.642-29.221-3.526-4.449-10.053-9.132-23.334-10.554L587.3,779a13.764,13.764,0,0,1,7.556-18.159Z" transform="translate(-579.607 -579.482)" fill="#26aab7" opacity="0.3"/>
        <path id="Trazado_130449" data-name="Trazado 130449" d="M497.772,696.923a6.233,6.233,0,0,1,.838.061l20.262-.234v52.686l-19.564-.267a6.29,6.29,0,0,1-1.536.194c-6.943,0-12.572-11.741-12.572-26.226S490.829,696.923,497.772,696.923Z" transform="translate(-502.255 -531.186)" fill="#aee6e6"/>
        <path id="Trazado_130450" data-name="Trazado 130450" d="M610.172,544.015c-7.676,17.541-7.676,35.021,0,52.686l150.711,48.455L762.437,497.3Z" transform="translate(-593.554 -378.439)" fill="#26aab7"/>
        <path id="Trazado_130451" data-name="Trazado 130451" d="M720.185,818.169c-14.328-5.428-18.782-26.226-35.419-26.929-13.052-.55-16.986,12.125-29.776,10.757-13.094-1.4-15.291-15.516-29.954-20.491-6.667-2.262-13.642-1.843-20.412.07a64.4,64.4,0,0,0,5.536,31.6L760.871,861.63l-8.917-50.2C737.094,820.1,727.133,820.8,720.185,818.169Z" transform="translate(-593.543 -594.92)" fill="#0d585f" opacity="0.2"/>
        <ellipse id="Elipse_4300" data-name="Elipse 4300" cx="36.66" cy="76.458" rx="36.66" ry="76.458" transform="translate(137.973 115.74)" fill="url(#linear-gradient-37)"/>
        <path id="Trazado_130452" data-name="Trazado 130452" d="M1202.688,642.785c4.3,0,8.523-1.8,12.556-5.36,4.1-3.618,7.814-8.854,11.029-15.56,6.76-14.1,10.483-32.9,10.483-52.944s-3.723-38.843-10.483-52.941c-3.215-6.706-6.927-11.942-11.029-15.562-4.032-3.555-8.257-5.358-12.556-5.358s-8.521,1.8-12.553,5.358c-4.1,3.62-7.814,8.856-11.029,15.562a98.239,98.239,0,0,0-6.838,19.9c-2.386,10.139,4.51,20.726,4.51,32.387,0,12.411-6.73,24.983-4.042,35.614a96.177,96.177,0,0,0,6.369,17.986c3.215,6.706,6.927,11.942,11.029,15.56C1194.167,640.982,1198.391,642.785,1202.688,642.785Z" transform="translate(-1028.055 -376.724)" fill="#1e818b"/>
        <g id="Grupo_55987" data-name="Grupo 55987" transform="translate(140.568 118.336)" clip-path="url(#clip-path-3)">
          <path id="Trazado_130453" data-name="Trazado 130453" d="M1133.368,700.965c0,19.37-12.827,34.752-28.427,34.358-15.356-.386-27.631-15.96-27.631-34.792s12.277-34.218,27.631-34.365C1120.541,666.014,1133.368,681.593,1133.368,700.965Z" transform="translate(-1096.284 -626.099)" fill="#12263f"/>
          <path id="Trazado_130454" data-name="Trazado 130454" d="M1216.845,728.932c0,14.384-6.25,25.807-13.848,25.523-7.493-.286-13.467-11.851-13.467-25.835s5.983-25.409,13.467-25.523C1210.6,702.98,1216.845,714.548,1216.845,728.932Z" transform="translate(-1182.227 -654.382)" fill="#3a277b" opacity="0.3"/>
        </g>
        <path id="Trazado_130505" data-name="Trazado 130505" d="M824.917,602a77.731,77.731,0,0,1,27.348,12.153c2.789,2,4.079,3.248,4.774,5.065,3.964,10.357-16.391,26.02-18.574,27.659l-2.845-6.638c2.107-11.551,5.62-15.176,8.54-16.253.822-.3,2.2-.625,2.171-1.014-.063-.918-7.8.391-15.192-2.313s-14.778-9.526-13.455-14.036C817.925,605.8,818.937,603.417,824.917,602Z" transform="translate(-756.765 -458.622)" fill="url(#linear-gradient-38)"/>
        <path id="Trazado_130506" data-name="Trazado 130506" d="M900.41,925.3s-1.246.443-1.25,1.428,1.262,5.325,2.639,6.868,1.5-.759,1.4-2.241a27.481,27.481,0,0,0-.784-5.442C902.08,925.271,900.41,925.3,900.41,925.3Z" transform="translate(-819.281 -706.218)" fill="url(#linear-gradient-39)"/>
        <path id="Trazado_130507" data-name="Trazado 130507" d="M842,636.351c2.433-.047,8.13-.5,9.647,2.316,1.265,2.342-.953,5.91-2.316,8.1-3.707,5.955-7.306,6.557-9.835,10.223a12.861,12.861,0,0,0-2.152,6.222q-.808-1.873-1.613-3.761c2.107-11.551,5.62-15.176,8.54-16.253.822-.3,2.2-.625,2.171-1.014-.063-.918-7.8.391-15.192-2.314-6.72-2.459-13.445-8.343-13.581-12.783C828.3,634.721,836.312,636.463,842,636.351Z" transform="translate(-756.873 -477.837)" opacity="0.3" fill="url(#linear-gradient-40)"/>
        <path id="Trazado_130508" data-name="Trazado 130508" d="M901.43,907.42c.073,1.517.2,2.786.318,3.73a12.429,12.429,0,0,0,.817,3.662c.281.656.988,2.084,1.325,1.983s-.012-1.681-.276-6.088c-.04-.639-.157-2.674-.157-2.674Z" transform="translate(-821.02 -692.525)" fill="url(#linear-gradient-41)"/>
        <path id="Trazado_130509" data-name="Trazado 130509" d="M767.835,604.019a60.119,60.119,0,0,1,15.626,13.5c3.435,4.215,8.664,10.622,10.554,20.18,1.009,5.093.513,9.664-.522,18.595a187.426,187.426,0,0,1-3.648,21.025l-1.78.7a38.136,38.136,0,0,1-4.409-13.443c-1.22-9.664,2.4-12.736.66-19.588-1.5-5.938-5.854-9.577-14.57-16.86-7.156-5.98-13.757-9.53-16.206-16.991a5.693,5.693,0,0,1-.091-4.245C754.909,603.846,760.5,602.776,767.835,604.019Z" transform="translate(-707.399 -459.78)" fill="url(#linear-gradient-42)"/>
        <path id="Trazado_130510" data-name="Trazado 130510" d="M959.84,262.042l3.784-1.611a1.037,1.037,0,0,1,1.4.653l2.962,9.694a1.037,1.037,0,0,1-.588,1.257l-3.662,1.557a1.04,1.04,0,0,1-1.405-.637l-3.077-9.647A1.035,1.035,0,0,1,959.84,262.042Z" transform="translate(-865.27 -196.971)" fill="url(#linear-gradient-43)"/>
        <path id="Trazado_130511" data-name="Trazado 130511" d="M965.187,272.485c-.524-1.848.492-3.449-.534-5.339a4.493,4.493,0,0,0-1.152-1.356l-1.538.656a.967.967,0,0,0-.543,1.185l2.878,9.015a.972.972,0,0,0,1.3.6l3-1.279C966.364,274.826,965.5,273.566,965.187,272.485Z" transform="translate(-866.927 -201.14)" fill="#f4f7fa" opacity="0.3"/>
        <path id="Trazado_130512" data-name="Trazado 130512" d="M982.84,294.728a4.851,4.851,0,0,1-.5-2.033c0-.044.019-.218.031-.468a7.512,7.512,0,0,0,0-.9,12.706,12.706,0,0,0-.129-2.107c-.112-.571-.274-1.4-.576-1.431-.405-.037-1,1.117-1.253,2.2-.333,1.4.084,1.962-.318,2.941a3.591,3.591,0,0,1-1.583,1.684,1.431,1.431,0,0,0,.618.286c.312.061.489-.023.969.042a3.55,3.55,0,0,1,.354.07A5.631,5.631,0,0,0,982.84,294.728Z" transform="translate(-880.051 -217.986)" fill="url(#linear-gradient-44)"/>
        <path id="Trazado_130513" data-name="Trazado 130513" d="M825.657,315.57c-1.068,0-2,.768-3.065.768-.974,6.992-2.733,9.383-4.936,11.584-7.111,7.107-16.511,4.266-31.408,10.357a64.33,64.33,0,0,0-13.188,7.32c2.969,3.606,9.01,9.624,17.923,11.022,15.752,2.468,31.094-10.97,35.281-25.4C828.245,324.393,826.395,319.017,825.657,315.57Z" transform="translate(-722.709 -239.263)" fill="#f5ca56"/>
        <path id="Trazado_130514" data-name="Trazado 130514" d="M824.974,393.057c1.033-1.072,1.182-2.079,3.512-5.273a17.412,17.412,0,0,1,2.173-2.438c5.948-5.62,10.891-4.372,15.031-8.685a12.56,12.56,0,0,0,2.107-2.981c-.145.672-.311,1.353-.51,2.047-4.187,14.427-19.529,27.865-35.281,25.4a26.531,26.531,0,0,1-11.516-4.917,26.634,26.634,0,0,1,8.245-2.477C816.86,392.722,822.1,396.04,824.974,393.057Z" transform="translate(-743.716 -283.766)" opacity="0.3" fill="url(#linear-gradient-45)"/>
        <path id="Trazado_130515" data-name="Trazado 130515" d="M492.413,275.468c2.288.351,5.728,1.766,10.036.419,1.3-.405,5.892-1.841,6.98-5.988.96-3.648-1.639-6.791-1.967-7.179-1.859-2.189-4.313-2.8-7.048-3.433-3.55-.824-5.02-.33-7.6-.59-6.393-.649-7.111-4.657-13.052-6.606-7.594-2.494-10.341,2.77-16.668.515-7.1-2.531-5.826-9.943-12.338-13.762-9.039-5.3-27.61-.468-31.883,11.619-2.468,6.985-.34,16.881,5.337,21.777,3.306,2.85,7.615,3.981,7.847,6.934.164,2.1-2.248,2.742-3.25,5.906-1.29,4.074,1.077,8.184,1.459,8.847,3.55,6.158,15.9,8.43,26.043,5.505C474.6,294.147,479.979,273.56,492.413,275.468Z" transform="translate(-450.679 -178.869)" fill="#3a277b"/>
        <path id="Trazado_130516" data-name="Trazado 130516" d="M653.7,401.311a161.628,161.628,0,0,1,17.562-1.7c14.106-.6,13.729.03,16.337-.59,2.407-.574-1.316,6.749-2.894,13.422a35.782,35.782,0,0,0-.328,14.485c.567,3.241,1.545,5.76,3.512,10.8,3.4,8.758,5.241,10.61,4.138,13.143-1.606,3.693-7.542,4.4-8.587,4.508-5.287.527-6.861-2.388-11.359-2.217-5.226.2-5.842,4.236-12.607,7.9-7.985,4.323-18.967,5.126-24.859.234-2.274-1.894-3.981-4.723-3.278-5.8.951-1.461,5.47,1.667,9.477-.436,2.653-1.393,2.082-3.512,5.121-6.1,3.658-3.124,6.306-1.618,8.8-3.655,3.887-3.175,1.873-10.458.4-22.714A205.461,205.461,0,0,1,653.7,401.311Z" transform="translate(-614.05 -303.145)" fill="#f5ca56"/>
        <path id="Trazado_130517" data-name="Trazado 130517" d="M584.945,408.22c-7.353,1.461-8.856,9.565-16.363,12.235-4.547,1.618-11.724,1.391-23.208-6.866L541.4,416.2c2.763,8.535,7.554,12.841,9.854,14.614,13.146,10.123,34.693,6.557,44.884-5.315a28.165,28.165,0,0,0,5.505-10.16C597.271,411.283,591.126,406.991,584.945,408.22Z" transform="translate(-545.295 -310.054)" fill="#f5ca56"/>
        <path id="Trazado_130518" data-name="Trazado 130518" d="M763.934,371.94s-.485,5.07-2.316,6.28-4.854,1.246-5.173,1.665,9.664,3.852,15.455.714l2.4-1.8c-1.937.063-4.428,0-5.428-.536a8.474,8.474,0,0,1-2.81-2.456l-.059-2.8Z" transform="translate(-709.98 -282.434)" fill="url(#linear-gradient-46)"/>
        <path id="Trazado_130519" data-name="Trazado 130519" d="M783.631,364.26a2.791,2.791,0,0,0,3.149.885c1.688-.672.543-5.051-.824-5.515a2.4,2.4,0,0,0-1.826.3,2.654,2.654,0,0,0-.749,3.009c-.435-.112-.81.012-.9.234-.112.274.262.632.347.7A1.442,1.442,0,0,0,783.631,364.26Z" transform="translate(-729.909 -272.957)" fill="url(#linear-gradient-47)"/>
        <path id="Trazado_130520" data-name="Trazado 130520" d="M542.627,408.049l-.9-1.271s2.7-6.367-.363-6.87-1.99,1.044-1.541,1.791.3,3.423-.089,4.292.878,3.372.878,3.372Z" transform="translate(-543.663 -303.776)" fill="url(#linear-gradient-48)"/>
        <path id="Trazado_130521" data-name="Trazado 130521" d="M612.5,510.618c1.658-1.529.021-3.8,1.815-6.1,1.639-2.107,3.892-1.332,7.163-2.81a15.133,15.133,0,0,0,7.65-8.718c.733-2.232.447-3.58-2.091-14.078-2.419-10-3.044-12.432-4.4-12.567-2.459-.234-3.473,7.514-8.114,8.2-2.62.391-3.327-1.932-6.814-2.681-5.91-1.269-9.188,4.278-15.2,4.985a11.979,11.979,0,0,1-5.751-.822c9.868,7.048,24.044,6.8,34.754,1.353,1.379,10.322,2.723,16.611-.81,19.5-2.494,2.037-5.152.532-8.8,3.655-3.044,2.6-2.468,4.711-5.121,6.1-4.006,2.107-8.526-1.026-9.477.436-.632.974.7,3.384,2.662,5.236a10.536,10.536,0,0,1,3.068-1.25C607.406,510.047,610.541,512.424,612.5,510.618Z" transform="translate(-580.034 -354.727)" opacity="0.3" fill="url(#linear-gradient-49)"/>
      </g>
    </g>
  </g>
</svg>
