<svg xmlns="http://www.w3.org/2000/svg" width="81" height="81" viewBox="0 0 81 81">
  <g id="Grupo_56217" data-name="Grupo 56217" transform="translate(-858.25 -5093.199)">
    <g id="Grupo_56038" data-name="Grupo 56038" transform="translate(858.25 5093.199)">
      <path id="Trazado_130522" data-name="Trazado 130522" d="M40.5,0A40.5,40.5,0,1,1,0,40.5,40.5,40.5,0,0,1,40.5,0Z" fill="#aee6e6"/>
    </g>
    <g id="user-experience" transform="translate(868.18 5103.868)">
      <path id="Trazado_132679" data-name="Trazado 132679" d="M57.812,30.742a42.727,42.727,0,0,0,3.018-7.724c2.216-8,1.143-14.7-3.022-18.867S46.944-1.087,38.941,1.129a42.761,42.761,0,0,0-7.724,3.018A40.979,40.979,0,0,0,21.7.681C14.514-.895,8.454.338,4.641,4.151A14.988,14.988,0,0,0,.537,14.1,30.39,30.39,0,0,0,2.676,26.254a5.7,5.7,0,0,0,0,8.963A30.391,30.391,0,0,0,.537,47.374a14.99,14.99,0,0,0,4.1,9.945c2.733,2.733,6.568,4.143,11.2,4.143a25.194,25.194,0,0,0,2.884-.171,37.859,37.859,0,0,0,12.5-3.965,42.738,42.738,0,0,0,7.718,3.015,28.886,28.886,0,0,0,7.669,1.127c4.6,0,8.451-1.4,11.2-4.149,3.813-3.813,5.046-9.872,3.47-17.062a40.985,40.985,0,0,0-3.466-9.514ZM39.423,2.868C46.771.833,52.848,1.742,56.533,5.427s4.594,9.762,2.559,17.11a40,40,0,0,1-2.326,6.23,59.058,59.058,0,0,0-6.376-9.185,5.7,5.7,0,0,0,.016-7.023l-1.424,1.107a3.869,3.869,0,0,1,.821,2.4A3.906,3.906,0,1,1,47.89,12.7l.922-1.55a5.7,5.7,0,0,0-6.434.418,59.12,59.12,0,0,0-9.185-6.376,40.045,40.045,0,0,1,6.23-2.326ZM5.917,5.427C10.793.55,19.735.732,29.25,5.188A61.445,61.445,0,0,0,15.893,15.4,63.133,63.133,0,0,0,7.82,25.251a5.761,5.761,0,0,0-1.608-.228,5.7,5.7,0,0,0-1.944.341C1.143,16.846,1.728,9.614,5.917,5.427Zm9.971,54.224c-4.08,0-7.549-1.186-9.971-3.608C1.729,51.855,1.143,44.624,4.268,36.106a5.7,5.7,0,0,0,3.55.109,63.094,63.094,0,0,0,8.075,9.851A61.453,61.453,0,0,0,29.246,56.279a32.229,32.229,0,0,1-13.358,3.372ZM31.22,55.3A58.907,58.907,0,0,1,17.169,44.791a61.4,61.4,0,0,1-7.707-9.362,5.709,5.709,0,0,0,2.462-4.694c0-.169-.007-.34-.022-.509l-1.8.159c.01.115.015.233.015.349a3.9,3.9,0,1,1-.412-1.75l1.612-.808a5.718,5.718,0,0,0-1.855-2.143,61.435,61.435,0,0,1,7.7-9.356A58.892,58.892,0,0,1,31.224,6.169a56.567,56.567,0,0,1,9.924,6.723,5.709,5.709,0,0,0,7.92,7.919,56.58,56.58,0,0,1,6.722,9.924A58.913,58.913,0,0,1,45.281,44.791c-.481.48-.974.958-1.473,1.425a5.7,5.7,0,0,0-7.188-.151l1.108,1.424a3.872,3.872,0,0,1,2.4-.821,3.906,3.906,0,1,1-3.362,1.915l-1.55-.922A5.707,5.707,0,0,0,35,53.1q-1.9,1.21-3.78,2.2Zm25.313.745c-3.685,3.685-9.762,4.594-17.11,2.56A40.035,40.035,0,0,1,33.2,56.278q1.425-.8,2.848-1.707a5.709,5.709,0,0,0,8.941-6.987c.532-.5,1.058-1.006,1.57-1.518A61.46,61.46,0,0,0,56.772,32.709c4.456,9.515,4.638,18.457-.239,23.334Zm0,0" transform="translate(0 0)" fill="#0d585f"/>
      <path id="Trazado_132680" data-name="Trazado 132680" d="M256.238,267.114h-1.864V262.57a4.527,4.527,0,0,0-3.285-4.341l-.674-.19-.49,1.736.674.19a2.716,2.716,0,0,1,1.971,2.6v4.545h-3.247v-2.465h-1.8v2.465H239.4v1.8h16.836Zm0,0" transform="translate(-210.222 -227.06)" fill="#0d585f"/>
      <path id="Trazado_132681" data-name="Trazado 132681" d="M151,125.535l3.759,1.061.49-1.737-3.685-1.039v-2.4a6.312,6.312,0,0,0,2.766-5.219V113.56a6.313,6.313,0,0,0-12.627,0v2.646a6.312,6.312,0,0,0,2.766,5.219v2.4l-6.094,1.719a4.527,4.527,0,0,0-3.285,4.341v4.545h-1.864v1.8h10.943v-1.8h-2.225v-2.465h-1.8v2.465h-3.247V129.88a2.716,2.716,0,0,1,1.971-2.6l6.169-1.74a4.045,4.045,0,0,0,5.966,0Zm-2.983-16.485a4.515,4.515,0,0,1,4.509,4.51v1l-1.9-2.508h-6.864A4.516,4.516,0,0,1,148.018,109.05Zm-4.509,7.155v-2.345h6.225l2.644,3.5a4.509,4.509,0,0,1-8.869-1.152Zm2.766,8.006v-1.94a6.274,6.274,0,0,0,3.487,0v1.94a2.242,2.242,0,0,1-3.487,0Zm0,0" transform="translate(-116.793 -94.37)" fill="#0d585f"/>
      <path id="Trazado_132682" data-name="Trazado 132682" d="M277.49,277.019l-2.541-.717.49-1.736,2.54.717Zm0,0" transform="translate(-241.501 -241.603)" fill="#0d585f"/>
      <path id="Trazado_132683" data-name="Trazado 132683" d="M312.781,285.075l-.49,1.736-1.736-.49.49-1.736Zm0,0" transform="translate(-272.833 -250.419)" fill="#0d585f"/>
      <path id="Trazado_132684" data-name="Trazado 132684" d="M371.129,126.281h1.8v1.8h-1.8Zm0,0" transform="translate(-326.135 -111.119)" fill="#0d585f"/>
      <path id="Trazado_132685" data-name="Trazado 132685" d="M323.047,413.77h1.8v1.8h-1.8Zm0,0" transform="translate(-283.825 -364.095)" fill="#0d585f"/>
      <path id="Trazado_132686" data-name="Trazado 132686" d="M40.566,248.488h1.8v1.8h-1.8Zm0,0" transform="translate(-35.256 -218.655)" fill="#0d585f"/>
    </g>
  </g>
</svg>
