<svg xmlns="http://www.w3.org/2000/svg" width="81" height="81" viewBox="0 0 81 81">
  <g id="Grupo_56203" data-name="Grupo 56203" transform="translate(-455.75 -4649)">
    <g id="Grupo_55846" data-name="Grupo 55846" transform="translate(-16 3746)">
      <circle id="Elipse_4123" data-name="Elipse 4123" cx="40.5" cy="40.5" r="40.5" transform="translate(471.75 903)" fill="#aee6e6"/>
    </g>
    <g id="Content_maketing" data-name="Content maketing" transform="translate(389.476 5123.956)">
      <path id="Trazado_131783" data-name="Trazado 131783" d="M63.565,61.768a3.8,3.8,0,0,0,3.8-3.8V23.8a3.8,3.8,0,0,0-3.8-3.8H58.318a3.8,3.8,0,0,0-1.7.4L38.436,29.493H29.788A11.657,11.657,0,0,0,18.1,39.386,11.4,11.4,0,0,0,29.391,52.275v9.269a5.849,5.849,0,0,0,4.556,5.81,5.705,5.705,0,0,0,6.835-5.585V53.448l15.836,7.919a3.8,3.8,0,0,0,1.7.4Zm0-3.8h-3.8V23.8h3.8ZM21.8,40.884a7.594,7.594,0,0,1,7.594-7.594h7.594V48.478H29.391A7.594,7.594,0,0,1,21.8,40.884ZM36.986,61.768a1.9,1.9,0,1,1-3.8,0V52.275h3.8Zm3.8-13.29V32.565L55.971,24.97V56.8Z" transform="translate(60.274 -476.464)" fill="#0d585f"/>
    </g>
  </g>
</svg>
