<svg xmlns="http://www.w3.org/2000/svg" width="81" height="81" viewBox="0 0 81 81">
  <g id="Grupo_56218" data-name="Grupo 56218" transform="translate(-1056.75 -5093.199)">
    <g id="Grupo_55659" data-name="Grupo 55659" transform="translate(1056.75 5093.199)">
      <circle id="Elipse_4085" data-name="Elipse 4085" cx="40.5" cy="40.5" r="40.5" fill="rgba(125,110,178,0.6)"/>
    </g>
    <g id="volunteer" transform="translate(1039.543 5097.332)">
      <circle id="Elipse_4379" data-name="Elipse 4379" cx="1.328" cy="1.328" r="1.328" transform="translate(52.729 58.832)" fill="#3a277b"/>
      <circle id="Elipse_4380" data-name="Elipse 4380" cx="1.331" cy="1.331" r="1.331" transform="translate(48.141 18.626)" fill="#3a277b"/>
      <circle id="Elipse_4381" data-name="Elipse 4381" cx="1.331" cy="1.331" r="1.331" transform="translate(57.212 18.626)" fill="#3a277b"/>
      <path id="Trazado_132687" data-name="Trazado 132687" d="M176.64,190.047a1.331,1.331,0,0,0-1.882,0,4.586,4.586,0,0,1-6.478,0,1.331,1.331,0,1,0-1.882,1.882,7.242,7.242,0,0,0,10.242,0A1.331,1.331,0,0,0,176.64,190.047Z" transform="translate(-117.512 -164.467)" fill="#3a277b"/>
      <path id="Trazado_132688" data-name="Trazado 132688" d="M87.861,44.761l-.216-.216A8.676,8.676,0,0,0,77.2,43.152a12.957,12.957,0,0,0-12.547-9.715H62.191a15.107,15.107,0,0,0,6.672-9.189h.274a4.291,4.291,0,0,0,.171-8.579v-.524a15.145,15.145,0,0,0-30.291,0v.522a4.291,4.291,0,0,0,.116,8.581h.329a15.107,15.107,0,0,0,6.672,9.189H43.457A12.974,12.974,0,0,0,30.5,46.4V60.2a1.331,1.331,0,0,0,1.331,1.331H48.046a1.331,1.331,0,1,0,0-2.662H43.862V53.8a1.331,1.331,0,1,0-2.662,0v5.078H33.16V46.4a10.309,10.309,0,0,1,10.3-10.3H46.74a7.77,7.77,0,0,0,15.17,0h2.746a10.3,10.3,0,0,1,9.609,6.588,8.682,8.682,0,0,0-9.329,1.93l-.144.144a8.669,8.669,0,0,0,0,12.259l1.853,1.853H60.068a1.331,1.331,0,0,0,0,2.662h9.24l6.078,6.078a1.331,1.331,0,0,0,1.882,0L87.861,57.021a8.67,8.67,0,0,0,0-12.259Zm-33.7-42.1a12.5,12.5,0,0,1,12.279,10.23c-4.379,1.454-7.806-2.187-7.954-2.349a1.33,1.33,0,0,0-1.749-.194,19.3,19.3,0,0,1-6.076,3.078,13.356,13.356,0,0,1-8.74-.738A12.5,12.5,0,0,1,54.163,2.662ZM41.855,22.7a1.331,1.331,0,0,0-1.312-1.109h-1.41a1.629,1.629,0,0,1,0-3.259h1.215A1.331,1.331,0,0,0,41.679,17V15.448a16.858,16.858,0,0,0,5.77,1.058A15.194,15.194,0,0,0,51.342,16a19.908,19.908,0,0,0,6.035-2.862,12.828,12.828,0,0,0,2.512,1.657,9.557,9.557,0,0,0,6.758.81V17a1.331,1.331,0,0,0,1.331,1.331h1.16a1.629,1.629,0,0,1,0,3.259H67.783A1.331,1.331,0,0,0,66.47,22.7a12.485,12.485,0,0,1-24.615,0ZM54.326,39.522a5.117,5.117,0,0,1-5.085-4.6A15.1,15.1,0,0,0,59.419,34.8,5.116,5.116,0,0,1,54.326,39.522ZM85.979,55.138,76.327,64.79l-9.652-9.652a6.006,6.006,0,0,1,0-8.495l.144-.144a6.007,6.007,0,0,1,8.495,0,1.359,1.359,0,0,0,1.954-.072,6.007,6.007,0,0,1,8.495,0l.216.216a6.007,6.007,0,0,1,0,8.495Z" fill="#3a277b"/>
    </g>
  </g>
</svg>
