<svg xmlns="http://www.w3.org/2000/svg" width="81" height="81" viewBox="0 0 81 81">
  <g id="Grupo_56176" data-name="Grupo 56176" transform="translate(-760 -896)">
    <g id="Grupo_56174" data-name="Grupo 56174">
      <g id="Grupo_56164" data-name="Grupo 56164" transform="translate(760 896)">
        <g id="Grupo_55846" data-name="Grupo 55846">
          <circle id="Elipse_4123" data-name="Elipse 4123" cx="40.5" cy="40.5" r="40.5" fill="#6a5d99"/>
        </g>
      </g>
      <g id="shopping" transform="translate(769 905)">
        <circle id="Elipse_4384" data-name="Elipse 4384" cx="1" cy="1" r="1" transform="translate(27 13)" fill="#fff"/>
        <circle id="Elipse_4385" data-name="Elipse 4385" cx="1" cy="1" r="1" transform="translate(35 13)" fill="#fff"/>
        <path id="Trazado_132892" data-name="Trazado 132892" d="M32,23a5.006,5.006,0,0,0,5-5V17H27v1A5.006,5.006,0,0,0,32,23Zm2.829-4a3,3,0,0,1-5.658,0Z" fill="#fff"/>
        <path id="Trazado_132893" data-name="Trazado 132893" d="M61.1,38.752A2,2,0,0,0,59.117,37H59V36h1a3,3,0,0,0,0-6H59a2,2,0,0,0-2-2H55a2,2,0,0,0-2,2h-.2a5.014,5.014,0,0,0-4.7,3.291l-.774,2.129-.994-1.988a7.984,7.984,0,0,0-4.894-4.084A12.77,12.77,0,0,0,45,20.48V12A11.013,11.013,0,0,0,34,1H30A11.013,11.013,0,0,0,19,12v8.48a12.876,12.876,0,0,0,3.562,8.867,7.985,7.985,0,0,0-4.9,4.085l-.994,1.988L15.9,33.291A5.014,5.014,0,0,0,11.2,30H11a2,2,0,0,0-2-2H7a2,2,0,0,0-2,2H4a3,3,0,0,0,0,6H5v1H4.883A2,2,0,0,0,2.9,38.752L1.022,53.758A2.886,2.886,0,0,0,3.883,57H12a2.887,2.887,0,0,0,2.883-2.883,2.816,2.816,0,0,0-.022-.357l-.641-5.128a7.095,7.095,0,0,0,7.289-1.727l.539-.538.871,5.225a22.369,22.369,0,0,0-6.867,10.092L15.612,63H48.387l-.439-1.316a22.419,22.419,0,0,0-6.867-10.09l.871-5.227.539.539a7.1,7.1,0,0,0,7.29,1.726l-.641,5.125A2.887,2.887,0,0,0,52,57h8.117A2.886,2.886,0,0,0,63,54.117a2.817,2.817,0,0,0-.022-.357ZM55,39V50.538l-3.851,3.273L53,39Zm1.006,13.307L59.237,55h-6.4Zm4.966,1.535L57,50.532V39h2.117ZM60,32a1,1,0,0,1,0,2H59V32Zm-3-2v7H55V30ZM21,12a9.01,9.01,0,0,1,9-9h4a9.01,9.01,0,0,1,9,9v8.48a10.794,10.794,0,0,1-3.846,8.278l-2.33-.582-.563-2.252A9.006,9.006,0,0,0,41,18V13.071a5.955,5.955,0,0,0-1.143-3.513l.851-.851L39.293,7.293l-.964.965A2.536,2.536,0,0,1,34,6.465V5H32V6.465a4.484,4.484,0,0,0,.635,2.275A2.52,2.52,0,0,1,29,6.465V5H27V6.465a4.5,4.5,0,0,0,.091.9l-.072.014A5.013,5.013,0,0,0,23,12.279V18a9.007,9.007,0,0,0,4.738,7.924l-.646,2.583.966.966a3.213,3.213,0,0,1-.489,4.946L27,34.8l-.219-.146A3.994,3.994,0,0,1,25,31.322l0-2.406-.335-.3A10.885,10.885,0,0,1,21,20.48Zm6.964-2.773a4.5,4.5,0,0,0,6.077,1.019,4.488,4.488,0,0,0,4.149.436A3.96,3.96,0,0,1,39,13.071V18a7,7,0,0,1-14,0V12.279a3.007,3.007,0,0,1,2.411-2.942Zm1.509,18.832-.166-.165.306-1.225a8.769,8.769,0,0,0,4.773,0L35,29.123V32a1,1,0,0,1-1,1H30.846a5.207,5.207,0,0,0-1.373-4.941Zm.067,15.174a2.136,2.136,0,0,1,1.234,2.982l-.281.563-.033-.011a2.136,2.136,0,0,1-1.234-2.982l.281-.563Zm-.766-3.018-.281.563-.033-.011a2.136,2.136,0,0,1-1.234-2.982l.281-.563.033.011a2.136,2.136,0,0,1,1.234,2.982Zm-9.319-5.888A5.989,5.989,0,0,1,23,31.3v.022a5.989,5.989,0,0,0,2.672,4.992l.039.026-.274.548A4.12,4.12,0,0,0,27.6,42.566l-.162.324a4.136,4.136,0,0,0,2.391,5.774l1.679.559,1.057-2.113A4.171,4.171,0,0,0,33,45.26a4.121,4.121,0,0,0-2.6-3.826l.162-.324a4.118,4.118,0,0,0-1.485-5.33,5.2,5.2,0,0,0,.779-.791c.048,0,.095.011.143.011h4a3,3,0,0,0,3-3V30.28l3.634.908a6,6,0,0,1,3.912,3.139l1.674,3.348-3.286,1.408C42.973,38.389,43,37.694,43,37H41a35.375,35.375,0,0,1-.479,5.8L39.153,51H24.847L23.479,42.8A35.375,35.375,0,0,1,23,37H21c0,.694.027,1.389.066,2.083L17.78,37.675ZM7.994,52.307,11.162,55h-6.4ZM9,50.538V39h2l1.851,14.812ZM4,34a1,1,0,0,1,0-2H5v2Zm3-4H9v7H7ZM4.883,39H7V50.532l-3.972,3.31Zm15.212,6.491A5.12,5.12,0,0,1,16.452,47a5.179,5.179,0,0,1-2.3-.544l-.214-.107-.95-7.6A2,2,0,0,0,11,37V32h.2a3.008,3.008,0,0,1,2.819,1.975l3.042,8.367,1.88-.684-.564-1.552,2.883,1.235c.07.6.15,1.191.248,1.781l.137.82ZM45.562,61H18.438a20.447,20.447,0,0,1,5.929-8H39.636A20.358,20.358,0,0,1,45.562,61Zm4.29-14.544a5.179,5.179,0,0,1-2.3.544A5.122,5.122,0,0,1,43.9,45.491l-1.549-1.549.137-.82c.1-.59.178-1.185.248-1.781l2.883-1.235-.564,1.552,1.88.684,3.042-8.367A3.011,3.011,0,0,1,52.8,32H53v5a2,2,0,0,0-1.984,1.752l-.95,7.6Z" fill="#fff"/>
      </g>
    </g>
  </g>
</svg>
