<svg xmlns="http://www.w3.org/2000/svg" width="81" height="81" viewBox="0 0 81 81">
  <g id="Grupo_56213" data-name="Grupo 56213" transform="translate(-760 -2998)">
    <g id="Grupo_56164" data-name="Grupo 56164" transform="translate(760 2998)">
      <g id="Grupo_55846" data-name="Grupo 55846">
        <circle id="Elipse_4123" data-name="Elipse 4123" cx="40.5" cy="40.5" r="40.5" fill="#6a5d99"/>
      </g>
    </g>
    <g id="personality" transform="translate(771 3011)">
      <path id="Trazado_132894" data-name="Trazado 132894" d="M35.653,44.861a8.213,8.213,0,0,0,2.612-3.667h.478a3.627,3.627,0,0,0,1.819-6.772V30.277A7.286,7.286,0,0,0,33.284,23H27.826a7.286,7.286,0,0,0-7.277,7.277v4.145a3.627,3.627,0,0,0,1.819,6.772h.478a8.218,8.218,0,0,0,2.612,3.667A10.01,10.01,0,0,0,16,54.839v3.639a.909.909,0,0,0,.91.91H44.2a.909.909,0,0,0,.91-.91V54.839A10.01,10.01,0,0,0,35.653,44.861Zm-2.536,1.791a2.713,2.713,0,0,1-5.123,0Zm5.625-7.277h-.054a8.128,8.128,0,0,0,.054-.91V35.736a1.819,1.819,0,0,1,0,3.639Zm-16.374-9.1a5.464,5.464,0,0,1,5.458-5.458h5.458a5.464,5.464,0,0,1,5.458,5.458v3.639H35.1A1.821,1.821,0,0,1,33.284,32.1V28.458H31.465v.91a4.554,4.554,0,0,1-4.548,4.548H22.368Zm0,9.1a1.819,1.819,0,1,1,0-3.639v2.729a8.128,8.128,0,0,0,.054.91Zm1.819-.91V35.736h2.729A6.353,6.353,0,0,0,31.748,33.5,3.643,3.643,0,0,0,35.1,35.736h1.819v2.729a6.368,6.368,0,0,1-12.736,0Zm19.1,19.1H39.652V52.11H37.832v5.458H23.277V52.11H21.458v5.458H17.819V54.839a8.2,8.2,0,0,1,8.187-8.187H26.1a4.548,4.548,0,0,0,8.913,0H35.1a8.2,8.2,0,0,1,8.187,8.187Z" transform="translate(-1.355 -1.987)" fill="#fff"/>
      <path id="Trazado_132895" data-name="Trazado 132895" d="M24.652,12.826A11.826,11.826,0,1,0,12.826,24.652,11.84,11.84,0,0,0,24.652,12.826Zm-21.832,0A10.007,10.007,0,1,1,12.826,22.832,10.018,10.018,0,0,1,2.819,12.826Z" fill="#fff"/>
      <path id="Trazado_132896" data-name="Trazado 132896" d="M10.458,12.639h1.819a3.639,3.639,0,1,0-7.277,0H6.819a1.819,1.819,0,0,1,3.639,0Z" transform="translate(-0.361 -0.723)" fill="#fff"/>
      <path id="Trazado_132897" data-name="Trazado 132897" d="M18.639,10.819a1.821,1.821,0,0,1,1.819,1.819h1.819a3.639,3.639,0,0,0-7.277,0h1.819A1.821,1.821,0,0,1,18.639,10.819Z" transform="translate(-1.264 -0.723)" fill="#fff"/>
      <path id="Trazado_132898" data-name="Trazado 132898" d="M17.277,17H15.458a1.819,1.819,0,1,1-3.639,0H10a3.639,3.639,0,1,0,7.277,0Z" transform="translate(-0.813 -1.445)" fill="#fff"/>
      <path id="Trazado_132899" data-name="Trazado 132899" d="M48.826,1A11.826,11.826,0,1,0,60.652,12.826,11.84,11.84,0,0,0,48.826,1Zm0,21.832A10.007,10.007,0,1,1,58.832,12.826,10.018,10.018,0,0,1,48.826,22.832Z" transform="translate(-3.251)" fill="#fff"/>
      <path id="Trazado_132900" data-name="Trazado 132900" d="M48.277,10H46.458a1.819,1.819,0,0,1-3.639,0H41a3.639,3.639,0,1,0,7.277,0Z" transform="translate(-3.613 -0.813)" fill="#fff"/>
      <path id="Trazado_132901" data-name="Trazado 132901" d="M56.458,10a1.819,1.819,0,1,1-3.639,0H51a3.639,3.639,0,1,0,7.277,0Z" transform="translate(-4.516 -0.813)" fill="#fff"/>
      <path id="Trazado_132902" data-name="Trazado 132902" d="M49.639,16A3.642,3.642,0,0,0,46,19.639h1.819a1.819,1.819,0,1,1,3.639,0h1.819A3.642,3.642,0,0,0,49.639,16Z" transform="translate(-4.064 -1.355)" fill="#fff"/>
      <path id="Trazado_132903" data-name="Trazado 132903" d="M49.729,36a2.729,2.729,0,1,0,2.729,2.729A2.732,2.732,0,0,0,49.729,36Zm0,3.639a.91.91,0,1,1,.91-.91A.91.91,0,0,1,49.729,39.639Z" transform="translate(-4.155 -3.161)" fill="#fff"/>
      <path id="Trazado_132904" data-name="Trazado 132904" d="M53.639,28a3.639,3.639,0,1,0,3.639,3.639A3.642,3.642,0,0,0,53.639,28Zm0,5.458a1.819,1.819,0,1,1,1.819-1.819A1.821,1.821,0,0,1,53.639,33.458Z" transform="translate(-4.425 -2.439)" fill="#fff"/>
      <path id="Trazado_132905" data-name="Trazado 132905" d="M16.458,38.729a2.729,2.729,0,1,0-2.729,2.729A2.732,2.732,0,0,0,16.458,38.729Zm-2.729.91a.91.91,0,1,1,.91-.91A.91.91,0,0,1,13.729,39.639Z" transform="translate(-0.903 -3.161)" fill="#fff"/>
      <path id="Trazado_132906" data-name="Trazado 132906" d="M13.277,31.639a3.639,3.639,0,1,0-3.639,3.639A3.642,3.642,0,0,0,13.277,31.639ZM9.639,33.458a1.819,1.819,0,1,1,1.819-1.819A1.821,1.821,0,0,1,9.639,33.458Z" transform="translate(-0.452 -2.439)" fill="#fff"/>
    </g>
  </g>
</svg>
