<svg xmlns="http://www.w3.org/2000/svg" width="81" height="81" viewBox="0 0 81 81">
  <g id="Grupo_56175" data-name="Grupo 56175" transform="translate(-760 -896)">
    <g id="Grupo_56164" data-name="Grupo 56164" transform="translate(760 896)">
      <g id="Grupo_55846" data-name="Grupo 55846">
        <circle id="Elipse_4123" data-name="Elipse 4123" cx="40.5" cy="40.5" r="40.5" fill="#6a5d99"/>
      </g>
    </g>
    <g id="competence" transform="translate(772 908)">
      <path id="Trazado_132886" data-name="Trazado 132886" d="M48.491,25.828H46.726a2.652,2.652,0,0,0-2.648,2.648v.337l-.332.166a2.593,2.593,0,0,0-.674,4.153l1.006,1.006v7.9a.473.473,0,0,1-.545.468l-.5-.077a5.9,5.9,0,0,0-2.113-2.687c-.781-.655-1.256-1.088-1.256-1.556a10.694,10.694,0,0,1,.415-2.875,12.325,12.325,0,0,0,.468-3.3,7.628,7.628,0,0,0-1.766-4.749v-.107a10.152,10.152,0,1,0-20.3,0v6.066a5.376,5.376,0,0,0-2.648,4.969,5.95,5.95,0,0,0,1.609,3.884l-2.828.435a.474.474,0,0,1-.546-.468v-7.9l1.006-1.006a2.593,2.593,0,0,0-.675-4.152l-.332-.166v-.337a2.652,2.652,0,0,0-2.648-2.648H9.648A2.652,2.652,0,0,0,7,28.476V42.96a6.41,6.41,0,0,0,7.206,6.361l4.27-.533v8.821H39.664V48.788l4.27.533A6.411,6.411,0,0,0,51.14,42.96V28.476a2.652,2.652,0,0,0-2.648-2.648Zm-3.956,4.731,1.307-.654V28.476a.884.884,0,0,1,.883-.883h1.766a.884.884,0,0,1,.883.883V32.89H45.326l-1.006-1.006a.827.827,0,0,1,.216-1.325Zm-24.9,4.052.6-.2V27.152a8.387,8.387,0,0,1,16.773,0v.807l.259.259a5.833,5.833,0,0,1,1.507,3.79,10.694,10.694,0,0,1-.415,2.875,12.325,12.325,0,0,0-.468,3.3c0,1.327,1,2.167,1.887,2.909a9.057,9.057,0,0,1,1.073,1l-7.374-1.134V39.277a7.05,7.05,0,0,0,2.648-5.5V26.711H31.37a9.6,9.6,0,0,1-5.342-1.617l-.489-.327-3.531,2.354v6.652a7.062,7.062,0,0,0,3.508,6.093,2.322,2.322,0,0,1-.491,1.4l-.569.624.6.6a3.345,3.345,0,0,1,1.367,2.746l-.056.734A6.055,6.055,0,0,1,23.29,50.2,9.863,9.863,0,0,0,21.2,47.907c-.369-.325-.686-.614-.953-.89v0h0a2.5,2.5,0,0,1-.881-1.766,3.686,3.686,0,0,1,.212-1.27,18.975,18.975,0,0,0,3.892,2.1l.621-1.653c-1.805-.676-6.49-3.116-6.49-6.235a3.555,3.555,0,0,1,2.045-3.576ZM29.07,39.07a5.3,5.3,0,0,1-5.3-5.3V28.066l1.78-1.186a11.354,11.354,0,0,0,5.817,1.6h3v5.3A5.3,5.3,0,0,1,29.07,39.07Zm0,1.766a7.014,7.014,0,0,0,2.648-.52v1.037L28.7,44.367h-.586a4.641,4.641,0,0,0-1.306-2.609,4.114,4.114,0,0,0,.387-1.182,7.043,7.043,0,0,0,1.871.26Zm-.946,5.3H28.7l.893.893,1.119,8.818H27.375l.745-9.683c0-.01,0-.019,0-.028Zm2.195-.883,2.591-2.591.143.022-.964,4.338ZM9.648,27.594h1.766a.884.884,0,0,1,.883.883V29.9l1.307.654a.827.827,0,0,1,.216,1.325L12.814,32.89H8.766V28.476A.884.884,0,0,1,9.648,27.594ZM13.987,47.57a4.644,4.644,0,0,1-5.222-4.61v-8.3H12.3V42.04a2.224,2.224,0,0,0,.656,1.583,2.249,2.249,0,0,0,1.924.629l2.9-.447a5.59,5.59,0,0,0-.185,1.444,3.674,3.674,0,0,0,.478,1.816Zm6.255,1.853a5.667,5.667,0,0,1,1.812,2.286l.321.966.91-.456a10.182,10.182,0,0,0,2.748-1.954L25.6,55.843H20.242Zm27.772-3.178a4.613,4.613,0,0,1-3.861,1.325l-4.38-.547L37.9,47.015v8.828H32.5l-.861-6.78,1.479,1.479L34.8,42.95l8.463,1.3a2.253,2.253,0,0,0,1.923-.629,2.224,2.224,0,0,0,.656-1.583V34.656h3.531v8.3a4.619,4.619,0,0,1-1.36,3.285Z" transform="translate(-0.703 -1.875)" fill="#fff"/>
      <path id="Trazado_132887" data-name="Trazado 132887" d="M31.18,13.359A6.18,6.18,0,1,0,25,7.18,6.187,6.187,0,0,0,31.18,13.359Zm0-10.594A4.414,4.414,0,1,1,26.766,7.18,4.419,4.419,0,0,1,31.18,2.766Z" transform="translate(-2.813 0)" fill="#fff"/>
      <path id="Trazado_132888" data-name="Trazado 132888" d="M34.838,6.541,33.59,5.293,30.683,8.2,29.541,7.059,28.293,8.307l2.39,2.39Z" transform="translate(-3.199 -0.503)" fill="#fff"/>
      <path id="Trazado_132889" data-name="Trazado 132889" d="M8.945,22.187a3.535,3.535,0,0,0,3.531-3.531V17.074a1.722,1.722,0,0,1,.761-1.447,7.947,7.947,0,1,0-8.565.012,1.738,1.738,0,0,1,.742,1.472v1.545A3.535,3.535,0,0,0,8.945,22.187Zm0-1.766A1.767,1.767,0,0,1,7.18,18.656h3.531A1.767,1.767,0,0,1,8.945,20.422ZM8.062,8.945a.883.883,0,1,1,.883.883A.884.884,0,0,1,8.062,8.945ZM2.819,8.129a6.2,6.2,0,0,1,5.4-5.322,6.59,6.59,0,0,1,.731-.041,6.111,6.111,0,0,1,4.109,1.57,6.176,6.176,0,0,1-.778,9.807,3.439,3.439,0,0,0-1.561,2.748H9.828V11.431a2.648,2.648,0,1,0-1.766,0v5.459h-.9a3.437,3.437,0,0,0-1.544-2.738A6.157,6.157,0,0,1,2.819,8.129Z" transform="translate(0 0)" fill="#fff"/>
      <path id="Trazado_132890" data-name="Trazado 132890" d="M60.422,8.309l-2.167-.723,1.021-2.043-3.4-3.4L53.835,3.168,53.113,1h-4.8l-.722,2.168L45.544,2.146l-3.4,3.4,1.021,2.043L41,8.309v4.8l2.167.723-1.021,2.043,3.4,3.4,2.044-1.022.722,2.169h4.8l.722-2.168,2.044,1.022,3.4-3.4-1.021-2.043,2.168-.723ZM58.656,11.84l-2.025.675-.149.389c-.044.113-.088.225-.137.335l-.171.382.954,1.909-1.6,1.6-1.909-.954-.382.171c-.109.049-.219.093-.331.135l-.393.148-.676,2.029H49.581L48.9,16.627l-.393-.148c-.112-.042-.222-.087-.331-.135l-.382-.171-1.909.954-1.6-1.6.954-1.909-.171-.382c-.049-.11-.093-.222-.137-.335l-.149-.389-2.024-.675V9.581l2.025-.675.149-.389c.044-.113.088-.225.137-.335l.171-.382-.954-1.909,1.6-1.6,1.909.954.382-.171c.109-.049.219-.093.331-.135l.393-.148.676-2.028h2.259l.676,2.029.393.148c.112.042.222.087.331.135l.382.171,1.909-.954,1.6,1.6L56.174,7.8l.171.382c.049.11.093.222.137.335l.149.389,2.024.675Z" transform="translate(-4.688)" fill="#fff"/>
      <path id="Trazado_132891" data-name="Trazado 132891" d="M51.414,7a4.414,4.414,0,1,0,4.414,4.414A4.419,4.419,0,0,0,51.414,7Zm0,7.062a2.648,2.648,0,1,1,2.648-2.648A2.652,2.652,0,0,1,51.414,14.062Z" transform="translate(-5.391 -0.703)" fill="#fff"/>
    </g>
  </g>
</svg>
