<svg xmlns="http://www.w3.org/2000/svg" xmlns:xlink="http://www.w3.org/1999/xlink" width="296.888" height="303.21" viewBox="0 0 296.888 303.21">
  <defs>
    <linearGradient id="linear-gradient" y1="0.5" x2="1" y2="0.5" gradientUnits="objectBoundingBox">
      <stop offset="0" stop-color="#ff9085"/>
      <stop offset="1" stop-color="#fb6fbb"/>
    </linearGradient>
    <clipPath id="clip-path">
      <path id="Trazado_131597" data-name="Trazado 131597" d="M2172,1696.031c6.506-6.483,15.032-16.953,18.594-31.5,4.672-19.078-3.3-28.407-3.4-60.465-.063-20.27.1-34.417,10.081-42.281,7.824-6.164,20.742-7.732,28.77-2.479,6.675,4.368,10.748,13.956,12.111,20.856,1.111,5.62.479,9.743,3.824,12.62,3.418,2.939,6.958,1.111,10.137,3.269,6.446,4.376,3.248,19.613,2.732,22.075-5.748,27.393-30.253,46.489-41.043,54.69A169.45,169.45,0,0,1,2172,1696.031Z" transform="translate(-2172 -1556.131)" fill="url(#linear-gradient)"/>
    </clipPath>
    <linearGradient id="linear-gradient-2" y1="0.5" x2="1" y2="0.5" gradientUnits="objectBoundingBox">
      <stop offset="0.49" stop-color="#ebeff2"/>
      <stop offset="1" stop-color="#fff"/>
    </linearGradient>
    <linearGradient id="linear-gradient-3" x1="-3.476" y1="0.259" x2="-4.158" y2="0.745" gradientUnits="objectBoundingBox">
      <stop offset="0" stop-color="#311944"/>
      <stop offset="1" stop-color="#893976"/>
    </linearGradient>
    <linearGradient id="linear-gradient-4" x1="-3.796" y1="0.285" x2="-4.523" y2="0.925" xlink:href="#linear-gradient-3"/>
    <linearGradient id="linear-gradient-5" x1="0.968" y1="0.104" x2="-0.094" y2="0.905" gradientUnits="objectBoundingBox">
      <stop offset="0" stop-color="#e38ddd"/>
      <stop offset="1" stop-color="#9571f6"/>
    </linearGradient>
    <linearGradient id="linear-gradient-6" x1="-1.327" y1="-0.044" x2="-1.068" y2="1.485" gradientUnits="objectBoundingBox">
      <stop offset="0" stop-color="#aa80f9"/>
      <stop offset="1" stop-color="#6165d7"/>
    </linearGradient>
    <linearGradient id="linear-gradient-7" x1="-1.429" y1="-0.886" x2="-1.165" y2="1.918" xlink:href="#linear-gradient-6"/>
    <linearGradient id="linear-gradient-8" x1="-3.677" y1="0.186" x2="-4.788" y2="0.814" xlink:href="#linear-gradient-5"/>
    <linearGradient id="linear-gradient-9" y1="0.5" x2="1" y2="0.5" gradientUnits="objectBoundingBox">
      <stop offset="0" stop-color="#d8dee8"/>
      <stop offset="1" stop-color="#fff"/>
    </linearGradient>
    <clipPath id="clip-path-2">
      <path id="Trazado_131619" data-name="Trazado 131619" d="M2280.948,1134.821c4.35,0,8.622-1.824,12.7-5.422,4.152-3.661,7.905-8.958,11.159-15.744,6.838-14.262,10.605-33.284,10.605-53.56s-3.767-39.3-10.605-53.56c-3.254-6.784-7.007-12.088-11.159-15.744-4.079-3.6-8.351-5.422-12.7-5.422s-8.622,1.824-12.7,5.422c-4.152,3.658-7.906,8.959-11.154,15.746-6.838,14.262-10.605,33.284-10.605,53.56s3.762,39.295,10.605,53.558c3.254,6.786,7.008,12.082,11.159,15.744C2272.327,1133,2276.6,1134.821,2280.948,1134.821Z" transform="translate(-2246.49 -985.37)" fill="none"/>
    </clipPath>
    <clipPath id="clip-path-3">
      <path id="Trazado_131622" data-name="Trazado 131622" d="M863.632,650.835l30.134,9.689-36.975,36.064s-149.887,1.105-150.257-1.842,4.42-183.154,4.42-183.154S826.529,455,828.955,455s54.476,33.882,54.476,33.882l-68.254,48.241Z" transform="translate(-706.514 -455)" fill="none"/>
    </clipPath>
    <linearGradient id="linear-gradient-10" x1="1.304" y1="-0.679" x2="0.182" y2="1.012" gradientUnits="objectBoundingBox">
      <stop offset="0" stop-color="#ffc444"/>
      <stop offset="1" stop-color="#f36f56"/>
    </linearGradient>
    <linearGradient id="linear-gradient-11" x1="30.417" y1="-3.524" x2="30.65" y2="6.387" gradientUnits="objectBoundingBox">
      <stop offset="0" stop-color="#444b8c"/>
      <stop offset="1" stop-color="#26264f"/>
    </linearGradient>
    <linearGradient id="linear-gradient-12" x1="49.888" y1="-1.188" x2="50.187" y2="2.684" xlink:href="#linear-gradient-11"/>
    <linearGradient id="linear-gradient-13" x1="13.233" y1="0.495" x2="14.372" y2="0.448" xlink:href="#linear-gradient-11"/>
    <linearGradient id="linear-gradient-14" x1="10.082" y1="0.162" x2="12.334" y2="1.03" xlink:href="#linear-gradient-11"/>
    <linearGradient id="linear-gradient-15" x1="5.47" y1="0.683" x2="5.254" y2="0.44" xlink:href="#linear-gradient-11"/>
    <linearGradient id="linear-gradient-16" x1="6.197" y1="-0.146" x2="6.41" y2="0.812" xlink:href="#linear-gradient"/>
    <linearGradient id="linear-gradient-17" x1="5.59" y1="0.5" x2="6.59" y2="0.5" xlink:href="#linear-gradient-6"/>
    <linearGradient id="linear-gradient-18" x1="6.015" y1="0.5" x2="7.015" y2="0.5" xlink:href="#linear-gradient-6"/>
  </defs>
  <g id="conociemiento-01" transform="translate(-539.333 -455)">
    <g id="Illustration" transform="translate(539.333 455)">
      <path id="Trazado_131591" data-name="Trazado 131591" d="M692.394,476.449c-76-2.308-141.835,54.408-151.779,128.82C529.737,686.63,589.595,759.835,663.242,771.56c91.606,14.583,180.457-69.785,172.48-161.315C829.709,541.29,769.652,478.8,692.394,476.449Z" transform="translate(-539.333 -474.032)" fill="#f4f7fa"/>
      <g id="Grupo_56075" data-name="Grupo 56075" transform="translate(179.41 121.001)" clip-path="url(#clip-path)">
        <g id="Grupo_56074" data-name="Grupo 56074" transform="translate(-7.745 -7.391)" opacity="0.5">
          <path id="Trazado_131593" data-name="Trazado 131593" d="M2101.8,1641.5l-.285-.686a125.046,125.046,0,0,0,29.236-16.538c11.663-9.149,18.784-19.45,21.166-30.627,1.868-8.754.838-17.742-.583-30.184a169.093,169.093,0,0,0-4.334-22.993c-1.964-8.011-3.517-14.339-2.846-23.613a70.37,70.37,0,0,1,8.357-27.992l.659.348a69.643,69.643,0,0,0-8.271,27.692c-.659,9.158.879,15.436,2.826,23.384a169.866,169.866,0,0,1,4.35,23.085c1.376,12.039,2.462,21.549.571,30.422-2.417,11.348-9.631,21.8-21.434,31.056A125.648,125.648,0,0,1,2101.8,1641.5Z" transform="translate(-2101.52 -1488.87)" fill="#fff"/>
          <path id="Trazado_131594" data-name="Trazado 131594" d="M2316.618,1722.006l-.389-.156a47.689,47.689,0,0,1-13.649-9.4,49.361,49.361,0,0,1-14.929-33.516l.741-.041A48.79,48.79,0,0,0,2316.119,1721c4.913-18.156,14.24-29.735,21.226-36.263a55.07,55.07,0,0,1,14.286-9.993l.288.684a54.486,54.486,0,0,0-14.092,9.877c-6.959,6.512-16.269,18.1-21.1,36.307Z" transform="translate(-2267.197 -1654.315)" fill="#fff"/>
          <path id="Trazado_131595" data-name="Trazado 131595" d="M2212.443,1886.45l-.158-.22a137.008,137.008,0,0,0-15.6-17.458c-8.628-7.97-28.359-10.238-28.557-10.26l.081-.737a89.741,89.741,0,0,1,11.129,2.133c5.6,1.444,13.237,4.059,17.849,8.32a138.422,138.422,0,0,1,15.529,17.353c20.391-7.007,40.914-55.847,41.119-56.342l.685.285a241.347,241.347,0,0,1-12.994,25.808c-10.385,17.74-20.088,28.184-28.832,31.039Z" transform="translate(-2160.81 -1791.837)" fill="#fff"/>
          <path id="Trazado_131596" data-name="Trazado 131596" d="M2276.754,2199.761l.349-.652c4.983-9.294,3.925-18.867-3.144-28.452a53.154,53.154,0,0,0-12.219-11.7l.4-.623a54.055,54.055,0,0,1,12.417,11.882c6.984,9.47,8.2,19.335,3.545,28.578a125.571,125.571,0,0,0,21.9-6.263c11.732-4.493,28.42-12.857,41.3-27.163l25.029-27.818.549.5-25.03,27.818c-12.978,14.425-29.78,22.844-41.6,27.362a121.837,121.837,0,0,1-22.761,6.424Z" transform="translate(-2244.134 -2066.268)" fill="#fff"/>
        </g>
      </g>
      <path id="Trazado_131603" data-name="Trazado 131603" d="M1014.9,2910.9,740.82,2908.53v7.01a3.726,3.726,0,0,0,2.814,3.809l77.5,13.8a10.684,10.684,0,0,0,2.78.13l188-15.738a3.542,3.542,0,0,0,2.979-3.718Z" transform="translate(-718.679 -2638.917)" fill="#bfc8d6"/>
      <path id="Trazado_131604" data-name="Trazado 131604" d="M860.309,1789.367l-174.2,12.823a5.28,5.28,0,0,1-5.651-5.446V1667.023a5.763,5.763,0,0,1,5.651-5.863h174.2c2.568,0,4.645,2.374,4.645,5.3v117.265C864.954,1786.651,862.877,1789.178,860.309,1789.367Z" transform="translate(-664.952 -1528.618)" fill="#bfc8d6"/>
      <path id="Trazado_131605" data-name="Trazado 131605" d="M885.58,1789.367l-174.2,12.823a5.28,5.28,0,0,1-5.652-5.446V1667.023a5.763,5.763,0,0,1,5.652-5.863h174.2c2.568,0,4.645,2.374,4.645,5.3v117.265C890.225,1786.651,888.148,1789.178,885.58,1789.367Z" transform="translate(-687.445 -1528.618)" fill="#fff"/>
      <path id="Trazado_131606" data-name="Trazado 131606" d="M941.533,1842.107l-162.246,11.139a4.329,4.329,0,0,1-4.6-4.47V1735.205a4.724,4.724,0,0,1,4.6-4.805l162.246-.7a4.1,4.1,0,0,1,3.832,4.343v103.443A4.474,4.474,0,0,1,941.533,1842.107Z" transform="translate(-748.827 -1589.626)" fill="#d8dee8"/>
      <path id="Trazado_131607" data-name="Trazado 131607" d="M1573.272,1675.781a2.013,2.013,0,1,1-2-2.181A2.1,2.1,0,0,1,1573.272,1675.781Z" transform="translate(-1456.084 -1539.691)" fill="#fff"/>
      <path id="Trazado_131608" data-name="Trazado 131608" d="M711.382,1802.163,884.7,1789.405l.879-.065a4.678,4.678,0,0,0,3.068-1.553c-12.472-.684-20.219-5.109-25.216-9.682-10.035-9.184-8.294-18.241-19.12-24.285-13.5-7.532-24.112,2.012-34.354-7.4-6.21-5.714-3.161-9.966-10.8-18.5-8.461-9.45-13.972-6.273-22.477-14.777-10.755-10.753-5.376-19.12-14.639-26.839-11.238-9.366-23.357-.7-34.054-9.679-4.615-3.875-7.143-9.506-8.468-15.494h-8.132a5.763,5.763,0,0,0-5.652,5.862v129.724A5.28,5.28,0,0,0,711.382,1802.163Z" transform="translate(-687.445 -1528.591)" fill="#fff" opacity="0.48"/>
      <path id="Trazado_131609" data-name="Trazado 131609" d="M925.021,2821.085l-184.2,13.5,80.316,14.3a10.706,10.706,0,0,0,2.78.13L1014.9,2833.03l-86.946-11.853A14.06,14.06,0,0,0,925.021,2821.085Z" transform="translate(-718.679 -2561.048)" fill="url(#linear-gradient-2)"/>
      <path id="Trazado_131610" data-name="Trazado 131610" d="M985.41,2852.9l153.354-11.4,47.461,6.417-152.032,12.191Z" transform="translate(-936.392 -2579.253)" fill="#d8dee8"/>
      <path id="Trazado_131611" data-name="Trazado 131611" d="M1060.972,1664.875a15.953,15.953,0,0,1-13.605-9.685l-33.159-79.647a13.921,13.921,0,0,1,7.645-18.371c7.309-2.931,18.7.522,21.8,7.85l34.017,80.51a13.612,13.612,0,0,1-8.037,18.5A33.122,33.122,0,0,1,1060.972,1664.875Z" transform="translate(-961.046 -1435.129)" fill="url(#linear-gradient-3)"/>
      <path id="Trazado_131612" data-name="Trazado 131612" d="M1021.853,1557.172c7.309-2.931,18.7.522,21.8,7.851l31.1,73.619c-5.206-1.337-11.368-1.216-17.283-6.4-9.847-8.635-5-19.7-12.808-29.56-3.567-4.505-10.169-9.249-23.606-10.676l-6.851-16.458A13.923,13.923,0,0,1,1021.853,1557.172Z" transform="translate(-961.046 -1435.129)" opacity="0.3" fill="url(#linear-gradient-4)"/>
      <path id="Trazado_131613" data-name="Trazado 131613" d="M807.969,1420.489a6.243,6.243,0,0,1,.848.061l20.5-.22v53.3l-19.793-.27a6.326,6.326,0,0,1-1.553.2c-7.025,0-12.719-11.877-12.719-26.528S800.948,1420.489,807.969,1420.489Z" transform="translate(-767.128 -1314.252)" fill="url(#linear-gradient-5)"/>
      <path id="Trazado_131614" data-name="Trazado 131614" d="M1058.115,1037.407c-7.764,17.747-7.764,35.43,0,53.3l152.471,49.022,1.575-149.584Z" transform="translate(-995.925 -931.335)" fill="url(#linear-gradient-6)"/>
      <path id="Trazado_131615" data-name="Trazado 131615" d="M1169.406,1638.277c-14.5-5.494-19-26.524-35.832-27.231-13.206-.556-17.185,12.267-30.125,10.879-13.246-1.416-15.471-15.7-30.3-20.731-6.744-2.288-13.8-1.868-20.648.069a65.146,65.146,0,0,0,5.6,31.956l152.471,49.027-9.021-50.789C1186.512,1640.227,1176.433,1640.94,1169.406,1638.277Z" transform="translate(-995.903 -1473.857)" opacity="0.3" fill="url(#linear-gradient-7)"/>
      <ellipse id="Elipse_4328" data-name="Elipse 4328" cx="37.088" cy="77.351" rx="37.088" ry="77.351" transform="translate(184.966 55.656)" fill="url(#linear-gradient-8)"/>
      <path id="Trazado_131616" data-name="Trazado 131616" d="M2306.707,1134.821c4.349,0,8.622-1.824,12.7-5.422,4.151-3.661,7.905-8.958,11.159-15.744,6.838-14.262,10.605-33.284,10.605-53.56s-3.767-39.3-10.605-53.56c-3.254-6.784-7.008-12.088-11.159-15.744-4.079-3.6-8.352-5.422-12.7-5.422s-8.622,1.824-12.7,5.422c-4.152,3.658-7.905,8.959-11.154,15.746a99.558,99.558,0,0,0-6.917,20.13c-2.417,10.258,4.563,20.968,4.563,32.765,0,12.546-6.813,25.274-4.09,36.03a97.511,97.511,0,0,0,6.444,18.2c3.254,6.786,7.007,12.082,11.159,15.744C2298.085,1133,2302.359,1134.821,2306.707,1134.821Z" transform="translate(-2084.653 -927.089)" fill="url(#linear-gradient-9)"/>
      <g id="Grupo_56078" data-name="Grupo 56078" transform="translate(187.595 58.281)" clip-path="url(#clip-path-2)">
        <path id="Trazado_131617" data-name="Trazado 131617" d="M2128.445,1389.447c0,19.6-12.977,35.156-28.758,34.76-15.537-.39-27.958-16.147-27.958-35.2s12.417-34.615,27.958-34.766C2115.469,1354.088,2128.445,1369.849,2128.445,1389.447Z" transform="translate(-2090.934 -1313.706)" fill="#7d6eb2"/>
      </g>
      <g id="Grupo_56079" data-name="Grupo 56079" transform="translate(18.371)" clip-path="url(#clip-path-3)">
        <path id="Trazado_131620" data-name="Trazado 131620" d="M1052.3,690.038c0,42.677-32.708,80.564-76.222,85.247-47.691,5.132-89.985-31.153-89.985-81.346a85.215,85.215,0,0,1,78.221-85.492v12.972h4.451v-2.345l33.023-17.521-33.023-22.065V576.52h-4.451v14.354a95.054,95.054,0,0,0-28.547,5.326,102.9,102.9,0,0,0-35.4,20.753,104.191,104.191,0,0,0-25.294,34.04,102.523,102.523,0,0,0-9.584,43.406,99.539,99.539,0,0,0,9.578,42.948A97.908,97.908,0,0,0,976.1,792.467a101.488,101.488,0,0,0,37.3-12.281,103.888,103.888,0,0,0,53.194-90.482Z" transform="translate(-848.02 -563.166)" fill="url(#linear-gradient-10)"/>
        <path id="Trazado_131621" data-name="Trazado 131621" d="M1092.573,690.145c0,42.677-32.708,80.564-76.223,85.247-47.691,5.132-89.968-31.153-89.968-81.346a85.23,85.23,0,0,1,78.24-85.492v12.972l37.442-19.867-37.444-25.019v14.34a95.186,95.186,0,0,0-28.563,5.326,102.941,102.941,0,0,0-35.407,20.753,104.219,104.219,0,0,0-25.294,34.04,102.546,102.546,0,0,0-9.585,43.406,99.539,99.539,0,0,0,9.577,42.949,97.9,97.9,0,0,0,101.03,55.12,101.489,101.489,0,0,0,37.3-12.281,103.888,103.888,0,0,0,53.194-90.482Z" transform="translate(-883.874 -563.273)" fill="#f5ca56"/>
      </g>
      <path id="Trazado_131623" data-name="Trazado 131623" d="M1034.667,3169.08a11.163,11.163,0,0,0-.074,2.384c.146.6,5.344,1.031,7.108.823s-1.051-2.009-2.174-2.347S1034.667,3169.08,1034.667,3169.08Z" transform="translate(-980.126 -2870.836)" fill="url(#linear-gradient-11)"/>
      <path id="Trazado_131624" data-name="Trazado 131624" d="M1037.67,3140.709l-.549,3.584s-1.4.627-2.067.007l-.074-3.751Z" transform="translate(-980.514 -2845.441)" fill="#d8dee8"/>
      <path id="Trazado_131625" data-name="Trazado 131625" d="M751.371,3138.56s1.1.817.808,1.8-2.865,4.9-4.7,6.016-1.258-1.209-.725-2.652a27.969,27.969,0,0,1,2.427-5.165C749.716,3138.02,751.371,3138.56,751.371,3138.56Z" transform="translate(-723.496 -2843.456)" fill="url(#linear-gradient-12)"/>
      <path id="Trazado_131626" data-name="Trazado 131626" d="M767.786,3104.68c-.533,1.485-1.045,2.706-1.446,3.605a12.9,12.9,0,0,1-1.92,3.388c-.479.565-1.612,1.769-1.916,1.568s.52-1.667,2.118-5.956c.232-.622.965-2.605.965-2.605h2.2Z" transform="translate(-737.925 -2813.513)" fill="#d8dee8"/>
      <path id="Trazado_131627" data-name="Trazado 131627" d="M1016.249,2539.234a92.787,92.787,0,0,1,.2,16.555c-.71,9.159-2.542,14.956-4.835,24.725-1.4,5.969-3.3,14.752-5.008,25.739a4.826,4.826,0,0,1-3.069.6,4.66,4.66,0,0,1-1.844-.7c-4.491-13.722-3.165-22.226-1-27.525.924-2.258,2.044-4.039,2.643-7.512.792-4.592-.188-7.16-1.585-17.8-1-7.582-.823-8.754-.16-9.89C1004.237,2538.875,1012.336,2538.964,1016.249,2539.234Z" transform="translate(-948.217 -2310.109)" fill="url(#linear-gradient-13)"/>
      <path id="Trazado_131628" data-name="Trazado 131628" d="M805.345,2554.6c-2.747,14.207-5.452,21.669-7.494,25.89a70.791,70.791,0,0,0-3.775,9.213,75.214,75.214,0,0,0-2.294,8.775c-.948,4.356-3.3,10.714-9.6,19.055a2.377,2.377,0,0,1-2.182.11,2.106,2.106,0,0,1-.879-.917c.824-7.974,1.77-14.675,2.592-19.846.173-1.085.932-5.824,2.122-12.1.467-2.453,1.149-6.044,1.967-9.74,1.019-4.6,2.58-10.854,4.987-18.351Z" transform="translate(-752.771 -2323.88)" fill="url(#linear-gradient-14)"/>
      <path id="Trazado_131629" data-name="Trazado 131629" d="M624.343,1895.847c1.559-1.442,4.545-3.1,6.044-6.969.451-1.164,2.047-5.286-.308-8.439a6.742,6.742,0,0,0-6.283-2.692c-1.955.385-2.262,1.746-5.585,4.488a23.506,23.506,0,0,1-5.687,3.736c-3.965,1.633-6.346.1-10.329.271-4.89.22-10.57,2.944-13.306,6.913-4.858,7.042,2.179,14.188-3.142,22.438-1.744,2.7-2.6,2.1-6.732,7.331s-6.2,7.859-5.834,11.069c.51,4.456,5.31,8.712,9.828,9,4.415.283,7.222-3.187,9.469-1.67,1.6,1.08.685,3.187,2.384,5.714,2.19,3.258,6.5,3.907,7.19,4.012,6.453.974,15.154-6.593,18.849-15.557C627.564,1919.323,615.86,1903.687,624.343,1895.847Z" transform="translate(-569.424 -1721.323)" fill="url(#linear-gradient-15)"/>
      <path id="Trazado_131630" data-name="Trazado 131630" d="M674.113,2000.728c.044-4.512-10.206-8.118-14.9-9.28a33.2,33.2,0,0,0-14.557-.373,32.523,32.523,0,0,0-16.9,9.682,22.8,22.8,0,0,1,8.953,11.19c.743,2.047,2.936,9.049-.2,15.6-1.808,3.779-5.005,6.616-7.435,8.771-3.643,3.232-5.53,3.729-6.75,6.624-1.331,3.153.01,4.69-1.642,6.849-1.774,2.318-3.853,1.24-6.859,3.584-3.077,2.4-1.984,4.377-4.787,7.033-4.072,3.854-9.472,2.6-9.724,4.338-.22,1.492,3.626,3.516,6.881,4.338,6.457,1.626,12.088-1.1,13.762-1.945,4.637-2.329,3.836-3.837,7.371-5.613,5.918-2.972,9.963.336,23.444.677,7.3.185,10.989.225,13.015-2.244,1.846-2.257.879-4.732-.233-15.4-.528-5.077-.718-10.182-1.107-15.274-1.1-14.4-1.133-15.66-.157-17.651C665.793,2004.524,674.074,2004.782,674.113,2000.728Z" transform="translate(-592.718 -1821.721)" fill="#26aab7"/>
      <g id="Grupo_56080" data-name="Grupo 56080" transform="translate(6.591 178.438)" opacity="0.3">
        <path id="Trazado_131631" data-name="Trazado 131631" d="M609.045,2139.08c2.8-2.654,1.707-4.629,4.787-7.032,3.006-2.345,5.086-1.267,6.859-3.584,1.648-2.16.311-3.7,1.642-6.849,1.221-2.9,3.108-3.393,6.75-6.624,2.43-2.155,5.627-4.992,7.435-8.771,3.137-6.558.944-13.56.2-15.6a22.8,22.8,0,0,0-8.953-11.19c.168-.181.367-.388.579-.6,11.506,1.581,18.215,8.229,19.045,10.2,1.918,4.552-1.119,6.223-1.2,19.348-.037,6.274.638,8.75-1.4,11.369-2.327,2.994-5.011,2.068-8.377,5.983-2.587,3.009-2.172,4.915-4.588,6.183-2.6,1.362-4.252-.227-7.18.4-4.893,1.044-5.934,6.686-9.176,9.773-2.446,2.334-6.969,3.966-15.89,2.214a1.246,1.246,0,0,1-.266-.868C599.573,2141.683,604.973,2142.935,609.045,2139.08Z" transform="translate(-599.313 -2078.82)" fill="url(#linear-gradient-16)"/>
      </g>
      <path id="Trazado_131632" data-name="Trazado 131632" d="M786.708,2034.317c1.223,2.6-4.4,8.647-10.644,11.52-1.273.586-10.413,4.789-14.488.747-3.366-3.34-1.193-10.245-.418-12.71,3.809-12.105,15.5-18.263,20.406-20.484,3.658,9.146,1.5,13.223.659,14.5a48.693,48.693,0,0,1-5.983,6.581c-1.847,1.731-3,2.572-2.842,2.843.192.336,2.357-.3,10.769-4.4A3.282,3.282,0,0,1,786.708,2034.317Z" transform="translate(-735.531 -1842.142)" fill="#26aab7"/>
      <path id="Trazado_131633" data-name="Trazado 131633" d="M1015.583,2051.678l-4.126,20.549a1.685,1.685,0,0,1-1.3,1.319l-30.763,6.6a1.687,1.687,0,0,1-2.035-1.779l1.624-20.9a1.684,1.684,0,0,1,1.276-1.506c4.88-1.208,23.663-5.714,33.57-6.3a1.686,1.686,0,0,1,1.754,2.012Z" transform="translate(-929.222 -1874.429)" fill="url(#linear-gradient-17)"/>
      <path id="Trazado_131634" data-name="Trazado 131634" d="M988.617,1931.48s-.58,4.638-2.292,5.7-4.48,2.451-4.786,2.827,10.606,1.549,16.014-1.179h0c-1.781-.372-2.266-.509-2.266-.509a10,10,0,0,1-2.29-.907,7.771,7.771,0,0,1-2.512-2.328l.02-2.568Z" transform="translate(-932.941 -1769.233)" fill="#fff"/>
      <path id="Trazado_131635" data-name="Trazado 131635" d="M1035.111,1911.86a2.568,2.568,0,0,0,2.867.894c1.567-.571.632-4.615-.611-5.082a2.2,2.2,0,0,0-1.686.232,2.439,2.439,0,0,0-.769,2.747c-.4-.115-.745-.011-.832.185-.11.25.22.588.3.659A1.331,1.331,0,0,0,1035.111,1911.86Z" transform="translate(-979.694 -1747.97)" fill="#fff"/>
      <path id="Trazado_131636" data-name="Trazado 131636" d="M1014.151,2069.435c3.3-.932,6.044,1.382,8.676-.449,2.7-1.875.937-5.078,3.736-8.227,3-3.367,6.8-1.718,9.573-4.787,1.03-1.14,1.956-3,1.97-6.161.7-.067,1.361-.12,1.99-.157a1.686,1.686,0,0,1,1.758,2.017l-4.126,20.549a1.685,1.685,0,0,1-1.3,1.319l-29.56,6.345C1008.952,2072.553,1011.738,2070.115,1014.151,2069.435Z" transform="translate(-955.494 -1874.417)" opacity="0.3" fill="url(#linear-gradient-18)"/>
      <path id="Trazado_131637" data-name="Trazado 131637" d="M1287.811,2099.2a7.363,7.363,0,0,0,2.176-3.92,4.069,4.069,0,0,0-2.7-4.223c-1.434-.429-2.2.2-1.237,2.279S1288.538,2096.763,1287.811,2099.2Z" transform="translate(-1203.612 -1911.163)" fill="#fff"/>
    </g>
  </g>
</svg>
