<svg xmlns="http://www.w3.org/2000/svg" xmlns:xlink="http://www.w3.org/1999/xlink" width="457.46" height="307.298" viewBox="0 0 457.46 307.298">
  <defs>
    <linearGradient id="linear-gradient" y1="0.5" x2="1" y2="0.5" gradientUnits="objectBoundingBox">
      <stop offset="0" stop-color="#dae3fe"/>
      <stop offset="1" stop-color="#e9effd"/>
    </linearGradient>
    <linearGradient id="linear-gradient-2" x1="0" y1="0.5" x2="1" y2="0.5" xlink:href="#linear-gradient"/>
    <linearGradient id="linear-gradient-3" x1="0" y1="0.499" x2="1" y2="0.499" xlink:href="#linear-gradient"/>
    <linearGradient id="linear-gradient-4" x1="0" y1="0.5" x2="1" y2="0.5" xlink:href="#linear-gradient"/>
    <linearGradient id="linear-gradient-5" x1="0" y1="0.5" x2="1" y2="0.5" xlink:href="#linear-gradient"/>
    <linearGradient id="linear-gradient-6" x1="0" y1="0.499" x2="1" y2="0.499" xlink:href="#linear-gradient"/>
    <linearGradient id="linear-gradient-8" x1="0" y1="0.5" x2="1" y2="0.5" xlink:href="#linear-gradient"/>
    <linearGradient id="linear-gradient-9" x1="0" y1="0.5" x2="1" y2="0.5" xlink:href="#linear-gradient"/>
    <linearGradient id="linear-gradient-10" x1="0" y1="0.5" x2="1" y2="0.5" xlink:href="#linear-gradient"/>
    <linearGradient id="linear-gradient-11" x1="-170.537" y1="0.04" x2="-169.507" y2="1.767" gradientUnits="objectBoundingBox">
      <stop offset="0" stop-color="#ff928e"/>
      <stop offset="1" stop-color="#feb3b1"/>
    </linearGradient>
    <linearGradient id="linear-gradient-12" x1="4.671" y1="-2.531" x2="0.263" y2="0.756" xlink:href="#linear-gradient-11"/>
    <linearGradient id="linear-gradient-13" x1="99.484" y1="-0.484" x2="96.65" y2="6.012" gradientUnits="objectBoundingBox">
      <stop offset="0" stop-color="#09005d"/>
      <stop offset="1" stop-color="#1a0f91"/>
    </linearGradient>
    <linearGradient id="linear-gradient-14" x1="391.694" y1="0.5" x2="392.694" y2="0.5" xlink:href="#linear-gradient-11"/>
    <linearGradient id="linear-gradient-15" x1="120.492" y1="0.031" x2="117.595" y2="0.887" xlink:href="#linear-gradient-13"/>
    <linearGradient id="linear-gradient-16" x1="247.131" y1="-2.219" x2="240.114" y2="5.374" xlink:href="#linear-gradient-13"/>
    <linearGradient id="linear-gradient-17" x1="454.787" y1="0.5" x2="455.79" y2="0.5" xlink:href="#linear-gradient-11"/>
    <linearGradient id="linear-gradient-18" x1="84.997" y1="-0.035" x2="82.956" y2="0.806" xlink:href="#linear-gradient-13"/>
    <linearGradient id="linear-gradient-19" x1="-56.017" y1="-0.492" x2="-55.671" y2="0.348" xlink:href="#linear-gradient-11"/>
    <linearGradient id="linear-gradient-20" x1="0.88" y1="-0.188" x2="-0.174" y2="2.078" xlink:href="#linear-gradient-11"/>
    <linearGradient id="linear-gradient-21" x1="-17.607" y1="71.222" x2="-18.328" y2="69.789" xlink:href="#linear-gradient-11"/>
    <linearGradient id="linear-gradient-22" x1="-25.697" y1="28.844" x2="-25.492" y2="30.024" xlink:href="#linear-gradient-13"/>
    <linearGradient id="linear-gradient-23" x1="-58.329" y1="343.854" x2="-60.677" y2="336.9" xlink:href="#linear-gradient-11"/>
    <linearGradient id="linear-gradient-24" x1="1.275" y1="1.925" x2="0.358" y2="-0.194" xlink:href="#linear-gradient-11"/>
    <linearGradient id="linear-gradient-25" x1="1" y1="2.308" x2="-0.264" y2="-2.643" xlink:href="#linear-gradient-11"/>
    <clipPath id="clip-path">
      <path id="Trazado_130680" data-name="Trazado 130680" d="M2266.367,640.122c-.4-.412-1.27-1.974-2.017-6.03a92.04,92.04,0,0,1,0-28.631c.747-4.055,1.617-5.624,2.017-6.03.4.412,1.271,1.976,2.017,6.03.722,3.918,6.416,9,6.416,14.317s-5.694,10.394-6.416,14.315C2267.637,638.148,2266.767,639.715,2266.367,640.122Z" transform="translate(-2263.23 -599.43)" fill="none"/>
    </clipPath>
    <linearGradient id="linear-gradient-26" x1="0.411" y1="0.931" x2="0.634" y2="-0.164" xlink:href="#linear-gradient-13"/>
    <linearGradient id="linear-gradient-27" x1="0.556" y1="-16.702" x2="0.519" y2="-5.239" xlink:href="#linear-gradient-13"/>
    <linearGradient id="linear-gradient-28" x1="-2.52" y1="-0.215" x2="-1.689" y2="0.674" xlink:href="#linear-gradient-13"/>
    <linearGradient id="linear-gradient-29" x1="-109.048" y1="-0.771" x2="-108.039" y2="-0.771" xlink:href="#linear-gradient-13"/>
    <linearGradient id="linear-gradient-30" x1="-79.32" y1="1.44" x2="-78.402" y2="-1.355" xlink:href="#linear-gradient-11"/>
    <linearGradient id="linear-gradient-31" x1="-72.025" y1="-0.322" x2="-71.026" y2="-0.322" xlink:href="#linear-gradient-13"/>
    <linearGradient id="linear-gradient-32" x1="-36.275" y1="1.507" x2="-35.83" y2="-1.358" xlink:href="#linear-gradient-11"/>
    <linearGradient id="linear-gradient-33" x1="0.392" y1="1.215" x2="0.091" y2="2.993" xlink:href="#linear-gradient-11"/>
    <linearGradient id="linear-gradient-34" x1="-0.982" y1="2.156" x2="0.995" y2="-0.079" xlink:href="#linear-gradient-11"/>
    <linearGradient id="linear-gradient-35" x1="0.354" y1="-0.497" x2="1.045" y2="3.437" xlink:href="#linear-gradient-11"/>
    <linearGradient id="linear-gradient-36" x1="-98.727" y1="5.29" x2="-99.476" y2="3.956" xlink:href="#linear-gradient-11"/>
    <linearGradient id="linear-gradient-37" x1="-8.705" y1="-0.501" x2="-6.32" y2="2.577" xlink:href="#linear-gradient-13"/>
    <linearGradient id="linear-gradient-38" x1="-368.16" y1="15.053" x2="-370.963" y2="10.823" xlink:href="#linear-gradient-11"/>
    <linearGradient id="linear-gradient-39" x1="5.586" y1="0.149" x2="-1.04" y2="0.255" gradientUnits="objectBoundingBox">
      <stop offset="0" stop-color="#fe7062"/>
      <stop offset="1" stop-color="#ff928e"/>
    </linearGradient>
    <linearGradient id="linear-gradient-40" x1="0.664" y1="-0.833" x2="0.497" y2="0.635" xlink:href="#linear-gradient-11"/>
    <clipPath id="clip-path-2">
      <path id="Trazado_130748" data-name="Trazado 130748" d="M2032.933,1022.049l22.708-18.911a.518.518,0,0,0-.282-.914c-.159-.017-.322-14.892-.489-14.884l-44.571,2.475c-.532.029-1.031,15.055-1.444,15.323a.516.516,0,0,0-.076.825l17.117,15.911A5.431,5.431,0,0,0,2032.933,1022.049Z" transform="translate(-2008.607 -987.34)" fill="none"/>
    </clipPath>
    <linearGradient id="linear-gradient-41" x1="-21.368" y1="0.51" x2="-20.368" y2="0.51" gradientUnits="objectBoundingBox">
      <stop offset="0" stop-color="#4042e2"/>
      <stop offset="1" stop-color="#4f52ff"/>
    </linearGradient>
    <linearGradient id="linear-gradient-42" x1="-67.817" y1="0.499" x2="-66.816" y2="0.499" xlink:href="#linear-gradient-41"/>
    <linearGradient id="linear-gradient-43" x1="-22.004" y1="0.5" x2="-21.004" y2="0.5" xlink:href="#linear-gradient-13"/>
    <linearGradient id="linear-gradient-44" x1="-77.694" y1="0.5" x2="-76.694" y2="0.5" xlink:href="#linear-gradient-11"/>
    <linearGradient id="linear-gradient-45" x1="-45.733" y1="0.5" x2="-44.734" y2="0.5" xlink:href="#linear-gradient-13"/>
    <linearGradient id="linear-gradient-46" x1="-75.577" y1="0.5" x2="-74.577" y2="0.5" xlink:href="#linear-gradient-11"/>
    <linearGradient id="linear-gradient-47" x1="-7.715" y1="0.221" x2="-9.117" y2="1.513" xlink:href="#linear-gradient-13"/>
    <linearGradient id="linear-gradient-48" x1="-49.5" y1="5.017" x2="-49.142" y2="4.209" xlink:href="#linear-gradient-41"/>
    <linearGradient id="linear-gradient-49" x1="-45.58" y1="0.1" x2="-47.97" y2="1.142" gradientUnits="objectBoundingBox">
      <stop offset="0" stop-color="#f9b776"/>
      <stop offset="1" stop-color="#f47960"/>
    </linearGradient>
    <linearGradient id="linear-gradient-50" x1="-14.883" y1="0.718" x2="-13.898" y2="0.718" xlink:href="#linear-gradient-11"/>
    <linearGradient id="linear-gradient-51" x1="0.436" y1="-0.085" x2="0.692" y2="2.009" xlink:href="#linear-gradient-11"/>
    <linearGradient id="linear-gradient-52" x1="1.99" y1="-0.307" x2="0.427" y2="0.525" xlink:href="#linear-gradient-11"/>
    <linearGradient id="linear-gradient-53" x1="-25.779" y1="22.285" x2="-24.757" y2="22.285" xlink:href="#linear-gradient-13"/>
    <linearGradient id="linear-gradient-54" x1="-130.241" y1="99.962" x2="-126.95" y2="97.606" xlink:href="#linear-gradient-11"/>
    <linearGradient id="linear-gradient-55" x1="-47.771" y1="0.5" x2="-46.772" y2="0.5" xlink:href="#linear-gradient-11"/>
    <linearGradient id="linear-gradient-56" x1="-1.701" y1="0.444" x2="-3.003" y2="3.464" xlink:href="#linear-gradient-13"/>
    <linearGradient id="linear-gradient-57" x1="-10.671" y1="1.665" x2="-9.359" y2="-0.523" xlink:href="#linear-gradient-13"/>
    <linearGradient id="linear-gradient-58" x1="-2.157" y1="0.656" x2="-2.794" y2="4.015" xlink:href="#linear-gradient-41"/>
    <linearGradient id="linear-gradient-59" x1="-2.155" y1="0.654" x2="-2.792" y2="4.014" xlink:href="#linear-gradient-41"/>
    <linearGradient id="linear-gradient-60" x1="-30.83" y1="-1.22" x2="-32.523" y2="3.82" xlink:href="#linear-gradient-11"/>
  </defs>
  <g id="confidencial-01" transform="translate(-134.588 -63.412)">
    <g id="Illustration" transform="translate(122.977 63.412)">
      <path id="Trazado_130626" data-name="Trazado 130626" d="M305.931,165.01c-5.834,3.473-16.356,11.516-25.536,23.51-6.83,8.926-9.28,14.642-15.616,16.086-4.646,1.054-9.881-.856-17.064-5.106-15.364-9.091-33.414-2.982-46.481,21.238s-8.136,47.14,15.977,74.3c17.645,19.881-6.084,20.1-19.8,54.55s5.628,73.1,69.294,72.641c63.744-.46,160.1.412,160.106.412,50.321.462,104.626,8.924,151.409-14.9,16.911-8.608,31.855-21.883,40.153-38.978,10.957-22.568,7.3-50.923-7.183-71.23-9.65-13.537-23.541-9.637-35.121-18.546-12.087-9.3-19.359-19.386-2.077-35.944s30.522-27.7,21.776-49.63c-12.543-31.459-41.88-32.362-76.382-22.178-38.671,11.409-41.411-1.4-71.191-10.076-30.467-8.868-73.07,11.079-103.033-2.269C337.554,155.509,320.7,156.217,305.931,165.01Z" transform="translate(-178.751 -137.712)" fill="url(#linear-gradient)"/>
      <path id="Trazado_130630" data-name="Trazado 130630" d="M306.945,291.027c1.046,6.5,2.357,12.978,3.918,19.386q2.269,9.627,5.1,19.1c1.9,6.307,3.935,12.58,6.2,18.755s4.653,12.316,7.319,18.332,5.442,11.984,8.53,17.792c.379.728.749,1.464,1.136,2.188l1.194,2.159c.8,1.433,1.569,2.887,2.4,4.306l2.506,4.248.619,1.064.656,1.046,1.31,2.089c1.706,2.815,3.6,5.5,5.418,8.249.93,1.357,1.912,2.681,2.865,4.019l1.444,2c.487.664,1.006,1.3,1.5,1.961l3,3.918,3.139,3.811,1.576,1.906,1.65,1.844,3.275,3.712h0a.464.464,0,0,1-.672.637A184.762,184.762,0,0,1,345.807,402.8l-1.371-2.081-.679-1.041-.654-1.062-2.6-4.257c-.864-1.421-1.65-2.887-2.491-4.331l-1.237-2.168c-.4-.726-.786-1.464-1.18-2.2-3.186-5.838-6.02-11.86-8.72-17.942a277.354,277.354,0,0,1-13.259-37.557q-2.65-9.584-4.6-19.355-.963-4.882-1.728-9.8c-.52-3.279-.969-6.56-1.268-9.879a.464.464,0,0,1,.92-.118Z" transform="translate(-268.272 -243.767)" fill="#dce5fe"/>
      <path id="Trazado_130632" data-name="Trazado 130632" d="M180.043,651.442c2.782,4.7,5.737,9.324,8.732,13.906,1.51,2.285,3.017,4.57,4.552,6.839s3.093,4.527,4.665,6.762,3.164,4.473,4.768,6.692l4.873,6.614c3.316,4.358,6.63,8.719,10.064,12.993,3.362,4.331,6.921,8.488,10.406,12.714l5.4,6.187c.9,1.031,1.794,2.062,2.708,3.093l2.782,3.023c1.856,2.009,3.7,4.04,5.568,6.032l5.733,5.884c.957.978,1.9,1.974,2.867,2.941l2.953,2.854,5.9,5.713h0a.4.4,0,0,1-.555.582c-8-7.511-15.9-15.156-23.249-23.3l-2.8-3.019c-.922-1.019-1.817-2.062-2.724-3.094l-5.432-6.187c-3.506-4.224-7.088-8.383-10.472-12.706Q206.5,693.1,197.121,679.553c-1.576-2.246-3.093-4.537-4.648-6.793s-3.034-4.574-4.537-6.87c-2.957-4.626-5.857-9.28-8.6-14.047a.4.4,0,1,1,.693-.412Z" transform="translate(-167.664 -530.007)" fill="#dce5fe"/>
      <path id="Trazado_130633" data-name="Trazado 130633" d="M387.2,288.85H369.85V216.424c0-28.446,20.337-52.486,47.3-55.918l35.484-4.516a52.234,52.234,0,0,1,42.156,13.754,57.564,57.564,0,0,1,18.124,42.164v63.231H495.561V211.907a38.992,38.992,0,0,0-12.277-28.561,35.38,35.38,0,0,0-28.555-9.315l-35.484,4.527c-18.264,2.314-32.04,18.6-32.04,37.866Z" transform="translate(-318.937 -136.571)" fill="#f5ca56"/>
      <path id="Trazado_130634" data-name="Trazado 130634" d="M288.434,676.984l160.954-9.759c6.538-.4,12.038,5.3,12.038,12.465V819.237c0,6.894-5.106,12.483-11.407,12.483H292.932c-6.154,0-11.2-5.346-11.4-12.077l-3.867-129.794C277.464,683.076,282.245,677.359,288.434,676.984Z" transform="translate(-245.76 -542.684)" fill="#f5ca56"/>
      <path id="Trazado_130635" data-name="Trazado 130635" d="M627.382,922.214l-9.742-30.652a10.982,10.982,0,0,1,2.132-10.584,30.481,30.481,0,0,0,7.614-21.733c-.619-14.952-11.782-27.074-25.449-27.649-15.123-.635-27.567,12.592-27.567,29a30.065,30.065,0,0,0,9.825,22.545,10.953,10.953,0,0,1,3.071,11.431l-8.783,27.635c-2.137,6.721,2.425,13.741,8.928,13.741h31.046C624.959,935.955,629.518,928.935,627.382,922.214Z" transform="translate(-481.278 -673.154)" fill="#b7973e"/>
      <path id="Trazado_130636" data-name="Trazado 130636" d="M1715.191,730.461l22.1-5.146s14.779-1.328,16.777,11.807,1.421,90.948.794,107.005,5.185,22.772,14.216,25.179c-19.266,6.377-43.7,7.521-70.01,6.758Z" transform="translate(-1374.029 -588.78)" fill="#7d6eb2"/>
      <path id="Trazado_130637" data-name="Trazado 130637" d="M1544.306,731.659s40.246,2.211,67.038-6.214c0,0-17.81-1.221-17.81,39.9,0,31.44,4.663,91.447.592,102.838s-19.293,26.7-41.114,13.545S1544.306,731.659,1544.306,731.659Z" transform="translate(-1248.08 -588.91)" fill="#b5abd8"/>
      <path id="Trazado_130638" data-name="Trazado 130638" d="M1507.47,397.509s44.406,4.84,50.114-2.681c0,0-4.55-13.545-18.064-12.644S1507.47,397.509,1507.47,397.509Z" transform="translate(-1221.943 -316.409)" fill="#7d97f4"/>
      <path id="Trazado_130639" data-name="Trazado 130639" d="M806.809,411.411c3.871,43.515,12,135.562,15.544,180.4a20.159,20.159,0,0,0,18.806,18.534c35.645,2.287,115.863,6.727,146.647,2.6h0A20.487,20.487,0,0,1,976.377,594.4l1.635-201.2a10.332,10.332,0,0,1,13.795-9.722c4.195,1.572,7.371,4.919,9.549,10.008-2.906-8.47-7.476-14.665-18.064-12.644,0,0-103.541,1.031-153.785,4.149a24.309,24.309,0,0,0-22.7,26.422Z" transform="translate(-665.705 -315.07)" fill="#3a277b"/>
      <g id="Grupo_56046" data-name="Grupo 56046" transform="translate(145.067 70.316)">
        <path id="Trazado_130640" data-name="Trazado 130640" d="M848.044,409.732l139.128-5.362c-5.737,42.484-3.316,128.994-1.126,214.254a13.389,13.389,0,0,0,7.666,11.755h0s-92.8,1.068-132.671-1.759A20.1,20.1,0,0,1,842.6,611.557c-5.473-36.528-18.561-130.9-15.845-180.855a22.184,22.184,0,0,1,21.285-20.97Z" transform="translate(-826.392 -404.37)" fill="rgba(125,110,178,0.6)"/>
      </g>
      <path id="Trazado_130641" data-name="Trazado 130641" d="M923.881,696.357l1.623,15.585a5.775,5.775,0,0,0,5.513,5.17l9.074.349a5.774,5.774,0,0,0,5.993-5.774V694.88a5.775,5.775,0,0,0-6.245-5.754l-10.7.881a5.774,5.774,0,0,0-5.261,6.35Z" transform="translate(-758.685 -560.069)" opacity="0.78" fill="url(#linear-gradient-2)"/>
      <path id="Trazado_130642" data-name="Trazado 130642" d="M1066.5,690.1c15.1-.47,73.072-2.353,87.71-2.829a3.265,3.265,0,0,1,3.372,3.267h0a3.271,3.271,0,0,1-3.147,3.269l-87.648,3.254a3.271,3.271,0,0,1-3.364-2.848l-.056-.412a3.267,3.267,0,0,1,3.133-3.7Z" transform="translate(-869.406 -558.612)" opacity="0.78" fill="url(#linear-gradient-3)"/>
      <path id="Trazado_130643" data-name="Trazado 130643" d="M1072.2,772.193h0a1.39,1.39,0,0,0,1.225.678l60.187-1.307a1.392,1.392,0,0,0,1.361-1.39v-3.968a1.39,1.39,0,0,0-1.444-1.39L1075.021,767a3.432,3.432,0,0,0-2.819,5.189Z" transform="translate(-876.056 -620.163)" opacity="0.78" fill="url(#linear-gradient-4)"/>
      <path id="Trazado_130644" data-name="Trazado 130644" d="M923.88,906.089l1.623,15.583a5.774,5.774,0,0,0,5.521,5.17l9.074.349a5.774,5.774,0,0,0,5.993-5.774V904.608a5.774,5.774,0,0,0-6.245-5.752l-10.7.878a5.775,5.775,0,0,0-5.269,6.354Z" transform="translate(-758.684 -726.546)" opacity="0.78" fill="url(#linear-gradient-5)"/>
      <path id="Trazado_130645" data-name="Trazado 130645" d="M1066.522,899.817c15.1-.468,73.074-2.353,87.717-2.823a3.267,3.267,0,0,1,3.372,3.269h0a3.269,3.269,0,0,1-3.147,3.267l-87.648,3.254a3.269,3.269,0,0,1-3.364-2.848l-.056-.412a3.269,3.269,0,0,1,3.126-3.706Z" transform="translate(-869.428 -725.081)" opacity="0.78" fill="url(#linear-gradient-6)"/>
      <path id="Trazado_130646" data-name="Trazado 130646" d="M1072.2,981.913h0a1.39,1.39,0,0,0,1.225.679l60.187-1.308a1.39,1.39,0,0,0,1.361-1.39v-3.968a1.392,1.392,0,0,0-1.444-1.39l-58.51,2.188a3.432,3.432,0,0,0-2.819,5.189Z" transform="translate(-876.056 -786.633)" opacity="0.78" fill="url(#linear-gradient-4)"/>
      <path id="Trazado_130647" data-name="Trazado 130647" d="M923.878,1115.783l1.623,15.583a5.775,5.775,0,0,0,5.521,5.17l9.074.349a5.774,5.774,0,0,0,5.993-5.774V1114.3a5.774,5.774,0,0,0-6.245-5.754l-10.7.879a5.774,5.774,0,0,0-5.269,6.358Z" transform="translate(-758.682 -892.991)" opacity="0.78" fill="url(#linear-gradient-8)"/>
      <path id="Trazado_130648" data-name="Trazado 130648" d="M1066.507,1109.515c15.1-.47,73.072-2.355,87.71-2.832a3.267,3.267,0,0,1,3.372,3.269h0a3.267,3.267,0,0,1-3.147,3.267l-87.649,3.254a3.267,3.267,0,0,1-3.364-2.846l-.056-.425a3.267,3.267,0,0,1,3.133-3.687Z" transform="translate(-869.412 -891.526)" opacity="0.78" fill="url(#linear-gradient-9)"/>
      <path id="Trazado_130649" data-name="Trazado 130649" d="M1072.221,1191.627h0a1.394,1.394,0,0,0,1.225.679l60.187-1.31a1.39,1.39,0,0,0,1.361-1.39v-3.96a1.392,1.392,0,0,0-1.444-1.39l-58.51,2.188a3.434,3.434,0,0,0-2.819,5.183Z" transform="translate(-876.076 -953.102)" opacity="0.78" fill="url(#linear-gradient-10)"/>
      <path id="Trazado_130652" data-name="Trazado 130652" d="M1256.1,1306.385a2.993,2.993,0,0,1-1.99-.949c-2.724-2.5-3.355-6.42-3.506-10.087-1.316,1.483-2.664,2.92-4,4.343l-.452-.425c1.479-1.574,2.976-3.17,4.42-4.82a105.965,105.965,0,0,1,.67-14.783,30.378,30.378,0,0,1,2.13-8.994,7.23,7.23,0,0,1,2.223-3,3.431,3.431,0,0,1,3.739-.227,4.563,4.563,0,0,1,1.611,3.339c.825,6.37-1.67,12.217-3.9,16a53.674,53.674,0,0,1-5.847,7.888c.107,3.712.619,7.808,3.335,10.312a2.375,2.375,0,0,0,1.621.786c.825-.031,1.462-.792,1.98-1.534a40.267,40.267,0,0,0,5.247-10.477,10.788,10.788,0,0,1,.918-3.195l.579.206q-.383,1.59-.891,3.131a10.189,10.189,0,0,0,.122,3.223c.115.578.6,2.475,2.05,2.755,1.087.206,2.157-.553,3.368-2.392l4.23-6.43-.392,1.687c-.221.949-.584,3.219.8,3.789.8.326,1.629-.142,2.512-.639a4.443,4.443,0,0,1,2.718-.85l.318.041-.054.318c-.229,1.318-.114,2.941.957,3.178.7.155,1.274-.373,1.937-.986a4.454,4.454,0,0,1,1.873-1.227l.144.6a4.034,4.034,0,0,0-1.6,1.081c-.724.668-1.473,1.359-2.489,1.136-1.394-.309-1.685-1.972-1.487-3.543a4.852,4.852,0,0,0-2.017.79c-.971.549-1.978,1.114-3.05.672-1-.413-1.483-1.506-1.384-3.079l-2.5,3.8c-.86,1.307-2.209,3-4,2.662-1.237-.235-2.18-1.444-2.539-3.242a10.448,10.448,0,0,1-.188-1.444,41,41,0,0,1-4.673,8.8,3.422,3.422,0,0,1-2.475,1.8Zm1.627-38.784a3.137,3.137,0,0,0-1.78.579,6.43,6.43,0,0,0-2.015,2.743,29.926,29.926,0,0,0-2.079,8.812,105.683,105.683,0,0,0-.681,14.024,51.685,51.685,0,0,0,5.335-7.282c2.182-3.7,4.618-9.408,3.822-15.606a3.851,3.851,0,0,0-1.343-2.9,2.267,2.267,0,0,0-1.26-.355Z" transform="translate(-1044.854 -1018.777)" fill="#fff"/>
      <path id="Trazado_130656" data-name="Trazado 130656" d="M946.439,725.8h0a1.755,1.755,0,0,1,2.436.6l2.355,3.987a.563.563,0,0,0,1.006-.068l5.29-12.58a.619.619,0,0,1,1.2.241,24.591,24.591,0,0,1-6.738,17.276s-3.384-1.223-6.228-7.086A1.842,1.842,0,0,1,946.439,725.8Z" transform="translate(-775.928 -582.473)" fill="#fff"/>
      <path id="Trazado_130657" data-name="Trazado 130657" d="M946.439,933.883h0a1.755,1.755,0,0,1,2.436.6l2.355,3.986a.565.565,0,0,0,1.006-.068l5.29-12.58a.619.619,0,0,1,1.2.241,24.591,24.591,0,0,1-6.738,17.276s-3.384-1.223-6.228-7.086a1.842,1.842,0,0,1,.678-2.37Z" transform="translate(-775.928 -747.64)" fill="#fff"/>
      <path id="Trazado_130658" data-name="Trazado 130658" d="M952.427,1144.673h0a1.755,1.755,0,0,1,2.436.6l2.351,3.987a.565.565,0,0,0,1.006-.068l5.29-12.58a.619.619,0,0,1,1.2.241,24.586,24.586,0,0,1-6.74,17.276s-3.382-1.223-6.226-7.086A1.842,1.842,0,0,1,952.427,1144.673Z" transform="translate(-780.678 -914.958)" fill="#fff"/>
      <path id="Trazado_130659" data-name="Trazado 130659" d="M1087.383,1006.682c.089.278-.922.7-1.516-.433-.023-.544-.353-2.873-.027-3.316a43.286,43.286,0,0,1,5.082-5.312.8.8,0,0,1,.1,1.107l-1.627,1.7a8.023,8.023,0,0,1,.951,1.877,2.287,2.287,0,0,1-.229,1.679,19.658,19.658,0,0,1-1.044,1.706A2.246,2.246,0,0,1,1087.383,1006.682Z" transform="translate(-887.153 -804.957)" fill="url(#linear-gradient-11)"/>
      <path id="Trazado_130660" data-name="Trazado 130660" d="M1092.679,1016.54l-1.483,1.256-.466,1.252,1.322,1.466a17.246,17.246,0,0,1,.775-3.019C1093.157,1016.95,1092.986,1016.7,1092.679,1016.54Z" transform="translate(-891.149 -819.975)" fill="url(#linear-gradient-12)"/>
      <path id="Trazado_130661" data-name="Trazado 130661" d="M950.506,1490.33s-.373,2.12-.557,4.219a1.443,1.443,0,0,0,1.382,1.567c2.8.116,8.775.343,10.93.246a.47.47,0,0,0,.412-.644h0a1.055,1.055,0,0,0-.54-.567l-9.874-4.537Z" transform="translate(-779.397 -1196.054)" fill="url(#linear-gradient-13)"/>
      <path id="Trazado_130662" data-name="Trazado 130662" d="M951.19,1482.782l.3,2.537a3.152,3.152,0,0,0,2.912-.1l-.716-2.827Z" transform="translate(-780.386 -1189.752)" fill="url(#linear-gradient-14)"/>
      <path id="Trazado_130663" data-name="Trazado 130663" d="M922.094,1253.029c-.13.662-.7,33.049,2.766,47.563a.493.493,0,0,1-.291.573,8.615,8.615,0,0,1-2.819.573.849.849,0,0,1-.841-.619c-.99-3.366-5.731-20.238-6.35-36.355-.691-18.01,0-.619,0-.619l.412-11.136Z" transform="translate(-751.065 -1007.677)" fill="url(#linear-gradient-15)"/>
      <path id="Trazado_130664" data-name="Trazado 130664" d="M893,1495.7a15.276,15.276,0,0,0-1.173,3.918.881.881,0,0,0,.775,1.056c.924.091,2.345.206,3.483.206a.879.879,0,0,0,.87-.982,7.444,7.444,0,0,0-1.732-4.069Z" transform="translate(-733.252 -1200.317)" fill="url(#linear-gradient-16)"/>
      <path id="Trazado_130665" data-name="Trazado 130665" d="M895.05,1479.317l.7,3.836a2.472,2.472,0,0,0,2.062.142l-.336-4.125Z" transform="translate(-735.824 -1187.196)" fill="url(#linear-gradient-17)"/>
      <path id="Trazado_130666" data-name="Trazado 130666" d="M881.647,1251.022c-2.832,17.088.619,42.234,1.776,47.155a.773.773,0,0,0,.619.584,5.156,5.156,0,0,0,2.215-.089.707.707,0,0,0,.505-.648c.155-3.98-.126-28.406,2.514-38.06a2.186,2.186,0,0,1,.846-1.21l5.121-3.64.392-5.884Z" transform="translate(-724.321 -1004.676)" fill="url(#linear-gradient-18)"/>
      <path id="Trazado_130667" data-name="Trazado 130667" d="M899.813,1095.554a79.729,79.729,0,0,0-17.847,2.229c-2.528,14.758-.441,31.78-.441,31.78,6.568,1.722,13.978-1.054,13.978-1.054,1.093-6.168,6.187-23.529,6.187-23.529a27.78,27.78,0,0,0,10.373-3.3,18.179,18.179,0,0,1-3.6-7.521A28.256,28.256,0,0,1,899.813,1095.554Z" transform="translate(-724.445 -881.587)" fill="#26aab7"/>
      <path id="Trazado_130668" data-name="Trazado 130668" d="M1031.69,1037.845a1.621,1.621,0,0,0-1.887-.53c-1.25,5.273-7.8,9.551-14.523,11.642a18.1,18.1,0,0,0,3.6,7.521C1030.04,1050.2,1031.69,1037.845,1031.69,1037.845Z" transform="translate(-831.259 -836.375)" fill="url(#linear-gradient-19)"/>
      <path id="Trazado_130669" data-name="Trazado 130669" d="M854.489,1119.946l-3.254-8.216s-7.925,5.385-9.235,12.223a18.733,18.733,0,0,1,6.89,1.856C849.482,1122.565,854.489,1119.946,854.489,1119.946Z" transform="translate(-693.715 -895.533)" fill="#26aab7"/>
      <path id="Trazado_130670" data-name="Trazado 130670" d="M921.2,1067.52l-2.7,7.808a.281.281,0,0,0,.128.338,6.334,6.334,0,0,0,6.583-.441,1.336,1.336,0,0,0,.619-.947l.872-6.758Z" transform="translate(-754.424 -860.441)" fill="url(#linear-gradient-20)"/>
      <path id="Trazado_130671" data-name="Trazado 130671" d="M933.5,1032.46s2.966,5.581,2.586,7.837-4.055,2.093-7.263.262l-2.242-6.026Z" transform="translate(-760.852 -832.611)" fill="url(#linear-gradient-21)"/>
      <path id="Trazado_130672" data-name="Trazado 130672" d="M913.288,1021.982a.229.229,0,0,0,.1-.336,6.025,6.025,0,0,1-.825-1.751s-.532-.342,1.357-.794,4.708-1.155,5.3-2.761c.577-1.569-.94-5.513-3.362-2.37a.229.229,0,0,1-.363,0,2.372,2.372,0,0,0-2.887-.938,2.175,2.175,0,0,0-1.489,2.1.229.229,0,0,1-.27.235,2.644,2.644,0,0,0-3.093,1.444c-.633,1.39-.223,2.176.153,2.559a.229.229,0,0,1-.1.381,1.382,1.382,0,0,0-.973,1.576c.08,1.458,1.712,1.33,2.176,1.262a.235.235,0,0,1,.206.072c.4.441,2.192,2.312,4.125,2.539a.231.231,0,0,0,.243-.307l-.839-2.442a.229.229,0,0,1,.126-.287Z" transform="translate(-745.175 -816.996)" fill="url(#linear-gradient-22)"/>
      <path id="Trazado_130673" data-name="Trazado 130673" d="M931.005,1056.3s-2.11-1.444-2.269-.227,1.9,1.765,2.918,1.312Z" transform="translate(-762.556 -850.968)" fill="url(#linear-gradient-23)"/>
      <path id="Trazado_130674" data-name="Trazado 130674" d="M847.4,1172.48s-2.77,12.5-.262,19.524c-3.075,1.425-2.508,1.157-2.508,1.157s-6.086-17.773-4.127-22.516C844.383,1170.232,846.306,1171.263,847.4,1172.48Z" transform="translate(-692.219 -942.224)" fill="url(#linear-gradient-24)"/>
      <path id="Trazado_130675" data-name="Trazado 130675" d="M863.6,1273.246s1.586,2.05,1.46,2.869-.159,1.149-.159,1.149-.8-.544-.745-1.237c.109,2.209.85,4.721.177,4.6s-4.154-3.329-3.366-6.748C862.75,1272.633,863.251,1272.767,863.6,1273.246Z" transform="translate(-708.678 -1023.466)" fill="url(#linear-gradient-25)"/>
      <circle id="Elipse_4303" data-name="Elipse 4303" cx="38.19" cy="38.19" r="38.19" transform="translate(376.949 97.547)" fill="#3a277b"/>
      <circle id="Elipse_4304" data-name="Elipse 4304" cx="34.556" cy="34.556" r="34.556" transform="translate(380.657 101.596)" fill="#fff"/>
      <path id="Trazado_130676" data-name="Trazado 130676" d="M2010.85,738.84s7.243,19.1,9.532,23.077c2.656,4.613,10.415,1.673,10.027-2.188s-9.45-19.825-9.45-19.825Z" transform="translate(-1621.51 -599.545)" fill="#2c909a"/>
      <path id="Trazado_130677" data-name="Trazado 130677" d="M2053.569,611.28l45.022-15.61-.474,42.242L2052.34,627.7Z" transform="translate(-1654.444 -485.901)" fill="#aee6e6"/>
      <ellipse id="Elipse_4305" data-name="Elipse 4305" cx="4.424" cy="21.708" rx="4.424" ry="21.708" transform="translate(439.765 109.305)" fill="#0d585f"/>
      <path id="Trazado_130678" data-name="Trazado 130678" d="M2266.367,640.122c-.4-.412-1.27-1.974-2.017-6.03a92.04,92.04,0,0,1,0-28.631c.747-4.055,1.617-5.624,2.017-6.03.4.412,1.271,1.976,2.017,6.03a92.06,92.06,0,0,1,0,28.631C2267.637,638.148,2266.767,639.715,2266.367,640.122Z" transform="translate(-1821.842 -488.886)" fill="#aee6e6"/>
      <g id="Grupo_56047" data-name="Grupo 56047" transform="translate(441.388 110.544)" clip-path="url(#clip-path)">
        <path id="Trazado_130679" data-name="Trazado 130679" d="M2255.74,671.6c0,3.69-1.986,6.68-5.919,6.68a6.693,6.693,0,1,1,0-13.358C2253.754,664.92,2255.74,667.91,2255.74,671.6Z" transform="translate(-2246.934 -651.414)" fill="#26aab7"/>
      </g>
      <path id="Trazado_130681" data-name="Trazado 130681" d="M2007.148,666.311a25.256,25.256,0,0,1,8.437.412,45.074,45.074,0,0,0,.334,17.641h-9.262a3,3,0,0,1-2.966-2.531,42.012,42.012,0,0,1-.425-11.784,4.442,4.442,0,0,1,3.881-3.739Z" transform="translate(-1615.282 -541.832)" fill="#26aab7"/>
      <path id="Trazado_130682" data-name="Trazado 130682" d="M2019.731,680.967h-7.218a.658.658,0,0,1-.553-1.017.187.187,0,0,1,.311.206.289.289,0,0,0,.241.443h7.218a.289.289,0,0,0,.287-.289V679.8a.289.289,0,0,0-.287-.287h-7.27a.186.186,0,1,1,0-.371h7.27a.66.66,0,0,1,.658.658v.513A.66.66,0,0,1,2019.731,680.967Z" transform="translate(-1622.307 -552.157)" fill="#7d97f4"/>
      <path id="Trazado_130683" data-name="Trazado 130683" d="M2016.61,696.4h-7.218a.656.656,0,0,1-.553-1.015.183.183,0,0,1,.256-.056.186.186,0,0,1,.056.258.287.287,0,0,0,.241.441h7.218a.287.287,0,0,0,.287-.287v-.514a.287.287,0,0,0-.287-.287h-7.27a.186.186,0,0,1,0-.371h7.27a.658.658,0,0,1,.658.658v.514a.658.658,0,0,1-.658.658Z" transform="translate(-1619.829 -564.405)" fill="#7d97f4"/>
      <path id="Trazado_130684" data-name="Trazado 130684" d="M2089.282,622.641a.186.186,0,0,1-.055-.363l34.1-10.85a.186.186,0,0,1,.113.353l-34.094,10.852A.257.257,0,0,1,2089.282,622.641Z" transform="translate(-1683.619 -498.405)" fill="#fff" opacity="0.51"/>
      <path id="Trazado_130685" data-name="Trazado 130685" d="M2066.961,670.787a.186.186,0,0,1-.07-.357l1.755-.718a.186.186,0,1,1,.14.342l-1.755.718A.172.172,0,0,1,2066.961,670.787Z" transform="translate(-1665.904 -544.658)" fill="#fff" opacity="0.51"/>
      <path id="Trazado_130686" data-name="Trazado 130686" d="M2019.736,714.573h-7.218a.658.658,0,0,1-.553-1.015.187.187,0,0,1,.312.206.283.283,0,0,0-.01.293.278.278,0,0,0,.252.151h7.218a.287.287,0,0,0,.287-.287v-.514a.287.287,0,0,0-.286-.287h-7.27a.186.186,0,1,1,0-.371h7.27a.658.658,0,0,1,.658.658v.513A.658.658,0,0,1,2019.736,714.573Z" transform="translate(-1622.312 -578.836)" fill="#7d97f4"/>
      <path id="Trazado_130687" data-name="Trazado 130687" d="M2023.007,734.689h-7.218a.656.656,0,0,1-.551-1.015.184.184,0,0,1,.256-.056.185.185,0,0,1,.056.258.279.279,0,0,0-.012.293.285.285,0,0,0,.252.148h7.218a.287.287,0,0,0,.287-.287v-.514a.287.287,0,0,0-.286-.287h-7.27a.186.186,0,0,1,0-.371h7.27a.658.658,0,0,1,.658.658v.513A.658.658,0,0,1,2023.007,734.689Z" transform="translate(-1624.909 -594.798)" fill="#7d97f4"/>
      <path id="Trazado_130688" data-name="Trazado 130688" d="M2045.813,790.316a4.736,4.736,0,0,1-1-.109,4.64,4.64,0,0,1-3.277-2.654l-5.775-12.809a.188.188,0,0,1,.093-.245.185.185,0,0,1,.245.095l5.775,12.807a4.275,4.275,0,0,0,3.017,2.45,4.187,4.187,0,0,0,3.694-.949l.165-.146a.186.186,0,0,1,.247.27l-.169.151A4.536,4.536,0,0,1,2045.813,790.316Z" transform="translate(-1641.27 -627.837)" fill="#7d97f4"/>
      <path id="Trazado_130689" data-name="Trazado 130689" d="M2029.338,760.127a.187.187,0,0,1-.169-.109l-.644-1.429a.186.186,0,1,1,.338-.151l.644,1.427a.186.186,0,0,1-.093.245A.172.172,0,0,1,2029.338,760.127Z" transform="translate(-1635.523 -615.004)" fill="#7d97f4"/>
      <path id="Trazado_130690" data-name="Trazado 130690" d="M2274.189,674.815a.186.186,0,0,1-.186-.173,5.26,5.26,0,0,0-1.856-4,6.568,6.568,0,0,0-4.673-.961.186.186,0,0,1-.07-.363,6.819,6.819,0,0,1,4.97,1.031,5.607,5.607,0,0,1,2.007,4.273.188.188,0,0,1-.173.206Z" transform="translate(-1825.049 -544.279)" fill="#7d97f4"/>
      <path id="Trazado_130691" data-name="Trazado 130691" d="M2062,568.23l-42.329,60.927,5.106,3.508,42.853-61.554Z" transform="translate(-1628.512 -464.12)" fill="#3a277b"/>
      <circle id="Elipse_4306" data-name="Elipse 4306" cx="38.029" cy="38.029" r="38.029" transform="translate(361.507 53.782) rotate(-45)" fill="#3a277b"/>
      <circle id="Elipse_4307" data-name="Elipse 4307" cx="34.412" cy="34.412" r="34.412" transform="translate(380.95 19.783)" fill="#fff"/>
      <path id="Trazado_130692" data-name="Trazado 130692" d="M2046.845,268.952A1.052,1.052,0,0,1,2045.8,270H1989.15a1.05,1.05,0,0,1-1.048-1.048l-.472-32.558a1.825,1.825,0,0,1,1.922-1.615l55.369-1.433a2.64,2.64,0,0,1,2.71,2.7Z" transform="translate(-1603.079 -198.3)" fill="url(#linear-gradient-26)"/>
      <path id="Trazado_130693" data-name="Trazado 130693" d="M2051.359,272.688a.994.994,0,0,1-.992.992h-54.311a.994.994,0,0,1-.99-.992l-.445-29.557a2.439,2.439,0,0,1,2.557-2.38l53.067-1.423a1.856,1.856,0,0,1,1.9,1.9Z" transform="translate(-1608.627 -203.048)" fill="#7d6eb2"/>
      <path id="Trazado_130694" data-name="Trazado 130694" d="M1999.175,322.847a.083.083,0,0,1-.08-.078l-.035-2.4a.08.08,0,1,1,.161,0l.035,2.4a.08.08,0,0,1-.078.082Z" transform="translate(-1612.152 -267.314)" fill="#fff"/>
      <path id="Trazado_130695" data-name="Trazado 130695" d="M1998.367,258.83a.079.079,0,0,1-.078-.08l-.136-9.179a1.955,1.955,0,0,1,.561-1.458,2.721,2.721,0,0,1,1.772-.619l16.946-.454a.083.083,0,0,1,.083.076.079.079,0,0,1-.078.082l-16.95.456a2.481,2.481,0,0,0-1.65.565,1.792,1.792,0,0,0-.511,1.34l.134,9.179a.08.08,0,0,1-.078.082Z" transform="translate(-1611.43 -209.17)" fill="#fff"/>
      <path id="Trazado_130696" data-name="Trazado 130696" d="M2007.957,279.6c.056-2.442.035-24.076-.105-25.944s2.77-2.219,7.237-2.429,42.16-1.041,43.131-1.12c2.182-.177,2.632,3.083,2.415,10.161-.165,5.319-.437,14.079-.561,18.107a2.223,2.223,0,0,1-2.219,2.155c-9.074.025-43.835.126-46.149.194C2009.043,280.805,2007.934,280.566,2007.957,279.6Z" transform="translate(-1619.126 -211.596)" fill="#fff" opacity="0.37"/>
      <rect id="Rectángulo_30913" data-name="Rectángulo 30913" width="66.794" height="2.86" rx="1.43" transform="translate(381.567 70.492)" fill="url(#linear-gradient-27)"/>
      <circle id="Elipse_4308" data-name="Elipse 4308" cx="9.301" cy="9.301" r="9.301" transform="translate(405.455 22.638)" fill="#26aab7"/>
      <path id="Trazado_130697" data-name="Trazado 130697" d="M2091.786,211.364h-.01a.188.188,0,0,1-.179-.206,8.874,8.874,0,0,1,.126-1.1.191.191,0,1,1,.375.068,8.535,8.535,0,0,0-.122,1.054.192.192,0,0,1-.189.186Z" transform="translate(-1685.604 -179.689)" fill="#fff" opacity="0.71"/>
      <path id="Trazado_130698" data-name="Trazado 130698" d="M2096.17,180.824a.207.207,0,0,1-.085-.021.19.19,0,0,1-.084-.256,8.738,8.738,0,0,1,7.837-4.828,9.016,9.016,0,0,1,1.584.142.194.194,0,0,1,.153.223.19.19,0,0,1-.221.153,8.458,8.458,0,0,0-1.516-.136,8.359,8.359,0,0,0-7.5,4.626A.194.194,0,0,1,2096.17,180.824Z" transform="translate(-1689.084 -152.558)" fill="#fff" opacity="0.71"/>
      <circle id="Elipse_4309" data-name="Elipse 4309" cx="7.872" cy="7.872" r="7.872" transform="translate(407.088 24.269)" fill="#fff" opacity="0.71"/>
      <path id="Trazado_130699" data-name="Trazado 130699" d="M2128.188,196.069a2.437,2.437,0,1,1-4.828,0,2.418,2.418,0,0,1,4.828,0Z" transform="translate(-1710.817 -166.902)" fill="#26aab7"/>
      <path id="Trazado_130700" data-name="Trazado 130700" d="M2114.08,226.377h5.892a1.425,1.425,0,0,0,1.357-.992l.318-.992a1.423,1.423,0,0,0-.86-1.772,11,11,0,0,0-7.424.08,1.421,1.421,0,0,0-.909,1.722l.243.9A1.425,1.425,0,0,0,2114.08,226.377Z" transform="translate(-1702.118 -189.305)" fill="#26aab7"/>
      <circle id="Elipse_4310" data-name="Elipse 4310" cx="9.301" cy="9.301" r="9.301" transform="translate(388.003 48.458)" fill="#26aab7"/>
      <path id="Trazado_130701" data-name="Trazado 130701" d="M2007.16,336.554h-.01a.192.192,0,0,1-.181-.206,9.3,9.3,0,0,1,.128-1.1.191.191,0,0,1,.375.068,8.13,8.13,0,0,0-.124,1.054A.188.188,0,0,1,2007.16,336.554Z" transform="translate(-1618.428 -279.061)" fill="#fff" opacity="0.71"/>
      <path id="Trazado_130702" data-name="Trazado 130702" d="M2011.55,306.024a.206.206,0,0,1-.085-.021.19.19,0,0,1-.085-.256,8.738,8.738,0,0,1,7.837-4.828,9.014,9.014,0,0,1,1.584.142.194.194,0,0,1,.153.223.19.19,0,0,1-.221.153,8.456,8.456,0,0,0-1.516-.136,8.365,8.365,0,0,0-7.5,4.618A.19.19,0,0,1,2011.55,306.024Z" transform="translate(-1621.915 -251.938)" fill="#fff" opacity="0.71"/>
      <circle id="Elipse_4311" data-name="Elipse 4311" cx="7.872" cy="7.872" r="7.872" transform="translate(389.637 50.089)" fill="#fff" opacity="0.71"/>
      <path id="Trazado_130703" data-name="Trazado 130703" d="M2043.566,321.269a2.436,2.436,0,1,1-4.826,0,2.417,2.417,0,0,1,4.826,0Z" transform="translate(-1643.649 -266.29)" fill="#26aab7"/>
      <path id="Trazado_130704" data-name="Trazado 130704" d="M2029.455,351.577h5.894a1.427,1.427,0,0,0,1.357-.992l.318-.992a1.423,1.423,0,0,0-.86-1.772,11,11,0,0,0-7.424.08,1.419,1.419,0,0,0-.91,1.722l.244.9A1.425,1.425,0,0,0,2029.455,351.577Z" transform="translate(-1634.948 -288.685)" fill="#26aab7"/>
      <circle id="Elipse_4312" data-name="Elipse 4312" cx="9.301" cy="9.301" r="9.301" transform="translate(420.091 48.526)" fill="#26aab7"/>
      <path id="Trazado_130705" data-name="Trazado 130705" d="M2162.746,336.879h-.01a.19.19,0,0,1-.179-.206,8.634,8.634,0,0,1,.128-1.1.188.188,0,0,1,.221-.153.19.19,0,0,1,.153.221,8.584,8.584,0,0,0-.122,1.054A.19.19,0,0,1,2162.746,336.879Z" transform="translate(-1741.93 -279.318)" fill="#fff" opacity="0.71"/>
      <path id="Trazado_130706" data-name="Trazado 130706" d="M2167.133,306.36a.178.178,0,0,1-.085-.021.192.192,0,0,1-.084-.256,8.794,8.794,0,0,1,9.423-4.684.19.19,0,0,1-.068.373,8.412,8.412,0,0,0-9.014,4.481A.188.188,0,0,1,2167.133,306.36Z" transform="translate(-1745.413 -252.206)" fill="#fff" opacity="0.71"/>
      <circle id="Elipse_4313" data-name="Elipse 4313" cx="7.872" cy="7.872" r="7.872" transform="translate(421.722 50.157)" fill="#fff" opacity="0.71"/>
      <path id="Trazado_130707" data-name="Trazado 130707" d="M2199.148,321.589a2.437,2.437,0,1,1-4.828,0,2.418,2.418,0,0,1,4.828,0Z" transform="translate(-1767.143 -266.536)" fill="#26aab7"/>
      <path id="Trazado_130708" data-name="Trazado 130708" d="M2185.04,351.9h5.892a1.427,1.427,0,0,0,1.359-.992l.316-.99a1.425,1.425,0,0,0-.86-1.774,11.013,11.013,0,0,0-7.424.08,1.421,1.421,0,0,0-.909,1.722l.243.9A1.429,1.429,0,0,0,2185.04,351.9Z" transform="translate(-1758.444 -288.942)" fill="#26aab7"/>
      <g id="Grupo_56048" data-name="Grupo 56048" transform="translate(396.856 39.855)" opacity="0.81">
        <path id="Trazado_130709" data-name="Trazado 130709" d="M2052.008,265.787a.209.209,0,0,1-.149-.355,35.215,35.215,0,0,1,7.837-5.8.206.206,0,0,1,.192.365,34.728,34.728,0,0,0-7.748,5.735A.206.206,0,0,1,2052.008,265.787Z" transform="translate(-2050.871 -258.998)" fill="#fff"/>
        <path id="Trazado_130710" data-name="Trazado 130710" d="M2047.5,282.915a.205.205,0,0,1-.2-.272,6.094,6.094,0,0,0,.458-2.269.207.207,0,1,1,.412-.045,5.35,5.35,0,0,1-.338,2.038,6.147,6.147,0,0,1,2.337-.522.207.207,0,1,1-.022.412,6.858,6.858,0,0,0-2.572.65A.206.206,0,0,1,2047.5,282.915Z" transform="translate(-2047.297 -275.301)" fill="#fff"/>
        <path id="Trazado_130711" data-name="Trazado 130711" d="M2082.4,259.542h-.033a.206.206,0,0,1-.171-.237,7.356,7.356,0,0,1,.734-2.182l-2.534.311a.207.207,0,0,1-.05-.41l2.933-.359a.2.2,0,0,1,.2.3,7.09,7.09,0,0,0-.881,2.4A.206.206,0,0,1,2082.4,259.542Z" transform="translate(-2073.384 -256.663)" fill="#fff"/>
      </g>
      <g id="Grupo_56049" data-name="Grupo 56049" transform="translate(422.135 39.958)" opacity="0.81">
        <path id="Trazado_130712" data-name="Trazado 130712" d="M2182.718,266.309a.206.206,0,0,1-.142-.056,34.7,34.7,0,0,0-7.746-5.735.207.207,0,0,1,.19-.367,35.026,35.026,0,0,1,7.837,5.8.206.206,0,0,1-.142.355Z" transform="translate(-2173.718 -259.517)" fill="#fff"/>
        <path id="Trazado_130713" data-name="Trazado 130713" d="M2207.013,283.421a.206.206,0,0,1-.076-.014,6.829,6.829,0,0,0-2.572-.652.205.205,0,0,1-.012-.41,6.242,6.242,0,0,1,2.337.52,5.182,5.182,0,0,1-.338-2.036.206.206,0,1,1,.41.043,6.009,6.009,0,0,0,.458,2.269.206.206,0,0,1-.2.274Z" transform="translate(-2197.088 -275.803)" fill="#fff"/>
        <path id="Trazado_130714" data-name="Trazado 130714" d="M2170.989,260.048a.206.206,0,0,1-.206-.173,7.112,7.112,0,0,0-.881-2.4.2.2,0,0,1,.206-.307l2.935.361a.206.206,0,1,1-.052.408l-2.534-.311a7.353,7.353,0,0,1,.734,2.184.206.206,0,0,1-.171.235Z" transform="translate(-2169.871 -257.167)" fill="#fff"/>
      </g>
      <g id="Grupo_56050" data-name="Grupo 56050" transform="translate(404.466 64.067)" opacity="0.81">
        <path id="Trazado_130715" data-name="Trazado 130715" d="M2098.457,381.678c-2.233,0-4.527-.111-6.915-.332a.206.206,0,0,1,.039-.41,67.75,67.75,0,0,0,13.383,0,.207.207,0,0,1,.043.412A63.8,63.8,0,0,1,2098.457,381.678Z" transform="translate(-2089.879 -379.519)" fill="#fff"/>
        <path id="Trazado_130716" data-name="Trazado 130716" d="M2087.251,377.149a.208.208,0,0,1-.1-.029,14.069,14.069,0,0,0-2.807-1.237.212.212,0,0,1,0-.4,7.923,7.923,0,0,0,2.776-1.371.206.206,0,0,1,.262.318,7.614,7.614,0,0,1-2.333,1.254,14.513,14.513,0,0,1,2.306,1.077.206.206,0,0,1-.1.392Z" transform="translate(-2084.199 -374.069)" fill="#fff"/>
        <path id="Trazado_130717" data-name="Trazado 130717" d="M2152.294,377.181a.206.206,0,0,1-.1-.386,14.423,14.423,0,0,1,2.306-1.058,7.59,7.59,0,0,1-2.333-1.254.206.206,0,1,1,.262-.318,7.9,7.9,0,0,0,2.776,1.371.212.212,0,0,1,0,.4,14.02,14.02,0,0,0-2.807,1.237A.207.207,0,0,1,2152.294,377.181Z" transform="translate(-2138.079 -374.102)" fill="#fff"/>
      </g>
      <path id="Trazado_130718" data-name="Trazado 130718" d="M2106.464,281.621H2105.4v-4.446a3.4,3.4,0,0,1,2.9-3.432l2.178-.276a3.207,3.207,0,0,1,2.588.843,3.538,3.538,0,0,1,1.116,2.588v3.877h-1.066V276.9a2.392,2.392,0,0,0-.753-1.753,2.161,2.161,0,0,0-1.753-.571l-2.178.276a2.31,2.31,0,0,0-1.968,2.324Z" transform="translate(-1696.561 -230.127)" fill="#f5ca56"/>
      <path id="Trazado_130719" data-name="Trazado 130719" d="M2100.393,305.44l9.881-.6a.732.732,0,0,1,.738.765v8.567a.736.736,0,0,1-.7.767h-9.643a.734.734,0,0,1-.7-.742l-.237-7.967A.74.74,0,0,1,2100.393,305.44Z" transform="translate(-1692.061 -255.05)" fill="#f5ca56"/>
      <path id="Trazado_130720" data-name="Trazado 130720" d="M2122.374,320.489l-.6-1.883a.676.676,0,0,1,.13-.65,1.867,1.867,0,0,0,.468-1.334,1.631,1.631,0,1,0-3.254.085,1.857,1.857,0,0,0,.6,1.384.67.67,0,0,1,.19.7l-.54,1.7a.629.629,0,0,0,.549.843h1.906a.631.631,0,0,0,.549-.843Z" transform="translate(-1707.451 -263.054)" fill="#b49748"/>
      <path id="Trazado_130721" data-name="Trazado 130721" d="M1719.149,316.33s.433.777-2.268,2.044c-1.512.705-4.459,1.759-4.8,4.714a3.487,3.487,0,0,1-2.98,3.019c-4.034.639-10.231,2.693-11.116,9.266-.674,5.016,2.091,6.872,4.968,7.486a3.813,3.813,0,0,1,3.155,4.331c-.375,1.91.27,4.1,3.834,5.789,7.983,3.782,15.661-9.487,15.661-9.487l1.225-22.974Z" transform="translate(-1373.087 -264.17)" fill="url(#linear-gradient-28)"/>
      <path id="Trazado_130722" data-name="Trazado 130722" d="M1715.613,362.907a.751.751,0,0,1-.363-.115,5.458,5.458,0,0,1-2.493-5.607,5.184,5.184,0,0,1,1.912-3.228,8.936,8.936,0,0,1,2.353-1.171c1.357-.5,2.753-.949,4.156-1.324l.344-.093a13.232,13.232,0,0,0,2.434-.815,3.894,3.894,0,0,0,2-1.922,5.321,5.321,0,0,0,.287-1.5,4.268,4.268,0,0,1,.437-1.811.029.029,0,0,1,.035,0,.027.027,0,0,1,0,.035,4.21,4.21,0,0,0-.431,1.788,5.427,5.427,0,0,1-.289,1.518,3.961,3.961,0,0,1-2.023,1.951,13.368,13.368,0,0,1-2.442.825l-.346.093c-1.4.375-2.8.825-4.149,1.322a8.935,8.935,0,0,0-2.341,1.165,5.14,5.14,0,0,0-1.893,3.2,5.391,5.391,0,0,0,2.475,5.554c.14.08.412.179.52.029a.027.027,0,0,1,.037,0,.025.025,0,0,1,0,.035.256.256,0,0,1-.215.078Z" transform="translate(-1384.827 -287.175)" fill="#bdd0fb"/>
      <path id="Trazado_130723" data-name="Trazado 130723" d="M1720.074,398.168a.025.025,0,0,1-.021-.01,5.189,5.189,0,0,1-1.126-3,3.325,3.325,0,0,1,1.444-2.811.025.025,0,0,1,.018-.007.025.025,0,0,1,.017.007.029.029,0,0,1,0,.037,3.271,3.271,0,0,0-1.419,2.766,5.088,5.088,0,0,0,1.116,2.976.024.024,0,0,1,.007.018.025.025,0,0,1-.007.018A.023.023,0,0,1,1720.074,398.168Z" transform="translate(-1389.791 -324.5)" fill="#bdd0fb"/>
      <path id="Trazado_130724" data-name="Trazado 130724" d="M1863.106,284.59s-9.8,15.005-21.706,18.056c0,0,2.436,6.162,4.246,6.845,0,0,14.512-11.685,18.1-22.8Z" transform="translate(-1487.006 -238.976)" fill="#f5ca56"/>
      <path id="Trazado_130725" data-name="Trazado 130725" d="M1699.5,745.191l-.276,2.516a1.07,1.07,0,0,1-.955.92,18.249,18.249,0,0,1-3.584.105.891.891,0,0,1-.825-1.134,8.915,8.915,0,0,1,1.743-3.3l2.972-.043a.879.879,0,0,1,.926.936Z" transform="translate(-1369.866 -603.842)" fill="url(#linear-gradient-29)"/>
      <path id="Trazado_130726" data-name="Trazado 130726" d="M1810.191,605l.551,2.747s-1.406,15.917-1.6,22.273a4.744,4.744,0,0,0,.839,2.819l3,4.387-7.484-3.972-.163-.844,1.19-1.58-1.91-17.787a5.156,5.156,0,0,1,.619-3.03l1.489-2.718Z" transform="translate(-1457.786 -493.307)" fill="url(#linear-gradient-30)"/>
      <path id="Trazado_130727" data-name="Trazado 130727" d="M1814.176,739.461l-2.37.037a1.466,1.466,0,0,1-1.14-.5c-.755-.887-2.316-2.611-3.048-2.646-.986-.047-.8,3.221-.8,3.221h-.553l-.769-4.052a2.355,2.355,0,0,1,1.316-2.52h0a3.357,3.357,0,0,0,1.485,2.221c1.233.67,5.022,3.075,5.022,3.075a3.6,3.6,0,0,1,.963.01.584.584,0,0,1-.1,1.155Z" transform="translate(-1458.479 -594.91)" fill="url(#linear-gradient-31)"/>
      <path id="Trazado_130728" data-name="Trazado 130728" d="M1716,607.781s-9.54,17.581-11.035,21.586a36.129,36.129,0,0,0-2,7.647c-.025.493-.67.973-2.475,1a1.779,1.779,0,0,1-1.621-.66.928.928,0,0,1-.058-.951c.553-1.085,2.3-4.552,2.941-6.121.767-1.875,2.339-10.338,3.232-13.288s1.9-6.146,5.956-9.138C1710.934,607.858,1713.71,605.237,1716,607.781Z" transform="translate(-1373.74 -494.633)" fill="url(#linear-gradient-32)"/>
      <path id="Trazado_130729" data-name="Trazado 130729" d="M1762.058,396.778c.984-2.922,5.544-5.059,5.544-5.059,2.363-10.085-4.164-15.674-4.164-15.674,3.995-3.7,11.359-5.465,11.359-5.465s7.138,4.71,6.366,8.493c-.454,2.217-4.731,13.312-4.731,13.312l-.412,27.033a1.788,1.788,0,0,1-1.629,1.7c-6.69.825-17.891-.412-17.891-.412C1760.417,413.975,1761.074,399.7,1762.058,396.778Z" transform="translate(-1419.615 -307.232)" fill="#f5ca56"/>
      <path id="Trazado_130730" data-name="Trazado 130730" d="M1814.807,335.484l-1.918,8.689c-.186.767.557.631,1.38.472,1.349-.258,3.094-.775,3.648-1.765a.877.877,0,0,0,.1-.328l.784-6.018a1.07,1.07,0,0,0-.695-1.124l-1.724-.683a1.171,1.171,0,0,0-1.573.757Z" transform="translate(-1464.353 -278.702)" fill="url(#linear-gradient-33)"/>
      <path id="Trazado_130731" data-name="Trazado 130731" d="M1940.45,266c.037.307-1.18.536-1.59-.763.1-.569.243-3.056.7-3.448a49.448,49.448,0,0,1,6.826-4.471.811.811,0,0,1-.134,1.171l-2.182,1.425a7.955,7.955,0,0,1,.641,2.147,2.32,2.32,0,0,1-.619,1.7c-.433.474-1.013,1.089-1.539,1.557A2.681,2.681,0,0,1,1940.45,266Z" transform="translate(-1564.367 -217.33)" fill="url(#linear-gradient-34)"/>
      <path id="Trazado_130732" data-name="Trazado 130732" d="M1946.836,278.31l-.19-.08a17.126,17.126,0,0,1,1.551-3.009.759.759,0,0,0,.289-.534.425.425,0,0,0-.182-.293l-1.844.957-.78,1.18-.171-.113.808-1.225,2.007-1.041.052.037a.674.674,0,0,1,.315.483.943.943,0,0,1-.348.7A18.005,18.005,0,0,0,1946.836,278.31Z" transform="translate(-1569.646 -230.689)" fill="url(#linear-gradient-35)"/>
      <path id="Trazado_130733" data-name="Trazado 130733" d="M1816.911,302.773a8.531,8.531,0,0,1,3.215,4.861c1,3.51-.505,4.795-2.075,4.743a7.433,7.433,0,0,1-5.857-2.97C1810.183,306.91,1814.015,301.128,1816.911,302.773Z" transform="translate(-1463.379 -253.179)" fill="url(#linear-gradient-36)"/>
      <path id="Trazado_130734" data-name="Trazado 130734" d="M1803.988,296.357s-.889-5.036,3.613-4.331l.922.868s2.157-2.343-.3-4.052-5.828-1.213-7.631,1.994-2.45,5.453-.852,7.406,2.745.239,2.745.239-.747-1.7-.163-2.442,1.369.412,1.369.412Z" transform="translate(-1453.214 -241.585)" fill="url(#linear-gradient-37)"/>
      <path id="Trazado_130735" data-name="Trazado 130735" d="M1811.846,323.578s-.439-2.592-1.856-1.829.555,2.419,1.339,2.98Z" transform="translate(-1461.678 -268.36)" fill="url(#linear-gradient-38)"/>
      <path id="Trazado_130736" data-name="Trazado 130736" d="M1757.506,430.192a.66.66,0,0,1,.734.73l-2.728,17.866a.67.67,0,0,1-.639.549l-30.372,1.65a.672.672,0,0,1-.726-.6l-1.046-16.911a.656.656,0,0,1,.619-.674Z" transform="translate(-1392.809 -354.547)" fill="#0d585f"/>
      <path id="Trazado_130737" data-name="Trazado 130737" d="M1750.147,424.426a.7.7,0,0,1,.794.676l-.276,19.334a.7.7,0,0,1-.676.662l-30.281,1.638a.705.705,0,0,1-.753-.584l-2.409-17.726a.683.683,0,0,1,.635-.753Z" transform="translate(-1387.898 -349.969)" fill="#bdd0fb"/>
      <path id="Trazado_130738" data-name="Trazado 130738" d="M1750.516,419.828a.879.879,0,0,1,1.048.722l2.392,19.984a.85.85,0,0,1-.825.92l-29.821,1.613a.868.868,0,0,1-.934-.755l-1.532-16.451a.841.841,0,0,1,.72-.887Z" transform="translate(-1391.311 -346.309)" fill="#0d585f"/>
      <path id="Trazado_130739" data-name="Trazado 130739" d="M1759.534,401.428l-4.149-4.688s-7.134,6.531-9.074,14.174l3.665,2.062A27.765,27.765,0,0,1,1759.534,401.428Z" transform="translate(-1411.527 -327.997)" fill="url(#linear-gradient-39)"/>
      <path id="Trazado_130740" data-name="Trazado 130740" d="M1749.586,478.855a.893.893,0,0,1-.8-.47,20.275,20.275,0,0,0-1.526-2.627,1.963,1.963,0,0,1,1.163-.047c.747.151,1.371-.142,1.386-.528l-3.506-1.341c-.13-.33-.668-2.182,1.685-6.259l-3.665-2.062a15.169,15.169,0,0,0,.452,9.268s.747,3.712,2.145,4.438,3.485-.357,3.485-.357Z" transform="translate(-1409.542 -382.592)" fill="url(#linear-gradient-40)"/>
      <circle id="Elipse_4314" data-name="Elipse 4314" cx="38.316" cy="38.316" r="38.316" transform="translate(374.914 180.63)" fill="#3a277b"/>
      <circle id="Elipse_4315" data-name="Elipse 4315" cx="34.67" cy="34.67" r="34.67" transform="translate(378.634 184.691)" fill="#fff"/>
      <path id="Trazado_130743" data-name="Trazado 130743" d="M2030.089,977.414l-23.529,19.454a3.123,3.123,0,0,0,1.52.3l44.581-2.322a3.12,3.12,0,0,0,1.98-.841l-17.5-16.387A5.46,5.46,0,0,0,2030.089,977.414Z" transform="translate(-1618.105 -787.972)" fill="#7d6eb2"/>
      <path id="Trazado_130744" data-name="Trazado 130744" d="M2048.494,1096.174h-42.917a3.137,3.137,0,0,1-3.137-3.137V1065.09a3.139,3.139,0,0,1,2.964-3.133l44.571-2.475a3.137,3.137,0,0,1,3.3,3.3l-1.65,30.429a3.139,3.139,0,0,1-3.131,2.961Z" transform="translate(-1614.835 -854.058)" fill="rgba(125,110,178,0.6)"/>
      <path id="Trazado_130745" data-name="Trazado 130745" d="M2031.832,1079.275l23.459-19.536a3.111,3.111,0,0,0-1.522-.3l-44.571,2.475a3.134,3.134,0,0,0-1.978.85l17.559,16.329A5.447,5.447,0,0,0,2031.832,1079.275Z" transform="translate(-1618.629 -854.023)" fill="#7d6eb2"/>
      <g id="Grupo_56052" data-name="Grupo 56052" transform="translate(388.877 190.543)" clip-path="url(#clip-path-2)">
        <path id="Trazado_130746" data-name="Trazado 130746" d="M2072.686,1036.048H2037.35v-33.68a2.663,2.663,0,0,1,2.73-2.427l29.539-1.427a2.729,2.729,0,0,1,3.067,2.427Z" transform="translate(-2031.422 -996.206)" fill="#26aab7"/>
        <path id="Trazado_130747" data-name="Trazado 130747" d="M2076.127,1045.948H2043.21v-31.374a2.492,2.492,0,0,1,2.545-2.269l27.522-1.32a2.541,2.541,0,0,1,2.856,2.268Z" transform="translate(-2036.074 -1006.106)" fill="#aee6e6"/>
        <g id="Grupo_56051" data-name="Grupo 56051" transform="translate(9.145 9.512)" opacity="0.61">
          <rect id="Rectángulo_30914" data-name="Rectángulo 30914" width="28.534" height="0.72" rx="0.36" transform="translate(0.246 0.354) rotate(-0.71)" fill="#fff"/>
          <rect id="Rectángulo_30915" data-name="Rectángulo 30915" width="28.534" height="0.72" rx="0.36" transform="translate(0 3.67) rotate(-0.71)" fill="#fff"/>
          <rect id="Rectángulo_30916" data-name="Rectángulo 30916" width="28.534" height="0.72" rx="0.36" transform="translate(0.074 6.833) rotate(-0.71)" fill="#fff"/>
          <rect id="Rectángulo_30917" data-name="Rectángulo 30917" width="28.534" height="0.72" rx="0.36" transform="translate(0.019 10.156) rotate(-0.71)" fill="#fff"/>
        </g>
      </g>
      <path id="Trazado_130749" data-name="Trazado 130749" d="M2051.924,968.62l-41.894,59.892,5.055,3.446,42.412-60.5Z" transform="translate(-1620.86 -781.937)" fill="#3a277b"/>
      <path id="Trazado_130750" data-name="Trazado 130750" d="M1806.441,1548c1.978.171,5.414.448,8.119.567a7.8,7.8,0,0,0,3.106-.3v.171a.561.561,0,0,1-.532.53,95.782,95.782,0,0,1-10.633,0,.4.4,0,0,1-.324-.6A3.183,3.183,0,0,1,1806.441,1548Z" transform="translate(-1459.003 -1241.831)" fill="url(#linear-gradient-41)"/>
      <path id="Trazado_130753" data-name="Trazado 130753" d="M1955.292,1546.661a1.582,1.582,0,0,0,1.411-1.042v.012a1.112,1.112,0,0,1-.751,1.272,4.916,4.916,0,0,1-2.081.326,2.062,2.062,0,0,1-1.561-.72h0A5.292,5.292,0,0,0,1955.292,1546.661Z" transform="translate(-1575.043 -1239.941)" fill="url(#linear-gradient-42)"/>
      <g id="Grupo_56053" data-name="Grupo 56053" transform="translate(-36.36)">
        <path id="Trazado_130650" data-name="Trazado 130650" d="M1769.151,1149.776a.679.679,0,0,1-.677-.664c0-.021-.041-2.155-.245-9.468a.677.677,0,1,1,1.353-.037c.206,7.321.248,9.46.248,9.487a.677.677,0,0,1-.664.689Z" transform="translate(-1428.926 -917.139)" fill="#fff"/>
        <path id="Trazado_130751" data-name="Trazado 130751" d="M1815.749,1533.224c-2.706-.12-6.141-.4-8.119-.567,1.945-2.388,8.119-4,8.119-4h1.745a7.322,7.322,0,0,1,1.361,4.261A7.762,7.762,0,0,1,1815.749,1533.224Z" transform="translate(-1460.201 -1226.479)" fill="url(#linear-gradient-43)"/>
        <path id="Trazado_130752" data-name="Trazado 130752" d="M1844.4,1514.85l-.165,3.23a.736.736,0,0,1-.629.695,2.869,2.869,0,0,1-1.31-.109.871.871,0,0,1-.588-.67l-.563-3.145Z" transform="translate(-1486.809 -1215.517)" fill="url(#linear-gradient-44)"/>
        <path id="Trazado_130754" data-name="Trazado 130754" d="M1943.113,1514.749h1.444c2.19-.043,3.566,4.576,4.017,6.366a1.568,1.568,0,0,1-1.411,1.042,5.178,5.178,0,0,1-2.984-.157,13.936,13.936,0,0,1-2.062-5.17A1.817,1.817,0,0,1,1943.113,1514.749Z" transform="translate(-1566.91 -1215.437)" fill="url(#linear-gradient-45)"/>
        <path id="Trazado_130755" data-name="Trazado 130755" d="M1941.45,1500.22l.8,3.176a.86.86,0,0,1-.448.978,3.058,3.058,0,0,1-1.65.4.722.722,0,0,1-.588-.48l-1.173-3.341Z" transform="translate(-1563.994 -1203.904)" fill="url(#linear-gradient-46)"/>
        <path id="Trazado_130756" data-name="Trazado 130756" d="M1839.7,1330.827c-.994.881-4.226,1-4.226,1-11.642-27.944-16.406-31.914-16.406-31.914,1.681,10.547.272,33.9.272,33.9a6.989,6.989,0,0,1-4.4,0,180.06,180.06,0,0,0-5.939-44.2c7.87-.175,12.054-2.869,13.42-3.949C1828.974,1296.236,1839.7,1330.827,1839.7,1330.827Z" transform="translate(-1461.288 -1033.594)" fill="url(#linear-gradient-47)"/>
        <path id="Trazado_130757" data-name="Trazado 130757" d="M1779.782,1129.1c1.491,7.424.957,20.726.606,26.792-.1,1.7,1.091,4.067,2.062,5.68a.5.5,0,0,1-.206.711,35.133,35.133,0,0,1-13.389,3.712.9.9,0,0,1-.907-.674,175.937,175.937,0,0,0-10.138-28.7C1763.817,1127.016,1779.782,1129.1,1779.782,1129.1Z" transform="translate(-1420.655 -909.171)" fill="#f5ca56"/>
        <path id="Trazado_130758" data-name="Trazado 130758" d="M1835.358,1333.782a.371.371,0,0,0,.318-.567,11.7,11.7,0,0,0-4.615-4.007.373.373,0,1,0-.324.672,11.136,11.136,0,0,1,4.3,3.724A.377.377,0,0,0,1835.358,1333.782Z" transform="translate(-1478.366 -1068.127)" fill="url(#linear-gradient-48)"/>
        <path id="Trazado_130759" data-name="Trazado 130759" d="M1887.353,1231.238a25.564,25.564,0,0,1-4.719,11.246l-1.074-.876a33.214,33.214,0,0,0,.534-10.749A12.844,12.844,0,0,1,1887.353,1231.238Z" transform="translate(-1518.885 -989.984)" fill="url(#linear-gradient-49)"/>
        <path id="Trazado_130760" data-name="Trazado 130760" d="M1856.29,1139.007l1.662-9.167s11.116,8.495,9.342,21.322a12.831,12.831,0,0,0-5.259-.38C1861.528,1146.667,1860.01,1142.2,1856.29,1139.007Z" transform="translate(-1498.826 -909.908)" fill="#f5ca56"/>
        <path id="Trazado_130761" data-name="Trazado 130761" d="M1747.1,1166.93l5.129,8.8c-.175,5.62-2.935,8.3-6.068,9.52a19.6,19.6,0,0,0-1.992-5.859C1747.886,1174.767,1747.1,1166.93,1747.1,1166.93Z" transform="translate(-1409.828 -939.35)" fill="#f5ca56"/>
        <path id="Trazado_130762" data-name="Trazado 130762" d="M1696.473,1227.36a19.6,19.6,0,0,1,1.992,5.859,12.938,12.938,0,0,1-14.385-1.607l4.8-.94A9.024,9.024,0,0,0,1696.473,1227.36Z" transform="translate(-1362.131 -987.316)" fill="url(#linear-gradient-50)"/>
        <path id="Trazado_130763" data-name="Trazado 130763" d="M1776.94,1103.062l2.062,7.616a1.483,1.483,0,0,0,1.982.984,29.812,29.812,0,0,0,2.984-1.363,1.994,1.994,0,0,0,.705-2.869l-4.3-6.43Z" transform="translate(-1435.84 -887.017)" fill="url(#linear-gradient-51)"/>
        <path id="Trazado_130764" data-name="Trazado 130764" d="M1755,1078.218c-.019.132,1.728,8.691,1.728,8.691l4.867-1.1-.452-8.359S1755.309,1076.03,1755,1078.218Z" transform="translate(-1418.425 -867.963)" fill="url(#linear-gradient-52)"/>
        <path id="Trazado_130765" data-name="Trazado 130765" d="M1751.7,1068.27l.582,4.38a.665.665,0,0,1,0,.169c-.049.342-.3,1.512-1.485,1.178a5.578,5.578,0,0,0-2.73-.357.619.619,0,0,0-.425.714,26.8,26.8,0,0,0,1.12,3.989.619.619,0,0,0,.749.363,19.852,19.852,0,0,0,4.288-1.755.619.619,0,0,0,.3-.555c-.045-1.105-.175-4.469-.066-5.409.1-.885,1.188-1.415,1.65-1.607a.605.605,0,0,0,.338-.338,1.6,1.6,0,0,0-1.076-2.333.619.619,0,0,1-.392-.8,1.6,1.6,0,0,0-.9-2.215,2.285,2.285,0,0,0-2.7.65.618.618,0,0,1-.786.093.491.491,0,0,0-.557.019.619.619,0,0,1-.862-.26,1.839,1.839,0,0,0-2.141-1.068c-2.18.373-2.427,2.79-1.856,4.205s2.916.876,4.089.163a2.643,2.643,0,0,1,2.555.33A.619.619,0,0,1,1751.7,1068.27Z" transform="translate(-1410.086 -856.922)" fill="url(#linear-gradient-53)"/>
        <path id="Trazado_130766" data-name="Trazado 130766" d="M1790.193,1096s-.9-2.51.025-3.125,2.285-.295,1.984,1.522C1791.829,1096.665,1790.193,1096,1790.193,1096Z" transform="translate(-1446.05 -880.345)" fill="url(#linear-gradient-54)"/>
        <path id="Trazado_130767" data-name="Trazado 130767" d="M1682.218,1251.725c-.435.34-1.922-.367-2.832-.858a1.044,1.044,0,0,1-.505-1.238c.219-.691.584-1.582,1.031-1.7C1680.661,1247.751,1684.006,1250.329,1682.218,1251.725Z" transform="translate(-1357.966 -1003.641)" fill="url(#linear-gradient-55)"/>
        <path id="Trazado_130768" data-name="Trazado 130768" d="M1625.492,1185.825,1513.9,1206.8l3.021,16.435,112.1-20.033a4.989,4.989,0,0,0,4.106-4.917A21.239,21.239,0,0,0,1630,1187.92,4.273,4.273,0,0,0,1625.492,1185.825Z" transform="translate(-1227.048 -954.289)" fill="url(#linear-gradient-56)"/>
        <path id="Trazado_130769" data-name="Trazado 130769" d="M1363.563,1328.952l13.682-5.871a12.991,12.991,0,0,1,1.33,8.119l-14.76-.825a.742.742,0,0,1-.252-1.423Z" transform="translate(-1107.359 -1063.296)" fill="url(#linear-gradient-57)"/>
        <path id="Trazado_130770" data-name="Trazado 130770" d="M1448.593,1287.8a20.589,20.589,0,0,1,3.021,16.435l-18.654-1.031a12.991,12.991,0,0,0-1.33-8.119Z" transform="translate(-1161.744 -1035.292)" fill="#f5ca56"/>
        <path id="Trazado_130771" data-name="Trazado 130771" d="M1648.881,1207.294a.314.314,0,0,0-.219-.58l-106.649,20.264a.315.315,0,0,0,.118.619l106.649-20.262A.283.283,0,0,0,1648.881,1207.294Z" transform="translate(-1249.16 -970.924)" fill="url(#linear-gradient-58)"/>
        <path id="Trazado_130772" data-name="Trazado 130772" d="M1656.539,1237.453a.316.316,0,0,0-.217-.582l-106.649,20.262a.315.315,0,1,0,.118.619l106.649-20.26a.349.349,0,0,0,.1-.039Z" transform="translate(-1255.24 -994.863)" fill="url(#linear-gradient-59)"/>
        <path id="Trazado_130773" data-name="Trazado 130773" d="M1856.521,1302.5l-5.018-.412-2.174,2s.513.712,2.12.3a23.055,23.055,0,0,1,3.809-.51s2.219,1,2.246-.87Z" transform="translate(-1493.301 -1046.635)" fill="url(#linear-gradient-60)"/>
      </g>
    </g>
  </g>
</svg>
