<svg xmlns="http://www.w3.org/2000/svg" width="57" height="57" viewBox="0 0 57 57">
  <g id="Grupo_56136" data-name="Grupo 56136" transform="translate(9716 11907)">
    <rect id="Rectángulo_31337" data-name="Rectángulo 31337" width="57" height="57" transform="translate(-9716 -11907)" fill="none"/>
    <g id="target-audience" transform="translate(-9716 -11907)">
      <path id="Trazado_132664" data-name="Trazado 132664" d="M151.2,141.5v1.05a.835.835,0,0,0,.357.685,19.731,19.731,0,0,0,3.06,1.751.835.835,0,0,0,.7-1.518,18.047,18.047,0,0,1-2.443-1.359V141.5a10,10,0,0,1,19.995,0v.608a18.172,18.172,0,0,1-14.072,2.543.835.835,0,0,0-.375,1.627,19.837,19.837,0,0,0,15.761-3.043.835.835,0,0,0,.357-.685V141.5a11.682,11.682,0,0,0-7.772-11,7.971,7.971,0,0,0,3.878-5.088.835.835,0,1,0-1.622-.4,6.332,6.332,0,1,1-.05-3.216.835.835,0,1,0,1.608-.449,8,8,0,1,0-11.588,9.15A11.685,11.685,0,0,0,151.2,141.5Z" transform="translate(-134.367 -102.642)" fill="#7d6eb2"/>
      <path id="Trazado_132665" data-name="Trazado 132665" d="M54.5,26h-3.03A23.1,23.1,0,0,0,31,5.535V2.5A2.5,2.5,0,0,0,26,2.5v3.03A22.985,22.985,0,0,0,9.439,15.445a.835.835,0,1,0,1.377.945A21.323,21.323,0,0,1,26,7.216V9.185a2.5,2.5,0,1,0,5.01,0V7.215A21.557,21.557,0,0,1,49.785,26h-1.97a2.5,2.5,0,0,0,0,5.01h1.97A21.556,21.556,0,0,1,31,49.785v-1.97a2.5,2.5,0,0,0-5.01,0v1.97A21.556,21.556,0,0,1,7.215,31h1.97a2.5,2.5,0,1,0,0-5.01H7.214a21.245,21.245,0,0,1,1.654-6.1.835.835,0,1,0-1.529-.672A22.911,22.911,0,0,0,5.534,26H2.5A2.5,2.5,0,0,0,2.5,31h3.03A23.1,23.1,0,0,0,26,51.465V54.5a2.5,2.5,0,0,0,5.01,0v-3.03A23.1,23.1,0,0,0,51.465,31H54.5a2.5,2.5,0,0,0,0-5.01ZM29.335,9.185a.835.835,0,1,1-1.67,0V2.5a.835.835,0,1,1,1.67,0ZM1.67,28.5a.836.836,0,0,1,.835-.835h6.68a.835.835,0,1,1,0,1.67H2.5A.836.836,0,0,1,1.67,28.5Zm27.665,26a.835.835,0,1,1-1.67,0v-6.68a.835.835,0,1,1,1.67,0ZM54.5,29.335h-6.68a.835.835,0,1,1,0-1.67H54.5a.835.835,0,1,1,0,1.67Z" fill="#7d6eb2"/>
    </g>
  </g>
</svg>
