<svg xmlns="http://www.w3.org/2000/svg" xmlns:xlink="http://www.w3.org/1999/xlink" width="298.272" height="299.136" viewBox="0 0 298.272 299.136">
  <defs>
    <linearGradient id="linear-gradient" y1="0.5" x2="1" y2="0.5" gradientUnits="objectBoundingBox">
      <stop offset="0" stop-color="#ff9085"/>
      <stop offset="1" stop-color="#fb6fbb"/>
    </linearGradient>
    <linearGradient id="linear-gradient-2" x1="1.229" y1="0.199" x2="0.496" y2="0.607" gradientUnits="objectBoundingBox">
      <stop offset="0" stop-color="#f36f56"/>
      <stop offset="1" stop-color="#ffc444"/>
    </linearGradient>
    <clipPath id="clip-path">
      <path id="Trazado_131555" data-name="Trazado 131555" d="M1986.78,1713.966c9.218-4.75,21.973-13.1,30.782-27.528,11.553-18.929,6.169-31.693,17.031-66.22,6.866-21.832,11.879-37,25.31-42.044,10.527-3.956,24.96-1.223,31.8,7.175,5.687,6.985,6.79,18.695,5.9,26.583-.727,6.425-2.817,10.646-.205,14.885,2.67,4.332,7.107,3.575,9.788,6.984,5.439,6.915-3.214,22.215-4.612,24.688-15.555,27.506-48.454,39.67-62.87,44.8A191.481,191.481,0,0,1,1986.78,1713.966Z" transform="translate(-1986.78 -1576.392)" fill="url(#linear-gradient)"/>
    </clipPath>
    <clipPath id="clip-path-2">
      <path id="Trazado_131560" data-name="Trazado 131560" d="M2006.579,2291.791c16.276,7.7,38.108,15.194,62.237,15.449,6.157.065,44.2.465,47.142-15.575,1.038-5.649-3.156-8.569-1.9-16.147,1.488-8.98,8.326-10.631,16.4-18.932,4.814-4.953,18.905-19.448,12.994-33.853-3.533-8.606-14.049-16.792-23.984-18.868-14.574-3.044-25.046,7.65-42.45,26.053-15.428,16.313-15.977,21.823-27.291,33.376C2041.323,2271.869,2027.927,2282.817,2006.579,2291.791Z" transform="translate(-2006.579 -2203.351)" fill="url(#linear-gradient-2)"/>
    </clipPath>
    <linearGradient id="linear-gradient-3" x1="0.389" y1="0.5" x2="0.049" y2="0.458" gradientUnits="objectBoundingBox">
      <stop offset="0" stop-color="#444b8c"/>
      <stop offset="1" stop-color="#26264f"/>
    </linearGradient>
    <linearGradient id="linear-gradient-4" x1="1.002" y1="1.489" x2="0" y2="2.091" xlink:href="#linear-gradient-3"/>
    <linearGradient id="linear-gradient-5" x1="0.232" y1="2.061" x2="0.819" y2="1.586" xlink:href="#linear-gradient-3"/>
    <linearGradient id="linear-gradient-6" x1="0.924" y1="0.914" x2="0.033" y2="0.07" gradientUnits="objectBoundingBox">
      <stop offset="0.49" stop-color="#ebeff2"/>
      <stop offset="1" stop-color="#fff"/>
    </linearGradient>
    <linearGradient id="linear-gradient-7" x1="0.55" y1="-0.971" x2="0.448" y2="2.026" xlink:href="#linear-gradient-3"/>
    <linearGradient id="linear-gradient-8" x1="-1.066" y1="-5.682" x2="0.84" y2="-1.364" xlink:href="#linear-gradient"/>
    <clipPath id="clip-path-3">
      <path id="Trazado_131575" data-name="Trazado 131575" d="M1065.7,1143.955c-62.966,3.3-63.685,4.28-64.585,4.35l-156.146,12.241a1.912,1.912,0,0,1-1.909-2.092V934.8a2.015,2.015,0,0,1,1.909-2.176l156.146,5.425c.9.031,1.623.982,64.585-.038Z" transform="translate(-843.06 -932.62)" fill="none"/>
    </clipPath>
    <linearGradient id="linear-gradient-9" x1="0.565" y1="-0.129" x2="-0.66" y2="4.684" gradientUnits="objectBoundingBox">
      <stop offset="0" stop-color="#ffc444"/>
      <stop offset="1" stop-color="#f36f56"/>
    </linearGradient>
    <linearGradient id="linear-gradient-10" x1="0.543" y1="0.471" x2="0.032" y2="1.643" gradientUnits="objectBoundingBox">
      <stop offset="0" stop-color="#aa80f9"/>
      <stop offset="1" stop-color="#6165d7"/>
    </linearGradient>
    <linearGradient id="linear-gradient-11" x1="-2.692" y1="0.68" x2="-3.126" y2="1.338" xlink:href="#linear-gradient-10"/>
    <linearGradient id="linear-gradient-12" x1="-5.277" y1="1.169" x2="-4.331" y2="-1.286" xlink:href="#linear-gradient-9"/>
    <linearGradient id="linear-gradient-13" x1="-12.011" y1="0.864" x2="-10.48" y2="-1.164" xlink:href="#linear-gradient-9"/>
    <linearGradient id="linear-gradient-14" x1="-6.609" y1="-0.302" x2="-7.142" y2="0.78" xlink:href="#linear-gradient-3"/>
    <linearGradient id="linear-gradient-15" x1="-7.644" y1="1.239" x2="-4.934" y2="-1.088" xlink:href="#linear-gradient-10"/>
    <linearGradient id="linear-gradient-16" x1="-3.442" y1="0.888" x2="-4.241" y2="1.603" xlink:href="#linear-gradient-10"/>
    <linearGradient id="linear-gradient-17" x1="0.453" y1="0.628" x2="0.896" y2="-0.832" xlink:href="#linear-gradient-3"/>
    <linearGradient id="linear-gradient-18" x1="0.591" y1="0.085" x2="3.72" y2="-4.566" xlink:href="#linear-gradient-3"/>
    <linearGradient id="linear-gradient-19" x1="0.453" y1="0.628" x2="0.896" y2="-0.834" gradientUnits="objectBoundingBox">
      <stop offset="0" stop-color="#ab316d"/>
      <stop offset="1" stop-color="#792d3d"/>
    </linearGradient>
    <linearGradient id="linear-gradient-20" x1="0.591" y1="0.085" x2="3.718" y2="-4.569" xlink:href="#linear-gradient-19"/>
    <linearGradient id="linear-gradient-21" x1="0.24" y1="-0.094" x2="0.655" y2="0.741" gradientUnits="objectBoundingBox">
      <stop offset="0" stop-color="#311944"/>
      <stop offset="1" stop-color="#893976"/>
    </linearGradient>
  </defs>
  <g id="like-01" transform="translate(-376.09 -167.48)">
    <g id="Illustration" transform="translate(376.09 167.48)">
      <path id="Trazado_131549" data-name="Trazado 131549" d="M736.631,613.832c4.854,24.77,14.688,74.973-8.852,108.557-42.73,60.952-188.059,56.657-249.443-20.191-5.307-6.645-31.93-41.3-29.025-88.757,5.038-82.315,95.983-155.273,168.867-140.943,42.656,8.386,71.007,45.074,82.679,60.179C705.668,538.9,727.7,568.248,736.631,613.832Z" transform="translate(-449.09 -469.077)" fill="#f4f7fa"/>
      <g id="Grupo_56069" data-name="Grupo 56069" transform="translate(157.947 115.186)" clip-path="url(#clip-path)">
        <g id="Grupo_56068" data-name="Grupo 56068" transform="translate(-9.923 -6.065)" opacity="0.5">
          <path id="Trazado_131551" data-name="Trazado 131551" d="M1890.232,1664.125l-.062-.719c13.992-1.2,26.483-3.821,37.128-7.8,15.691-5.855,26.887-14.519,33.28-25.738,5.007-8.788,6.978-18.814,9.706-32.691a190.807,190.807,0,0,0,3.2-26.231c.629-9.287,1.125-16.621,5.013-26.363a79.4,79.4,0,0,1,18.554-27.24l.506.514a78.578,78.578,0,0,0-18.386,26.99c-3.846,9.636-4.339,16.921-4.963,26.144a191.372,191.372,0,0,1-3.215,26.319c-2.637,13.421-4.725,24.021-9.786,32.911-6.479,11.371-17.8,20.133-33.655,26.057C1916.846,1660.285,1904.289,1662.922,1890.232,1664.125Z" transform="translate(-1890.17 -1517.35)" fill="#fff"/>
          <path id="Trazado_131552" data-name="Trazado 131552" d="M2528.073,1729.311l-.316-.26a53.738,53.738,0,0,1-11.454-14.772c-4.7-8.739-9.31-22.967-4.594-41.13l.7.182c-4.654,17.921-.114,31.958,4.519,40.573a54.3,54.3,0,0,0,10.982,14.313c11.5-17.88,25.5-27.157,35.256-31.8,10.65-5.065,18.7-5.855,18.77-5.855l.067.719c-.079.007-8.012.789-18.556,5.808-9.723,4.631-23.714,13.918-35.152,31.87Z" transform="translate(-2446.094 -1657.146)" fill="#fff"/>
          <path id="Trazado_131553" data-name="Trazado 131553" d="M2289.194,2096.289l-.084-.25A155.221,155.221,0,0,0,2278.3,2071.9c-6.564-11.54-27.036-20.739-27.242-20.831l.3-.664c.205.093,20.895,9.388,27.577,21.136a156.9,156.9,0,0,1,10.785,24.014c24.36-.514,63.209-46.114,63.6-46.576l.552.469a274.358,274.358,0,0,1-22.8,23.317c-17.234,15.525-31.227,23.438-41.6,23.521Z" transform="translate(-2213.99 -1994.373)" fill="#fff"/>
          <path id="Trazado_131554" data-name="Trazado 131554" d="M2293.152,2422.511a125.119,125.119,0,0,1-17.857-1.13l-.712-.114.513-.5c8.558-8.312,10.7-18.993,6.368-31.747a60.1,60.1,0,0,0-9.155-16.787l.559-.46a60.864,60.864,0,0,1,9.283,17.014c4.281,12.6,2.195,23.639-6.027,31.984a141.416,141.416,0,0,0,25.825.762c14.167-.822,34.992-4.108,53.751-15.106l36.447-21.366.366.626-36.447,21.365c-18.889,11.075-39.843,14.38-54.094,15.2C2298.836,2422.439,2295.876,2422.511,2293.152,2422.511Z" transform="translate(-2233.058 -2284.006)" fill="#fff"/>
        </g>
      </g>
      <g id="Grupo_56071" data-name="Grupo 56071" transform="translate(159.981 179.585)" clip-path="url(#clip-path-2)">
        <g id="Grupo_56070" data-name="Grupo 56070" transform="translate(-72.242 -14.224)" opacity="0.5">
          <path id="Trazado_131557" data-name="Trazado 131557" d="M1374.539,2167.313a100.071,100.071,0,0,1-19.808-1.972c-18.394-3.7-35.708-12.245-51.461-25.4l.464-.556c15.662,13.073,32.869,21.565,51.143,25.243,24.344,4.9,49.424.616,74.551-12.727,26.167-13.9,45.826-34.14,57.711-48.675,8.229-10.066,13.545-22.969,15.8-38.358l.719.1c-2.278,15.521-7.649,28.546-15.96,38.712-11.925,14.586-31.657,34.9-57.932,48.856C1411.248,2162.372,1392.746,2167.313,1374.539,2167.313Z" transform="translate(-1303.27 -2064.87)" fill="#fff"/>
          <path id="Trazado_131558" data-name="Trazado 131558" d="M2821.668,2238.945l-.079-.316a73.571,73.571,0,0,1-1.594-18.353c.324-9.643,2.714-23.548,12.252-35.027l.556.463c-9.4,11.318-11.761,25.047-12.084,34.571a75.009,75.009,0,0,0,1.5,17.857c45.105-6.419,56.743-32.335,59.237-40.141a3.442,3.442,0,0,1,.133-.385l.654.308-.327-.156.329.152c-.018.042-.049.142-.1.3-2.532,7.928-14.357,34.289-60.155,40.686Z" transform="translate(-2664.162 -2172.885)" fill="#fff"/>
          <path id="Trazado_131559" data-name="Trazado 131559" d="M2575.9,2251.389c-10.162,0-24.652-2.822-41.9-14.147l-.162-.1v-.2c0-.243-.015-24.61,14.7-50.891l14.834-26.5.633.354-14.834,26.5c-13.929,24.882-14.576,48-14.6,50.34,10.9,7.134,27.631,15.258,45.677,13.74,10.845-.912,17.109-4.939,17.172-4.981l.4.606c-.063.041-6.448,4.156-17.462,5.093C2578.975,2251.323,2577.489,2251.389,2575.9,2251.389Z" transform="translate(-2407.439 -2149.824)" fill="#fff"/>
        </g>
      </g>
      <path id="Trazado_131561" data-name="Trazado 131561" d="M894.769,1082.947c0,5.649-3.227,10.539-7.21,10.888L736.253,1107.9c-4.7.417-13.143-4.53-13.143-10.707V861.937c0-11.85,8.287-12.812,12.987-12.629l151.463,7.806c3.982.154,7.21,4.88,7.21,10.534Z" transform="translate(-694.963 -808.79)" fill="url(#linear-gradient-3)"/>
      <path id="Trazado_131562" data-name="Trazado 131562" d="M951.428,1079.872c0,5.7-3.227,10.634-7.21,10.991l-155.909,13.932c-4.7.42-8.539-4.309-8.539-10.543V856.859c0-6.234,3.839-11.156,8.539-10.972l155.909,6.107c3.982.156,7.21,4.924,7.21,10.629Z" transform="translate(-745.803 -805.732)" fill="url(#linear-gradient-4)"/>
      <path id="Trazado_131563" data-name="Trazado 131563" d="M818.56,902.837v236.925c0,3.33,2.041,5.855,4.554,5.635L946.8,1134.665l32.232-2.8c2.134-.186,3.861-2.816,3.861-5.875V908.355c0-3.06-1.727-5.6-3.861-5.682l-33.4-1.221-122.514-4.475C820.6,896.881,818.56,899.506,818.56,902.837Z" transform="translate(-780.609 -851.577)" fill="url(#linear-gradient-5)"/>
      <path id="Trazado_131564" data-name="Trazado 131564" d="M1002.739,1146.114a2.071,2.071,0,0,1-1.623,2.191l-156.146,12.241a1.912,1.912,0,0,1-1.909-2.092V934.8a2.015,2.015,0,0,1,1.909-2.176l156.146,5.425a1.965,1.965,0,0,1,1.623,2.121Z" transform="translate(-802.593 -883.561)" fill="url(#linear-gradient-6)"/>
      <path id="Trazado_131565" data-name="Trazado 131565" d="M1502.64,3125.033l-33.725,2.841a1.807,1.807,0,0,1-2.045-1.769v-3.229a2.2,2.2,0,0,1,2.045-2.1l33.725-2.719a1.763,1.763,0,0,1,1.971,1.746v3.167A2.15,2.15,0,0,1,1502.64,3125.033Z" transform="translate(-1362.326 -2844.505)" fill="url(#linear-gradient-7)"/>
      <path id="Trazado_131566" data-name="Trazado 131566" d="M1598.713,890.4c-.053.773-1,1.335-2.117,1.263s-1.979-.764-1.926-1.541,1-1.335,2.117-1.263S1598.766,889.631,1598.713,890.4Z" transform="translate(-1476.997 -844.293)" fill="url(#linear-gradient-8)"/>
      <g id="Grupo_56072" data-name="Grupo 56072" transform="translate(40.467 49.059)" clip-path="url(#clip-path-3)">
        <path id="Trazado_131567" data-name="Trazado 131567" d="M2568.265,1406.117c1.774-5.112,1.062-7.909,0-9.545-1.481-2.274-4.874-4.16-11.137-8.751-.411-.3-1.118-.837-1.027-1.13.222-.729,3.63-.353,6.6,1.13a34.591,34.591,0,0,0,7.752,3.076c4.52,1.346,8.487.222,14.523-1.485a51.641,51.641,0,0,0,9.943-3.977s4.375-1.99,5.569,0l-6.369,3.184s5.569-2.386,8.75-.8l-11.137,4.773s8.353-2.387,8.751-.8a28.638,28.638,0,0,1-13.922,5.568c-5.7.576-9.992-.975-11.535,1.194-1.245,1.746.048,4.876,1.591,7.557Z" transform="translate(-2380.135 -1338.13)" fill="url(#linear-gradient-9)"/>
        <path id="Trazado_131568" data-name="Trazado 131568" d="M1870.006,1618.009a48.7,48.7,0,0,1,15.467-14.572,52.4,52.4,0,0,1,6.834,3.641c8.059,5.093,8.944,8.761,15.783,13.008,3.628,2.251,8.12,5.041,13.887,4.661,6.64-.438,11.189-4.828,13.08-6.651,12.972-12.512,7.9-36.216,7.339-38.669l14.716-.4c2.582,4.52,16.8,33.383,6.369,62.452-14.948,41.631-75.751,41.99-94.134,22.824C1858.4,1652.887,1858.459,1635.305,1870.006,1618.009Z" transform="translate(-1756.653 -1512.632)" fill="url(#linear-gradient-10)"/>
        <path id="Trazado_131569" data-name="Trazado 131569" d="M899.374,1838.308a58.789,58.789,0,0,1-6.828-13.572c-6.077-17.154-2.773-32.555-1.952-36.918,2.749-14.649,3.17-41.627-5.945-95.367a207.811,207.811,0,0,1,124.557,7.034,371.639,371.639,0,0,1-3.514,57.55c-2.989,21.2-5.9,27.963-6.241,46.087-.514,27.275,5.719,31.123.97,39.578C986.761,1867.015,918.407,1865.342,899.374,1838.308Z" transform="translate(-880.378 -1608.682)" fill="url(#linear-gradient-11)"/>
        <path id="Trazado_131570" data-name="Trazado 131570" d="M1199.79,1412.3q-1.215,11.534-2.43,23.069a4.359,4.359,0,0,1-3.978,3.888l-24.792,2.043,45.832,14.053,21.011-10.02-19.232-5.958a4.359,4.359,0,0,1-3.039-3.656q-.836-7.121-1.674-14.245Z" transform="translate(-1135.152 -1363.028)" fill="url(#linear-gradient-12)"/>
        <path id="Trazado_131571" data-name="Trazado 131571" d="M1404.7,1163.225c5.052,11.595,17.7,21.189,24.228,18.343s5.838-17.27.786-28.864-14.729-16.016-21.262-13.168S1399.65,1151.631,1404.7,1163.225Z" transform="translate(-1344.539 -1117.531)" fill="url(#linear-gradient-13)"/>
        <path id="Trazado_131572" data-name="Trazado 131572" d="M1309.734,1088.568c-.637.478-3.125-2.935-4.5-2.326-1.164.513-1.478,3.863-.068,6.163,1.2,1.952,2.8,1.761,3.265,3.287.766,2.508-2.574,6.253-3.823,5.813-.8-.282-.137-2.074-.915-4.12-1.531-4.02-6.559-3.557-10.664-6.632-6.455-4.837-8.217-16.614-4.364-21.022,1.463-1.676,3.1-1.563,5.091-4.262,2.157-2.921,1.213-4.387,2.869-6.266,2.809-3.184,8.977-2.89,12.875-1.712,4.9,1.482,5.259,4.07,8.541,3.879,3.887-.226,4.448-3.917,9.082-4.595a10.618,10.618,0,0,1,7.852,2.209c4.232,3.655,3.2,10.016,3.048,10.918-.939,5.766-5.643,10.963-10.847,12.133-1.1.247-.875.013-11.9-.253-3.641-.088-5.842-.115-6.574,1.166C1307.642,1084.792,1310.375,1088.088,1309.734,1088.568Z" transform="translate(-1241.075 -1043.925)" fill="url(#linear-gradient-14)"/>
        <path id="Trazado_131573" data-name="Trazado 131573" d="M928.2,2164.06c5.85,2.654,9,6.017,10.807,9.117,6.882,11.821-3.7,23.409,3.9,38.189,5.231,10.169,12.165,8.416,15.587,17.925,4.391,12.2-5.164,20.244-4.676,32.735.246,6.3,3.065,14.165,12.625,23.156-12.547-3.462-23.454-9.462-29.456-17.985a58.8,58.8,0,0,1-6.828-13.573c-6.077-17.154-2.773-32.555-1.952-36.917C930.1,2206.6,930.889,2190.629,928.2,2164.06Z" transform="translate(-917.997 -2037.57)" opacity="0.3" fill="url(#linear-gradient-15)"/>
        <path id="Trazado_131574" data-name="Trazado 131574" d="M505.764,1894.01c-20.41-9.869-20.935-44.813-21.211-62.818-.22-14.155-1.145-73.609,33.22-89.994a43.3,43.3,0,0,1,15.88-4.027c3.954,2.424,13.847,9.244,17.365,21.532,1.992,6.957,1.381,13.717-1.262,22.861-6.843,23.658-17.062,27.849-23.339,43.475-12.769,31.789,10.538,60.164-1.757,69.848C518.293,1899.9,506.812,1894.515,505.764,1894.01Z" transform="translate(-521.332 -1654.529)" fill="url(#linear-gradient-16)"/>
      </g>
      <path id="Trazado_131576" data-name="Trazado 131576" d="M1670.542,2525.393l-127.389,8.239a7.13,7.13,0,0,0-6.384,7.181v21.057a5.948,5.948,0,0,0,6.384,6.217l127.389-11c2.965-.256,5.361-3.229,5.361-6.642v-19.224C1675.9,2527.809,1673.51,2525.2,1670.542,2525.393Z" transform="translate(-1425.047 -2312.719)" fill="url(#linear-gradient-17)"/>
      <path id="Trazado_131577" data-name="Trazado 131577" d="M2157.792,2862.03l-8.012-10.707,19.413-1.643-8.125,12.376A1.987,1.987,0,0,1,2157.792,2862.03Z" transform="translate(-1975.09 -2603.706)" fill="url(#linear-gradient-18)"/>
      <path id="Trazado_131578" data-name="Trazado 131578" d="M1682.141,2533.6l-127.511,8.2a7.132,7.132,0,0,0-6.39,7.183v21.065a5.955,5.955,0,0,0,6.39,6.222l127.511-10.961c2.97-.254,5.367-3.229,5.367-6.643V2539.44C1687.508,2536.026,1685.11,2533.413,1682.141,2533.6Z" transform="translate(-1435.339 -2320.087)" fill="url(#linear-gradient-19)"/>
      <path id="Trazado_131579" data-name="Trazado 131579" d="M2169.822,2870.268l-8.022-10.714,19.434-1.634L2173.1,2870.3A1.99,1.99,0,0,1,2169.822,2870.268Z" transform="translate(-1985.875 -2611.1)" fill="url(#linear-gradient-20)"/>
      <g id="Grupo_56073" data-name="Grupo 56073" transform="translate(124.115 222.572)" opacity="0.69">
        <path id="Trazado_131580" data-name="Trazado 131580" d="M1672.391,2786.445l-11.434.87a4.033,4.033,0,0,0-3.547,4.049v3.038l18.461-1.49v-3A3.3,3.3,0,0,0,1672.391,2786.445Z" transform="translate(-1657.41 -2769.529)" fill="#fff"/>
        <path id="Trazado_131581" data-name="Trazado 131581" d="M1713.613,2686.115a5,5,0,0,1-4.4,5.033,4.191,4.191,0,0,1-4.417-4.394,4.987,4.987,0,0,1,4.417-5.033A4.19,4.19,0,0,1,1713.613,2686.115Z" transform="translate(-1699.932 -2675.562)" fill="#fff"/>
        <path id="Trazado_131582" data-name="Trazado 131582" d="M1880.451,2694.144a7.9,7.9,0,0,0,1.541-.122,6.238,6.238,0,0,0,2.989-1.245,5.664,5.664,0,0,0,1.909-3.173l-.07-.02a4.149,4.149,0,0,1-3.029,1.417c-2.568.2-4.752-1.583-4.752-4.772a6.264,6.264,0,0,1,5.731-6.326c3.882-.273,5.712,2.816,5.712,6.636a10.977,10.977,0,0,1-2.642,7.726,9.33,9.33,0,0,1-5.779,2.758,11.406,11.406,0,0,1-1.616.13Zm2.157-8.406c0,1.415.7,2.574,2.148,2.465a2.4,2.4,0,0,0,1.952-1.232,2.025,2.025,0,0,0,.186-.972c0-1.738-.6-3.407-2.212-3.292-1.213.089-2.1,1.316-2.078,3.031Z" transform="translate(-1856.274 -2673.925)" fill="#fff"/>
        <path id="Trazado_131583" data-name="Trazado 131583" d="M2017.554,2673.921l-5.765.412-.322,2.528a5.935,5.935,0,0,1,.964-.121,6.062,6.062,0,0,1,3.913.884,4.4,4.4,0,0,1,1.8,3.929c0,3.018-2.373,5.877-6.38,6.2a8.471,8.471,0,0,1-4.167-.592l.623-2.911a7.651,7.651,0,0,0,3.384.537c1.445-.115,2.978-.986,2.978-2.709,0-1.675-1.213-2.608-4.2-2.383a12.3,12.3,0,0,0-2.026.308l.991-8.627,8.2-.577Z" transform="translate(-1971.629 -2665.771)" fill="#fff"/>
        <path id="Trazado_131584" data-name="Trazado 131584" d="M2285.783,2643.642c-.147-3.094-2.012-5.475-4.329-5.517-1.836-.033-3.468,1.349-4.333,3.36-.868-1.889-2.506-3.045-4.36-2.756-2.349.368-4.253,3.04-4.4,6.19a6.939,6.939,0,0,0,1.634,5.062l6.652,5.42a.688.688,0,0,0,.954-.077l6.585-6.43A7.872,7.872,0,0,0,2285.783,2643.642Z" transform="translate(-2205.594 -2636.452)" fill="#fff"/>
        <path id="Trazado_131585" data-name="Trazado 131585" d="M2495.329,2637.319v2.318l-5.752,13.845-3.475.28,5.781-13.128v-.048l-6.424.464v-3.039Z" transform="translate(-2400.405 -2635.73)" fill="#fff"/>
        <path id="Trazado_131586" data-name="Trazado 131586" d="M2609.231,2632.727l-5.324.385-.3,2.427a5.5,5.5,0,0,1,.891-.114,5.425,5.425,0,0,1,3.614.861,4.308,4.308,0,0,1,1.663,3.782,6.052,6.052,0,0,1-5.891,5.941,7.565,7.565,0,0,1-3.847-.581l.575-2.795a6.844,6.844,0,0,0,3.124.525,2.713,2.713,0,0,0,2.751-2.6c0-1.609-1.12-2.509-3.876-2.3a10.847,10.847,0,0,0-1.872.286l.916-8.286,7.574-.532Z" transform="translate(-2503.215 -2628.92)" fill="#fff"/>
        <path id="Trazado_131587" data-name="Trazado 131587" d="M2712.24,2633.982a4.53,4.53,0,0,1,2.43-4.085v-.07a3.508,3.508,0,0,1-1.969-3.25,4.813,4.813,0,0,1,4.787-4.714c3.159-.222,4.464,1.779,4.464,3.658a4.181,4.181,0,0,1-1.951,3.547v.071a3.7,3.7,0,0,1,2.466,3.666c0,2.8-2.055,4.848-5.192,5.1C2713.833,2638.183,2712.24,2636.086,2712.24,2633.982Zm7.017-.666a2.377,2.377,0,0,0-2.123-2.388,2.524,2.524,0,0,0-1.643,2.443,1.829,1.829,0,0,0,1.919,2.021,2,2,0,0,0,1.847-2.078Zm-3.563-7.078c0,1.051.836,1.658,1.919,1.959a2.284,2.284,0,0,0,1.375-2.08c0-.954-.479-1.872-1.644-1.787a1.764,1.764,0,0,0-1.65,1.906Z" transform="translate(-2603.891 -2621.845)" fill="#fff"/>
      </g>
      <path id="Trazado_131588" data-name="Trazado 131588" d="M2259.835,474.579l-93.628-5.042c-7.712-.411-14,5.262-14,12.682v51.3c0,7.42,6.286,13.591,14,13.781l30.61.754,14.285,16.882a2.506,2.506,0,0,0,3.429.377h0l13.739-16.483,31.566.778a12.48,12.48,0,0,0,12.9-12.514v-49A13.721,13.721,0,0,0,2259.835,474.579Z" transform="translate(-1977.27 -468.025)" fill="url(#linear-gradient-21)"/>
      <path id="Trazado_131589" data-name="Trazado 131589" d="M2278.005,460.069l-93.629-5.042c-7.712-.411-14,5.262-14,12.682v51.3c0,7.421,6.285,13.591,14,13.782l30.61.754,13.937,16.471a2.506,2.506,0,0,0,3.8.029l13.713-15.723L2278,535.1a12.48,12.48,0,0,0,12.9-12.514V473.6A13.722,13.722,0,0,0,2278.005,460.069Z" transform="translate(-1993.574 -455.006)" fill="#26aab7"/>
      <path id="Trazado_131590" data-name="Trazado 131590" d="M2525.655,622.866c-.513-9.711-7.116-17.873-15.334-18.9-6.536-.822-12.352,2.876-15.448,8.851-3.1-6.272-8.973-10.548-15.632-10.366-8.47.231-15.35,7.922-15.892,17.818a22.254,22.254,0,0,0,5.91,16.6l23.912,19.471a2.694,2.694,0,0,0,3.41.1L2520,638.666A20.6,20.6,0,0,0,2525.655,622.866Z" transform="translate(-2256.418 -587.301)" fill="#fff"/>
    </g>
  </g>
</svg>
