<svg xmlns="http://www.w3.org/2000/svg" xmlns:xlink="http://www.w3.org/1999/xlink" width="460.399" height="315.81" viewBox="0 0 460.399 315.81">
  <defs>
    <linearGradient id="linear-gradient" x1="-0.728" y1="0.478" x2="0.208" y2="0.478" gradientUnits="objectBoundingBox">
      <stop offset="0" stop-color="#dae3fe"/>
      <stop offset="1" stop-color="#e9effd"/>
    </linearGradient>
    <linearGradient id="linear-gradient-2" y1="0.5" x2="1" y2="0.5" gradientUnits="objectBoundingBox">
      <stop offset="0" stop-color="#09005d"/>
      <stop offset="1" stop-color="#1a0f91"/>
    </linearGradient>
    <linearGradient id="linear-gradient-3" x1="0" y1="0.5" x2="1" y2="0.5" xlink:href="#linear-gradient-2"/>
    <clipPath id="clip-path">
      <path id="Trazado_131024" data-name="Trazado 131024" d="M803.486,579.477l-4.7-182.094a5.461,5.461,0,0,1,5.525-5.595l158.044,2.135a5.461,5.461,0,0,1,5.379,5.461l-.02,176.357a5.461,5.461,0,0,1-5.334,5.461l-153.571,3.366A5.212,5.212,0,0,1,803.486,579.477Z" transform="translate(-798.783 -391.788)" fill="none"/>
    </clipPath>
    <linearGradient id="linear-gradient-4" x1="0.817" y1="-0.14" x2="-0.287" y2="2.124" gradientUnits="objectBoundingBox">
      <stop offset="0" stop-color="#a22b25"/>
      <stop offset="1" stop-color="#c0423c"/>
    </linearGradient>
    <linearGradient id="linear-gradient-5" y1="0.5" x2="1" y2="0.5" gradientUnits="objectBoundingBox">
      <stop offset="0" stop-color="#e1473d"/>
      <stop offset="1" stop-color="#e9605a"/>
    </linearGradient>
    <linearGradient id="linear-gradient-6" x1="1.31" y1="-0.547" x2="0.714" y2="0.23" xlink:href="#linear-gradient-4"/>
    <linearGradient id="linear-gradient-7" x1="0.759" y1="0.262" x2="-1.282" y2="2.229" gradientUnits="objectBoundingBox">
      <stop offset="0" stop-color="#fe7062"/>
      <stop offset="1" stop-color="#ff928e"/>
    </linearGradient>
    <linearGradient id="linear-gradient-8" x1="1.104" y1="-1.56" x2="-1.202" y2="6.412" xlink:href="#linear-gradient-7"/>
    <linearGradient id="linear-gradient-9" x1="0.301" y1="0.866" x2="-0.327" y2="1.989" gradientUnits="objectBoundingBox">
      <stop offset="0" stop-color="#4042e2"/>
      <stop offset="1" stop-color="#4f52ff"/>
    </linearGradient>
    <linearGradient id="linear-gradient-10" x1="-0.209" y1="1.251" x2="-0.717" y2="1.783" xlink:href="#linear-gradient-5"/>
    <linearGradient id="linear-gradient-11" x1="1.416" y1="-1.311" x2="0.858" y2="-0.212" xlink:href="#linear-gradient-5"/>
    <linearGradient id="linear-gradient-12" x1="1.855" y1="-9.052" x2="1.225" y2="-4.597" xlink:href="#linear-gradient-5"/>
    <linearGradient id="linear-gradient-13" x1="0.1" y1="1.087" x2="0.647" y2="0.297" xlink:href="#linear-gradient-9"/>
    <linearGradient id="linear-gradient-14" x1="1.115" y1="0.139" x2="0.072" y2="0.768" xlink:href="#linear-gradient-5"/>
    <linearGradient id="linear-gradient-15" x1="0.74" y1="-0.92" x2="0.411" y2="0.928" xlink:href="#linear-gradient-4"/>
    <linearGradient id="linear-gradient-16" x1="0.922" y1="-7.962" x2="0.563" y2="-0.738" xlink:href="#linear-gradient-4"/>
    <linearGradient id="linear-gradient-17" x1="1.092" y1="-0.633" x2="0.782" y2="-0.035" xlink:href="#linear-gradient-9"/>
    <linearGradient id="linear-gradient-18" x1="0.32" y1="1.189" x2="-0.093" y2="2.867" xlink:href="#linear-gradient-9"/>
    <linearGradient id="linear-gradient-19" x1="0.512" y1="0.349" x2="0.046" y2="7.148" xlink:href="#linear-gradient-9"/>
    <linearGradient id="linear-gradient-20" x1="0.203" y1="-0.095" x2="0.777" y2="0.878" xlink:href="#linear-gradient-9"/>
    <linearGradient id="linear-gradient-21" x1="0.92" y1="-0.096" x2="-0.553" y2="2.026" xlink:href="#linear-gradient-9"/>
    <linearGradient id="linear-gradient-22" x1="0" y1="0.817" x2="-0.383" y2="1.052" xlink:href="#linear-gradient-4"/>
    <linearGradient id="linear-gradient-23" x1="0.323" y1="0.63" x2="-3.712" y2="3.203" xlink:href="#linear-gradient-7"/>
    <linearGradient id="linear-gradient-24" x1="0.743" y1="-0.031" x2="-3.816" y2="10.433" xlink:href="#linear-gradient-7"/>
    <linearGradient id="linear-gradient-25" x1="-0.357" y1="1.12" x2="0.571" y2="0.459" xlink:href="#linear-gradient-4"/>
    <linearGradient id="linear-gradient-26" x1="0.828" y1="-0.832" x2="0.386" y2="0.906" xlink:href="#linear-gradient-7"/>
    <linearGradient id="linear-gradient-27" x1="1.014" y1="-6.753" x2="0.577" y2="-0.562" xlink:href="#linear-gradient-7"/>
    <linearGradient id="linear-gradient-28" x1="-0.585" y1="0.987" x2="0.173" y2="0.653" xlink:href="#linear-gradient-9"/>
    <linearGradient id="linear-gradient-29" x1="0.014" y1="1.087" x2="-0.936" y2="2.217" xlink:href="#linear-gradient-9"/>
    <linearGradient id="linear-gradient-30" x1="1.237" y1="0.197" x2="-0.024" y2="0.731" xlink:href="#linear-gradient-5"/>
    <linearGradient id="linear-gradient-31" x1="1.014" y1="-6.753" x2="0.577" y2="-0.562" xlink:href="#linear-gradient-4"/>
    <linearGradient id="linear-gradient-32" x1="0" y1="0.817" x2="-0.383" y2="1.052" xlink:href="#linear-gradient-4"/>
    <linearGradient id="linear-gradient-33" x1="0.828" y1="-0.832" x2="0.387" y2="0.906" xlink:href="#linear-gradient-7"/>
    <linearGradient id="linear-gradient-34" x1="1.015" y1="-6.753" x2="0.577" y2="-0.562" xlink:href="#linear-gradient-7"/>
    <linearGradient id="linear-gradient-35" x1="1.237" y1="0.197" x2="-0.024" y2="0.731" xlink:href="#linear-gradient-5"/>
    <linearGradient id="linear-gradient-36" x1="1.014" y1="-6.753" x2="0.577" y2="-0.562" xlink:href="#linear-gradient-4"/>
    <linearGradient id="linear-gradient-37" x1="0.92" y1="-0.096" x2="-0.553" y2="2.026" xlink:href="#linear-gradient-5"/>
    <linearGradient id="linear-gradient-38" x1="1.014" y1="-6.753" x2="0.577" y2="-0.562" xlink:href="#linear-gradient-4"/>
    <linearGradient id="linear-gradient-39" x1="-0.396" y1="1.103" x2="-1.097" y2="1.569" xlink:href="#linear-gradient-9"/>
    <linearGradient id="linear-gradient-40" x1="0" y1="0.5" x2="1" y2="0.5" xlink:href="#linear-gradient-4"/>
    <linearGradient id="linear-gradient-41" x1="0.618" y1="-0.142" x2="0.021" y2="4.742" xlink:href="#linear-gradient-9"/>
    <linearGradient id="linear-gradient-42" x1="0.386" y1="4.383" x2="0.56" y2="-2.269" xlink:href="#linear-gradient-9"/>
    <linearGradient id="linear-gradient-43" x1="-0.27" y1="1.019" x2="0.582" y2="0.466" xlink:href="#linear-gradient-7"/>
    <linearGradient id="linear-gradient-44" x1="-0.132" y1="0.687" x2="0.295" y2="0.58" xlink:href="#linear-gradient-4"/>
    <linearGradient id="linear-gradient-45" x1="0.45" y1="1.935" x2="0.3" y2="5.219" xlink:href="#linear-gradient-9"/>
    <linearGradient id="linear-gradient-46" x1="0.64" y1="-1.99" x2="0.402" y2="1.448" xlink:href="#linear-gradient-9"/>
    <linearGradient id="linear-gradient-47" x1="-0.262" y1="0.54" x2="0.56" y2="0.5" xlink:href="#linear-gradient-7"/>
    <linearGradient id="linear-gradient-49" x1="0.539" y1="-0.02" x2="0.326" y2="4.612" xlink:href="#linear-gradient-7"/>
    <linearGradient id="linear-gradient-50" x1="0.603" y1="-3.919" x2="0.778" y2="-10.571" xlink:href="#linear-gradient-7"/>
    <linearGradient id="linear-gradient-51" x1="1.187" y1="-0.155" x2="-0.186" y2="1.193" xlink:href="#linear-gradient-7"/>
    <linearGradient id="linear-gradient-52" x1="0.661" y1="0.403" x2="-0.778" y2="1.514" xlink:href="#linear-gradient-9"/>
    <linearGradient id="linear-gradient-53" x1="1.084" y1="-3.261" x2="0.572" y2="0.318" xlink:href="#linear-gradient-4"/>
    <linearGradient id="linear-gradient-54" x1="0.386" y1="4.383" x2="0.56" y2="-2.269" xlink:href="#linear-gradient-4"/>
    <linearGradient id="linear-gradient-55" x1="1.213" y1="-0.169" x2="0.084" y2="0.922" xlink:href="#linear-gradient-7"/>
    <linearGradient id="linear-gradient-56" x1="0" y1="0.5" x2="1" y2="0.5" xlink:href="#linear-gradient-5"/>
    <linearGradient id="linear-gradient-57" x1="0.982" y1="-2.92" x2="0.698" y2="-0.709" xlink:href="#linear-gradient-9"/>
    <linearGradient id="linear-gradient-58" x1="0.383" y1="4.335" x2="0.561" y2="-2.227" xlink:href="#linear-gradient-9"/>
    <linearGradient id="linear-gradient-59" x1="1.634" y1="-0.735" x2="1.107" y2="-0.152" xlink:href="#linear-gradient-7"/>
    <linearGradient id="linear-gradient-60" x1="0" y1="0.5" x2="1" y2="0.5" xlink:href="#linear-gradient-4"/>
    <linearGradient id="linear-gradient-62" x1="1.015" y1="-2.28" x2="0.667" y2="-0.189" xlink:href="#linear-gradient-9"/>
    <linearGradient id="linear-gradient-63" x1="0.641" y1="-1.926" x2="0.4" y2="1.426" xlink:href="#linear-gradient-9"/>
    <linearGradient id="linear-gradient-64" x1="1.327" y1="-0.707" x2="1.008" y2="-0.234" xlink:href="#linear-gradient-7"/>
    <linearGradient id="linear-gradient-65" x1="0.497" y1="0.59" x2="0.407" y2="2.563" xlink:href="#linear-gradient-9"/>
    <linearGradient id="linear-gradient-67" x1="0.303" y1="2.859" x2="0.05" y2="5.472" xlink:href="#linear-gradient-7"/>
    <linearGradient id="linear-gradient-68" x1="0.383" y1="4.335" x2="0.561" y2="-2.227" gradientUnits="objectBoundingBox">
      <stop offset="0" stop-color="#fdf53f"/>
      <stop offset="1" stop-color="#d93c65"/>
    </linearGradient>
    <linearGradient id="linear-gradient-69" x1="1.473" y1="-0.943" x2="0.821" y2="0.037" xlink:href="#linear-gradient-7"/>
    <linearGradient id="linear-gradient-70" x1="0" y1="0.5" x2="1" y2="0.5" xlink:href="#linear-gradient-5"/>
    <linearGradient id="linear-gradient-71" x1="0.978" y1="-0.19" x2="0.514" y2="0.507" xlink:href="#linear-gradient-9"/>
    <linearGradient id="linear-gradient-72" x1="0" y1="0.5" x2="1" y2="0.5" xlink:href="#linear-gradient-5"/>
    <linearGradient id="linear-gradient-73" x1="0.383" y1="4.335" x2="0.561" y2="-2.227" xlink:href="#linear-gradient-5"/>
    <linearGradient id="linear-gradient-74" x1="0.868" y1="-0.25" x2="-0.068" y2="1.708" xlink:href="#linear-gradient-7"/>
    <linearGradient id="linear-gradient-75" x1="0.48" y1="1.221" x2="0.428" y2="3.011" xlink:href="#linear-gradient-9"/>
    <linearGradient id="linear-gradient-76" x1="0.543" y1="0.306" x2="1.129" y2="-2.728" xlink:href="#linear-gradient-4"/>
    <linearGradient id="linear-gradient-77" x1="0.482" y1="1.155" x2="0.044" y2="8.92" xlink:href="#linear-gradient-4"/>
    <linearGradient id="linear-gradient-78" x1="0.545" y1="2.728" x2="0.246" y2="-15.296" xlink:href="#linear-gradient-4"/>
    <linearGradient id="linear-gradient-79" x1="-0.039" y1="0.753" x2="0.327" y2="0.6" xlink:href="#linear-gradient-4"/>
    <linearGradient id="linear-gradient-80" x1="0.551" y1="-1.681" x2="0.689" y2="-8.522" xlink:href="#linear-gradient-9"/>
    <linearGradient id="linear-gradient-81" x1="0.63" y1="-3.061" x2="0.423" y2="1.857" xlink:href="#linear-gradient-9"/>
    <linearGradient id="linear-gradient-82" x1="0.454" y1="0.768" x2="1.04" y2="-2.266" xlink:href="#linear-gradient-4"/>
    <linearGradient id="linear-gradient-83" x1="0" y1="0.499" x2="1" y2="0.499" xlink:href="#linear-gradient-9"/>
    <linearGradient id="linear-gradient-84" x1="0.415" y1="5.387" x2="0.549" y2="-3.031" xlink:href="#linear-gradient-9"/>
    <linearGradient id="linear-gradient-85" x1="0.022" y1="0.837" x2="-1.62" y2="1.9" xlink:href="#linear-gradient-9"/>
    <linearGradient id="linear-gradient-86" x1="0.573" y1="5.827" x2="0.722" y2="16.034" xlink:href="#linear-gradient-7"/>
    <linearGradient id="linear-gradient-87" x1="0.495" y1="-0.486" x2="0.662" y2="16.102" xlink:href="#linear-gradient-5"/>
    <linearGradient id="linear-gradient-89" x1="0" y1="0.499" x2="1" y2="0.499" xlink:href="#linear-gradient-4"/>
    <linearGradient id="linear-gradient-90" x1="0.538" y1="1.524" x2="0.243" y2="-9.949" xlink:href="#linear-gradient-4"/>
    <linearGradient id="linear-gradient-91" x1="1.815" y1="-2.838" x2="1.232" y2="-1.349" xlink:href="#linear-gradient-7"/>
    <linearGradient id="linear-gradient-93" x1="0.589" y1="0.005" x2="-0.442" y2="9.486" xlink:href="#linear-gradient-9"/>
    <linearGradient id="linear-gradient-94" x1="0.638" y1="-2.096" x2="0.405" y2="1.491" xlink:href="#linear-gradient-9"/>
    <linearGradient id="linear-gradient-95" x1="0.842" y1="-0.265" x2="-0.026" y2="1.729" xlink:href="#linear-gradient-7"/>
    <linearGradient id="linear-gradient-97" x1="0" y1="0.499" x2="1" y2="0.499" xlink:href="#linear-gradient-9"/>
    <linearGradient id="linear-gradient-98" x1="0.39" y1="4.472" x2="0.559" y2="-2.336" xlink:href="#linear-gradient-9"/>
    <linearGradient id="linear-gradient-99" x1="1.567" y1="-2.205" x2="0.984" y2="-0.716" xlink:href="#linear-gradient-7"/>
    <linearGradient id="linear-gradient-100" x1="1.906" y1="-0.868" x2="1.125" y2="-0.093" xlink:href="#linear-gradient-9"/>
    <linearGradient id="linear-gradient-101" x1="0" y1="0.499" x2="1" y2="0.499" xlink:href="#linear-gradient-7"/>
    <linearGradient id="linear-gradient-102" x1="0.496" y1="-0.22" x2="0.661" y2="9.286" xlink:href="#linear-gradient-5"/>
    <linearGradient id="linear-gradient-103" x1="0.841" y1="-0.265" x2="-0.025" y2="1.729" xlink:href="#linear-gradient-7"/>
    <linearGradient id="linear-gradient-104" x1="3.284" y1="-11.44" x2="-5.296" y2="25.445" xlink:href="#linear-gradient-7"/>
    <linearGradient id="linear-gradient-105" x1="2.691" y1="-8.89" x2="-5.889" y2="27.995" xlink:href="#linear-gradient-7"/>
    <linearGradient id="linear-gradient-106" x1="2.098" y1="-6.34" x2="-6.482" y2="30.545" xlink:href="#linear-gradient-7"/>
    <linearGradient id="linear-gradient-107" x1="1.505" y1="-3.79" x2="-7.077" y2="33.095" xlink:href="#linear-gradient-7"/>
    <linearGradient id="linear-gradient-108" x1="2.212" y1="-11.28" x2="1.347" y2="-5.329" xlink:href="#linear-gradient-7"/>
    <linearGradient id="linear-gradient-109" x1="1.935" y1="-9.374" x2="1.07" y2="-3.424" xlink:href="#linear-gradient-7"/>
    <linearGradient id="linear-gradient-110" x1="1.658" y1="-7.468" x2="0.793" y2="-1.518" xlink:href="#linear-gradient-7"/>
    <linearGradient id="linear-gradient-111" x1="1.381" y1="-5.562" x2="0.516" y2="0.388" xlink:href="#linear-gradient-7"/>
    <linearGradient id="linear-gradient-112" x1="5.715" y1="-21.897" x2="-2.866" y2="15.001" xlink:href="#linear-gradient-7"/>
    <linearGradient id="linear-gradient-113" x1="5.122" y1="-19.346" x2="-3.459" y2="17.552" xlink:href="#linear-gradient-7"/>
    <linearGradient id="linear-gradient-114" x1="4.528" y1="-16.795" x2="-4.052" y2="20.103" xlink:href="#linear-gradient-7"/>
    <linearGradient id="linear-gradient-115" x1="3.936" y1="-14.244" x2="-4.646" y2="22.654" xlink:href="#linear-gradient-7"/>
    <linearGradient id="linear-gradient-116" x1="6.831" y1="-25.604" x2="-1.764" y2="9.881" xlink:href="#linear-gradient-7"/>
    <linearGradient id="linear-gradient-117" x1="6.219" y1="-23.074" x2="-2.376" y2="12.41" xlink:href="#linear-gradient-7"/>
    <linearGradient id="linear-gradient-118" x1="5.607" y1="-20.545" x2="-2.989" y2="14.94" xlink:href="#linear-gradient-7"/>
    <linearGradient id="linear-gradient-119" x1="4.993" y1="-18.016" x2="-3.601" y2="17.469" xlink:href="#linear-gradient-7"/>
    <linearGradient id="linear-gradient-123" x1="-30.166" y1="0.5" x2="-29.166" y2="0.5" xlink:href="#linear-gradient-9"/>
    <linearGradient id="linear-gradient-124" x1="-30.166" y1="0.5" x2="-29.166" y2="0.5" xlink:href="#linear-gradient-9"/>
    <linearGradient id="linear-gradient-125" x1="-30.166" y1="0.5" x2="-29.166" y2="0.5" xlink:href="#linear-gradient-9"/>
    <linearGradient id="linear-gradient-126" x1="-22.834" y1="0.5" x2="-21.834" y2="0.5" xlink:href="#linear-gradient-9"/>
    <linearGradient id="linear-gradient-127" x1="-150.62" y1="0.501" x2="-149.62" y2="0.501" xlink:href="#linear-gradient-2"/>
    <linearGradient id="linear-gradient-128" y1="0.501" x2="1" y2="0.501" gradientUnits="objectBoundingBox">
      <stop offset="0" stop-color="#ff928e"/>
      <stop offset="1" stop-color="#feb3b1"/>
    </linearGradient>
    <linearGradient id="linear-gradient-129" x1="-92.934" y1="0.5" x2="-91.934" y2="0.5" xlink:href="#linear-gradient-2"/>
    <linearGradient id="linear-gradient-130" x1="0" y1="0.5" x2="1" y2="0.5" xlink:href="#linear-gradient-128"/>
    <linearGradient id="linear-gradient-131" x1="-54.247" y1="0.5" x2="-53.247" y2="0.5" xlink:href="#linear-gradient-2"/>
    <linearGradient id="linear-gradient-132" x1="0" y1="0.499" x2="1" y2="0.499" xlink:href="#linear-gradient-9"/>
    <linearGradient id="linear-gradient-133" x1="-0.001" y1="0.5" x2="0.999" y2="0.5" xlink:href="#linear-gradient-128"/>
    <linearGradient id="linear-gradient-134" x1="1.525" y1="-1.795" x2="0.618" y2="0.178" xlink:href="#linear-gradient-128"/>
    <linearGradient id="linear-gradient-135" x1="1.346" y1="-5.775" x2="0.615" y2="-0.494" xlink:href="#linear-gradient-128"/>
    <linearGradient id="linear-gradient-136" x1="0" y1="0.5" x2="1" y2="0.5" xlink:href="#linear-gradient-128"/>
    <linearGradient id="linear-gradient-137" x1="-0.001" y1="0.5" x2="0.999" y2="0.5" xlink:href="#linear-gradient-128"/>
    <linearGradient id="linear-gradient-138" x1="0.46" y1="-0.449" x2="0.558" y2="2.181" xlink:href="#linear-gradient-2"/>
    <linearGradient id="linear-gradient-139" x1="0" y1="0.5" x2="1" y2="0.5" xlink:href="#linear-gradient-128"/>
    <linearGradient id="linear-gradient-140" x1="-42.402" y1="0.302" x2="-41.731" y2="1.263" xlink:href="#linear-gradient-4"/>
    <linearGradient id="linear-gradient-141" x1="-125.167" y1="0.5" x2="-124.166" y2="0.5" xlink:href="#linear-gradient-9"/>
    <linearGradient id="linear-gradient-142" x1="-95.929" y1="1.602" x2="-94.894" y2="-1.187" xlink:href="#linear-gradient-4"/>
    <linearGradient id="linear-gradient-143" x1="-82.678" y1="0.5" x2="-81.678" y2="0.5" xlink:href="#linear-gradient-9"/>
    <linearGradient id="linear-gradient-144" x1="-40.788" y1="1.698" x2="-40.324" y2="-1.193" xlink:href="#linear-gradient-4"/>
    <linearGradient id="linear-gradient-145" x1="-34.98" y1="-0.331" x2="-35.966" y2="0.684" xlink:href="#linear-gradient-2"/>
    <linearGradient id="linear-gradient-146" x1="1.064" y1="-0.047" x2="-0.953" y2="2.053" xlink:href="#linear-gradient-4"/>
    <linearGradient id="linear-gradient-147" x1="-72.858" y1="0.5" x2="-71.859" y2="0.5" xlink:href="#linear-gradient-4"/>
    <linearGradient id="linear-gradient-148" x1="-81.891" y1="3.18" x2="-82.428" y2="1.988" xlink:href="#linear-gradient-4"/>
    <linearGradient id="linear-gradient-149" x1="-296.546" y1="8.311" x2="-298.497" y2="4.47" xlink:href="#linear-gradient-4"/>
    <linearGradient id="linear-gradient-150" x1="-129.347" y1="1.605" x2="-127.347" y2="4.278" xlink:href="#linear-gradient-4"/>
    <linearGradient id="linear-gradient-151" x1="2.087" y1="-3.216" x2="1.244" y2="-1.289" xlink:href="#linear-gradient-4"/>
    <linearGradient id="linear-gradient-152" x1="0" y1="0.5" x2="1" y2="0.5" xlink:href="#linear-gradient"/>
  </defs>
  <g id="product-01" transform="translate(-177.514 -176.148)">
    <g id="Illustration" transform="translate(180.454 147.268)">
      <path id="Trazado_130774" data-name="Trazado 130774" d="M513.7,170c24.924,30.78,114.868-.052,112.543,55.327-2.72,64.846-90.773,81.44-63.559,127.836s-5.373,96.624-119.305,92.405-295.814-66.684-250.1-127.576,16.374-64.923,14.907-92.455,22.386-87.154,109.383-34.376S450.582,92.039,513.7,170Z" transform="translate(-188.999 -118.388)" fill="url(#linear-gradient)"/>
      <path id="Trazado_130785" data-name="Trazado 130785" d="M1740.313,549.844a4.686,4.686,0,0,0-4.622-4.624h-95.25a5.127,5.127,0,0,0-5.061,4.768V779.821a5.035,5.035,0,0,0,4.964,4.657l99.589-.281a4.666,4.666,0,0,0,3.319-1.4,4.763,4.763,0,0,0,1.333-3.373Z" transform="translate(-1317.711 -446.442)" fill="rgba(125,110,178,0.6)"/>
      <path id="Trazado_130786" data-name="Trazado 130786" d="M1692.7,611.8l-27.135-.037-.214-14h27.16Z" transform="translate(-1340.242 -485.941)" fill="#fff" opacity="0.31"/>
      <path id="Trazado_130787" data-name="Trazado 130787" d="M1815.4,611.794l-27.105-.035-.186-14h27.132Z" transform="translate(-1432.531 -485.941)" fill="#fff" opacity="0.31"/>
      <path id="Trazado_130788" data-name="Trazado 130788" d="M1937.984,611.787l-27.078-.035-.156-13.992h27.1Z" transform="translate(-1524.73 -485.941)" fill="#fff" opacity="0.31"/>
      <path id="Trazado_130789" data-name="Trazado 130789" d="M1694.211,713.485l-27.088.017-.213-13.912,27.112-.01Z" transform="translate(-1341.415 -562.487)" fill="#7d97f4"/>
      <path id="Trazado_130790" data-name="Trazado 130790" d="M1816.7,713.428l-27.06.02-.186-13.908,27.088-.01Z" transform="translate(-1433.538 -562.45)" fill="#fff" opacity="0.31"/>
      <path id="Trazado_130791" data-name="Trazado 130791" d="M1939.067,713.373l-27.033.017-.154-13.9,27.058-.01Z" transform="translate(-1525.579 -562.412)" fill="#fff" opacity="0.31"/>
      <path id="Trazado_130792" data-name="Trazado 130792" d="M1695.714,814.208l-27.041.027-.214-13.863,27.066-.022Z" transform="translate(-1342.58 -638.245)" fill="#fff" opacity="0.31"/>
      <path id="Trazado_130793" data-name="Trazado 130793" d="M1817.99,814.1l-27.013.03-.186-13.858,27.041-.022Z" transform="translate(-1434.546 -638.17)" fill="#fff" opacity="0.31"/>
      <path id="Trazado_130794" data-name="Trazado 130794" d="M1940.15,813.986l-26.986.03-.154-13.85,27.011-.025Z" transform="translate(-1526.429 -638.087)" fill="#fff" opacity="0.31"/>
      <path id="Trazado_130795" data-name="Trazado 130795" d="M1697.217,914.581l-26.994.04-.213-13.818,27.018-.032Z" transform="translate(-1343.745 -713.739)" fill="#fff" opacity="0.31"/>
      <path id="Trazado_130796" data-name="Trazado 130796" d="M1819.28,914.423l-26.966.04-.183-13.811,26.991-.032Z" transform="translate(-1435.553 -713.626)" fill="#fff" opacity="0.31"/>
      <path id="Trazado_130797" data-name="Trazado 130797" d="M1941.223,914.266l-26.939.04-.154-13.8,26.964-.032Z" transform="translate(-1527.271 -713.513)" fill="#fff" opacity="0.31"/>
      <path id="Trazado_130798" data-name="Trazado 130798" d="M1698.71,1014.6l-26.946.05-.213-13.768,26.974-.045Z" transform="translate(-1344.903 -788.97)" fill="#fff" opacity="0.31"/>
      <path id="Trazado_130799" data-name="Trazado 130799" d="M1820.563,1014.4l-26.919.052-.184-13.764,26.946-.045Z" transform="translate(-1436.553 -788.82)" fill="#fff" opacity="0.31"/>
      <path id="Trazado_130800" data-name="Trazado 130800" d="M1942.3,1014.189l-26.892.052-.154-13.756,26.919-.045Z" transform="translate(-1528.113 -788.669)" fill="#fff" opacity="0.31"/>
      <path id="Trazado_130801" data-name="Trazado 130801" d="M1700.2,1114.286l-26.9.062-.211-13.721,26.926-.057Z" transform="translate(-1346.061 -863.945)" fill="#fff" opacity="0.31"/>
      <path id="Trazado_130802" data-name="Trazado 130802" d="M1821.846,1114.029l-26.874.062-.181-13.716,26.9-.055Z" transform="translate(-1437.553 -863.757)" fill="#7d97f4"/>
      <path id="Trazado_130803" data-name="Trazado 130803" d="M1943.368,1113.771l-26.847.062-.151-13.709,26.869-.055Z" transform="translate(-1528.955 -863.569)" fill="#7d97f4"/>
      <path id="Trazado_130804" data-name="Trazado 130804" d="M1701.686,1213.627l-26.855.072-.211-13.674,26.879-.065Z" transform="translate(-1347.211 -938.665)" fill="#fff" opacity="0.31"/>
      <path id="Trazado_130805" data-name="Trazado 130805" d="M1823.119,1213.319l-26.827.074-.181-13.669,26.852-.065Z" transform="translate(-1438.545 -938.44)" fill="#7d97f4"/>
      <path id="Trazado_130806" data-name="Trazado 130806" d="M1944.431,1213.014l-26.8.072-.151-13.662,26.825-.064Z" transform="translate(-1529.789 -938.214)" fill="#7d97f4"/>
      <path id="Trazado_130807" data-name="Trazado 130807" d="M1703.168,1312.622l-26.807.082-.211-13.627,26.832-.077Z" transform="translate(-1348.361 -1013.122)" fill="#fff" opacity="0.31"/>
      <path id="Trazado_130808" data-name="Trazado 130808" d="M1824.391,1312.265l-26.78.082-.181-13.62,26.8-.077Z" transform="translate(-1439.538 -1012.859)" fill="#7d97f4"/>
      <path id="Trazado_130809" data-name="Trazado 130809" d="M1945.494,1311.91l-26.753.082-.151-13.615,26.777-.077Z" transform="translate(-1530.624 -1012.596)" fill="#7d97f4"/>
      <path id="Trazado_130810" data-name="Trazado 130810" d="M1704.641,1411.275l-26.76.094-.211-13.58,26.787-.089Z" transform="translate(-1349.504 -1087.323)" fill="#fff" opacity="0.31"/>
      <path id="Trazado_130811" data-name="Trazado 130811" d="M1825.654,1410.867l-26.733.094-.181-13.573,26.76-.089Z" transform="translate(-1440.522 -1087.022)" fill="#7d97f4"/>
      <path id="Trazado_130812" data-name="Trazado 130812" d="M1946.55,1410.47l-26.708.094L1919.69,1397l26.733-.087Z" transform="translate(-1531.451 -1086.729)" fill="#7d97f4"/>
      <path id="Trazado_130813" data-name="Trazado 130813" d="M516.837,736.133c-.06-2.045-2.658-3.723-5.843-3.723H390.627c-3.227,0-6.4,1.77-6.4,3.842v185.2a3.67,3.67,0,0,0,1.986,2.656,8.3,8.3,0,0,0,4.279,1.1l125.86-.221a7.831,7.831,0,0,0,4.195-1.129,3.273,3.273,0,0,0,1.685-2.715Z" transform="translate(-377.116 -587.168)" fill="rgba(125,110,178,0.6)"/>
      <path id="Trazado_130814" data-name="Trazado 130814" d="M456.634,786.054l-34.293-.03-.271-11.284H456.4Z" transform="translate(-405.563 -618.992)" fill="rgba(125,110,178,0.6)"/>
      <path id="Trazado_130815" data-name="Trazado 130815" d="M611.7,786.049l-34.259-.03-.236-11.279H611.5Z" transform="translate(-522.195 -618.992)" fill="rgba(125,110,178,0.6)"/>
      <path id="Trazado_130816" data-name="Trazado 130816" d="M766.623,786.041l-34.224-.03-.2-11.271h34.259Z" transform="translate(-638.714 -618.992)" fill="#91b3fa"/>
      <path id="Trazado_130817" data-name="Trazado 130817" d="M458.542,867.987,424.311,868l-.271-11.209,34.266-.01Z" transform="translate(-407.044 -680.668)" fill="rgba(125,110,178,0.6)"/>
      <path id="Trazado_130818" data-name="Trazado 130818" d="M613.342,867.939l-34.2.015-.236-11.207,34.231-.008Z" transform="translate(-523.473 -680.638)" fill="rgba(125,110,178,0.6)"/>
      <path id="Trazado_130819" data-name="Trazado 130819" d="M767.993,867.895l-34.164.015-.2-11.2,34.2-.008Z" transform="translate(-639.789 -680.608)" fill="#91b3fa"/>
      <path id="Trazado_130820" data-name="Trazado 130820" d="M460.445,949.147l-34.174.025L426,938l34.207-.017Z" transform="translate(-408.518 -741.713)" fill="rgba(125,110,178,0.6)"/>
      <path id="Trazado_130821" data-name="Trazado 130821" d="M614.983,949.062l-34.14.022-.233-11.167,34.172-.017Z" transform="translate(-524.751 -741.653)" fill="rgba(125,110,178,0.6)"/>
      <path id="Trazado_130822" data-name="Trazado 130822" d="M769.361,948.975l-34.1.025-.2-11.162,34.137-.017Z" transform="translate(-640.864 -741.593)" fill="#91b3fa"/>
      <path id="Trazado_130823" data-name="Trazado 130823" d="M462.343,1030.03l-34.115.032-.268-11.135,34.147-.027Z" transform="translate(-409.991 -802.547)" fill="rgba(125,110,178,0.6)"/>
      <path id="Trazado_130824" data-name="Trazado 130824" d="M616.611,1029.9l-34.08.032-.231-11.128,34.112-.027Z" transform="translate(-526.022 -802.457)" fill="rgba(125,110,178,0.6)"/>
      <path id="Trazado_130825" data-name="Trazado 130825" d="M770.721,1029.778l-34.045.032-.2-11.123,34.078-.027Z" transform="translate(-641.932 -802.367)" fill="#91b3fa"/>
      <path id="Trazado_130826" data-name="Trazado 130826" d="M464.233,1110.63l-34.055.042-.268-11.1L464,1099.54Z" transform="translate(-411.457 -863.171)" fill="rgba(125,110,178,0.6)"/>
      <path id="Trazado_130827" data-name="Trazado 130827" d="M618.231,1110.465l-34.02.04-.231-11.088,34.053-.037Z" transform="translate(-527.285 -863.051)" fill="rgba(125,110,178,0.6)"/>
      <path id="Trazado_130828" data-name="Trazado 130828" d="M772.082,1110.3l-33.988.04-.194-11.085,34.018-.035Z" transform="translate(-642.999 -862.93)" fill="#91b3fa"/>
      <path id="Trazado_130829" data-name="Trazado 130829" d="M466.114,1190.961l-34,.05-.268-11.056,34.03-.045Z" transform="translate(-412.916 -923.592)" fill="rgba(125,110,178,0.6)"/>
      <path id="Trazado_130830" data-name="Trazado 130830" d="M619.852,1190.748l-33.961.05-.231-11.053,33.993-.045Z" transform="translate(-528.548 -923.434)" fill="rgba(125,110,178,0.6)"/>
      <path id="Trazado_130831" data-name="Trazado 130831" d="M773.432,1190.541l-33.929.05-.194-11.046,33.961-.045Z" transform="translate(-644.06 -923.284)" fill="#91b3fa"/>
      <path id="Trazado_130832" data-name="Trazado 130832" d="M467.994,1271.006l-33.936.057-.268-11.018,33.971-.055Z" transform="translate(-414.374 -983.795)" fill="rgba(125,110,178,0.6)"/>
      <path id="Trazado_130833" data-name="Trazado 130833" d="M621.462,1270.758l-33.9.06-.228-11.016,33.936-.052Z" transform="translate(-529.803 -983.614)" fill="rgba(125,110,178,0.6)"/>
      <path id="Trazado_130834" data-name="Trazado 130834" d="M774.773,1270.513l-33.869.057-.194-11.008,33.9-.052Z" transform="translate(-645.112 -983.434)" fill="#91b3fa"/>
      <path id="Trazado_130835" data-name="Trazado 130835" d="M469.865,1350.776l-33.879.067-.266-10.981,33.911-.062Z" transform="translate(-415.825 -1043.795)" fill="rgba(125,110,178,0.6)"/>
      <path id="Trazado_130836" data-name="Trazado 130836" d="M623.065,1350.491l-33.844.067-.231-10.976,33.879-.062Z" transform="translate(-531.051 -1043.584)" fill="rgba(125,110,178,0.6)"/>
      <path id="Trazado_130837" data-name="Trazado 130837" d="M776.116,1350.206l-33.812.067-.194-10.971,33.844-.062Z" transform="translate(-646.164 -1043.374)" fill="#91b3fa"/>
      <path id="Trazado_130838" data-name="Trazado 130838" d="M471.735,1430.279l-33.822.074-.263-10.944,33.852-.069Z" transform="translate(-417.276 -1103.592)" fill="rgba(125,110,178,0.6)"/>
      <path id="Trazado_130839" data-name="Trazado 130839" d="M624.666,1429.954l-33.787.075-.228-10.939,33.819-.069Z" transform="translate(-532.299 -1103.351)" fill="rgba(125,110,178,0.6)"/>
      <path id="Trazado_130840" data-name="Trazado 130840" d="M777.456,1429.626l-33.755.077-.191-10.934,33.785-.069Z" transform="translate(-647.217 -1103.11)" fill="#91b3fa"/>
      <path id="Trazado_130841" data-name="Trazado 130841" d="M1892.065,1036.045c-.027-.807-1.241-1.455-2.73-1.455h-90.127c-1.506,0-3.108.668-3.108,1.489v114.01c0,.608.638,1.194,1.435,1.624a6.893,6.893,0,0,0,3.093.67l91.115-.136a6.487,6.487,0,0,0,3.036-.687,1.965,1.965,0,0,0,1.219-1.651Z" transform="translate(-1438.538 -814.343)" fill="#7d6eb2"/>
      <path id="Trazado_130842" data-name="Trazado 130842" d="M1884.9,1060.923l-29.481-.055.01-2,29.451.05Z" transform="translate(-1483.133 -832.596)" fill="#91b3fa"/>
      <path id="Trazado_130843" data-name="Trazado 130843" d="M1884.855,1090.49l-29.6-.074.012-2.016,29.57.067Z" transform="translate(-1483.006 -854.796)" fill="#91b3fa"/>
      <path id="Trazado_130844" data-name="Trazado 130844" d="M1884.816,1120.295l-29.726-.092.01-2.033,29.694.087Z" transform="translate(-1482.885 -877.177)" fill="#91b3fa"/>
      <path id="Trazado_130845" data-name="Trazado 130845" d="M1884.77,1150.35l-29.85-.109.012-2.05,29.816.107Z" transform="translate(-1482.758 -899.745)" fill="#91b3fa"/>
      <path id="Trazado_130846" data-name="Trazado 130846" d="M1884.732,1180.664l-29.972-.129.01-2.065,29.94.122Z" transform="translate(-1482.637 -922.509)" fill="#91b3fa"/>
      <path id="Trazado_130847" data-name="Trazado 130847" d="M1884.645,1242.039l-30.225-.169.01-2.1,30.193.161Z" transform="translate(-1482.382 -968.594)" fill="#91b3fa"/>
      <path id="Trazado_130848" data-name="Trazado 130848" d="M1884.51,1336.053l-30.61-.229.012-2.155,30.575.221Z" transform="translate(-1481.991 -1039.186)" fill="#91b3fa"/>
      <path id="Trazado_130849" data-name="Trazado 130849" d="M1884.689,1211.221l-30.1-.149.01-2.083,30.066.141Z" transform="translate(-1482.509 -945.454)" fill="#91b3fa"/>
      <path id="Trazado_130850" data-name="Trazado 130850" d="M1884.6,1273.116l-30.352-.189.013-2.117,30.317.181Z" transform="translate(-1482.254 -991.929)" fill="#91b3fa"/>
      <path id="Trazado_130851" data-name="Trazado 130851" d="M1884.561,1304.446l-30.481-.208.01-2.137,30.446.2Z" transform="translate(-1482.126 -1015.452)" fill="#91b3fa"/>
      <path id="Trazado_130852" data-name="Trazado 130852" d="M1884.471,1367.923l-30.741-.248.01-2.174,30.707.243Z" transform="translate(-1481.863 -1063.116)" fill="#91b3fa"/>
      <path id="Trazado_130853" data-name="Trazado 130853" d="M1884.423,1400.072l-30.873-.271.013-2.192,30.836.263Z" transform="translate(-1481.728 -1087.255)" fill="#91b3fa"/>
      <path id="Trazado_130854" data-name="Trazado 130854" d="M1884.377,1432.492l-31.007-.29.012-2.212,30.97.285Z" transform="translate(-1481.593 -1111.598)" fill="#91b3fa"/>
      <path id="Trazado_130855" data-name="Trazado 130855" d="M1884.331,1465.192l-31.141-.313.012-2.229,31.1.308Z" transform="translate(-1481.457 -1136.151)" fill="#91b3fa"/>
      <path id="Trazado_130856" data-name="Trazado 130856" d="M2039.969,1061.193l-29.667-.057-.032-2.006,29.635.052Z" transform="translate(-1599.547 -832.791)" fill="#91b3fa"/>
      <path id="Trazado_130857" data-name="Trazado 130857" d="M2040.563,1090.855l-29.791-.074-.032-2.021,29.759.067Z" transform="translate(-1599.901 -855.067)" fill="#91b3fa"/>
      <path id="Trazado_130858" data-name="Trazado 130858" d="M2041.167,1120.76l-29.915-.092-.032-2.038,29.88.087Z" transform="translate(-1600.261 -877.523)" fill="#91b3fa"/>
      <path id="Trazado_130859" data-name="Trazado 130859" d="M2041.774,1150.914l-30.039-.109-.035-2.055,30.007.1Z" transform="translate(-1600.623 -900.166)" fill="#91b3fa"/>
      <path id="Trazado_130860" data-name="Trazado 130860" d="M2042.388,1181.322l-30.166-.129-.032-2.073,30.131.124Z" transform="translate(-1600.991 -922.998)" fill="#91b3fa"/>
      <path id="Trazado_130861" data-name="Trazado 130861" d="M2043.624,1242.9l-30.419-.169-.035-2.107,30.386.164Z" transform="translate(-1601.728 -969.233)" fill="#91b3fa"/>
      <path id="Trazado_130862" data-name="Trazado 130862" d="M2045.526,1337.23l-30.811-.229-.035-2.162,30.773.224Z" transform="translate(-1602.863 -1040.066)" fill="#91b3fa"/>
      <path id="Trazado_130863" data-name="Trazado 130863" d="M2043,1211.979l-30.292-.149-.032-2.09,30.258.144Z" transform="translate(-1601.359 -946.018)" fill="#91b3fa"/>
      <path id="Trazado_130864" data-name="Trazado 130864" d="M2044.253,1274.073l-30.548-.186-.035-2.127,30.513.184Z" transform="translate(-1602.104 -992.643)" fill="#91b3fa"/>
      <path id="Trazado_130865" data-name="Trazado 130865" d="M2044.884,1305.513l-30.679-.208-.035-2.145,30.645.2Z" transform="translate(-1602.479 -1016.249)" fill="#91b3fa"/>
      <path id="Trazado_130866" data-name="Trazado 130866" d="M2046.167,1369.21l-30.943-.251-.035-2.179,30.906.243Z" transform="translate(-1603.246 -1064.078)" fill="#91b3fa"/>
      <path id="Trazado_130867" data-name="Trazado 130867" d="M2046.822,1401.462l-31.077-.271-.035-2.2,31.039.266Z" transform="translate(-1603.637 -1088.293)" fill="#91b3fa"/>
      <path id="Trazado_130868" data-name="Trazado 130868" d="M2047.475,1434l-31.211-.293-.035-2.219,31.174.286Z" transform="translate(-1604.028 -1112.726)" fill="#91b3fa"/>
      <path id="Trazado_130869" data-name="Trazado 130869" d="M2048.132,1466.814l-31.347-.316-.035-2.239,31.31.31Z" transform="translate(-1604.419 -1137.362)" fill="#91b3fa"/>
      <path id="Trazado_130872" data-name="Trazado 130872" d="M763.948,1506.878a12.3,12.3,0,0,1-6.3.233,3.157,3.157,0,0,1-2.318-3.073v-5.508h10.993v5.257A3.187,3.187,0,0,1,763.948,1506.878Z" transform="translate(-656.103 -1163.125)" fill="url(#linear-gradient-2)"/>
      <path id="Trazado_130873" data-name="Trazado 130873" d="M1611.218,1492.406a12.3,12.3,0,0,1-6.3.233,3.16,3.16,0,0,1-2.318-3.073V1479.28h10.994v10.035A3.185,3.185,0,0,1,1611.218,1492.406Z" transform="translate(-1293.067 -1148.654)" fill="url(#linear-gradient-3)"/>
      <path id="Trazado_130874" data-name="Trazado 130874" d="M701.8,297.595l4.59,289.449a5.984,5.984,0,0,0,6.079,5.89L943.729,589.3a5.984,5.984,0,0,0,5.89-6.131l-6.88-282.628a5.987,5.987,0,0,0-5.9-5.841l-228.969-3.18a5.987,5.987,0,0,0-6.069,6.076Z" transform="translate(-615.858 -255.713)" fill="#3a277b"/>
      <path id="Trazado_130875" data-name="Trazado 130875" d="M783.805,372.319l169.114,2.259a4.761,4.761,0,0,1,4.7,4.761V566.431a4.761,4.761,0,0,1-4.657,4.758l-164.108,3.617a4.761,4.761,0,0,1-4.862-4.634L778.995,377.2a4.758,4.758,0,0,1,4.81-4.885Z" transform="translate(-673.893 -316.458)" fill="#7d6eb2"/>
      <path id="Trazado_130876" data-name="Trazado 130876" d="M803.486,579.477l-4.7-182.094a5.461,5.461,0,0,1,5.525-5.595l158.044,2.135a5.461,5.461,0,0,1,5.379,5.461l-.02,176.357a5.461,5.461,0,0,1-5.334,5.461l-153.571,3.366A5.212,5.212,0,0,1,803.486,579.477Z" transform="translate(-688.771 -331.095)" fill="#fff" opacity="0.41"/>
      <rect id="Rectángulo_30918" data-name="Rectángulo 30918" width="175.414" height="33.936" rx="6.54" transform="translate(110.22 274.703)" fill="#7d6eb2"/>
      <rect id="Rectángulo_30919" data-name="Rectángulo 30919" width="168.246" height="23.422" rx="6.54" transform="translate(113.566 282.351)" fill="#fff" opacity="0.4"/>
      <rect id="Rectángulo_30920" data-name="Rectángulo 30920" width="25.809" height="5.257" rx="2.629" transform="translate(292.326 223.082)" fill="#7d6eb2"/>
      <rect id="Rectángulo_30921" data-name="Rectángulo 30921" width="25.809" height="37.759" rx="6.25" transform="translate(292.326 178.631)" fill="#7d6eb2"/>
      <rect id="Rectángulo_30922" data-name="Rectángulo 30922" width="22.943" height="33.564" rx="6.25" transform="translate(293.282 180.915)" fill="#fff" opacity="0.4"/>
      <rect id="Rectángulo_30923" data-name="Rectángulo 30923" width="17.33" height="37.759" rx="6.25" transform="translate(292.326 129.4)" fill="#7d6eb2"/>
      <rect id="Rectángulo_30924" data-name="Rectángulo 30924" width="15.404" height="33.564" rx="6.25" transform="translate(292.967 131.684)" fill="#fff" opacity="0.4"/>
      <rect id="Rectángulo_30925" data-name="Rectángulo 30925" width="25.809" height="37.759" rx="6.25" transform="translate(292.326 80.172)" fill="#7d6eb2"/>
      <rect id="Rectángulo_30926" data-name="Rectángulo 30926" width="22.943" height="33.564" rx="6.25" transform="translate(293.282 82.455)" fill="#fff" opacity="0.4"/>
      <g id="Grupo_56054" data-name="Grupo 56054" transform="translate(110.013 60.694)" clip-path="url(#clip-path)">
        <path id="Trazado_130877" data-name="Trazado 130877" d="M848.235,675.168l-22.823.938a2.643,2.643,0,0,1-2.6-2.482L819.437,643.6a2.772,2.772,0,0,1,2.366-3.207l26.2-1.643a2.683,2.683,0,0,1,2.666,2.847v30.722A2.716,2.716,0,0,1,848.235,675.168Z" transform="translate(-814.295 -577.445)" fill="url(#linear-gradient-4)"/>
        <path id="Trazado_130878" data-name="Trazado 130878" d="M840.041,668.823l1.162,12.451a1.756,1.756,0,0,0,1.658,1.683h16.985a1.766,1.766,0,0,0,1.663-1.757l.777-13.4a1.786,1.786,0,0,0-1.737-2l-18.926.948A1.828,1.828,0,0,0,840.041,668.823Z" transform="translate(-829.793 -597.78)" fill="url(#linear-gradient-5)"/>
        <path id="Trazado_130879" data-name="Trazado 130879" d="M848.839,750.663l.045.745a1.523,1.523,0,0,0,1.435,1.507H867.09a1.536,1.536,0,0,0,1.437-1.621V750.3a1.534,1.534,0,0,0-1.455-1.621l-16.822.248A1.555,1.555,0,0,0,848.839,750.663Z" transform="translate(-836.411 -660.093)" fill="#7d97f4"/>
        <path id="Trazado_130880" data-name="Trazado 130880" d="M1012.445,675.168l-22.836.938a2.642,2.642,0,0,1-2.6-2.482L983.647,643.6a2.772,2.772,0,0,1,2.366-3.207l26.2-1.643a2.683,2.683,0,0,1,2.666,2.847v30.722A2.718,2.718,0,0,1,1012.445,675.168Z" transform="translate(-937.745 -577.445)" fill="url(#linear-gradient-6)"/>
        <path id="Trazado_130881" data-name="Trazado 130881" d="M1004.253,668.823l1.162,12.451a1.756,1.756,0,0,0,1.658,1.683h16.985a1.766,1.766,0,0,0,1.663-1.757l.777-13.4a1.786,1.786,0,0,0-1.738-2l-18.926.948A1.829,1.829,0,0,0,1004.253,668.823Z" transform="translate(-953.245 -597.78)" fill="url(#linear-gradient-7)"/>
        <path id="Trazado_130882" data-name="Trazado 130882" d="M1013.048,750.663l.047.745a1.52,1.52,0,0,0,1.432,1.507H1031.3a1.536,1.536,0,0,0,1.437-1.621V750.3a1.534,1.534,0,0,0-1.455-1.621l-16.819.248A1.555,1.555,0,0,0,1013.048,750.663Z" transform="translate(-959.862 -660.093)" fill="url(#linear-gradient-8)"/>
        <path id="Trazado_130883" data-name="Trazado 130883" d="M1172.805,675.19l-22.823.938a2.643,2.643,0,0,1-2.6-2.482l-3.376-30.019a2.772,2.772,0,0,1,2.365-3.207l26.2-1.643a2.683,2.683,0,0,1,2.666,2.847v30.714A2.718,2.718,0,0,1,1172.805,675.19Z" transform="translate(-1058.302 -577.467)" fill="url(#linear-gradient-9)"/>
        <path id="Trazado_130884" data-name="Trazado 130884" d="M1164.611,668.823l1.161,12.451a1.756,1.756,0,0,0,1.658,1.683h16.985a1.768,1.768,0,0,0,1.663-1.757l.777-13.4a1.786,1.786,0,0,0-1.737-2l-18.929.953A1.818,1.818,0,0,0,1164.611,668.823Z" transform="translate(-1073.8 -597.78)" fill="#7d97f4"/>
        <path id="Trazado_130885" data-name="Trazado 130885" d="M1173.409,750.663l.045.745a1.524,1.524,0,0,0,1.435,1.507h16.784a1.538,1.538,0,0,0,1.437-1.621V750.3a1.534,1.534,0,0,0-1.455-1.621l-16.822.248A1.556,1.556,0,0,0,1173.409,750.663Z" transform="translate(-1080.418 -660.093)" fill="#7d97f4"/>
        <path id="Trazado_130886" data-name="Trazado 130886" d="M1336.978,675.19l-22.836.938a2.643,2.643,0,0,1-2.6-2.482l-3.376-30.019a2.772,2.772,0,0,1,2.365-3.207l26.2-1.643a2.683,2.683,0,0,1,2.666,2.847v30.714A2.7,2.7,0,0,1,1336.978,675.19Z" transform="translate(-1181.714 -577.467)" fill="url(#linear-gradient-10)"/>
        <path id="Trazado_130887" data-name="Trazado 130887" d="M1328.821,668.823l1.162,12.451a1.756,1.756,0,0,0,1.658,1.683h16.986a1.766,1.766,0,0,0,1.663-1.757l.777-13.4a1.786,1.786,0,0,0-1.738-2l-18.927.948A1.828,1.828,0,0,0,1328.821,668.823Z" transform="translate(-1197.25 -597.78)" fill="url(#linear-gradient-11)"/>
        <path id="Trazado_130888" data-name="Trazado 130888" d="M1337.618,750.663l.045.745a1.523,1.523,0,0,0,1.435,1.507h16.772a1.538,1.538,0,0,0,1.437-1.621V750.3a1.534,1.534,0,0,0-1.455-1.621l-16.822.248A1.555,1.555,0,0,0,1337.618,750.663Z" transform="translate(-1203.868 -660.093)" fill="url(#linear-gradient-12)"/>
        <path id="Trazado_130889" data-name="Trazado 130889" d="M877.119,675.168l-22.836.938a2.639,2.639,0,0,1-2.6-2.482L848.319,643.6a2.776,2.776,0,0,1,2.366-3.207l26.2-1.643a2.683,2.683,0,0,1,2.666,2.847v30.722A2.716,2.716,0,0,1,877.119,675.168Z" transform="translate(-836.008 -577.445)" fill="url(#linear-gradient-13)"/>
        <path id="Trazado_130890" data-name="Trazado 130890" d="M868.966,668.823l1.162,12.451a1.756,1.756,0,0,0,1.658,1.683h16.985a1.766,1.766,0,0,0,1.663-1.757l.779-13.4a1.788,1.788,0,0,0-1.738-2l-18.926.948A1.813,1.813,0,0,0,868.966,668.823Z" transform="translate(-851.537 -597.78)" fill="#7d97f4"/>
        <path id="Trazado_130891" data-name="Trazado 130891" d="M877.719,750.663l.047.745a1.523,1.523,0,0,0,1.432,1.507H895.97a1.536,1.536,0,0,0,1.437-1.621V750.3a1.534,1.534,0,0,0-1.455-1.621l-16.819.248A1.555,1.555,0,0,0,877.719,750.663Z" transform="translate(-858.123 -660.093)" fill="#7d97f4"/>
        <path id="Trazado_130892" data-name="Trazado 130892" d="M1041.329,675.168l-22.836.938a2.639,2.639,0,0,1-2.6-2.482l-3.368-30.027a2.776,2.776,0,0,1,2.366-3.207l26.2-1.643a2.682,2.682,0,0,1,2.666,2.847v30.722A2.716,2.716,0,0,1,1041.329,675.168Z" transform="translate(-959.458 -577.445)" fill="url(#linear-gradient-14)"/>
        <path id="Trazado_130893" data-name="Trazado 130893" d="M1033.132,668.823l1.162,12.451a1.756,1.756,0,0,0,1.658,1.683h17a1.766,1.766,0,0,0,1.663-1.757l.779-13.4a1.787,1.787,0,0,0-1.738-2l-18.926.948A1.829,1.829,0,0,0,1033.132,668.823Z" transform="translate(-974.956 -597.78)" fill="url(#linear-gradient-15)"/>
        <path id="Trazado_130894" data-name="Trazado 130894" d="M1041.928,750.663l.047.745a1.523,1.523,0,0,0,1.432,1.507h16.772a1.536,1.536,0,0,0,1.437-1.621V750.3a1.534,1.534,0,0,0-1.455-1.621l-16.819.248A1.555,1.555,0,0,0,1041.928,750.663Z" transform="translate(-981.573 -660.093)" fill="url(#linear-gradient-16)"/>
        <path id="Trazado_130895" data-name="Trazado 130895" d="M1201.732,675.168l-22.836.938a2.639,2.639,0,0,1-2.6-2.482l-3.361-30.027a2.776,2.776,0,0,1,2.365-3.207l26.179-1.643a2.683,2.683,0,0,1,2.666,2.847v30.722A2.7,2.7,0,0,1,1201.732,675.168Z" transform="translate(-1080.052 -577.445)" fill="url(#linear-gradient-17)"/>
        <path id="Trazado_130896" data-name="Trazado 130896" d="M1193.492,668.823l1.162,12.451a1.756,1.756,0,0,0,1.658,1.683H1213.3a1.766,1.766,0,0,0,1.663-1.757l.779-13.4a1.787,1.787,0,0,0-1.737-2l-18.926.948A1.823,1.823,0,0,0,1193.492,668.823Z" transform="translate(-1095.512 -597.78)" fill="url(#linear-gradient-18)"/>
        <path id="Trazado_130897" data-name="Trazado 130897" d="M1202.288,750.663l.047.745a1.52,1.52,0,0,0,1.432,1.507h16.772a1.536,1.536,0,0,0,1.437-1.621V750.3a1.534,1.534,0,0,0-1.454-1.621l-16.819.248A1.555,1.555,0,0,0,1202.288,750.663Z" transform="translate(-1102.129 -660.093)" fill="url(#linear-gradient-19)"/>
        <path id="Trazado_130898" data-name="Trazado 130898" d="M1365.9,675.168l-22.836.938a2.639,2.639,0,0,1-2.6-2.482L1337.1,643.6a2.776,2.776,0,0,1,2.365-3.207l26.2-1.643a2.683,2.683,0,0,1,2.666,2.847v30.722A2.714,2.714,0,0,1,1365.9,675.168Z" transform="translate(-1203.465 -577.445)" fill="url(#linear-gradient-20)"/>
        <path id="Trazado_130899" data-name="Trazado 130899" d="M1357.7,668.823l1.161,12.451a1.756,1.756,0,0,0,1.658,1.683h16.986a1.766,1.766,0,0,0,1.663-1.757l.779-13.4a1.787,1.787,0,0,0-1.737-2l-18.927.948A1.829,1.829,0,0,0,1357.7,668.823Z" transform="translate(-1218.963 -597.78)" fill="#7d97f4"/>
        <path id="Trazado_130900" data-name="Trazado 130900" d="M1366.5,750.663l.047.745a1.521,1.521,0,0,0,1.432,1.507h16.762a1.536,1.536,0,0,0,1.437-1.621V750.3a1.534,1.534,0,0,0-1.455-1.621l-16.819.248A1.554,1.554,0,0,0,1366.5,750.663Z" transform="translate(-1225.58 -660.093)" fill="#7d97f4"/>
        <path id="Trazado_130901" data-name="Trazado 130901" d="M1226.271,869.693l-16.027.933c-.916.052-1.708-1.028-1.824-2.482l-2.373-30.017c-.129-1.641.635-3.115,1.663-3.207l18.4-1.643c1.018-.089,1.872,1.211,1.872,2.847v30.714C1227.979,868.372,1227.225,869.633,1226.271,869.693Z" transform="translate(-1104.947 -723.689)" fill="url(#linear-gradient-21)"/>
        <path id="Trazado_130902" data-name="Trazado 130902" d="M1220.5,863.312l.817,12.451c.062.958.566,1.685,1.164,1.685h11.929c.618,0,1.129-.77,1.169-1.757l.546-13.4c.047-1.117-.524-2.053-1.219-2l-13.294.953C1220.94,861.285,1220.431,862.235,1220.5,863.312Z" transform="translate(-1115.819 -743.995)" fill="#7d97f4"/>
        <path id="Trazado_130903" data-name="Trazado 130903" d="M1226.682,945.19l.032.745c.037.849.476,1.507.993,1.507h11.783c.556,0,1.008-.727,1.008-1.621v-.98c0-.9-.459-1.633-1.023-1.621l-11.812.248C1227.094,943.465,1226.64,944.26,1226.682,945.19Z" transform="translate(-1120.469 -806.346)" fill="#7d97f4"/>
        <path id="Trazado_130904" data-name="Trazado 130904" d="M849.693,869.708l-16.032.938c-.916.052-1.708-1.028-1.824-2.482l-2.37-30.017c-.132-1.641.633-3.115,1.66-3.207l18.4-1.643c1.018-.089,1.872,1.211,1.872,2.847v30.709C851.4,868.387,850.646,869.648,849.693,869.708Z" transform="translate(-821.839 -723.704)" fill="url(#linear-gradient-22)"/>
        <path id="Trazado_130905" data-name="Trazado 130905" d="M843.974,863.312l.817,12.451c.062.958.566,1.685,1.164,1.685h11.919c.618,0,1.129-.77,1.169-1.757l.546-13.4c.047-1.117-.524-2.053-1.219-2l-13.292.951C844.4,861.285,843.892,862.235,843.974,863.312Z" transform="translate(-832.75 -743.995)" fill="url(#linear-gradient-23)"/>
        <path id="Trazado_130906" data-name="Trazado 130906" d="M850.116,945.19l.032.745c.037.849.477,1.507,1.008,1.507h11.78c.556,0,1.008-.727,1.008-1.621v-.98c0-.9-.459-1.633-1.023-1.621l-11.813.248C850.528,943.465,850.086,944.26,850.116,945.19Z" transform="translate(-837.373 -806.346)" fill="url(#linear-gradient-24)"/>
        <path id="Trazado_130907" data-name="Trazado 130907" d="M1097.394,869.708l-16.032.938c-.916.052-1.708-1.028-1.824-2.482l-2.37-30.017c-.129-1.641.633-3.115,1.661-3.207l18.4-1.643c1.018-.089,1.874,1.211,1.874,2.847v30.709C1099.1,868.387,1098.347,869.648,1097.394,869.708Z" transform="translate(-1008.057 -723.704)" fill="url(#linear-gradient-25)"/>
        <path id="Trazado_130908" data-name="Trazado 130908" d="M1091.64,863.312l.814,12.451c.065.958.566,1.685,1.164,1.685h11.932c.616,0,1.127-.77,1.167-1.757l.549-13.4c.045-1.117-.524-2.053-1.221-2l-13.292.951C1092.076,861.285,1091.567,862.235,1091.64,863.312Z" transform="translate(-1018.943 -743.995)" fill="url(#linear-gradient-26)"/>
        <path id="Trazado_130909" data-name="Trazado 130909" d="M1097.812,945.19l.032.745c.04.849.479,1.507,1.008,1.507h11.78c.556,0,1.008-.727,1.008-1.621v-.98c0-.9-.459-1.633-1.02-1.621l-11.815.248C1098.226,943.465,1097.77,944.26,1097.812,945.19Z" transform="translate(-1023.586 -806.346)" fill="url(#linear-gradient-27)"/>
        <path id="Trazado_130910" data-name="Trazado 130910" d="M972.824,869.708l-16.03.938c-.918.052-1.71-1.028-1.824-2.482L952.6,838.147c-.129-1.641.633-3.115,1.661-3.207l18.4-1.643c1.018-.089,1.874,1.211,1.874,2.847v30.709C974.529,868.387,973.784,869.648,972.824,869.708Z" transform="translate(-914.407 -723.704)" fill="url(#linear-gradient-28)"/>
        <path id="Trazado_130911" data-name="Trazado 130911" d="M967.07,863.312l.814,12.451c.065.958.566,1.685,1.164,1.685H980.98c.616,0,1.127-.77,1.167-1.757l.549-13.4c.045-1.117-.524-2.053-1.221-2l-13.292.951C967.509,861.285,967,862.235,967.07,863.312Z" transform="translate(-925.293 -743.995)" fill="#7d97f4"/>
        <path id="Trazado_130912" data-name="Trazado 130912" d="M973.243,945.19l.035.745c.037.849.476,1.507,1.005,1.507h11.78c.556,0,1.008-.727,1.008-1.621v-.98c0-.9-.459-1.633-1.02-1.621l-11.813.248C973.657,943.465,973.2,944.26,973.243,945.19Z" transform="translate(-929.937 -806.346)" fill="#7d97f4"/>
        <path id="Trazado_130913" data-name="Trazado 130913" d="M1246.544,869.708l-16.03.938c-.918.052-1.71-1.028-1.824-2.482l-2.373-30.017c-.129-1.641.635-3.115,1.663-3.207l18.4-1.643c1.015-.089,1.872,1.211,1.872,2.847v30.709C1248.254,868.387,1247.5,869.648,1246.544,869.708Z" transform="translate(-1120.186 -723.704)" fill="url(#linear-gradient-29)"/>
        <path id="Trazado_130914" data-name="Trazado 130914" d="M1246.99,945.19l.032.745c.037.849.477,1.507,1.005,1.507h11.78c.558,0,1.01-.727,1.01-1.621v-.98c0-.9-.459-1.633-1.023-1.621l-11.813.248C1247.4,943.465,1246.943,944.26,1246.99,945.19Z" transform="translate(-1135.735 -806.346)" fill="#7d97f4"/>
        <path id="Trazado_130915" data-name="Trazado 130915" d="M869.974,869.708l-16.03.938c-.918.052-1.708-1.028-1.824-2.482l-2.373-30.017c-.129-1.641.636-3.115,1.663-3.207l18.4-1.643c1.015-.089,1.872,1.211,1.872,2.847v30.709C871.684,868.387,870.93,869.648,869.974,869.708Z" transform="translate(-837.086 -723.704)" fill="url(#linear-gradient-30)"/>
        <path id="Trazado_130916" data-name="Trazado 130916" d="M870.4,945.19l.032.745c.037.849.477,1.507,1.005,1.507h11.78c.559,0,1.01-.727,1.01-1.621v-.98c0-.9-.459-1.633-1.023-1.621l-11.812.248C870.814,943.465,870.36,944.26,870.4,945.19Z" transform="translate(-852.623 -806.346)" fill="url(#linear-gradient-31)"/>
        <path id="Trazado_130917" data-name="Trazado 130917" d="M1345.624,869.708l-16.03.938c-.918.052-1.71-1.028-1.824-2.482l-2.373-30.017c-.129-1.641.635-3.115,1.663-3.207l18.4-1.643c1.015-.089,1.872,1.211,1.872,2.847v30.709C1347.334,868.387,1346.58,869.648,1345.624,869.708Z" transform="translate(-1194.672 -723.704)" fill="url(#linear-gradient-32)"/>
        <path id="Trazado_130918" data-name="Trazado 130918" d="M1339.871,863.312l.817,12.451c.062.958.563,1.685,1.164,1.685h11.929c.618,0,1.127-.77,1.169-1.757l.546-13.4c.045-1.117-.524-2.053-1.221-2l-13.292.951C1340.31,861.285,1339.8,862.235,1339.871,863.312Z" transform="translate(-1205.56 -743.995)" fill="url(#linear-gradient-33)"/>
        <path id="Trazado_130919" data-name="Trazado 130919" d="M1346.052,945.19l.032.745c.037.849.477,1.507.993,1.507h11.78c.559,0,1.01-.727,1.01-1.621v-.98c0-.9-.459-1.633-1.023-1.621l-11.813.248C1346.464,943.465,1346.01,944.26,1346.052,945.19Z" transform="translate(-1210.209 -806.346)" fill="url(#linear-gradient-34)"/>
        <path id="Trazado_130920" data-name="Trazado 130920" d="M1365.914,869.708l-16.03.938c-.918.052-1.71-1.028-1.824-2.482l-2.373-30.017c-.129-1.641.633-3.115,1.661-3.207l18.4-1.643c1.018-.089,1.874,1.211,1.874,2.847v30.709C1367.624,868.387,1366.867,869.648,1365.914,869.708Z" transform="translate(-1209.926 -723.704)" fill="url(#linear-gradient-35)"/>
        <path id="Trazado_130921" data-name="Trazado 130921" d="M1366.333,945.19l.035.745c.037.849.477,1.507.993,1.507h11.8c.556,0,1.008-.727,1.008-1.621v-.98c0-.9-.459-1.633-1.02-1.621l-11.815.248C1366.745,943.465,1366.293,944.26,1366.333,945.19Z" transform="translate(-1225.456 -806.346)" fill="url(#linear-gradient-36)"/>
        <path id="Trazado_130922" data-name="Trazado 130922" d="M1117.692,869.708l-16.032.938c-.916.052-1.708-1.028-1.824-2.482l-2.371-30.017c-.132-1.641.633-3.115,1.661-3.207l18.4-1.643c1.018-.089,1.872,1.211,1.872,2.847v30.709C1119.4,868.387,1118.643,869.648,1117.692,869.708Z" transform="translate(-1023.317 -723.704)" fill="url(#linear-gradient-37)"/>
        <path id="Trazado_130923" data-name="Trazado 130923" d="M1118.1,945.19l.032.745c.037.849.476,1.507,1.008,1.507h11.78c.556,0,1.008-.727,1.008-1.621v-.98c0-.9-.459-1.633-1.023-1.621l-11.813.248C1118.514,943.465,1118.06,944.26,1118.1,945.19Z" transform="translate(-1038.84 -806.346)" fill="url(#linear-gradient-38)"/>
        <path id="Trazado_130924" data-name="Trazado 130924" d="M993.113,869.708l-16.032.938c-.916.052-1.708-1.028-1.824-2.482l-2.37-30.017c-.132-1.641.633-3.115,1.661-3.207l18.4-1.643c1.018-.089,1.874,1.211,1.874,2.847v30.709C994.823,868.387,994.066,869.648,993.113,869.708Z" transform="translate(-929.66 -723.704)" fill="url(#linear-gradient-39)"/>
        <path id="Trazado_130925" data-name="Trazado 130925" d="M993.532,945.19l.032.745c.037.849.477,1.507,1.008,1.507h11.78c.556,0,1.008-.727,1.008-1.621v-.98c0-.9-.459-1.633-1.02-1.621l-11.815.248C993.944,943.465,993.49,944.26,993.532,945.19Z" transform="translate(-945.19 -806.346)" fill="#7d97f4"/>
        <path id="Trazado_130926" data-name="Trazado 130926" d="M1151.645,467.007l-20.776.228-2.51-30.59,23.285-2.055Z" transform="translate(-1046.554 -423.966)" fill="url(#linear-gradient-40)"/>
        <path id="Trazado_130927" data-name="Trazado 130927" d="M1151.645,422.952,1128.36,425l2.455-3.857a2.685,2.685,0,0,1,2.117-1.241l14.071-.794a1.7,1.7,0,0,1,1.3.5Z" transform="translate(-1046.554 -412.328)" fill="url(#linear-gradient-41)"/>
        <path id="Trazado_130928" data-name="Trazado 130928" d="M1138.47,565.418l20.776-.228-3.674,2.86a1.711,1.711,0,0,1-.993.355l-11.952.415a1.7,1.7,0,0,1-1.261-.5Z" transform="translate(-1054.154 -522.149)" fill="url(#linear-gradient-42)"/>
        <path id="Trazado_130929" data-name="Trazado 130929" d="M1138.87,457.987l2.311,18.06a.809.809,0,0,0,.861.7l13.783-1.03a.806.806,0,0,0,.745-.8V456.026a.809.809,0,0,0-.9-.8l-16.094,1.857a.809.809,0,0,0-.7.906Z" transform="translate(-1054.45 -439.475)" fill="url(#linear-gradient-43)"/>
        <path id="Trazado_130930" data-name="Trazado 130930" d="M1144.45,443.085l2.969,29.222h3.654V442.4Z" transform="translate(-1058.65 -429.837)" fill="#fff" opacity="0.37"/>
        <path id="Trazado_130931" data-name="Trazado 130931" d="M999.518,467.007l-20.776.228-2.512-30.59,23.288-2.055Z" transform="translate(-932.185 -423.966)" fill="url(#linear-gradient-44)"/>
        <path id="Trazado_130932" data-name="Trazado 130932" d="M999.518,422.952,976.23,425l2.457-3.857a2.685,2.685,0,0,1,2.117-1.241l14.071-.794a1.7,1.7,0,0,1,1.3.5Z" transform="translate(-932.185 -412.328)" fill="url(#linear-gradient-45)"/>
        <path id="Trazado_130933" data-name="Trazado 130933" d="M986.35,565.418l20.776-.228-3.676,2.86a1.7,1.7,0,0,1-.993.355l-11.952.415a1.7,1.7,0,0,1-1.261-.5Z" transform="translate(-939.793 -522.149)" fill="url(#linear-gradient-46)"/>
        <path id="Trazado_130934" data-name="Trazado 130934" d="M986.75,457.987l2.311,18.06a.807.807,0,0,0,.861.7l13.783-1.03a.8.8,0,0,0,.745-.8V456.026a.809.809,0,0,0-.9-.8l-16.092,1.857a.809.809,0,0,0-.707.906Z" transform="translate(-940.089 -439.475)" fill="url(#linear-gradient-47)"/>
        <path id="Trazado_130935" data-name="Trazado 130935" d="M992.33,443.085l2.969,29.222h3.651V442.4Z" transform="translate(-944.289 -429.837)" fill="#fff" opacity="0.37"/>
        <path id="Trazado_130936" data-name="Trazado 130936" d="M1320.758,467.007l-20.776.228-2.512-30.59,23.288-2.055Z" transform="translate(-1173.688 -423.966)" fill="url(#linear-gradient-40)"/>
        <path id="Trazado_130937" data-name="Trazado 130937" d="M1320.758,422.952,1297.47,425l2.455-3.857a2.69,2.69,0,0,1,2.12-1.241l14.071-.794a1.7,1.7,0,0,1,1.3.5Z" transform="translate(-1173.688 -412.328)" fill="url(#linear-gradient-49)"/>
        <path id="Trazado_130938" data-name="Trazado 130938" d="M1307.59,565.418l20.776-.228-3.676,2.86a1.711,1.711,0,0,1-.993.355l-11.952.415a1.7,1.7,0,0,1-1.261-.5Z" transform="translate(-1181.296 -522.149)" fill="url(#linear-gradient-50)"/>
        <path id="Trazado_130939" data-name="Trazado 130939" d="M1307.98,457.987l2.308,18.06a.809.809,0,0,0,.861.7l13.786-1.03a.807.807,0,0,0,.745-.8V456.026a.809.809,0,0,0-.9-.8l-16.094,1.857a.809.809,0,0,0-.7.906Z" transform="translate(-1181.585 -439.475)" fill="url(#linear-gradient-51)"/>
        <path id="Trazado_130940" data-name="Trazado 130940" d="M1313.57,443.085l2.966,29.222h3.654V442.4Z" transform="translate(-1185.792 -429.837)" fill="#fff" opacity="0.37"/>
        <path id="Trazado_130941" data-name="Trazado 130941" d="M834.458,467.007l-20.776.228-2.512-30.59,23.288-2.055Z" transform="translate(-808.095 -423.966)" fill="url(#linear-gradient-52)"/>
        <path id="Trazado_130942" data-name="Trazado 130942" d="M834.468,422.952,811.18,425l2.455-3.857a2.691,2.691,0,0,1,2.12-1.241l14.071-.794a1.7,1.7,0,0,1,1.3.5Z" transform="translate(-808.103 -412.328)" fill="url(#linear-gradient-53)"/>
        <path id="Trazado_130943" data-name="Trazado 130943" d="M821.29,565.418l20.776-.228-3.676,2.86a1.711,1.711,0,0,1-.993.355l-11.952.415a1.7,1.7,0,0,1-1.261-.5Z" transform="translate(-815.703 -522.149)" fill="url(#linear-gradient-54)"/>
        <path id="Trazado_130944" data-name="Trazado 130944" d="M821.69,457.987,824,476.047a.809.809,0,0,0,.864.7l13.778-1.03a.8.8,0,0,0,.745-.8V456.026a.809.809,0,0,0-.9-.8l-16.094,1.857A.809.809,0,0,0,821.69,457.987Z" transform="translate(-815.999 -439.475)" fill="url(#linear-gradient-55)"/>
        <path id="Trazado_130945" data-name="Trazado 130945" d="M827.27,443.085l2.966,29.222h3.654V442.4Z" transform="translate(-820.199 -429.837)" fill="#fff" opacity="0.37"/>
        <path id="Trazado_130946" data-name="Trazado 130946" d="M1211.146,461.679l-21,.238-2.539-32.035,23.536-2.152Z" transform="translate(-1091.097 -418.809)" fill="url(#linear-gradient-56)"/>
        <path id="Trazado_130947" data-name="Trazado 130947" d="M1211.146,415.55,1187.61,417.7l2.482-4.041a2.705,2.705,0,0,1,2.14-1.3l14.223-.829a1.677,1.677,0,0,1,1.313.519Z" transform="translate(-1091.097 -406.629)" fill="url(#linear-gradient-57)"/>
        <path id="Trazado_130948" data-name="Trazado 130948" d="M1197.84,564.708l21-.248-3.723,2.994a1.7,1.7,0,0,1-.993.375l-12.081.429a1.693,1.693,0,0,1-1.276-.519Z" transform="translate(-1098.788 -521.6)" fill="url(#linear-gradient-58)"/>
        <path id="Trazado_130949" data-name="Trazado 130949" d="M1198.238,452.251l2.336,18.914a.822.822,0,0,0,.869.745l13.932-1.077a.834.834,0,0,0,.745-.844V450.206a.827.827,0,0,0-.911-.839l-16.266,1.944A.841.841,0,0,0,1198.238,452.251Z" transform="translate(-1099.082 -435.072)" fill="url(#linear-gradient-59)"/>
        <path id="Trazado_130950" data-name="Trazado 130950" d="M1198.754,472.845c1.115.961,2.577,2.214,3.405,2.927a1.209,1.209,0,0,0,1.385.136l13.386-7.593a1.3,1.3,0,0,0,.645-1.127v-3.433a1.241,1.241,0,0,0-1.762-1.164l-16.787,8.1a1.308,1.308,0,0,0-.273,2.15Z" transform="translate(-1099.141 -444.931)" fill="url(#linear-gradient-60)"/>
        <path id="Trazado_130951" data-name="Trazado 130951" d="M1203.88,436.637l3,30.6h3.693V435.92Z" transform="translate(-1103.329 -424.966)" fill="#fff" opacity="0.37"/>
        <path id="Trazado_130952" data-name="Trazado 130952" d="M1057.386,461.679l-21,.238-2.539-32.035,23.536-2.152Z" transform="translate(-975.503 -418.809)" fill="url(#linear-gradient-56)"/>
        <path id="Trazado_130953" data-name="Trazado 130953" d="M1057.386,415.55,1033.85,417.7l2.482-4.041a2.706,2.706,0,0,1,2.142-1.3l14.223-.829a1.675,1.675,0,0,1,1.31.519Z" transform="translate(-975.503 -406.629)" fill="url(#linear-gradient-62)"/>
        <path id="Trazado_130954" data-name="Trazado 130954" d="M1044.08,564.708l21-.248-3.723,2.994a1.688,1.688,0,0,1-.993.375l-12.081.439a1.693,1.693,0,0,1-1.276-.519Z" transform="translate(-983.193 -521.6)" fill="url(#linear-gradient-63)"/>
        <path id="Trazado_130955" data-name="Trazado 130955" d="M1044.478,452.251l2.336,18.914a.824.824,0,0,0,.871.745l13.93-1.077a.834.834,0,0,0,.745-.844V450.206a.827.827,0,0,0-.911-.839l-16.266,1.944A.841.841,0,0,0,1044.478,452.251Z" transform="translate(-983.487 -435.072)" fill="url(#linear-gradient-64)"/>
        <path id="Trazado_130956" data-name="Trazado 130956" d="M1045,472.845c1.112.961,2.574,2.214,3.406,2.927a1.2,1.2,0,0,0,1.383.136l13.386-7.593a1.3,1.3,0,0,0,.645-1.127v-3.433a1.241,1.241,0,0,0-1.762-1.164l-16.787,8.1a1.306,1.306,0,0,0-.271,2.15Z" transform="translate(-983.545 -444.931)" fill="url(#linear-gradient-65)"/>
        <path id="Trazado_130957" data-name="Trazado 130957" d="M1050.12,436.637l3,30.6h3.693V435.92Z" transform="translate(-987.734 -424.966)" fill="#fff" opacity="0.37"/>
        <path id="Trazado_130958" data-name="Trazado 130958" d="M1382.076,461.679l-21,.238-2.539-32.035,23.536-2.152Z" transform="translate(-1219.6 -418.809)" fill="url(#linear-gradient-56)"/>
        <path id="Trazado_130959" data-name="Trazado 130959" d="M1382.076,415.55,1358.54,417.7l2.482-4.041a2.705,2.705,0,0,1,2.142-1.3l14.223-.829a1.675,1.675,0,0,1,1.311.519Z" transform="translate(-1219.6 -406.629)" fill="url(#linear-gradient-67)"/>
        <path id="Trazado_130960" data-name="Trazado 130960" d="M1368.77,564.708l21-.248-3.723,2.994a1.689,1.689,0,0,1-.993.375l-12.081.429a1.693,1.693,0,0,1-1.276-.519Z" transform="translate(-1227.29 -521.6)" fill="url(#linear-gradient-68)"/>
        <path id="Trazado_130961" data-name="Trazado 130961" d="M1369.168,452.251l2.336,18.914a.824.824,0,0,0,.871.745l13.93-1.077a.834.834,0,0,0,.745-.844V450.206a.827.827,0,0,0-.911-.839l-16.266,1.944A.841.841,0,0,0,1369.168,452.251Z" transform="translate(-1227.584 -435.072)" fill="url(#linear-gradient-69)"/>
        <path id="Trazado_130962" data-name="Trazado 130962" d="M1369.662,472.845c1.112.961,2.574,2.214,3.406,2.927a1.2,1.2,0,0,0,1.382.136l13.4-7.593a1.3,1.3,0,0,0,.645-1.127v-3.433a1.241,1.241,0,0,0-1.762-1.164l-16.787,8.1a1.308,1.308,0,0,0-.28,2.15Z" transform="translate(-1227.629 -444.931)" fill="url(#linear-gradient-70)"/>
        <path id="Trazado_130963" data-name="Trazado 130963" d="M1374.81,436.637l3,30.6h3.693V435.92Z" transform="translate(-1231.831 -424.966)" fill="#fff" opacity="0.37"/>
        <path id="Trazado_130964" data-name="Trazado 130964" d="M890.548,461.679l-21,.238-2.539-32.035,23.538-2.152Z" transform="translate(-850.075 -418.809)" fill="url(#linear-gradient-71)"/>
        <path id="Trazado_130965" data-name="Trazado 130965" d="M890.541,415.55,867,417.7l2.482-4.041a2.713,2.713,0,0,1,2.142-1.3l14.223-.829a1.68,1.68,0,0,1,1.313.519Z" transform="translate(-850.068 -406.629)" fill="url(#linear-gradient-72)"/>
        <path id="Trazado_130966" data-name="Trazado 130966" d="M877.24,564.708l21-.248-3.723,2.994a1.689,1.689,0,0,1-.993.375l-12.081.429a1.683,1.683,0,0,1-1.273-.519Z" transform="translate(-857.766 -521.6)" fill="url(#linear-gradient-73)"/>
        <path id="Trazado_130967" data-name="Trazado 130967" d="M877.638,452.251l2.336,18.914a.824.824,0,0,0,.871.745l13.932-1.077a.834.834,0,0,0,.745-.844V450.206a.827.827,0,0,0-.911-.839l-16.266,1.944A.841.841,0,0,0,877.638,452.251Z" transform="translate(-858.06 -435.072)" fill="url(#linear-gradient-74)"/>
        <path id="Trazado_130968" data-name="Trazado 130968" d="M878.161,472.845c1.112.961,2.577,2.214,3.406,2.927a1.2,1.2,0,0,0,1.383.136l13.386-7.593a1.3,1.3,0,0,0,.645-1.127v-3.433a1.241,1.241,0,0,0-1.762-1.164l-16.787,8.1a1.308,1.308,0,0,0-.271,2.15Z" transform="translate(-858.124 -444.931)" fill="url(#linear-gradient-75)"/>
        <path id="Trazado_130969" data-name="Trazado 130969" d="M883.28,436.637l3,30.6h3.691V435.92Z" transform="translate(-862.307 -424.966)" fill="#fff" opacity="0.37"/>
        <path id="Trazado_130970" data-name="Trazado 130970" d="M1159.348,1100.934l-20.776.139-2.512-18.475,23.288-1.239Z" transform="translate(-1052.343 -910.197)" fill="url(#linear-gradient-76)"/>
        <path id="Trazado_130971" data-name="Trazado 130971" d="M1159.345,1074.363l-23.285,1.241,2.467-2.321a3.239,3.239,0,0,1,2.12-.745l14.071-.479a2.413,2.413,0,0,1,1.3.3Z" transform="translate(-1052.343 -903.203)" fill="url(#linear-gradient-77)"/>
        <path id="Trazado_130972" data-name="Trazado 130972" d="M1146.18,1160.359l20.773-.139-3.674,1.738a2.451,2.451,0,0,1-.993.216l-11.952.248a2.417,2.417,0,0,1-1.261-.3Z" transform="translate(-1059.951 -969.483)" fill="url(#linear-gradient-78)"/>
        <path id="Trazado_130973" data-name="Trazado 130973" d="M1152.16,1086.492l2.966,17.646h3.654V1086.08Z" transform="translate(-1064.446 -913.746)" fill="#fff" opacity="0.37"/>
        <path id="Trazado_130974" data-name="Trazado 130974" d="M1007.225,1100.934l-20.776.139L983.94,1082.6l23.285-1.239Z" transform="translate(-937.981 -910.197)" fill="url(#linear-gradient-79)"/>
        <path id="Trazado_130975" data-name="Trazado 130975" d="M1007.225,1074.34l-23.285,1.241,2.455-2.328a3.234,3.234,0,0,1,2.117-.745l14.071-.479a2.411,2.411,0,0,1,1.3.3Z" transform="translate(-937.981 -903.18)" fill="url(#linear-gradient-80)"/>
        <path id="Trazado_130976" data-name="Trazado 130976" d="M994.05,1160.359l20.776-.139-3.674,1.738a2.451,2.451,0,0,1-.993.216l-11.952.248a2.436,2.436,0,0,1-1.263-.3Z" transform="translate(-945.582 -969.483)" fill="url(#linear-gradient-81)"/>
        <path id="Trazado_130977" data-name="Trazado 130977" d="M1000.03,1086.492l2.969,17.646h3.651V1086.08Z" transform="translate(-950.077 -913.746)" fill="#fff" opacity="0.37"/>
        <path id="Trazado_130978" data-name="Trazado 130978" d="M1328.458,1100.934l-20.776.139-2.512-18.475,23.288-1.239Z" transform="translate(-1179.477 -910.197)" fill="url(#linear-gradient-82)"/>
        <path id="Trazado_130979" data-name="Trazado 130979" d="M1328.468,1074.34l-23.288,1.241,2.457-2.328a3.235,3.235,0,0,1,2.117-.745l14.071-.479a2.411,2.411,0,0,1,1.3.3Z" transform="translate(-1179.484 -903.18)" fill="url(#linear-gradient-83)"/>
        <path id="Trazado_130980" data-name="Trazado 130980" d="M1315.29,1160.359l20.776-.139-3.676,1.738a2.435,2.435,0,0,1-.993.216l-11.952.248a2.417,2.417,0,0,1-1.261-.3Z" transform="translate(-1187.085 -969.483)" fill="url(#linear-gradient-84)"/>
        <path id="Trazado_130981" data-name="Trazado 130981" d="M1321.27,1086.492l2.969,17.646h3.651V1086.08Z" transform="translate(-1191.581 -913.746)" fill="#fff" opacity="0.37"/>
        <path id="Trazado_130982" data-name="Trazado 130982" d="M842.158,1107.693l-20.776.124-2.512-16.641,23.288-1.117Z" transform="translate(-813.884 -916.738)" fill="url(#linear-gradient-85)"/>
        <path id="Trazado_130983" data-name="Trazado 130983" d="M842.158,1083.72l-23.288,1.117,2.457-2.1a3.537,3.537,0,0,1,2.117-.675l14.071-.432a2.63,2.63,0,0,1,1.3.271Z" transform="translate(-813.884 -910.398)" fill="url(#linear-gradient-86)"/>
        <path id="Trazado_130984" data-name="Trazado 130984" d="M829,1161.224l20.776-.124-3.674,1.554a2.681,2.681,0,0,1-.993.193l-11.952.226a2.628,2.628,0,0,1-1.261-.271Z" transform="translate(-821.5 -970.145)" fill="url(#linear-gradient-87)"/>
        <path id="Trazado_130985" data-name="Trazado 130985" d="M834.97,1094.682l2.969,15.9h3.651V1094.31Z" transform="translate(-825.988 -919.933)" fill="#fff" opacity="0.37"/>
        <path id="Trazado_130986" data-name="Trazado 130986" d="M1211.146,1061.731l-21,.218-2.539-29.106,23.536-1.953Z" transform="translate(-1091.097 -872.255)" fill="url(#linear-gradient-56)"/>
        <path id="Trazado_130987" data-name="Trazado 130987" d="M1211.146,1019.851l-23.536,1.954,2.482-3.669a2.731,2.731,0,0,1,2.14-1.182l14.223-.745a1.766,1.766,0,0,1,1.313.472Z" transform="translate(-1091.097 -861.216)" fill="url(#linear-gradient-89)"/>
        <path id="Trazado_130988" data-name="Trazado 130988" d="M1197.84,1155.339l21-.219-3.723,2.731a1.776,1.776,0,0,1-.993.337l-12.081.392a1.769,1.769,0,0,1-1.276-.472Z" transform="translate(-1098.788 -965.649)" fill="url(#linear-gradient-90)"/>
        <path id="Trazado_130989" data-name="Trazado 130989" d="M1198.242,1053.1l2.336,17.184a.8.8,0,0,0,.869.67l13.932-.993a.789.789,0,0,0,.745-.764v-17.973a.8.8,0,0,0-.911-.762l-16.266,1.767a.776.776,0,0,0-.7.871Z" transform="translate(-1099.085 -886.966)" fill="url(#linear-gradient-91)"/>
        <path id="Trazado_130990" data-name="Trazado 130990" d="M1203.88,1038.98l3,27.8h3.693V1038.33Z" transform="translate(-1103.329 -877.848)" fill="#fff" opacity="0.37"/>
        <path id="Trazado_130991" data-name="Trazado 130991" d="M1057.386,1061.731l-21,.218-2.539-29.106,23.536-1.953Z" transform="translate(-975.503 -872.255)" fill="url(#linear-gradient-56)"/>
        <path id="Trazado_130992" data-name="Trazado 130992" d="M1057.386,1019.852l-23.536,1.953,2.482-3.669a2.731,2.731,0,0,1,2.142-1.182l14.223-.745a1.765,1.765,0,0,1,1.31.472Z" transform="translate(-975.503 -861.217)" fill="url(#linear-gradient-93)"/>
        <path id="Trazado_130993" data-name="Trazado 130993" d="M1044.08,1155.339l21-.219-3.723,2.731a1.77,1.77,0,0,1-.993.337l-12.081.377a1.769,1.769,0,0,1-1.276-.472Z" transform="translate(-983.193 -965.649)" fill="url(#linear-gradient-94)"/>
        <path id="Trazado_130994" data-name="Trazado 130994" d="M1044.483,1053.1l2.336,17.184a.8.8,0,0,0,.871.67l13.93-.993a.789.789,0,0,0,.745-.764v-17.973a.8.8,0,0,0-.911-.762l-16.266,1.767a.779.779,0,0,0-.7.871Z" transform="translate(-983.492 -886.966)" fill="url(#linear-gradient-95)"/>
        <path id="Trazado_130995" data-name="Trazado 130995" d="M1050.12,1038.98l3,27.8h3.693V1038.33Z" transform="translate(-987.734 -877.848)" fill="#fff" opacity="0.37"/>
        <path id="Trazado_130996" data-name="Trazado 130996" d="M1382.076,1061.731l-21,.218-2.539-29.106,23.536-1.953Z" transform="translate(-1219.6 -872.255)" fill="url(#linear-gradient-56)"/>
        <path id="Trazado_130997" data-name="Trazado 130997" d="M1382.076,1019.852l-23.536,1.953,2.482-3.669a2.731,2.731,0,0,1,2.142-1.182l14.223-.745a1.765,1.765,0,0,1,1.311.472Z" transform="translate(-1219.6 -861.217)" fill="url(#linear-gradient-97)"/>
        <path id="Trazado_130998" data-name="Trazado 130998" d="M1368.77,1155.339l21-.219-3.723,2.731a1.77,1.77,0,0,1-.993.337l-12.081.392a1.769,1.769,0,0,1-1.276-.472Z" transform="translate(-1227.29 -965.649)" fill="url(#linear-gradient-98)"/>
        <path id="Trazado_130999" data-name="Trazado 130999" d="M1369.172,1053.1l2.336,17.184a.8.8,0,0,0,.871.67l13.93-.993a.789.789,0,0,0,.745-.764v-17.973a.8.8,0,0,0-.911-.762l-16.266,1.767a.779.779,0,0,0-.7.871Z" transform="translate(-1227.589 -886.966)" fill="url(#linear-gradient-99)"/>
        <path id="Trazado_131000" data-name="Trazado 131000" d="M1374.81,1038.98l3,27.8h3.693V1038.33Z" transform="translate(-1231.831 -877.848)" fill="#fff" opacity="0.37"/>
        <path id="Trazado_131001" data-name="Trazado 131001" d="M890.548,1061.731l-21,.218-2.539-29.106,23.538-1.953Z" transform="translate(-850.075 -872.255)" fill="url(#linear-gradient-100)"/>
        <path id="Trazado_131002" data-name="Trazado 131002" d="M890.541,1019.867,867,1021.82l2.482-3.664a2.749,2.749,0,0,1,2.142-1.182l14.223-.745a1.769,1.769,0,0,1,1.313.472Z" transform="translate(-850.068 -861.232)" fill="url(#linear-gradient-101)"/>
        <path id="Trazado_131003" data-name="Trazado 131003" d="M877.24,1155.339l21-.219-3.723,2.731a1.77,1.77,0,0,1-.993.337l-12.076.377a1.76,1.76,0,0,1-1.273-.472Z" transform="translate(-857.766 -965.649)" fill="url(#linear-gradient-102)"/>
        <path id="Trazado_131004" data-name="Trazado 131004" d="M877.642,1053.1l2.336,17.184a.8.8,0,0,0,.871.67l13.932-.993a.787.787,0,0,0,.745-.764v-17.973a.8.8,0,0,0-.911-.762l-16.266,1.767a.779.779,0,0,0-.707.871Z" transform="translate(-858.064 -886.966)" fill="url(#linear-gradient-103)"/>
        <path id="Trazado_131005" data-name="Trazado 131005" d="M883.28,1038.98l3,27.8h3.691V1038.33Z" transform="translate(-862.307 -877.848)" fill="#fff" opacity="0.37"/>
        <path id="Trazado_131006" data-name="Trazado 131006" d="M885,558.8H870.8a1.857,1.857,0,0,1-1.857-1.859v-2.157a1.857,1.857,0,0,1,1.716-1.852L885.3,551.8a1.857,1.857,0,0,1,1.986,2.1l-.439,3.284A1.854,1.854,0,0,1,885,558.8Z" transform="translate(-851.526 -512.08)" fill="url(#linear-gradient-104)"/>
        <path id="Trazado_131007" data-name="Trazado 131007" d="M1046.75,558.8h-14.2a1.857,1.857,0,0,1-1.857-1.859v-2.157a1.857,1.857,0,0,1,1.716-1.852l14.644-1.127a1.857,1.857,0,0,1,1.986,2.1l-.437,3.284A1.859,1.859,0,0,1,1046.75,558.8Z" transform="translate(-973.127 -512.08)" fill="url(#linear-gradient-105)"/>
        <path id="Trazado_131008" data-name="Trazado 131008" d="M1208.5,558.8h-14.2a1.859,1.859,0,0,1-1.859-1.859v-2.157a1.857,1.857,0,0,1,1.716-1.852L1208.8,551.8a1.857,1.857,0,0,1,1.986,2.1l-.437,3.284A1.859,1.859,0,0,1,1208.5,558.8Z" transform="translate(-1094.728 -512.08)" fill="url(#linear-gradient-106)"/>
        <path id="Trazado_131009" data-name="Trazado 131009" d="M1370.257,558.8h-14.2a1.857,1.857,0,0,1-1.857-1.859v-2.157a1.857,1.857,0,0,1,1.713-1.852l14.645-1.127a1.857,1.857,0,0,1,1.986,2.1l-.437,3.284A1.859,1.859,0,0,1,1370.257,558.8Z" transform="translate(-1216.337 -512.08)" fill="url(#linear-gradient-107)"/>
        <path id="Trazado_131010" data-name="Trazado 131010" d="M885,760.985H870.8a1.859,1.859,0,0,1-1.857-1.859v-2.164a1.857,1.857,0,0,1,1.716-1.852l14.644-1.127a1.857,1.857,0,0,1,1.986,2.1l-.439,3.284A1.854,1.854,0,0,1,885,760.985Z" transform="translate(-851.526 -664.076)" fill="url(#linear-gradient-108)"/>
        <path id="Trazado_131011" data-name="Trazado 131011" d="M1046.75,760.985h-14.2a1.859,1.859,0,0,1-1.857-1.859v-2.164a1.857,1.857,0,0,1,1.716-1.852l14.644-1.127a1.857,1.857,0,0,1,1.986,2.1l-.437,3.284A1.859,1.859,0,0,1,1046.75,760.985Z" transform="translate(-973.127 -664.076)" fill="url(#linear-gradient-109)"/>
        <path id="Trazado_131012" data-name="Trazado 131012" d="M1208.5,760.985h-14.2a1.859,1.859,0,0,1-1.859-1.859v-2.164a1.857,1.857,0,0,1,1.716-1.852l14.644-1.127a1.857,1.857,0,0,1,1.986,2.1l-.437,3.284A1.859,1.859,0,0,1,1208.5,760.985Z" transform="translate(-1094.728 -664.076)" fill="url(#linear-gradient-110)"/>
        <path id="Trazado_131013" data-name="Trazado 131013" d="M1370.257,760.985h-14.2a1.859,1.859,0,0,1-1.857-1.859v-2.164a1.857,1.857,0,0,1,1.713-1.852l14.645-1.127a1.857,1.857,0,0,1,1.986,2.1l-.437,3.284A1.859,1.859,0,0,1,1370.257,760.985Z" transform="translate(-1216.337 -664.076)" fill="url(#linear-gradient-111)"/>
        <path id="Trazado_131014" data-name="Trazado 131014" d="M885,963.2H870.8a1.857,1.857,0,0,1-1.857-1.857v-2.157a1.857,1.857,0,0,1,1.715-1.852L885.3,956.2a1.857,1.857,0,0,1,1.986,2.1l-.439,3.284A1.854,1.854,0,0,1,885,963.2Z" transform="translate(-851.526 -816.102)" fill="url(#linear-gradient-112)"/>
        <path id="Trazado_131015" data-name="Trazado 131015" d="M1046.75,963.2h-14.2a1.857,1.857,0,0,1-1.857-1.857v-2.157a1.857,1.857,0,0,1,1.715-1.852l14.645-1.127a1.857,1.857,0,0,1,1.986,2.1l-.437,3.284A1.857,1.857,0,0,1,1046.75,963.2Z" transform="translate(-973.127 -816.102)" fill="url(#linear-gradient-113)"/>
        <path id="Trazado_131016" data-name="Trazado 131016" d="M1208.5,963.2h-14.2a1.857,1.857,0,0,1-1.859-1.857v-2.157a1.857,1.857,0,0,1,1.715-1.852L1208.8,956.2a1.857,1.857,0,0,1,1.986,2.1l-.437,3.284A1.857,1.857,0,0,1,1208.5,963.2Z" transform="translate(-1094.728 -816.102)" fill="url(#linear-gradient-114)"/>
        <path id="Trazado_131017" data-name="Trazado 131017" d="M1370.257,963.2h-14.2a1.857,1.857,0,0,1-1.857-1.857v-2.157a1.857,1.857,0,0,1,1.713-1.852l14.645-1.127a1.857,1.857,0,0,1,1.986,2.1l-.437,3.284A1.857,1.857,0,0,1,1370.257,963.2Z" transform="translate(-1216.337 -816.102)" fill="url(#linear-gradient-115)"/>
        <path id="Trazado_131018" data-name="Trazado 131018" d="M885.081,1146.341l-14.2.271a1.857,1.857,0,0,1-1.891-1.822l-.042-2.159a1.859,1.859,0,0,1,1.68-1.884l14.615-1.4a1.857,1.857,0,0,1,2.023,2.058l-.375,3.291A1.862,1.862,0,0,1,885.081,1146.341Z" transform="translate(-851.533 -953.783)" fill="url(#linear-gradient-116)"/>
        <path id="Trazado_131019" data-name="Trazado 131019" d="M1046.8,1143.261l-14.2.271a1.857,1.857,0,0,1-1.891-1.822l-.042-2.157a1.859,1.859,0,0,1,1.68-1.884l14.615-1.4a1.857,1.857,0,0,1,2.023,2.06l-.375,3.291A1.857,1.857,0,0,1,1046.8,1143.261Z" transform="translate(-973.111 -951.467)" fill="url(#linear-gradient-117)"/>
        <path id="Trazado_131020" data-name="Trazado 131020" d="M1208.53,1140.191l-14.2.271a1.859,1.859,0,0,1-1.894-1.822l-.04-2.157a1.859,1.859,0,0,1,1.678-1.886l14.615-1.4a1.856,1.856,0,0,1,2.023,2.058l-.375,3.294A1.857,1.857,0,0,1,1208.53,1140.191Z" transform="translate(-1094.697 -949.159)" fill="url(#linear-gradient-118)"/>
        <path id="Trazado_131021" data-name="Trazado 131021" d="M1370.25,1137.115l-14.2.268a1.857,1.857,0,0,1-1.894-1.822l-.04-2.157a1.854,1.854,0,0,1,1.678-1.884l14.617-1.405a1.859,1.859,0,0,1,2.023,2.06l-.377,3.292A1.857,1.857,0,0,1,1370.25,1137.115Z" transform="translate(-1216.276 -946.844)" fill="url(#linear-gradient-119)"/>
        <rect id="Rectángulo_30927" data-name="Rectángulo 30927" width="173.979" height="3.823" transform="translate(-2.183 45.287)" fill="url(#linear-gradient-3)"/>
        <rect id="Rectángulo_30928" data-name="Rectángulo 30928" width="171.592" height="3.823" transform="translate(0.208 95.474)" fill="url(#linear-gradient-3)"/>
        <rect id="Rectángulo_30929" data-name="Rectángulo 30929" width="171.592" height="3.823" transform="translate(0.208 145.661)" fill="url(#linear-gradient-3)"/>
        <path id="Trazado_131022" data-name="Trazado 131022" d="M865.258,342.2,754.37,467.427v52.1L896.8,344.111Z" transform="translate(-765.394 -354.509)" fill="#fff" opacity="0.5"/>
        <path id="Trazado_131023" data-name="Trazado 131023" d="M967.471,373.01h36.8L888.605,583.316,812.13,588.1Z" transform="translate(-808.817 -377.671)" fill="#fff" opacity="0.5"/>
      </g>
      <path id="Trazado_131025" data-name="Trazado 131025" d="M1617.482,722.177h0A2.482,2.482,0,0,1,1615,719.7V692.962a2.482,2.482,0,0,1,2.482-2.482h0a2.482,2.482,0,0,1,2.482,2.482V719.7A2.482,2.482,0,0,1,1617.482,722.177Z" transform="translate(-1302.39 -555.646)" fill="#7d6eb2"/>
      <path id="Trazado_131026" data-name="Trazado 131026" d="M1801.943,1175.314a1.373,1.373,0,0,0,1.388-1.05l21.92-116.029a1.283,1.283,0,0,0-1.157-1.449,1.4,1.4,0,0,0-1.623,1.032l-21.92,116.026a1.284,1.284,0,0,0,1.157,1.452,1.522,1.522,0,0,0,.236.017Z" transform="translate(-1441.869 -831.016)" fill="#3a277b"/>
      <path id="Trazado_131027" data-name="Trazado 131027" d="M2021.6,1179.817a1.555,1.555,0,0,0,.281-.025,1.273,1.273,0,0,0,1.1-1.489l-25.839-114.519a1.41,1.41,0,0,0-1.658-.993,1.275,1.275,0,0,0-1.1,1.489l25.839,114.519A1.377,1.377,0,0,0,2021.6,1179.817Z" transform="translate(-1587.584 -835.519)" fill="#3a277b"/>
      <path id="Trazado_131028" data-name="Trazado 131028" d="M1869.33,1170.577h37.456a1.267,1.267,0,1,0,0-2.517H1869.33a1.267,1.267,0,1,0,0,2.517Z" transform="translate(-1492.531 -914.683)" fill="url(#linear-gradient-123)"/>
      <path id="Trazado_131029" data-name="Trazado 131029" d="M1872.174,1170.562h36.1a1.261,1.261,0,1,0,0-2.517h-36.1a1.263,1.263,0,1,0,0,2.517Z" transform="translate(-1494.695 -914.668)" fill="#3a277b"/>
      <path id="Trazado_131030" data-name="Trazado 131030" d="M1869.33,1255.1h37.456a1.268,1.268,0,1,0,0-2.519H1869.33a1.268,1.268,0,1,0,0,2.519Z" transform="translate(-1492.531 -978.224)" fill="url(#linear-gradient-124)"/>
      <path id="Trazado_131031" data-name="Trazado 131031" d="M1855.63,1255.1h45.411a1.267,1.267,0,1,0,0-2.519H1855.63a1.268,1.268,0,1,0,0,2.519Z" transform="translate(-1482.231 -978.224)" fill="#3a277b"/>
      <path id="Trazado_131032" data-name="Trazado 131032" d="M1869.33,1339.619h37.456a1.268,1.268,0,1,0,0-2.519H1869.33a1.268,1.268,0,1,0,0,2.519Z" transform="translate(-1492.531 -1041.765)" fill="url(#linear-gradient-125)"/>
      <path id="Trazado_131033" data-name="Trazado 131033" d="M1838.157,1339.619h54.359a1.268,1.268,0,1,0,0-2.519h-54.359a1.267,1.267,0,1,0,0,2.519Z" transform="translate(-1469.098 -1041.765)" fill="#3a277b"/>
      <path id="Trazado_131034" data-name="Trazado 131034" d="M1869.33,1424.139h50.984a1.267,1.267,0,1,0,0-2.519H1869.33a1.268,1.268,0,1,0,0,2.519Z" transform="translate(-1492.531 -1105.306)" fill="url(#linear-gradient-126)"/>
      <path id="Trazado_131035" data-name="Trazado 131035" d="M1824.02,1424.139h62.23a1.267,1.267,0,1,0,0-2.519h-62.23a1.268,1.268,0,1,0,0,2.519Z" transform="translate(-1458.467 -1105.306)" fill="#3a277b"/>
      <path id="Trazado_131036" data-name="Trazado 131036" d="M1987.916,1146.865s.914,1.44,1.144,5.476a.657.657,0,0,1-.653.695h-7.149a.422.422,0,0,1-.4-.554,11.442,11.442,0,0,1,4.513-5.992Z" transform="translate(-1577.418 -898.468)" fill="url(#linear-gradient-127)"/>
      <path id="Trazado_131037" data-name="Trazado 131037" d="M2000.506,1135.857l-.4,3.391a.636.636,0,0,1-.556.558,5.728,5.728,0,0,1-1.511-.012,1.05,1.05,0,0,1-.864-1.04v-3.274Z" transform="translate(-1589.699 -890.19)" fill="url(#linear-gradient-128)"/>
      <path id="Trazado_131038" data-name="Trazado 131038" d="M1903.068,1146.51a9.987,9.987,0,0,1,1.338,5.046,1.266,1.266,0,0,1-1.271,1.241h-11.1a.531.531,0,0,1-.305-.965,48.223,48.223,0,0,1,9.219-5.317Z" transform="translate(-1510.259 -898.482)" fill="url(#linear-gradient-129)"/>
      <path id="Trazado_131039" data-name="Trazado 131039" d="M1932.655,1126.836l-.861,4.188a.864.864,0,0,1-1.023.68,3.164,3.164,0,0,1-.976-.409.993.993,0,0,1-.442-1.01l.891-5.073Z" transform="translate(-1538.704 -882.469)" fill="url(#linear-gradient-130)"/>
      <path id="Trazado_131040" data-name="Trazado 131040" d="M1946.794,897.2s3,2.646,3.562,5.826-1.6,54.883-1.6,54.883-3,.5-4.545-.439c0,0-1.832-33.554-3.227-41.306,0,0-7.308,34.75-9.333,41.037,0,0-2.889.35-3.823-.2,0,0,1.916-45.056,4.322-53.066Z" transform="translate(-1537.57 -711.055)" fill="url(#linear-gradient-131)"/>
      <path id="Trazado_131041" data-name="Trazado 131041" d="M1980.061,947.029a.385.385,0,0,1-.092,0,.37.37,0,0,1-.266-.452l1.274-4.887a.362.362,0,0,1,.159-.218l2.75-1.767a.372.372,0,0,1,.514.114.367.367,0,0,1-.112.511l-2.631,1.688-1.241,4.746A.372.372,0,0,1,1980.061,947.029Z" transform="translate(-1576.559 -742.965)" fill="url(#linear-gradient-132)"/>
      <path id="Trazado_131042" data-name="Trazado 131042" d="M1850.365,773.016c12.624-1.047,15.923,1.564,15.923,1.564l-6.066,9.579s-12.411-.248-21.292-7.1a21.761,21.761,0,0,0,3.559-5.312A16.752,16.752,0,0,0,1850.365,773.016Z" transform="translate(-1470.737 -616.744)" fill="#d8b149"/>
      <path id="Trazado_131043" data-name="Trazado 131043" d="M1804.06,701.024a.387.387,0,0,1,.745-.146l1.611,3.438a3.553,3.553,0,0,1,.288,2.122l-.563,2a3.443,3.443,0,0,0,.7,2.748,24.109,24.109,0,0,0,9.119,7.1,21.747,21.747,0,0,1-3.559,5.312,21.764,21.764,0,0,1-7.578-10.522,1.687,1.687,0,0,1-1.191-1.68Z" transform="translate(-1444.202 -563.284)" fill="url(#linear-gradient-133)"/>
      <path id="Trazado_131044" data-name="Trazado 131044" d="M1832.58,775.246c4.443-4.788,12.907-6.95,17.809-7.841a4.5,4.5,0,0,1,5.026,2.852c2.2,5.927,8.191,21.346,9.365,24,.956,2.174,1.951,4.3,2.584,5.627a1.6,1.6,0,0,1-.745,2.125,117.018,117.018,0,0,1-14.551,5.113,1.032,1.032,0,0,1-1.32-.993,3.226,3.226,0,0,0-.459-1.661L1838.9,785.49c-7.1,7.873-13.319,8.593-18.1,6.871a35.826,35.826,0,0,0,1.581-7.461C1829.438,783.69,1832.58,775.246,1832.58,775.246Z" transform="translate(-1457.107 -613.421)" fill="#f5ca56"/>
      <path id="Trazado_131045" data-name="Trazado 131045" d="M1780.18,827.638l1.273-1.7c4.123,2.832,7.57,3.5,10.39,3.021a35.856,35.856,0,0,1-1.581,7.461C1783.97,834.146,1780.18,827.638,1780.18,827.638Z" transform="translate(-1426.569 -657.483)" fill="url(#linear-gradient-134)"/>
      <path id="Trazado_131046" data-name="Trazado 131046" d="M1742.054,821.866l-7.176.271-6.607-3.688c.948-.6,6.312.621,6.312.621s5.6-.849,7.124-.849c1.258,0,1.08,1.81.993,2.423-.02.127-.037.2-.037.2Z" transform="translate(-1387.544 -651.679)" fill="url(#linear-gradient-135)"/>
      <path id="Trazado_131047" data-name="Trazado 131047" d="M1894.822,732.2l3.788,9.239s-4.351,3.011-7.851,2.73l-1.889-8.308Z" transform="translate(-1508.281 -587.011)" fill="url(#linear-gradient-136)"/>
      <path id="Trazado_131048" data-name="Trazado 131048" d="M1878.821,705.185c-.087.122-2.73,9.7-2.73,9.7l5.5,1.4,3.862-8.707S1880.272,703.127,1878.821,705.185Z" transform="translate(-1498.673 -566.292)" fill="url(#linear-gradient-137)"/>
      <path id="Trazado_131049" data-name="Trazado 131049" d="M1880.64,697.535l-1.676,4.744a.638.638,0,0,1-.087.169c-.226.323-1.09,1.378-2.115.429a6.333,6.333,0,0,0-2.584-1.775.705.705,0,0,0-.8.5,30.365,30.365,0,0,0-.926,4.624.7.7,0,0,0,.571.745,22.668,22.668,0,0,0,5.255.437.7.7,0,0,0,.593-.407c.524-1.147,2.13-4.622,2.73-5.523.561-.844,1.936-.819,2.512-.767a.69.69,0,0,0,.516-.171,1.825,1.825,0,0,0,.114-2.921.705.705,0,0,1,.018-1.013,1.825,1.825,0,0,0,.233-2.711,2.618,2.618,0,0,0-3.073-.745.7.7,0,0,1-.844-.313.551.551,0,0,0-.573-.268.692.692,0,0,1-.745-.71,2.1,2.1,0,0,0-1.621-2.189c-2.4-.745-3.9,1.574-4.051,3.306s2.5,2.4,4.063,2.279c1.187-.089,2.068,1.087,2.42,1.656A.7.7,0,0,1,1880.64,697.535Z" transform="translate(-1495.937 -554.927)" fill="url(#linear-gradient-138)"/>
      <path id="Trazado_131050" data-name="Trazado 131050" d="M1906.78,735.074s.39-3.008,1.641-3.157,2.47.881,1.226,2.572C1908.1,736.588,1906.78,735.074,1906.78,735.074Z" transform="translate(-1521.745 -586.787)" fill="url(#linear-gradient-139)"/>
      <circle id="Elipse_4316" data-name="Elipse 4316" cx="21.227" cy="21.227" r="21.227" transform="translate(315.343 164.165) rotate(-80.54)" fill="#0d585f"/>
      <circle id="Elipse_4317" data-name="Elipse 4317" cx="20.522" cy="20.522" r="20.522" transform="translate(314.937 161.713) rotate(-76.1)" fill="#26aab7"/>
      <path id="Trazado_131051" data-name="Trazado 131051" d="M1654.852,671.5a.517.517,0,0,1-.223-.052.5.5,0,0,1-.218-.665,19.473,19.473,0,0,1,20.87-10.375.5.5,0,1,1-.176.973,18.638,18.638,0,0,0-3.329-.3,18.368,18.368,0,0,0-16.481,10.147.5.5,0,0,1-.442.271Z" transform="translate(-1331.977 -532.803)" fill="#fff" opacity="0.69"/>
      <circle id="Elipse_4318" data-name="Elipse 4318" cx="17.37" cy="17.37" r="17.37" transform="translate(321.86 130.893) rotate(-3.44)" fill="#fff" opacity="0.69"/>
      <path id="Trazado_131052" data-name="Trazado 131052" d="M1701.45,715.9v-1.889a15.439,15.439,0,0,1-5.3-1.147,1.09,1.09,0,0,1-.6-1.291l.479-1.76a1.1,1.1,0,0,1,1.489-.722,12.78,12.78,0,0,0,4.895,1.03c1.9,0,3.311-.643,3.311-1.961,0-1.189-1.092-1.9-3.723-2.6-3.761-1.03-6.454-2.671-6.454-5.982,0-2.991,2.187-5.275,5.982-5.885V691.8a1.1,1.1,0,0,1,1.1-1.1h1.109a1.1,1.1,0,0,1,1.1,1.1V693.5a14.021,14.021,0,0,1,4.2.745,1.1,1.1,0,0,1,.685,1.323l-.442,1.628a1.1,1.1,0,0,1-1.45.745,11.451,11.451,0,0,0-4.123-.745c-2.251,0-2.894.933-2.894,1.77,0,1.028,1.35,1.738,4.277,2.636,4.183,1.241,5.918,2.979,5.918,6.111,0,2.862-2.122,5.433-6.238,6.076v2.115a1.1,1.1,0,0,1-1.1,1.1h-1.11a1.1,1.1,0,0,1-1.112-1.109Z" transform="translate(-1362.911 -555.812)" fill="#26aab7"/>
      <path id="Trazado_131053" data-name="Trazado 131053" d="M456.853,988s-3.041,1.489-3.6,3.177c-.449,1.365-3.813,1.542-4.145,4.22a3.078,3.078,0,0,1-2.574,2.705c-3.435.526-8.73,2.308-9.576,8.273-.645,4.552,1.675,6.277,4.11,6.876a3.448,3.448,0,0,1,2.614,3.971c-.345,1.737.171,3.723,3.172,5.317,6.724,3.549,13.438-8.4,13.438-8.4l1.378-20.872Z" transform="translate(-416.675 -779.317)" fill="#3a277b"/>
      <path id="Trazado_131054" data-name="Trazado 131054" d="M574.144,943.63s-8.653,23.581-23.394,30.96c0,0,4.907,8,7.466,8.491,0,0,15.749-20.157,17.355-36.671Z" transform="translate(-502.303 -745.96)" fill="url(#linear-gradient-140)"/>
      <path id="Trazado_131055" data-name="Trazado 131055" d="M382.951,1511.088l-.434,3.579a1.49,1.49,0,0,1-1.3,1.291,22.947,22.947,0,0,1-4.788.077,1.268,1.268,0,0,1-1.062-1.643,13,13,0,0,1,2.4-4.671h3.971a1.221,1.221,0,0,1,1.209,1.368Z" transform="translate(-370.411 -1171.538)" fill="url(#linear-gradient-141)"/>
      <path id="Trazado_131056" data-name="Trazado 131056" d="M508.109,1346.42l.67,3.939s-2.234,22.719-2.641,31.806a7.124,7.124,0,0,0,1.052,4.046l3.9,6.334-9.914-5.851-.2-1.209,1.623-2.234-2.127-25.449a7.819,7.819,0,0,1,.889-4.319l2.05-3.85Z" transform="translate(-464.49 -1048.771)" fill="url(#linear-gradient-142)"/>
      <path id="Trazado_131057" data-name="Trazado 131057" d="M510.963,1507.447H507.8a1.906,1.906,0,0,1-1.512-.745c-.993-1.281-3.028-3.783-4.006-3.847-1.313-.087-1.147,4.587-1.147,4.587h-.745l-.933-5.808a3.44,3.44,0,0,1,1.8-3.594h0a4.832,4.832,0,0,0,1.931,3.2c1.631.971,6.632,4.505,6.632,4.505a4.53,4.53,0,0,1,1.286.035A.839.839,0,0,1,510.963,1507.447Z" transform="translate(-463.71 -1162.757)" fill="url(#linear-gradient-143)"/>
      <path id="Trazado_131058" data-name="Trazado 131058" d="M404.661,1349.026s-13.138,24.923-15.228,30.615a54.251,54.251,0,0,0-2.847,10.887c-.045.7-.918,1.375-3.326,1.375a2.287,2.287,0,0,1-2.15-.993,1.4,1.4,0,0,1-.055-1.36c.76-1.536,3.172-6.454,4.066-8.687,1.067-2.661,3.361-14.724,4.619-18.919s2.681-8.745,8.159-12.935C397.9,1349.026,401.66,1345.333,404.661,1349.026Z" transform="translate(-374.617 -1049.496)" fill="url(#linear-gradient-144)"/>
      <path id="Trazado_131059" data-name="Trazado 131059" d="M494.308,1098.412c3.388-14.362-5.2-22.486-5.2-22.486,5.419-5.2,15.29-7.566,15.29-7.566s9.417,6.886,8.3,12.274c-.655,3.16-6.62,18.924-6.62,18.924A13.107,13.107,0,0,1,494.308,1098.412Z" transform="translate(-455.963 -839.731)" fill="#f5ca56"/>
      <path id="Trazado_131060" data-name="Trazado 131060" d="M455.668,1196.539c1.38-4.155,7.516-7.109,7.516-7.109a13.107,13.107,0,0,0,11.773,1.147,23.476,23.476,0,0,1,.382,9.122c-.859,4.406-6.205,32.638-6.205,32.638-8.439,1.71-21.424-1.72-21.424-1.72C453.081,1221.07,454.29,1200.694,455.668,1196.539Z" transform="translate(-424.839 -930.749)" fill="url(#linear-gradient-145)"/>
      <path id="Trazado_131061" data-name="Trazado 131061" d="M517.424,1026.552l-2.755,12.381c-.266,1.09.73.911,1.832.7,1.8-.34,4.133-1.04,4.91-2.445a1.344,1.344,0,0,0,.142-.467l1.184-8.583a1.549,1.549,0,0,0-.9-1.621l-2.284-1.013a1.541,1.541,0,0,0-2.125,1.045Z" transform="translate(-475.145 -807.414)" fill="url(#linear-gradient-146)"/>
      <path id="Trazado_131062" data-name="Trazado 131062" d="M460.865,1098.84s-19.232,13.761-2.46,28.219a4.354,4.354,0,0,0,1.9,1.1,21.1,21.1,0,0,1,3.475,2.353.653.653,0,0,0,.953-.171h0a.891.891,0,0,0,.05-.856l-2.388-5.039a1.837,1.837,0,0,0-2.385-.1h0a.9.9,0,0,1-1.373-.31c-1.3-2.641-3.746-10.408,6.275-19.185a1.087,1.087,0,0,0,.248-1.32C464.447,1102.181,462.838,1099.493,460.865,1098.84Z" transform="translate(-427.718 -862.645)" fill="url(#linear-gradient-147)"/>
      <path id="Trazado_131063" data-name="Trazado 131063" d="M521.327,982.051s3.262,1.377,5.481,6.094.563,6.893-1.519,7.2a9.738,9.738,0,0,1-8.486-2.792C513.51,989.509,517.082,980.417,521.327,982.051Z" transform="translate(-475.814 -774.698)" fill="url(#linear-gradient-148)"/>
      <path id="Trazado_131064" data-name="Trazado 131064" d="M508.13,977.291s-2.462-6.893,3.654-6.98l1.44,1.005s2.234-3.825-1.44-5.652-7.995-.318-9.564,4.647-1.834,8.286.774,10.658,3.681-.318,3.681-.318-1.42-2.219-.841-3.408,1.911.248,1.911.248Z" transform="translate(-464.928 -761.963)" fill="#3a277b"/>
      <path id="Trazado_131065" data-name="Trazado 131065" d="M516.571,1010.382s-1.241-3.554-2.9-2.14,1.348,3.284,2.527,3.89Z" transform="translate(-474.056 -794.285)" fill="url(#linear-gradient-149)"/>
      <path id="Trazado_131066" data-name="Trazado 131066" d="M640.578,919.386c.132.419-1.4,1.057-2.3-.658-.03-.822-.531-4.346-.04-5.017a65.615,65.615,0,0,1,7.695-8.042,1.2,1.2,0,0,1,.149,1.675l-2.462,2.567a11.891,11.891,0,0,1,1.44,2.842,3.475,3.475,0,0,1-.34,2.539c-.432.779-1.023,1.79-1.579,2.581A3.41,3.41,0,0,1,640.578,919.386Z" transform="translate(-567.915 -717.423)" fill="url(#linear-gradient-150)"/>
      <path id="Trazado_131067" data-name="Trazado 131067" d="M645.867,934.617l-.5-.087a25.057,25.057,0,0,1,1.2-4.656,1.04,1.04,0,0,0,.221-.745.5.5,0,0,0-.209-.261l-2.06,1.737-.683,1.832-.464-.171.727-1.956,2.42-2.05.146.075a1.075,1.075,0,0,1,.6.65,1.456,1.456,0,0,1-.275,1.144A24.893,24.893,0,0,0,645.867,934.617Z" transform="translate(-571.941 -734.405)" fill="url(#linear-gradient-151)"/>
      <path id="Trazado_131068" data-name="Trazado 131068" d="M886.789,954.419h0c-1.963-.032-3.971-.161-5.972-.382a.5.5,0,0,1,.107-.993c1.971.218,3.952.345,5.883.377a.5.5,0,0,1,0,.993Zm5.937-.186a.5.5,0,0,1-.04-.993,56.972,56.972,0,0,0,5.838-.777.5.5,0,0,1,.179.976,58.2,58.2,0,0,1-5.932.794Zm-17.735-1.1a.421.421,0,0,1-.094,0c-1.919-.377-3.877-.844-5.818-1.385a.5.5,0,1,1,.266-.953c1.919.534,3.85.993,5.744,1.368a.5.5,0,0,1-.1.98Zm29.394-1.082a.5.5,0,0,1-.141-.968,56.33,56.33,0,0,0,5.54-1.986.5.5,0,1,1,.385.914,57.3,57.3,0,0,1-5.64,2.023A.579.579,0,0,1,904.385,952.053Zm-40.839-2.095a.54.54,0,0,1-.164-.027c-1.837-.655-3.708-1.39-5.562-2.187a.5.5,0,1,1,.392-.911c1.834.789,3.683,1.517,5.5,2.164a.5.5,0,0,1-.166.961Zm51.785-2.482a.5.5,0,0,1-.248-.928c1.708-.928,3.4-1.956,5.036-3.058a.5.5,0,1,1,.554.822c-1.661,1.12-3.383,2.164-5.118,3.105a.475.475,0,0,1-.223.062Zm-62.707-2.2a.5.5,0,0,1-.221-.052c-1.737-.876-3.52-1.822-5.267-2.812a.5.5,0,1,1,.5-.861c1.737.993,3.49,1.921,5.213,2.787a.5.5,0,0,1-.221.938Zm72.548-4.423a.5.5,0,0,1-.313-.879c1.507-1.241,2.979-2.552,4.4-3.929a.5.5,0,0,1,.693.71c-1.432,1.395-2.931,2.73-4.468,3.986a.5.5,0,0,1-.308.114Zm-82.887-1.437a.5.5,0,0,1-.266-.077c-1.653-1.047-3.324-2.159-4.964-3.3a.5.5,0,1,1,.568-.812c1.626,1.134,3.284,2.234,4.927,3.279a.5.5,0,0,1-.266.913Zm-9.743-6.8a.481.481,0,0,1-.3-.1c-.973-.745-1.956-1.512-2.922-2.286q-.879-.7-1.737-1.42a.5.5,0,1,1,.628-.765q.864.712,1.737,1.412c.958.769,1.934,1.534,2.9,2.271a.5.5,0,0,1-.308.891Zm101.126-.052a.5.5,0,0,1-.375-.819c1.276-1.489,2.51-3.036,3.661-4.627a.5.5,0,0,1,.8.581c-1.169,1.613-2.418,3.192-3.723,4.691a.5.5,0,0,1-.365.176Zm-110.315-7.481a.5.5,0,0,1-.325-.122c-1.442-1.241-2.9-2.549-4.448-3.957a.5.5,0,1,1,.665-.745c1.546,1.4,3,2.691,4.433,3.942a.509.509,0,0,1-.325.884Zm117.284-2.13a.481.481,0,0,1-.248-.072.5.5,0,0,1-.169-.68c1.015-1.678,1.968-3.42,2.835-5.173a.5.5,0,1,1,.889.437c-.879,1.78-1.847,3.545-2.874,5.25A.5.5,0,0,1,940.64,922.958ZM814.546,917.11a.5.5,0,0,1-.338-.134q-2.169-2.033-4.319-4.091a.5.5,0,1,1,.683-.715q2.147,2.053,4.311,4.081a.5.5,0,0,1-.335.861Zm131.343-4.8a.457.457,0,0,1-.179-.035.5.5,0,0,1-.281-.641c.71-1.814,1.363-3.691,1.936-5.575a.5.5,0,1,1,.948.288c-.581,1.909-1.241,3.81-1.963,5.647a.5.5,0,0,1-.462.315Zm-139.944-3.406a.5.5,0,0,1-.345-.139l-1.256-1.209-3.023-2.912a.5.5,0,0,1,.688-.715l3.023,2.912,1.256,1.211a.5.5,0,0,1-.34.851Zm143.409-7.943a.549.549,0,0,1-.109,0,.5.5,0,0,1-.375-.591c.424-1.9.789-3.85,1.08-5.806a.5.5,0,0,1,.993.146c-.3,1.986-.663,3.957-1.095,5.875a.5.5,0,0,1-.484.367Zm-151.985-.276a.5.5,0,0,1-.342-.137c-1.559-1.489-2.979-2.8-4.331-4.058a.5.5,0,0,1,.673-.727c1.358,1.256,2.777,2.586,4.341,4.068a.487.487,0,0,1-.338.846Zm-8.737-8.057a.5.5,0,0,1-.328-.124c-1.531-1.363-3.036-2.673-4.468-3.892a.5.5,0,0,1,.64-.745c1.447,1.226,2.956,2.542,4.493,3.909a.5.5,0,0,1-.33.864Zm162.482-3.41h-.04a.5.5,0,0,1-.454-.534c.154-1.939.248-3.924.273-5.9a.5.5,0,0,1,.5-.5h0a.5.5,0,0,1,.5.5c-.027,2-.119,4.006-.276,5.957a.5.5,0,0,1-.494.469Zm-171.552-4.264a.5.5,0,0,1-.308-.109c-1.574-1.256-3.152-2.482-4.694-3.614a.5.5,0,1,1,.591-.794c1.549,1.147,3.137,2.37,4.716,3.634a.5.5,0,0,1-.31.884Zm-9.556-7.059a.5.5,0,0,1-.276-.084c-1.641-1.1-3.321-2.169-5-3.172a.5.5,0,0,1,.509-.851c1.691,1.013,3.386,2.09,5.039,3.2a.5.5,0,0,1-.276.906Zm181.277-.551a.5.5,0,0,1-.5-.472c-.094-1.948-.248-3.932-.469-5.893a.5.5,0,1,1,.993-.107q.324,2.979.474,5.957a.5.5,0,0,1-.472.519Zm-264.452-4.5a.5.5,0,0,1-.276-.906c1.8-1.2,3.45-2.249,5.044-3.192a.5.5,0,0,1,.5.854c-1.576.933-3.212,1.968-5,3.162a.5.5,0,0,1-.268.082Zm72.975-1.057a.5.5,0,0,1-.231-.057c-1.738-.923-3.535-1.8-5.3-2.614a.5.5,0,1,1,.412-.9c1.787.819,3.587,1.705,5.354,2.639a.5.5,0,0,1-.231.933Zm-10.8-4.927a.494.494,0,0,1-.179-.032c-1.852-.717-3.723-1.373-5.575-1.951a.5.5,0,0,1,.3-.946c1.869.586,3.765,1.241,5.637,1.986a.5.5,0,0,1-.179.956Zm-51.929,0a.5.5,0,0,1-.216-.941c1.281-.623,2.567-1.191,3.813-1.688q.849-.34,1.705-.648a.5.5,0,0,1,.335.933c-.561.2-1.117.412-1.673.633-1.226.5-2.482,1.048-3.748,1.661a.483.483,0,0,1-.216.032Zm252.915-1.311a.5.5,0,0,1-.5-.412c-.325-1.926-.715-3.877-1.154-5.8a.5.5,0,0,1,.966-.221c.444,1.939.837,3.909,1.167,5.855a.5.5,0,0,1-.407.568Zm-212.319-2.217a.45.45,0,0,1-.114-.015c-1.939-.459-3.885-.841-5.788-1.139a.5.5,0,1,1,.151-.978c1.929.3,3.9.69,5.865,1.154a.5.5,0,0,1-.114.978Zm-29.433-.474a.5.5,0,0,1-.114-.978,55.612,55.612,0,0,1,5.9-1.06.5.5,0,1,1,.122.993,54.368,54.368,0,0,0-5.8,1.013.451.451,0,0,1-.107.015Zm17.708-1.345h-.037q-2.979-.208-5.89-.141a.479.479,0,0,1-.5-.5.5.5,0,0,1,.5-.5c1.968-.045,3.971,0,5.982.144a.5.5,0,1,1-.032.993Zm221.408-7.543a.5.5,0,0,1-.474-.357q-.335-1.162-.7-2.316a.5.5,0,1,1,.946-.323q.365,1.162.7,2.338a.5.5,0,0,1-.338.613.532.532,0,0,1-.151.027Z" transform="translate(-604.237 -676.049)" fill="url(#linear-gradient-152)"/>
    </g>
  </g>
</svg>
