<svg xmlns="http://www.w3.org/2000/svg" width="57" height="57" viewBox="0 0 57 57">
  <g id="Outline" transform="translate(-15.999 -16)">
    <path id="Trazado_132656" data-name="Trazado 132656" d="M72.049,16h-36.1a.95.95,0,0,0-.95.95V20.8c-.316-.02-.629-.048-.95-.048a15.194,15.194,0,0,0-5.7,29.281v2.2l-.142.022h0L21.641,53.27A6.613,6.613,0,0,0,16,59.842V72.05a.95.95,0,0,0,.95.95h34.2a.95.95,0,0,0,.95-.95V69.2H50.2v1.9H44.5V68.25h3.8v-1.9H44.5v-3.8H42.6V71.1H25.5V62.55H23.6v3.8H17.9V59.842a4.724,4.724,0,0,1,4.031-4.694l5.561-.858a6.429,6.429,0,0,0,6.5,5.41,6.554,6.554,0,0,0,6.617-5.412l1.847.283.29-1.878-2.995-.462v-2.2a15.15,15.15,0,0,0,1.642-.781H44.5v-1.9h-.43a14.951,14.951,0,0,0,5.048-13.3H65.4v-1.9H48.749a15.111,15.111,0,0,0-.731-2.183.943.943,0,0,0,.121-.14l3.01-4.514,3.01,4.514a.948.948,0,0,0,.7.418.936.936,0,0,0,.765-.274l3.128-3.128,3.128,3.128,1.343-1.343-3.8-3.8a.95.95,0,0,0-1.343,0L55.1,27.809,51.94,23.073a.986.986,0,0,0-1.581,0l-3.334,5A15.257,15.257,0,0,0,39.288,21.7H40.7V19.8H38.8v1.721a15.06,15.06,0,0,0-1.9-.493V17.9h23.75v5.7a.95.95,0,0,0,.95.95h5.7V46.4h1.9V23.992a1.9,1.9,0,0,0-.557-1.344L63.892,17.9H71.1V56.85H73V16.95A.95.95,0,0,0,72.049,16ZM23.6,68.25V71.1H17.9V68.25ZM38.718,54a4.786,4.786,0,0,1-4.811,3.8A4.706,4.706,0,0,1,29.381,54l.059-.009a.95.95,0,0,0,.809-.939v-2.4a14.685,14.685,0,0,0,7.6,0v2.4A.9.9,0,0,0,38.718,54ZM47.349,35.95a13.3,13.3,0,1,1-13.3-13.3A13.3,13.3,0,0,1,47.349,35.95Zm15.2-13.3V19.243l3.407,3.407Z" transform="translate(0 0)" fill="#7d6eb2"/>
    <rect id="Rectángulo_31333" data-name="Rectángulo 31333" width="2" height="2" transform="translate(41.999 20)" fill="#7d6eb2"/>
    <rect id="Rectángulo_31334" data-name="Rectángulo 31334" width="2" height="2" transform="translate(45.999 20)" fill="#7d6eb2"/>
    <path id="Trazado_132657" data-name="Trazado 132657" d="M308.561,189.683l3.725.745.012,0a.988.988,0,0,0,1.106-.744h0a.015.015,0,0,1,0,0,4.749,4.749,0,1,0-8.77,1.445l1.644-.95a2.855,2.855,0,0,1,1.52-4.114v2.689A.95.95,0,0,0,308.561,189.683Zm3.007-1.336-1.87-.374v-1.91A2.856,2.856,0,0,1,311.568,188.347Z" transform="translate(-253.798 -148.052)" fill="#7d6eb2"/>
    <rect id="Rectángulo_31335" data-name="Rectángulo 31335" width="4" height="3" transform="translate(60.999 35)" fill="#7d6eb2"/>
    <rect id="Rectángulo_31336" data-name="Rectángulo 31336" width="4" height="3" transform="translate(60.999 39)" fill="#7d6eb2"/>
    <path id="Trazado_132658" data-name="Trazado 132658" d="M278.549,267.306a12.371,12.371,0,1,0-4.429,3.957l5.268,5.268a2.965,2.965,0,0,0,4.194,0h0a2.965,2.965,0,0,0,0-4.193ZM257.9,260.352a10.45,10.45,0,1,1,10.45,10.45A10.45,10.45,0,0,1,257.9,260.352Zm22.864,14.907-5.01-5.047a12.44,12.44,0,0,0,1.589-1.424l4.93,4.967a1.065,1.065,0,0,1,0,1.505h0a1.065,1.065,0,0,1-1.508,0Z" transform="translate(-211.503 -204.452)" fill="#7d6eb2"/>
    <path id="Trazado_132659" data-name="Trazado 132659" d="M296.55,280a8.55,8.55,0,1,0,8.55,8.55A8.55,8.55,0,0,0,296.55,280Zm0,15.2a6.65,6.65,0,1,1,6.65-6.65A6.65,6.65,0,0,1,296.55,295.2Z" transform="translate(-239.701 -232.65)" fill="#7d6eb2"/>
    <path id="Trazado_132660" data-name="Trazado 132660" d="M320,316.75h1.9a2.853,2.853,0,0,1,2.85-2.85V312A4.756,4.756,0,0,0,320,316.75Z" transform="translate(-267.901 -260.85)" fill="#7d6eb2"/>
    <path id="Trazado_132661" data-name="Trazado 132661" d="M72,99.4A11.4,11.4,0,1,0,83.4,88,11.4,11.4,0,0,0,72,99.4Zm20.9,0a9.5,9.5,0,1,1-9.5-9.5A9.5,9.5,0,0,1,92.9,99.4Z" transform="translate(-49.351 -63.45)" fill="#7d6eb2"/>
    <path id="Trazado_132662" data-name="Trazado 132662" d="M104,127.6a7.6,7.6,0,1,0,7.6-7.6A7.6,7.6,0,0,0,104,127.6Zm13.3,0a5.7,5.7,0,1,1-5.7-5.7A5.7,5.7,0,0,1,117.3,127.6Z" transform="translate(-77.551 -91.65)" fill="#7d6eb2"/>
    <path id="Trazado_132663" data-name="Trazado 132663" d="M136,155.8a3.8,3.8,0,1,0,3.8-3.8A3.8,3.8,0,0,0,136,155.8Zm5.7,0a1.9,1.9,0,1,1-1.9-1.9A1.9,1.9,0,0,1,141.7,155.8Z" transform="translate(-105.751 -119.85)" fill="#7d6eb2"/>
  </g>
</svg>
