<svg xmlns="http://www.w3.org/2000/svg" width="81" height="81" viewBox="0 0 81 81">
  <g id="Grupo_56211" data-name="Grupo 56211" transform="translate(-344 -896)">
    <g id="Grupo_56163" data-name="Grupo 56163" transform="translate(344 896)">
      <g id="Grupo_55846" data-name="Grupo 55846">
        <circle id="Elipse_4123" data-name="Elipse 4123" cx="40.5" cy="40.5" r="40.5" fill="#6a5d99"/>
      </g>
    </g>
    <g id="team" transform="translate(356 908.816)">
      <path id="Trazado_132845" data-name="Trazado 132845" d="M398.23,189.11a4.613,4.613,0,1,1,4.613-4.613A4.613,4.613,0,0,1,398.23,189.11Zm0-7.381A2.768,2.768,0,1,0,401,184.5,2.768,2.768,0,0,0,398.23,181.728Zm0,0" transform="translate(-357.24 -163.092)" fill="#fff"/>
      <path id="Trazado_132846" data-name="Trazado 132846" d="M118.7,189.11a4.613,4.613,0,1,1,4.613-4.613A4.613,4.613,0,0,1,118.7,189.11Zm0-7.381a2.768,2.768,0,1,0,2.768,2.768A2.768,2.768,0,0,0,118.7,181.728Zm0,0" transform="translate(-103.539 -163.092)" fill="#fff"/>
      <path id="Trazado_132847" data-name="Trazado 132847" d="M46.526,31.961l8.8-8a2.578,2.578,0,0,0-3.444-3.836l-6.625,5.887H35.94L29,34.506V11.255h9.227v3.691h15.2L51.21,9.41l2.214-5.536H42.835V.184H27.151V34.506l-6.944-8.488H10.894L4.269,20.129A2.579,2.579,0,0,0,.823,23.966l8.8,8V53.7H.394v1.845H55.752V53.7H46.526ZM42.836,5.719H50.7L49.223,9.41,50.7,13.1H40.067V11.255h2.768ZM29,2.029H40.99V9.41H29ZM18.847,53.7H16.079V40.78H14.233V53.7H11.466V31.146L2.066,22.6a.739.739,0,0,1-.112-.949.73.73,0,0,1,1.091-.142l7.148,6.35h9.14l6.861,8.385a.75.75,0,1,1-1.15.963l-6.2-7.226Zm16.608,0H20.692V34.967l2.953,3.441a2.6,2.6,0,0,0,3.413.467c.034-.023.064-.052.1-.078v7.518H29V38.8c.035.026.065.057.1.082a2.6,2.6,0,0,0,3.406-.47l2.945-3.444Zm9.226,0H41.913V40.78H40.067V53.7H37.3V29.985l-6.2,7.229a.749.749,0,0,1-.986.132.747.747,0,0,1-.164-1.1l6.861-8.388h9.14L53.1,21.51a.714.714,0,0,1,.578-.178.724.724,0,0,1,.518.325.732.732,0,0,1-.116.944l-9.4,8.545Zm0,0" transform="translate(0 0)" fill="#fff"/>
    </g>
  </g>
</svg>
