<svg xmlns="http://www.w3.org/2000/svg" xmlns:xlink="http://www.w3.org/1999/xlink" width="446.46" height="291.335" viewBox="0 0 446.46 291.335">
  <defs>
    <linearGradient id="linear-gradient" x1="0.52" y1="1.509" x2="0.468" y2="0.18" gradientUnits="objectBoundingBox">
      <stop offset="0" stop-color="#2b3582"/>
      <stop offset="1" stop-color="#150e42"/>
    </linearGradient>
    <linearGradient id="linear-gradient-2" x1="0" y1="0.5" x2="1" y2="0.5" xlink:href="#linear-gradient"/>
    <linearGradient id="linear-gradient-3" x1="0.085" y1="-0.198" x2="1.211" y2="1.7" gradientUnits="objectBoundingBox">
      <stop offset="0" stop-color="#e38ddd"/>
      <stop offset="1" stop-color="#9571f6"/>
    </linearGradient>
    <linearGradient id="linear-gradient-4" x1="0.525" y1="0.297" x2="0.225" y2="5.134" xlink:href="#linear-gradient"/>
    <clipPath id="clip-path">
      <path id="Trazado_131080" data-name="Trazado 131080" d="M230.973,313.1A15.823,15.823,0,1,0,246.8,328.923,15.823,15.823,0,0,0,230.973,313.1Zm0,24.842a9.019,9.019,0,1,1,9.015-9.016,9.019,9.019,0,0,1-9.015,9.016Z" transform="translate(-215.15 -313.1)" fill="#fff" opacity="0.57"/>
    </clipPath>
    <linearGradient id="linear-gradient-5" x1="0.497" y1="-0.473" x2="0.515" y2="5.325" gradientUnits="objectBoundingBox">
      <stop offset="0" stop-color="#fdf53f"/>
      <stop offset="0.66" stop-color="#e57a58"/>
      <stop offset="1" stop-color="#d93c65"/>
    </linearGradient>
    <clipPath id="clip-path-2">
      <path id="Trazado_131082" data-name="Trazado 131082" d="M323.623,313.1a15.823,15.823,0,1,0,15.823,15.823A15.823,15.823,0,0,0,323.623,313.1Zm0,24.842a9.019,9.019,0,1,1,9.015-9.016,9.019,9.019,0,0,1-9.015,9.016Z" transform="translate(-307.8 -313.1)" fill="#fff" opacity="0.57"/>
    </clipPath>
    <clipPath id="clip-path-3">
      <path id="Trazado_131084" data-name="Trazado 131084" d="M416.273,313.1A15.823,15.823,0,1,0,432.1,328.923,15.823,15.823,0,0,0,416.273,313.1Zm0,24.842a9.019,9.019,0,1,1,9.015-9.016,9.019,9.019,0,0,1-9.015,9.016Z" transform="translate(-400.45 -313.1)" fill="#f5ca56" opacity="0.57"/>
    </clipPath>
    <linearGradient id="linear-gradient-6" x1="0.496" y1="-2.001" x2="0.514" y2="9.594" xlink:href="#linear-gradient-5"/>
    <linearGradient id="linear-gradient-7" x1="0.411" y1="0.932" x2="0.634" y2="-0.163" xlink:href="#linear-gradient"/>
    <linearGradient id="linear-gradient-8" x1="0.878" y1="-1.646" x2="-0.009" y2="3.391" xlink:href="#linear-gradient"/>
    <linearGradient id="linear-gradient-9" x1="0" y1="0.5" x2="1" y2="0.5" xlink:href="#linear-gradient"/>
    <linearGradient id="linear-gradient-11" x1="150.374" y1="0.238" x2="149.539" y2="0.677" gradientUnits="objectBoundingBox">
      <stop offset="0" stop-color="#f9b776"/>
      <stop offset="1" stop-color="#f47960"/>
    </linearGradient>
    <linearGradient id="linear-gradient-12" x1="-206.493" y1="-193.45" x2="-206.682" y2="-189.732" gradientUnits="objectBoundingBox">
      <stop offset="0" stop-color="#cb236d"/>
      <stop offset="1" stop-color="#4c246d"/>
    </linearGradient>
    <linearGradient id="linear-gradient-13" x1="178.979" y1="0.225" x2="182.38" y2="-1.251" xlink:href="#linear-gradient-11"/>
    <linearGradient id="linear-gradient-14" x1="-189.862" y1="-222.64" x2="-190.083" y2="-219.532" xlink:href="#linear-gradient-12"/>
    <linearGradient id="linear-gradient-15" x1="-170.126" y1="-13.416" x2="-169.808" y2="-12.669" xlink:href="#linear-gradient"/>
    <linearGradient id="linear-gradient-16" x1="-103.258" y1="0.497" x2="-102.258" y2="0.497" xlink:href="#linear-gradient-11"/>
    <linearGradient id="linear-gradient-17" x1="-486.283" y1="-25.637" x2="-486.1" y2="-26.717" xlink:href="#linear-gradient-11"/>
    <linearGradient id="linear-gradient-18" x1="-454.974" y1="-97.934" x2="-453.406" y2="-100.209" xlink:href="#linear-gradient-11"/>
    <linearGradient id="linear-gradient-19" x1="-295.31" y1="-138.806" x2="-294.801" y2="-136.571" xlink:href="#linear-gradient"/>
    <linearGradient id="linear-gradient-20" x1="-1859.912" y1="-320.373" x2="-1853.501" y2="-327.821" xlink:href="#linear-gradient-11"/>
    <linearGradient id="linear-gradient-21" x1="-147.287" y1="-56.783" x2="-148.026" y2="-54.331" gradientUnits="objectBoundingBox">
      <stop offset="0" stop-color="#53d8ff"/>
      <stop offset="1" stop-color="#3840f7"/>
    </linearGradient>
    <linearGradient id="linear-gradient-22" x1="66.137" y1="0.564" x2="71.214" y2="-0.108" xlink:href="#linear-gradient"/>
    <linearGradient id="linear-gradient-23" x1="-1153.027" y1="-0.305" x2="-1154.865" y2="1.584" xlink:href="#linear-gradient-21"/>
    <linearGradient id="linear-gradient-24" x1="74.523" y1="0.27" x2="73.429" y2="1.473" xlink:href="#linear-gradient-11"/>
    <linearGradient id="linear-gradient-25" x1="-142.116" y1="14.71" x2="-142.728" y2="15.33" xlink:href="#linear-gradient"/>
    <linearGradient id="linear-gradient-26" x1="90.922" y1="-0.609" x2="89.191" y2="0.762" xlink:href="#linear-gradient-12"/>
    <linearGradient id="linear-gradient-27" x1="-643.784" y1="46.303" x2="-643.56" y2="45.393" xlink:href="#linear-gradient-11"/>
    <linearGradient id="linear-gradient-28" x1="-371.343" y1="38.253" x2="-370.134" y2="39.417" xlink:href="#linear-gradient-11"/>
    <linearGradient id="linear-gradient-29" x1="-438.449" y1="44.325" x2="-440.332" y2="46.229" xlink:href="#linear-gradient"/>
    <linearGradient id="linear-gradient-30" x1="-1037.324" y1="139.362" x2="-1033.95" y2="143.677" xlink:href="#linear-gradient-11"/>
    <linearGradient id="linear-gradient-31" x1="75.437" y1="1.265" x2="76.838" y2="0.128" xlink:href="#linear-gradient-11"/>
    <linearGradient id="linear-gradient-32" x1="182.318" y1="0.404" x2="183.314" y2="0.404" xlink:href="#linear-gradient"/>
    <linearGradient id="linear-gradient-33" x1="142.623" y1="0.37" x2="138.726" y2="0.7" xlink:href="#linear-gradient-11"/>
    <linearGradient id="linear-gradient-34" x1="154.204" y1="0.39" x2="155.196" y2="0.39" xlink:href="#linear-gradient"/>
    <linearGradient id="linear-gradient-35" x1="67.505" y1="-0.04" x2="66.477" y2="1.536" xlink:href="#linear-gradient-12"/>
    <linearGradient id="linear-gradient-36" x1="97.622" y1="1.456" x2="100.591" y2="-0.721" xlink:href="#linear-gradient-11"/>
    <linearGradient id="linear-gradient-37" x1="0.94" y1="-0.484" x2="-1.894" y2="6.013" xlink:href="#linear-gradient"/>
    <linearGradient id="linear-gradient-38" x1="-0.005" y1="0.496" x2="0.995" y2="0.496" xlink:href="#linear-gradient-11"/>
    <linearGradient id="linear-gradient-39" x1="3.08" y1="-2.224" x2="-3.938" y2="5.386" xlink:href="#linear-gradient"/>
    <linearGradient id="linear-gradient-40" x1="0" y1="0.5" x2="1" y2="0.5" xlink:href="#linear-gradient-11"/>
    <linearGradient id="linear-gradient-41" x1="0" y1="0.5" x2="1" y2="0.5" xlink:href="#linear-gradient-11"/>
    <linearGradient id="linear-gradient-42" x1="484.118" y1="1.606" x2="486.121" y2="4.282" xlink:href="#linear-gradient-11"/>
    <linearGradient id="linear-gradient-43" x1="0.338" y1="0.702" x2="2.348" y2="-1.067" xlink:href="#linear-gradient-11"/>
    <linearGradient id="linear-gradient-44" x1="-0.241" y1="1.066" x2="3.809" y2="-1.521" xlink:href="#linear-gradient-5"/>
    <linearGradient id="linear-gradient-45" x1="0" y1="0.5" x2="1.001" y2="0.5" xlink:href="#linear-gradient-11"/>
    <linearGradient id="linear-gradient-46" x1="0.384" y1="-0.062" x2="0.897" y2="2.428" xlink:href="#linear-gradient"/>
    <linearGradient id="linear-gradient-47" x1="0.931" y1="-3.498" x2="0.357" y2="1.805" xlink:href="#linear-gradient-21"/>
    <linearGradient id="linear-gradient-48" x1="0.605" y1="-1.238" x2="0.461" y2="1.147" xlink:href="#linear-gradient-21"/>
    <linearGradient id="linear-gradient-49" x1="0.002" y1="0.5" x2="1.003" y2="0.5" xlink:href="#linear-gradient-11"/>
    <linearGradient id="linear-gradient-50" x1="0" y1="0.5" x2="1.001" y2="0.5" xlink:href="#linear-gradient-11"/>
    <linearGradient id="linear-gradient-51" x1="-265.247" y1="-84.075" x2="-265.569" y2="-85.14" xlink:href="#linear-gradient-11"/>
    <linearGradient id="linear-gradient-52" x1="-201.655" y1="-65.433" x2="-201.45" y2="-64.255" xlink:href="#linear-gradient"/>
    <linearGradient id="linear-gradient-53" x1="-865.263" y1="-410.399" x2="-866.207" y2="-415.046" xlink:href="#linear-gradient-11"/>
  </defs>
  <g id="segment-01" transform="translate(-78.801 -51.986)">
    <path id="Trazado_131069" data-name="Trazado 131069" d="M298.163,341.87s-151.591,1.8-193.817-38.77-26.328-81.017,6-92.464,37.846-23.376,20.449-39.449-39.49-49.063-2.8-82.22,78.544,14.465,111.33,8.145,19.8-27.623,62.921-12.908,33.615-28.115,68.288-32S401.64,96.762,437.295,78.47s64.823-15.756,80.151,13.274,8.669,68.13-24.958,91.431-30.022,21.711-17.451,44.608,23.83,98.193-33.39,108.932S298.163,341.87,298.163,341.87Z" transform="translate(0 0)" fill="rgba(125,110,178,0.6)" opacity="0.5"/>
    <path id="Trazado_131071" data-name="Trazado 131071" d="M424.66,603.17l-5.6,50.225h64.969l-8.461-50.225Z" transform="translate(-198.579 -321.677)" fill="url(#linear-gradient)"/>
    <path id="Trazado_131072" data-name="Trazado 131072" d="M170.4,288V403.022a17.451,17.451,0,0,0,17,17.447c42.012,1.082,188.952,3.71,228.946,3.119A12.837,12.837,0,0,0,428.99,411.1c.77-26.72,2.024-90.977-2.611-120.811A13.216,13.216,0,0,0,413.746,279.1c-35.206-1.124-190.973-4.7-230.946-3.8A12.679,12.679,0,0,0,170.4,288Z" transform="translate(-53.458 -130.244)" fill="url(#linear-gradient-2)"/>
    <path id="Trazado_131073" data-name="Trazado 131073" d="M187.73,293.722V403a10.11,10.11,0,0,0,9.961,10.11l223.017,2.756a9.839,9.839,0,0,0,9.993-9.8l.375-108.307a7.2,7.2,0,0,0-7.029-7.224l-228.331-4.609a7.8,7.8,0,0,0-7.986,7.795Z" transform="translate(-63.572 -136.529)" fill="url(#linear-gradient-3)"/>
    <path id="Trazado_131074" data-name="Trazado 131074" d="M431.786,602h0l-244.65-4.164a.416.416,0,0,1,0-.833l244.641,4.164a.416.416,0,0,1,0,.833Z" transform="translate(-62.983 -318.076)" fill="#fff" opacity="0.65"/>
    <path id="Trazado_131075" data-name="Trazado 131075" d="M483.139,612.93a2.965,2.965,0,1,1,2.961-2.965A2.965,2.965,0,0,1,483.139,612.93Zm0-5.093a2.132,2.132,0,1,0,2.128,2.128,2.132,2.132,0,0,0-2.128-2.128Z" transform="translate(-234.243 -323.912)" fill="#fff" opacity="0.65"/>
    <path id="Trazado_131076" data-name="Trazado 131076" d="M469.673,728.734H374.586c-2.586,0-4.526-1.84-4.027-3.814l1.22-4.826a3.937,3.937,0,0,1,3.86-2.577l91.66-2.861c1.978-.063,3.747.991,4.164,2.5l2.2,7.687C474.249,726.84,472.3,728.734,469.673,728.734Z" transform="translate(-170.228 -386.74)" fill="url(#linear-gradient-4)"/>
    <path id="Trazado_131077" data-name="Trazado 131077" d="M502.686,723.681a.416.416,0,1,1,0-.833l3.927-.058h0a.416.416,0,1,1,0,.833Z" transform="translate(-247.141 -391.488)" fill="#fff"/>
    <path id="Trazado_131078" data-name="Trazado 131078" d="M378.563,731.131h-.054a.416.416,0,0,1-.346-.475l.562-3.51a4.018,4.018,0,0,1,3.918-3.394l41.668-.612a.416.416,0,0,1,0,.833l-41.668.608a3.19,3.19,0,0,0-3.11,2.69l-.558,3.51a.417.417,0,0,1-.412.35Z" transform="translate(-174.708 -391.693)" fill="#fff"/>
    <g id="Grupo_56055" data-name="Grupo 56055" transform="translate(140.484 184.587)" opacity="0.6">
      <rect id="Rectángulo_30930" data-name="Rectángulo 30930" width="10.914" height="47.235" transform="translate(0 38.266)" fill="#fff"/>
      <rect id="Rectángulo_30931" data-name="Rectángulo 30931" width="10.914" height="31" transform="translate(18.238 54.497)" fill="#fff"/>
      <rect id="Rectángulo_30932" data-name="Rectángulo 30932" width="10.914" height="71.119" transform="translate(36.476 14.378)" fill="#fff"/>
      <rect id="Rectángulo_30933" data-name="Rectángulo 30933" width="10.914" height="17.084" transform="translate(54.714 68.413)" fill="#fff"/>
      <rect id="Rectángulo_30934" data-name="Rectángulo 30934" width="10.914" height="61.613" transform="translate(72.951 23.888)" fill="#fff"/>
      <rect id="Rectángulo_30935" data-name="Rectángulo 30935" width="10.914" height="50.945" transform="translate(91.193 34.556)" fill="#fff"/>
      <rect id="Rectángulo_30936" data-name="Rectángulo 30936" width="10.914" height="39.349" transform="translate(109.431 46.148)" fill="#fff"/>
      <rect id="Rectángulo_30937" data-name="Rectángulo 30937" width="10.914" height="85.497" transform="translate(127.669)" fill="#fff"/>
      <rect id="Rectángulo_30938" data-name="Rectángulo 30938" width="10.914" height="76.453" transform="translate(145.907 9.044)" fill="#fff"/>
      <rect id="Rectángulo_30939" data-name="Rectángulo 30939" width="10.914" height="62.771" transform="translate(164.145 22.727)" fill="#fff"/>
      <rect id="Rectángulo_30940" data-name="Rectángulo 30940" width="10.914" height="15.502" transform="translate(182.387 69.999)" fill="#fff"/>
      <rect id="Rectángulo_30941" data-name="Rectángulo 30941" width="10.914" height="45.611" transform="translate(200.625 39.89)" fill="#fff"/>
    </g>
    <path id="Trazado_131079" data-name="Trazado 131079" d="M230.973,313.1A15.823,15.823,0,1,0,246.8,328.923,15.823,15.823,0,0,0,230.973,313.1Zm0,24.842a9.019,9.019,0,1,1,9.015-9.016,9.019,9.019,0,0,1-9.015,9.016Z" transform="translate(-79.575 -152.389)" fill="#fff" opacity="0.57"/>
    <g id="Grupo_56056" data-name="Grupo 56056" transform="translate(135.575 160.711)" clip-path="url(#clip-path)">
      <rect id="Rectángulo_30942" data-name="Rectángulo 30942" width="47.01" height="19.895" transform="translate(-6.279 12.346)" fill="url(#linear-gradient-5)"/>
    </g>
    <path id="Trazado_131081" data-name="Trazado 131081" d="M323.623,313.1a15.823,15.823,0,1,0,15.823,15.823A15.823,15.823,0,0,0,323.623,313.1Zm0,24.842a9.019,9.019,0,1,1,9.015-9.016,9.019,9.019,0,0,1-9.015,9.016Z" transform="translate(-133.647 -152.389)" fill="#fff" opacity="0.57"/>
    <g id="Grupo_56057" data-name="Grupo 56057" transform="translate(174.153 160.711)" clip-path="url(#clip-path-2)">
      <rect id="Rectángulo_30943" data-name="Rectángulo 30943" width="47.01" height="27.586" transform="translate(-6.279 4.655)" fill="#f5ca56"/>
    </g>
    <path id="Trazado_131083" data-name="Trazado 131083" d="M416.273,313.1A15.823,15.823,0,1,0,432.1,328.923,15.823,15.823,0,0,0,416.273,313.1Zm0,24.842a9.019,9.019,0,1,1,9.015-9.016,9.019,9.019,0,0,1-9.015,9.016Z" transform="translate(-187.718 -152.389)" fill="#fff" opacity="0.57"/>
    <g id="Grupo_56058" data-name="Grupo 56058" transform="translate(212.732 160.711)" clip-path="url(#clip-path-3)">
      <rect id="Rectángulo_30944" data-name="Rectángulo 30944" width="47.01" height="9.948" transform="translate(-6.279 22.293)" fill="url(#linear-gradient-6)"/>
    </g>
    <path id="Trazado_131085" data-name="Trazado 131085" d="M838.225,579.58a3.01,3.01,0,0,1-3.006,3H672.8a3.011,3.011,0,0,1-3-3l-1.349-93.334a5.22,5.22,0,0,1,5.5-4.63l158.732-4.11a7.566,7.566,0,0,1,7.766,7.741Z" transform="translate(-344.126 -248.337)" fill="url(#linear-gradient-7)"/>
    <path id="Trazado_131086" data-name="Trazado 131086" d="M841.078,581.694a2.848,2.848,0,0,1-2.844,2.84h-155.7a2.848,2.848,0,0,1-2.84-2.84l-1.278-84.731a7,7,0,0,1,7.333-6.825l152.128-4.081a5.317,5.317,0,0,1,5.459,5.442Z" transform="translate(-349.944 -253.328)" fill="#aee6e6"/>
    <path id="Trazado_131087" data-name="Trazado 131087" d="M684.806,608.273a.416.416,0,0,1-.416-.416l-.1-6.87a.416.416,0,1,1,.833,0l.1,6.87A.416.416,0,0,1,684.806,608.273Z" transform="translate(-353.37 -320.16)" fill="#fff"/>
    <path id="Trazado_131088" data-name="Trazado 131088" d="M683.81,530.756a.416.416,0,0,1-.416-.416l-.383-26.316a5.723,5.723,0,0,1,1.666-4.318,7.688,7.688,0,0,1,5.209-1.8l48.572-1.307a.416.416,0,0,1,0,.833l-48.6,1.3a7,7,0,0,0-4.63,1.574,4.93,4.93,0,0,0-1.407,3.71l.383,26.307a.416.416,0,0,1-.416.416Z" transform="translate(-352.623 -259.482)" fill="#fff"/>
    <path id="Trazado_131089" data-name="Trazado 131089" d="M697.56,585.915c.162-7,.1-69.017-.3-74.371s7.94-6.363,20.749-6.966,120.861-2.99,123.643-3.215c6.246-.508,7.545,8.84,6.92,29.147-.471,15.244-1.249,40.361-1.607,51.907a6.375,6.375,0,0,1-6.358,6.179c-26,.071-125.662.354-132.3.554C700.658,589.362,697.481,588.692,697.56,585.915Z" transform="translate(-360.932 -262.25)" fill="#fff" opacity="0.37"/>
    <rect id="Rectángulo_30945" data-name="Rectángulo 30945" width="191.485" height="8.203" rx="4.101" transform="translate(315.793 333.792)" fill="url(#linear-gradient-8)"/>
    <circle id="Elipse_4319" data-name="Elipse 4319" cx="17.397" cy="17.397" r="17.397" transform="translate(345.718 244.705)" fill="#fff" opacity="0.63"/>
    <circle id="Elipse_4320" data-name="Elipse 4320" cx="17.397" cy="17.397" r="17.397" transform="translate(393.337 244.705)" fill="#fff" opacity="0.63"/>
    <circle id="Elipse_4321" data-name="Elipse 4321" cx="17.397" cy="17.397" r="17.397" transform="translate(440.955 245.276)" fill="#fff" opacity="0.63"/>
    <path id="Trazado_131090" data-name="Trazado 131090" d="M752.34,534.09a11.176,11.176,0,1,1-10.335-6.929h.562V524.33h-.562a13.995,13.995,0,1,0,12.933,8.628Z" transform="translate(-378.89 -275.665)" fill="#26aab7"/>
    <path id="Trazado_131091" data-name="Trazado 131091" d="M861.816,547.794a11.176,11.176,0,1,1-5.954-20.632h.566V524.33h-.566a14.007,14.007,0,1,0,7.358,25.92Z" transform="translate(-445.32 -275.665)" fill="#26aab7"/>
    <path id="Trazado_131092" data-name="Trazado 131092" d="M980.128,544.621a11.176,11.176,0,1,1-9.24-17.459h.562V524.33h-.562a14.007,14.007,0,1,0,11.534,21.948Z" transform="translate(-512.453 -275.665)" fill="#26aab7"/>
    <path id="Trazado_131093" data-name="Trazado 131093" d="M751.395,616.08H723.043a3.223,3.223,0,0,0,0,6.446h28.352a3.223,3.223,0,0,0,0-6.446Z" transform="translate(-374.106 -329.211)" fill="#26aab7"/>
    <path id="Trazado_131094" data-name="Trazado 131094" d="M865.751,616.08H837.4a3.223,3.223,0,0,0,0,6.446h28.348a3.223,3.223,0,0,0,0-6.446Z" transform="translate(-440.848 -329.211)" fill="#26aab7"/>
    <path id="Trazado_131095" data-name="Trazado 131095" d="M951.773,622.526h28.348a3.223,3.223,0,0,0,0-6.446H951.773a3.223,3.223,0,0,0,0,6.446Z" transform="translate(-507.595 -329.211)" fill="#26aab7"/>
    <rect id="Rectángulo_30946" data-name="Rectángulo 30946" width="34.793" height="25.416" rx="7.74" transform="translate(345.718 296.895)" fill="#fff" opacity="0.63"/>
    <rect id="Rectángulo_30947" data-name="Rectángulo 30947" width="34.793" height="25.416" rx="7.74" transform="translate(393.337 296.895)" fill="#fff" opacity="0.63"/>
    <rect id="Rectángulo_30948" data-name="Rectángulo 30948" width="34.793" height="25.416" rx="7.74" transform="translate(440.955 296.895)" fill="#fff" opacity="0.63"/>
    <path id="Trazado_131096" data-name="Trazado 131096" d="M124.1,527.01c-.321,15.015-1.353,66.793-.858,85.143a3.447,3.447,0,0,0,3.044,3.568c8.22.316,38.349,1.112,51.79.454,2.8-.137,5.026-2.79,5.084-6.071.279-15.756.9-60.073-.566-80.363a4.769,4.769,0,0,0-3.885-4.614c-8.952-1.045-39.207-3.606-50.825-2.723C125.793,522.547,124.152,524.558,124.1,527.01Z" transform="translate(-25.861 -274.435)" fill="url(#linear-gradient-9)"/>
    <path id="Trazado_131097" data-name="Trazado 131097" d="M132.215,539.173c-.441,12.117-1.836,52.423-1.395,67.33a3.972,3.972,0,0,0,3.394,4.068c7.662.525,33.79,1.665,45.024.629a4.454,4.454,0,0,0,3.723-4.476c.566-12.363,2.2-49.9,1.778-64.632a4.413,4.413,0,0,0-3.627-4.485c-8.286-.87-36.055-2.94-45.6-2.332A3.832,3.832,0,0,0,132.215,539.173Z" transform="translate(-30.31 -281.989)" fill="#f5ca56"/>
    <path id="Trazado_131098" data-name="Trazado 131098" d="M179.065,731.625a4.4,4.4,0,1,1,3.785-4.355A4.108,4.108,0,0,1,179.065,731.625Zm0-7.882a3.58,3.58,0,1,0,2.952,3.527A3.282,3.282,0,0,0,179.065,723.743Z" transform="translate(-56.306 -391.558)" fill="#fff" opacity="0.65"/>
    <path id="Trazado_131099" data-name="Trazado 131099" d="M174.269,527.683h0a.833.833,0,0,0,.72.862c1.94.121,7.408.458,9.852.625a.833.833,0,0,0,.77-1.028v-.1a.8.8,0,0,0-.658-.7,81.661,81.661,0,0,0-9.939-.529A.833.833,0,0,0,174.269,527.683Z" transform="translate(-55.716 -277.102)" fill="#fff" opacity="0.5"/>
    <g id="Grupo_56059" data-name="Grupo 56059" transform="translate(105.855 260.742)" opacity="0.42">
      <path id="Trazado_131100" data-name="Trazado 131100" d="M178.43,614.894l15.09.591-1.053-12.671-14.037-.375Z" transform="translate(-163.999 -581.993)" fill="#fff"/>
      <path id="Trazado_131101" data-name="Trazado 131101" d="M217.518,616.147l11.784.462.087-12.808-12.929-.341Z" transform="translate(-186.194 -582.589)" fill="#fff"/>
      <path id="Trazado_131102" data-name="Trazado 131102" d="M189.224,572.458l.1-13.42a2.913,2.913,0,0,0-2.448-3.073l-35.914-2.623a2.8,2.8,0,0,0-2.773,2.915l-.575,15.1Z" transform="translate(-146.012 -553.335)" fill="#fff"/>
      <path id="Trazado_131103" data-name="Trazado 131103" d="M157.886,601.916l-11.126-.3L146.29,613.9l11.6.454Z" transform="translate(-145.242 -581.515)" fill="#fff"/>
      <path id="Trazado_131104" data-name="Trazado 131104" d="M144.742,636.12l-.966,25.287a2.891,2.891,0,0,0,2.54,3.19l37.7,1.12a2.84,2.84,0,0,0,2.677-3.027l.175-24.929Z" transform="translate(-143.773 -601.649)" fill="#fff"/>
    </g>
    <path id="Trazado_131105" data-name="Trazado 131105" d="M291.744,636.2c-.162,7.612-.687,33.861-.437,43.159a1.757,1.757,0,0,0,1.545,1.811c4.164.158,19.437.562,26.253.229a2.957,2.957,0,0,0,2.577-3.077c.142-7.986.454-30.451-.287-40.744a2.4,2.4,0,0,0-1.97-2.336c-4.539-.533-19.878-1.832-25.762-1.382A2.265,2.265,0,0,0,291.744,636.2Z" transform="translate(-123.982 -339.533)" fill="url(#linear-gradient-2)"/>
    <path id="Trazado_131106" data-name="Trazado 131106" d="M295.857,642.393c-.225,6.142-.933,26.574-.708,34.144a2.012,2.012,0,0,0,1.72,2.061c3.885.267,17.13.854,22.822.317a2.259,2.259,0,0,0,1.886-2.265c.292-6.267,1.12-25.291.9-32.766a2.239,2.239,0,0,0-1.84-2.269c-4.2-.441-18.275-1.491-23.114-1.183A1.94,1.94,0,0,0,295.857,642.393Z" transform="translate(-126.238 -343.391)" fill="#aee6e6"/>
    <path id="Trazado_131107" data-name="Trazado 131107" d="M319.318,739.846a2.433,2.433,0,1,1,2.124-2.411A2.285,2.285,0,0,1,319.318,739.846Zm0-3.993a1.62,1.62,0,1,0,0-.008Z" transform="translate(-139.127 -398.626)" fill="#fff" opacity="0.65"/>
    <path id="Trazado_131108" data-name="Trazado 131108" d="M317.169,636.565h0a.416.416,0,0,0,.354.437c.987.063,3.748.233,5,.316a.416.416,0,0,0,.391-.521v-.05a.416.416,0,0,0-.337-.354,41.319,41.319,0,0,0-5.038-.267A.416.416,0,0,0,317.169,636.565Z" transform="translate(-139.114 -340.911)" fill="#fff" opacity="0.5"/>
    <path id="Trazado_131109" data-name="Trazado 131109" d="M325.516,669.066l-5.663-12.45a.416.416,0,0,0-.783,0l-5.7,12.45a.416.416,0,0,0,.387.608h1.845a.416.416,0,0,1,.416.416v13.378a.416.416,0,0,0,.416.416H322.4a.416.416,0,0,0,.416-.416V670.1a.416.416,0,0,1,.416-.416h1.845a.416.416,0,0,0,.437-.62Z" transform="translate(-136.872 -352.708)" fill="#fff"/>
    <rect id="Rectángulo_30949" data-name="Rectángulo 30949" width="20.615" height="17.613" rx="4.97" transform="translate(388.838 187.435) rotate(1.146)" fill="#26aab7"/>
    <rect id="Rectángulo_30950" data-name="Rectángulo 30950" width="20.615" height="17.613" rx="4.97" transform="translate(424.649 187.417) rotate(1.04)" fill="#26aab7"/>
    <rect id="Rectángulo_30951" data-name="Rectángulo 30951" width="20.615" height="17.613" rx="4.97" transform="translate(460.228 188.067) rotate(1.04)" fill="#26aab7"/>
    <path id="Trazado_131110" data-name="Trazado 131110" d="M874.29,167.74a3.61,3.61,0,0,0-3.427-3.831c-6.637-.333-21.311,1.307-35.322,19.046-18.875,23.9-4.464,57.5,34.419,58.836,35.73,1.228,48.451-25.533,48.189-41.876A3.135,3.135,0,0,0,914.071,197l-38.345,11.9a2.94,2.94,0,0,1-3.8-2.986Z" transform="translate(-436.832 -65.299)" fill="#f5ca56"/>
    <path id="Trazado_131111" data-name="Trazado 131111" d="M953.535,157.783l-6.662,35.68a2.382,2.382,0,0,0,3.3,2.619l33.095-14.574a4.734,4.734,0,0,0,2.64-5.713c-1.974-6.433-8.228-18.375-27.661-21.39a4.164,4.164,0,0,0-4.709,3.377Z" transform="translate(-506.593 -59.747)" fill="#f5ca56"/>
    <path id="Trazado_131112" data-name="Trazado 131112" d="M862.026,241.907a.885.885,0,0,1-.25-.037,32.774,32.774,0,0,1-14.157-9.094c-5.53-6.192-8.153-14.216-7.786-23.793.346-9.032,5.171-17.567,13.957-24.684a58.5,58.5,0,0,1,13.25-8.086.834.834,0,0,1,.629,1.545c-.254.1-25.4,10.605-26.17,31.287-.35,9.161,2.132,16.768,7.383,22.627a31.067,31.067,0,0,0,13.4,8.615.833.833,0,0,1-.25,1.628Z" transform="translate(-444.127 -72.464)" fill="#fff"/>
    <path id="Trazado_131113" data-name="Trazado 131113" d="M956.542,196.825a1.035,1.035,0,0,1-.221-.029.833.833,0,0,1-.583-1.024l7.5-27.232a4.393,4.393,0,0,1,5.55-3.031,32.641,32.641,0,0,1,16.735,12.234.833.833,0,1,1-1.357.962,30.929,30.929,0,0,0-15.877-11.6,2.723,2.723,0,0,0-3.444,1.882l-7.495,27.232A.833.833,0,0,1,956.542,196.825Z" transform="translate(-511.773 -66.136)" fill="#fff"/>
    <path id="Trazado_131114" data-name="Trazado 131114" d="M379.41,274.909c-.033,0-18.4-32.17-20.878-35.2a1.919,1.919,0,0,0-1.716-.691l-5.126.612-6.021,13.025,10.031-5.829c-.991,6.866,11.892,17.072,16.314,20.79a1.016,1.016,0,0,1,.079,1.478l-1.766,1.845a20.274,20.274,0,0,0,10.014,5.7Z" transform="translate(-155.748 -109.148)" fill="url(#linear-gradient-11)"/>
    <path id="Trazado_131115" data-name="Trazado 131115" d="M405.143,313.28a2.586,2.586,0,0,0-1.507,1.366,1.149,1.149,0,0,0,.416,1.324c1.853,1.328,7.97,5.617,10.793,6.458a.321.321,0,0,0,.416-.379,10.159,10.159,0,0,0-2.124-3.881l.137.275a.391.391,0,0,1-.545.516C410.827,317.894,407,315.562,405.143,313.28Z" transform="translate(-189.538 -152.494)" fill="url(#linear-gradient-12)"/>
    <path id="Trazado_131116" data-name="Trazado 131116" d="M369.535,287.914c-.033-.021-2.786-6.662-2.819-6.662a116.767,116.767,0,0,0-10.506-32.02,1.915,1.915,0,0,0-1.541-1.02l-5.142-.441L341,259.3l11.009-3.689c-2.365,6.521,8.19,19.121,11.767,23.659a1.016,1.016,0,0,1-.221,1.466l-2.082,1.449a20.274,20.274,0,0,0,8.653,7.6Z" transform="translate(-153.022 -114.262)" fill="url(#linear-gradient-13)"/>
    <path id="Trazado_131117" data-name="Trazado 131117" d="M390.312,328.56a2.594,2.594,0,0,0-1.753,1.037,1.141,1.141,0,0,0,.154,1.382c1.545,1.666,6.662,7.112,9.261,8.507a.321.321,0,0,0,.47-.287,10.023,10.023,0,0,0-1.295-4.23l.079.3a.391.391,0,0,1-.637.4C394.954,334.235,391.661,331.171,390.312,328.56Z" transform="translate(-180.682 -161.412)" fill="url(#linear-gradient-14)"/>
    <path id="Trazado_131118" data-name="Trazado 131118" d="M296.53,241.6s-4.651,6.916-5.034,10.077,1.287,4.247,6.158,4.647c14.49,1.2,21.631-3.144,21.631-3.144.991-6.321,1.7-7.911,9.993-11.363,0,0-10.472.833-12.579,0S296.53,241.6,296.53,241.6Z" transform="translate(-124.101 -110.534)" fill="#26aab7"/>
    <path id="Trazado_131119" data-name="Trazado 131119" d="M316.822,146.735s-3.244-3.835-6.687.87c-.625.833-3.019.146-3.9,1.932a2.269,2.269,0,0,1-2.444,1.249c-2.5-.466-6.621-.5-8.653,3.435-1.545,3.006-.35,4.768,1.2,5.771a2.536,2.536,0,0,1,.858,3.4c-.662,1.12-.783,2.636.92,4.464,3.814,4.089,11.367-2.6,11.367-2.6l6-14.157Z" transform="translate(-125.838 -54.437)" fill="url(#linear-gradient-15)"/>
    <path id="Trazado_131120" data-name="Trazado 131120" d="M309.631,204.547a106.612,106.612,0,0,0,8.082-8.578,7.245,7.245,0,0,0,1.228-6.525,90.281,90.281,0,0,0-3.577-9.011c-.3-1.016-6.379-.974-6.379-.974s-11.955,7.762-16.656,20.9L297.606,202a61.972,61.972,0,0,1,6.2-8.565s-5.334,7.049-5.521,9.935Z" transform="translate(-124.618 -74.395)" fill="#26aab7"/>
    <path id="Trazado_131121" data-name="Trazado 131121" d="M318.267,235.9l-4.072-4.41-4.7,1.249s-5.48.833-8.619,0l-3.135-.833L290.66,229.7l-1.112,3.148a1.89,1.89,0,0,0,.691,2.174,12.511,12.511,0,0,0,1.79,1.116c.933.416,21.506.129,21.506.129Z" transform="translate(-122.932 -103.716)" fill="url(#linear-gradient-16)"/>
    <path id="Trazado_131122" data-name="Trazado 131122" d="M336.635,161.1l-4.085,7.595c.271,1.666,4.447,1.7,5.088.712a.959.959,0,0,0,.129-.333L340.232,164c.1-.5-1.249-2.165-1.7-2.4l-1.624-.862C336.264,160.4,338.871,160.378,336.635,161.1Z" transform="translate(-148.091 -63.337)" fill="url(#linear-gradient-17)"/>
    <path id="Trazado_131123" data-name="Trazado 131123" d="M350.4,155.052a8.988,8.988,0,0,1-1.553,5.829c-2.015,3.264-4.022,3.115-5.042,1.949a7.158,7.158,0,0,1-1.686-6.35C342.672,153.229,349.7,151.784,350.4,155.052Z" transform="translate(-153.591 -59.073)" fill="url(#linear-gradient-18)"/>
    <path id="Trazado_131124" data-name="Trazado 131124" d="M342.041,152.5s3.26-4.285,5.759-.55l-.042,1.291s3.256-.15,2.915-3.156-3.015-5.055-6.7-4.026-5.829,2.194-6.246,4.755,1.666,2.14,1.666,2.14.8-1.766,1.766-1.886.616,1.278.616,1.278Z" transform="translate(-151.078 -54.748)" fill="url(#linear-gradient-19)"/>
    <path id="Trazado_131125" data-name="Trazado 131125" d="M344.587,157.854s1.691-2.194.15-2.648-1.478,2.149-1.378,3.119Z" transform="translate(-154.373 -60.21)" fill="url(#linear-gradient-20)"/>
    <path id="Trazado_131126" data-name="Trazado 131126" d="M325.172,246.436h.042l18.738-.021a.833.833,0,0,0,0-1.666l-18.738.021a.833.833,0,0,0-.042,1.666Z" transform="translate(-143.311 -112.499)" fill="url(#linear-gradient-21)"/>
    <path id="Trazado_131127" data-name="Trazado 131127" d="M376.071,208H360.478a2.969,2.969,0,0,0-2.686,1.7l-7.212,15.285h19.383a1.8,1.8,0,0,0,1.666-1.141l5.592-14.157A1.249,1.249,0,0,0,376.071,208Z" transform="translate(-158.613 -91.051)" fill="url(#linear-gradient-22)"/>
    <path id="Trazado_131128" data-name="Trazado 131128" d="M385.21,224.617c-.337,1.049-.087,2.082.558,2.278s1.445-.475,1.782-1.524.087-2.082-.558-2.278S385.547,223.567,385.21,224.617Z" transform="translate(-178.736 -99.84)" fill="url(#linear-gradient-23)"/>
    <path id="Trazado_131129" data-name="Trazado 131129" d="M933.49,483.279a.35.35,0,0,1,.645.067c.316,1.133,1.074,3.1,2.669,3.806l.229.1a.8.8,0,0,0-.1-.733c-.5-.758.416-1.795.416-1.795a2.328,2.328,0,0,0,.754,1.487,2.224,2.224,0,0,1,.475,2.5c-.862,3.352-2.157,7.786,2.881,11.03s12.125-6.117,12.125-6.117l-3.548,11.159s-5.413,4.01-11.75-1.628-2.12-13.857-2.12-13.857S931.345,487.372,933.49,483.279Z" transform="translate(-498.485 -251.598)" fill="url(#linear-gradient-24)"/>
    <path id="Trazado_131130" data-name="Trazado 131130" d="M981.252,461.844s-1.457-6.546,6.038-4.813c0,0,3.639-.6,3.823,2.84,0,0,2.349,1.545.629,4.518,0,0,6.97-2.694,9.993,3.419s.246,9.473-2.681,10.347a2.915,2.915,0,0,1,1.249,3.877c-1.124,2.69-6.808,4.58-10.164,1.316,0,0-9.577,1.249-9.365-5.484,0,0-4.443-2.873.225-8.449S981.252,461.844,981.252,461.844Z" transform="translate(-525.287 -236.218)" fill="url(#linear-gradient-25)"/>
    <path id="Trazado_131131" data-name="Trazado 131131" d="M975.409,504.884a10.273,10.273,0,0,1,10.064,2.565,2.578,2.578,0,0,1,.745,2.573c-1.12,4.126-4.076,16.314-1.487,21.586,0,0-4.58,5.034-9.552.979,0,0-2.236-9.748-5.163-14.024-2.024-2.956,3.223-11.093,4.551-13.058A1.533,1.533,0,0,1,975.409,504.884Z" transform="translate(-519.855 -264.081)" fill="url(#linear-gradient-26)"/>
    <path id="Trazado_131132" data-name="Trazado 131132" d="M989.421,485.76s2.228,6.3,2.394,9.081a4.759,4.759,0,0,1-4.78-.77,70.627,70.627,0,0,0-.6-7.42Z" transform="translate(-529.708 -253.155)" fill="url(#linear-gradient-27)"/>
    <path id="Trazado_131133" data-name="Trazado 131133" d="M981.327,465.066s-5.829,8.153-2.344,10.522,7.633-3.427,7.633-3.427,1.349-4.464-.062-5.975S981.327,465.066,981.327,465.066Z" transform="translate(-524.708 -241.051)" fill="url(#linear-gradient-28)"/>
    <path id="Trazado_131134" data-name="Trazado 131134" d="M988.339,460.291s-2.677.633-3.052,1.845,3.793,2.336,4.963,2.39l.941,4.888s2.786-4.58,1.666-7.253S988.339,460.291,988.339,460.291Z" transform="translate(-529.021 -238.225)" fill="url(#linear-gradient-29)"/>
    <path id="Trazado_131135" data-name="Trazado 131135" d="M996.15,478.637s2.269-2.627,3.173-.912-2.044,3-3.06,2.157Z" transform="translate(-535.375 -248.127)" fill="url(#linear-gradient-30)"/>
    <path id="Trazado_131136" data-name="Trazado 131136" d="M967.327,621.12c0,.441-.758,3.951-1.182,5.829a3.081,3.081,0,0,0,.333,2.211l14.64,24.642a3.326,3.326,0,0,1,.383.958,20.915,20.915,0,0,1,.537,6.571l-.758,1.574,3.273-.745.716-8.8-.928-.562a4.419,4.419,0,0,1-1.782-2.082c-1.324-3.219-4.614-11.4-5.459-15.406-.962-4.53-6-8.215-6-8.215l.887-2.082Z" transform="translate(-517.819 -332.153)" fill="url(#linear-gradient-31)"/>
    <path id="Trazado_131137" data-name="Trazado 131137" d="M1008.14,703.363a20.039,20.039,0,0,1-1.978-3.9c-.208-1.091-.787-3.019-1.878-2.436a63.532,63.532,0,0,0-.337,7.374c.179,2.074-2.344,2-2.344,2a2.361,2.361,0,0,0-1.2.608.587.587,0,0,0,.391.991,14.114,14.114,0,0,0,3.51-.2,1.066,1.066,0,0,0,.866-.987l.383-6.117,2.232,2.815Z" transform="translate(-537.762 -376.392)" fill="url(#linear-gradient-32)"/>
    <path id="Trazado_131138" data-name="Trazado 131138" d="M985.828,629.716s.516,22.044.583,25.171-.491,10.068-3.631,12.142l1.366,1.012a18.166,18.166,0,0,0,3.373-4.243,25.593,25.593,0,0,1,2.44-3.706l-.62-1.274a2.787,2.787,0,0,1-.229-1.795c.679-3.281,2.94-14.2,3.556-16.552a10.57,10.57,0,0,0-1.753-9.577C988.376,627.8,985.828,629.716,985.828,629.716Z" transform="translate(-527.572 -336.826)" fill="url(#linear-gradient-33)"/>
    <path id="Trazado_131139" data-name="Trazado 131139" d="M986.574,711.723a.191.191,0,0,0,.192-.167,28.575,28.575,0,0,1,.9-4.443c.416-.874,1.741-4.551,0-4.863,0,0-4.326,6.317-5.155,7.17a1.632,1.632,0,0,1-1.878.3,3.156,3.156,0,0,0-1.42,1.02.575.575,0,0,0,.454.92l2.915.025a2.053,2.053,0,0,0,1.924-1.291,10.909,10.909,0,0,1,2.419-3.989l-.533,5.1a.2.2,0,0,0,.192.217Z" transform="translate(-525.42 -379.501)" fill="url(#linear-gradient-34)"/>
    <path id="Trazado_131140" data-name="Trazado 131140" d="M972.118,564.262a10.357,10.357,0,0,1-.354,5.538l-6.246,21.844a.674.674,0,0,0,.416.833,41.662,41.662,0,0,0,16.418,1.99.949.949,0,0,0,.866-.741c.554-2.5,2.44-10.984,2.832-12.733,1.478-6.662,3.135-13.824-4.139-18.163C978.559,564.254,975.432,565.1,972.118,564.262Z" transform="translate(-517.48 -298.134)" fill="url(#linear-gradient-35)"/>
    <path id="Trazado_131141" data-name="Trazado 131141" d="M1000.857,512.866s7.116,5.917,8.882,14-10.41,8.94-10.41,8.94-1.666-1.845-3.61-1.187-.154-3.219,2.14-3.21,1.249,1.824,4.476.354c3.165-1.428,5.117-5.859-2.948-12.571a3.648,3.648,0,0,1-1.066-1.453C996.763,513.794,998,511.209,1000.857,512.866Z" transform="translate(-534.639 -268.677)" fill="url(#linear-gradient-36)"/>
    <path id="Trazado_131142" data-name="Trazado 131142" d="M750.912,473.91s-.371,2.082-.55,4.164a1.424,1.424,0,0,0,1.366,1.545c2.757.117,8.657.337,10.776.246a.466.466,0,0,0,.416-.637h0a1.037,1.037,0,0,0-.533-.562l-9.748-4.48Z" transform="translate(-391.928 -246.239)" fill="url(#linear-gradient-37)"/>
    <path id="Trazado_131143" data-name="Trazado 131143" d="M751,470.451l.3,2.5a3.113,3.113,0,0,0,2.877-.1l-.708-2.79Z" transform="translate(-392.303 -243.993)" fill="url(#linear-gradient-38)"/>
    <path id="Trazado_131144" data-name="Trazado 131144" d="M740.642,357.94c-.129.654-.691,32.62,2.727,46.948a.491.491,0,0,1-.283.566,8.551,8.551,0,0,1-2.785.562.833.833,0,0,1-.833-.6c-.978-3.331-5.659-19.987-6.271-35.884-.679-17.776,0-.608,0-.608l.416-10.984Z" transform="translate(-381.737 -178.558)" fill="#0d585f"/>
    <path id="Trazado_131145" data-name="Trazado 131145" d="M723.113,476.54a15.058,15.058,0,0,0-1.158,3.864.87.87,0,0,0,.766,1.041c.912.092,2.311.2,3.435.2a.866.866,0,0,0,.862-.966,7.329,7.329,0,0,0-1.711-4.018Z" transform="translate(-375.341 -247.774)" fill="url(#linear-gradient-39)"/>
    <path id="Trazado_131146" data-name="Trazado 131146" d="M723.52,468.6l.7,3.789a2.443,2.443,0,0,0,2.04.137l-.329-4.072Z" transform="translate(-376.265 -243.053)" fill="url(#linear-gradient-40)"/>
    <path id="Trazado_131147" data-name="Trazado 131147" d="M717.49,357.821c-2.8,16.868.6,41.689,1.753,46.548a.758.758,0,0,0,.612.575,5.112,5.112,0,0,0,2.186-.087.691.691,0,0,0,.5-.641c.154-3.927-.121-28.036,2.5-37.567a2.181,2.181,0,0,1,.833-1.195l5.051-3.589.387-5.8Z" transform="translate(-372.117 -177.461)" fill="#0d585f"/>
    <path id="Trazado_131148" data-name="Trazado 131148" d="M735.361,281.62a78.791,78.791,0,0,0-17.613,2.2c-2.5,14.574-.437,31.371-.437,31.371,6.483,1.7,13.8-1.041,13.8-1.041,1.074-6.088,6.1-23.222,6.1-23.222a27.581,27.581,0,0,0,10.239-3.252,17.9,17.9,0,0,1-3.548-7.424,28.038,28.038,0,0,1-8.544,1.37Z" transform="translate(-372.175 -133.217)" fill="#f5ca56"/>
    <path id="Trazado_131149" data-name="Trazado 131149" d="M798.5,253.028a1.6,1.6,0,0,0-1.865-.525c-1.249,5.2-7.695,9.427-14.332,11.488a17.687,17.687,0,0,0,3.548,7.424C796.865,265.225,798.5,253.028,798.5,253.028Z" transform="translate(-410.57 -116.959)" fill="url(#linear-gradient-41)"/>
    <path id="Trazado_131150" data-name="Trazado 131150" d="M818.393,242c.083.275-.912.691-1.5-.416,0-.537-.346-2.836-.025-3.269a42.844,42.844,0,0,1,5.018-5.247.791.791,0,0,1,.1,1.1l-1.6,1.666a7.915,7.915,0,0,1,.937,1.853,2.256,2.256,0,0,1-.225,1.666,17.264,17.264,0,0,1-1.028,1.666A2.215,2.215,0,0,1,818.393,242Z" transform="translate(-430.665 -105.683)" fill="url(#linear-gradient-42)"/>
    <path id="Trazado_131151" data-name="Trazado 131151" d="M821.1,242.29l-1.461,1.249-.462,1.249,1.307,1.445a15.258,15.258,0,0,1,.762-2.981C821.6,242.719,821.408,242.444,821.1,242.29Z" transform="translate(-432.093 -111.063)" fill="url(#linear-gradient-43)"/>
    <path id="Trazado_131152" data-name="Trazado 131152" d="M709.921,296.931l-3.21-8.111s-7.824,5.317-9.111,12.055a18.6,18.6,0,0,1,6.8,1.824C704.978,299.517,709.921,296.931,709.921,296.931Z" transform="translate(-361.138 -138.219)" fill="url(#linear-gradient-44)"/>
    <path id="Trazado_131153" data-name="Trazado 131153" d="M716.5,321.459s-8.782,4.963-11.746.724a3.331,3.331,0,0,1-.612-2.59,18.6,18.6,0,0,0-6.8-1.824,9.306,9.306,0,0,0,1,6.379c5.188,9.494,19.308-.525,19.308-.525Z" transform="translate(-360.881 -155.114)" fill="url(#linear-gradient-45)"/>
    <path id="Trazado_131154" data-name="Trazado 131154" d="M741.052,316.3l4.793-16.739a.491.491,0,0,1,.416-.354c.866-.1,3.385-.387,6.292-.633a71.393,71.393,0,0,1,9.993-.329.487.487,0,0,1,.416.7c-1.382,2.794-7.079,14.157-9.91,17.884a.483.483,0,0,1-.391.2l-11.122-.1a.487.487,0,0,1-.487-.625Z" transform="translate(-386.485 -143.674)" fill="url(#linear-gradient-46)"/>
    <path id="Trazado_131155" data-name="Trazado 131155" d="M769.3,294.844l3.477-.579a.25.25,0,0,1,.279.325l-.346,1.041a.246.246,0,0,1-.2.171l-3.331.446a.25.25,0,0,1-.279-.3l.216-.912a.246.246,0,0,1,.187-.187Z" transform="translate(-402.746 -141.395)" fill="url(#linear-gradient-47)"/>
    <path id="Trazado_131156" data-name="Trazado 131156" d="M763.623,299.25l.287-1.495a.337.337,0,0,1,.3-.275l7.02-.712a.346.346,0,0,1,.371.416l-.45,1.861a.341.341,0,0,1-.316.262l-6.858.346a.345.345,0,0,1-.358-.4Z" transform="translate(-399.667 -142.856)" fill="url(#linear-gradient-48)"/>
    <path id="Trazado_131157" data-name="Trazado 131157" d="M743.2,324a12.578,12.578,0,0,1-.416-3.723c.254-.974.791-2.228,2.532-1.949a25.4,25.4,0,0,1,3.789,1.012,1,1,0,0,1-1.424.862l.833.633s-.117,1.016-1.249.475l.766.833a.891.891,0,0,1-1.3.3C745.919,321.914,745.524,324.325,743.2,324Z" transform="translate(-387.472 -155.415)" fill="url(#linear-gradient-49)"/>
    <path id="Trazado_131158" data-name="Trazado 131158" d="M737.646,267.21l-2.669,7.707a.275.275,0,0,0,.125.333,6.254,6.254,0,0,0,6.5-.416,1.316,1.316,0,0,0,.6-.937l.866-6.662Z" transform="translate(-382.942 -125.607)" fill="url(#linear-gradient-50)"/>
    <path id="Trazado_131159" data-name="Trazado 131159" d="M745.763,250.07s2.915,5.509,2.548,7.737-4,2.082-7.166.258l-2.215-5.942Z" transform="translate(-385.259 -115.604)" fill="url(#linear-gradient-51)"/>
    <path id="Trazado_131160" data-name="Trazado 131160" d="M735.593,249.522a.225.225,0,0,0,.1-.333,5.968,5.968,0,0,1-.833-1.728s-.525-.337,1.341-.783,4.647-1.137,5.23-2.727-.924-5.438-3.331-2.336a.229.229,0,0,1-.362,0,2.339,2.339,0,0,0-2.848-.924,2.139,2.139,0,0,0-1.47,2.082.229.229,0,0,1-.271.233,2.616,2.616,0,0,0-3.056,1.424,2.109,2.109,0,0,0,.15,2.527.225.225,0,0,1-.1.375,1.364,1.364,0,0,0-.962,1.553c.079,1.441,1.69,1.316,2.149,1.249a.225.225,0,0,1,.2.071c.416.437,2.165,2.282,4.081,2.5a.229.229,0,0,0,.242-.3l-.833-2.411a.229.229,0,0,1,.121-.283Z" transform="translate(-379.569 -109.984)" fill="url(#linear-gradient-52)"/>
    <path id="Trazado_131161" data-name="Trazado 131161" d="M742.234,262.079s-2.082-1.428-2.236-.225,1.878,1.745,2.881,1.295Z" transform="translate(-385.877 -122.2)" fill="url(#linear-gradient-53)"/>
    <path id="Trazado_131162" data-name="Trazado 131162" d="M643.238,108.675c-4.918-6.566-4.022-20.59,13.608-19.408-1.666-3.519,7.661-23.264,27.9-5.971-1.936-6,10.922-10.227,18.321-2.577,2.915-4.768,19.737.037,7.4,10.143-15.756,12.908-55.63,36.205-69.954,28.489S643.238,108.675,643.238,108.675Z" transform="translate(-324.477 -14.187)" fill="#7d6eb2" opacity="0.5"/>
    <path id="Trazado_131163" data-name="Trazado 131163" d="M516.218,213.242c-2.8-5.48-.371-15.74,12.537-12.617-.779-2.811,8.619-16.239,21.4-.874-.67-4.684,9.373-6.175,13.862.416,2.761-3.16,14.574,2.532,4.185,8.436-13.287,7.545-45.732,19.716-55.338,12.192S516.218,213.242,516.218,213.242Z" transform="translate(-251.254 -82.011)" fill="#fff" opacity="0.6"/>
    <path id="Trazado_131164" data-name="Trazado 131164" d="M297.909,379.33H296.66a.416.416,0,0,1,0-.833h1.249a.416.416,0,0,1,0,.833Zm2.915,0a.416.416,0,1,1,0-.833c.416,0,.833,0,1.249-.025h0a.416.416,0,0,1,0,.833C301.657,379.3,301.24,379.326,300.824,379.33Zm-7.079-.087h0l-1.249-.054a.417.417,0,1,1,.046-.833l1.249.054a.412.412,0,1,1-.046.82Zm11.243-.042a.417.417,0,0,1-.021-.833l1.249-.062a.417.417,0,0,1,.046.833l-1.249.067Zm-15.406-.2h-.033c-.416-.029-.833-.067-1.249-.1a.418.418,0,0,1,.075-.833l1.249.1a.411.411,0,0,1-.029.82Zm19.545-.062a.417.417,0,1,1-.033-.833l1.249-.1a.418.418,0,1,1,.071.833l-1.249.1Zm-23.684-.341h-.05l-1.249-.154a.416.416,0,0,1,.108-.824l1.249.154a.417.417,0,0,1-.046.833Zm27.827-.037a.417.417,0,1,1-.042-.833l1.249-.137a.419.419,0,0,1,.1.833l-1.249.137Zm4.135-.5a.417.417,0,0,1-.054-.833l1.249-.171a.42.42,0,1,1,.117.833l-1.249.171Zm-36.084-.029h-.067l-1.249-.2a.422.422,0,1,1,.142-.833l1.224.2a.41.41,0,0,1-.037.816Zm40.207-.579a.418.418,0,0,1-.067-.833l1.249-.2a.422.422,0,1,1,.137.833l-1.249.2Zm-44.3-.154h-.083l-1.228-.25a.425.425,0,1,1,.175-.833l1.216.25a.418.418,0,1,1-.079.833Zm48.409-.554a.418.418,0,0,1-.079-.833l1.228-.233a.423.423,0,0,1,.154.833l-1.249.233Zm-52.465-.341a.415.415,0,0,1-.1,0l-1.216-.3a.416.416,0,1,1,.2-.8l1.208.3a.419.419,0,0,1-.1.833Zm56.558-.471a.419.419,0,1,1-.087-.833c.416-.083.833-.171,1.22-.262a.426.426,0,1,1,.179.833l-1.224.262Zm-60.589-.583a.351.351,0,0,1-.112,0c-.416-.112-.8-.229-1.208-.35a.417.417,0,0,1,.237-.8l1.2.35a.42.42,0,1,1-.112.833Zm64.661-.346a.419.419,0,0,1-.1-.833l1.212-.287a.416.416,0,1,1,.2.808c-.416.1-.812.2-1.22.287A.347.347,0,0,1,333.8,375.008Zm-68.642-.9a.491.491,0,0,1-.129,0l-1.191-.416a.416.416,0,0,1,.271-.787l1.183.4a.422.422,0,1,1-.133.833Zm72.685-.1a.419.419,0,1,1-.1-.833l1.208-.312a.415.415,0,1,1,.208.8l-1.212.312a.417.417,0,0,1-.1.042Zm4.026-1.07a.42.42,0,0,1-.108-.833l1.2-.337a.418.418,0,0,1,.229.8l-1.208.337a.513.513,0,0,1-.112.042Zm-80.642-.216a.467.467,0,0,1-.146-.025l-1.187-.433a.418.418,0,1,1,.3-.779l1.162.445a.416.416,0,0,1-.146.8Zm84.648-.929a.42.42,0,1,1-.117-.833l1.2-.358a.418.418,0,0,1,.241.8l-1.2.358a.417.417,0,0,1-.121.046Zm-88.52-.6a.456.456,0,0,1-.162-.033l-1.153-.5a.417.417,0,1,1,.337-.762l1.141.491a.416.416,0,0,1-.162.8Zm92.505-.6a.416.416,0,0,1-.125-.812l1.191-.379a.417.417,0,0,1,.254.8l-1.2.375a.329.329,0,0,1-.125.021Zm-96.307-1.1a.417.417,0,0,1-.179-.042l-1.133-.545a.416.416,0,1,1,.371-.745l1.12.541a.416.416,0,0,1-.179.791Zm100.271-.179a.417.417,0,0,1-.154-.812l1.187-.391a.415.415,0,0,1,.266.787l-1.191.4a.352.352,0,0,1-.108.021Zm3.943-1.337a.422.422,0,0,1-.137-.833l1.178-.416a.417.417,0,1,1,.275.787l-1.178.416A.419.419,0,0,1,357.765,367.979Zm-107.941-.354a.387.387,0,0,1-.192-.05l-1.108-.6a.421.421,0,1,1,.416-.733c.362.2.729.416,1.1.591a.418.418,0,0,1-.212.787Zm111.863-1.045a.416.416,0,0,1-.142-.808l1.174-.416a.416.416,0,1,1,.283.779c-.387.146-.783.287-1.174.416A.329.329,0,0,1,361.688,366.58Zm-115.5-1a.393.393,0,0,1-.212-.058c-.362-.212-.72-.416-1.078-.645a.416.416,0,0,1,.416-.712c.354.217.712.416,1.07.641a.417.417,0,0,1-.2.775Zm119.4-.446a.417.417,0,0,1-.146-.808l1.166-.441a.416.416,0,0,1,.3.779l-1.17.441A.415.415,0,0,1,365.593,365.139Zm3.889-1.491a.418.418,0,0,1-.154-.808l1.162-.454a.416.416,0,1,1,.3.775l-1.162.458A.48.48,0,0,1,369.482,363.649Zm-126.832-.267a.416.416,0,0,1-.229-.071l-1.045-.7a.417.417,0,0,1,.466-.691l1.037.691a.416.416,0,0,1-.229.766Zm130.7-1.249a.416.416,0,0,1-.154-.8l1.158-.466a.418.418,0,0,1,.312.775l-1.158.462a.419.419,0,0,1-.158,0Zm-134.127-1.108a.417.417,0,0,1-.246-.079l-1.012-.75a.418.418,0,1,1,.5-.666c.329.25.662.5,1,.741a.4.4,0,0,1-.246.737Zm137.983-.462a.416.416,0,0,1-.158-.8l1.153-.475a.416.416,0,1,1,.316.766l-1.153.479a.417.417,0,0,1-.158.012Zm3.843-1.6a.415.415,0,0,1-.162-.8l1.149-.483a.416.416,0,1,1,.325.766l-1.153.483a.351.351,0,0,1-.146.017Zm-145.133-.483a.416.416,0,0,1-.262-.092c-.325-.262-.645-.529-.97-.8a.417.417,0,1,1,.537-.637c.316.266.637.529.958.791a.4.4,0,0,1-.262.72ZM384.88,357.34a.416.416,0,0,1-.162-.8l1.149-.491a.416.416,0,0,1,.329.762l-1.149.5a.46.46,0,0,1-.167.017Zm-152.128-1.566a.416.416,0,0,1-.279-.108q-.466-.416-.924-.833a.416.416,0,1,1,.566-.608l.916.833a.394.394,0,0,1-.279.7Zm155.955-.083a.417.417,0,0,1-.167-.8l1.145-.5a.416.416,0,1,1,.333.762l-1.145.5a.476.476,0,0,1-.167.017Zm3.818-1.666a.416.416,0,0,1-.167-.8l1.145-.5a.416.416,0,1,1,.333.762l-1.145.5a.459.459,0,0,1-.167.021ZM229.738,352.9a.416.416,0,0,1-.3-.125c-.3-.3-.587-.6-.879-.9a.417.417,0,1,1,.591-.587c.283.3.575.6.866.887a.416.416,0,0,1-.3.712Zm166.6-.545a.416.416,0,0,1-.167-.8l1.141-.5a.417.417,0,1,1,.337.762l-1.145.5a.459.459,0,0,1-.167.021Zm3.81-1.666a.416.416,0,0,1-.167-.8l1.141-.5a.417.417,0,0,1,.337.762l-1.141.5a.417.417,0,0,1-.171.013Zm-173.26-.812a.417.417,0,0,1-.312-.142q-.416-.466-.833-.949a.416.416,0,1,1,.633-.541c.266.316.541.629.833.937a.416.416,0,0,1-.312.7Zm177.074-.891a.418.418,0,0,1-.167-.8l1.141-.5a.417.417,0,1,1,.337.762l-1.141.5A.416.416,0,0,1,403.964,348.983Zm3.814-1.666a.416.416,0,0,1-.167-.8l1.141-.5a.417.417,0,0,1,.337.762l-1.145.5a.416.416,0,0,1-.171.025Zm-183.549-.65a.417.417,0,0,1-.329-.162c-.258-.325-.516-.658-.766-.991a.416.416,0,0,1,.662-.5c.25.329.5.658.758.983a.4.4,0,0,1-.329.662Zm187.375-1.02a.416.416,0,0,1-.167-.8l1.145-.5a.416.416,0,1,1,.333.762l-1.145.5a.416.416,0,0,1-.183.021Zm3.818-1.666a.416.416,0,0,1-.162-.8l1.145-.5a.417.417,0,1,1,.329.766l-1.145.5a.457.457,0,0,1-.183.033Zm-193.671-.67a.416.416,0,0,1-.341-.183c-.237-.341-.475-.687-.7-1.033a.416.416,0,1,1,.691-.462l.7,1.024a.417.417,0,0,1-.341.654Zm197.485-.966a.416.416,0,0,1-.162-.8l1.149-.487a.418.418,0,1,1,.325.77l-1.149.487A.455.455,0,0,1,419.237,342.346Zm3.835-1.616a.416.416,0,0,1-.158-.8l1.153-.479a.416.416,0,0,1,.316.77l-1.149.479A.455.455,0,0,1,423.072,340.731Zm-203.569-.9a.416.416,0,0,1-.354-.2c-.217-.354-.416-.716-.637-1.074a.416.416,0,0,1,.72-.416c.2.358.416.712.629,1.066a.414.414,0,0,1-.358.629Zm207.429-.683a.416.416,0,0,1-.154-.8l1.158-.471a.416.416,0,0,1,.312.77l-1.158.471a.416.416,0,0,1-.171.033Zm3.864-1.557a.416.416,0,0,1-.154-.8l1.162-.458a.416.416,0,1,1,.3.775l-1.158.458a.417.417,0,0,1-.167.029Zm90.81-.691a.417.417,0,0,1-.325-.158c-.258-.321-.521-.637-.791-.945a.418.418,0,1,1,.629-.55q.416.479.812.974a.419.419,0,0,1-.337.679Zm-304.139-.687a.416.416,0,0,1-.371-.225c-.192-.371-.383-.745-.57-1.12a.416.416,0,0,1,.745-.371c.183.371.371.737.562,1.1a.416.416,0,0,1-.366.612Zm217.205-.137a.416.416,0,0,1-.15-.808l1.166-.446a.417.417,0,0,1,.3.779l-1.166.445a.383.383,0,0,1-.162.029Zm3.893-1.474a.416.416,0,0,1-.146-.808l1.174-.416a.416.416,0,1,1,.287.779l-1.17.416a.379.379,0,0,1-.158.05Zm80.23-.774a.416.416,0,0,1-.287-.117c-.3-.283-.6-.562-.908-.833a.417.417,0,0,1,.554-.625c.316.279.625.566.933.858a.423.423,0,0,1-.3.716Zm-76.32-.654a.417.417,0,0,1-.142-.808l1.178-.416a.417.417,0,0,1,.279.787l-1.174.416a.414.414,0,0,1-.154.021Zm-226.82-.712a.416.416,0,0,1-.379-.246c-.171-.383-.337-.766-.5-1.153a.416.416,0,0,1,.766-.325c.162.383.325.762.5,1.141a.413.413,0,0,1-.4.583Zm230.751-.662a.422.422,0,1,1-.133-.833l1.182-.416a.416.416,0,1,1,.267.787l-1.183.416a.378.378,0,0,1-.146.046Zm69.212-.658a.416.416,0,0,1-.25-.079c-.329-.25-.662-.487-1-.72a.416.416,0,1,1,.471-.687c.35.242.691.487,1.028.737a.416.416,0,0,1-.25.75Zm-65.265-.658a.421.421,0,1,1-.125-.833l1.191-.383a.417.417,0,1,1,.25.8l-1.187.383a.442.442,0,0,1-.142.037Zm3.972-1.249a.421.421,0,1,1-.121-.833l1.2-.362a.416.416,0,1,1,.242.8l-1.2.362a.386.386,0,0,1-.133.033Zm57.82-.375a.442.442,0,0,1-.212-.058c-.354-.208-.712-.416-1.074-.6a.416.416,0,0,1,.4-.733c.371.2.737.416,1.1.616a.416.416,0,0,1-.208.779ZM214.09,328.6a.416.416,0,0,1-.391-.271c-.146-.391-.287-.787-.416-1.182a.417.417,0,0,1,.787-.275c.137.391.279.779.416,1.17a.416.416,0,0,1-.242.533A.466.466,0,0,1,214.09,328.6Zm244.233-.562a.42.42,0,0,1-.117-.833l1.208-.341a.417.417,0,0,1,.225.8l-1.2.337a.417.417,0,0,1-.133.033Zm50.121-1.087a.416.416,0,0,1-.171-.037c-.375-.167-.754-.333-1.133-.491a.416.416,0,0,1,.316-.766c.391.158.774.325,1.158.5a.415.415,0,0,1-.187.8Zm-46.107,0a.42.42,0,1,1-.108-.833l1.212-.321a.417.417,0,1,1,.208.808l-1.2.316a.325.325,0,0,1-.125.008Zm4.035-1.033a.419.419,0,0,1-.1-.833l1.216-.292a.417.417,0,1,1,.192.812l-1.212.291a.415.415,0,0,1-.117,0Zm38.2-.466a.357.357,0,0,1-.133-.021c-.391-.133-.783-.258-1.178-.379a.416.416,0,1,1,.246-.8q.6.183,1.2.387a.416.416,0,0,1-.133.808ZM470.428,325a.419.419,0,1,1-.087-.833l1.249-.254a.425.425,0,1,1,.167.833l-1.22.254Zm-257.674-.316a.416.416,0,0,1-.416-.3c-.121-.416-.237-.8-.354-1.2a.418.418,0,1,1,.8-.229c.112.4.229.8.35,1.191a.416.416,0,0,1-.279.521.386.386,0,0,1-.117,0Zm287.813-.375a.375.375,0,0,1-.1,0c-.416-.1-.8-.187-1.207-.271a.417.417,0,0,1,.171-.816c.416.087.833.179,1.249.279a.419.419,0,0,1-.1.833Zm-26.049-.1a.418.418,0,0,1-.071-.833l1.249-.208a.416.416,0,0,1,.133.82l-1.228.208Zm4.114-.629a.416.416,0,0,1-.058-.829c.416-.054.833-.108,1.249-.154a.419.419,0,0,1,.092.833l-1.249.15Zm17.851-.062H496.4c-.416-.062-.833-.117-1.249-.167a.419.419,0,1,1,.1-.833c.416.05.833.108,1.249.171a.417.417,0,1,1-.058.833Zm-13.712-.375a.417.417,0,0,1-.029-.833q.625-.05,1.249-.087a.417.417,0,0,1,.05.833q-.625.037-1.249.087Zm9.577-.075h-.029c-.416-.029-.833-.054-1.249-.071a.417.417,0,0,1,.021-.833q.625.031,1.249.075a.4.4,0,0,1-.012.808Zm-5.413-.129a.416.416,0,1,1,0-.833h1.249a.416.416,0,1,1,0,.833h-1.249Zm-275.271-2.269a.416.416,0,0,1-.416-.316c-.1-.416-.192-.833-.283-1.224a.426.426,0,0,1,.833-.183c.087.416.183.808.279,1.212a.416.416,0,0,1-.416.512Zm-.858-4.072a.417.417,0,0,1-.416-.341q-.112-.625-.212-1.249a.422.422,0,1,1,.833-.133q.1.612.212,1.224a.416.416,0,0,1-.337.483Zm-.629-4.114a.416.416,0,0,1-.416-.366c-.05-.416-.1-.833-.146-1.249a.419.419,0,0,1,.833-.087c.046.416.092.833.146,1.249a.417.417,0,0,1-.362.466Zm-.416-4.143a.416.416,0,0,1-.416-.387c-.029-.416-.058-.833-.079-1.249a.415.415,0,1,1,.829-.046c.025.416.05.833.079,1.249a.416.416,0,0,1-.387.441Zm-.183-4.164a.416.416,0,0,1-.416-.416V302.5a.416.416,0,0,1,.416-.416h0a.416.416,0,0,1,.416.416v1.249A.416.416,0,0,1,209.576,304.167ZM209.6,300h0a.416.416,0,0,1-.416-.416c0-.416.025-.833.046-1.249a.417.417,0,1,1,.833.021c0,.416-.037.833-.05,1.249a.416.416,0,0,1-.416.379Zm.229-4.164H209.8a.416.416,0,0,1-.383-.445c.033-.416.067-.833.108-1.249a.418.418,0,0,1,.833.075c-.037.416-.075.833-.108,1.249a.416.416,0,0,1-.421.362Zm.416-4.164h-.05a.416.416,0,0,1-.362-.462c.054-.416.108-.833.167-1.249a.42.42,0,0,1,.833.117c-.058.416-.112.833-.167,1.249a.416.416,0,0,1-.416.358Zm.62-4.114H210.8a.416.416,0,0,1-.337-.483c.071-.416.146-.833.221-1.249a.417.417,0,1,1,.82.154c-.075.416-.15.833-.221,1.224a.416.416,0,0,1-.408.358Zm.808-4.085h-.087a.416.416,0,0,1-.321-.5c.092-.416.183-.833.283-1.224a.416.416,0,1,1,.808.191q-.142.608-.275,1.212a.416.416,0,0,1-.4.329Zm.991-4.047a.472.472,0,0,1-.108,0,.416.416,0,0,1-.3-.512c.108-.416.221-.808.337-1.208a.416.416,0,1,1,.8.225c-.112.416-.225.8-.329,1.2a.416.416,0,0,1-.4.308Zm1.17-3.993a.466.466,0,0,1-.129,0,.416.416,0,0,1-.271-.525c.129-.4.254-.8.387-1.191a.416.416,0,1,1,.791.258c-.129.4-.258.791-.383,1.187a.416.416,0,0,1-.391.283Zm1.341-3.943a.417.417,0,0,1-.391-.558c.146-.4.291-.787.441-1.178a.416.416,0,1,1,.779.3c-.15.387-.3.779-.437,1.166a.417.417,0,0,1-.387.287Zm1.516-3.881a.414.414,0,0,1-.383-.575c.129-.308.258-.62.391-.929l.1-.229a.416.416,0,0,1,.762.333l-.1.225c-.133.3-.262.612-.391.92a.416.416,0,0,1-.379.267Zm1.686-3.806a.446.446,0,0,1-.179-.037.416.416,0,0,1-.2-.554c.179-.379.358-.758.541-1.133a.416.416,0,0,1,.749.362q-.275.562-.537,1.124a.416.416,0,0,1-.371.262Zm1.861-3.723a.416.416,0,0,1-.366-.612c.2-.371.4-.737.6-1.1a.42.42,0,1,1,.729.416c-.2.362-.416.725-.6,1.091a.416.416,0,0,1-.362.208Zm2.082-3.618a.414.414,0,0,1-.354-.633c.217-.358.437-.712.666-1.066a.416.416,0,1,1,.7.45c-.221.346-.441.7-.658,1.049a.416.416,0,0,1-.366.212Zm2.286-3.477a.419.419,0,0,1-.341-.658c.246-.341.491-.683.741-1.02a.416.416,0,1,1,.666.5c-.246.333-.487.666-.725,1a.416.416,0,0,1-.354.2Zm2.515-3.314a.392.392,0,0,1-.262-.1A.416.416,0,0,1,226.8,249c.271-.325.541-.645.833-.962a.416.416,0,0,1,.629.545c-.271.312-.537.629-.8.945A.416.416,0,0,1,227.123,249.675Zm2.79-3.09a.414.414,0,0,1-.291-.708q.446-.45.9-.887a.416.416,0,1,1,.575.6c-.3.287-.587.575-.879.87a.416.416,0,0,1-.3.142Zm3.052-2.827a.418.418,0,0,1-.271-.737c.3-.25.6-.5.908-.741l.071-.054a.416.416,0,0,1,.516.65l-.067.054-.879.745a.416.416,0,0,1-.279.1Zm3.331-2.5a.416.416,0,0,1-.233-.762c.35-.237.7-.466,1.058-.687a.416.416,0,1,1,.441.7c-.35.221-.7.441-1.037.675a.416.416,0,0,1-.237.079Zm3.577-2.128a.416.416,0,0,1-.191-.783c.375-.2.749-.383,1.128-.566a.417.417,0,1,1,.358.754c-.371.175-.737.358-1.1.55a.416.416,0,0,1-.2.054Zm3.793-1.707a.416.416,0,0,1-.146-.8c.4-.15.791-.3,1.187-.416a.416.416,0,0,1,.271.787c-.391.133-.779.275-1.162.416a.471.471,0,0,1-.162.025Zm3.972-1.249a.419.419,0,0,1-.112-.824q.62-.15,1.249-.275a.414.414,0,1,1,.167.812c-.416.083-.8.175-1.2.275Zm13.608-.133h-.1c-.4-.1-.8-.187-1.2-.267a.424.424,0,0,1,.158-.833c.416.079.833.175,1.249.275a.419.419,0,0,1-.1.833Zm-9.51-.6a.417.417,0,0,1-.046-.833c.416-.046.833-.083,1.249-.108a.415.415,0,1,1,.058.829c-.416.029-.833.062-1.228.108Zm5.413-.079h-.033q-.625-.05-1.249-.075a.417.417,0,0,1,.029-.833c.416,0,.833.042,1.249.075a.426.426,0,0,1-.013.849Z" transform="translate(-76.079 -106.493)" fill="#faf3fe"/>
    <path id="Trazado_131165" data-name="Trazado 131165" d="M331.832,311.1h0c-.416,0-.833,0-1.249-.025a.416.416,0,1,1,0-.833c.416,0,.833,0,1.249.025a.416.416,0,0,1,0,.833Zm2.915-.033a.416.416,0,0,1,0-.833c.416,0,.833-.029,1.249-.054a.417.417,0,1,1,.021.833c-.416.021-.833.042-1.249.054Zm-7.079-.154h-.033q-.625-.05-1.249-.112a.418.418,0,1,1,.083-.833l1.249.112a.417.417,0,0,1-.046.833Zm11.243-.117a.417.417,0,0,1-.042-.833c.416-.037.833-.083,1.249-.129a.419.419,0,1,1,.1.833c-.416.05-.833.1-1.249.133Zm-15.361-.358h-.062q-.625-.094-1.249-.2a.422.422,0,0,1,.142-.833c.416.071.833.137,1.224.2a.421.421,0,0,1-.067.837Zm19.491-.171a.418.418,0,1,1-.067-.833c.416-.067.833-.133,1.224-.208a.417.417,0,0,1,.146.82c-.416.075-.833.146-1.249.208Zm-23.58-.6a.381.381,0,0,1-.1,0c-.416-.092-.833-.191-1.224-.291a.417.417,0,0,1,.2-.808c.416.1.8.2,1.208.287a.419.419,0,0,1-.092.833Zm27.669-.179a.419.419,0,0,1-.092-.833l1.212-.279a.418.418,0,1,1,.2.812l-1.228.279a.314.314,0,0,1-.1.021Zm-31.691-.9a.412.412,0,0,1-.125,0c-.416-.125-.8-.258-1.2-.391a.416.416,0,1,1,.266-.787l1.178.383a.416.416,0,0,1-.125.812Zm35.73-.108a.416.416,0,0,1-.125-.816c.4-.112.8-.229,1.191-.35a.418.418,0,1,1,.241.8c-.416.121-.8.237-1.208.35a.349.349,0,0,1-.112.017Zm3.972-1.249a.416.416,0,0,1-.137-.812c.391-.133.783-.275,1.17-.416a.417.417,0,1,1,.287.783c-.4.146-.787.283-1.183.416a.416.416,0,0,1-.15.033Zm-43.629-.038a.417.417,0,0,1-.154-.033c-.391-.154-.779-.316-1.162-.483a.417.417,0,0,1,.329-.766c.379.162.762.325,1.145.479a.417.417,0,0,1-.158.8Zm47.51-1.416a.418.418,0,0,1-.158-.8c.362-.146.725-.3,1.087-.454l.058-.025a.416.416,0,0,1,.333.762l-.062.025q-.545.237-1.1.462A.351.351,0,0,1,359.023,305.775Zm-51.307-.287a.417.417,0,0,1-.187-.046c-.375-.187-.75-.383-1.12-.583a.416.416,0,0,1,.4-.733q.545.3,1.1.575a.416.416,0,0,1-.187.787Zm55.113-1.4a.416.416,0,0,1-.179-.791l1.12-.541a.416.416,0,0,1,.371.745c-.375.187-.754.371-1.133.55a.446.446,0,0,1-.179.021Zm-58.748-.633a.416.416,0,0,1-.217-.062q-.537-.333-1.062-.675a.416.416,0,1,1,.454-.7c.346.225.7.445,1.045.662a.4.4,0,0,1-.221.754Zm62.458-1.249a.416.416,0,0,1-.2-.783l1.091-.6a.42.42,0,0,1,.416.729c-.366.2-.733.416-1.1.6a.416.416,0,0,1-.2.037Zm-65.91-1.083a.417.417,0,0,1-.25-.083c-.337-.246-.67-.5-1-.758a.416.416,0,1,1,.508-.658c.329.254.658.5.991.745a.408.408,0,0,1-.237.741Zm69.537-.97a.418.418,0,0,1-.217-.775c.358-.212.712-.416,1.062-.645a.417.417,0,1,1,.441.708l-1.074.654a.442.442,0,0,1-.208.046Zm-72.789-1.624a.416.416,0,0,1-.271-.1c-.316-.271-.633-.55-.945-.833a.417.417,0,1,1,.558-.62c.308.275.616.55.929.833a.416.416,0,0,1-.271.733Zm76.312-.6a.416.416,0,0,1-.229-.762c.346-.229.691-.458,1.033-.691a.415.415,0,1,1,.466.687c-.346.237-.691.471-1.041.7a.416.416,0,0,1-.225.054Zm-79.364-2.236a.416.416,0,0,1-.3-.121c-.3-.3-.591-.591-.883-.9a.417.417,0,1,1,.6-.579c.287.3.579.591.87.883a.4.4,0,0,1-.287.7Zm82.791-.125a.418.418,0,0,1-.246-.758c.337-.242.67-.483,1-.733a.417.417,0,1,1,.5.67c-.333.25-.675.5-1.012.741a.437.437,0,0,1-.237.067Zm3.331-2.5a.416.416,0,0,1-.258-.745c.329-.254.654-.512.979-.77a.416.416,0,0,1,.52.65c-.329.262-.654.521-.987.779a.416.416,0,0,1-.254.071Zm-88.974-.416a.416.416,0,0,1-.312-.137c-.279-.316-.554-.633-.833-.954a.417.417,0,0,1,.637-.537q.416.475.812.937a.412.412,0,0,1-.3.687Zm92.205-2.219a.418.418,0,0,1-.271-.737c.321-.266.633-.533.949-.8a.416.416,0,1,1,.541.629c-.316.275-.633.545-.953.833a.417.417,0,0,1-.267.075Zm-94.866-.983a.416.416,0,0,1-.329-.158c-.258-.329-.512-.662-.766-1a.418.418,0,1,1,.666-.5l.758.987a.409.409,0,0,1-.329.666Zm98.006-1.753a.416.416,0,0,1-.279-.724l.92-.833a.416.416,0,1,1,.562.612l-.924.833a.416.416,0,0,1-.279.108Zm-100.479-1.595a.416.416,0,0,1-.341-.179q-.362-.512-.712-1.037a.416.416,0,0,1,.687-.466c.233.346.471.687.708,1.024a.413.413,0,0,1-.341.654Zm103.523-1.249a.423.423,0,0,1-.3-.716c.3-.287.6-.575.9-.866a.417.417,0,1,1,.583.6l-.9.87a.417.417,0,0,1-.279.121Zm-105.83-2.228a.417.417,0,0,1-.354-.2l-.662-1.066a.418.418,0,0,1,.712-.437c.216.358.416.708.654,1.062a.413.413,0,0,1-.35.637Zm108.786-.7a.413.413,0,0,1-.292-.708c.292-.3.583-.591.87-.891a.417.417,0,0,1,.6.579l-.874.9a.416.416,0,0,1-.3.125Zm-110.922-2.881a.416.416,0,0,1-.362-.212l-.612-1.1a.416.416,0,1,1,.729-.4l.608,1.087a.414.414,0,0,1-.354.62Zm113.8-.125a.406.406,0,0,1-.283-.7c.283-.3.566-.608.833-.916a.423.423,0,1,1,.629.566c-.283.308-.566.616-.854.92a.416.416,0,0,1-.316.129Zm2.8-3.081a.416.416,0,0,1-.312-.691q.416-.466.833-.937a.418.418,0,1,1,.629.55l-.833.937a.416.416,0,0,1-.308.142Zm-118.571-.466a.417.417,0,0,1-.371-.225c-.191-.371-.379-.745-.566-1.12a.416.416,0,1,1,.741-.371c.187.371.375.741.566,1.108a.416.416,0,0,1-.179.562A.461.461,0,0,1,279.925,275.379Zm121.311-2.69a.415.415,0,0,1-.321-.683l.8-.958a.418.418,0,0,1,.641.537c-.271.321-.537.641-.808.958a.416.416,0,0,1-.316.154Zm-123.147-1.045a.416.416,0,0,1-.379-.242l-.525-1.137a.416.416,0,1,1,.758-.346c.171.379.346.754.521,1.128a.416.416,0,0,1-.2.554.382.382,0,0,1-.175.05Zm125.8-2.157a.417.417,0,0,1-.321-.679c.262-.325.525-.645.783-.97a.416.416,0,0,1,.65.52l-.787.974a.416.416,0,0,1-.325.162Zm-127.507-1.641a.416.416,0,0,1-.383-.254c-.167-.383-.329-.77-.487-1.153a.416.416,0,1,1,.766-.321l.487,1.145a.416.416,0,0,1-.221.55.453.453,0,0,1-.162.042ZM406.5,266.231a.414.414,0,0,1-.329-.67l.766-.983a.416.416,0,1,1,.658.508l-.77.987a.416.416,0,0,1-.325.167Zm-131.683-2.24a.416.416,0,0,1-.387-.266c-.15-.391-.3-.783-.446-1.174a.416.416,0,1,1,.779-.292c.146.391.3.779.441,1.166a.416.416,0,0,1-.237.537.384.384,0,0,1-.15.038Zm134.227-1.053a.416.416,0,0,1-.333-.666l.758-1a.416.416,0,1,1,.662.5l-.754,1a.416.416,0,0,1-.333.171Zm-135.647-2.861a.416.416,0,0,1-.4-.283c-.133-.4-.267-.8-.4-1.191a.416.416,0,0,1,.791-.258c.129.4.258.787.391,1.183a.446.446,0,0,1-.391.558Zm138.15-.466a.418.418,0,0,1-.337-.666l.745-1a.416.416,0,1,1,.666.5l-.754,1.012a.416.416,0,0,1-.321.171ZM414,256.254a.422.422,0,0,1-.337-.662l.733-1.012a.416.416,0,1,1,.675.487l-.712,1.02a.416.416,0,0,1-.358.175Zm-141.86-.15a.416.416,0,0,1-.416-.3q-.175-.6-.337-1.212a.416.416,0,1,1,.8-.217c.108.416.221.8.333,1.2a.416.416,0,0,1-.283.516.374.374,0,0,1-.1.025Zm144.3-3.21a.419.419,0,0,1-.341-.658l.729-1.016a.416.416,0,1,1,.675.483l-.725,1.016A.416.416,0,0,1,416.443,252.894Zm-145.32-.8a.416.416,0,0,1-.416-.325c-.092-.416-.183-.833-.271-1.224a.425.425,0,1,1,.833-.175c.083.416.175.812.267,1.216a.416.416,0,0,1-.312.5.379.379,0,0,1-.125,0ZM418.874,249.5a.416.416,0,0,1-.337-.658l.72-1.02a.417.417,0,0,1,.679.483l-.72,1.02a.416.416,0,0,1-.366.162ZM270.29,248a.416.416,0,0,1-.416-.35c-.071-.416-.137-.833-.2-1.249a.421.421,0,0,1,.833-.121c.058.416.125.833.192,1.224a.416.416,0,0,1-.341.479Zm150.962-1.915a.387.387,0,0,1-.237-.079.416.416,0,0,1-.1-.579l.72-1.02a.417.417,0,1,1,.683.479l-.72,1.02a.416.416,0,0,1-.346.179ZM269.74,243.875a.416.416,0,0,1-.416-.379q-.062-.625-.112-1.249a.418.418,0,1,1,.833-.062c.029.416.067.833.108,1.249a.416.416,0,0,1-.375.454Zm153.906-1.2a.383.383,0,0,1-.237-.075.416.416,0,0,1-.1-.579l.72-1.02a.416.416,0,1,1,.679.479l-.72,1a.416.416,0,0,1-.341.192Zm-154.16-2.956a.416.416,0,0,1-.416-.416v-1.249a.416.416,0,0,1,.416-.416h0a.416.416,0,0,1,.416.416V239.3A.416.416,0,0,1,269.486,239.719Zm156.562-.446a.419.419,0,0,1-.341-.658l.72-1.02a.417.417,0,0,1,.683.479l-.725,1.02a.416.416,0,0,1-.346.179Zm2.407-3.4a.417.417,0,0,1-.337-.658l.725-1.016a.417.417,0,0,1,.679.483L428.8,235.7a.416.416,0,0,1-.35.175Zm-158.9-.321h0a.416.416,0,0,1-.416-.437c.025-.416.054-.833.092-1.249a.418.418,0,1,1,.833.067q-.05.62-.087,1.249a.416.416,0,0,1-.429.371Zm161.322-3.065a.417.417,0,0,1-.337-.658l.733-1.012a.416.416,0,0,1,.675.487l-.733,1.012A.416.416,0,0,1,430.875,232.491Zm-160.9-1.074h-.062a.416.416,0,0,1-.35-.471c.062-.416.129-.833.2-1.249a.423.423,0,0,1,.833.146c-.071.416-.137.812-.2,1.22A.416.416,0,0,1,269.974,231.416Zm163.358-2.286a.418.418,0,0,1-.337-.666l.745-1a.417.417,0,0,1,.67.5l-.745,1a.416.416,0,0,1-.333.171Zm-162.55-1.8a.377.377,0,0,1-.4-.5c.1-.416.208-.833.321-1.22a.417.417,0,1,1,.8.221c-.112.416-.217.8-.316,1.2a.416.416,0,0,1-.4.3Zm165.04-1.541a.416.416,0,0,1-.333-.666c.25-.333.5-.666.758-1a.416.416,0,0,1,.662.5c-.254.329-.5.662-.754,1a.417.417,0,0,1-.333.162ZM271.956,223.33a.418.418,0,0,1-.391-.558c.137-.4.283-.791.416-1.183a.417.417,0,0,1,.779.3c-.15.387-.291.77-.416,1.162A.416.416,0,0,1,271.956,223.33Zm166.381-.833a.416.416,0,0,1-.329-.67l.774-.987a.417.417,0,1,1,.654.516l-.77.979a.416.416,0,0,1-.312.162Zm-164.807-3a.383.383,0,0,1-.175-.042.416.416,0,0,1-.2-.554c.179-.379.362-.758.554-1.133a.416.416,0,1,1,.741.379c-.187.366-.366.737-.541,1.108a.416.416,0,0,1-.362.233Zm167.389-.267a.416.416,0,0,1-.325-.675l.791-.974a.417.417,0,1,1,.645.529l-.787.966a.416.416,0,0,1-.3.146Zm2.644-3.215a.415.415,0,0,1-.316-.683c.266-.321.537-.637.808-.958a.416.416,0,0,1,.633.541l-.762.941a.416.416,0,0,1-.341.15Zm-168.046-.183a.417.417,0,0,1-.354-.633c.216-.362.441-.716.675-1.07a.417.417,0,1,1,.7.454c-.225.346-.445.691-.662,1.045A.416.416,0,0,1,275.516,215.835Zm170.778-2.977a.416.416,0,0,1-.312-.691c.275-.316.55-.629.833-.941a.416.416,0,0,1,.62.554l-.833.937a.416.416,0,0,1-.308.133Zm-168.409-.446a.416.416,0,0,1-.329-.675c.258-.329.525-.658.8-.979a.416.416,0,1,1,.633.537c-.262.312-.525.633-.779.958a.416.416,0,0,1-.325.15Zm171.19-2.657a.414.414,0,0,1-.308-.7l.833-.92a.417.417,0,0,1,.612.566l-.833.916a.417.417,0,0,1-.3.125ZM280.65,209.3a.416.416,0,0,1-.3-.716c.3-.3.608-.587.92-.87a.416.416,0,1,1,.558.616c-.3.275-.6.558-.891.833A.416.416,0,0,1,280.65,209.3Zm171.282-2.582a.41.41,0,0,1-.291-.7l.874-.9a.418.418,0,1,1,.6.587c-.291.3-.583.591-.87.891a.416.416,0,0,1-.308.125Zm-168.138-.142a.416.416,0,0,1-.25-.749c.337-.254.679-.5,1.028-.741a.416.416,0,0,1,.475.683c-.341.233-.675.475-1,.725A.417.417,0,0,1,283.794,206.575Zm171.074-2.815a.419.419,0,0,1-.3-.712l.9-.874a.417.417,0,1,1,.587.591c-.3.287-.6.575-.9.866A.417.417,0,0,1,454.867,203.76Zm3.023-2.861a.418.418,0,0,1-.279-.725l.924-.833a.417.417,0,1,1,.558.62l-.92.833a.416.416,0,0,1-.283.108ZM461,198.13a.416.416,0,0,1-.271-.729c.316-.275.637-.545.958-.833a.415.415,0,0,1,.533.637l-.949.8a.417.417,0,0,1-.279.125Zm3.21-2.652a.416.416,0,0,1-.262-.745l.983-.774a.418.418,0,1,1,.516.658c-.329.254-.654.512-.978.77a.445.445,0,0,1-.258.1Zm3.3-2.536a.416.416,0,0,1-.246-.754l1.012-.737a.418.418,0,0,1,.487.679c-.337.242-.675.483-1.008.729a.392.392,0,0,1-.246.075Zm3.4-2.4a.416.416,0,0,1-.233-.762l1.045-.7a.416.416,0,0,1,.458.7l-1.037.687a.417.417,0,0,1-.233.079Zm3.5-2.257a.416.416,0,0,1-.217-.77l1.074-.65a.416.416,0,1,1,.416.716c-.354.212-.712.416-1.062.641a.417.417,0,0,1-.212.067Zm3.6-2.082a.414.414,0,0,1-.2-.779c.266-.15.537-.3.808-.441l.3-.158a.416.416,0,0,1,.391.733l-.292.158c-.271.142-.537.287-.8.416a.417.417,0,0,1-.2.062Zm3.693-1.92a.416.416,0,0,1-.183-.791c.375-.183.754-.366,1.133-.541a.416.416,0,1,1,.354.754c-.375.175-.75.354-1.12.537a.471.471,0,0,1-.183.033Zm3.789-1.724a.416.416,0,0,1-.158-.8c.383-.162.774-.321,1.162-.475a.417.417,0,1,1,.308.774c-.383.15-.766.308-1.149.471a.447.447,0,0,1-.162.021Zm3.889-1.491a.422.422,0,1,1-.137-.833c.4-.137.8-.271,1.191-.416a.416.416,0,0,1,.258.791c-.391.129-.783.258-1.174.416a.418.418,0,0,1-.137.033Zm3.977-1.249a.42.42,0,0,1-.112-.833c.416-.112.812-.217,1.22-.321a.428.428,0,0,1,.2.833q-.6.15-1.2.312Zm4.056-.941a.418.418,0,0,1-.079-.833c.416-.079.833-.154,1.249-.221a.416.416,0,1,1,.133.82c-.416.067-.833.142-1.22.217Zm4.114-.612a.417.417,0,0,1-.042-.833c.416-.046.833-.083,1.249-.117a.418.418,0,1,1,.062.833q-.625.044-1.249.112Zm4.164-.246a.416.416,0,1,1,0-.833h.575a.416.416,0,0,1,0,.833h-.587Z" transform="translate(-111.043 -73.07)" fill="#faf3fe"/>
  </g>
</svg>
