<svg xmlns="http://www.w3.org/2000/svg" xmlns:xlink="http://www.w3.org/1999/xlink" width="445.607" height="305.458" viewBox="0 0 445.607 305.458">
  <defs>
    <linearGradient id="linear-gradient" y1="0.5" x2="1" y2="0.5" gradientUnits="objectBoundingBox">
      <stop offset="0" stop-color="#dae3fe"/>
      <stop offset="1" stop-color="#e9effd"/>
    </linearGradient>
    <linearGradient id="linear-gradient-2" x1="0.502" y1="1.031" x2="0.418" y2="-0.182" gradientUnits="objectBoundingBox">
      <stop offset="0" stop-color="#09005d"/>
      <stop offset="1" stop-color="#1a0f91"/>
    </linearGradient>
    <linearGradient id="linear-gradient-3" x1="0.512" y1="-0.177" x2="0.488" y2="1.735" xlink:href="#linear-gradient-2"/>
    <linearGradient id="linear-gradient-4" x1="0.149" y1="0.919" x2="0.807" y2="0.13" gradientUnits="objectBoundingBox">
      <stop offset="0" stop-color="#020039"/>
      <stop offset="1" stop-color="#090056"/>
    </linearGradient>
    <linearGradient id="linear-gradient-5" y1="0.5" x2="1" y2="0.5" gradientUnits="objectBoundingBox">
      <stop offset="0" stop-color="#e38ddd"/>
      <stop offset="1" stop-color="#9571f6"/>
    </linearGradient>
    <linearGradient id="linear-gradient-6" x1="0" y1="0.497" x2="1" y2="0.497" xlink:href="#linear-gradient"/>
    <linearGradient id="linear-gradient-7" x1="0.001" y1="0.5" x2="1" y2="0.5" xlink:href="#linear-gradient"/>
    <linearGradient id="linear-gradient-8" x1="0" y1="0.501" x2="1.009" y2="0.501" xlink:href="#linear-gradient"/>
    <linearGradient id="linear-gradient-9" x1="0" y1="0.5" x2="1" y2="0.5" xlink:href="#linear-gradient"/>
    <linearGradient id="linear-gradient-10" x1="0" y1="0.5" x2="1" y2="0.5" xlink:href="#linear-gradient"/>
    <clipPath id="clip-path">
      <path id="Trazado_131206" data-name="Trazado 131206" d="M1647.462,671.684c-1.693-1.722-5.4-8.367-8.543-25.549-3.055-16.607-4.739-38.143-4.739-60.646s1.684-44.042,4.739-60.649c3.163-17.182,6.854-23.83,8.543-25.549,1.693,1.722,5.4,8.367,8.543,25.549,3.057,16.607,27.179,38.143,27.179,60.649s-24.122,44.04-27.179,60.646C1652.846,663.317,1649.155,669.962,1647.462,671.684Z" transform="translate(-1634.18 -499.29)" fill="none"/>
    </clipPath>
    <linearGradient id="linear-gradient-12" x1="0" y1="0.5" x2="1" y2="0.5" xlink:href="#linear-gradient"/>
    <linearGradient id="linear-gradient-14" x1="0" y1="0.498" x2="1.004" y2="0.498" xlink:href="#linear-gradient"/>
    <linearGradient id="linear-gradient-15" x1="0" y1="0.5" x2="1" y2="0.5" xlink:href="#linear-gradient"/>
    <linearGradient id="linear-gradient-16" x1="0" y1="0.5" x2="1" y2="0.5" xlink:href="#linear-gradient"/>
    <linearGradient id="linear-gradient-17" x1="-0.001" y1="0.5" x2="1" y2="0.5" xlink:href="#linear-gradient"/>
    <linearGradient id="linear-gradient-18" x1="0.531" y1="0.127" x2="0.328" y2="1.541" xlink:href="#linear-gradient-2"/>
    <linearGradient id="linear-gradient-19" x1="0.457" y1="1.874" x2="-0.174" y2="23.621" gradientUnits="objectBoundingBox">
      <stop offset="0" stop-color="#4042e2"/>
      <stop offset="1" stop-color="#4f52ff"/>
    </linearGradient>
    <linearGradient id="linear-gradient-20" x1="0.416" y1="2.736" x2="-0.105" y2="17.473" xlink:href="#linear-gradient-19"/>
    <linearGradient id="linear-gradient-21" x1="0.38" y1="3.812" x2="-0.132" y2="18.525" xlink:href="#linear-gradient-19"/>
    <linearGradient id="linear-gradient-22" x1="0.332" y1="5.001" x2="-0.21" y2="19.839" xlink:href="#linear-gradient-19"/>
    <linearGradient id="linear-gradient-23" x1="1.707" y1="-5.587" x2="0.718" y2="-0.544" gradientUnits="objectBoundingBox">
      <stop offset="0" stop-color="#ff928e"/>
      <stop offset="1" stop-color="#feb3b1"/>
    </linearGradient>
    <linearGradient id="linear-gradient-24" x1="-2.411" y1="-12.458" x2="-0.853" y2="-5.529" xlink:href="#linear-gradient-23"/>
    <linearGradient id="linear-gradient-25" x1="-1.727" y1="-1.539" x2="-0.277" y2="-0.106" xlink:href="#linear-gradient-23"/>
    <linearGradient id="linear-gradient-26" x1="0" y1="0.5" x2="1" y2="0.5" xlink:href="#linear-gradient-2"/>
    <linearGradient id="linear-gradient-27" x1="0" y1="0.5" x2="1" y2="0.5" xlink:href="#linear-gradient-2"/>
    <linearGradient id="linear-gradient-28" x1="0" y1="0.5" x2="1" y2="0.5" xlink:href="#linear-gradient-2"/>
    <linearGradient id="linear-gradient-29" x1="-0.171" y1="0.637" x2="-1.408" y2="0.863" gradientUnits="objectBoundingBox">
      <stop offset="0" stop-color="#ff928e"/>
      <stop offset="0.75" stop-color="#feaba8"/>
      <stop offset="1" stop-color="#feb3b1"/>
    </linearGradient>
    <linearGradient id="linear-gradient-30" x1="0.465" y1="0.585" x2="0.746" y2="0.324" xlink:href="#linear-gradient-29"/>
    <linearGradient id="linear-gradient-31" x1="0.496" y1="0.512" x2="-0.022" y2="2.906" gradientUnits="objectBoundingBox">
      <stop offset="0" stop-color="#ff928e"/>
      <stop offset="0.53" stop-color="#feaba8"/>
      <stop offset="1" stop-color="#feb3b1"/>
    </linearGradient>
    <linearGradient id="linear-gradient-32" x1="0.836" y1="0.115" x2="0.401" y2="0.724" xlink:href="#linear-gradient-29"/>
    <linearGradient id="linear-gradient-33" x1="2.268" y1="-1.65" x2="0.688" y2="0.311" xlink:href="#linear-gradient-29"/>
    <linearGradient id="linear-gradient-34" x1="0.37" y1="-2.986" x2="0.463" y2="-0.383" gradientUnits="objectBoundingBox">
      <stop offset="0" stop-color="#ff928e"/>
      <stop offset="0.32" stop-color="#ff9d99"/>
      <stop offset="0.75" stop-color="#feaba8"/>
      <stop offset="1" stop-color="#feb3b1"/>
    </linearGradient>
    <linearGradient id="linear-gradient-35" x1="25.748" y1="25.177" x2="25.008" y2="27.614" xlink:href="#linear-gradient-4"/>
    <linearGradient id="linear-gradient-36" x1="18.951" y1="0.134" x2="18.551" y2="0.8" xlink:href="#linear-gradient-4"/>
    <linearGradient id="linear-gradient-37" x1="-0.001" y1="0.5" x2="1.004" y2="0.5" xlink:href="#linear-gradient"/>
    <linearGradient id="linear-gradient-38" x1="0" y1="0.5" x2="1.005" y2="0.5" xlink:href="#linear-gradient"/>
    <linearGradient id="linear-gradient-39" x1="0" y1="0.5" x2="1" y2="0.5" xlink:href="#linear-gradient"/>
    <linearGradient id="linear-gradient-43" x1="-90.905" y1="-16.411" x2="-89.899" y2="-16.411" xlink:href="#linear-gradient-19"/>
    <linearGradient id="linear-gradient-44" x1="-93.623" y1="-8.559" x2="-92.616" y2="-8.559" xlink:href="#linear-gradient-2"/>
    <linearGradient id="linear-gradient-45" x1="-326.281" y1="-9.658" x2="-325.271" y2="-9.658" xlink:href="#linear-gradient-29"/>
    <linearGradient id="linear-gradient-46" x1="-244.611" y1="-35.769" x2="-243.623" y2="-35.769" xlink:href="#linear-gradient-19"/>
    <linearGradient id="linear-gradient-47" x1="-189.988" y1="-5.342" x2="-188.86" y2="-5.342" xlink:href="#linear-gradient-2"/>
    <linearGradient id="linear-gradient-48" x1="-314.545" y1="-10.051" x2="-313.423" y2="-10.051" xlink:href="#linear-gradient-29"/>
    <linearGradient id="linear-gradient-49" x1="-41.726" y1="-0.707" x2="-43.452" y2="0.609" xlink:href="#linear-gradient-19"/>
    <linearGradient id="linear-gradient-50" x1="-44.401" y1="-1.268" x2="-48.298" y2="0.877" xlink:href="#linear-gradient-19"/>
    <linearGradient id="linear-gradient-51" x1="-230.962" y1="-3.81" x2="-230.556" y2="-4.524" gradientUnits="objectBoundingBox">
      <stop offset="0" stop-color="#53d8ff"/>
      <stop offset="1" stop-color="#3840f7"/>
    </linearGradient>
    <linearGradient id="linear-gradient-52" x1="-147.595" y1="-3.779" x2="-149.507" y2="-2.721" xlink:href="#linear-gradient-29"/>
    <linearGradient id="linear-gradient-53" x1="-105.067" y1="-2.457" x2="-114.008" y2="0.98" xlink:href="#linear-gradient-19"/>
    <linearGradient id="linear-gradient-54" x1="-115.238" y1="-2.466" x2="-125.432" y2="1.923" xlink:href="#linear-gradient-19"/>
    <linearGradient id="linear-gradient-55" x1="-96.9" y1="-5.642" x2="-95.849" y2="-5.642" xlink:href="#linear-gradient-29"/>
    <linearGradient id="linear-gradient-56" x1="0.385" y1="0.277" x2="0.764" y2="1.37" xlink:href="#linear-gradient-29"/>
    <linearGradient id="linear-gradient-57" x1="0.003" y1="0.619" x2="0.926" y2="0.377" xlink:href="#linear-gradient-29"/>
    <linearGradient id="linear-gradient-58" x1="-96.269" y1="10.228" x2="-95.21" y2="10.228" gradientUnits="objectBoundingBox">
      <stop offset="0" stop-color="#2b3582"/>
      <stop offset="1" stop-color="#150e42"/>
    </linearGradient>
    <linearGradient id="linear-gradient-59" x1="-442.894" y1="47.182" x2="-439.67" y2="44.782" xlink:href="#linear-gradient-29"/>
    <linearGradient id="linear-gradient-60" x1="-263.182" y1="-8.91" x2="-262.147" y2="-8.91" gradientUnits="objectBoundingBox">
      <stop offset="0" stop-color="#f9b776"/>
      <stop offset="1" stop-color="#f47960"/>
    </linearGradient>
    <linearGradient id="linear-gradient-61" x1="-7.738" y1="-0.625" x2="-9.142" y2="1.001" xlink:href="#linear-gradient-2"/>
    <linearGradient id="linear-gradient-62" x1="-53.837" y1="-0.848" x2="-52.501" y2="-2.441" xlink:href="#linear-gradient-4"/>
    <linearGradient id="linear-gradient-63" x1="-9.185" y1="-0.947" x2="-9.892" y2="0.42" gradientUnits="objectBoundingBox">
      <stop offset="0" stop-color="#fe7062"/>
      <stop offset="1" stop-color="#ff928e"/>
    </linearGradient>
    <linearGradient id="linear-gradient-64" x1="-9.139" y1="-0.941" x2="-9.846" y2="0.426" xlink:href="#linear-gradient-63"/>
    <linearGradient id="linear-gradient-65" x1="-128.183" y1="-16.923" x2="-129.863" y2="-12.504" xlink:href="#linear-gradient-29"/>
  </defs>
  <g id="Illustration" transform="translate(-191.382 -127.455)">
    <path id="Trazado_131166" data-name="Trazado 131166" d="M262.073,471.577s-38.27-5.447-56.435-1.194-63.177-18.825-48.259-55.056,33.818-45.132,14.3-64.945S144.02,279.3,164.148,258.1s26.174.614,42.2-7.194-4.333-48.538,40.951-60.049,80.469,23.27,101.058,19.334,52.247-28.009,74.465-26.995,19.462,36.464,48.945,34.4,52.628-5.638,71.727,24.54S558,310.58,539.8,325.708s-14.658,35.466,18.917,36.644,29.793,43.357,2.4,74.5-50.9,31.491-78.267,33.532S262.073,471.577,262.073,471.577Z" transform="translate(54.211 -55.706)" fill="url(#linear-gradient)"/>
    <path id="Trazado_131168" data-name="Trazado 131168" d="M303.358,1228.586a37.684,37.684,0,0,0,2.61,5.575c.481.9,1.03,1.771,1.562,2.644s1.147,1.7,1.7,2.552a64.261,64.261,0,0,0,8,9.244l1.093,1.068c.366.351.762.674,1.142,1.014.771.674,1.524,1.349,2.309,2l2.417,1.868c.789.645,1.634,1.214,2.473,1.8s1.668,1.167,2.52,1.727l2.617,1.574c1.72,1.077,3.55,2.046,5.332,3.062q5.4,2.974,10.89,5.8c3.658,1.884,7.344,3.714,11.034,5.557,1.846.919,3.7,1.834,5.528,2.79q1.383.706,2.752,1.439l1.369.731,1.349.771c1.8,1.018,3.57,2.131,5.281,3.318a28.612,28.612,0,0,1,4.694,4.134.263.263,0,0,1-.375.366h0a32.584,32.584,0,0,0-4.827-3.727q-2.61-1.607-5.362-2.981c-3.658-1.854-7.419-3.545-11.146-5.3l-5.607-2.628c-1.857-.9-3.718-1.8-5.566-2.727s-3.694-1.859-5.528-2.815-3.649-1.949-5.458-2.949c-7.252-3.936-14.354-8.635-20.087-14.718a58.973,58.973,0,0,1-7.711-9.82,52.679,52.679,0,0,1-2.952-5.492,32.906,32.906,0,0,1-2.113-5.845.032.032,0,0,1,.061-.022Z" transform="translate(-111.914 -866.097)" fill="#dce5fe"/>
    <path id="Trazado_131170" data-name="Trazado 131170" d="M492.837,795.212c.1.348.245.769.375,1.16l.411,1.191.854,2.376,1.758,4.737q1.8,4.721,3.7,9.4,3.779,9.372,7.9,18.6c5.533,12.281,11.4,24.41,17.908,36.194,3.275,5.879,6.587,11.74,10.134,17.456s7.23,11.348,11.133,16.827,7.951,10.852,12.3,15.982a196.1,196.1,0,0,0,13.774,14.738h0a.262.262,0,1,1-.355.384,175.6,175.6,0,0,1-14.244-14.419c-4.456-5.085-8.612-10.424-12.625-15.867a324.437,324.437,0,0,1-21.512-34.342c-3.251-5.924-6.295-11.953-9.271-18.018s-5.793-12.2-8.453-18.41-5.243-12.445-7.643-18.753q-1.8-4.735-3.494-9.5c-.558-1.594-1.124-3.185-1.65-4.788l-.785-2.408-.378-1.214c-.121-.414-.25-.791-.357-1.259a.259.259,0,1,1,.5-.133Z" transform="translate(-258.437 -529.961)" fill="#dce5fe"/>
    <path id="Trazado_131172" data-name="Trazado 131172" d="M1626.019,428.64c-.155.4-.31.688-.463,1.023l-.477.958-.98,1.9c-.661,1.261-1.349,2.509-2.023,3.754-1.376,2.493-2.81,4.946-4.253,7.405-2.922,4.887-5.989,9.687-9.156,14.419a309.522,309.522,0,0,1-20.583,27.28c-3.676,4.359-7.542,8.543-11.5,12.654s-8.113,8.019-12.389,11.793q-6.472,5.6-13.412,10.618a150.274,150.274,0,0,1-14.516,9.024.263.263,0,0,1-.261-.45h0c4.865-2.922,9.59-6.07,14.134-9.442s8.9-7.007,13.118-10.791,8.3-7.722,12.239-11.82,7.7-8.318,11.4-12.612,7.234-8.732,10.681-13.237l2.561-3.395,2.513-3.433c1.661-2.3,3.32-4.6,4.932-6.933q4.858-6.987,9.372-14.21c1.5-2.405,3-4.82,4.435-7.266q1.084-1.834,2.131-3.685l1.041-1.855.508-.933c.157-.3.342-.647.45-.9l.034-.067a.254.254,0,0,1,.342-.126A.259.259,0,0,1,1626.019,428.64Z" transform="translate(-1067.423 -245.727)" fill="#dce5fe"/>
    <path id="Trazado_131175" data-name="Trazado 131175" d="M1624.9,1281.3l-4.492,40.292h52.122l-6.789-40.292Z" transform="translate(-1132.93 -906.974)" fill="url(#linear-gradient-2)"/>
    <path id="Trazado_131176" data-name="Trazado 131176" d="M1627.808,1458.276h-76.282c-2.07,0-3.628-1.475-3.226-3.06l.978-3.871a3.147,3.147,0,0,1,3.1-2.066l73.539-2.286a3.254,3.254,0,0,1,3.343,2.005l1.765,6.164C1631.48,1456.756,1629.915,1458.276,1627.808,1458.276Z" transform="translate(-1076.982 -1035.416)" fill="url(#linear-gradient-3)"/>
    <path id="Trazado_131177" data-name="Trazado 131177" d="M1349.55,804.26v92.275a14,14,0,0,0,13.637,13.994c33.7.87,120.511,2.977,152.6,2.5a10.3,10.3,0,0,0,10.139-10.006c.62-21.438,1.625-72.986-2.093-96.917a10.6,10.6,0,0,0-10.137-8.972c-28.238-.9-122.127-3.772-154.2-3.053A10.175,10.175,0,0,0,1349.55,804.26Z" transform="translate(-922.962 -529.201)" fill="url(#linear-gradient-4)"/>
    <path id="Trazado_131178" data-name="Trazado 131178" d="M1375.3,816.175v87.675a8.109,8.109,0,0,0,7.99,8.109l147.837,2.212a7.893,7.893,0,0,0,8.01-7.868l.3-86.884a5.773,5.773,0,0,0-5.631-5.793l-152.1-3.7a6.254,6.254,0,0,0-6.407,6.252Z" transform="translate(-942.923 -541.565)" fill="url(#linear-gradient-5)"/>
    <path id="Trazado_131179" data-name="Trazado 131179" d="M1538.682,1275.721h0l-165.194-3.334a.524.524,0,0,1,.02-1.048l165.185,3.343a.526.526,0,0,1-.011,1.05Z" transform="translate(-941.12 -899.253)" fill="url(#linear-gradient-6)"/>
    <path id="Trazado_131180" data-name="Trazado 131180" d="M1712.94,1291.295a2.567,2.567,0,1,1,2.565-2.565A2.567,2.567,0,0,1,1712.94,1291.295Zm0-4.083a1.518,1.518,0,1,0,1.517,1.518,1.518,1.518,0,0,0-1.517-1.518Z" transform="translate(-1202.667 -910.741)" fill="url(#linear-gradient-7)"/>
    <path id="Trazado_131181" data-name="Trazado 131181" d="M1422.31,658.008l132.471,2.122s.142-141.427-1.648-169.3a3.965,3.965,0,0,0-3.66-3.7c-17.054-1.293-94.557-6.863-128.031-4.2a3.822,3.822,0,0,0-3.516,3.9Z" transform="translate(-975.966 -287.53)" fill="#91b3fa"/>
    <path id="Trazado_131182" data-name="Trazado 131182" d="M1436.133,688.847l123.336,1.974-2.511-159.452a4.5,4.5,0,0,0-3.6-4.332c-31.383-6.441-102.357-5.11-118.328-4.721a3.229,3.229,0,0,0-3.147,3.311Z" transform="translate(-986.787 -318.321)" fill="#bdd0fb"/>
    <path id="Trazado_131183" data-name="Trazado 131183" d="M1890.593,507.08a1.92,1.92,0,0,1-2.023,1.709,1.815,1.815,0,1,1,0-3.608A2.082,2.082,0,0,1,1890.593,507.08Z" transform="translate(-1339.247 -305.332)" fill="#fff" opacity="0.6"/>
    <path id="Trazado_131184" data-name="Trazado 131184" d="M1915.513,509.88a1.92,1.92,0,0,1-2.023,1.709,1.815,1.815,0,1,1,0-3.608A2.086,2.086,0,0,1,1915.513,509.88Z" transform="translate(-1358.565 -307.503)" fill="#fff" opacity="0.6"/>
    <path id="Trazado_131185" data-name="Trazado 131185" d="M1942.167,512.6a1.921,1.921,0,0,1-2.023,1.709,1.816,1.816,0,1,1,0-3.608A2.072,2.072,0,0,1,1942.167,512.6Z" transform="translate(-1379.216 -309.611)" fill="#fff" opacity="0.6"/>
    <path id="Trazado_131186" data-name="Trazado 131186" d="M1743.734,1459.285a.524.524,0,0,1,0-1.048l3.147-.047h0a.526.526,0,0,1,0,1.05Z" transform="translate(-1228.124 -1044.098)" fill="url(#linear-gradient-8)"/>
    <path id="Trazado_131187" data-name="Trazado 131187" d="M1559.274,1465.5a.524.524,0,0,1-.517-.607l.449-2.817a3.417,3.417,0,0,1,3.329-2.882l33.425-.488h0a.524.524,0,0,1,0,1.048l-33.424.49a2.367,2.367,0,0,0-2.309,2l-.45,2.815A.524.524,0,0,1,1559.274,1465.5Z" transform="translate(-1085.132 -1044.501)" fill="url(#linear-gradient-9)"/>
    <path id="Trazado_131188" data-name="Trazado 131188" d="M1561.058,583.165h0l-5.24-.058a.524.524,0,1,1,0-1.048h0l5.24.058a.524.524,0,0,1,0,1.048Zm-10.481-.117h0l-5.24-.058a.524.524,0,0,1-.519-.531.513.513,0,0,1,.531-.517l5.24.058a.524.524,0,0,1,0,1.048Zm15.689-.115a.526.526,0,0,1-.175-1.021,4.271,4.271,0,0,0,2.821-3.431.525.525,0,1,1,1.039.151,5.319,5.319,0,0,1-3.511,4.271A.512.512,0,0,1,1566.267,582.933Zm-26.17,0h0l-5.24-.058a.524.524,0,1,1,0-1.048h0l5.24.058a.524.524,0,1,1,0,1.048Zm-10.48-.117h0l-5.24-.058a.524.524,0,1,1,0-1.048h0l5.24.058a.524.524,0,1,1,0,1.048Zm-10.481-.117h0l-5.24-.056a.526.526,0,0,1,0-1.05h0l5.24.058a.524.524,0,0,1,0,1.048Zm-10.48-.115h0l-5.24-.058a.524.524,0,0,1,0-1.048h0l5.24.056a.526.526,0,0,1,0,1.05Zm-10.481-.117h0l-5.24-.058a.524.524,0,1,1,0-1.048h0l5.24.058a.524.524,0,0,1,0,1.048Zm-10.481-.117h0l-5.24-.058a.522.522,0,0,1-.517-.528.51.51,0,0,1,.531-.519l5.238.058a.524.524,0,0,1,0,1.048Zm-10.481-.117h0l-5.24-.058a.522.522,0,0,1-.517-.528.515.515,0,0,1,.531-.519l5.24.058a.524.524,0,1,1,0,1.048Zm-10.481-.115h0l-5.24-.058a.526.526,0,0,1,0-1.05h0l5.24.058a.526.526,0,0,1,0,1.05Zm-10.006-1.677a.526.526,0,0,1-.4-.184,5,5,0,0,1-1.182-2.922l-.157-2.363a.524.524,0,1,1,1.045-.067l.157,2.363a3.948,3.948,0,0,0,.935,2.311.524.524,0,0,1-.4.863Zm112.755-6.6a.524.524,0,0,1-.524-.524v-5.236a.524.524,0,0,1,1.048,0v5.243a.524.524,0,0,1-.524.524Zm-114.319-3.6a.524.524,0,0,1-.521-.49l-.349-5.229a.526.526,0,0,1,1.048-.07l.346,5.229a.526.526,0,0,1-.488.56Zm114.319-6.884a.524.524,0,0,1-.524-.524V557.6a.524.524,0,1,1,1.047,0v5.24A.524.524,0,0,1,1569.482,563.357Zm-115.012-3.579a.524.524,0,0,1-.524-.49l-.346-5.229v-.346a3.321,3.321,0,0,1,.023-.474.524.524,0,1,1,1.043.1c0,.126-.018.252-.018.378v.279l.348,5.227a.528.528,0,0,1-.49.56Zm112.562-5.982a.515.515,0,0,1-.247-.061,4.047,4.047,0,0,0-1.6-.468l-3.341-.252a.524.524,0,1,1,.081-1.043c1.255.1,2.374.187,3.343.265a5.1,5.1,0,0,1,2.01.587.524.524,0,0,1-.247.985Zm-10.377-1.192h-.04q-2.438-.185-5.231-.387a.524.524,0,1,1,.076-1.045c1.857.135,3.6.265,5.234.387a.524.524,0,0,1-.038,1.048Zm-10.465-.76h-.038l-5.236-.355a.524.524,0,0,1,.07-1.045l5.236.357a.524.524,0,0,1-.036,1.048Zm-10.469-.7h-.034c-1.711-.11-3.46-.225-5.233-.328a.524.524,0,1,1,.063-1.045q2.664.162,5.238.326a.524.524,0,0,1-.034,1.048Zm-10.472-.636h-.031q-2.594-.153-5.236-.292a.525.525,0,0,1,.056-1.048q2.644.142,5.24.292a.524.524,0,0,1-.029,1.048Zm-10.476-.564h-.027c-1.74-.085-3.489-.169-5.236-.25a.524.524,0,0,1-.5-.548.537.537,0,0,1,.546-.5q2.623.121,5.24.252a.524.524,0,1,1-.025,1.048Zm-57.607-.065a.524.524,0,0,1-.18-1.016,5.171,5.171,0,0,1,1.239-.288c1.241-.133,2.621-.252,4.1-.349a.524.524,0,1,1,.07,1.045c-1.466.1-2.83.214-4.047.346a4.127,4.127,0,0,0-.991.225.5.5,0,0,1-.191.04Zm47.127-.411h-.022q-2.63-.106-5.238-.2a.524.524,0,0,1,.036-1.048q2.61.092,5.245.2a.524.524,0,0,1-.02,1.048Zm-10.485-.366h-.016q-2.65-.074-5.24-.13a.524.524,0,0,1-.513-.535.551.551,0,0,1,.535-.513q2.59.054,5.249.13a.526.526,0,0,1-.016,1.05Zm-26.215-.09a.524.524,0,0,1-.018-1.048c1.637-.056,3.4-.1,5.252-.128a.542.542,0,0,1,.531.517.524.524,0,0,1-.517.533c-1.839.027-3.6.07-5.227.126Zm15.737-.128h0c-1.785-.023-3.534-.034-5.238-.034a.524.524,0,1,1,0-1.048h0c1.708,0,3.462,0,5.251.031a.526.526,0,0,1,0,1.05Z" transform="translate(-1003.62 -338.371)" fill="#7d97f4"/>
    <path id="Trazado_131189" data-name="Trazado 131189" d="M1496.9,815.7h-5.24a.524.524,0,0,1,0-1.048h5.24a.524.524,0,0,1,0,1.048Zm-10.481,0h-5.24a.524.524,0,0,1,0-1.048h5.249a.524.524,0,0,1,0,1.048Zm-10.48,0h-5.247a.524.524,0,0,1,0-1.048h5.24a.524.524,0,0,1,0,1.048Zm26.19-.137a.524.524,0,0,1-.119-1.034,4.521,4.521,0,0,0,3.264-3.075.524.524,0,0,1,1,.306,5.573,5.573,0,0,1-4.024,3.79A.577.577,0,0,1,1502.127,815.563Zm-36.232-1.457a.528.528,0,0,1-.378-.16,5.679,5.679,0,0,1-1.574-3.822l-.034-1.405a.524.524,0,1,1,1.047-.025l.034,1.4a4.633,4.633,0,0,0,1.293,3.111.521.521,0,0,1-.016.74.515.515,0,0,1-.373.157Zm40.095-7.194a.526.526,0,0,1-.524-.524v-5.24a.524.524,0,1,1,1.048,0v5.24a.524.524,0,0,1-.528.524ZM1464.3,804a.524.524,0,0,1-.524-.51l-.126-5.24a.524.524,0,0,1,.513-.535.517.517,0,0,1,.535.51l.126,5.24a.524.524,0,0,1-.513.535Zm41.688-7.572a.526.526,0,0,1-.524-.526v-5.24a.524.524,0,1,1,1.048,0v5.24a.524.524,0,0,1-.524.526Zm-41.945-2.907a.524.524,0,0,1-.524-.51l-.124-5.24a.524.524,0,1,1,1.048-.025l.124,5.24a.522.522,0,0,1-.51.535Zm41.945-7.576a.524.524,0,0,1-.524-.524v-5.24a.524.524,0,0,1,1.048,0v5.24A.524.524,0,0,1,1505.985,785.949Zm-42.194-2.9a.524.524,0,0,1-.524-.51l-.126-5.24a.524.524,0,0,1,.51-.535.517.517,0,0,1,.537.51l.126,5.24a.524.524,0,0,1-.513.535Zm42.194-7.578a.524.524,0,0,1-.524-.524V769.7a.524.524,0,0,1,1.048,0v5.24A.524.524,0,0,1,1505.985,775.468Zm-42.442-2.886a.526.526,0,0,1-.524-.513l-.124-5.238a.524.524,0,1,1,1.045-.027l.126,5.24a.522.522,0,0,1-.51.535Zm42.442-7.594a.526.526,0,0,1-.524-.524v-5.24a.524.524,0,0,1,1.048,0v5.24A.524.524,0,0,1,1505.985,764.988Zm-42.691-2.9a.524.524,0,0,1-.524-.513l-.126-5.238a.524.524,0,0,1,.51-.537.517.517,0,0,1,.537.513l.126,5.238a.526.526,0,0,1-.513.537Zm42.691-7.585a.526.526,0,0,1-.524-.526v-5.229a.524.524,0,0,1,1.048,0v5.24a.524.524,0,0,1-.524.515Zm-42.938-2.893a.526.526,0,0,1-.524-.513l-.126-5.238a.526.526,0,0,1,.513-.537.517.517,0,0,1,.535.513l.126,5.238a.524.524,0,0,1-.51.537Zm42.938-7.583a.524.524,0,0,1-.524-.524V738.26a.524.524,0,0,1,1.048,0v5.24a.524.524,0,0,1-.524.531Zm-43.2-2.889a.524.524,0,0,1-.524-.513l-.074-3.118a5.32,5.32,0,0,1,.513-2.289.525.525,0,0,1,.949.45,4.247,4.247,0,0,0-.414,1.839v.106l.072,2.988a.526.526,0,0,1-.513.537Zm41.232-6.969a.526.526,0,0,1-.312-.1,4.339,4.339,0,0,0-2.621-.872h-2.093a.524.524,0,0,1,0-1.048h2.093a5.371,5.371,0,0,1,3.249,1.081.524.524,0,0,1-.315.942Zm-36.693-.971a.524.524,0,0,1-.022-1.048h5.485a.524.524,0,1,1,0,1.048h-5.463Zm26.426,0h-5.236a.524.524,0,1,1,0-1.048h5.24a.524.524,0,1,1,0,1.048Zm-10.481,0h-5.24a.524.524,0,1,1,0-1.048h5.247a.524.524,0,1,1,0,1.048Z" transform="translate(-1010.279 -481.277)" fill="#7d97f4"/>
    <path id="Trazado_131190" data-name="Trazado 131190" d="M1692.06,738.655v19.783a3.912,3.912,0,0,0,3.9,3.912l54.055.072a5.27,5.27,0,0,0,5.276-5.27V740.5a4.872,4.872,0,0,0-4.641-4.867c-11.385-.539-40.73-1.859-53.8-1.8A4.818,4.818,0,0,0,1692.06,738.655Z" transform="translate(-1188.473 -482.581)" fill="#91b3fa"/>
    <path id="Trazado_131191" data-name="Trazado 131191" d="M1749.528,943.056l-3.339-.049a.524.524,0,0,1-.515-.533.544.544,0,0,1,.531-.515l3.323.049a4.831,4.831,0,0,0,1.687-.3.524.524,0,1,1,.368.98A5.81,5.81,0,0,1,1749.528,943.056Zm-8.57-.128h0l-5.24-.081a.524.524,0,0,1-.515-.531.542.542,0,0,1,.533-.517l5.238.079a.526.526,0,0,1,0,1.05Zm-10.48-.16h0l-5.24-.081a.524.524,0,0,1-.517-.531.54.54,0,0,1,.533-.517l5.24.081a.524.524,0,0,1,0,1.048Zm-10.478-.16h0l-5.24-.079a.524.524,0,0,1,0-1.048h0l5.24.079a.524.524,0,0,1,0,1.048Zm-10.48-.16h0l-5.24-.079a.524.524,0,0,1,0-1.048h0l5.24.079a.524.524,0,0,1,0,1.048Zm-10.481-.157h0l-3.525-.054a5.95,5.95,0,0,1-1.844-.321.524.524,0,0,1,.342-.991,4.9,4.9,0,0,0,1.52.265l3.523.054a.524.524,0,0,1,0,1.048Zm55.678-3.356a.524.524,0,0,1-.512-.641,4.768,4.768,0,0,0,.124-1.084v-.171l-.135-3.837a.524.524,0,0,1,1.048-.036l.135,3.837v.207a5.785,5.785,0,0,1-.151,1.32.524.524,0,0,1-.5.4Zm-64.338-.661a.524.524,0,0,1-.5-.384,5.9,5.9,0,0,1-.225-1.587v-3.768a.524.524,0,1,1,1.048,0v3.775a4.941,4.941,0,0,0,.178,1.308.526.526,0,0,1-.364.645.613.613,0,0,1-.124.011Zm64.156-9.8a.524.524,0,0,1-.524-.506l-.182-5.238a.524.524,0,0,1,1.048-.036l.182,5.238a.524.524,0,0,1-.506.542Zm-64.342-.656a.524.524,0,0,1-.524-.524v-5.24a.524.524,0,0,1,1.048,0v5.24a.524.524,0,0,1-.524.524ZM1754.179,918a.526.526,0,0,1-.524-.506l-.182-5.238a.524.524,0,1,1,1.048-.036l.182,5.236a.522.522,0,0,1-.506.542Zm-63.987-.674a.524.524,0,0,1-.524-.524v-5.234a.524.524,0,0,1,1.048,0V916.8a.524.524,0,0,1-.524.533Zm63.621-9.811a.522.522,0,0,1-.524-.506l-.182-5.238a.524.524,0,1,1,1.048-.036l.182,5.238a.524.524,0,0,1-.506.542Zm-63.621-.674a.524.524,0,0,1-.524-.526v-5.229a5.8,5.8,0,0,1,.326-1.92.524.524,0,1,1,.989.346,4.726,4.726,0,0,0-.267,1.574v5.24a.524.524,0,0,1-.524.526Zm61.321-9.15a.531.531,0,0,1-.335-.121,5.35,5.35,0,0,0-3.426-1.241h-1.146a.524.524,0,0,1,0-1.048h1.156a6.4,6.4,0,0,1,4.1,1.483.524.524,0,0,1-.336.927Zm-57.31-1.205a.524.524,0,0,1-.126-1.034,5.92,5.92,0,0,1,1.407-.171h3.948a.524.524,0,1,1,0,1.048h-3.948a4.764,4.764,0,0,0-1.156.142.471.471,0,0,1-.126,0Zm47.154-.157h-5.243a.524.524,0,0,1,0-1.048h5.243a.524.524,0,0,1,0,1.048Zm-10.483,0h-5.24a.524.524,0,1,1,0-1.048h5.236a.524.524,0,0,1,0,1.048Zm-10.481,0h-5.24a.524.524,0,1,1,0-1.048h5.24a.524.524,0,0,1,0,1.048Zm-10.481,0h-5.24a.524.524,0,1,1,0-1.048h5.24a.524.524,0,1,1,0,1.048Z" transform="translate(-1186.604 -607.735)" fill="#7d97f4"/>
    <path id="Trazado_131192" data-name="Trazado 131192" d="M1584.351,1161.428a.524.524,0,0,1-.528-.528v-.546a.524.524,0,0,1,1.048,0v.546A.524.524,0,0,1,1584.351,1161.428Zm-112.287-1.987a.524.524,0,0,1-.524-.524v-5.24a.526.526,0,0,1,1.05,0v5.24a.523.523,0,0,1-.526.524Zm112.287-3.8a.524.524,0,0,1-.524-.524v-5.231a.524.524,0,1,1,1.047,0v5.24A.524.524,0,0,1,1584.351,1155.639Zm-112.287-6.679a.524.524,0,0,1-.524-.524v-5.24a.526.526,0,0,1,1.05,0v5.24a.523.523,0,0,1-.526.524Zm112.287-3.8a.524.524,0,0,1-.524-.524V1139.4a.524.524,0,1,1,1.047,0v5.242A.524.524,0,0,1,1584.351,1145.163Zm-112.287-6.679a.526.526,0,0,1-.524-.524v-3.88a5.7,5.7,0,0,1,.2-1.486.524.524,0,1,1,1.011.272,4.592,4.592,0,0,0-.16,1.214v3.876a.526.526,0,0,1-.526.524Zm111.955-3.766a.526.526,0,0,1-.495-.351,5.44,5.44,0,0,0-3.235-3.312.525.525,0,1,1,.369-.982,6.482,6.482,0,0,1,3.855,3.95.494.494,0,0,1-.495.69Zm-8.74-4.047h0l-5.24-.065a.526.526,0,0,1-.517-.531.535.535,0,0,1,.531-.517l5.24.065a.524.524,0,0,1,0,1.048Zm-10.481-.13h0l-5.24-.068a.524.524,0,0,1,.014-1.048l5.24.065a.526.526,0,0,1,0,1.05Zm-10.48-.133h0l-5.238-.065a.528.528,0,0,1-.519-.531.551.551,0,0,1,.533-.519l5.238.067a.524.524,0,1,1,0,1.048Zm-10.478-.133h0l-5.24-.065a.524.524,0,1,1,0-1.048h0l5.24.065a.524.524,0,0,1,0,1.048Zm-10.48-.13h0l-5.24-.067a.522.522,0,0,1-.517-.531.542.542,0,0,1,.531-.517l5.24.065a.526.526,0,0,1,0,1.05Zm-10.481-.133h0l-5.24-.065a.524.524,0,0,1-.517-.531.544.544,0,0,1,.531-.519l5.24.068a.524.524,0,1,1,0,1.047Zm-10.48-.133h0l-5.24-.065a.524.524,0,1,1,0-1.048h0l5.24.065a.524.524,0,0,1,0,1.048Zm-10.48-.13h0l-5.24-.068a.524.524,0,0,1,0-1.048h0l5.24.065a.526.526,0,0,1,0,1.05Zm-26.179-.09a.524.524,0,0,1-.15-1.027,5.746,5.746,0,0,1,1.648-.243h.074l3.653.045a.524.524,0,0,1,.517.531.515.515,0,0,1-.531.517l-3.653-.045-.061-.524v.512a4.592,4.592,0,0,0-1.349.2.606.606,0,0,1-.148.027Zm15.7-.043h0l-5.24-.065a.528.528,0,0,1-.517-.533.517.517,0,0,1,.531-.517l5.24.068a.524.524,0,1,1,0,1.048Z" transform="translate(-1017.527 -788.44)" fill="#7d97f4"/>
    <path id="Trazado_131193" data-name="Trazado 131193" d="M504.854,1012.271H378.694a7.284,7.284,0,0,1-7.284-7.284V883.175a7.284,7.284,0,0,1,7.264-7.284l127.167-.342a7.284,7.284,0,0,1,7.3,7.324l-1.009,122.152A7.282,7.282,0,0,1,504.854,1012.271Z" transform="translate(-164.716 -592.44)" fill="#91b3fa"/>
    <path id="Trazado_131194" data-name="Trazado 131194" d="M523.181,917l-112.8.695a7.392,7.392,0,0,0-7.347,7.419l.787,102.45a7.394,7.394,0,0,0,7.257,7.356l109.605,2a7.392,7.392,0,0,0,7.524-7.288l2.414-105.145A7.39,7.39,0,0,0,523.181,917Z" transform="translate(-189.227 -624.571)" fill="url(#linear-gradient-10)"/>
    <rect id="Rectángulo_30952" data-name="Rectángulo 30952" width="91.337" height="5.2" rx="2.6" transform="translate(238.03 299.726)" fill="#7d97f4"/>
    <path id="Trazado_131195" data-name="Trazado 131195" d="M596.667,994.768h0a2.212,2.212,0,0,1-2.167,2.093l-76.012,1.385a2.212,2.212,0,0,1-2.248-2.212v-.18a2.21,2.21,0,0,1,2.176-2.21l76-1.2a2.21,2.21,0,0,1,2.248,2.329Z" transform="translate(-276.987 -683.051)" fill="#7d97f4"/>
    <path id="Trazado_131196" data-name="Trazado 131196" d="M532.226,1127.605h-.076l-102.812-1.234a6.295,6.295,0,0,1-6.223-6.418l2.646-72.346a6.3,6.3,0,0,1,6.421-6.162l102.636,2a6.308,6.308,0,0,1,6.175,6.409v.018l-2.473,71.563A6.31,6.31,0,0,1,532.226,1127.605Zm-100.168-84.065a4.206,4.206,0,0,0-4.2,4.125l-2.646,72.345a4.2,4.2,0,0,0,4.152,4.271l102.812,1.232a4.2,4.2,0,0,0,4.253-4.139L538.9,1049.8a4.211,4.211,0,0,0-4.121-4.271l-102.632-2Zm107.883,6.295Z" transform="translate(-204.796 -721.04)" fill="#7d97f4"/>
    <path id="Trazado_131197" data-name="Trazado 131197" d="M547.166,1105.625H435.2a1.048,1.048,0,0,1,0-2.1H547.166a1.048,1.048,0,0,1,0,2.1Z" transform="translate(-213.351 -769.168)" fill="#7d97f4"/>
    <path id="Trazado_131202" data-name="Trazado 131202" d="M653.27,1041.1s30.686,80.931,40.382,97.769c11.254,19.543,44.123,7.088,42.489-9.267s-40.038-83.959-40.038-83.959Z" transform="translate(-383.211 -720.773)" fill="#26aab7"/>
    <path id="Trazado_131203" data-name="Trazado 131203" d="M819.733,550.82l190.732-66.13-2,178.959L814.52,620.375Z" transform="translate(-508.211 -289.449)" fill="#aee6e6"/>
    <ellipse id="Elipse_4322" data-name="Elipse 4322" cx="18.738" cy="91.969" rx="18.738" ry="91.969" transform="translate(483.696 193.272)" fill="#26aab7"/>
    <path id="Trazado_131204" data-name="Trazado 131204" d="M1647.462,671.684c-1.693-1.722-5.4-8.367-8.543-25.549-3.055-16.607-4.739-38.143-4.739-60.646s1.684-44.042,4.739-60.649c3.163-17.182,6.854-23.83,8.543-25.549,1.693,1.722,5.4,8.367,8.543,25.549,3.057,16.607,4.739,38.143,4.739,60.649s-1.682,44.04-4.739,60.646C1652.846,663.317,1649.155,669.962,1647.462,671.684Z" transform="translate(-1143.604 -300.766)" fill="#aee6e6"/>
    <g id="Grupo_56060" data-name="Grupo 56060" transform="translate(490.576 198.524)" clip-path="url(#clip-path)">
      <path id="Trazado_131205" data-name="Trazado 131205" d="M1609.6,782.1c0,15.626-8.419,28.294-25.08,28.294s-30.167-12.668-30.167-28.294,13.506-28.294,30.167-28.294S1609.6,766.478,1609.6,782.1Z" transform="translate(-1572.297 -696.592)" fill="#0d585f"/>
    </g>
    <path id="Trazado_131207" data-name="Trazado 131207" d="M640.362,759.171a106.861,106.861,0,0,1,35.745,1.769c-4.584,23.942-3.894,48.9,1.407,74.735H638.285a12.715,12.715,0,0,1-12.567-10.723c-1.954-12.385-4.346-33.2-1.8-49.923A18.821,18.821,0,0,1,640.362,759.171Z" transform="translate(-359.602 -501.646)" fill="#0d585f"/>
    <path id="Trazado_131208" data-name="Trazado 131208" d="M690.579,816.574H660.005a2.79,2.79,0,0,1-2.342-4.3.787.787,0,1,1,1.32.854A1.214,1.214,0,0,0,660.005,815h30.574a1.216,1.216,0,0,0,1.216-1.214V811.61a1.218,1.218,0,0,0-1.216-1.216h-30.8a.787.787,0,0,1,0-1.574h30.8a2.79,2.79,0,0,1,2.788,2.788v2.176A2.792,2.792,0,0,1,690.579,816.574Z" transform="translate(-386.271 -540.711)" fill="url(#linear-gradient-10)"/>
    <path id="Trazado_131209" data-name="Trazado 131209" d="M678.45,876.8H647.876a2.788,2.788,0,0,1-2.34-4.3.787.787,0,0,1,1.32.854,1.216,1.216,0,0,0,1.021,1.877H678.45a1.216,1.216,0,0,0,1.216-1.216v-2.176a1.216,1.216,0,0,0-1.216-1.214h-30.8a.787.787,0,0,1,0-1.574h30.8a2.792,2.792,0,0,1,2.788,2.788v2.176A2.79,2.79,0,0,1,678.45,876.8Z" transform="translate(-376.869 -587.401)" fill="url(#linear-gradient-12)"/>
    <path id="Trazado_131210" data-name="Trazado 131210" d="M958.3,593.376a.787.787,0,0,1-.238-1.535l144.457-45.969a.787.787,0,0,1,.477,1.5l-144.46,45.966A.8.8,0,0,1,958.3,593.376Z" transform="translate(-619.061 -336.847)" fill="url(#linear-gradient)"/>
    <path id="Trazado_131211" data-name="Trazado 131211" d="M871.382,776.977a.787.787,0,0,1-.3-1.515l7.434-3.037a.787.787,0,0,1,.6,1.455l-7.434,3.039A.776.776,0,0,1,871.382,776.977Z" transform="translate(-551.678 -512.463)" fill="url(#linear-gradient-14)"/>
    <path id="Trazado_131212" data-name="Trazado 131212" d="M690.572,947.347H660a2.788,2.788,0,0,1-2.342-4.3.787.787,0,0,1,1.32.854A1.218,1.218,0,0,0,660,945.775h30.574a1.218,1.218,0,0,0,1.216-1.216v-2.172a1.216,1.216,0,0,0-1.216-1.214h-30.8a.787.787,0,0,1,0-1.574h30.8a2.792,2.792,0,0,1,2.783,2.788v2.176A2.79,2.79,0,0,1,690.572,947.347Z" transform="translate(-386.264 -642.091)" fill="url(#linear-gradient-15)"/>
    <path id="Trazado_131213" data-name="Trazado 131213" d="M703.35,1025.621H672.776a2.785,2.785,0,0,1-2.327-4.3.787.787,0,1,1,1.32.854,1.216,1.216,0,0,0,1.021,1.877h30.574a1.218,1.218,0,0,0,1.216-1.216v-2.176a1.216,1.216,0,0,0-1.216-1.214h-30.8a.787.787,0,1,1,0-1.574h30.8a2.792,2.792,0,0,1,2.788,2.788v2.187A2.79,2.79,0,0,1,703.35,1025.621Z" transform="translate(-396.18 -702.765)" fill="url(#linear-gradient-16)"/>
    <path id="Trazado_131214" data-name="Trazado 131214" d="M1678.893,794.226a.784.784,0,0,1-.782-.731c-.544-7.657-3.2-13.365-7.889-16.966-8.111-6.229-19.687-4.089-19.8-4.065a.787.787,0,0,1-.3-1.544c.5-.1,12.391-2.293,21.058,4.361,5.063,3.887,7.922,9.977,8.5,18.1a.787.787,0,0,1-.728.841Z" transform="translate(-1155.484 -511.004)" fill="url(#linear-gradient-17)"/>
    <path id="Trazado_131215" data-name="Trazado 131215" d="M1194.695,1316.852c-1.785-2.262-19.718-26.064-5.009-52.288a1,1,0,0,1,1.715-.052,24.362,24.362,0,0,1,1.736,23.573c-5.3,11.5.5,24.095,2.63,28.063a.643.643,0,0,1-.715.928h0A.624.624,0,0,1,1194.695,1316.852Z" transform="translate(-794.578 -893.604)" fill="#91b3fa"/>
    <path id="Trazado_131216" data-name="Trazado 131216" d="M1231.4,1126.048a.6.6,0,0,1-.425-.371c-.9-2.381-6.616-18.549-2.574-31.307,4.912-15.512,33.692-54.9,2.3-76.489a.627.627,0,0,1,.449-1.142c7.969,1.25,30.68,7.167,29.034,33.946-1.979,32.213-43.7,25.34-28.072,74.6a.6.6,0,0,1-.706.767Z" transform="translate(-827.937 -701.882)" fill="#91b3fa"/>
    <path id="Trazado_131217" data-name="Trazado 131217" d="M1242.549,1361.516a.594.594,0,0,1-.434-.4c-1.081-3.291-9.8-31.109,2.922-36.232,13.136-5.285,32.86,3.568,49.316-5.061a.675.675,0,0,1,.971.825c-1.608,4.579-7.419,17.1-23.081,17.18-19.16.1-24.419-3.891-27.773,5.6-2.486,7.034-1.6,14.826-1.2,17.4a.6.6,0,0,1-.731.674Z" transform="translate(-836.643 -936.768)" fill="#91b3fa"/>
    <path id="Trazado_131218" data-name="Trazado 131218" d="M1294.542,1335.871a20.3,20.3,0,0,1-7.093,4.784,25.451,25.451,0,0,1-4.1,1.378c-.695.209-1.41.308-2.115.45a19.765,19.765,0,0,1-2.145.3,34.6,34.6,0,0,1-8.626-.146c-1.455-.157-2.781-.425-4.152-.62s-2.725-.382-4.085-.5a30.156,30.156,0,0,0-8,.117,12.065,12.065,0,0,0-3.583,1.234,8.227,8.227,0,0,0-2.745,2.486,12.36,12.36,0,0,0-1.677,3.494,23.912,23.912,0,0,0-.807,3.961,54.923,54.923,0,0,0-.225,8.286.207.207,0,0,1-.2.225.209.209,0,0,1-.225-.171,41.806,41.806,0,0,1-.69-8.432,21.715,21.715,0,0,1,.528-4.294,13.623,13.623,0,0,1,1.666-4.143,10.242,10.242,0,0,1,3.251-3.255,13.006,13.006,0,0,1,4.227-1.67,29.569,29.569,0,0,1,8.687-.371c1.423.108,2.83.283,4.231.47s2.814.434,4.134.594a39.828,39.828,0,0,0,8.077.36c.675-.036,1.349-.068,2.023-.166s1.349-.128,2-.276,1.333-.225,1.981-.414,1.32-.3,1.96-.524a25.532,25.532,0,0,0,7.344-3.5l.022-.016a.243.243,0,0,1,.342.054.247.247,0,0,1-.016.31Z" transform="translate(-841.198 -948.958)" fill="#dce5fe"/>
    <path id="Trazado_131219" data-name="Trazado 131219" d="M1196.413,1299.045c-.638,3.19-1.236,6.366-1.7,9.548-.225,1.592-.432,3.186-.553,4.788s-.16,3.208-.148,4.811c0,.8.049,1.6.088,2.406s.124,1.6.225,2.394.225,1.589.337,2.383c.166.784.294,1.574.495,2.356a37.991,37.991,0,0,0,3.408,9.046h0a.225.225,0,0,1-.369.225,31.042,31.042,0,0,1-4.375-8.909,34.443,34.443,0,0,1-1.151-4.869,38.958,38.958,0,0,1-.521-4.979,44.128,44.128,0,0,1,.04-5,45.962,45.962,0,0,1,.551-4.966,32.138,32.138,0,0,1,3.037-9.482.342.342,0,0,1,.636.225Z" transform="translate(-800.907 -920.398)" fill="#dce5fe"/>
    <path id="Trazado_131220" data-name="Trazado 131220" d="M1222.71,827.919c-.038-.486-.535-.9-1.374-1.241.913-.5,1.416-1.043,1.374-1.574-.128-1.6-5.2-2.5-11.317-2s-10.98,2.19-10.852,3.79c.041.486.535.9,1.376,1.243-.913.5-1.419,1.041-1.376,1.574.041.486.535.9,1.376,1.243-.913.5-1.419,1.041-1.376,1.574.041.486.535.9,1.376,1.241-.913.5-1.419,1.043-1.376,1.574.058.708,1.081,1.277,2.736,1.65a13.9,13.9,0,0,0,.041,1.729c.24,2.949,3.556,5.261,7.942,5.261s8.183-3.147,8.226-6.11a14.884,14.884,0,0,0-.085-1.929c2.1-.7,3.372-1.558,3.309-2.387-.038-.486-.535-.9-1.374-1.243.913-.5,1.416-1.041,1.374-1.574-.038-.486-.535-.9-1.374-1.243C1222.249,828.98,1222.752,828.443,1222.71,827.919Z" transform="translate(-807.449 -551.677)" fill="url(#linear-gradient-18)"/>
    <path id="Trazado_131221" data-name="Trazado 131221" d="M1219.063,882.577a26.467,26.467,0,0,1-4.856-.4.146.146,0,0,1-.117-.173.148.148,0,0,1,.171-.117,31.6,31.6,0,0,0,8.093.256,34.858,34.858,0,0,0,6.776-1.171.144.144,0,0,1,.182.1.146.146,0,0,1-.1.182,34.922,34.922,0,0,1-6.841,1.18C1221.234,882.532,1220.121,882.577,1219.063,882.577Z" transform="translate(-817.952 -596.642)" fill="url(#linear-gradient-19)"/>
    <path id="Trazado_131222" data-name="Trazado 131222" d="M1215.426,867.412a23.286,23.286,0,0,1-5.962-.645.151.151,0,0,1-.1-.182.146.146,0,0,1,.182-.1,34.016,34.016,0,0,0,18.025-1.432.146.146,0,1,1,.124.265,28.979,28.979,0,0,1-8.992,1.96C1217.6,867.367,1216.483,867.412,1215.426,867.412Z" transform="translate(-814.286 -584.291)" fill="url(#linear-gradient-20)"/>
    <path id="Trazado_131223" data-name="Trazado 131223" d="M1214.164,854.9a21.623,21.623,0,0,1-6.295-.758.147.147,0,1,1,.092-.279,26.814,26.814,0,0,0,9.478.6,28.661,28.661,0,0,0,8.887-1.933.148.148,0,0,1,.2.185.147.147,0,0,1-.077.083,28.981,28.981,0,0,1-8.992,1.96C1216.336,854.854,1215.223,854.9,1214.164,854.9Z" transform="translate(-813.053 -574.588)" fill="url(#linear-gradient-21)"/>
    <path id="Trazado_131224" data-name="Trazado 131224" d="M1217.655,842.457a25.4,25.4,0,0,1-5.294-.481.151.151,0,0,1-.113-.178.146.146,0,0,1,.175-.11,30.672,30.672,0,0,0,8.5.34,28.958,28.958,0,0,0,8.842-1.913.147.147,0,0,1,.121.268,29.108,29.108,0,0,1-8.938,1.938C1219.82,842.412,1218.71,842.457,1217.655,842.457Z" transform="translate(-816.524 -564.961)" fill="url(#linear-gradient-22)"/>
    <path id="Trazado_131225" data-name="Trazado 131225" d="M1133.738,572.854a20.754,20.754,0,0,0-3.707-7.239,47.919,47.919,0,0,1-10.321-26.68c-1.066-18.542,15.379-27.827,30.387-26.566s29.814,12.434,28.191,29.675c-1,10.613-6.938,18.659-11.36,23.288a24.544,24.544,0,0,0-5.9,10.449c-1.329,4.793-4.5,10.764-12,11.128C1139.32,587.39,1135.285,578.334,1133.738,572.854Z" transform="translate(-744.754 -310.817)" fill="#7d6eb2"/>
    <path id="Trazado_131226" data-name="Trazado 131226" d="M1261.327,706.446l5.251-34.155c.108-.7.45-1.178.773-1.057s.492.791.384,1.495a.113.113,0,0,1-.011.061l-5.98,33.834c-.045.256-.175.416-.29.36S1261.289,706.687,1261.327,706.446Z" transform="translate(-854.562 -434.042)" fill="#fff"/>
    <path id="Trazado_131227" data-name="Trazado 131227" d="M1214.91,707.654l-5.249-34.151c-.108-.706-.45-1.18-.776-1.059s-.492.791-.382,1.5V674l5.98,33.834c.045.254.175.416.29.36S1214.948,707.9,1214.91,707.654Z" transform="translate(-813.597 -434.98)" fill="#fff"/>
    <path id="Trazado_131228" data-name="Trazado 131228" d="M1231.449,648.735a.555.555,0,0,0-.69-.18l-2.923,1.367-1.01-2.9a.615.615,0,0,0-.355-.357.722.722,0,0,0-.9.276h0l-2.4,4.384-2.232-6.241h0a.708.708,0,0,0-.337-.382.877.877,0,0,0-1.1.225l-3.372,4.627a.405.405,0,0,0,.119.585.562.562,0,0,0,.715-.079l2.958-3.3,2.664,5.937h0a.469.469,0,0,0,.236.225.558.558,0,0,0,.7-.18l2.572-4.128.967,2.089v.018a.453.453,0,0,0,.025.045.549.549,0,0,0,.688.178l3.471-1.621a.414.414,0,0,0,.214-.589Z" transform="translate(-819.471 -413.408)" fill="url(#linear-gradient-23)"/>
    <path id="Trazado_131229" data-name="Trazado 131229" d="M1327.711,710.99a.785.785,0,0,1-.63-1.254,38.269,38.269,0,0,0,2.428-3.689.787.787,0,0,1,1.362.787,40.32,40.32,0,0,1-2.529,3.84A.785.785,0,0,1,1327.711,710.99Z" transform="translate(-905.423 -460.75)" fill="url(#linear-gradient-24)"/>
    <path id="Trazado_131230" data-name="Trazado 131230" d="M1346.928,607.663a.8.8,0,0,1-.312-.065.787.787,0,0,1-.409-1.034,30.971,30.971,0,0,0,.715-23.513.788.788,0,0,1,1.437-.65,32.066,32.066,0,0,1-.7,24.794A.787.787,0,0,1,1346.928,607.663Z" transform="translate(-920.319 -364.834)" fill="url(#linear-gradient-25)"/>
    <rect id="Rectángulo_30953" data-name="Rectángulo 30953" width="2.401" height="25.974" transform="translate(296.087 427.513) rotate(180)" fill="url(#linear-gradient-26)"/>
    <path id="Trazado_131231" data-name="Trazado 131231" d="M0,0H21.038V.922a.643.643,0,0,1-.643.643H.643A.643.643,0,0,1,0,.922V0Z" transform="translate(305.405 428.015) rotate(180)" fill="url(#linear-gradient-27)"/>
    <rect id="Rectángulo_30954" data-name="Rectángulo 30954" width="26.449" height="7.502" rx="3.751" transform="translate(281.248 395.719)" fill="url(#linear-gradient-28)"/>
    <path id="Trazado_131232" data-name="Trazado 131232" d="M812.929,1325.32a20.905,20.905,0,0,1,7.583,3.235,2,2,0,0,1,.881,1.911,84.745,84.745,0,0,1-8.97,28.157,3.015,3.015,0,0,0-.29,2.077l1.124,5.267,2.1,1.969h-5.4l-3.6-9.741,1.54-.488a2.923,2.923,0,0,0,2.023-2.727l.182-10.449a11.887,11.887,0,0,1,2.853-7.868l-8.633-.418Z" transform="translate(-500.312 -941.098)" fill="url(#linear-gradient-29)"/>
    <path id="Trazado_131233" data-name="Trazado 131233" d="M820.482,1480.481c.492.645-5.3,1.5-8.226.086,0,0-4.047-7.057-4.047-10.69,0,0,.321-.742,2.7-.573,0,0,1.349,8.356,2.8,9.291s4.024.094,4.024.094A8.463,8.463,0,0,1,820.482,1480.481Z" transform="translate(-503.319 -1052.694)" fill="#3a277b"/>
    <path id="Trazado_131234" data-name="Trazado 131234" d="M809.2,1341.437c.045-.079,9.3-1.11,9.3-1.11a21.355,21.355,0,0,0,.643,6.683c.946,3.871,14.52,20.644,14.52,20.644l-1.425,4.514a22.9,22.9,0,0,0,13,.782l-8.826-5.3s-8.25-28.144-13.311-33.166l-9.271-3.208Z" transform="translate(-504.087 -945.718)" fill="url(#linear-gradient-30)"/>
    <path id="Trazado_131235" data-name="Trazado 131235" d="M696.83,1303.62s-5.33,7.927-5.769,11.542,1.461,5.085,7.052,5.328,20.521.238,20.521.238l12.74-10.89s-9.285-3.311-11.69-4.249S696.83,1303.62,696.83,1303.62Z" transform="translate(-412.46 -924.276)" fill="#f5ca56"/>
    <path id="Trazado_131236" data-name="Trazado 131236" d="M911.134,1506.4a2.609,2.609,0,0,0-.5,3.136s12.14,2.154,15.442,1.176c0,0-.674-1.562-4.4-3.341l.274.211a.45.45,0,0,1-.292.8C919.206,1508.239,914.15,1507.789,911.134,1506.4Z" transform="translate(-582.44 -1081.47)" fill="#3a277b"/>
    <path id="Trazado_131237" data-name="Trazado 131237" d="M712.7,1199.922a121.74,121.74,0,0,0,9.262-9.824,8.3,8.3,0,0,0,1.405-7.473,103.4,103.4,0,0,0-4.1-10.323c-.346-1.16-7.306-1.113-7.306-1.113s-13.691,8.887-19.07,23.94l6.041,1.882a70.469,70.469,0,0,1,7.108-9.811s-6.113,8.075-6.328,11.38Z" transform="translate(-413.924 -821.617)" fill="#f5ca56"/>
    <path id="Trazado_131238" data-name="Trazado 131238" d="M787.054,1144.013c-.072.24-1.888,6.261-2.023,6.387s-3.984.333-5.791-.9l3.066-6.421Z" transform="translate(-480.862 -799.827)" fill="url(#linear-gradient-31)"/>
    <path id="Trazado_131239" data-name="Trazado 131239" d="M780.584,1090.321s3.28,1.385,5.508,6.122.564,6.926-1.526,7.225a9.8,9.8,0,0,1-8.527-2.806C772.729,1097.8,776.322,1088.676,780.584,1090.321Z" transform="translate(-477.377 -758.776)" fill="url(#linear-gradient-32)"/>
    <path id="Trazado_131240" data-name="Trazado 131240" d="M763.187,1083.825s-2.473-6.931,3.673-7.014l1.446,1.012s2.248-3.844-1.446-5.679a7.866,7.866,0,0,0-10.791,4.786c-1.574,4.986-.652,8.205,1.967,10.591s3.7-.319,3.7-.319-1.425-2.232-.845-3.426,1.92.247,1.92.247Z" transform="translate(-462.303 -744.272)" fill="#12263f"/>
    <path id="Trazado_131241" data-name="Trazado 131241" d="M778.145,1122.977s-1.252-3.57-2.922-2.149,1.349,3.3,2.54,3.907Z" transform="translate(-477.366 -782.318)" fill="url(#linear-gradient-33)"/>
    <path id="Trazado_131242" data-name="Trazado 131242" d="M720.534,1282.861l-4.557-4.4-6.308,2.666s-6.279.971-9.871,0l-3.6-.973-8.12-2.529-1.277,3.6a2.169,2.169,0,0,0,.794,2.493,14.3,14.3,0,0,0,2.05,1.277c1.07.468,26.361-.324,26.361-.324Z" transform="translate(-409.11 -904.129)" fill="url(#linear-gradient-34)"/>
    <path id="Trazado_131243" data-name="Trazado 131243" d="M694.76,1090.785a1.407,1.407,0,0,0-.841-2.345c-3.6-.562-9.1,0-11.4,7.724-2.6,8.687-4.292,13.039-6.027,13.792a1.413,1.413,0,0,0-.076,2.594,6,6,0,0,0,3.763.133C693.448,1109.763,690.125,1095.519,694.76,1090.785Z" transform="translate(-400.519 -757.347)" fill="#12263f"/>
    <path id="Trazado_131244" data-name="Trazado 131244" d="M756.689,1301.856h.061l26.449-.027a1.185,1.185,0,1,0,0-2.369l-26.449.029a1.185,1.185,0,0,0-.058,2.367Z" transform="translate(-462.52 -921.052)" fill="url(#linear-gradient-35)"/>
    <path id="Trazado_131245" data-name="Trazado 131245" d="M860.045,1203.3H838.014a4.2,4.2,0,0,0-3.792,2.405l-10.182,21.582h27.373a2.556,2.556,0,0,0,2.374-1.614l7.9-19.967a1.758,1.758,0,0,0-1.637-2.405Z" transform="translate(-515.591 -846.509)" fill="url(#linear-gradient-36)"/>
    <path id="Trazado_131246" data-name="Trazado 131246" d="M914.443,1244.943c-.479,1.484-.126,2.923.787,3.217s2.039-.674,2.516-2.154.126-2.922-.787-3.215S914.92,1243.472,914.443,1244.943Z" transform="translate(-585.505 -877.082)" fill="#7d97f4"/>
    <path id="Trazado_131247" data-name="Trazado 131247" d="M596.009,1310.218a.978.978,0,0,1,.225-.848,1.124,1.124,0,0,1,.843-.371H707.451a1.277,1.277,0,0,1,1.059.544,1.124,1.124,0,0,1,.083,1.124l-1.2,2.428a1.686,1.686,0,0,1-1.522.9H597.837a1.245,1.245,0,0,1-1.243-.962Z" transform="translate(-338.807 -928.447)" fill="#7d97f4"/>
    <path id="Trazado_131248" data-name="Trazado 131248" d="M990.893,1368.473a.973.973,0,0,0,.382-.081,1,1,0,0,0,.506-1.3l-20.314-48.316a.96.96,0,0,0-1.272-.519,1,1,0,0,0-.506,1.3L990,1367.873A.969.969,0,0,0,990.893,1368.473Z" transform="translate(-628.434 -935.56)" fill="#7d97f4"/>
    <path id="Trazado_131249" data-name="Trazado 131249" d="M959.177,1368.473a.969.969,0,0,0,.9-.6l20.314-48.316a1,1,0,0,0-.506-1.3.96.96,0,0,0-1.272.519L958.3,1367.09a1,1,0,0,0,.508,1.3A.959.959,0,0,0,959.177,1368.473Z" transform="translate(-619.603 -935.56)" fill="#7d97f4"/>
    <path id="Trazado_131250" data-name="Trazado 131250" d="M635.068,1368.473a.965.965,0,0,0,.382-.081,1,1,0,0,0,.506-1.3l-20.314-48.316a.96.96,0,0,0-1.272-.519,1,1,0,0,0-.506,1.3l20.314,48.316A.969.969,0,0,0,635.068,1368.473Z" transform="translate(-352.602 -935.56)" fill="#7d97f4"/>
    <path id="Trazado_131251" data-name="Trazado 131251" d="M603.338,1368.473a.969.969,0,0,0,.9-.6l20.309-48.316a1,1,0,0,0-.506-1.3.96.96,0,0,0-1.272.519l-20.314,48.316a1,1,0,0,0,.506,1.3A.974.974,0,0,0,603.338,1368.473Z" transform="translate(-343.757 -935.56)" fill="#7d97f4"/>
    <path id="Trazado_131252" data-name="Trazado 131252" d="M1921.07,300.6l-.488-.423-.079-.072c-.135-.126-.416-.389-.827-.728a.306.306,0,0,1-.054-.391.225.225,0,0,1,.351-.058c.175.144.326.274.45.389a.246.246,0,0,1,.477.058c.054.348.078.54.078.54Zm-.614-2.725a.33.33,0,0,1-.065.027.252.252,0,0,1-.3-.214c-.115-.582-.245-1.178-.382-1.769a.283.283,0,0,1,.178-.342.252.252,0,0,1,.306.2c.139.6.27,1.2.387,1.8a.3.3,0,0,1-.124.3Zm-1.873.5a.225.225,0,0,1-.25,0,15.236,15.236,0,0,0-1.416-.852.3.3,0,0,1-.121-.373.243.243,0,0,1,.333-.133,16.274,16.274,0,0,1,1.464.879.3.3,0,0,1,.085.384A.258.258,0,0,1,1918.584,298.382Zm-2.95-1.549a.225.225,0,0,1-.2.02,9.569,9.569,0,0,0-1.549-.427.274.274,0,0,1-.207-.319.256.256,0,0,1,.288-.225,10.026,10.026,0,0,1,1.623.45.29.29,0,0,1,.16.353A.272.272,0,0,1,1915.634,296.833Zm4-2.5-.05.022a.245.245,0,0,1-.31-.189c-.157-.58-.324-1.162-.5-1.731a.288.288,0,0,1,.155-.355.243.243,0,0,1,.317.173c.175.576.344,1.167.5,1.753a.3.3,0,0,1-.128.33Zm-7.219,1.942a.242.242,0,0,1-.113.034,6.35,6.35,0,0,0-1.124.133c-.162.034-.319.063-.472.09a.256.256,0,0,1-.283-.236.277.277,0,0,1,.209-.317c.148-.025.3-.054.45-.085a7.036,7.036,0,0,1,1.194-.144.265.265,0,0,1,.259.272.288.288,0,0,1-.128.259Zm-5.647,2.938-.45.256a1.529,1.529,0,0,0-.935-.7.288.288,0,0,1-.169-.348.247.247,0,0,1,.31-.189,2.249,2.249,0,0,1,.874.5.254.254,0,0,1,.247.175Zm2.4-2.581a.225.225,0,0,1-.124.034,5.847,5.847,0,0,1-1.677-.261.286.286,0,0,1-.171-.346.245.245,0,0,1,.308-.191,5.352,5.352,0,0,0,1.549.238.268.268,0,0,1,.245.286.288.288,0,0,1-.14.245Zm9.406-5.764-.029.016a.243.243,0,0,1-.324-.16c-.2-.571-.4-1.138-.614-1.684a.3.3,0,0,1,.128-.369.241.241,0,0,1,.328.146c.225.555.425,1.124.625,1.7a.3.3,0,0,1-.124.351Zm-12.636,6.679-.029.013a.243.243,0,0,1-.324-.157c-.225-.674-.425-1.245-.578-1.724a.29.29,0,0,1,.151-.357.243.243,0,0,1,.319.169c.151.474.344,1.05.573,1.709a.3.3,0,0,1-.122.353Zm-1.958.857a.225.225,0,0,1-.16.031c-.486-.088-1.016-.193-1.623-.36a.286.286,0,0,1-.182-.339.25.25,0,0,1,.3-.2c.589.164,1.108.265,1.574.351a.292.292,0,0,1,.081.522Zm2.127-2.839a.225.225,0,0,1-.274-.027,4.986,4.986,0,0,1-.933-1.153c-.054-.085-.1-.155-.133-.2a.319.319,0,0,1-.029-.407.225.225,0,0,1,.342-.034.716.716,0,0,1,.061.07c.045.058.1.144.169.25a4.47,4.47,0,0,0,.834,1.036.3.3,0,0,1,.041.393.226.226,0,0,1-.086.076Zm11.164-8.053h0a.241.241,0,0,1-.335-.128c-.225-.488-.434-.969-.659-1.43l-.09-.182a.3.3,0,0,1,.1-.38h0a.238.238,0,0,1,.339.11l.09.182c.225.47.45.958.674,1.452a.3.3,0,0,1-.128.38Zm-16.463,10a.225.225,0,0,1-.207.016,15.185,15.185,0,0,1-1.524-.733.294.294,0,0,1-.112-.373.236.236,0,0,1,.333-.128,14.758,14.758,0,0,0,1.477.71.288.288,0,0,1,.148.357A.284.284,0,0,1,1900.813,297.508Zm-2.922-1.6a.225.225,0,0,1-.25,0l-.3-.209a11.148,11.148,0,0,1-1.068-.85.3.3,0,0,1-.038-.391.225.225,0,0,1,.351-.045,10.79,10.79,0,0,0,1.021.812c.1.072.2.139.3.2a.3.3,0,0,1,.083.384.254.254,0,0,1-.108.1Zm17.8-11.6a.225.225,0,0,1-.331-.1c-.29-.519-.593-1.025-.9-1.506a.3.3,0,0,1,.056-.389.225.225,0,0,1,.348.065c.315.488.623,1,.92,1.533a.3.3,0,0,1-.079.384Zm-20.341,9.316a.225.225,0,0,1-.3-.056,12.092,12.092,0,0,1-1.036-1.468.3.3,0,0,1,.07-.387.225.225,0,0,1,.346.076,11.707,11.707,0,0,0,.989,1.4.306.306,0,0,1-.016.4.2.2,0,0,1-.059.047Zm18.434-12.284a.225.225,0,0,1-.31-.067c-.348-.47-.71-.922-1.079-1.349a.306.306,0,0,1,0-.4.225.225,0,0,1,.353,0c.375.434.746.9,1.1,1.378a.3.3,0,0,1-.034.393.249.249,0,0,1-.045.049Zm-20.255,9.262h0a.238.238,0,0,1-.333-.13,14.658,14.658,0,0,1-.616-1.735.288.288,0,0,1,.162-.351.245.245,0,0,1,.315.18,13.719,13.719,0,0,0,.589,1.664.3.3,0,0,1-.128.382Zm17.985-11.883a.225.225,0,0,1-.283-.034c-.409-.4-.834-.771-1.263-1.124a.3.3,0,0,1-.058-.389.225.225,0,0,1,.349-.065,16.338,16.338,0,0,1,1.3,1.147.3.3,0,0,1,.027.4.252.252,0,0,1-.086.079Zm-18.971,8.408a.187.187,0,0,1-.077.029.252.252,0,0,1-.288-.225,8.054,8.054,0,0,1-.108-1.936h0l.175-.764a.252.252,0,0,1,.306-.2.288.288,0,0,1,.18.342l-.182.789a8.415,8.415,0,0,0,.126,1.679.29.29,0,0,1-.148.3Zm16.312-10.523a.225.225,0,0,1-.243,0,14.613,14.613,0,0,0-1.437-.8.292.292,0,0,1-.13-.366.24.24,0,0,1,.328-.146,14.465,14.465,0,0,1,1.486.83.3.3,0,0,1,.094.382.252.252,0,0,1-.115.112Zm-2.992-1.448a.224.224,0,0,1-.193.022,13.1,13.1,0,0,0-1.558-.434.281.281,0,0,1-.2-.326.254.254,0,0,1,.292-.225,14,14,0,0,1,1.612.45.288.288,0,0,1,.164.348.269.269,0,0,1-.135.173Zm-12.85,7.614a.225.225,0,0,1-.182.025.286.286,0,0,1-.18-.339l.409-1.772a.252.252,0,0,1,.306-.2.283.283,0,0,1,.178.342l-.409,1.772a.274.274,0,0,1-.137.184Zm9.649-8.3a.224.224,0,0,1-.139.031,15.158,15.158,0,0,0-1.608-.065.281.281,0,0,1,0-.558,16.043,16.043,0,0,1,1.655.065.274.274,0,0,1,.225.3.29.29,0,0,1-.148.232Zm-8.83,4.759a.225.225,0,0,1-.182.025.283.283,0,0,1-.18-.339l.409-1.771a.25.25,0,0,1,.3-.2.285.285,0,0,1,.18.342l-.409,1.771a.274.274,0,0,1-.137.184Zm5.571-4.721a.239.239,0,0,1-.094.034c-.522.058-1.059.142-1.6.252a.254.254,0,0,1-.29-.225.277.277,0,0,1,.2-.324c.551-.11,1.1-.2,1.637-.259a.259.259,0,0,1,.272.252.286.286,0,0,1-.144.277Zm-3.213.645a.224.224,0,0,1-.058.025c-.463.133-.94.283-1.416.45a.225.225,0,0,1-.247.083.283.283,0,0,1-.18-.339l.045-.193.13-.047c.519-.187,1.039-.353,1.547-.5a.25.25,0,0,1,.3.2.292.292,0,0,1-.139.324Z" transform="translate(-1343.494 -126.026)" fill="#7d97f4"/>
    <path id="Trazado_131253" data-name="Trazado 131253" d="M1898.9,295.747s.6,8.093,5.944,8.228,10.773-1.187,12.517.843c0,0-3.822-15.262-17.555-11.744Z" transform="translate(-1348.813 -140.501)" fill="#26aab7"/>
    <path id="Trazado_131254" data-name="Trazado 131254" d="M1828.508,317.16s-1.931,7.661-.2,9.539c1.646,1.785,16.993,7.234,18.486,7.763a.13.13,0,0,0,.164-.088h0a2.247,2.247,0,0,0-.142-1.841c-1.484-2.677-5.978-10.624-8.026-12.538C1836.32,317.682,1828.508,317.16,1828.508,317.16Z" transform="translate(-1293.532 -159.581)" fill="#26aab7"/>
    <path id="Trazado_131255" data-name="Trazado 131255" d="M1844.4,338.576a.146.146,0,0,1-.13,0c-.083-.031-8.442-3.179-11.993-4.692a1.906,1.906,0,0,1-1.1-1.684,31.389,31.389,0,0,1,.225-5.775.166.166,0,0,1,.189-.151.182.182,0,0,1,.135.209,31.5,31.5,0,0,0-.225,5.7,1.542,1.542,0,0,0,.9,1.362c3.545,1.511,11.9,4.656,11.98,4.687a.189.189,0,0,1,.1.225A.182.182,0,0,1,1844.4,338.576Z" transform="translate(-1296.28 -166.645)" fill="#fff"/>
    <path id="Trazado_131256" data-name="Trazado 131256" d="M1859.22,216.7s3.372-7.012,5.775-7.016c2.293,0,16.715,8.012,18.115,8.794a.155.155,0,0,1,.063.191h0a1.9,1.9,0,0,1-1.243,1.214c-2.729.769-10.894,2.99-13.556,2.776C1865.162,222.4,1859.22,216.7,1859.22,216.7Z" transform="translate(-1318.054 -76.263)" fill="#26aab7"/>
    <path id="Trazado_131257" data-name="Trazado 131257" d="M1882.5,219.249a.155.155,0,0,1-.151,0c-.079-.043-8.039-4.271-11.526-5.948a1.27,1.27,0,0,0-1.484.288,27.35,27.35,0,0,0-3.372,4.271.151.151,0,0,1-.225.047.2.2,0,0,1-.04-.254,27.557,27.557,0,0,1,3.415-4.325,1.574,1.574,0,0,1,1.834-.355c3.494,1.673,11.465,5.91,11.539,5.951a.193.193,0,0,1,.077.245.162.162,0,0,1-.068.081Z" transform="translate(-1323.059 -78.697)" fill="#fff"/>
    <path id="Trazado_131258" data-name="Trazado 131258" d="M1733.33,213.7a36.282,36.282,0,0,0,9.818,6.643,95.829,95.829,0,0,0,24.794,7.686,1.333,1.333,0,0,0,1.306-.636,29.41,29.41,0,0,0,4.48-12.14,2.408,2.408,0,0,0-.812-2.176,103.036,103.036,0,0,0-22.281-13.489,33.446,33.446,0,0,0-11.1-2.848C1735.4,202.751,1733.948,209.707,1733.33,213.7Z" transform="translate(-1220.464 -66.232)" fill="#3a277b"/>
    <path id="Trazado_131259" data-name="Trazado 131259" d="M1706.2,196.413a34.439,34.439,0,0,0-15.415,2.309.8.8,0,0,0-.38,1.052,42.522,42.522,0,0,0,9.595,13.59C1700.614,209.371,1702.064,202.416,1706.2,196.413Z" transform="translate(-1187.131 -65.897)" fill="#26aab7"/>
    <path id="Trazado_131260" data-name="Trazado 131260" d="M1771.009,221.837c3.161,1.428,4.611,5.663,3.24,9.458s-5.04,5.724-8.2,4.285-4.611-5.665-3.24-9.46S1767.844,220.408,1771.009,221.837Z" transform="translate(-1242.913 -85.32)" fill="#aee6e6"/>
    <path id="Trazado_131261" data-name="Trazado 131261" d="M1774.488,227.2c2.518,1.138,3.673,4.512,2.581,7.536s-4.017,4.552-6.535,3.415-3.671-4.512-2.581-7.538S1771.97,226.058,1774.488,227.2Z" transform="translate(-1246.985 -89.55)" fill="#3a277b"/>
    <path id="Trazado_131262" data-name="Trazado 131262" d="M1774.08,245.176a.151.151,0,0,1-.182-.02,5,5,0,0,1-1.144-5.3,4.942,4.942,0,0,1,.7-1.3.153.153,0,0,1,.225-.023.2.2,0,0,1,.02.259,4.516,4.516,0,0,0-.645,1.2,4.592,4.592,0,0,0,1.048,4.876.2.2,0,0,1,.025.256A.2.2,0,0,1,1774.08,245.176Z" transform="translate(-1250.786 -98.601)" fill="url(#linear-gradient-37)"/>
    <path id="Trazado_131263" data-name="Trazado 131263" d="M1828.614,255.913c2.086.944,3.044,3.741,2.14,6.247s-3.332,3.775-5.418,2.83-3.044-3.741-2.14-6.247S1826.528,254.962,1828.614,255.913Z" transform="translate(-1289.864 -111.858)" fill="#aee6e6"/>
    <path id="Trazado_131264" data-name="Trazado 131264" d="M1830.9,259.446a3.962,3.962,0,0,1,1.706,4.98c-.722,2-2.655,3.008-4.316,2.248a3.967,3.967,0,0,1-1.706-4.979C1827.305,259.7,1829.239,258.706,1830.9,259.446Z" transform="translate(-1292.544 -114.651)" fill="#3a277b"/>
    <path id="Trazado_131265" data-name="Trazado 131265" d="M1830.462,271.154a.146.146,0,0,1-.18-.02,3.359,3.359,0,0,1-.773-3.57,3.312,3.312,0,0,1,.47-.877.153.153,0,0,1,.225-.023.2.2,0,0,1,.018.259,3.045,3.045,0,0,0,.259,3.925.2.2,0,0,1,.025.256A.14.14,0,0,1,1830.462,271.154Z" transform="translate(-1294.859 -120.407)" fill="url(#linear-gradient-38)"/>
    <path id="Trazado_131266" data-name="Trazado 131266" d="M1958.844,538.313a.45.45,0,0,1-.2-.553l.373-.962a.36.36,0,0,1,.492-.225.45.45,0,0,1,.2.551l-.373.964a.411.411,0,0,1-.18.211A.349.349,0,0,1,1958.844,538.313Zm1.4-3.667a.45.45,0,0,1-.2-.551q.225-.58.432-1.162a.362.362,0,0,1,.49-.225.436.436,0,0,1,.2.546q-.211.585-.432,1.167a.4.4,0,0,1-.182.225A.337.337,0,0,1,1960.246,534.647Zm1.421-3.887a.45.45,0,0,1-.209-.546q.209-.584.412-1.169a.364.364,0,0,1,.486-.238.45.45,0,0,1,.213.544q-.2.587-.414,1.174a.4.4,0,0,1-.184.225.342.342,0,0,1-.3.011Zm1.349-3.914a.436.436,0,0,1-.225-.54c.133-.393.263-.785.391-1.178a.369.369,0,0,1,.483-.25.436.436,0,0,1,.225.539c-.128.393-.261.789-.393,1.182a.393.393,0,0,1-.187.225.33.33,0,0,1-.283.02Zm1.288-3.941a.436.436,0,0,1-.225-.535q.187-.593.369-1.187a.367.367,0,0,1,.477-.259.434.434,0,0,1,.225.533l-.371,1.191a.411.411,0,0,1-.191.238.337.337,0,0,1-.272.018Zm1.214-3.97a.429.429,0,0,1-.241-.528q.176-.6.344-1.194a.369.369,0,0,1,.472-.272.431.431,0,0,1,.243.526q-.171.6-.346,1.2a.412.412,0,0,1-.193.247.335.335,0,0,1-.267.02Zm1.124-4a.434.434,0,0,1-.252-.524q.162-.6.319-1.2a.369.369,0,0,1,.463-.283.427.427,0,0,1,.256.519q-.157.6-.319,1.207a.407.407,0,0,1-.2.259.331.331,0,0,1-.254.025Zm1.039-4.029a.429.429,0,0,1-.265-.515c.1-.4.2-.807.288-1.212a.375.375,0,0,1,.45-.3.427.427,0,0,1,.267.513c-.094.4-.191.812-.29,1.216a.409.409,0,0,1-.2.27.337.337,0,0,1-.236.027Zm.935-4.06a.425.425,0,0,1-.277-.506c.088-.4.171-.812.254-1.216a.378.378,0,0,1,.45-.317.423.423,0,0,1,.281.5q-.126.614-.256,1.225a.415.415,0,0,1-.2.281.337.337,0,0,1-.236.029Zm.825-4.087a.42.42,0,0,1-.292-.495c.076-.409.148-.818.225-1.225a.378.378,0,0,1,.438-.333.42.42,0,0,1,.3.492q-.108.618-.225,1.234a.422.422,0,0,1-.2.294.335.335,0,0,1-.229.031Zm.7-4.114a.416.416,0,0,1-.308-.483c.061-.414.121-.827.177-1.239a.38.38,0,0,1,.429-.348.414.414,0,0,1,.312.479q-.088.62-.18,1.248a.423.423,0,0,1-.207.308.351.351,0,0,1-.209.029Zm.562-4.148a.416.416,0,0,1-.326-.47c.047-.416.092-.83.135-1.245a.387.387,0,0,1,.414-.369.412.412,0,0,1,.33.465q-.065.627-.135,1.254a.414.414,0,0,1-.209.324.336.336,0,0,1-.193.04Zm.407-4.172a.407.407,0,0,1-.344-.45c.031-.416.059-.834.085-1.248a.391.391,0,0,1,.4-.391.4.4,0,0,1,.349.45c-.025.418-.054.839-.083,1.261a.427.427,0,0,1-.211.344.332.332,0,0,1-.178.029Zm.225-4.186a.4.4,0,0,1-.362-.434c.013-.418.022-.834.027-1.25a.378.378,0,1,1,.751.013c0,.42-.016.843-.029,1.266a.427.427,0,0,1-.211.364.352.352,0,0,1-.151.04Zm.043-4.195a.4.4,0,0,1-.382-.409c0-.418-.02-.834-.034-1.252a.4.4,0,0,1,.36-.436.4.4,0,0,1,.389.4c.013.42.025.843.034,1.263a.427.427,0,0,1-.211.389.333.333,0,0,1-.13.04Zm-.13-4.19a.391.391,0,0,1-.4-.384c-.029-.416-.063-.832-.1-1.245a.411.411,0,0,1,.335-.461.389.389,0,0,1,.411.375q.058.632.1,1.263a.429.429,0,0,1-.209.411A.337.337,0,0,1,1971.249,477.757Zm-.4-4.17a.384.384,0,0,1-.427-.353c-.043-.317-.088-.632-.135-.946a.418.418,0,0,1-.142-.2.434.434,0,0,1,.225-.537q.521-.211,1.036-.45a.364.364,0,0,1,.488.225.449.449,0,0,1-.2.546l-.661.29q.072.47.135.937a.436.436,0,0,1-.209.45.332.332,0,0,1-.117.041Zm2.749-3.127a.45.45,0,0,1,.16-.564q.493-.286.976-.594a.353.353,0,0,1,.51.155.45.45,0,0,1-.139.573q-.5.317-1,.609h0a.355.355,0,0,1-.517-.18Zm3.224-2.131a.45.45,0,0,1,.088-.587c.3-.238.6-.488.886-.742a.351.351,0,0,1,.528.072.45.45,0,0,1-.065.589c-.295.259-.6.517-.913.764a.291.291,0,0,1-.056.036.351.351,0,0,1-.479-.133Zm-8.74,4.91c-.366.108-.733.211-1.1.308a.375.375,0,0,1-.45-.315.427.427,0,0,1,.281-.5q.542-.137,1.079-.3a.371.371,0,0,1,.45.3.45.45,0,0,1-.2.486Zm11.641-7.536a.45.45,0,0,1,0-.594l.18-.2c.2-.225.4-.45.6-.688a.346.346,0,0,1,.528-.02.45.45,0,0,1,.018.594q-.3.361-.614.71l-.184.2a.356.356,0,0,1-.1.076.344.344,0,0,1-.425-.094Zm-15.348,8.4c-.375.065-.751.121-1.124.171a.385.385,0,0,1-.416-.366.407.407,0,0,1,.326-.465c.371-.049.738-.106,1.1-.169a.384.384,0,0,1,.427.353.436.436,0,0,1-.209.45.282.282,0,0,1-.108.016Zm5.789-4.631a.375.375,0,0,1-.45-.312c-.086-.4-.173-.809-.268-1.209a.423.423,0,0,1,.267-.513.371.371,0,0,1,.45.3c.1.409.187.821.274,1.232a.353.353,0,0,1-.274.492Zm-9.557,5.045c-.378.018-.758.031-1.135.038a.394.394,0,0,1-.38-.411.4.4,0,0,1,.369-.427c.371,0,.742-.02,1.124-.038a.393.393,0,0,1,.391.4.431.431,0,0,1-.211.4.364.364,0,0,1-.157.029Zm21.624-11.915a.45.45,0,0,1-.076-.587c.225-.331.434-.674.638-1.009a.351.351,0,0,1,.519-.115.449.449,0,0,1,.1.582c-.211.351-.432.7-.659,1.041a.373.373,0,0,1-.137.128.342.342,0,0,1-.387-.059Zm-25.4,11.9c-.38-.022-.758-.049-1.124-.085a.411.411,0,0,1-.344-.45.391.391,0,0,1,.4-.384c.371.034.74.063,1.111.085a.4.4,0,0,1,.355.45.423.423,0,0,1-.212.355.335.335,0,0,1-.2.011Zm27.447-15.429a.45.45,0,0,1-.157-.566q.261-.549.5-1.108a.36.36,0,0,1,.5-.2.45.45,0,0,1,.178.56c-.162.384-.335.769-.51,1.142a.4.4,0,0,1-.169.18.335.335,0,0,1-.337-.007Zm-15.1,6.34a.369.369,0,0,1-.474-.263q-.175-.594-.369-1.176a.434.434,0,0,1,.225-.54.364.364,0,0,1,.481.25q.2.594.378,1.2a.45.45,0,0,1-.193.51.16.16,0,0,1-.047.018Zm-16.117,8.644c-.375-.065-.748-.133-1.124-.209a.42.42,0,0,1-.3-.488.38.38,0,0,1,.436-.337c.364.074.731.142,1.1.2a.434.434,0,0,1,.108.791.333.333,0,0,1-.216.036Zm32.77-18.805a.432.432,0,0,1-.225-.535c.126-.391.243-.782.353-1.178a.371.371,0,0,1,.47-.277.429.429,0,0,1,.245.526q-.169.611-.362,1.212a.4.4,0,0,1-.189.236A.335.335,0,0,1,1985.827,455.253Zm-36.482,17.958q-.548-.157-1.1-.335a.432.432,0,0,1-.254-.522.369.369,0,0,1,.463-.285c.357.117.715.225,1.075.328a.425.425,0,0,1,.27.51.414.414,0,0,1-.2.274.346.346,0,0,1-.256.036Zm37.543-21.975a.423.423,0,0,1-.288-.5c.077-.4.148-.812.211-1.221a.382.382,0,0,1,.434-.342.418.418,0,0,1,.306.486q-.1.631-.225,1.252a.416.416,0,0,1-.2.29.33.33,0,0,1-.223.04Zm-19.057,10.251a.36.36,0,0,1-.5-.207c-.106-.256-.211-.513-.322-.767-.052-.119-.1-.238-.157-.357a.45.45,0,0,1,.168-.564h0a.36.36,0,0,1,.5.191c.054.124.108.245.16.369.113.259.225.519.328.782a.449.449,0,0,1-.178.551Zm-22.11,10.436q-.533-.225-1.054-.488a.45.45,0,0,1-.191-.553.36.36,0,0,1,.492-.225c.339.166.674.326,1.025.474a.45.45,0,0,1,.225.544.4.4,0,0,1-.187.225.333.333,0,0,1-.3.029Zm41.769-24.828a.409.409,0,0,1-.339-.45c.031-.414.058-.827.079-1.241a.393.393,0,0,1,.393-.4.4.4,0,0,1,.355.45q-.029.636-.081,1.272a.422.422,0,0,1-.211.342.341.341,0,0,1-.184.031Zm-21.863,10.528c-.191-.355-.391-.7-.6-1.05a.45.45,0,0,1,.106-.58.349.349,0,0,1,.519.117c.211.353.414.713.611,1.075a.45.45,0,0,1-.124.578l-.034.02a.357.357,0,0,1-.483-.16ZM1942.3,470.091c-.333-.225-.661-.45-.973-.674a.449.449,0,0,1-.108-.582.35.35,0,0,1,.519-.119c.3.225.618.45.938.65a.45.45,0,0,1,.137.573.387.387,0,0,1-.162.166A.339.339,0,0,1,1942.3,470.091Zm45.357-27.182a.4.4,0,0,1-.384-.409c-.011-.414-.027-.83-.05-1.243a.407.407,0,0,1,.351-.45.391.391,0,0,1,.4.393c.025.425.043.848.052,1.272a.427.427,0,0,1-.211.389A.327.327,0,0,1,1987.659,442.909ZM1939.2,467.6c-.288-.285-.569-.582-.836-.884a.449.449,0,0,1,0-.593.348.348,0,0,1,.531,0c.254.288.521.571.8.845a.45.45,0,0,1,.031.591.372.372,0,0,1-.117.1.342.342,0,0,1-.407-.058Zm24.279-13.369q-.348-.483-.713-.951a.45.45,0,0,1,.036-.594.349.349,0,0,1,.528.04q.373.483.733.978a.45.45,0,0,1-.056.591.384.384,0,0,1-.074.049.348.348,0,0,1-.443-.115Zm23.893-15.512a.387.387,0,0,1-.425-.357q-.077-.618-.173-1.23a.418.418,0,0,1,.3-.486.38.38,0,0,1,.434.339c.065.418.126.839.178,1.259a.434.434,0,0,1-.207.436.377.377,0,0,1-.1.04Zm-50.723,25.682c-.225-.355-.42-.724-.609-1.1a.45.45,0,0,1,.142-.573.355.355,0,0,1,.51.16c.18.353.373.7.578,1.039a.45.45,0,0,1-.1.582.222.222,0,0,1-.049.031A.348.348,0,0,1,1936.651,464.405Zm24.338-13.2q-.4-.429-.821-.834a.45.45,0,0,1-.036-.593.348.348,0,0,1,.528-.04c.286.279.569.564.843.857a.45.45,0,0,1,.016.593.38.38,0,0,1-.11.09A.346.346,0,0,1,1960.988,451.207Zm25.709-16.6a.373.373,0,0,1-.45-.3q-.137-.6-.294-1.2a.427.427,0,0,1,.254-.519.371.371,0,0,1,.465.283q.159.611.3,1.227a.45.45,0,0,1-.214.47.377.377,0,0,1-.063.029Zm-28.551,13.976c-.3-.238-.614-.47-.922-.688a.45.45,0,0,1-.115-.58.353.353,0,0,1,.517-.128c.317.225.636.463.949.71a.45.45,0,0,1,.092.585.374.374,0,0,1-.144.135.339.339,0,0,1-.389-.045Zm-22.724,12.248a.366.366,0,0,1-.474-.263c-.126-.407-.225-.823-.33-1.239a.427.427,0,0,1,.272-.51.373.373,0,0,1,.45.3c.09.393.2.789.313,1.176a.45.45,0,0,1-.191.513Zm50.191-30.234a.364.364,0,0,1-.483-.243c-.13-.387-.27-.773-.411-1.153a.45.45,0,0,1,.2-.551.362.362,0,0,1,.49.225q.225.587.423,1.18a.449.449,0,0,1-.187.528Zm-30.65,15.885c-.328-.18-.674-.353-1-.513a.45.45,0,0,1-.2-.551.362.362,0,0,1,.492-.225c.349.166.7.346,1.041.531a.45.45,0,0,1,.173.562.4.4,0,0,1-.175.193A.335.335,0,0,1,1954.963,446.486ZM1934.6,456.739a.393.393,0,0,1-.391-.4c-.018-.434-.018-.872,0-1.3a.393.393,0,0,1,.391-.4.407.407,0,0,1,.357.45c-.018.4-.018.809,0,1.218a.427.427,0,0,1-.211.4A.344.344,0,0,1,1934.6,456.739Zm16.932-11.73c-.353-.112-.713-.214-1.07-.3a.425.425,0,0,1-.286-.5.375.375,0,0,1,.45-.317c.371.092.744.2,1.11.315a.427.427,0,0,1,.259.517.4.4,0,0,1-.2.263.335.335,0,0,1-.272.027Zm32.073-18.434q-.256-.553-.531-1.093a.45.45,0,0,1,.142-.571.353.353,0,0,1,.51.157c.187.369.369.74.544,1.124a.449.449,0,0,1-.16.566h0a.357.357,0,0,1-.5-.191Zm-48.7,26a.429.429,0,0,1-.25-.524,12.159,12.159,0,0,1,.4-1.225.36.36,0,0,1,.492-.225.45.45,0,0,1,.2.551,11.159,11.159,0,0,0-.371,1.135.412.412,0,0,1-.2.256A.337.337,0,0,1,1934.913,452.576Zm13.01-8.291c-.364-.027-.735-.043-1.1-.043a.423.423,0,0,1,0-.839c.38,0,.766.016,1.149.045a.4.4,0,0,1,.346.45.418.418,0,0,1-.209.348A.341.341,0,0,1,1947.922,444.285Zm-11.389,4.534a.45.45,0,0,1-.052-.589,10.5,10.5,0,0,1,.791-.96.348.348,0,0,1,.531,0,.45.45,0,0,1,0,.594,10.327,10.327,0,0,0-.733.9.367.367,0,0,1-.126.11A.339.339,0,0,1,1936.534,448.819Zm7.738-4.357c-.364.065-.726.146-1.077.238a.376.376,0,0,1-.45-.31.425.425,0,0,1,.279-.506c.369-.1.749-.182,1.124-.252a.385.385,0,0,1,.432.348.4.4,0,0,1-.308.481Zm-4.966,1.574a.45.45,0,0,1,.137-.573c.328-.209.674-.409,1.03-.591a.357.357,0,0,1,.5.207.45.45,0,0,1-.184.555c-.335.173-.661.36-.969.558l-.023.013a.353.353,0,0,1-.488-.169Zm42.4-23.023q-.31-.519-.632-1.025a.45.45,0,0,1,.088-.584.349.349,0,0,1,.522.1c.225.346.434.695.645,1.045a.45.45,0,0,1-.1.582.253.253,0,0,1-.045.029.353.353,0,0,1-.474-.153Zm-2.212-3.334c-.225-.321-.474-.638-.717-.951a.45.45,0,0,1,.036-.593.351.351,0,0,1,.531.043q.371.479.73.971a.45.45,0,0,1-.061.584.33.33,0,0,1-.074.054.351.351,0,0,1-.445-.117Zm-2.484-3.093c-.261-.3-.526-.587-.793-.877a.45.45,0,0,1-.011-.591.349.349,0,0,1,.531-.013q.409.45.807.9a.45.45,0,0,1,0,.594.47.47,0,0,1-.1.079A.346.346,0,0,1,1977.012,416.586Zm-2.725-2.828q-.425-.4-.859-.8a.45.45,0,0,1-.054-.589.346.346,0,0,1,.526-.063q.45.4.872.812a.45.45,0,0,1,.043.591.385.385,0,0,1-.121.106A.344.344,0,0,1,1974.288,413.758Zm-2.922-2.567c-.3-.245-.6-.483-.911-.719a.45.45,0,0,1-.1-.585.351.351,0,0,1,.522-.108c.31.241.62.483.926.731a.45.45,0,0,1,.083.587.367.367,0,0,1-.139.13.346.346,0,0,1-.389-.036Zm-3.1-2.311q-.472-.328-.955-.643a.45.45,0,0,1-.135-.576.355.355,0,0,1,.513-.148q.49.319.971.652a.45.45,0,0,1,.124.578.387.387,0,0,1-.155.157.342.342,0,0,1-.366-.02Zm-3.235-2.057q-.5-.29-1-.571a.45.45,0,0,1-.169-.562.36.36,0,0,1,.5-.189c.337.189.675.382,1.007.578a.449.449,0,0,1,.16.567.394.394,0,0,1-.169.182.342.342,0,0,1-.342,0Zm-3.354-1.814q-.51-.252-1.025-.5a.45.45,0,0,1-.2-.551.364.364,0,0,1,.492-.225q.519.245,1.036.5a.449.449,0,0,1,.191.553.39.39,0,0,1-.18.207.333.333,0,0,1-.319.009Z" transform="translate(-1376.178 -226.671)" fill="#7d97f4"/>
    <path id="Trazado_131267" data-name="Trazado 131267" d="M276.815,463.21a1.648,1.648,0,0,1-.18-.011l-6.16-.746a1.477,1.477,0,0,1-1.263-1.153l-.964-4.5a23.606,23.606,0,0,1-5.652-3.19l-4.352,1.5a1.47,1.47,0,0,1-1.641-.483l-3.822-4.885a1.475,1.475,0,0,1-.076-1.708l2.5-3.867a23.577,23.577,0,0,1-1.747-6.25l-4.136-2.023a1.473,1.473,0,0,1-.818-1.5l.746-6.162a1.477,1.477,0,0,1,1.153-1.263l4.5-.964a23.606,23.606,0,0,1,3.186-5.643l-1.5-4.352a1.475,1.475,0,0,1,.483-1.641l4.885-3.822a1.477,1.477,0,0,1,1.72-.076l3.864,2.5a23.493,23.493,0,0,1,6.25-1.747l2.023-4.136a1.472,1.472,0,0,1,1.5-.818l6.144.74a1.472,1.472,0,0,1,1.263,1.153l.967,4.5a23.605,23.605,0,0,1,5.652,3.19l4.35-1.5a1.475,1.475,0,0,1,1.641.483l3.822,4.885a1.475,1.475,0,0,1,.079,1.709l-2.486,3.869a23.573,23.573,0,0,1,1.744,6.25l4.139,2.012a1.479,1.479,0,0,1,.818,1.5l-.749,6.162a1.47,1.47,0,0,1-1.153,1.263l-4.5.964a23.478,23.478,0,0,1-3.188,5.652l1.5,4.352a1.47,1.47,0,0,1-.483,1.641l-4.885,3.822a1.475,1.475,0,0,1-1.709.076l-3.867-2.5a23.491,23.491,0,0,1-6.25,1.747l-2.012,4.139A1.475,1.475,0,0,1,276.815,463.21Zm-5.647-2.785,5.281.632,2.32-4.77.576-.063a21.449,21.449,0,0,0,6.706-1.875l.526-.243,4.458,2.882,4.186-3.28-1.736-5.015.362-.45a21.5,21.5,0,0,0,3.424-6.07l.2-.544,5.186-1.124.641-5.281-4.77-2.32-.063-.576a21.507,21.507,0,0,0-1.873-6.706l-.245-.524,2.884-4.458-3.282-4.186-5.018,1.733-.45-.362a21.453,21.453,0,0,0-6.07-3.422l-.544-.2-1.113-5.186-5.279-.641-2.318,4.8-.573.065a21.4,21.4,0,0,0-6.708,1.873l-.524.243-4.458-2.882-4.186,3.28,1.733,5.018-.362.45a21.473,21.473,0,0,0-3.422,6.07l-.2.544-5.189,1.113-.641,5.274,4.773,2.32.063.576a21.465,21.465,0,0,0,1.873,6.706l.243.524L254.7,448.8l3.28,4.186,5.015-1.733.45.362a21.453,21.453,0,0,0,6.07,3.422l.542.2ZM251.324,428.5Zm-1.041-.126Zm26.822,22.314a16.107,16.107,0,0,1-9.856-3.372,1.049,1.049,0,1,1,1.286-1.657,13.918,13.918,0,1,0-5.332-9.716,1.049,1.049,0,0,1-2.088.191,16.186,16.186,0,0,1,.052-3.41,16.024,16.024,0,1,1,15.939,17.955Z" transform="translate(19.215 -228.652)" fill="#7d97f4"/>
    <path id="Trazado_131268" data-name="Trazado 131268" d="M352.516,516.836a6.562,6.562,0,0,1-6.115-8.918h0a6.56,6.56,0,1,1,6.115,8.918Zm-4.159-8.165a4.442,4.442,0,1,0,2.352-2.483A4.465,4.465,0,0,0,348.357,508.671Z" transform="translate(-56.344 -304.197)" fill="#7d97f4"/>
    <path id="Trazado_131269" data-name="Trazado 131269" d="M513.457,388.081a.987.987,0,0,1-.755-.351l-1.335-1.574a11.664,11.664,0,0,1-2.9-.065l-1.4,1.513a.989.989,0,0,1-1.124.225l-2.734-1.2a.991.991,0,0,1-.587-.989l.171-2.055a11.718,11.718,0,0,1-2-2.1l-2.064.079a.989.989,0,0,1-.96-.632l-1.079-2.783a.994.994,0,0,1,.283-1.124l1.574-1.333a11.553,11.553,0,0,1,.065-2.9l-1.513-1.4a.994.994,0,0,1-.225-1.124l1.205-2.731a1,1,0,0,1,.989-.587l2.055.171a11.624,11.624,0,0,1,2.1-2l-.076-2.064a.987.987,0,0,1,.629-.96l2.785-1.079a.987.987,0,0,1,1.124.283l1.333,1.574a11.555,11.555,0,0,1,2.9.065l1.4-1.513a.989.989,0,0,1,1.124-.225l2.727,1.212a.989.989,0,0,1,.587.987l-.171,2.057a11.716,11.716,0,0,1,2,2.1l2.062-.079a.987.987,0,0,1,.962.632l1.079,2.783a.991.991,0,0,1-.285,1.124l-1.574,1.331a11.692,11.692,0,0,1-.074,2.9l1.513,1.4a.991.991,0,0,1,.225,1.124l-1.2,2.734a.987.987,0,0,1-.989.587l-2.057-.171a11.628,11.628,0,0,1-2.1,2l.079,2.061a.994.994,0,0,1-.632.962l-2.783,1.079a.99.99,0,0,1-.348.056Zm-7.533-1.549Zm6.1-2.048,1.619,1.913,2.01-.778-.094-2.507.357-.245a10,10,0,0,0,2.356-2.248l.261-.346,2.5.209.87-1.974-1.837-1.7.079-.427a10.023,10.023,0,0,0,.074-3.257l-.061-.429,1.915-1.621-.78-2.008-2.507.094-.245-.357a10,10,0,0,0-2.248-2.356l-.346-.263.209-2.5-1.974-.87-1.7,1.839-.425-.081a10.087,10.087,0,0,0-3.257-.072l-.429.061-1.619-1.915-2.023.78.1,2.507-.357.245a9.962,9.962,0,0,0-2.356,2.248l-.261.346-2.5-.209-.87,1.972,1.839,1.7-.079.427a10.025,10.025,0,0,0-.074,3.257l.061.429-1.915,1.619.78,2.01,2.507-.094.245.357a10,10,0,0,0,2.248,2.356l.346.261-.209,2.5,1.972.87,1.7-1.837.427.079a10.023,10.023,0,0,0,3.257.074ZM522.384,370.8Zm-23.452-2.273ZM499.512,368.185Zm17.007-4.334ZM513.792,362.646Zm-6.67-.153ZM506.468,362.329Zm3.775,20.168a8.008,8.008,0,0,1-6.519-3.372.785.785,0,0,1,1.284-.9,6.421,6.421,0,1,0-.634-6.295,6.521,6.521,0,0,0-.418,1.3.787.787,0,1,1-1.54-.317,8.1,8.1,0,0,1,.519-1.621,8.005,8.005,0,1,1,7.306,11.2Z" transform="translate(-261.778 -193.523)" fill="#7d97f4"/>
    <circle id="Elipse_4323" data-name="Elipse 4323" cx="6.036" cy="6.036" r="6.036" transform="translate(455.675 306.38) rotate(-73.15)" fill="url(#linear-gradient-39)"/>
    <circle id="Elipse_4324" data-name="Elipse 4324" cx="6.036" cy="6.036" r="6.036" transform="translate(345.474 306.377) rotate(-73.15)" fill="url(#linear-gradient)"/>
    <circle id="Elipse_4325" data-name="Elipse 4325" cx="6.036" cy="6.036" r="6.036" transform="matrix(0.472, -0.882, 0.882, 0.472, 344.804, 196.244)" fill="url(#linear-gradient)"/>
    <circle id="Elipse_4326" data-name="Elipse 4326" cx="6.036" cy="6.036" r="6.036" transform="matrix(0.472, -0.882, 0.882, 0.472, 454.986, 196.239)" fill="url(#linear-gradient-39)"/>
    <path id="Trazado_131270" data-name="Trazado 131270" d="M1129.47,587.713h-5.24a.787.787,0,1,1,0-1.574h5.24a.787.787,0,1,1,0,1.574Zm-10.481,0h-5.24a.787.787,0,1,1,0-1.574H1119a.787.787,0,0,1,0,1.574Zm-10.48,0h-5.245a.787.787,0,1,1,0-1.574h5.24a.787.787,0,0,1,0,1.574Zm-10.483,0h-5.24a.787.787,0,0,1,0-1.574h5.24a.787.787,0,0,1,0,1.574Zm-10.481,0h-5.24a.787.787,0,1,1,0-1.574h5.24a.787.787,0,1,1,0,1.574Zm-10.48,0h-5.24a.787.787,0,0,1,0-1.574h5.24a.787.787,0,0,1,0,1.574Zm-10.481,0h-5.24a.787.787,0,1,1,0-1.574h5.24a.787.787,0,1,1,0,1.574Zm-10.481,0h-5.242a.787.787,0,1,1,0-1.574h5.242a.787.787,0,1,1,0,1.574Zm-10.483,0h-5.24a.787.787,0,0,1,0-1.574h5.24a.787.787,0,1,1,0,1.574Zm-10.481,0h-5.24a.787.787,0,1,1,0-1.574h5.247a.787.787,0,0,1,0,1.574Zm-10.481,0h-5.249a.787.787,0,0,1,0-1.574h5.24a.787.787,0,1,1,0,1.574Zm-5.5-4.979a.787.787,0,0,1-.787-.785v-5.242a.787.787,0,1,1,1.574,0v5.242A.787.787,0,0,1,1019.157,582.733Zm0-10.481a.787.787,0,0,1-.787-.787v-5.24a.787.787,0,1,1,1.574,0v5.24a.787.787,0,0,1-.787.787Zm0-10.481a.787.787,0,0,1-.787-.787v-5.24a.787.787,0,1,1,1.574,0v5.24A.787.787,0,0,1,1019.157,561.772Zm0-10.481a.787.787,0,0,1-.787-.787v-5.24a.787.787,0,1,1,1.574,0v5.24A.787.787,0,0,1,1019.157,551.291Zm0-10.483a.787.787,0,0,1-.787-.785v-5.24a.787.787,0,1,1,1.574,0v5.24A.787.787,0,0,1,1019.157,540.809Zm0-10.481a.787.787,0,0,1-.787-.787V524.3a.787.787,0,1,1,1.574,0v5.24A.787.787,0,0,1,1019.157,530.328Zm0-10.481a.787.787,0,0,1-.787-.787v-5.24a.787.787,0,1,1,1.574,0v5.24a.787.787,0,0,1-.787.787Zm0-10.481a.787.787,0,0,1-.787-.787v-5.24a.787.787,0,1,1,1.574,0v5.24A.787.787,0,0,1,1019.157,509.367Zm0-10.483a.787.787,0,0,1-.787-.785v-5.24a.787.787,0,1,1,1.574,0v5.24A.787.787,0,0,1,1019.157,498.884Zm0-10.481a.787.787,0,0,1-.787-.787v-5.24a.787.787,0,1,1,1.574,0v5.252A.787.787,0,0,1,1019.157,488.4Zm110.313-9.17h-4.193a.787.787,0,0,1,0-1.574h4.193a.787.787,0,1,1,0,1.574Zm-9.442,0H1114.8a.787.787,0,1,1,0-1.574h5.24a.787.787,0,1,1,0,1.574Zm-10.481,0h-5.24a.787.787,0,1,1,0-1.574h5.251a.787.787,0,0,1,0,1.574Zm-10.48,0h-5.24a.787.787,0,0,1,0-1.574h5.24a.787.787,0,0,1,0,1.574Zm-10.483,0h-5.24a.787.787,0,0,1,0-1.574h5.24a.787.787,0,1,1,0,1.574Zm-10.481,0h-5.24a.787.787,0,1,1,0-1.574h5.24a.787.787,0,1,1,0,1.574Zm-10.48,0h-5.24a.787.787,0,0,1,0-1.574h5.24a.787.787,0,0,1,0,1.574Zm-10.481,0h-5.24a.787.787,0,1,1,0-1.574h5.24a.787.787,0,0,1,0,1.574Zm-10.481,0h-5.243a.787.787,0,1,1,0-1.574h5.243a.787.787,0,1,1,0,1.574Zm-10.483,0h-5.24a.787.787,0,0,1,0-1.574h5.24a.787.787,0,1,1,0,1.574Zm-10.481,0h-5.231a.787.787,0,1,1,0-1.574h5.238a.787.787,0,0,1,0,1.574Z" transform="translate(-666.234 -283.999)" fill="#fff"/>
    <path id="Trazado_131271" data-name="Trazado 131271" d="M1972.529,1504.23c2.333.553,6.389,1.488,9.6,2.106a9.4,9.4,0,0,0,3.761.184c-.011.072-.025.142-.036.2a.674.674,0,0,1-.728.537,113.976,113.976,0,0,1-12.7-1.859.481.481,0,0,1-.283-.771A4.077,4.077,0,0,1,1972.529,1504.23Z" transform="translate(-1405.507 -1079.787)" fill="url(#linear-gradient-43)"/>
    <path id="Trazado_131272" data-name="Trazado 131272" d="M1983.831,1494.8c-3.212-.618-7.268-1.553-9.6-2.106,2.745-2.509,10.4-3.345,10.4-3.345l2.084.308a8.836,8.836,0,0,1,.875,5.328A9.4,9.4,0,0,1,1983.831,1494.8Z" transform="translate(-1407.208 -1068.253)" fill="url(#linear-gradient-44)"/>
    <path id="Trazado_131273" data-name="Trazado 131273" d="M2020.167,1473.835l-.764,3.822a.9.9,0,0,1-.875.719,3.446,3.446,0,0,1-1.545-.362,1.054,1.054,0,0,1-.584-.9l-.119-3.856Z" transform="translate(-1439.805 -1055.78)" fill="url(#linear-gradient-45)"/>
    <path id="Trazado_131274" data-name="Trazado 131274" d="M2135.958,1529.368a1.892,1.892,0,0,0,1.866-1v.016a1.347,1.347,0,0,1-1.124,1.387,5.886,5.886,0,0,1-2.542.022,2.492,2.492,0,0,1-1.738-1.124h0A6.5,6.5,0,0,0,2135.958,1529.368Z" transform="translate(-1529.836 -1098.501)" fill="url(#linear-gradient-46)"/>
    <path id="Trazado_131275" data-name="Trazado 131275" d="M2127.073,1490.28l1.718.252c2.626.333,3.455,6.094,3.678,8.318a1.893,1.893,0,0,1-1.866,1,6.376,6.376,0,0,1-3.539-.715,16.6,16.6,0,0,1-1.542-6.538A2.19,2.19,0,0,1,2127.073,1490.28Z" transform="translate(-1524.48 -1068.974)" fill="url(#linear-gradient-47)"/>
    <path id="Trazado_131276" data-name="Trazado 131276" d="M2128.4,1475.33l.393,3.934a1.041,1.041,0,0,1-.708,1.09,3.717,3.717,0,0,1-2.046.187.865.865,0,0,1-.616-.674l-.814-4.2Z" transform="translate(-1523.782 -1057.385)" fill="url(#linear-gradient-48)"/>
    <path id="Trazado_131277" data-name="Trazado 131277" d="M2042.02,1284.473c-1.349.879-5.225.45-5.225.45-8.992-35.43-13.979-41.01-13.979-41.01.151,12.9-5.643,40.54-5.643,40.54-2.444.674-5.254-.773-5.254-.773a217.274,217.274,0,0,0,.674-53.844c9.442,1.173,14.9-1.306,16.726-2.356C2035.3,1241.256,2042.02,1284.473,2042.02,1284.473Z" transform="translate(-1436.426 -865.253)" fill="url(#linear-gradient-49)"/>
    <path id="Trazado_131278" data-name="Trazado 131278" d="M2008.808,1050.455c.472,9.138-2.507,24.927-3.993,32.112-.418,2.023.589,5.051,1.452,7.147a.609.609,0,0,1-.369.814,42.37,42.37,0,0,1-16.636,2.077,1.091,1.091,0,0,1-.964-.964c-2.52-21.746-7.059-36.073-7.059-36.073C1990.1,1045.151,2008.808,1050.455,2008.808,1050.455Z" transform="translate(-1412.643 -726.978)" fill="url(#linear-gradient-50)"/>
    <path id="Trazado_131279" data-name="Trazado 131279" d="M2039.331,1274.673a.45.45,0,0,0,.481-.621,14.133,14.133,0,0,0-4.809-5.6.451.451,0,0,0-.506.746,13.488,13.488,0,0,1,4.5,5.2A.449.449,0,0,0,2039.331,1274.673Z" transform="translate(-1453.774 -896.954)" fill="url(#linear-gradient-51)"/>
    <path id="Trazado_131280" data-name="Trazado 131280" d="M2106.681,1170.945a30.838,30.838,0,0,1-7.616,12.6l-1.124-1.234a40.041,40.041,0,0,0,2.531-12.744A15.511,15.511,0,0,1,2106.681,1170.945Z" transform="translate(-1503.108 -820.354)" fill="url(#linear-gradient-52)"/>
    <path id="Trazado_131281" data-name="Trazado 131281" d="M2087.85,1065.768l3.6-10.658s11.782,12.106,7.418,27.114a15.515,15.515,0,0,0-6.216-1.376C2092.76,1075.842,2091.735,1070.237,2087.85,1065.768Z" transform="translate(-1495.286 -731.633)" fill="url(#linear-gradient-53)"/>
    <path id="Trazado_131282" data-name="Trazado 131282" d="M1957.011,1077.85l3.5,11.793c-1.812,6.542-5.816,8.9-9.838,9.442a23.664,23.664,0,0,0-.674-7.441C1955.694,1087.267,1957.011,1077.85,1957.011,1077.85Z" transform="translate(-1388.425 -749.261)" fill="url(#linear-gradient-54)"/>
    <path id="Trazado_131283" data-name="Trazado 131283" d="M1909.376,1139.16a23.664,23.664,0,0,1,.674,7.441c-10.888,2.473-12.47-5.672-12.47-5.672l1.951-.054A10.9,10.9,0,0,0,1909.376,1139.16Z" transform="translate(-1347.79 -796.788)" fill="url(#linear-gradient-55)"/>
    <path id="Trazado_131284" data-name="Trazado 131284" d="M2011.13,1013.958l1.124,9.46a1.8,1.8,0,0,0,2.194,1.526,36.106,36.106,0,0,0,3.806-1.1,2.408,2.408,0,0,0,1.349-3.3l-4.006-8.428Z" transform="translate(-1435.813 -698.3)" fill="url(#linear-gradient-56)"/>
    <path id="Trazado_131285" data-name="Trazado 131285" d="M1991.57,982.242c-.047.153.533,10.685.533,10.685l6.007-.45.933-10.062S1992.339,979.693,1991.57,982.242Z" transform="translate(-1420.648 -674.302)" fill="url(#linear-gradient-57)"/>
    <path id="Trazado_131286" data-name="Trazado 131286" d="M1989.095,971.494l-.076,5.337a.761.761,0,0,1-.032.2c-.119.4-.629,1.753-1.981,1.147a6.578,6.578,0,0,0-3.2-.9.744.744,0,0,0-.632.778A32.166,32.166,0,0,0,1983.8,983a.746.746,0,0,0,.829.567,23.741,23.741,0,0,0,5.434-1.349.746.746,0,0,0,.45-.611c.139-1.329.576-5.366.872-6.474.277-1.039,1.668-1.479,2.264-1.623a.738.738,0,0,0,.463-.346,1.932,1.932,0,0,0-.875-2.976.746.746,0,0,1-.328-1.023,1.939,1.939,0,0,0-.674-2.806,2.76,2.76,0,0,0-3.339.3.744.744,0,0,1-.955-.027.593.593,0,0,0-.674-.076.733.733,0,0,1-.982-.463,2.223,2.223,0,0,0-2.37-1.65c-2.671.061-3.39,2.9-2.954,4.7s3.329,1.56,4.858.915c1.162-.492,2.446.391,2.995.843A.744.744,0,0,1,1989.095,971.494Z" transform="translate(-1412.334 -661.351)" fill="url(#linear-gradient-58)"/>
    <path id="Trazado_131287" data-name="Trazado 131287" d="M2027.034,1007.131s-.63-3.147.578-3.727,2.783.049,2.1,2.167C2028.871,1008.208,2027.034,1007.131,2027.034,1007.131Z" transform="translate(-1448.015 -691.392)" fill="url(#linear-gradient-59)"/>
    <path id="Trazado_131288" data-name="Trazado 131288" d="M1887.083,1136.812c-.58.328-2.23-.778-3.23-1.522a1.263,1.263,0,0,1-.387-1.574c.382-.787.976-1.787,1.531-1.841C1885.921,1131.789,1889.464,1135.458,1887.083,1136.812Z" transform="translate(-1336.749 -791.14)" fill="url(#linear-gradient-60)"/>
    <path id="Trazado_131289" data-name="Trazado 131289" d="M1794.539,1087.351l-128.5-68.211-10.116,18.873,128.258,69.551a6.391,6.391,0,0,0,8.041-1.639c1.987-2.489,4.127-6.519,5.157-12.873A5.474,5.474,0,0,0,1794.539,1087.351Z" transform="translate(-1160.457 -703.75)" fill="url(#linear-gradient-61)"/>
    <path id="Trazado_131290" data-name="Trazado 131290" d="M1513.483,968.6l18.394,5.06c-.4,2.576-1.735,5.787-5.157,9.192L1512.6,970.233a.951.951,0,0,1,.886-1.634Z" transform="translate(-1049.097 -664.541)" fill="url(#linear-gradient-62)"/>
    <path id="Trazado_131291" data-name="Trazado 131291" d="M1604.494,997.481a26.378,26.378,0,0,1-10.116,18.873l-17.848-15.961c3.422-3.406,4.757-6.616,5.157-9.192Z" transform="translate(-1098.915 -682.091)" fill="#f5ca56"/>
    <path id="Trazado_131292" data-name="Trazado 131292" d="M1835.775,1121.844a.4.4,0,0,0,.442-.518.4.4,0,0,0-.2-.237l-122.986-64.97a.4.4,0,0,0-.375.713l122.986,64.97A.4.4,0,0,0,1835.775,1121.844Z" transform="translate(-1204.273 -732.38)" fill="url(#linear-gradient-63)"/>
    <path id="Trazado_131293" data-name="Trazado 131293" d="M1820.709,1155.174a.4.4,0,0,0,.245-.753l-122.99-64.981a.4.4,0,0,0-.375.713l122.986,64.97A.4.4,0,0,0,1820.709,1155.174Z" transform="translate(-1192.591 -758.209)" fill="url(#linear-gradient-64)"/>
    <path id="Trazado_131294" data-name="Trazado 131294" d="M2069.8,1221.091l-5.922-1.371-2.949,2.01s.49.94,2.473.735a27.868,27.868,0,0,1,4.638.063s2.473,1.574,2.837-.645Z" transform="translate(-1474.417 -859.238)" fill="url(#linear-gradient-65)"/>
  </g>
</svg>
