<svg xmlns="http://www.w3.org/2000/svg" width="387.599" height="302.246" viewBox="0 0 387.599 302.246">
  <g id="grafico-01" transform="translate(-13.502 -37.87)">
    <g id="OBJECTS" transform="translate(13.502 42.117)">
      <ellipse id="Elipse_4327" data-name="Elipse 4327" cx="178.561" cy="11.264" rx="178.561" ry="11.264" transform="translate(16.418 275.472)" fill="#e2e5fa"/>
      <path id="Trazado_131295" data-name="Trazado 131295" d="M198.18,159.624C184.238,115.258,121.412,101,85.41,134.14c-.514.472-1.035.959-1.549,1.452-51.626,49.188-28.654,172.118,80.031,200.1,112.786,29.049,220.237-24.344,226.533-74.5s-43.408-65.913-120.532-51.89C226.312,217.222,206.861,187.221,198.18,159.624Z" transform="translate(-21.053 -62.327)" fill="#e2e5fa"/>
      <path id="Trazado_131296" data-name="Trazado 131296" d="M40.7,242.894a19.129,19.129,0,0,0,5.617-15.767c-.63-5.57-2.725-12-9.112-11.809-11.158.334-11.954,24.692-5.476,29.841C34.7,247.476,37.988,245.624,40.7,242.894Z" transform="translate(-15.929 -89.531)" fill="#e2e5fa"/>
      <path id="Trazado_131297" data-name="Trazado 131297" d="M429.218,399.41a24.114,24.114,0,0,0,15.74-9.129c3.521-4.67,6.519-10.821,1.45-14.183-8.9-5.912-27.064,12.571-25.722,20.124C421.232,399.678,425.117,400.02,429.218,399.41Z" transform="translate(-83.364 -133.234)" fill="#e2e5fa"/>
      <path id="Trazado_131298" data-name="Trazado 131298" d="M461.074,364.04a11.016,11.016,0,0,0,5.567-7.2c.646-2.9.7-6.413-2.527-7.161-5.683-1.322-10.314,10.857-7.936,14.307C457.255,365.543,459.235,365.05,461.074,364.04Z" transform="translate(-89.358 -126.289)" fill="#e2e5fa"/>
      <path id="Trazado_131299" data-name="Trazado 131299" d="M302.1,116.629a15.77,15.77,0,0,0,3.8.508l1.408,4.9,6.13-1.358-1.35-4.692a14.142,14.142,0,0,0,3.471-2l5.542,2.9,3.239-4.757-5.111-2.68a10.952,10.952,0,0,0,1.094-4.583l5.592-1.235-1.549-5.374-5.36,1.227A12.464,12.464,0,0,0,316.2,95.96l2.742-4.031-5.426-2.84-2.651,3.871a16,16,0,0,0-5.608-.726l-1.35-4.684-6.13,1.351,1.417,4.9a13.892,13.892,0,0,0-3.073,2.063l-5.236-2.745-3.239,4.757,5.086,2.658a11.056,11.056,0,0,0-.828,4.924l-5.343,1.184,1.541,5.367,5.592-1.235a12.827,12.827,0,0,0,2.866,3.159l-3.007,4.445,5.426,2.84Zm-1.6-10.7c-.787-2.723,1.094-5.49,4.2-6.177s6.261.963,7.043,3.687-1.1,5.488-4.211,6.172-6.248-.965-7.033-3.682Z" transform="translate(-60.36 -54.555)" fill="#e2e5fa"/>
      <path id="Trazado_131300" data-name="Trazado 131300" d="M55.906,118.683a16.085,16.085,0,0,0,3.8.516l1.408,4.895,6.122-1.351-1.35-4.691a14.439,14.439,0,0,0,3.471-2.019l5.542,2.9,3.272-4.742-5.111-2.673a11.1,11.1,0,0,0,1.085-4.583l5.592-1.242-1.566-5.367-5.36,1.177A12.38,12.38,0,0,0,70,97.978l2.75-4.031-5.426-2.832L64.67,95.008a16.068,16.068,0,0,0-5.617-.726L57.7,89.59l-6.122,1.394,1.408,4.9a14.311,14.311,0,0,0-3.065,2.026l-5.244-2.738-3.239,4.75,5.086,2.665a11.014,11.014,0,0,0-.787,4.917L40.39,108.69l1.549,5.374,5.583-1.242a12.662,12.662,0,0,0,2.858,3.159l-3.032,4.459,5.434,2.854Zm-1.6-10.69c-.787-2.723,1.094-5.49,4.2-6.177s6.261.963,7.043,3.687-1.1,5.488-4.211,6.172-6.248-.965-7.033-3.682Z" transform="translate(-18.116 -55.113)" fill="#e2e5fa"/>
      <path id="Trazado_131301" data-name="Trazado 131301" d="M348.21,130.908a7.326,7.326,0,0,0,1.7.225l.638,2.179,2.75-.61-.613-2.1a6.409,6.409,0,0,0,1.557-.9l2.485,1.3,1.458-2.128-2.295-1.206a5.007,5.007,0,0,0,.489-2.055l2.485-.552-.7-2.411-2.4.53a5.691,5.691,0,0,0-1.259-1.583l1.234-1.808-2.435-1.271-1.193,1.743a7.1,7.1,0,0,0-2.485-.305l-.6-2.106-2.75.61.638,2.179a6.326,6.326,0,0,0-1.375.915l-2.353-1.235-1.45,2.135,2.278,1.191a5,5,0,0,0-.356,2.179l-2.394.537.688,2.4,2.485-.552a5.7,5.7,0,0,0,1.284,1.416l-1.359,2.063,2.427,1.278Zm-.721-4.8a2.271,2.271,0,0,1,1.887-2.752A2.637,2.637,0,0,1,352.52,125a2.268,2.268,0,0,1-1.875,2.759A2.654,2.654,0,0,1,347.49,126.107Z" transform="translate(-69.746 -62.849)" fill="#e2e5fa"/>
      <path id="Trazado_131302" data-name="Trazado 131302" d="M66.508,293.429c-.257.123-.522.24-.828.356a3.863,3.863,0,0,1-.828-.131c-3.314-.639-15.955-3.871-18.614-16.8-2.485-12.237,5.989-24.227,9.112-28.171a.888.888,0,0,1,.841-.288.785.785,0,0,1,.642.557c.77,3.254,2.941,10.712,7.456,15.781C70.169,271.257,80.756,286.6,66.508,293.429Z" transform="translate(-19.042 -98.584)" fill="#00a8a0"/>
      <path id="Trazado_131303" data-name="Trazado 131303" d="M68.5,299.121c-.257.123-.522.24-.828.356a3.864,3.864,0,0,1-.828-.131,79.674,79.674,0,0,1-5.318-12.4,100.162,100.162,0,0,1-4.142-17.067.728.728,0,0,1,.7-.7.782.782,0,0,1,.858.545,99.459,99.459,0,0,0,4.076,16.856A77.617,77.617,0,0,0,68.5,299.121Z" transform="translate(-21.031 -104.276)" fill="#007e87"/>
      <path id="Trazado_131304" data-name="Trazado 131304" d="M66.981,320.414l-.538.167c-3,.871-17.984,4.466-29.251-6.6-10.024-9.862-17.09-15.7-23.087-17.6a.809.809,0,0,1-.6-.817.851.851,0,0,1,.733-.73c14.033-2.36,55.884-6.848,52.885,24.307C67.081,319.564,67.039,319.985,66.981,320.414Z" transform="translate(-13.502 -110.84)" fill="#22d4b8"/>
      <path id="Trazado_131305" data-name="Trazado 131305" d="M70.683,322.557l-.538.167c-11.672-11.809-34.47-20.385-34.751-20.494a.64.64,0,0,1-.257-.832.817.817,0,0,1,.87-.4A147.881,147.881,0,0,1,54.57,309.71a76.988,76.988,0,0,1,16.253,11.62C70.782,321.708,70.741,322.129,70.683,322.557Z" transform="translate(-17.203 -112.984)" fill="#00a8a0"/>
      <path id="Trazado_131306" data-name="Trazado 131306" d="M344.5,407.573c.249.138.505.269.77.4a5.268,5.268,0,0,0,.828-.094c3.388-.472,16.187-3.094,19.641-15.876,3.314-12.1-4.465-24.482-7.373-28.57a.876.876,0,0,0-.823-.33.8.8,0,0,0-.677.527c-.978,3.21-3.6,10.552-8.425,15.4C342.231,385.263,330.667,400.064,344.5,407.573Z" transform="translate(-69.185 -129.988)" fill="#00a8a0"/>
      <path id="Trazado_131307" data-name="Trazado 131307" d="M345.85,413.25c.249.138.505.269.77.4a5.27,5.27,0,0,0,.828-.094,80.8,80.8,0,0,0,6.1-12.128,101.458,101.458,0,0,0,5.186-16.841.713.713,0,0,0-.655-.746.791.791,0,0,0-.894.521,99.76,99.76,0,0,1-5.128,16.631,78.16,78.16,0,0,1-6.2,12.259Z" transform="translate(-70.534 -135.664)" fill="#007e87"/>
      <path id="Trazado_131308" data-name="Trazado 131308" d="M343.664,422.189s.182.073.53.189c2.941,1.009,17.678,5.323,29.615-5.185,10.653-9.368,18.051-14.859,24.164-16.464a.819.819,0,0,0,.663-.788.832.832,0,0,0-.7-.759c-13.867-3.036-55.37-9.528-54.326,21.729C343.614,421.332,343.639,421.753,343.664,422.189Z" transform="translate(-70.146 -139.128)" fill="#22d4b8"/>
      <path id="Trazado_131309" data-name="Trazado 131309" d="M343.673,424.367s.182.073.53.189c12.426-11.235,35.687-18.7,35.977-18.8a.752.752,0,0,0,.446-.353.606.606,0,0,0,.027-.526.867.867,0,0,0-1-.414A151.568,151.568,0,0,0,360.6,412.29a78.685,78.685,0,0,0-16.949,10.8A11.025,11.025,0,0,0,343.673,424.367Z" transform="translate(-70.154 -141.306)" fill="#00a8a0"/>
      <path id="Trazado_131310" data-name="Trazado 131310" d="M432.451,146.651c.282.044.58.08.878.109,0,0,.273-.116.729-.363,2.916-1.576,13.594-8.286,11.208-21.257-2.253-12.281-14.812-21.119-19.285-23.922a.926.926,0,0,0-.933-.025.692.692,0,0,0-.368.752c.5,3.29,1.276,10.959-1.06,17.045C420.613,126.8,416.38,144.327,432.451,146.651Z" transform="translate(-83.391 -58.258)" fill="#00a8a0"/>
      <path id="Trazado_131311" data-name="Trazado 131311" d="M434.42,152.019c.282.044.58.08.878.109,0,0,.273-.116.729-.363a75.46,75.46,0,0,0,.331-13.247,98.369,98.369,0,0,0-2.568-17.3.79.79,0,0,0-.936-.516.689.689,0,0,0-.588.821,97.424,97.424,0,0,1,2.527,17.088A73.6,73.6,0,0,1,434.42,152.019Z" transform="translate(-85.36 -63.626)" fill="#007e87"/>
      <path id="Trazado_131312" data-name="Trazado 131312" d="M447.17,146.521s.2-.044.547-.145c3.007-.835,17.554-5.636,19.268-20.393,1.532-13.152,3.314-21.5,6.917-26.145a.723.723,0,0,0-.056-.968,1,1,0,0,0-1.079-.209c-12.948,5.3-49.836,23.2-26.558,46.886C446.515,145.882,446.838,146.2,447.17,146.521Z" transform="translate(-86.463 -57.576)" fill="#22d4b8"/>
      <path id="Trazado_131313" data-name="Trazado 131313" d="M448.731,151.149s.2-.044.547-.145c1.549-15.563,14.265-34.242,14.422-34.475a.6.6,0,0,0,.092-.517.692.692,0,0,0-.357-.42.873.873,0,0,0-.594-.081.778.778,0,0,0-.483.314,118.733,118.733,0,0,0-9.2,16.616,62.463,62.463,0,0,0-5.393,17.749C448.077,150.509,448.4,150.829,448.731,151.149Z" transform="translate(-88.024 -62.204)" fill="#00a8a0"/>
      <path id="Trazado_131314" data-name="Trazado 131314" d="M166.066,272.14l1.06,2.048,1.574-1.38-8.831-17.038a21.567,21.567,0,0,1,2.634-7.052c3.048-5.389,5.211-11.62.878-10.966-3.761.566-5.956,7.727-5.31,14.525l-3.413-6.558a30.325,30.325,0,0,1-1.615-8.925c0-8.323-1.773-16.2-6.2-13.8s-1.118,15.9,6.346,24.314l1.764,3.392c-5.318-6.209-14.994-10.981-18.415-8.533s3.355,5.084,10,6.631a26.08,26.08,0,0,1,9.485,3.973l8.284,16.021c-8.45-9.811-23.725-17.328-29.151-13.45s5.335,8.09,15.88,10.516C159.025,267.7,163.772,270.491,166.066,272.14Z" transform="translate(-34.129 -91.515)" fill="#22d4b8"/>
      <path id="Trazado_131315" data-name="Trazado 131315" d="M235.024,129.98l-1.06,2.048-1.574-1.373,8.831-17.045a21.482,21.482,0,0,0-2.634-7.045c-3.048-5.4-5.211-11.62-.878-10.973,3.761.566,5.956,7.727,5.31,14.561l3.413-6.594a30.293,30.293,0,0,0,1.615-8.925c0-8.315,1.773-16.2,6.2-13.8s1.118,15.9-6.345,24.314l-1.748,3.4c5.318-6.209,14.994-10.981,18.415-8.533s-3.363,5.084-10,6.631a25.939,25.939,0,0,0-9.5,3.965l-8.284,16.021c8.45-9.819,23.725-17.335,29.143-13.457s-5.327,8.09-15.872,10.516C242.066,125.543,237.3,128.339,235.024,129.98Z" transform="translate(-51.064 -52.597)" fill="#22d4b8"/>
      <path id="Trazado_131444" data-name="Trazado 131444" d="M44.214,2.905c24.419,1.6,45.515,22.7,47.119,47.119S74.443,92.937,50.024,91.333,4.51,68.632,2.905,44.214,19.8,1.3,44.214,2.905Z" transform="translate(55.235 58.419) rotate(-45)" fill="#7c3cdf"/>
      <path id="Trazado_131445" data-name="Trazado 131445" d="M34.259,2.191C53.18,3.4,69.5,20.337,70.709,40.019S57.561,74.675,38.64,73.465,3.4,55.319,2.191,35.637,15.338.981,34.259,2.191Z" transform="matrix(0.592, -0.806, 0.806, 0.592, 69.806, 65.42)" fill="#fff9ff"/>
      <path id="Trazado_131446" data-name="Trazado 131446" d="M26.934,1.123c14.875.62,27.437,12.055,28.057,25.539S44.055,50.575,29.18,49.955,1.744,37.9,1.123,24.416,12.059.5,26.934,1.123Z" transform="translate(86.553 44.559) rotate(-20.87)" fill="#7c3cdf"/>
      <path id="Trazado_131447" data-name="Trazado 131447" d="M15.332.044C23.8.068,30.683,7.916,30.707,17.574S23.887,35.041,15.419,35.017.068,27.144.044,17.487,6.864.02,15.332.044Z" transform="matrix(0.02, -1, 1, 0.02, 104.04, 73.441)" fill="#fff9ff"/>
      <path id="Trazado_131316" data-name="Trazado 131316" d="M161.1,126.471c-4.048.994-8.25-1.077-9.384-4.626s1.228-7.233,5.276-8.227,8.25,1.076,9.385,4.625S165.143,125.473,161.1,126.471Z" transform="translate(-37.171 -61.623)" fill="#7c3cdf"/>
      <path id="Trazado_131317" data-name="Trazado 131317" d="M213.327,82.741l-11.382-1.518,1.731-9.971a1.083,1.083,0,0,0-1.006-1.2,1.191,1.191,0,0,0-1.371.882L199.427,81.71l-4.374,2.825,1.516-8.715a1.1,1.1,0,0,0-1.022-1.138,1.211,1.211,0,0,0-1.363.818l-1.872,10.777-5.517,3.559,1.508-8.715a.989.989,0,0,0-.4-1.043,1.346,1.346,0,0,0-1.242-.166,1.083,1.083,0,0,0-.74.889L184.044,91.58l-23.261,15a2.788,2.788,0,0,0,0,2.622L185.758,93.17l11.854,1.583A1.311,1.311,0,0,0,198.8,94.4a.958.958,0,0,0,.19-1.089,1.207,1.207,0,0,0-1.015-.649L188.509,91.4l5.517-3.559,11.854,1.583a1.311,1.311,0,0,0,1.189-.354.958.958,0,0,0,.19-1.089,1.207,1.207,0,0,0-1.015-.649l-9.477-1.264,4.374-2.818L213,84.833a1.311,1.311,0,0,0,1.189-.354.958.958,0,0,0,.19-1.089,1.207,1.207,0,0,0-1.015-.649Z" transform="translate(-38.719 -49.76)" fill="#2a3554"/>
      <rect id="Rectángulo_30956" data-name="Rectángulo 30956" width="36.458" height="61.2" transform="translate(239.397 217.983)" fill="#2a3554"/>
      <path id="Trazado_131318" data-name="Trazado 131318" d="M338.948,344.136,302.49,350.23v-7.96h36.458Z" transform="translate(-63.093 -124.287)" fill="#021019"/>
      <rect id="Rectángulo_30957" data-name="Rectángulo 30957" width="244.501" height="144.013" rx="5.66" transform="translate(133.892 73.97)" fill="#2a3554"/>
      <path id="Trazado_131319" data-name="Trazado 131319" d="M414.5,156.062V280.249a4.5,4.5,0,0,1-4.763,4.176H187.722a5.127,5.127,0,0,1-1.657-.269A4.21,4.21,0,0,1,183,280.213V156.026a3.925,3.925,0,0,1,1.39-2.952,5.114,5.114,0,0,1,3.365-1.224h222.01a5.258,5.258,0,0,1,1.806.312A4.192,4.192,0,0,1,414.5,156.062Z" transform="translate(-42.588 -72.157)" fill="#fff9ff"/>
      <path id="Trazado_131320" data-name="Trazado 131320" d="M414.5,156.076v6.18H183v-6.18a3.925,3.925,0,0,1,1.39-2.952,5.114,5.114,0,0,1,3.365-1.224h222.01A4.5,4.5,0,0,1,414.5,156.076Z" transform="translate(-42.588 -72.171)" fill="#e2e5fa"/>
      <path id="Trazado_131321" data-name="Trazado 131321" d="M220.85,158.623h0A1.478,1.478,0,0,0,222.407,160H378.792a1.479,1.479,0,0,0,1.566-1.373h0a1.479,1.479,0,0,0-1.566-1.373H222.407a1.477,1.477,0,0,0-1.557,1.373Z" transform="translate(-49.084 -73.636)" fill="#fff9ff"/>
      <path id="Trazado_131322" data-name="Trazado 131322" d="M198.726,158.614v1.017a.372.372,0,0,1-.216.327.484.484,0,0,1-.431,0l-1-.508-1-.508a.356.356,0,0,1,0-.654l1-.508,1-.508a.484.484,0,0,1,.431,0,.372.372,0,0,1,.216.327Z" transform="translate(-44.795 -73.628)" fill="#2a3554"/>
      <path id="Trazado_131323" data-name="Trazado 131323" d="M205.62,158.614v1.017a.372.372,0,0,0,.216.327.484.484,0,0,0,.431,0l1-.508,1-.508a.356.356,0,0,0,0-.654l-1-.508-1-.508a.484.484,0,0,0-.431,0,.372.372,0,0,0-.216.327Z" transform="translate(-46.47 -73.628)" fill="#2a3554"/>
      <path id="Trazado_131324" data-name="Trazado 131324" d="M439.569,158.236a2.048,2.048,0,0,1-1.426,1.884,2.563,2.563,0,0,1-2.531-.436,1.855,1.855,0,0,1-.506-2.217,2.343,2.343,0,0,1,2.144-1.257,2.488,2.488,0,0,1,1.64.591,1.909,1.909,0,0,1,.68,1.435Z" transform="translate(-85.821 -73.351)" fill="#22d4b8"/>
      <path id="Trazado_131325" data-name="Trazado 131325" d="M429.239,158.236a2.048,2.048,0,0,1-1.426,1.884,2.563,2.563,0,0,1-2.531-.436,1.855,1.855,0,0,1-.507-2.217,2.343,2.343,0,0,1,2.144-1.257,2.488,2.488,0,0,1,1.64.591,1.909,1.909,0,0,1,.68,1.435Z" transform="translate(-84.048 -73.351)" fill="#7c3cdf"/>
      <path id="Trazado_131326" data-name="Trazado 131326" d="M449.9,158.236a2.048,2.048,0,0,1-1.428,1.885,2.563,2.563,0,0,1-2.532-.439,1.854,1.854,0,0,1-.5-2.219,2.345,2.345,0,0,1,2.15-1.252A2.183,2.183,0,0,1,449.9,158.236Z" transform="translate(-87.593 -73.351)" fill="#ff495a"/>
      <rect id="Rectángulo_30958" data-name="Rectángulo 30958" width="19.691" height="78.216" transform="translate(150.734 103.695)" fill="#e2e5fa"/>
      <rect id="Rectángulo_30959" data-name="Rectángulo 30959" width="19.691" height="5.193" transform="translate(150.734 103.695)" fill="#2a3554"/>
      <rect id="Rectángulo_30960" data-name="Rectángulo 30960" width="19.691" height="38.483" transform="translate(343.899 143.427)" fill="#e2e5fa"/>
      <rect id="Rectángulo_30961" data-name="Rectángulo 30961" width="19.691" height="5.519" transform="translate(343.899 143.427)" fill="#2a3554"/>
      <rect id="Rectángulo_30962" data-name="Rectángulo 30962" width="19.691" height="22.426" transform="translate(344.346 103.963)" fill="#e2e5fa"/>
      <rect id="Rectángulo_30963" data-name="Rectángulo 30963" width="19.691" height="5.519" transform="translate(344.346 103.963)" fill="#2a3554"/>
      <rect id="Rectángulo_30964" data-name="Rectángulo 30964" width="156.699" height="77.947" transform="translate(179.338 103.963)" fill="#e2e5fa"/>
      <rect id="Rectángulo_30965" data-name="Rectángulo 30965" width="156.699" height="6.689" transform="translate(179.338 103.963)" fill="#2a3554"/>
      <path id="Trazado_131327" data-name="Trazado 131327" d="M258.721,262.485a.368.368,0,0,1-.381-.334V200.6a.392.392,0,0,1,.754,0v61.549a.359.359,0,0,1-.373.334Z" transform="translate(-55.517 -85.426)" fill="#2a3554"/>
      <path id="Trazado_131328" data-name="Trazado 131328" d="M259.67,200.545a1.145,1.145,0,1,1-1.135-.995,1.213,1.213,0,0,1,.8.289A.929.929,0,0,1,259.67,200.545Z" transform="translate(-55.356 -85.216)" fill="#2a3554"/>
      <path id="Trazado_131329" data-name="Trazado 131329" d="M259.67,285.088a1,1,0,0,1-.695.924,1.255,1.255,0,0,1-1.24-.211.908.908,0,0,1-.25-1.085,1.146,1.146,0,0,1,1.049-.616,1.073,1.073,0,0,1,1.135.988Z" transform="translate(-55.356 -108.362)" fill="#2a3554"/>
      <path id="Trazado_131330" data-name="Trazado 131330" d="M389.973,262.47a.359.359,0,0,1-.373-.334V200.587a.376.376,0,0,1,.746,0v61.549a.359.359,0,0,1-.373.334Z" transform="translate(-78.042 -85.41)" fill="#2a3554"/>
      <path id="Trazado_131331" data-name="Trazado 131331" d="M390.93,200.545a1.145,1.145,0,1,1-1.135-.995A1.072,1.072,0,0,1,390.93,200.545Z" transform="translate(-77.881 -85.216)" fill="#2a3554"/>
      <path id="Trazado_131332" data-name="Trazado 131332" d="M390.93,285.088a1.144,1.144,0,1,1-1.16-.988,1.226,1.226,0,0,1,.816.281A.94.94,0,0,1,390.93,285.088Z" transform="translate(-77.881 -108.362)" fill="#2a3554"/>
      <text id="Aa" transform="translate(212.383 161.118)" fill="#2a3554" font-size="52" font-family="SegoeUIBlack, Segoe UI"><tspan x="0" y="0">Aa</tspan></text>
      <rect id="Rectángulo_30966" data-name="Rectángulo 30966" width="122.072" height="107.018" transform="translate(52.204 180.705)" fill="#dfb74b"/>
      <path id="Trazado_131333" data-name="Trazado 131333" d="M394.212,342.27v61.2H217.2a4.291,4.291,0,1,0,0,8.548H399.083c2.695,0,4.879-1.915,4.879-4.278V342.27Z" transform="translate(-47.655 -124.287)" fill="#dfb74b"/>
      <path id="Trazado_131334" data-name="Trazado 131334" d="M441.6,343.686l-9.75,2.179V342.27h9.75Z" transform="translate(-85.292 -124.287)" fill="#2c0a8e"/>
      <rect id="Rectángulo_30967" data-name="Rectángulo 30967" width="122.072" height="107.018" transform="translate(39.48 180.705)" fill="#f5ca56"/>
      <path id="Trazado_131335" data-name="Trazado 131335" d="M171.407,380.749h-2.485a.628.628,0,1,1,0-1.256h2.485a.758.758,0,0,1,.688.293.567.567,0,0,1,0,.671A.758.758,0,0,1,171.407,380.749Zm-5.973,0h-2.485a.759.759,0,0,1-.688-.293.567.567,0,0,1,0-.671.759.759,0,0,1,.688-.293h2.485a.758.758,0,0,1,.688.293.567.567,0,0,1,0,.671A.759.759,0,0,1,165.435,380.749Zm-5.964,0h-2.485a.759.759,0,0,1-.688-.293.567.567,0,0,1,0-.671.759.759,0,0,1,.688-.293h2.485a.628.628,0,1,1,0,1.256Zm-5.973,0h-2.485a.628.628,0,1,1,0-1.256H153.5a.758.758,0,0,1,.688.293.567.567,0,0,1,0,.671A.759.759,0,0,1,153.5,380.749Zm-5.973,0h-2.485a.759.759,0,0,1-.688-.293.567.567,0,0,1,0-.671.759.759,0,0,1,.688-.293h2.485a.758.758,0,0,1,.688.293.567.567,0,0,1,0,.671A.759.759,0,0,1,147.525,380.749Zm-5.964,0h-2.485a.759.759,0,0,1-.688-.293.567.567,0,0,1,0-.671.759.759,0,0,1,.688-.293h2.485a.628.628,0,1,1,0,1.256Zm-5.973,0H133.1a.628.628,0,1,1,0-1.256h2.485a.758.758,0,0,1,.688.293.567.567,0,0,1,0,.671A.759.759,0,0,1,135.587,380.749Zm-5.973,0H127.13a.759.759,0,0,1-.688-.293.567.567,0,0,1,0-.671.759.759,0,0,1,.688-.293h2.485a.758.758,0,0,1,.688.293.567.567,0,0,1,0,.671A.759.759,0,0,1,129.615,380.749Zm-5.964,0h-2.485a.758.758,0,0,1-.688-.293.567.567,0,0,1,0-.671.758.758,0,0,1,.688-.293h2.485a.628.628,0,1,1,0,1.256Zm-5.973,0h-2.485a.628.628,0,1,1,0-1.256h2.485a.758.758,0,0,1,.688.293.567.567,0,0,1,0,.671A.758.758,0,0,1,117.678,380.749Zm-5.973,0H109.22a.759.759,0,0,1-.688-.293.567.567,0,0,1,0-.671.759.759,0,0,1,.688-.293H111.7a.758.758,0,0,1,.688.293.567.567,0,0,1,0,.671A.759.759,0,0,1,111.7,380.749Zm-5.964,0h-2.485a.759.759,0,0,1-.688-.293.567.567,0,0,1,0-.671.759.759,0,0,1,.688-.293h2.485a.628.628,0,1,1,0,1.256Zm-5.973,0H97.282a.628.628,0,1,1,0-1.256h2.485a.758.758,0,0,1,.688.293.567.567,0,0,1,0,.671A.759.759,0,0,1,99.768,380.749Zm-5.973,0H91.31a.759.759,0,0,1-.688-.293.567.567,0,0,1,0-.671.759.759,0,0,1,.688-.293h2.485a.758.758,0,0,1,.688.293.567.567,0,0,1,0,.671A.759.759,0,0,1,93.795,380.749Zm-5.964,0H85.345a.759.759,0,0,1-.688-.293.567.567,0,0,1,0-.671.759.759,0,0,1,.688-.293H87.83a.628.628,0,1,1,0,1.256Zm-5.973,0H79.373a.628.628,0,1,1,0-1.256h2.485a.758.758,0,0,1,.688.293.567.567,0,0,1,0,.671.759.759,0,0,1-.688.293Zm92.929-.472a.772.772,0,0,1-.6-.276.588.588,0,0,1,.224-.871,2.133,2.133,0,0,0,1.011-1.373.72.72,0,0,1,.841-.5.642.642,0,0,1,.576.737,3.435,3.435,0,0,1-1.616,2.179.751.751,0,0,1-.439.109Zm-98.455-.726a.755.755,0,0,1-.588-.269,3,3,0,0,1-.638-2.542.658.658,0,0,1,.439-.472.577.577,0,0,1,0-.61l1.243-1.881a.773.773,0,0,1,.977-.232.588.588,0,0,1,.265.857l-1.243,1.888a.694.694,0,0,1-.356.269.538.538,0,0,1,.066.407,1.97,1.97,0,0,0,.406,1.6.567.567,0,0,1,.043.648.738.738,0,0,1-.632.339Zm98.753-3.922a.743.743,0,0,1-.621-.32l-1.243-1.881a.567.567,0,0,1-.043-.661.743.743,0,0,1,.653-.332.732.732,0,0,1,.633.361l1.243,1.888a.558.558,0,0,1,.071.477.644.644,0,0,1-.336.38.74.74,0,0,1-.356.116ZM79.149,372.1a.744.744,0,0,1-.619-.316.565.565,0,0,1,0-.628l1.243-1.888a.779.779,0,0,1,.986-.225.642.642,0,0,1,.332.382.558.558,0,0,1-.075.475l-1.234,1.888a.764.764,0,0,1-.63.312Zm92.954-.959a.743.743,0,0,1-.621-.32l-1.209-1.859a.567.567,0,0,1-.043-.661.743.743,0,0,1,.653-.332.732.732,0,0,1,.633.361l1.243,1.888a.558.558,0,0,1,.071.477.644.644,0,0,1-.337.38.79.79,0,0,1-.389.065Zm-89.947-3.559a.809.809,0,0,1-.364-.087.642.642,0,0,1-.332-.382.558.558,0,0,1,.075-.475l1.243-1.888a.786.786,0,0,1,.953-.185.594.594,0,0,1,.29.817l-1.243,1.881a.748.748,0,0,1-.621.305Zm86.981-.973a.752.752,0,0,1-.621-.32l-1.234-1.881a.567.567,0,0,1-.043-.661.743.743,0,0,1,.653-.332.732.732,0,0,1,.633.361l1.234,1.881a.591.591,0,0,1-.257.864.816.816,0,0,1-.389.073ZM85.163,363.05a.753.753,0,0,1-.356-.087.644.644,0,0,1-.337-.38.558.558,0,0,1,.071-.477l1.243-1.888a.732.732,0,0,1,.633-.361.743.743,0,0,1,.653.332.567.567,0,0,1-.043.661l-1.251,1.866a.745.745,0,0,1-.638.32Zm80.967-.995a.737.737,0,0,1-.621-.312l-1.243-1.881a.564.564,0,0,1-.072-.48.65.65,0,0,1,.337-.384.8.8,0,0,1,.544-.063.706.706,0,0,1,.433.3l1.243,1.881a.564.564,0,0,1,.072.48.651.651,0,0,1-.337.384.746.746,0,0,1-.356.08ZM88.12,358.5a.744.744,0,0,1-.619-.316.565.565,0,0,1,0-.628l1.243-1.888a.732.732,0,0,1,.633-.361.743.743,0,0,1,.653.332.567.567,0,0,1-.043.661l-1.234,1.881A.753.753,0,0,1,88.12,358.5Zm75.028-.98a.736.736,0,0,1-.621-.312l-1.243-1.888a.588.588,0,0,1,.265-.857.773.773,0,0,1,.977.232l1.243,1.881a.564.564,0,0,1,.072.48.65.65,0,0,1-.337.384A.774.774,0,0,1,163.148,357.523Zm-72.07-3.551a.808.808,0,0,1-.364-.087.591.591,0,0,1-.257-.864L91.7,351.14a.778.778,0,0,1,.977-.232.6.6,0,0,1,.265.864L91.7,353.653a.738.738,0,0,1-.588.32Zm69.088-.988a.746.746,0,0,1-.63-.312l-1.234-1.888a.588.588,0,0,1,.265-.857.773.773,0,0,1,.978.232l1.243,1.881a.6.6,0,0,1-.265.864A.922.922,0,0,1,160.166,352.985ZM94.06,349.433a.746.746,0,0,1-.356-.08.651.651,0,0,1-.337-.384.564.564,0,0,1,.072-.48l1.243-1.881a.706.706,0,0,1,.433-.3.8.8,0,0,1,.544.063.65.65,0,0,1,.337.384.564.564,0,0,1-.072.48l-1.243,1.881A.737.737,0,0,1,94.06,349.433Zm63.082-.973a.754.754,0,0,1-.621-.312l-1.243-1.888a.588.588,0,0,1,.265-.857.773.773,0,0,1,.977.232l1.243,1.881a.558.558,0,0,1,.071.477.644.644,0,0,1-.337.38.749.749,0,0,1-.323.087Zm-60.1-3.559a.793.793,0,0,1-.356-.08.6.6,0,0,1-.265-.864l1.243-1.881a.773.773,0,0,1,.977-.232.588.588,0,0,1,.265.857l-1.234,1.888a.75.75,0,0,1-.6.312Zm57.159-.973a.754.754,0,0,1-.621-.312l-1.243-1.888a.594.594,0,0,1,.29-.817.786.786,0,0,1,.953.185l1.243,1.888a.558.558,0,0,1,.071.477.644.644,0,0,1-.337.38.781.781,0,0,1-.364.087Zm-54.127-3.559a.924.924,0,0,1-.364-.08.591.591,0,0,1-.257-.864l1.243-1.881a.706.706,0,0,1,.433-.3.8.8,0,0,1,.544.063.591.591,0,0,1,.265.857l-1.243,1.888a.738.738,0,0,1-.63.312Zm51.145-.973a.752.752,0,0,1-.621-.32l-1.234-1.881a.558.558,0,0,1-.075-.475.642.642,0,0,1,.332-.382.779.779,0,0,1,.986.225l1.243,1.888a.565.565,0,0,1,0,.631A.746.746,0,0,1,151.219,339.4Zm-48.155-3.559a.752.752,0,0,1-.356-.087.644.644,0,0,1-.336-.38.558.558,0,0,1,.071-.477l1.243-1.881a.773.773,0,0,1,.977-.232.588.588,0,0,1,.265.857l-1.243,1.888a.739.739,0,0,1-.638.312Zm45.172-.973a.743.743,0,0,1-.621-.32l-1.243-1.881a.567.567,0,0,1-.043-.661.743.743,0,0,1,.653-.332.732.732,0,0,1,.633.361l1.243,1.888a.558.558,0,0,1,.071.477.644.644,0,0,1-.337.38.754.754,0,0,1-.373.087Zm-42.19-3.559a.744.744,0,0,1-.619-.316.565.565,0,0,1,0-.628l1.243-1.888a.779.779,0,0,1,.986-.225.642.642,0,0,1,.332.382.558.558,0,0,1-.075.475l-1.234,1.888a.766.766,0,0,1-.646.312Zm39.208-.973a.743.743,0,0,1-.621-.32l-1.243-1.881a.567.567,0,0,1-.043-.661.743.743,0,0,1,.653-.332.732.732,0,0,1,.633.361l1.243,1.888a.558.558,0,0,1,.071.477.644.644,0,0,1-.336.38.782.782,0,0,1-.373.087Zm-36.217-3.559a.809.809,0,0,1-.365-.087.642.642,0,0,1-.332-.382.558.558,0,0,1,.075-.475l1.243-1.888a.786.786,0,0,1,.953-.185.594.594,0,0,1,.29.817l-1.243,1.881a.745.745,0,0,1-.638.32Zm33.235-.98a.746.746,0,0,1-.63-.312l-1.234-1.881a.567.567,0,0,1-.043-.661.743.743,0,0,1,.653-.332.732.732,0,0,1,.633.361l1.243,1.881a.6.6,0,0,1-.265.864.794.794,0,0,1-.373.08Zm-30.253-3.551a.752.752,0,0,1-.356-.087.644.644,0,0,1-.337-.38.558.558,0,0,1,.071-.477l1.243-1.888a.732.732,0,0,1,.633-.361.743.743,0,0,1,.653.332.567.567,0,0,1-.043.661l-1.243,1.881a.745.745,0,0,1-.638.32Zm27.262-.98a.737.737,0,0,1-.621-.312l-1.243-1.881a.6.6,0,0,1,.265-.864.8.8,0,0,1,.544-.063.706.706,0,0,1,.433.295l1.243,1.881a.564.564,0,0,1,.072.48.651.651,0,0,1-.337.384.747.747,0,0,1-.373.08ZM115,317.711a.744.744,0,0,1-.619-.316.565.565,0,0,1,0-.628l1.243-1.888a.732.732,0,0,1,.633-.361.743.743,0,0,1,.653.332.567.567,0,0,1-.043.661L115.6,317.4a.762.762,0,0,1-.613.312Zm21.306-.98a.736.736,0,0,1-.621-.312l-1.243-1.888a.588.588,0,0,1,.265-.857.773.773,0,0,1,.978.232l1.243,1.881a.564.564,0,0,1,.072.48.65.65,0,0,1-.337.384.774.774,0,0,1-.356.08ZM118,313.172a.737.737,0,0,1-.626-.312.559.559,0,0,1,0-.632l1.243-1.881a.706.706,0,0,1,.433-.3.8.8,0,0,1,.544.063.6.6,0,0,1,.265.864l-1.243,1.881a.74.74,0,0,1-.646.312Zm15.325-.973a.746.746,0,0,1-.63-.312L131.462,310a.588.588,0,0,1,.265-.857.773.773,0,0,1,.977.232l1.243,1.881a.6.6,0,0,1-.265.864.925.925,0,0,1-.381.08Zm-12.343-3.559a.746.746,0,0,1-.356-.08.65.65,0,0,1-.337-.384.564.564,0,0,1,.072-.48l1.243-1.881a.706.706,0,0,1,.433-.3.8.8,0,0,1,.544.063.651.651,0,0,1,.337.384.564.564,0,0,1-.072.48l-1.243,1.881a.74.74,0,0,1-.646.312Zm9.353-.973a.754.754,0,0,1-.621-.312l-1.243-1.888a.594.594,0,0,1,.29-.817.786.786,0,0,1,.953.185l1.243,1.888a.558.558,0,0,1,.071.477.644.644,0,0,1-.337.38.754.754,0,0,1-.381.087Zm-6.13-3.392a.715.715,0,0,1-.678-.445.592.592,0,0,1,.272-.7,4.215,4.215,0,0,1,2.179-.588,4.752,4.752,0,0,1,.729.058.643.643,0,0,1,.572.726.712.712,0,0,1-.828.5,2.773,2.773,0,0,0-1.831.327.8.8,0,0,1-.439.123Z" transform="translate(-24.062 -113.411)" fill="#907221"/>
      <path id="Trazado_131336" data-name="Trazado 131336" d="M163.872,378.894H93.2a3.234,3.234,0,0,1-2.71-1.374,2.455,2.455,0,0,1,0-2.744l17.661-26.827,17.67-26.827a3.365,3.365,0,0,1,5.426,0l.7,1.082,16.957,25.745,17.67,26.827a2.455,2.455,0,0,1,0,2.744,3.234,3.234,0,0,1-2.71,1.374Z" transform="translate(-26.642 -118.121)" fill="#a38532"/>
      <path id="Trazado_131337" data-name="Trazado 131337" d="M165.3,379.82H101.512a3.234,3.234,0,0,1-2.71-1.374,2.455,2.455,0,0,1,0-2.744l17.661-26.827,16.957-25.745,16.957,25.745,17.67,26.827a2.456,2.456,0,0,1-.009,2.76A3.243,3.243,0,0,1,165.3,379.82Z" transform="translate(-28.068 -119.047)" fill="#c6a13b"/>
      <path id="Trazado_131338" data-name="Trazado 131338" d="M86.458,207.15s-10.769,12.607-12.219,23.6c-.994,7.763,12.219,19.369,12.219,19.369l4.556-1.99-4.556-8.976c-1.657-4.357-3.6-6.108-2.137-10.516l3.314-6.224Z" transform="translate(-23.915 -87.296)" fill="#5320b1"/>
      <path id="Trazado_131339" data-name="Trazado 131339" d="M129.082,206.89s10.678,13.443,11.6,24.481c.762,9.521-12.269,18.679-12.269,18.679l-3.761-1.641,5.211-9.071c1.657-4.357,2.386-7.015.182-11.772l-2.8-5.222Z" transform="translate(-32.575 -87.225)" fill="#5320b1"/>
      <path id="Trazado_131340" data-name="Trazado 131340" d="M90.191,234.586,83.05,254.522s30.941,3.457,40.409,1.22l-4.83-21.715,3.314-28.323a51.7,51.7,0,0,0-14.555-3.123c-7.315-.458-11.937.6-19.426,3.312Z" transform="translate(-25.436 -86.017)" fill="#7c3cdf"/>
      <path id="Trazado_131341" data-name="Trazado 131341" d="M100.564,213.318c6.826-.726,13.18-4.815,13.47-5a.308.308,0,0,0,.075-.465.385.385,0,0,0-.249-.131.412.412,0,0,0-.281.066c-.075.044-7.547,4.88-14.737,4.967a.36.36,0,0,0-.381.334.369.369,0,0,0,.389.334q.86-.013,1.715-.1Z" transform="translate(-28.081 -87.451)" fill="#5320b1"/>
      <path id="Trazado_131342" data-name="Trazado 131342" d="M107.65,362.48l.563,4.4,5.335.109.447-3.653Z" transform="translate(-29.658 -129.82)" fill="#f7ad89"/>
      <path id="Trazado_131343" data-name="Trazado 131343" d="M102.167,266.38s-13.784-.668-18.506,2.694-3.744,12.992,1.027,15.629,12.906,7.8,12.906,7.8l5.169,45.092,6.834.2s6.3-45.3,3.106-54.061S102.167,266.38,102.167,266.38Z" transform="translate(-25.012 -103.496)" fill="#021019"/>
      <path id="Trazado_131344" data-name="Trazado 131344" d="M114.652,361.624a4.4,4.4,0,0,1-.174,3.087l-7.861-.152a6.933,6.933,0,0,1-.157-3.028Z" transform="translate(-29.437 -129.56)" fill="#2a3554"/>
      <path id="Trazado_131345" data-name="Trazado 131345" d="M122.049,258.374H85.765l-3.314-17.19a2.231,2.231,0,0,1,.614-1.986,2.957,2.957,0,0,1,2.128-.868h37.468a2.957,2.957,0,0,1,2.128.868,2.231,2.231,0,0,1,.614,1.986Z" transform="translate(-25.327 -95.832)" fill="#fff9ff"/>
      <path id="Trazado_131346" data-name="Trazado 131346" d="M86.46,265.93h36.317v1.111a2.832,2.832,0,0,1-3,2.629H89.459a2.832,2.832,0,0,1-3-2.629Z" transform="translate(-26.022 -103.388)" fill="#e2e5fa"/>
      <path id="Trazado_131347" data-name="Trazado 131347" d="M110.952,252.067A3.184,3.184,0,1,1,107.8,249.3a3.385,3.385,0,0,1,2.229.811A2.6,2.6,0,0,1,110.952,252.067Z" transform="translate(-29.141 -98.836)" fill="#e2e5fa"/>
      <path id="Trazado_131348" data-name="Trazado 131348" d="M80.035,345.44,78.85,349.8l4.788.828,1.955-3.893Z" transform="translate(-24.716 -125.155)" fill="#f7ad89"/>
      <path id="Trazado_131349" data-name="Trazado 131349" d="M109.069,265.118s-9.261-2.8-14.687,3.079S79.86,323.675,79.86,323.675l6.238,2.251,20.031-44.075s16.311,8.163,18.291-3.435C125.977,269.258,109.069,265.118,109.069,265.118Z" transform="translate(-24.889 -102.983)" fill="#2a3554"/>
      <path id="Trazado_131350" data-name="Trazado 131350" d="M87.232,345.094a4.817,4.817,0,0,1-1.309,2.978L78.26,345.7a7.42,7.42,0,0,1,.969-3.007Z" transform="translate(-24.614 -124.402)" fill="#445279"/>
      <path id="Trazado_131351" data-name="Trazado 131351" d="M79.647,349.9a31.222,31.222,0,0,0-3.761-1.453c-.828-.152-7.911,4.241-9.941,4.2-3.628-.08-4.788,4.59-2.725,5.229,5.989,1.866,17.04,1.627,17.04,1.627s2.485-5.81,2.485-7.771S81.22,350.78,79.647,349.9Z" transform="translate(-21.859 -125.977)" fill="#22d4b8"/>
      <path id="Trazado_131352" data-name="Trazado 131352" d="M74.645,354.93a.478.478,0,0,0,.475-.063.347.347,0,0,0,.113-.409,5.923,5.923,0,0,0-1.914-2.288,3.45,3.45,0,0,0-3.065-.261.384.384,0,0,0-.2.224.33.33,0,0,0,.039.285.424.424,0,0,0,.258.184.485.485,0,0,0,.33-.032,2.456,2.456,0,0,1,2.154.211,5.166,5.166,0,0,1,1.6,1.946.441.441,0,0,0,.215.2Z" transform="translate(-23.203 -126.86)" fill="#fff9ff"/>
      <path id="Trazado_131353" data-name="Trazado 131353" d="M76.392,353.765a.5.5,0,0,0,.34,0,.4.4,0,0,0,.237-.195.322.322,0,0,0,0-.284A5.827,5.827,0,0,0,75.059,351a3.392,3.392,0,0,0-3.065-.261.355.355,0,0,0-.174.508.492.492,0,0,0,.6.153,2.389,2.389,0,0,1,2.146.211,5.17,5.17,0,0,1,1.607,1.946A.387.387,0,0,0,76.392,353.765Z" transform="translate(-23.501 -126.537)" fill="#fff9ff"/>
      <path id="Trazado_131354" data-name="Trazado 131354" d="M72.383,355.765a.572.572,0,0,0,.348,0,.364.364,0,0,0,.24-.487,5.928,5.928,0,0,0-1.922-2.288,3.412,3.412,0,0,0-3.065-.254.384.384,0,0,0-.2.224.33.33,0,0,0,.039.285.474.474,0,0,0,.588.145,2.446,2.446,0,0,1,2.154.218,5.063,5.063,0,0,1,1.6,1.946.511.511,0,0,0,.224.211Z" transform="translate(-22.813 -127.084)" fill="#fff9ff"/>
      <path id="Trazado_131355" data-name="Trazado 131355" d="M110.124,367.986a31.229,31.229,0,0,1,3.8-.806c.828,0,6.627,5.134,8.524,5.389,3.421.458,3.628,5.011,1.566,5.309-5.948.857-16.27-.966-16.27-.966s-1.2-5.81-.878-7.662S108.484,368.582,110.124,367.986Z" transform="translate(-29.514 -131.107)" fill="#22d4b8"/>
      <path id="Trazado_131356" data-name="Trazado 131356" d="M116.952,373.928a.5.5,0,0,1-.323-.044.358.358,0,0,1-.188-.217.312.312,0,0,1,.048-.27,6.1,6.1,0,0,1,2.237-1.874,3.238,3.238,0,0,1,2.924.2.342.342,0,0,1,.155.238.32.32,0,0,1-.089.263.455.455,0,0,1-.58.058,2.313,2.313,0,0,0-2.063-.116,5.294,5.294,0,0,0-1.88,1.6.437.437,0,0,1-.24.16Z" transform="translate(-31.164 -132.226)" fill="#fff9ff"/>
      <path id="Trazado_131357" data-name="Trazado 131357" d="M115.512,372.5a.5.5,0,0,1-.323-.044.358.358,0,0,1-.188-.217.312.312,0,0,1,.048-.27,6.1,6.1,0,0,1,2.237-1.874,3.267,3.267,0,0,1,2.924.2.342.342,0,0,1,.155.238.32.32,0,0,1-.089.263.455.455,0,0,1-.58.058,2.352,2.352,0,0,0-2.063-.116,5.451,5.451,0,0,0-1.88,1.6.4.4,0,0,1-.24.16Z" transform="translate(-30.917 -131.835)" fill="#fff9ff"/>
      <path id="Trazado_131358" data-name="Trazado 131358" d="M118.893,375.11a.437.437,0,0,1-.315-.036.365.365,0,0,1-.189-.221.319.319,0,0,1,.048-.273,6.112,6.112,0,0,1,2.237-1.866,3.238,3.238,0,0,1,2.924.2.342.342,0,0,1,.155.238.32.32,0,0,1-.089.263.465.465,0,0,1-.58.058,2.323,2.323,0,0,0-2.063-.116,5.294,5.294,0,0,0-1.88,1.6A.409.409,0,0,1,118.893,375.11Z" transform="translate(-31.499 -132.551)" fill="#fff9ff"/>
      <path id="Trazado_131359" data-name="Trazado 131359" d="M115.712,168s4.4,5.977,3.918,12.2.646,13.414-5.708,13.072-17.686,2.237-21.281-2.614S115.712,168,115.712,168Z" transform="translate(-27.025 -76.579)" fill="#2a3554"/>
      <path id="Trazado_131360" data-name="Trazado 131360" d="M120.009,183.091s1.135,9.027-3.753,11.525a7.956,7.956,0,0,1-8.417-.29S118.137,181.733,120.009,183.091Z" transform="translate(-29.69 -80.682)" fill="#021019"/>
      <path id="Trazado_131361" data-name="Trazado 131361" d="M97.279,182.692s-1.756-2.055-3.057-.356.538,6.7,3.728,5.476Z" transform="translate(-27.281 -80.319)" fill="#fa8465"/>
      <path id="Trazado_131362" data-name="Trazado 131362" d="M97.426,186.941a.261.261,0,0,1-.257-.174,3.94,3.94,0,0,0-2.336-2.179.255.255,0,0,1-.153-.123.206.206,0,0,1,0-.182.286.286,0,0,1,.348-.138,4.379,4.379,0,0,1,2.667,2.5.245.245,0,0,1-.191.29Z" transform="translate(-27.428 -80.994)" fill="#fa664d"/>
      <path id="Trazado_131363" data-name="Trazado 131363" d="M95.733,186.506a.377.377,0,0,1-.149-.036.223.223,0,0,1-.083-.327,2.449,2.449,0,0,1,1.019-.726.306.306,0,0,1,.294.006.228.228,0,0,1,.117.237.254.254,0,0,1-.2.193,1.863,1.863,0,0,0-.779.537A.273.273,0,0,1,95.733,186.506Z" transform="translate(-27.566 -81.337)" fill="#fa664d"/>
      <path id="Trazado_131364" data-name="Trazado 131364" d="M119.711,182.692s1.756-2.055,3.057-.356-.538,6.7-3.728,5.476Z" transform="translate(-31.612 -80.319)" fill="#fa8465"/>
      <path id="Trazado_131365" data-name="Trazado 131365" d="M119.824,186.941a.261.261,0,0,0,.257-.174,3.951,3.951,0,0,1,2.344-2.179.232.232,0,0,0,.157-.305.3.3,0,0,0-.348-.138,4.34,4.34,0,0,0-2.667,2.5.207.207,0,0,0,.022.179.262.262,0,0,0,.161.112Z" transform="translate(-31.701 -80.995)" fill="#fa664d"/>
      <path id="Trazado_131366" data-name="Trazado 131366" d="M121.871,186.514a.311.311,0,0,0,.141-.036.223.223,0,0,0,.083-.327,2.445,2.445,0,0,0-1.011-.726.288.288,0,0,0-.341.127.226.226,0,0,0,.118.308,1.863,1.863,0,0,1,.779.537A.274.274,0,0,0,121.871,186.514Z" transform="translate(-31.901 -81.345)" fill="#fa664d"/>
      <path id="Trazado_131367" data-name="Trazado 131367" d="M112.439,196v4.975s-1.657,2.535-3.985,2.709-4.324-2.179-4.324-2.179v-5.149Z" transform="translate(-29.054 -84.244)" fill="#f7ad89"/>
      <path id="Trazado_131368" data-name="Trazado 131368" d="M112.444,196v2.179c-1.541,1.5-4.266,2.026-8.284,1.5V196.32Z" transform="translate(-29.059 -84.244)" fill="#fa8465"/>
      <path id="Trazado_131369" data-name="Trazado 131369" d="M117.158,176.014a41.6,41.6,0,0,1-.737,6.289,12.258,12.258,0,0,1-.356,1.344c-1.193,3.667-4.142,9.957-12.55,7.342-3.695-1.162-5.409-4.771-6.172-8.439a31.214,31.214,0,0,1-.555-6.812,5.151,5.151,0,0,1,3.007-4.423c4.97-2.455,10.148-1.54,13.577-.378a5.193,5.193,0,0,1,3.786,5.076Z" transform="translate(-27.792 -77.061)" fill="#f7ad89"/>
      <path id="Trazado_131370" data-name="Trazado 131370" d="M104.21,183.769c0,.537-.315.966-.7.966s-.7-.428-.7-.966.315-.959.7-.959S104.21,183.238,104.21,183.769Z" transform="translate(-28.827 -80.633)" fill="#2a3554"/>
      <path id="Trazado_131371" data-name="Trazado 131371" d="M114.61,183.769c0,.537-.315.966-.7.966s-.7-.428-.7-.966.315-.959.7-.959S114.61,183.238,114.61,183.769Z" transform="translate(-30.612 -80.633)" fill="#2a3554"/>
      <path id="Trazado_131372" data-name="Trazado 131372" d="M101.767,179.582a12.88,12.88,0,0,1,2.982-.392.547.547,0,0,1,.4.159.412.412,0,0,1,.114.371h0a.5.5,0,0,1-.53.37,14.794,14.794,0,0,0-4.092.443.687.687,0,0,1,.24-.487A1.791,1.791,0,0,1,101.767,179.582Z" transform="translate(-28.455 -79.642)" fill="#2a3554"/>
      <path id="Trazado_131373" data-name="Trazado 131373" d="M114.872,179.6a13.377,13.377,0,0,0-2.991-.392.554.554,0,0,0-.4.164.418.418,0,0,0-.114.374h0a.521.521,0,0,0,.538.37,14.739,14.739,0,0,1,4.084.436.619.619,0,0,0-.24-.487A1.849,1.849,0,0,0,114.872,179.6Z" transform="translate(-30.295 -79.648)" fill="#2a3554"/>
      <path id="Trazado_131374" data-name="Trazado 131374" d="M108.856,187.776a1.228,1.228,0,0,1-.588-.123.718.718,0,0,1-.389-.574,30.416,30.416,0,0,1,.157-3.711.273.273,0,0,1,.29-.218.252.252,0,0,1,.249.254,31.576,31.576,0,0,0-.157,3.631.214.214,0,0,0,.133.218,1.776,1.776,0,0,0,1.077-.087.306.306,0,0,1,.3,0,.228.228,0,0,1,.116.243.257.257,0,0,1-.209.189A3.126,3.126,0,0,1,108.856,187.776Z" transform="translate(-29.696 -80.726)" fill="#fa8465"/>
      <path id="Trazado_131375" data-name="Trazado 131375" d="M104.92,191.58a3.057,3.057,0,0,0,3.173,2.556,2.939,2.939,0,0,0,3.148-2.556Z" transform="translate(-29.189 -83.034)" fill="#fff9ff"/>
      <path id="Trazado_131376" data-name="Trazado 131376" d="M108.421,196.713a2.949,2.949,0,0,1-1.267-.327.23.23,0,0,1-.091-.327.3.3,0,0,1,.373-.073h0a2.106,2.106,0,0,0,2.021,0,.3.3,0,0,1,.2-.026.265.265,0,0,1,.163.106.209.209,0,0,1,.034.181.238.238,0,0,1-.125.146A3.049,3.049,0,0,1,108.421,196.713Z" transform="translate(-29.551 -84.23)" fill="#fa8465"/>
      <path id="Trazado_131377" data-name="Trazado 131377" d="M118.1,173.948a.821.821,0,0,1-.646.436,13.034,13.034,0,0,1-.1,1.75c-.331,3.421-1.317,4.023-1.533,3.174a34.714,34.714,0,0,1-.075-4.829q-.717-.042-1.425-.153l-.936-3.319-.315,3.275c-1.359.414-4.523-.247-4.523-.247l-1.06-3.275-.663,3.152a8.593,8.593,0,0,1-4.573.29l-.588-3.4-1.35,3.4s-4.332,1.358-4.382,0a22.441,22.441,0,0,1,1.193-4.771,7.435,7.435,0,0,1,3.943-4.357,16.2,16.2,0,0,1,13.031-.16C118.272,167.049,118.1,173.948,118.1,173.948Z" transform="translate(-27.647 -75.381)" fill="#2a3554"/>
      <path id="Trazado_131378" data-name="Trazado 131378" d="M97.6,168.35a21.318,21.318,0,0,0-4.747,10.385c-1.176,6.66-2.8,11.569,1.773,13.762,4.97,2.382,4.523-2.5,4.448-3.82S94.8,183.724,97.6,173.521C98.556,170.224,97.6,168.35,97.6,168.35Z" transform="translate(-26.901 -76.674)" fill="#2a3554"/>
      <path id="Trazado_131379" data-name="Trazado 131379" d="M97.85,187.29h0v.726a5.5,5.5,0,0,0,.058.922c.166,2.244.663,6.115,2.121,7.458a5.36,5.36,0,0,0,3,.908V195.54a7.694,7.694,0,0,1-3.314-2.68,14.979,14.979,0,0,1-1.74-4.909Z" transform="translate(-27.976 -81.86)" fill="#021019"/>
      <path id="Trazado_131380" data-name="Trazado 131380" d="M121.2,190.079a.635.635,0,1,1-.63-.559.677.677,0,0,1,.448.164A.519.519,0,0,1,121.2,190.079Z" transform="translate(-31.767 -82.47)" fill="#fff9ff"/>
      <path id="Trazado_131381" data-name="Trazado 131381" d="M256.371,266.221c3.123,7.538,10.347,12.695,10.347,12.695,4,1.416,14.613,4.212,18.175,3.406a22.857,22.857,0,0,1,0-6.347c-4.97.087-14.083-4.241-14.083-4.241A69.461,69.461,0,0,1,259.975,245.4C255.145,250.382,256.371,266.221,256.371,266.221Z" transform="translate(-55.155 -97.768)" fill="#5320b1"/>
      <path id="Trazado_131382" data-name="Trazado 131382" d="M246.34,425.808l.77,6.021a10,10,0,0,0,5.8.508l-.746-7.037Z" transform="translate(-53.458 -147.018)" fill="#f7ad89"/>
      <path id="Trazado_131383" data-name="Trazado 131383" d="M251.074,433.524s1.127-1.452,2.063-1.394,8.383,4.851,10.877,5.193,2.079,1.961,1.657,2.789-19.8.3-19.8.3-.729-5.033-.157-6.594S249.144,433.945,251.074,433.524Z" transform="translate(-53.313 -148.887)" fill="#ff495a"/>
      <path id="Trazado_131384" data-name="Trazado 131384" d="M257.134,437.82a.355.355,0,0,1-.273,0,.313.313,0,0,1-.173-.176.265.265,0,0,1,.024-.231,4.942,4.942,0,0,1,1.74-1.707,2.714,2.714,0,0,1,2.485,0,.288.288,0,0,1,.083.428.347.347,0,0,1-.223.125.377.377,0,0,1-.258-.053,1.944,1.944,0,0,0-1.731,0,4.35,4.35,0,0,0-1.466,1.452A.329.329,0,0,1,257.134,437.82Z" transform="translate(-55.231 -149.784)" fill="#fff9ff"/>
      <path id="Trazado_131385" data-name="Trazado 131385" d="M255.836,436.675a.374.374,0,0,1-.265,0,.319.319,0,0,1-.173-.18.271.271,0,0,1,.024-.234,4.864,4.864,0,0,1,1.74-1.707,2.675,2.675,0,0,1,2.485,0,.3.3,0,0,1,.148.194.269.269,0,0,1-.057.228.38.38,0,0,1-.48.08,1.858,1.858,0,0,0-1.731,0,4.418,4.418,0,0,0-1.466,1.452.323.323,0,0,1-.224.167Z" transform="translate(-55.009 -149.467)" fill="#fff9ff"/>
      <path id="Trazado_131386" data-name="Trazado 131386" d="M258.906,438.717a.365.365,0,0,1-.273,0,.311.311,0,0,1-.168-.177.265.265,0,0,1,.027-.229,4.864,4.864,0,0,1,1.74-1.707,2.665,2.665,0,0,1,2.485,0,.289.289,0,0,1,.091.428.38.38,0,0,1-.48.073,1.963,1.963,0,0,0-1.74,0,4.444,4.444,0,0,0-1.458,1.452A.325.325,0,0,1,258.906,438.717Z" transform="translate(-55.536 -150.028)" fill="#fff9ff"/>
      <path id="Trazado_131387" data-name="Trazado 131387" d="M210.078,415.11l-4.448,4.633a8.018,8.018,0,0,0,3.62,4l5.31-5.323Z" transform="translate(-46.472 -144.228)" fill="#f7ad89"/>
      <path id="Trazado_131388" data-name="Trazado 131388" d="M207.34,423.682s1.955-.269,2.576.349,1.764,8.671,3.2,10.494-.182,2.665-1.16,2.97-13.884-12.346-13.884-12.346,3.653-3.929,5.335-4.641S205.666,422.745,207.34,423.682Z" transform="translate(-45.174 -145.676)" fill="#ff495a"/>
      <path id="Trazado_131389" data-name="Trazado 131389" d="M209.271,431.482a.365.365,0,0,1-.174-.182.272.272,0,0,1,.031-.233.344.344,0,0,1,.21-.145,6.224,6.224,0,0,1,2.618-.073,2.239,2.239,0,0,1,1.657,1.583.27.27,0,0,1-.06.229.351.351,0,0,1-.23.12.345.345,0,0,1-.4-.254,1.611,1.611,0,0,0-1.2-1.1,5.3,5.3,0,0,0-2.212.08.382.382,0,0,1-.24-.029Z" transform="translate(-47.064 -148.508)" fill="#fff9ff"/>
      <path id="Trazado_131390" data-name="Trazado 131390" d="M209.212,429.723a.3.3,0,0,1-.174-.182.309.309,0,0,1,.24-.378,6.1,6.1,0,0,1,2.609-.065,2.225,2.225,0,0,1,1.657,1.576.281.281,0,0,1-.1.32.387.387,0,0,1-.373.052.306.306,0,0,1-.207-.277,1.627,1.627,0,0,0-1.2-1.1,5.271,5.271,0,0,0-2.212.08.382.382,0,0,1-.24-.029Z" transform="translate(-47.054 -148.027)" fill="#fff9ff"/>
      <path id="Trazado_131391" data-name="Trazado 131391" d="M209.812,433.36a.369.369,0,0,1-.174-.189.309.309,0,0,1,.24-.378,6.139,6.139,0,0,1,2.618-.065,2.216,2.216,0,0,1,1.657,1.583.313.313,0,0,1-.29.349.345.345,0,0,1-.4-.254,1.6,1.6,0,0,0-1.2-1.1,5.223,5.223,0,0,0-2.212.073A.43.43,0,0,1,209.812,433.36Z" transform="translate(-47.157 -149.021)" fill="#fff9ff"/>
      <path id="Trazado_131392" data-name="Trazado 131392" d="M235.888,326.947l-3.43,32.521a69.564,69.564,0,0,0-8.988,11.206c-3.247,5.178-13.321,20.436-13.321,20.436l4.548,3.079,31.355-26.624,6.975-40.945Z" transform="translate(-47.247 -120.003)" fill="#021019"/>
      <path id="Trazado_131393" data-name="Trazado 131393" d="M215.931,418.5a5.383,5.383,0,0,1-2.378,2.324l-6.064-4.488a8.155,8.155,0,0,1,2.071-2.455Z" transform="translate(-46.791 -143.891)" fill="#2a3554"/>
      <path id="Trazado_131394" data-name="Trazado 131394" d="M213.34,328.415s8.052,17.357,18.523,30.894c0,0,1.557,13.174,4.233,20.189,1.168,3.072,3.314,17.3,3.314,17.3h8.06l-2.054-40.444-8.4-29.3Z" transform="translate(-47.795 -120.12)" fill="#2a3554"/>
      <path id="Trazado_131395" data-name="Trazado 131395" d="M253.447,422.76a5.176,5.176,0,0,1,0,3.631l-9.2.225a8.107,8.107,0,0,1-.373-3.522Z" transform="translate(-53.026 -146.322)" fill="#445279"/>
      <path id="Trazado_131396" data-name="Trazado 131396" d="M213,293.827v.726c0,4.408,0,7.822.058,9.5A90.126,90.126,0,0,0,227.63,306.3l.654.044h.356l.779.044.828.036a86.9,86.9,0,0,0,9.941-.152l2-.167h.124l.514-.051h.306a91.115,91.115,0,0,0,11.531-1.968c0-.763,0-1.888,0-3.312v-.842h0c0-2.041,0-4.575-.041-7.437v-.726c0-1.91-.041-3.951-.066-6.079v-.726c0-2.179-.066-4.459-.108-6.761,0-1.409-.058-2.825-.091-4.249s-.066-2.9-.108-4.314V268.7c-.381-13.544-1.027-25.992-2.1-27.379a17.04,17.04,0,0,0-4.473-3.225l-.746-.421c-.828-.472-7.861-2.556-8.748-3.014l-7.406-.45s-7.116,2.113-7.157,2.135l-.92.465a42.459,42.459,0,0,0-6.693,3.922,7.241,7.241,0,0,0-.58.508,2.864,2.864,0,0,0-.34.392,1.766,1.766,0,0,0-.265.566c-.895,2.854-1.359,14.06-1.6,26.254v8.432C213,283.006,213,288.968,213,293.827Z" transform="translate(-47.736 -94.704)" fill="#7c3cdf"/>
      <path id="Trazado_131397" data-name="Trazado 131397" d="M245.955,206.144s4.142-1.264,3.728-4.089c-.356-2.4-2.137-1.024-1.864-2.9s-.779-3.726-3.222-3.043c-1.657.45-3.264,1.191-6.213.225-4.258-1.4-5.186,1.169-8.35,1.344-4.672.254-5.8,2.752-5.724,4.67a9.807,9.807,0,0,0,1.8,4.263Z" transform="translate(-49.677 -84.221)" fill="#2a3554"/>
      <path id="Trazado_131398" data-name="Trazado 131398" d="M249.471,215.266s1.731-2.033,3.024-.356-.538,6.638-3.695,5.425Z" transform="translate(-53.88 -89.239)" fill="#fa8465"/>
      <path id="Trazado_131399" data-name="Trazado 131399" d="M249.575,219.467a.263.263,0,0,0,.257-.167,3.873,3.873,0,0,1,2.32-2.179.227.227,0,0,0,.121-.293.282.282,0,0,0-.311-.15,4.334,4.334,0,0,0-2.643,2.469.207.207,0,0,0,.025.181.264.264,0,0,0,.166.11Z" transform="translate(-53.967 -89.903)" fill="#fa664d"/>
      <path id="Trazado_131400" data-name="Trazado 131400" d="M251.6,219.042a.237.237,0,0,0,.141-.036.223.223,0,0,0,.083-.327,2.515,2.515,0,0,0-1-.726.291.291,0,0,0-.356.116.228.228,0,0,0,.133.312,1.9,1.9,0,0,1,.77.53.278.278,0,0,0,.232.131Z" transform="translate(-54.162 -90.248)" fill="#fa664d"/>
      <path id="Trazado_131401" data-name="Trazado 131401" d="M227.285,215.266s-1.74-2.033-3.032-.356.538,6.638,3.695,5.425Z" transform="translate(-49.596 -89.239)" fill="#fa8465"/>
      <path id="Trazado_131402" data-name="Trazado 131402" d="M227.438,219.467a.263.263,0,0,1-.257-.167,3.873,3.873,0,0,0-2.32-2.179.227.227,0,0,1-.121-.293.282.282,0,0,1,.311-.15,4.334,4.334,0,0,1,2.643,2.469.207.207,0,0,1-.022.179.262.262,0,0,1-.161.112Z" transform="translate(-49.748 -89.903)" fill="#fa664d"/>
      <path id="Trazado_131403" data-name="Trazado 131403" d="M225.723,219.042a.284.284,0,0,1-.149-.036.223.223,0,0,1-.083-.327,2.515,2.515,0,0,1,1-.726.291.291,0,0,1,.356.116.228.228,0,0,1-.133.312,1.9,1.9,0,0,0-.77.53A.268.268,0,0,1,225.723,219.042Z" transform="translate(-49.873 -90.248)" fill="#fa664d"/>
      <path id="Trazado_131404" data-name="Trazado 131404" d="M233.65,228.42v4.931s1.657,2.506,3.943,2.68,4.275-2.179,4.275-2.179v-5.084Z" transform="translate(-51.28 -93.119)" fill="#f7ad89"/>
      <path id="Trazado_131405" data-name="Trazado 131405" d="M233.65,228.42V230.6c1.516,1.452,4.225,1.852,8.218,1.336v-3.166Z" transform="translate(-51.28 -93.119)" fill="#fa8465"/>
      <path id="Trazado_131406" data-name="Trazado 131406" d="M226.488,208.67a42.936,42.936,0,0,0,.729,6.224h0c.1.465.215.908.34,1.307.083.225.157.472.257.726,1.325,3.668,4.415,8.969,12.177,6.536,3.264-1.024,4.97-3.98,5.8-7.19.05-.189.091-.378.141-.559l.075-.356v-.232h0a30.563,30.563,0,0,0,.547-6.747,5.089,5.089,0,0,0-2.974-4.357c-4.888-2.426-10.048-1.518-13.453-.378a5.132,5.132,0,0,0-3.637,5.026Z" transform="translate(-50.05 -86.02)" fill="#f7ad89"/>
      <path id="Trazado_131407" data-name="Trazado 131407" d="M233.44,215.541c0,.523.315.951.7.951s.688-.428.688-.951-.306-.951-.688-.951S233.44,215.011,233.44,215.541Z" transform="translate(-51.244 -89.333)" fill="#2a3554"/>
      <path id="Trazado_131408" data-name="Trazado 131408" d="M243.57,215.541c0,.523.315.951.7.951s.688-.428.688-.951-.306-.951-.688-.951S243.57,215.011,243.57,215.541Z" transform="translate(-52.982 -89.333)" fill="#2a3554"/>
      <path id="Trazado_131409" data-name="Trazado 131409" d="M230.738,211.724a8.393,8.393,0,0,1,4.854-1.242l.091,1.082a15.382,15.382,0,0,0-4.606,1.38,1.71,1.71,0,0,1-.34-1.22Z" transform="translate(-50.778 -88.196)" fill="#2a3554"/>
      <path id="Trazado_131410" data-name="Trazado 131410" d="M246.237,211.881a8.276,8.276,0,0,0-4.722-1.663L241.3,211.3a14.805,14.805,0,0,1,4.465,1.779A1.76,1.76,0,0,0,246.237,211.881Z" transform="translate(-52.593 -88.134)" fill="#2a3554"/>
      <path id="Trazado_131411" data-name="Trazado 131411" d="M238.516,220.035a3.292,3.292,0,0,1-.961-.174.253.253,0,0,1-.148-.125.206.206,0,0,1,0-.18.25.25,0,0,1,.143-.129.3.3,0,0,1,.205,0,1.8,1.8,0,0,0,1.069.087c.05,0,.116-.073.133-.218a31.324,31.324,0,0,0-.157-3.588.207.207,0,0,1,.06-.168.271.271,0,0,1,.18-.079.291.291,0,0,1,.2.052.225.225,0,0,1,.095.158,29.83,29.83,0,0,1,.157,3.675.717.717,0,0,1-.389.574A1.258,1.258,0,0,1,238.516,220.035Z" transform="translate(-51.921 -89.571)" fill="#fa8465"/>
      <path id="Trazado_131412" data-name="Trazado 131412" d="M241.5,224.22a3.054,3.054,0,0,1-3.148,2.542,2.923,2.923,0,0,1-3.131-2.542Z" transform="translate(-51.549 -91.97)" fill="#fff9ff"/>
      <path id="Trazado_131413" data-name="Trazado 131413" d="M226.489,208.683a42.941,42.941,0,0,0,.729,6.224l1.193-.073s-.29-1.62-.422-2.673-.356-3.021.663-3.268.422-2.491,1.847-3.464a7.457,7.457,0,0,1,6.71-.109c2.1,1.133,4.465-.087,5.434.109s2.286,1.365,1.93,2.462.7,1.758.969,2.9-.572,4.176-.572,4.176l1.143.2a30.563,30.563,0,0,0,.547-6.747,5.089,5.089,0,0,0-2.974-4.357c-4.888-2.426-10.048-1.525-13.453-.378A5.175,5.175,0,0,0,226.489,208.683Z" transform="translate(-50.051 -86.033)" fill="#2a3554"/>
      <path id="Trazado_131414" data-name="Trazado 131414" d="M269.556,291.316l5.012,6.747a2.122,2.122,0,0,0,1.328.794,2.342,2.342,0,0,0,1.579-.264l19.484-11.126,8.06-4.6L297.713,273l-4.772,2.731-22.773,13.007a1.856,1.856,0,0,0-.927,1.176A1.655,1.655,0,0,0,269.556,291.316Z" transform="translate(-57.38 -105.324)" fill="#22d4b8"/>
      <path id="Trazado_131415" data-name="Trazado 131415" d="M297.86,275.76a23.283,23.283,0,0,0,4.018,11.707l8.06-4.6L302.632,273Z" transform="translate(-62.299 -105.324)" fill="#00a8a0"/>
      <path id="Trazado_131416" data-name="Trazado 131416" d="M3.413-.211l.719-.044A3.061,3.061,0,0,1,7.355,3.155L5.238,39.3l-7.567.467L-.212,3.623A4.1,4.1,0,0,1,3.413-.211Z" transform="translate(182.325 212.153) rotate(-123.09)" fill="#2a3554"/>
      <path id="Trazado_131417" data-name="Trazado 131417" d="M314.145,217.286c-17.475,9.873-22.512,30.3-11.25,45.616s34.557,19.735,52.032,9.862,22.511-30.3,11.249-45.616-34.556-19.731-52.031-9.862Zm3.131,4.249c14.795-8.357,34.516-4.617,44.049,8.353s5.268,30.259-9.526,38.617-34.515,4.62-44.05-8.349c-9.517-12.974-5.254-30.254,9.527-38.621Z" transform="translate(-62.132 -88.631)" fill="#2a3554"/>
      <path id="Trazado_131418" data-name="Trazado 131418" d="M309.428,231.152c-9.922,12.733-6.216,30.1,8.284,38.832a34.393,34.393,0,0,0,3.844,1.983c12.576,5.437,27.724,3.054,37.361-5.875a29.29,29.29,0,0,0,3.1-3.384c9.923-12.735,6.217-30.108-8.284-38.839a32.693,32.693,0,0,0-4.291-2.179A35.749,35.749,0,0,0,331.8,219.2a32.707,32.707,0,0,0-22.367,11.939Z" transform="translate(-63.329 -90.535)" fill="#fff9ff" opacity="0.5"/>
      <path id="Trazado_131419" data-name="Trazado 131419" d="M337.59,219.218,349.3,274.012A32.977,32.977,0,0,0,364.72,266.1l-9.493-44.388a35.748,35.748,0,0,0-17.637-2.491Z" transform="translate(-69.117 -90.54)" fill="#fff9ff" opacity="0.5"/>
      <path id="Trazado_131420" data-name="Trazado 131420" d="M313.92,229.286l9.377,43.879a35.112,35.112,0,0,0,10.653,2.731L322.718,223.36a31.663,31.663,0,0,0-8.8,5.926Z" transform="translate(-65.055 -91.734)" fill="#fff9ff" opacity="0.5"/>
      <path id="Trazado_131421" data-name="Trazado 131421" d="M245.045,309.188l1.209.37a3.082,3.082,0,0,0,2.949-.661,14.9,14.9,0,0,1,1.226-1.082,7.8,7.8,0,0,1,3.413-.973c.588.145.108,1.06-.472,1.344a11.165,11.165,0,0,0-2,1.089c-.58.479,2.112,2.644,3.314,3.319s3.686.763,3.529,1.772-1.905.617-1.905.617.157.995-1.533,1.256a1.3,1.3,0,0,1-1.168,1.068,1.525,1.525,0,0,1-1.491,1.024c-1.168-.051-4.8-.232-9.891-5.672Z" transform="translate(-52.751 -114.583)" fill="#f7ad89"/>
      <path id="Trazado_131422" data-name="Trazado 131422" d="M303.6,289.946s-2.717-1.59-4.241-1.4,1.764,2.854,1.764,2.854-3.951-3.181-5.037-2.527,2.717,3.885,2.717,3.885-3.073-1.8-3.935-1.344,1.781,2.9,1.781,2.9-2.6-1.206-3.314-.922,1.251,2.564,2.676,3.37,2.245-1.06,2.245-1.06,1.789-.806,1.831-1.634c0,0,1.781-.559,2.154-1.452C302.261,292.633,304.895,291.449,303.6,289.946Z" transform="translate(-61.497 -109.575)" fill="#f7ad89"/>
      <path id="Trazado_131423" data-name="Trazado 131423" d="M239.262,291.516s-17.736-10.552-23.667-16.384c0,0,.182-7.517.6-13.552a48.64,48.64,0,0,0-.588-11.707A18.964,18.964,0,0,0,214,244.39s-4.664,1.612-6.346,15.846a128.48,128.48,0,0,0-.911,17.016,6.026,6.026,0,0,0,2,4.285c3.9,3.631,13.553,11.431,26.823,14.423C235.568,295.96,238.749,293.367,239.262,291.516Z" transform="translate(-46.662 -97.491)" fill="#5320b1"/>
      <path id="Trazado_131424" data-name="Trazado 131424" d="M46.058,207.091a4.3,4.3,0,0,1-3.933-2.3,3.4,3.4,0,0,1,.92-4.063,4.7,4.7,0,0,1,4.635-.806,3.754,3.754,0,0,1,2.62,3.448A4.014,4.014,0,0,1,46.058,207.091Zm0-6.275a2.578,2.578,0,1,0,2.908,2.556,2.756,2.756,0,0,0-2.908-2.556Z" transform="translate(-18.358 -85.24)" fill="#ff495a"/>
      <path id="Trazado_131425" data-name="Trazado 131425" d="M42.538,178.961a3.758,3.758,0,1,1-.011-7.451,3.758,3.758,0,1,1,.011,7.451Zm0-6.282a2.579,2.579,0,1,0,2.916,2.556,2.754,2.754,0,0,0-2.916-2.556Z" transform="translate(-17.754 -77.54)" fill="#22d4b8"/>
      <path id="Trazado_131426" data-name="Trazado 131426" d="M67.262,181.413a.712.712,0,0,1-.472-.173.546.546,0,0,1-.191-.415v-2.571a.567.567,0,0,1,.31-.563.752.752,0,0,1,.714,0,.567.567,0,0,1,.31.563V180.8a.549.549,0,0,1-.184.435.719.719,0,0,1-.487.182Z" transform="translate(-22.613 -79.207)" fill="#7c3cdf"/>
      <path id="Trazado_131427" data-name="Trazado 131427" d="M67.263,187.662a.626.626,0,0,1-.663-.581V184.5a.687.687,0,0,1,1.334,0v2.578a.548.548,0,0,1-.2.413A.714.714,0,0,1,67.263,187.662Z" transform="translate(-22.613 -80.953)" fill="#7c3cdf"/>
      <path id="Trazado_131428" data-name="Trazado 131428" d="M71.709,183.739H69.066a.585.585,0,1,1,0-1.169h2.643a.585.585,0,1,1,0,1.169Z" transform="translate(-22.934 -80.567)" fill="#7c3cdf"/>
      <path id="Trazado_131429" data-name="Trazado 131429" d="M64.939,183.739H62.3a.585.585,0,1,1,0-1.169h2.643a.585.585,0,1,1,0,1.169Z" transform="translate(-21.773 -80.567)" fill="#7c3cdf"/>
      <path id="Trazado_131430" data-name="Trazado 131430" d="M63.861,153.612a.715.715,0,0,1-.474-.168.548.548,0,0,1-.2-.413v-2.578a.687.687,0,0,1,1.334,0v2.578A.626.626,0,0,1,63.861,153.612Z" transform="translate(-22.028 -71.632)" fill="#ff495a"/>
      <path id="Trazado_131431" data-name="Trazado 131431" d="M63.86,159.793a.634.634,0,0,1-.671-.588v-2.571a.567.567,0,0,1,.31-.563.752.752,0,0,1,.714,0,.567.567,0,0,1,.31.563V159.2a.546.546,0,0,1-.191.416.712.712,0,0,1-.472.173Z" transform="translate(-22.027 -73.288)" fill="#ff495a"/>
      <path id="Trazado_131432" data-name="Trazado 131432" d="M68.3,155.908H65.656a.707.707,0,0,1-.643-.272.528.528,0,0,1,0-.626.707.707,0,0,1,.643-.272H68.3a.707.707,0,0,1,.643.272.528.528,0,0,1,0,.626A.707.707,0,0,1,68.3,155.908Z" transform="translate(-22.323 -72.947)" fill="#ff495a"/>
      <path id="Trazado_131433" data-name="Trazado 131433" d="M61.544,155.908H58.876a.585.585,0,1,1,0-1.169h2.634a.707.707,0,0,1,.643.272.528.528,0,0,1,0,.626.707.707,0,0,1-.643.272Z" transform="translate(-21.186 -72.947)" fill="#ff495a"/>
      <path id="Trazado_131434" data-name="Trazado 131434" d="M393.7,127.646a4.287,4.287,0,1,1,4.25,3.726,4.014,4.014,0,0,1-4.25-3.726Zm1.334,0a2.941,2.941,0,1,0,2.916-2.556A2.754,2.754,0,0,0,395.034,127.646Z" transform="translate(-78.745 -64.511)" fill="#ff495a"/>
      <path id="Trazado_131435" data-name="Trazado 131435" d="M397.22,99.506a4.287,4.287,0,1,1,4.25,3.726A4.014,4.014,0,0,1,397.22,99.506Zm1.334,0a2.942,2.942,0,1,0,2.916-2.549A2.752,2.752,0,0,0,398.554,99.506Z" transform="translate(-79.349 -56.808)" fill="#22d4b8"/>
      <path id="Trazado_131436" data-name="Trazado 131436" d="M378.223,105.732a.714.714,0,0,0,.474-.168.548.548,0,0,0,.2-.413v-2.578a.687.687,0,0,0-1.334,0v2.578A.626.626,0,0,0,378.223,105.732Z" transform="translate(-75.976 -58.524)" fill="#7c3cdf"/>
      <path id="Trazado_131437" data-name="Trazado 131437" d="M378.222,111.9a.634.634,0,0,0,.671-.588v-2.556a.567.567,0,0,0-.31-.563.752.752,0,0,0-.714,0,.567.567,0,0,0-.31.563v2.571A.627.627,0,0,0,378.222,111.9Z" transform="translate(-75.975 -60.18)" fill="#7c3cdf"/>
      <path id="Trazado_131438" data-name="Trazado 131438" d="M373.236,108.008h2.634a.707.707,0,0,0,.643-.272.528.528,0,0,0,0-.626.707.707,0,0,0-.643-.272h-2.634a.707.707,0,0,0-.643.272.528.528,0,0,0,0,.626.707.707,0,0,0,.643.272Z" transform="translate(-75.106 -59.834)" fill="#7c3cdf"/>
      <path id="Trazado_131439" data-name="Trazado 131439" d="M380.006,108.008h2.634a.585.585,0,1,0,0-1.169h-2.634a.706.706,0,0,0-.643.272.528.528,0,0,0,0,.626.706.706,0,0,0,.643.272Z" transform="translate(-76.268 -59.834)" fill="#7c3cdf"/>
      <path id="Trazado_131440" data-name="Trazado 131440" d="M381.61,77.876a.712.712,0,0,0,.472-.173.546.546,0,0,0,.191-.415V74.754a.567.567,0,0,0-.31-.563.752.752,0,0,0-.714,0,.567.567,0,0,0-.31.563v2.571A.64.64,0,0,0,381.61,77.876Z" transform="translate(-76.555 -50.872)" fill="#ff495a"/>
      <path id="Trazado_131441" data-name="Trazado 131441" d="M381.611,84.112a.626.626,0,0,0,.663-.581V80.953a.687.687,0,0,0-1.334,0v2.578a.548.548,0,0,0,.2.413A.714.714,0,0,0,381.611,84.112Z" transform="translate(-76.556 -52.605)" fill="#ff495a"/>
      <path id="Trazado_131442" data-name="Trazado 131442" d="M376.653,80.184h2.676a.6.6,0,1,0,0-1.184h-2.643a.585.585,0,1,0,0,1.169Z" transform="translate(-75.723 -52.214)" fill="#ff495a"/>
      <path id="Trazado_131443" data-name="Trazado 131443" d="M383.417,80.189h2.643a.585.585,0,1,0,0-1.169h-2.643a.585.585,0,1,0,0,1.169Z" transform="translate(-76.878 -52.219)" fill="#ff495a"/>
    </g>
  </g>
</svg>
