<svg xmlns="http://www.w3.org/2000/svg" width="81" height="81" viewBox="0 0 81 81">
  <g id="Grupo_56167" data-name="Grupo 56167" transform="translate(-760 -896)">
    <g id="Grupo_56164" data-name="Grupo 56164" transform="translate(760 896)">
      <g id="Grupo_55846" data-name="Grupo 55846">
        <circle id="Elipse_4123" data-name="Elipse 4123" cx="40.5" cy="40.5" r="40.5" fill="#6a5d99"/>
      </g>
    </g>
    <g id="market-analysis" transform="translate(768.307 908)">
      <g id="Grupo_56168" data-name="Grupo 56168" transform="translate(4.692 0)">
        <path id="Trazado_132860" data-name="Trazado 132860" d="M100.169,298.076h-2.1V281.7a.835.835,0,1,0-1.671,0v16.372H92.2V275h4.2v2.809a.835.835,0,1,0,1.671,0v-3.2a1.282,1.282,0,0,0-1.281-1.281H91.815a1.282,1.282,0,0,0-1.281,1.281v23.468H89.125V285.131a1.282,1.282,0,0,0-1.281-1.281H82.869a1.282,1.282,0,0,0-1.281,1.281v12.945H80.179V279.411A1.282,1.282,0,0,0,78.9,278.13H73.923a1.282,1.282,0,0,0-1.281,1.281v18.664H71.233v-4.455a.835.835,0,0,0-1.671,0v4.455h-4.2V274.815h4.2v14.908a.835.835,0,0,0,1.671,0v-15.3a1.282,1.282,0,0,0-1.281-1.281H64.977a1.282,1.282,0,0,0-1.281,1.281v23.651H62.287v-13.09a1.282,1.282,0,0,0-1.281-1.281H56.031a1.282,1.282,0,0,0-1.281,1.281v13.09h-2.1a.835.835,0,1,0,0,1.671h47.517a.835.835,0,1,0,0-1.671Zm-39.553,0h-4.2v-12.7h4.2Zm17.892,0h-4.2V279.8h4.2Zm8.946,0h-4.2V285.521h4.2Z" transform="translate(-46.569 -242.723)" fill="#fff"/>
        <path id="Trazado_132861" data-name="Trazado 132861" d="M17.828,85.821a7.719,7.719,0,0,0,1.638,4.76l-.764.739a3.766,3.766,0,1,0,1.162,1.2l.763-.738a7.742,7.742,0,0,0,10.559-.594l8.875,6.838a3.769,3.769,0,1,0,6.574-.477l3.836-3.962a3.778,3.778,0,1,0-1.2-1.163l-3.836,3.962a3.761,3.761,0,0,0-4.355.317l-8.873-6.837a7.752,7.752,0,0,0,.559-6.994.835.835,0,1,0-1.545.635,6.08,6.08,0,0,1-.348,5.331L29.008,87.4a3.768,3.768,0,1,0-6.641.373l-1.693,1.637a6.073,6.073,0,0,1-.724-5.888h.458a1.369,1.369,0,0,0,1.367-1.368V81.08a6.073,6.073,0,0,1,7.285-.26.835.835,0,0,0,.954-1.371,7.747,7.747,0,0,0-8.239-.383V76.635a1.369,1.369,0,0,0-1.367-1.368H6.059a1.369,1.369,0,0,0-1.367,1.368v5.522a1.369,1.369,0,0,0,1.367,1.368H18.179a7.707,7.707,0,0,0-.351,2.3ZM16.642,96.572a2.1,2.1,0,1,1,2.1-2.1A2.1,2.1,0,0,1,16.642,96.572Zm35.784-8.3a2.1,2.1,0,1,1-2.1,2.1A2.1,2.1,0,0,1,52.426,88.27ZM43.48,97.509a2.1,2.1,0,1,1-2.1,2.1A2.1,2.1,0,0,1,43.48,97.509ZM25.588,83.724a2.1,2.1,0,1,1-2.1,2.1A2.1,2.1,0,0,1,25.588,83.724Zm-2.059,5.251a3.759,3.759,0,0,0,4.459-.25l1.866,1.438a6.073,6.073,0,0,1-8.017.45ZM6.362,81.854V76.938H20.1v4.916Z" transform="translate(-4.692 -66.884)" fill="#fff"/>
        <path id="Trazado_132862" data-name="Trazado 132862" d="M33.611,104.837H31.6a.835.835,0,1,0,0,1.671h2.01a.835.835,0,1,0,0-1.671Z" transform="translate(-27.861 -93.161)" fill="#fff"/>
        <path id="Trazado_132863" data-name="Trazado 132863" d="M78.063,104.837H73.077a.835.835,0,0,0,0,1.671h4.986a.835.835,0,0,0,0-1.671Z" transform="translate(-64.719 -93.161)" fill="#fff"/>
        <path id="Trazado_132864" data-name="Trazado 132864" d="M365.915,16.252c.01.02.021.041.032.06l1.082,1.844a.835.835,0,0,0,1.441,0l1.082-1.844c.012-.02.022-.04.032-.06a8.271,8.271,0,0,0,6.4-8.023,8.23,8.23,0,1,0-10.064,8.023ZM361.2,7.887a6.6,6.6,0,0,1,6.239-6.209,6.56,6.56,0,0,1,6.871,6.552,6.591,6.591,0,0,1-5.167,6.41,1.506,1.506,0,0,0-1.065.886l-.327.558-.327-.558a1.51,1.51,0,0,0-1.067-.886A6.538,6.538,0,0,1,361.2,7.887Z" transform="translate(-320.002 0)" fill="#fff"/>
        <path id="Trazado_132865" data-name="Trazado 132865" d="M406.851,30.936h1.7a.7.7,0,0,1,0,1.4h-2.994a.835.835,0,1,0,0,1.671h1.309v.743a.835.835,0,1,0,1.671,0v-.743h.015a2.373,2.373,0,0,0,0-4.746h-1.7a.7.7,0,1,1,0-1.4h2.994a.835.835,0,1,0,0-1.671h-1.309v-.743a.835.835,0,1,0-1.671,0v.743h-.014a2.373,2.373,0,1,0,0,4.746Z" transform="translate(-359.953 -21.871)" fill="#fff"/>
      </g>
    </g>
  </g>
</svg>
