<svg xmlns="http://www.w3.org/2000/svg" xmlns:xlink="http://www.w3.org/1999/xlink" width="409.465" height="307.912" viewBox="0 0 409.465 307.912">
  <defs>
    <linearGradient id="linear-gradient" y1="0.5" x2="1" y2="0.5" gradientUnits="objectBoundingBox">
      <stop offset="0" stop-color="#26264f"/>
      <stop offset="1" stop-color="#444b8c"/>
    </linearGradient>
    <linearGradient id="linear-gradient-2" x1="0.853" y1="0.009" x2="-0.333" y2="1.652" gradientUnits="objectBoundingBox">
      <stop offset="0" stop-color="#311944"/>
      <stop offset="1" stop-color="#893976"/>
    </linearGradient>
    <linearGradient id="linear-gradient-3" y1="0.5" x2="1" y2="0.5" gradientUnits="objectBoundingBox">
      <stop offset="0" stop-color="#e38ddd"/>
      <stop offset="1" stop-color="#9571f6"/>
    </linearGradient>
    <linearGradient id="linear-gradient-4" x1="0" y1="0.5" x2="1" y2="0.5" xlink:href="#linear-gradient-3"/>
    <linearGradient id="linear-gradient-5" x1="0" y1="0.5" x2="1" y2="0.5" xlink:href="#linear-gradient-3"/>
    <linearGradient id="linear-gradient-8" y1="0.5" x2="1" y2="0.5" gradientUnits="objectBoundingBox">
      <stop offset="0" stop-color="#aa80f9"/>
      <stop offset="1" stop-color="#6165d7"/>
    </linearGradient>
    <linearGradient id="linear-gradient-9" x1="-0.263" y1="0.424" x2="4.08" y2="0.881" xlink:href="#linear-gradient-3"/>
    <clipPath id="clip-path">
      <path id="Trazado_132957" data-name="Trazado 132957" d="M1572.341,503.347l65.915-1.8,85.269-25.841L1669.2,397.36l-124.088,5.552S1537.011,494.8,1572.341,503.347Z" transform="translate(-1544.312 -397.36)" fill="none"/>
    </clipPath>
    <linearGradient id="linear-gradient-10" x1="-0.187" y1="0.441" x2="12.848" y2="1.436" gradientUnits="objectBoundingBox">
      <stop offset="0" stop-color="#ffc444"/>
      <stop offset="1" stop-color="#f36f56"/>
    </linearGradient>
    <linearGradient id="linear-gradient-11" x1="-0.086" y1="0.426" x2="16.411" y2="3.143" xlink:href="#linear-gradient-10"/>
    <linearGradient id="linear-gradient-12" x1="0.5" y1="0" x2="0.5" y2="1" xlink:href="#linear-gradient-3"/>
    <linearGradient id="linear-gradient-14" x1="-12.102" y1="0.901" x2="-11.326" y2="-0.74" gradientUnits="objectBoundingBox">
      <stop offset="0" stop-color="#ff9085"/>
      <stop offset="1" stop-color="#fb6fbb"/>
    </linearGradient>
    <linearGradient id="linear-gradient-15" x1="-28.184" y1="11.89" x2="-28.13" y2="10.108" xlink:href="#linear-gradient-10"/>
    <linearGradient id="linear-gradient-16" x1="20.306" y1="2.345" x2="19.635" y2="0.727" gradientUnits="objectBoundingBox">
      <stop offset="0" stop-color="#444b8c"/>
      <stop offset="1" stop-color="#26264f"/>
    </linearGradient>
    <linearGradient id="linear-gradient-17" x1="-69.038" y1="-2.24" x2="-69.073" y2="0.956" xlink:href="#linear-gradient-10"/>
    <linearGradient id="linear-gradient-18" x1="26.918" y1="2.416" x2="26.048" y2="0.526" xlink:href="#linear-gradient-16"/>
    <linearGradient id="linear-gradient-19" x1="99.066" y1="7.844" x2="99.259" y2="12.656" xlink:href="#linear-gradient-10"/>
    <linearGradient id="linear-gradient-20" x1="-1.131" y1="3.01" x2="4.71" y2="-6.175" xlink:href="#linear-gradient-10"/>
    <linearGradient id="linear-gradient-22" x1="-18.451" y1="-0.868" x2="-19.009" y2="-0.069" xlink:href="#linear-gradient-2"/>
    <clipPath id="clip-path-2">
      <path id="Trazado_132966" data-name="Trazado 132966" d="M1879.189,1219.9c3.151-1.009,5.825-3.328,7.946-6.876a37.351,37.351,0,0,0,4.433-14c1.647-11.922-.036-26.58-4.736-41.273s-11.845-27.6-20.108-36.349a37.345,37.345,0,0,0-11.739-8.82c-3.79-1.664-7.31-1.992-10.461-.983s-5.825,3.328-7.946,6.876a37.3,37.3,0,0,0-4.435,14c-1.647,11.921.036,26.58,4.736,41.273s11.845,27.6,20.11,36.349a37.349,37.349,0,0,0,11.738,8.821C1872.518,1220.576,1876.038,1220.906,1879.189,1219.9Z" transform="translate(-1831.528 -1111.029)" fill="none"/>
    </clipPath>
    <linearGradient id="linear-gradient-23" x1="-1.029" y1="-1.57" x2="-0.367" y2="-0.028" xlink:href="#linear-gradient-10"/>
    <linearGradient id="linear-gradient-24" x1="-1.57" y1="-2.935" x2="-0.742" y2="-0.352" xlink:href="#linear-gradient-10"/>
    <linearGradient id="linear-gradient-25" x1="-0.806" y1="-0.796" x2="0.066" y2="1.517" xlink:href="#linear-gradient-8"/>
    <linearGradient id="linear-gradient-26" x1="1.858" y1="0.561" x2="2.549" y2="2.067" xlink:href="#linear-gradient-14"/>
    <linearGradient id="linear-gradient-28" x1="2.843" y1="0.613" x2="4.002" y2="2.371" xlink:href="#linear-gradient-14"/>
  </defs>
  <g id="campaña-01" transform="translate(3.303 -64.662)">
    <g id="Illustration" transform="translate(-3.303 64.662)">
      <g id="Digital_PR" data-name="Digital PR" transform="translate(0 0)">
        <path id="Trazado_132914" data-name="Trazado 132914" d="M124.483,60.784c-13.1,14.866,2.26,38.968-17.172,50.146-18.916,10.887-42.154-6.957-59.982,2.413-26.445,13.9-21.617,77.491,17.049,117,11.627,11.877,21.343,16.505,25.646,29.944,9.24,28.856-23.231,46.021-17.054,60.29,13.914,32.134,227.909,59.1,313.774-37.475,40.106-45.1,46.1-110.234,10.272-159.7C332.271,34.018,153.87,27.427,124.483,60.784Z" transform="translate(-30.747 -42.277)" fill="rgba(125,110,178,0.6)" opacity="0.2"/>
        <path id="Trazado_132915" data-name="Trazado 132915" d="M547.487,310.823c5.157.434,9.718-3.741,10.188-9.324s-3.328-10.463-8.486-10.9c-.266-.022-.531-.026-.795-.023a58.409,58.409,0,0,0-1.343-8.455c.244-.1.489-.2.73-.328a10.616,10.616,0,0,0,4.581-13.523,8.99,8.99,0,0,0-12.443-4.774c-.246.128-.479.268-.71.413a53.62,53.62,0,0,0-5.085-6.527c.172-.221.339-.448.5-.69a10.616,10.616,0,0,0-2.254-14.1,8.99,8.99,0,0,0-13.066,2.626c-.152.237-.288.48-.42.724a47.591,47.591,0,0,0-7.464-2.853c.046-.282.088-.564.113-.854.47-5.584,1.487-11.888-3.675-12.241-11.944-.818-14.529,5.084-15,10.668-.024.289-.031.575-.033.86a47.588,47.588,0,0,0-7.836,1.565c-.088-.264-.182-.526-.293-.786-2.176-5.052-1.779-8.423-6.713-6.527-10.761,4.129-12.482,10.226-10.311,15.278.114.265.242.512.374.768a53.51,53.51,0,0,0-6.105,5.587c-.2-.182-.411-.361-.632-.527a8.992,8.992,0,0,0-13.066,2.628,10.615,10.615,0,0,0,2.255,14.1c.216.163.44.306.664.445a58.462,58.462,0,0,0-2.738,8.1c-.256-.046-.521-.087-.788-.11-5.157-.434-9.718,3.74-10.188,9.324s3.328,10.462,8.486,10.9c.266.023.531.026.795.024a58.409,58.409,0,0,0,1.343,8.447c-.245.1-.489.2-.73.328a10.616,10.616,0,0,0-4.581,13.523,8.991,8.991,0,0,0,12.443,4.775c.244-.128.48-.269.71-.413a53.742,53.742,0,0,0,5.084,6.527c-.17.223-.338.449-.494.69a10.616,10.616,0,0,0,2.254,14.1c4.231,3.169,13.389,1.718,16.375-2.9.152-.237-3.021-.206-2.889-.452a47.6,47.6,0,0,0,7.464,2.854c-.046.282-.088.564-.113.854-.47,5.583,3.328,10.462,8.486,10.9s9.718-3.74,10.188-9.323c.024-.289.031-.576.033-.861a47.449,47.449,0,0,0,7.836-1.565c.088.264.182.527.293.786a8.992,8.992,0,0,0,12.443,4.775A10.617,10.617,0,0,0,527.45,341.8c-.114-.264-.242-.512-.374-.768a53.627,53.627,0,0,0,6.105-5.587c.2.182.411.361.632.526a8.991,8.991,0,0,0,13.067-2.626,10.616,10.616,0,0,0-2.255-14.1c-.216-.161-.439-.3-.664-.444A58.576,58.576,0,0,0,546.7,310.7,6.034,6.034,0,0,0,547.487,310.823Zm-53.02,22.318c-18.719-1.577-32.517-19.289-30.81-39.563s18.271-35.429,36.989-33.852,32.517,19.289,30.81,39.563S513.189,334.717,494.467,333.141Z" transform="translate(-348.825 -229.923)" fill="#bfc6d1"/>
        <path id="Trazado_132916" data-name="Trazado 132916" d="M1013.336,312a10.616,10.616,0,0,0,4.581-13.523,8.99,8.99,0,0,0-12.443-4.774c-.246.128-.479.267-.71.413a53.633,53.633,0,0,0-5.085-6.527c.172-.221.339-.448.5-.69,2.986-4.618,5.28-13.779.746-16.5-8.6-5.157-13.08.407-16.067,5.025-.152.237-.288.48-.421.724a47.587,47.587,0,0,0-7.463-2.853c.046-.282.088-.564.113-.854a10.494,10.494,0,0,0-2.56-7.882q-1.733,13.095-3.232,26.216c16.068,4.046,27.273,20.326,25.726,38.716-1.317,15.583-11.406,28.132-24.506,32.4.029,1.7.074,3.411.057,5.12-.042,4.628-.343,9.266-.648,13.9q1.906-.384,3.768-.921c.088.264.182.527.293.786,2.176,5.053,7.021,8.125,15.671,4.066,4.784-2.246,3.524-7.761,1.353-12.814-.114-.264-.242-.512-.374-.768a53.747,53.747,0,0,0,6.105-5.587c.2.182.411.361.632.526,4.224,3.168,13.722,1.39,16.708-3.229s-1.664-10.328-5.9-13.5c-.216-.163-.44-.306-.664-.445a58.558,58.558,0,0,0,2.738-8.111c.256.045.521.087.788.109,5.157.435,9.718-3.74,10.188-9.323s-3.328-10.463-8.486-10.9c-.266-.023-.531-.026-.795-.023a58.4,58.4,0,0,0-1.343-8.455C1012.85,312.229,1013.1,312.121,1013.336,312Z" transform="translate(-814.379 -260.127)" fill="#bfc6d1"/>
        <path id="Trazado_132917" data-name="Trazado 132917" d="M585.065,309.8c5.157.434,9.718-3.74,10.189-9.324s-3.328-10.462-8.486-10.9c-.268-.023-.531-.026-.795-.024a58.59,58.59,0,0,0-1.343-8.447c.244-.1.489-.2.73-.329a10.616,10.616,0,0,0,4.581-13.522,8.991,8.991,0,0,0-12.443-4.775c-.246.128-.48.269-.71.413a53.868,53.868,0,0,0-5.085-6.527c.172-.223.339-.449.5-.69a10.618,10.618,0,0,0-2.254-14.1,8.99,8.99,0,0,0-13.066,2.626c-.154.237-.289.48-.421.726a47.587,47.587,0,0,0-7.463-2.854c.046-.282.087-.564.111-.854.471-5.583-3.328-10.462-8.484-10.9s-9.718,3.74-10.189,9.323c-.024.289-.031.576-.032.861a47.553,47.553,0,0,0-7.836,1.564c-.09-.256-.182-.526-.293-.785a8.992,8.992,0,0,0-12.443-4.775,10.606,10.606,0,0,0-4.581,13.516c.113.264.241.512.372.768a53.851,53.851,0,0,0-6.105,5.587c-.2-.182-.411-.361-.631-.526a8.99,8.99,0,0,0-13.067,2.626,10.617,10.617,0,0,0,2.254,14.1c.216.163.44.306.666.445A58.585,58.585,0,0,0,486,281.142c-.256-.046-.521-.087-.787-.11-5.157-.434-9.718,3.741-10.189,9.324s3.328,10.462,8.486,10.9c.268.022.532.026.795.023a58.763,58.763,0,0,0,1.343,8.455c-.244.1-.489.2-.729.328a10.617,10.617,0,0,0-4.581,13.523,8.99,8.99,0,0,0,12.443,4.774c.246-.128.48-.267.712-.413a53.753,53.753,0,0,0,5.084,6.527c-.172.221-.339.448-.5.69a10.615,10.615,0,0,0,2.255,14.1,8.989,8.989,0,0,0,13.065-2.626c.154-.237.289-.48.421-.724a47.581,47.581,0,0,0,7.463,2.853c-.046.282-.087.564-.111.854-.471,5.584,3.328,10.462,8.486,10.9s9.718-3.74,10.188-9.324c.024-.289.031-.576.032-.86a47.551,47.551,0,0,0,7.836-1.565c.09.264.183.526.293.785a8.992,8.992,0,0,0,12.443,4.775,10.615,10.615,0,0,0,4.581-13.522c-.113-.265-.241-.512-.372-.768a53.618,53.618,0,0,0,6.105-5.587c.2.182.411.361.631.526a8.99,8.99,0,0,0,13.067-2.625,10.619,10.619,0,0,0-2.254-14.1c-.216-.163-.44-.306-.664-.445a58.629,58.629,0,0,0,2.738-8.111A7.518,7.518,0,0,0,585.065,309.8Zm-53.02,22.32c-18.722-1.577-32.516-19.289-30.809-39.563s18.269-35.429,36.989-33.852S570.746,278,569.039,298.27,550.769,333.7,532.046,332.122Z" transform="translate(-381.593 -230.25)" fill="#f5ca56"/>
        <path id="Trazado_132918" data-name="Trazado 132918" d="M1242.979,2154.284a13.857,13.857,0,0,1-9.188-10.434l-6.829-33.8-58.422,2.075-7.19,35.214c-1.007,4.931,3.024,9.879,7.667,11.7l24.446,9.563a31.77,31.77,0,0,0,14.29,2.071l51.657-4.418a3.2,3.2,0,0,0,2.9-2.839c.175-1.523,1.234-3.233-.206-3.712Z" transform="translate(-979.977 -1869.412)" fill="#97a6b7"/>
        <path id="Trazado_132919" data-name="Trazado 132919" d="M1256.98,2142.009a13.737,13.737,0,0,1-9.179-10.3l-6.823-33.377-57,2.048-7.183,34.771a10.173,10.173,0,0,0,6.293,11.547l24.418,9.443a32.075,32.075,0,0,0,14.275,2.048l51.6-4.363a3.185,3.185,0,0,0,.724-6.2Z" transform="translate(-993.399 -1859.193)" fill="#fff"/>
        <path id="Trazado_132920" data-name="Trazado 132920" d="M207.389,825.565c-6.335.384-11.519-3.732-11.519-9.164V620.634c0-5.432,5.182-9.626,11.519-9.351l8.591,5.76,284.4,6.929a8.856,8.856,0,0,1,8.418,8.742v166.5a9.036,9.036,0,0,1-8.418,8.88Z" transform="translate(-138.205 -562.461)" fill="#97a6b7"/>
        <path id="Trazado_132921" data-name="Trazado 132921" d="M227.969,825.565c-6.335.384-11.519-3.732-11.519-9.164V620.634c0-5.432,5.184-9.626,11.519-9.351l292.99,12.7a8.856,8.856,0,0,1,8.418,8.742v166.5a9.036,9.036,0,0,1-8.418,8.88Z" transform="translate(-156.151 -562.461)" fill="url(#linear-gradient)"/>
        <path id="Trazado_132922" data-name="Trazado 132922" d="M557.584,659.011,264.594,646.958c-3.388-.14-6.143,2.1-6.143,4.992V847.22c0,2.9,2.753,5.094,6.143,4.9l292.991-16.824a4.824,4.824,0,0,0,4.509-4.747V663.684A4.73,4.73,0,0,0,557.584,659.011Z" transform="translate(-192.776 -593.576)" fill="#d8dee8" opacity="0.3"/>
        <path id="Trazado_132923" data-name="Trazado 132923" d="M290.143,857.262a2.116,2.116,0,0,1-2.393-1.928V673.877a2.14,2.14,0,0,1,2.393-1.952l292.991,11.6a1.847,1.847,0,0,1,1.762,1.824V840.938a1.87,1.87,0,0,1-1.762,1.842Z" transform="translate(-218.326 -615.351)" fill="#d8dee8"/>
        <path id="Trazado_132924" data-name="Trazado 132924" d="M490.355,796.016c-24.65-15.247-7.432-58.6-35.114-80.378-27.9-21.961-67.179,4.974-86.728-17.769-14.556-16.933,2.477-37.381-11.422-53.305-21.8-24.975-77.594,9.373-103.228-15.231-3.64-3.493-7.313-8.793-9.4-17.3l-16.511-.716c-6.335-.275-11.519,3.919-11.519,9.351V816.438c0,5.432,5.184,9.542,11.519,9.164l292.99-17.467a9.036,9.036,0,0,0,8.418-8.88v-2.963C509.905,802.894,498.013,800.752,490.355,796.016Z" transform="translate(-156.134 -562.496)" fill="#fff" opacity="0.6"/>
        <path id="Trazado_132925" data-name="Trazado 132925" d="M453.81,776.165l-76.551-3.072-.728-1.325-.319-.013a6.069,6.069,0,0,0-6.433,6.023v114.7a6.355,6.355,0,0,0,6.433,6.271h1.064l.328-.681,75.788-1.867c3.376,0,6.6-.182,6.6-3.552V781.088C459.994,777.719,457.187,776.3,453.81,776.165Z" transform="translate(-289.856 -702.402)" fill="url(#linear-gradient-2)"/>
        <path id="Trazado_132926" data-name="Trazado 132926" d="M464.171,774.414l-77.724-3a6.072,6.072,0,0,0-6.437,6.026V892.181a6.357,6.357,0,0,0,6.437,6.271h77.724a6.105,6.105,0,0,0,6.114-6.1V780.744A6.4,6.4,0,0,0,464.171,774.414Z" transform="translate(-298.777 -702.106)" fill="#fff"/>
        <path id="Trazado_132927" data-name="Trazado 132927" d="M511.8,1022.445l-76.468-1.306V976.58l76.468,2.34Z" transform="translate(-347.017 -881.015)" fill="#f5ca56"/>
        <path id="Trazado_132928" data-name="Trazado 132928" d="M661.888,1063.946a12.5,12.5,0,0,1-12.9,12.461,13.241,13.241,0,0,1-13-13.086,12.493,12.493,0,0,1,13-12.457A13.245,13.245,0,0,1,661.888,1063.946Z" transform="translate(-521.994 -945.787)" fill="#fff"/>
        <path id="Trazado_132929" data-name="Trazado 132929" d="M715,1105.672l-8.972-5.512a1.1,1.1,0,0,0-1.707.911v10.594a1.152,1.152,0,0,0,1.707.993l8.972-5.081a1.1,1.1,0,0,0,0-1.9Z" transform="translate(-581.579 -988.622)" fill="url(#linear-gradient-3)"/>
        <path id="Trazado_132930" data-name="Trazado 132930" d="M511.8,857.222l-76.468-2.451V842.41l76.468,2.738Z" transform="translate(-347.017 -764.018)" opacity="0.5" fill="url(#linear-gradient-4)"/>
        <path id="Trazado_132931" data-name="Trazado 132931" d="M511.8,1439.966l-76.468-.855v-5.451l76.468.982Z" transform="translate(-347.017 -1279.594)" opacity="0.5" fill="url(#linear-gradient-5)"/>
        <path id="Trazado_132932" data-name="Trazado 132932" d="M511.8,1516.817l-76.468-.626v-5.451l76.468.754Z" transform="translate(-347.017 -1346.808)" opacity="0.5" fill="url(#linear-gradient-4)"/>
        <path id="Trazado_132933" data-name="Trazado 132933" d="M511.8,1593.677l-76.468-.4v-5.45l76.468.523Z" transform="translate(-347.017 -1414.031)" opacity="0.5" fill="url(#linear-gradient-4)"/>
        <path id="Trazado_132934" data-name="Trazado 132934" d="M517.182,1849.222l-42.713-.152a3.563,3.563,0,0,0-3.52,3.611v38.851a3.386,3.386,0,0,0,3.52,3.465l42.713-1.907a3.656,3.656,0,0,0,3.378-3.694v-36.623A3.478,3.478,0,0,0,517.182,1849.222Z" transform="translate(-378.078 -1641.836)" fill="#fff"/>
        <path id="Trazado_132935" data-name="Trazado 132935" d="M543.222,2109.63l-42.022,1.657v-3.148l42.022-1.6Z" transform="translate(-404.456 -1866.352)" fill="url(#linear-gradient-8)"/>
        <path id="Trazado_132936" data-name="Trazado 132936" d="M543.222,1910.571l-42.022.856v-25.739l42.022-.379Z" transform="translate(-404.456 -1673.437)" fill="#f5ca56"/>
        <path id="Trazado_132937" data-name="Trazado 132937" d="M588.559,1917.52l-22.526.324a1.343,1.343,0,0,0-.965.431,1.488,1.488,0,0,0-.41,1.012l-.151,14.636a1.8,1.8,0,0,0,.525,1.314,1.638,1.638,0,0,0,1.2.49h.076l22.128-.84a1.893,1.893,0,0,0,1.737-1.89l.152-13.656a1.76,1.76,0,0,0-1.761-1.821Zm.1,2.24-8.223,7.807a2.825,2.825,0,0,1-1.887.795,2.662,2.662,0,0,1-1.613-.512l-10.448-7.552a.412.412,0,0,1-.087-.564.384.384,0,0,1,.541-.111l10.453,7.552a1.956,1.956,0,0,0,2.519-.207l8.219-7.808a.384.384,0,0,1,.559.016.425.425,0,0,1-.035.582Z" transform="translate(-459.66 -1701.525)" fill="#fff"/>
        <path id="Trazado_132938" data-name="Trazado 132938" d="M1008.813,1012.237l65.352.651a5.3,5.3,0,0,1,5.107,5.318l.731,56.572a5.123,5.123,0,0,1-4.977,5.313l-65.438.4a5.577,5.577,0,0,1-5.592-5.514l-.64-57.265a5.391,5.391,0,0,1,5.458-5.477Z" transform="translate(-842.34 -912.108)" fill="url(#linear-gradient-9)"/>
        <path id="Trazado_132939" data-name="Trazado 132939" d="M1051.415,1106.018l64.344-.605-.483-37.667-64.307-1Z" transform="translate(-883.861 -959.636)" fill="#fff"/>
        <path id="Trazado_132940" data-name="Trazado 132940" d="M1224.1,1129.557a13.415,13.415,0,0,0,1.945-5.823,8.582,8.582,0,0,0-.723-4.158,11.924,11.924,0,0,0-4.234-4.667,12.957,12.957,0,0,1-3.145-2.983l-.142-.214a5.751,5.751,0,0,1-1.064-2.14,1.28,1.28,0,0,0-1.254-1.152,1.193,1.193,0,0,0-1.169,1.176l-.694,22.208a7.054,7.054,0,0,0-3.613-1.23c-3.349-.191-6.144,1.889-6.232,4.638s2.571,5.14,5.92,5.332,6.143-1.889,6.232-4.638l.454-14.526a9.222,9.222,0,0,1,5.422,7.114,7.094,7.094,0,0,1-.491.654,1.267,1.267,0,0,0,.055,1.762,1.188,1.188,0,0,0,1.718-.014,8.986,8.986,0,0,0,.932-1.235A.829.829,0,0,0,1224.1,1129.557Z" transform="translate(-1017.107 -995.981)" fill="#f5ca56"/>
        <path id="Trazado_132941" data-name="Trazado 132941" d="M1661.935,571.557l-103.266-.621-.82-1.422-.347-.008a6.523,6.523,0,0,0-6.831,6.616l-.351,79.422a7.049,7.049,0,0,0,7.106,6.783h1.152l.34-.74,102.232-4.716c3.915-.01,7.66-.22,7.574-4l.512-75.9C1669.158,573.19,1665.854,571.646,1661.935,571.557Z" transform="translate(-1319.299 -526.042)" fill="#d8dee8"/>
        <path id="Trazado_132942" data-name="Trazado 132942" d="M1673.008,659.276a6.8,6.8,0,0,0,6.95-6.865l.523-75.963a7.372,7.372,0,0,0-7.271-7l-104.647-.463a6.535,6.535,0,0,0-6.842,6.622l-.351,79.482a7.062,7.062,0,0,0,7.118,6.792Z" transform="translate(-1328.935 -525.589)" fill="#fff"/>
        <path id="Trazado_132943" data-name="Trazado 132943" d="M1714.742,694.138l-101.386,3.04a2.762,2.762,0,0,1-2.7-2.957l.724-72.089a2.935,2.935,0,0,1,2.756-3.041l101.344-.151a2.707,2.707,0,0,1,2.493,2.916l-.682,69.286A2.879,2.879,0,0,1,1714.742,694.138Z" transform="translate(-1371.916 -569.15)" fill="#d8dee8"/>
        <path id="Trazado_132944" data-name="Trazado 132944" d="M1643.056,640.708c-8.852-5.227-15.855.836-22.451-5.524-3.977-3.84-1.981-6.563-6.853-12.241-5.367-6.255-8.9-4.262-14.255-9.868-6.725-7.039-3.281-12.395-9.066-17.425-6.972-6.062-14.552-.566-21.09-6.336-2.807-2.475-4.321-6.058-5.091-9.855h-6.376a2.125,2.125,0,0,0-2.036,2.176l-.838,85.04a2,2,0,0,0,2,2.116l114.852-3.477a1.878,1.878,0,0,0,1.474-.854c-8.872-.7-14.258-3.95-17.674-7.211C1649,650.9,1650.214,644.938,1643.056,640.708Z" transform="translate(-1323.38 -534.722)" fill="#fff" opacity="0.48"/>
        <g id="Grupo_56181" data-name="Grupo 56181" transform="translate(230.252 21.431)" clip-path="url(#clip-path)">
          <path id="Trazado_132945" data-name="Trazado 132945" d="M2438.783,429.134l-.463-3s-3.223-3.015-3.182-4.537c.043-1.64.114-3.9,1.134-4.181,1.235-.337,3.159,2.335,4.013,4.434a10.3,10.3,0,0,1,.749,3.744l1.233,3.983Z" transform="translate(-2321.121 -414.821)" fill="url(#linear-gradient-10)"/>
          <path id="Trazado_132946" data-name="Trazado 132946" d="M2430.257,452.485a5.057,5.057,0,0,1-2.186-3.27c-.347-2.163.557.027,2.291.858l1.737.832s1.861.814,1.479,1.518S2430.257,452.485,2430.257,452.485Z" transform="translate(-2314.895 -441.77)" fill="url(#linear-gradient-11)"/>
          <path id="Trazado_132947" data-name="Trazado 132947" d="M2234.956,495.745a7.939,7.939,0,0,1,4.927-2.928c6.865-.84,15.464,10.344,16.283,21.048.06.768.813,12.75-8.547,20.7-13.512,11.477-38.311,6.271-42.644-3.143-1.423-3.094-1.152-7.7-1.1-8.5a23.8,23.8,0,0,1,3.481-10.941c10.642,2.68,23.924,4.106,27.884-1.093C2238.2,507,2239.342,501.415,2234.956,495.745Z" transform="translate(-2119.41 -480.56)" fill="url(#linear-gradient-12)"/>
          <path id="Trazado_132948" data-name="Trazado 132948" d="M1785.26,626.05a104.664,104.664,0,0,1,37.3-5.166,108.008,108.008,0,0,1,23.988,3.781q1.254,7.123,2.509,14.258a162.843,162.843,0,0,1-.471,18.826c-.631,7.605-1.176,7.706-2.553,18.418-2.242,17.437-1.422,22.045-5.089,23.993-2.378,1.265-3.191,1.084-15.151-.575-7.935-1.1-11.272-1.369-15.272-.218-5.422,1.563-7.964,2.757-10.169,1.684-2.111-1.024-2.344-4.642-2.538-10.933-.3-9.7-.21-16.283-.223-18.641-.06-10.815-2.752-19.12-6.186-29.724a141.442,141.442,0,0,0-6.141-15.7Z" transform="translate(-1754.421 -592.19)" fill="url(#linear-gradient-12)"/>
          <path id="Trazado_132949" data-name="Trazado 132949" d="M1890.313,867.56c-5.873-2.666-5.789-7.7-11.246-9.992-7.734-3.247-16.308,3.364-17.611,1.408-1.354-2.034,8.847-7.807,7.551-13.879-1.024-4.821-8.111-4.158-11.813-10.781-3.5-6.257.008-11.9-3.124-14.108-1.121-.788-3.106-1.122-6.879.451,2.539,8.125,4.352,15.3,4.4,24.144.013,2.358-.075,8.94.223,18.64.194,6.291.427,9.905,2.538,10.933,2.205,1.073,4.747-.128,10.169-1.684,4-1.152,7.308-2.37,15.249-1.28,11.959,1.651,12.8,3.328,15.174,2.068,1.552-.824,2.3-2.132,2.816-4.683A15.449,15.449,0,0,1,1890.313,867.56Z" transform="translate(-1808.425 -765.511)" opacity="0.3" fill="url(#linear-gradient-14)"/>
          <path id="Trazado_132950" data-name="Trazado 132950" d="M2001.248,536.87a31.491,31.491,0,0,1-1,6.391c-.45,1.691-.724,2.12-1.061,2.461-.506.512-1.248.927-5.331,1.682-2.214.41-2.494.384-2.56.589-.3,1.024,5.426,4.879,11.668,4.381,3.84-.3,7.454-2.226,7.312-3.349s-4-.74-5-2.822c-.7-1.448.316-3.4,1.468-4.992C2005.852,539.311,2002.137,538.76,2001.248,536.87Z" transform="translate(-1934.074 -519.014)" fill="url(#linear-gradient-15)"/>
          <path id="Trazado_132951" data-name="Trazado 132951" d="M2067.088,506.3a3.877,3.877,0,0,0,1.28-4.326,4.272,4.272,0,0,0-2.6-2.159c-2.251-.923-5.484-.806-7.157.995-.99,1.065-.49,4.007-.431,4.528.068.589.431.888.695,1.4.367.7.937,1.816,1.856,3.672a9.877,9.877,0,0,1,1.011-1.387,8.827,8.827,0,0,1,1.674-1.492C2065.076,506.428,2065.936,507.124,2067.088,506.3Z" transform="translate(-1992.254 -486.207)" fill="url(#linear-gradient-16)"/>
          <path id="Trazado_132952" data-name="Trazado 132952" d="M2057.808,541.391a5.282,5.282,0,0,0,3.864,3.576c2.787.62,5.071-5.248,3.719-7.016a3.61,3.61,0,0,0-2.593-1.112c-.608-.006-.869.166-1.861.136-.914-.027-1.125-.187-1.446-.051-.4.172-.837.749-.85,2.644a1.528,1.528,0,0,0-1.425-.961.989.989,0,0,0-.47.241C2056.155,539.419,2056.518,540.47,2057.808,541.391Z" transform="translate(-1990.92 -518.987)" fill="url(#linear-gradient-17)"/>
          <path id="Trazado_132953" data-name="Trazado 132953" d="M2064.391,534.2c.1.128-.45.5-.692,1.166a3.328,3.328,0,0,0,1.746,3.8c.8.316,1.176-.1,2.583.15a6.616,6.616,0,0,1,1.957.685,3.375,3.375,0,0,1-2.084,3.274,3.623,3.623,0,0,1-3.026-.768,3.936,3.936,0,0,1-1.729-2.245c-.306-1.325.557-1.821.039-2.808a6.435,6.435,0,0,1-.967-1.7,3.832,3.832,0,0,1-.118-.584C2063.028,534.648,2064.243,534.007,2064.391,534.2Z" transform="translate(-1995.829 -516.655)" fill="url(#linear-gradient-18)"/>
          <path id="Trazado_132954" data-name="Trazado 132954" d="M2102.21,580.142a3.6,3.6,0,0,1-1.688-.22.16.16,0,0,0-.128,0c-.054.087.469.7,1.123.708.466,0,.923-.293.9-.41C2102.409,580.176,2102.31,580.153,2102.21,580.142Z" transform="translate(-2029.218 -556.544)" fill="url(#linear-gradient-19)"/>
          <path id="Trazado_132955" data-name="Trazado 132955" d="M1837,999.943l2.782-.074s3.079-2.432,4.472-2.241a12.177,12.177,0,0,1,3.728,1.416c.253.209-.778,1.3-1.792,1.162s-3.294.338-3.712,1.208-2.176,1.35-2.47.824l-3.742.622Z" transform="translate(-1798.902 -920.79)" fill="url(#linear-gradient-20)"/>
          <path id="Trazado_132956" data-name="Trazado 132956" d="M1628.662,695.985a6.486,6.486,0,0,1-1.177,4.8c-3.712,4.527-16.028,2.237-23.229-4.146a24.057,24.057,0,0,1-7.874-18.114c.324-12.306,11.867-24.29,29.155-28.4q3.755,11.464,7.532,22.988c-10.751-.014-15.231,7.5-14.335,13.219C1619.408,690.588,1622.284,694.872,1628.662,695.985Z" transform="translate(-1589.711 -617.769)" fill="url(#linear-gradient-12)"/>
        </g>
        <path id="Trazado_132958" data-name="Trazado 132958" d="M1162.769,1818.308a12.14,12.14,0,0,1-12.107-3.863l-42.5-50.024a10.591,10.591,0,0,1,1.28-15.086c4.617-3.819,13.674-3.968,17.619.632l43.327,50.451a10.355,10.355,0,0,1-1.536,15.272A25.1,25.1,0,0,1,1162.769,1818.308Z" transform="translate(-931.49 -1552.386)" fill="#26aab7"/>
        <path id="Trazado_132959" data-name="Trazado 132959" d="M1109.438,1749.336c4.617-3.819,13.674-3.968,17.619.632l39.615,46.129c-4.083.238-8.52,1.755-14.01-.631-9.138-3.968-8.191-13.115-16.137-18.447-3.631-2.432-9.515-4.343-19.583-2.26l-8.783-10.337A10.591,10.591,0,0,1,1109.438,1749.336Z" transform="translate(-931.491 -1552.386)" opacity="0.3" fill="url(#linear-gradient-22)"/>
        <path id="Trazado_132960" data-name="Trazado 132960" d="M960.405,1680.861a4.652,4.652,0,0,1,.628-.154l14.8-4.917,12.362,38.62-14.405,4.4a4.766,4.766,0,0,1-1.079.5c-5.092,1.629-11.973-5.656-15.372-16.273S955.313,1682.49,960.405,1680.861Z" transform="translate(-800.588 -1490.733)" fill="#0d585f"/>
        <path id="Trazado_132961" data-name="Trazado 132961" d="M1112.467,1198.984c-1.509,14.661,2.593,27.476,12.363,38.62l121.86.155L1213.133,1129Z" transform="translate(-937.222 -1013.927)" fill="#26aab7"/>
        <path id="Trazado_132962" data-name="Trazado 132962" d="M1214.823,1719.937c-11.775-.617-19.922-14.813-32.283-11.422-9.7,2.661-9.607,12.876-19.3,14.875-9.927,2.048-14.847-7.786-26.769-7.993a26.21,26.21,0,0,0-14.947,4.84,49.552,49.552,0,0,0,11.469,21.858l121.86.155-18.318-34.711C1227.672,1717.381,1220.534,1720.235,1214.823,1719.937Z" transform="translate(-945.381 -1518.42)" fill="#0d585f" opacity="0.3"/>
        <ellipse id="Elipse_4386" data-name="Elipse 4386" cx="28.219" cy="58.854" rx="28.219" ry="58.854" transform="matrix(0.952, -0.305, 0.305, 0.952, 252.519, 120.046)" fill="#0d585f"/>
        <path id="Trazado_132963" data-name="Trazado 132963" d="M1879.192,1219.9c3.151-1.009,5.825-3.328,7.946-6.876a37.353,37.353,0,0,0,4.433-14c1.647-11.922-.036-26.58-4.736-41.273s-11.846-27.6-20.109-36.349a37.342,37.342,0,0,0-11.739-8.82c-3.79-1.664-7.309-1.992-10.461-.983s-5.825,3.328-7.946,6.876a37.3,37.3,0,0,0-4.435,14,75.693,75.693,0,0,0-.342,16.192c.631,7.993,8.17,14.135,10.907,22.685,2.911,9.087.928,19.895,5.394,27.058A74.2,74.2,0,0,0,1857,1210.1a37.348,37.348,0,0,0,11.738,8.821C1872.521,1220.576,1876.041,1220.906,1879.192,1219.9Z" transform="translate(-1564.518 -998.256)" fill="#239da9"/>
        <g id="Grupo_56182" data-name="Grupo 56182" transform="translate(267.012 112.773)" clip-path="url(#clip-path-2)">
          <path id="Trazado_132964" data-name="Trazado 132964" d="M1796.383,1404.255c4.546,14.207-1.248,28.487-12.776,31.859-11.349,3.328-24-5.216-28.424-19.022s.97-27.966,12.195-31.679C1778.772,1381.643,1791.838,1390.053,1796.383,1404.255Z" transform="translate(-1763.609 -1349.51)" fill="#6a5d99"/>
          <path id="Trazado_132965" data-name="Trazado 132965" d="M1924.6,1432.5c3.375,10.545,1.474,20.385-4.166,21.955-5.553,1.546-12.653-5.529-15.935-15.781s-1.577-20.03,3.883-21.868C1913.925,1414.936,1921.221,1421.951,1924.6,1432.5Z" transform="translate(-1893.703 -1377.404)" fill="#6a5d99" opacity="0.3"/>
        </g>
        <ellipse id="Elipse_4387" data-name="Elipse 4387" cx="19.812" cy="15.771" rx="19.812" ry="15.771" transform="matrix(0.941, -0.337, 0.337, 0.941, 286.251, 117.019)" fill="url(#linear-gradient-23)"/>
        <path id="Trazado_132967" data-name="Trazado 132967" d="M2108.221,1172.17l-5.061-14.122c-.325-.906.221-1.775,1.024-1.62l14.43,2.8a1.464,1.464,0,0,1,.8,2.224l-9.368,11.326C2109.52,1173.4,2108.546,1173.076,2108.221,1172.17Z" transform="translate(-1801.298 -1037.828)" fill="#fff"/>
        <g id="Grupo_56183" data-name="Grupo 56183" transform="translate(290.823 121.494)" opacity="0.3">
          <path id="Trazado_132968" data-name="Trazado 132968" d="M2045.457,1192.309c-3.822-3.584-3.015-8.492-7.074-10.239-4.122-1.771-7.178,2.344-12.341,1.549-2-.307-4.479-1.375-7.134-4.449a13.77,13.77,0,0,0-.6,10.378c2.944,8.2,13.671,11.854,23.971,8.162a24.288,24.288,0,0,0,6.342-3.385A10.435,10.435,0,0,1,2045.457,1192.309Z" transform="translate(-2017.563 -1179.17)" fill="url(#linear-gradient-24)"/>
        </g>
        <ellipse id="Elipse_4388" data-name="Elipse 4388" cx="24.42" cy="19.44" rx="24.42" ry="19.44" transform="matrix(0.981, -0.192, 0.192, 0.981, 309.978, 142.431)" fill="#7d6eb2"/>
        <path id="Trazado_132969" data-name="Trazado 132969" d="M2316.4,1356.68a8.735,8.735,0,0,0-6.894,10.251c.6,3.072,5.6,9.5,9.042,13.648a2.83,2.83,0,0,0,4.876-.955c1.624-5.14,3.827-12.982,3.227-16.05a8.735,8.735,0,0,0-10.25-6.893Zm2.58,13.174a4.69,4.69,0,1,1,3.7-5.5A4.689,4.689,0,0,1,2318.984,1369.854Z" transform="translate(-1981.177 -1212.323)" fill="#fff"/>
        <g id="Grupo_56184" data-name="Grupo 56184" transform="translate(313.412 148.994)" opacity="0.3">
          <path id="Trazado_132970" data-name="Trazado 132970" d="M2226.913,1414.954c-3.995-5.067-2.1-10.906-6.725-13.782-4.7-2.922-9.183,1.527-15.326-.4-2.375-.744-5.2-2.5-7.871-6.744a16.992,16.992,0,0,0-2.647,12.543c2.062,10.536,14.463,16.978,27.7,14.386a29.964,29.964,0,0,0,8.354-2.95A12.869,12.869,0,0,1,2226.913,1414.954Z" transform="translate(-2194.051 -1394.03)" fill="url(#linear-gradient-25)"/>
        </g>
        <path id="Trazado_132971" data-name="Trazado 132971" d="M2195.368,1684.236c-2.1,8.259-11.853,12.927-21.926,10.386-10.239-2.581-16.913-11.6-14.746-20.114s12.3-13.075,22.476-10.239C2191.177,1667.058,2197.465,1675.979,2195.368,1684.236Z" transform="translate(-1849.453 -1479.954)" fill="url(#linear-gradient-26)"/>
        <path id="Trazado_132972" data-name="Trazado 132972" d="M2195.368,1684.236c-2.1,8.259-11.853,12.927-21.926,10.386-10.239-2.581-16.913-11.6-14.746-20.114s12.3-13.075,22.476-10.239C2191.177,1667.058,2197.465,1675.979,2195.368,1684.236Z" transform="translate(-1849.453 -1479.954)" fill="url(#linear-gradient-26)"/>
        <path id="Trazado_132973" data-name="Trazado 132973" d="M2245.935,1723.355h0a5.421,5.421,0,0,0-10.755-.651,5.856,5.856,0,0,0-3.895-7.2,5.518,5.518,0,0,0-5.967,2.3h0c-4.979,6.911,6.638,17.554,6.638,17.554S2246.91,1731.688,2245.935,1723.355Z" transform="translate(-1906.823 -1525.203)" fill="#fff"/>
        <g id="Grupo_56185" data-name="Grupo 56185" transform="translate(308.829 186.256)" opacity="0.3">
          <path id="Trazado_132974" data-name="Trazado 132974" d="M2178.83,1710.844c-1.065-5.038,2.226-8.634-.015-12.31-2.287-3.754-6.954-2.068-10.64-5.631-1.432-1.382-2.839-3.675-3.284-7.742a13.84,13.84,0,0,0-6.236,8.3c-2.167,8.509,4.5,17.535,14.746,20.114a22.313,22.313,0,0,0,6.821.653A10.279,10.279,0,0,1,2178.83,1710.844Z" transform="translate(-2158.247 -1685.16)" fill="url(#linear-gradient-28)"/>
        </g>
        <path id="Trazado_132975" data-name="Trazado 132975" d="M2147.884,2275.794a3.793,3.793,0,0,0-3.422,6.744c.088.045.179.083.271.119a21.707,21.707,0,0,0-.722,3.108,2.91,2.91,0,0,0-.3.01,3.956,3.956,0,0,0-3.478,4.026,3.349,3.349,0,0,0,3.626,3.393c.1-.009.2-.026.3-.043a20.08,20.08,0,0,0,.84,2.967c-.09.054-.179.108-.268.169a3.957,3.957,0,0,0-1.2,5.184,3.349,3.349,0,0,0,4.879.925c.086-.06.167-.128.247-.192a17.7,17.7,0,0,0,2.176,2.032c-.055.091-.109.182-.157.279-.946,1.861-2.176,3.9-.448,4.736,4.009,1.957,5.729.281,6.673-1.58a3.01,3.01,0,0,0,.128-.293,17.636,17.636,0,0,0,2.925.558c0,.1-.01.207-.009.312.041,2.048-.567,3.157,1.408,3.2,4.294.083,5.743-1.78,5.7-3.828a2.86,2.86,0,0,0-.022-.316,19.948,19.948,0,0,0,2.891-1.073c.045.091.091.182.145.27a3.349,3.349,0,0,0,4.879.925,3.954,3.954,0,0,0,1.2-5.184c-.051-.086-.109-.168-.166-.247a21.751,21.751,0,0,0,2.082-2.416c.083.052.168.1.256.148a3.793,3.793,0,0,0,3.424-6.743c-.09-.046-.18-.083-.271-.12a21.711,21.711,0,0,0,.722-3.106,2.565,2.565,0,0,0,.3-.012,3.956,3.956,0,0,0,3.477-4.025,3.35,3.35,0,0,0-3.627-3.393c-.1.009-.2.024-.3.042a19.936,19.936,0,0,0-.84-2.967c.091-.052.18-.107.268-.169a3.955,3.955,0,0,0,1.2-5.184c-1.016-1.687-4.381-2.47-6.06-1.294-.086.06,1.014.494.934.561a17.638,17.638,0,0,0-2.176-2.031c.055-.091.11-.183.158-.279a3.5,3.5,0,1,0-6.233-3.16,3.109,3.109,0,0,0-.128.292,17.724,17.724,0,0,0-2.925-.558c.006-.1.011-.207.009-.312a3.35,3.35,0,0,0-3.626-3.393,3.956,3.956,0,0,0-3.478,4.027c0,.106.011.211.022.316a19.919,19.919,0,0,0-2.891,1.073c-.045-.092-.091-.183-.144-.27a3.349,3.349,0,0,0-4.879-.925,3.954,3.954,0,0,0-1.2,5.182c.052.087.109.168.167.247a21.8,21.8,0,0,0-2.082,2.416C2148.052,2275.89,2147.968,2275.839,2147.884,2275.794Zm21.433-.271c6.243,3.169,8.521,11.218,5.09,17.977s-11.275,9.67-17.518,6.5-8.521-11.218-5.089-17.979,11.27-9.67,17.511-6.494Z" transform="translate(-1833.71 -2003.539)" fill="#c9ced6"/>
        <path id="Trazado_132976" data-name="Trazado 132976" d="M2143.672,2284.314a3.956,3.956,0,0,0-3.478,4.026,3.349,3.349,0,0,0,3.626,3.393c.1-.009.2-.026.3-.043a20.029,20.029,0,0,0,.839,2.967c-.09.054-.179.108-.267.169-1.678,1.177-3.754,4.018-2.57,5.591,2.248,2.987,4.573,1.695,6.251.512.086-.06.167-.128.247-.191a17.764,17.764,0,0,0,2.176,2.031c-.055.091-.109.182-.157.279a3.9,3.9,0,0,0-.22,3.08q2.432-4.28,4.791-8.6c-4.98-3.649-6.566-10.841-3.456-16.973a13.746,13.746,0,0,1,13-7.747c.229-.593.453-1.188.7-1.774.664-1.592,1.418-3.151,2.176-4.708q-.713-.128-1.431-.21c.006-.1.011-.207.009-.312-.041-2.048-1.28-3.79-4.839-3.6-1.967.1-2.3,2.185-2.264,4.234,0,.106.011.211.022.316a19.975,19.975,0,0,0-2.891,1.072c-.045-.092-.091-.183-.144-.27-1.016-1.688-4.542-2.4-6.221-1.229s-.873,3.8.143,5.486c.052.087.109.167.167.247a21.778,21.778,0,0,0-2.082,2.417c-.083-.052-.168-.1-.256-.148a3.793,3.793,0,0,0-3.422,6.744c.088.045.179.083.271.119a21.682,21.682,0,0,0-.722,3.108C2143.872,2284.308,2143.772,2284.308,2143.672,2284.314Z" transform="translate(-1833.676 -2002.08)" fill="#c9ced6"/>
        <path id="Trazado_132977" data-name="Trazado 132977" d="M2133.394,2274.162a3.793,3.793,0,0,0-3.422,6.743c.088.046.18.083.271.12a21.7,21.7,0,0,0-.722,3.106,2.615,2.615,0,0,0-.3.011,3.955,3.955,0,0,0-3.478,4.027,3.349,3.349,0,0,0,3.626,3.393c.1-.01.2-.025.3-.043a20.113,20.113,0,0,0,.84,2.967c-.09.052-.179.107-.268.169a3.957,3.957,0,0,0-1.2,5.184,3.35,3.35,0,0,0,4.879.925c.085-.06.166-.128.247-.192a17.819,17.819,0,0,0,2.176,2.033c-.055.089-.109.182-.158.278a3.5,3.5,0,1,0,6.226,3.16,2.445,2.445,0,0,0,.128-.292,17.774,17.774,0,0,0,2.925.558c0,.1-.01.208-.009.312a3.351,3.351,0,0,0,3.627,3.393,3.955,3.955,0,0,0,3.478-4.026c0-.106-.012-.211-.022-.315a20.174,20.174,0,0,0,2.89-1.074c.045.092.092.183.145.271a3.35,3.35,0,0,0,4.879.925,3.956,3.956,0,0,0,1.2-5.184c-.053-.087-.11-.168-.168-.247a21.755,21.755,0,0,0,2.083-2.417c.083.053.167.1.256.148a3.791,3.791,0,0,0,3.416-6.744c-.09-.045-.18-.083-.271-.119a21.718,21.718,0,0,0,.722-3.108,2.924,2.924,0,0,0,.3-.01,3.956,3.956,0,0,0,3.477-4.026,3.35,3.35,0,0,0-3.626-3.393c-.1.009-.2.026-.3.043a20.149,20.149,0,0,0-.841-2.967c.091-.054.18-.108.269-.169a3.957,3.957,0,0,0,1.2-5.184,3.349,3.349,0,0,0-4.879-.926c-.086.06-.168.128-.247.192a17.65,17.65,0,0,0-2.176-2.033c.056-.091.11-.181.159-.279a3.5,3.5,0,1,0-6.227-3.159,3.1,3.1,0,0,0-.128.293,17.673,17.673,0,0,0-2.925-.558c0-.1.01-.207.008-.312a3.35,3.35,0,0,0-3.626-3.393,3.955,3.955,0,0,0-3.477,4.025c0,.107.011.212.022.316a20.066,20.066,0,0,0-2.891,1.073c-.044-.091-.091-.182-.144-.27a3.35,3.35,0,0,0-4.879-.925,3.956,3.956,0,0,0-1.2,5.184c.053.086.11.168.168.247a21.63,21.63,0,0,0-2.082,2.416A1.926,1.926,0,0,0,2133.394,2274.162Zm21.435-.272c6.242,3.17,8.52,11.218,5.089,17.979s-11.275,9.67-17.518,6.5-8.52-11.218-5.089-17.978,11.275-9.669,17.521-6.5Z" transform="translate(-1821.075 -2002.118)" fill="#f5ca56"/>
      </g>
    </g>
  </g>
</svg>
