<svg xmlns="http://www.w3.org/2000/svg" xmlns:xlink="http://www.w3.org/1999/xlink" width="625.61" height="625.591" viewBox="0 0 625.61 625.591">
  <defs>
    <linearGradient id="linear-gradient" x1="0.146" y1="0.853" x2="0.854" y2="0.146" gradientUnits="objectBoundingBox">
      <stop offset="0" stop-color="#fff"/>
      <stop offset="1" stop-color="#e4e4e4"/>
    </linearGradient>
    <linearGradient id="linear-gradient-2" x1="0.147" y1="0.853" x2="0.854" y2="0.146" xlink:href="#linear-gradient"/>
  </defs>
  <g id="_360-12" data-name="360-12" transform="translate(9.48 -20.239)">
    <g id="OBJECTS" transform="translate(-9.48 20.24)">
      <path id="Trazado_132146" data-name="Trazado 132146" d="M63.095,320.015c-.21-5.6-4.42-7.637-9.346-4.563L-5.89,352.971c-4.926,3.093-4.773,7.857.4,10.568l62.341,32.889c5.146,2.721,9.184.344,8.974-5.27a10.406,10.406,0,0,1,10.12-10.587L202.784,375.8a10.616,10.616,0,0,0,10.177-10.979l-1.117-29.6a10.616,10.616,0,0,0-10.979-10.158L74.036,329.829A10.435,10.435,0,0,1,63.095,320.015Z" transform="translate(9.48 -33.553)" fill="#7d6eb2"/>
      <path id="Trazado_132147" data-name="Trazado 132147" d="M119.528,501.694c-4.124-3.819-8.592-2.291-9.833,3.38L94.047,573.81c-1.289,5.671,2.205,8.907,7.762,7.189l67.315-20.8c5.556-1.709,6.74-6.244,2.625-10.062a10.435,10.435,0,0,1-.306-14.7l86.294-93.1a10.6,10.6,0,0,0-.563-14.931l-21.729-20.144a10.606,10.606,0,0,0-14.95.563l-86.284,93.091a10.416,10.416,0,0,1-14.683.783Z" transform="translate(4.801 -37.651)" fill="#7d6eb2"/>
      <path id="Trazado_132148" data-name="Trazado 132148" d="M290.326,592.4c-5.6.21-7.637,4.4-4.554,9.337l37.5,59.639c3.1,4.917,7.857,4.773,10.578-.4l32.889-62.312c2.721-5.155.344-9.174-5.27-8.964A10.444,10.444,0,0,1,350.843,579.5l-4.773-126.829A10.6,10.6,0,0,0,335.091,442.5l-29.6,1.117A10.616,10.616,0,0,0,295.319,454.6l4.773,126.829a10.444,10.444,0,0,1-9.766,10.979Z" transform="translate(-3.835 -39.375)" fill="#7d6eb2"/>
      <path id="Trazado_132149" data-name="Trazado 132149" d="M472,538.6c-3.819,4.124-2.291,8.592,3.37,9.843l68.737,15.647c5.671,1.289,8.907-2.205,7.189-7.771L530.5,489c-1.709-5.547-6.244-6.683-10.072-2.625a10.406,10.406,0,0,1-14.683.315l-93.11-86.3a10.616,10.616,0,0,0-14.941.573l-20.134,21.719a10.607,10.607,0,0,0,.573,14.96l93.091,86.284A10.415,10.415,0,0,1,472,538.6Z" transform="translate(-7.932 -37.34)" fill="#7d6eb2"/>
      <path id="Trazado_132150" data-name="Trazado 132150" d="M562.7,371.74c.21,5.614,4.42,7.637,9.337,4.573l59.639-37.519c4.917-3.093,4.773-7.857-.4-10.559l-62.312-32.9c-5.136-2.711-9.174-.344-8.964,5.27a10.425,10.425,0,0,1-10.177,10.587l-126.858,4.773A10.626,10.626,0,0,0,412.8,326.946l1.126,29.6a10.606,10.606,0,0,0,10.96,10.167l126.858-4.821A10.5,10.5,0,0,1,562.7,371.74Z" transform="translate(-9.656 -32.656)" fill="#7d6eb2"/>
      <path id="Trazado_132151" data-name="Trazado 132151" d="M508.906,185.633c4.124,3.819,8.592,2.3,9.843-3.37l15.638-68.737c1.289-5.728-2.205-8.917-7.762-7.2l-67.305,20.8c-5.566,1.718-6.759,6.244-2.625,10.072a10.425,10.425,0,0,1,.3,14.693L370.7,245a10.626,10.626,0,0,0,.563,14.95l21.719,20.134a10.626,10.626,0,0,0,14.96-.573l86.294-93.1a10.425,10.425,0,0,1,14.673-.773Z" transform="translate(-7.622 -24.12)" fill="#7d6eb2"/>
      <path id="Trazado_132152" data-name="Trazado 132152" d="M342.05,92.786c5.623-.22,7.637-4.42,4.573-9.337L309.113,23.83c-3.1-4.926-7.857-4.773-10.578.4L265.647,86.514c-2.711,5.146-.344,9.184,5.26,8.974a10.444,10.444,0,0,1,10.616,10.177L286.3,232.513a10.6,10.6,0,0,0,10.96,10.167l29.6-1.117a10.616,10.616,0,0,0,10.167-10.979l-4.773-126.839a10.435,10.435,0,0,1,9.8-10.96Z" transform="translate(-2.937 -20.24)" fill="#7d6eb2"/>
      <path id="Trazado_132153" data-name="Trazado 132153" d="M155.934,149.218c3.819-4.115,2.31-8.544-3.36-9.833L83.837,123.737c-5.671-1.289-8.907,2.205-7.189,7.762l20.8,67.315c1.718,5.566,6.244,6.74,10.072,2.616a10.406,10.406,0,0,1,14.683-.286l93.1,86.284a10.607,10.607,0,0,0,14.95-.563L250.4,265.145a10.616,10.616,0,0,0-.573-14.95L156.736,163.9a10.435,10.435,0,0,1-.8-14.683Z" transform="translate(5.598 -24.918)" fill="#7d6eb2"/>
      <path id="Trazado_132154" data-name="Trazado 132154" d="M90.107,228.383c1.909-5.26-1.165-8.764-6.9-7.781L13.732,232.583c-5.728.955-7.37,5.461-3.647,9.919l45.09,54.15c3.723,4.468,8.363,3.819,10.3-1.461a10.435,10.435,0,0,1,13.451-5.919L198.043,333.13a10.626,10.626,0,0,0,13.595-6.272l10.234-27.791a10.626,10.626,0,0,0-6.282-13.585l-119.1-43.858a10.425,10.425,0,0,1-6.387-13.241Z" transform="translate(8.684 -29.312)" fill="#26aab7"/>
      <path id="Trazado_132155" data-name="Trazado 132155" d="M70.781,419.057c-2.358-5.088-7.017-5.375-10.377-.63L19.773,475.956c-3.351,4.773-1.356,9.079,4.439,9.6L94.381,492c5.785.535,8.592-3.208,6.253-8.306a10.435,10.435,0,0,1,5.327-13.709L221.2,416.766a10.587,10.587,0,0,0,5.165-14.024l-12.411-26.893a10.587,10.587,0,0,0-14.034-5.174L84.672,423.888a10.416,10.416,0,0,1-13.891-4.831Z" transform="translate(8.228 -36.077)" fill="#26aab7"/>
      <path id="Trazado_132156" data-name="Trazado 132156" d="M194.473,565.983c-5.26-1.909-8.764,1.155-7.771,6.893l11.972,69.434c.955,5.728,5.461,7.37,9.919,3.656l54.15-45.09c4.477-3.723,3.819-8.354-1.461-10.292a10.5,10.5,0,0,1-5.919-13.48L299.221,458a10.607,10.607,0,0,0-6.272-13.576l-27.791-10.234a10.606,10.606,0,0,0-13.585,6.272L207.724,559.568a10.5,10.5,0,0,1-13.251,6.415Z" transform="translate(0.597 -38.97)" fill="#26aab7"/>
      <path id="Trazado_132157" data-name="Trazado 132157" d="M385.157,585.568c-5.1,2.358-5.384,7.026-.64,10.377l57.577,40.641c4.773,3.351,9.069,1.346,9.6-4.449l6.4-70.16c.535-5.785-3.2-8.592-8.306-6.263a10.425,10.425,0,0,1-13.709-5.308L382.866,435.129a10.635,10.635,0,0,0-14.043-5.174l-26.884,12.411a10.606,10.606,0,0,0-5.165,14.043l53.214,115.24a10.415,10.415,0,0,1-4.831,13.919Z" transform="translate(-6.167 -38.764)" fill="#26aab7"/>
      <path id="Trazado_132158" data-name="Trazado 132158" d="M532.072,466.387c-1.909,5.27,1.165,8.783,6.893,7.79L608.4,462.2c5.728-.955,7.37-5.461,3.647-9.919l-45.08-54.14c-3.714-4.468-8.363-3.819-10.3,1.451a10.425,10.425,0,0,1-13.48,5.929l-119.1-43.868a10.606,10.606,0,0,0-13.6,6.282l-10.234,27.791a10.607,10.607,0,0,0,6.263,13.576l119.135,43.858a10.435,10.435,0,0,1,6.425,13.232Z" transform="translate(-9.059 -35.682)" fill="#26aab7"/>
      <path id="Trazado_132159" data-name="Trazado 132159" d="M551.638,275.295c2.349,5.1,7.026,5.384,10.377.63l40.622-57.567c3.351-4.773,1.356-9.079-4.43-9.6l-70.16-6.406c-5.8-.525-8.592,3.208-6.263,8.315a10.425,10.425,0,0,1-5.327,13.7l-115.24,53.214a10.626,10.626,0,0,0-5.174,14.043l12.411,26.893a10.616,10.616,0,0,0,14.043,5.165l115.259-53.214A10.416,10.416,0,0,1,551.638,275.295Z" transform="translate(-8.854 -28.49)" fill="#26aab7"/>
      <path id="Trazado_132160" data-name="Trazado 132160" d="M432.478,124.011c5.289,1.909,8.774-1.165,7.79-6.893L428.3,47.732c-.955-5.728-5.461-7.38-9.938-3.656L364.237,89.117c-4.477,3.723-3.819,8.353,1.451,10.291a10.444,10.444,0,0,1,5.929,13.461L327.749,231.985a10.616,10.616,0,0,0,6.263,13.585l27.8,10.282a10.607,10.607,0,0,0,13.576-6.272l43.858-119.173A10.435,10.435,0,0,1,432.478,124.011Z" transform="translate(-5.773 -21.229)" fill="#26aab7"/>
      <path id="Trazado_132161" data-name="Trazado 132161" d="M241.385,104.691c5.108-2.349,5.384-7.026.63-10.377L184.448,53.683c-4.773-3.351-9.079-1.356-9.6,4.439l-6.4,70.16c-.535,5.8,3.208,8.592,8.306,6.263a10.416,10.416,0,0,1,13.7,5.289l53.224,115.24a10.6,10.6,0,0,0,14.034,5.174L284.6,247.836a10.6,10.6,0,0,0,5.165-14.034L236.555,118.582A10.435,10.435,0,0,1,241.385,104.691Z" transform="translate(1.419 -21.681)" fill="#26aab7"/>
      <g id="Grupo_56129" data-name="Grupo 56129" transform="translate(211.386 213.267)">
        <path id="Trazado_132162" data-name="Trazado 132162" d="M414.113,343.385c0,55.085-45.261,99.755-101.082,99.755S211.94,398.47,211.94,343.385,257.2,243.63,313.031,243.63,414.113,288.29,414.113,343.385Z" transform="translate(-211.94 -243.63)" fill="#b0b0b0"/>
      </g>
      <path id="Trazado_132163" data-name="Trazado 132163" d="M413.182,344.315c0,55.085-45.261,99.755-101.082,99.755S211,399.4,211,344.315s45.252-99.755,101.082-99.755S413.182,289.22,413.182,344.315Z" transform="translate(-0.511 -30.405)" fill="#d3aa46"/>
      <path id="Trazado_132164" data-name="Trazado 132164" d="M414.113,343.385c0,55.085-45.261,99.755-101.082,99.755S211.94,398.47,211.94,343.385,257.2,243.63,313.031,243.63,414.113,288.29,414.113,343.385Z" transform="translate(-0.554 -30.363)" fill="#e8c85f"/>
      <path id="Trazado_132165" data-name="Trazado 132165" d="M396.841,344.961a83.573,83.573,0,1,1,0-.006Z" transform="translate(-1.392 -31.186)" fill="#e4e4e4"/>
      <path id="Trazado_132166" data-name="Trazado 132166" d="M398.3,343.491a83.359,83.359,0,1,0,0,.016Z" transform="translate(-1.459 -31.119)" fill="#fff"/>
      <path id="Trazado_132167" data-name="Trazado 132167" d="M396.841,344.961a83.573,83.573,0,1,1,0-.006Z" transform="translate(-1.392 -31.186)" fill="url(#linear-gradient)"/>
      <g id="Grupo_56130" data-name="Grupo 56130" transform="translate(242.194 243.397)">
        <path id="Trazado_132168" data-name="Trazado 132168" d="M384.128,345.149a69.959,69.959,0,1,1-69.959-69.959,69.959,69.959,0,0,1,69.959,69.959Z" transform="translate(-244.21 -275.19)" fill="#7f7f7f"/>
      </g>
      <path id="Trazado_132169" data-name="Trazado 132169" d="M385.357,345.149a69.969,69.969,0,1,1-69.962-69.959,69.971,69.971,0,0,1,69.962,69.959Z" transform="translate(-2.071 -31.793)" fill="#e4e4e4"/>
      <path id="Trazado_132170" data-name="Trazado 132170" d="M386.608,343.909a69.959,69.959,0,1,1-69.93-69.969,69.957,69.957,0,0,1,69.93,69.969Z" transform="translate(-2.129 -31.737)" fill="#fff"/>
      <path id="Trazado_132171" data-name="Trazado 132171" d="M385.357,345.149a69.969,69.969,0,1,1-69.962-69.959,69.971,69.971,0,0,1,69.962,69.959Z" transform="translate(-2.071 -31.793)" fill="url(#linear-gradient-2)"/>
      <path id="Trazado_133033" data-name="Trazado 133033" d="M6.475-13.58H8.782a5.072,5.072,0,0,0,3.42-1.146,3.827,3.827,0,0,0,1.245-3q0-4.25-4.233-4.25a4.4,4.4,0,0,0-3.179,1.137A3.98,3.98,0,0,0,4.848-17.83H1.776a6.166,6.166,0,0,1,2.1-4.773,7.65,7.65,0,0,1,5.337-1.9,7.56,7.56,0,0,1,5.362,1.81,6.537,6.537,0,0,1,1.942,5.03A5.306,5.306,0,0,1,15.5-14.609,6.165,6.165,0,0,1,12.717-12.4,5.94,5.94,0,0,1,15.8-10.31,5.81,5.81,0,0,1,16.884-6.74a6.594,6.594,0,0,1-2.125,5.163A7.958,7.958,0,0,1,9.23.332,8.168,8.168,0,0,1,3.694-1.511,6.113,6.113,0,0,1,1.561-6.375H4.648A3.951,3.951,0,0,0,5.894-3.32,4.736,4.736,0,0,0,9.23-2.175a4.647,4.647,0,0,0,3.4-1.162,4.479,4.479,0,0,0,1.179-3.337,4.064,4.064,0,0,0-1.295-3.237,5.642,5.642,0,0,0-3.735-1.162H6.475ZM33.153-24.188v2.606h-.564a8.087,8.087,0,0,0-5.711,2.125,8.842,8.842,0,0,0-2.457,5.794,6.556,6.556,0,0,1,5.213-2.191,6.268,6.268,0,0,1,5.039,2.225,8.581,8.581,0,0,1,1.884,5.744,8.553,8.553,0,0,1-2.034,5.977A7,7,0,0,1,29.069.332a6.9,6.9,0,0,1-5.628-2.665A10.56,10.56,0,0,1,21.283-9.2v-1.179q0-6.674,2.847-10.2t8.475-3.611ZM29.119-13.3a4.9,4.9,0,0,0-2.905.946,4.931,4.931,0,0,0-1.843,2.374v1.129a7.929,7.929,0,0,0,1.345,4.814,4.03,4.03,0,0,0,3.354,1.826,3.9,3.9,0,0,0,3.262-1.527,6.337,6.337,0,0,0,1.187-4,6.34,6.34,0,0,0-1.2-4.026A3.858,3.858,0,0,0,29.119-13.3ZM55.35-10.31q0,5.4-1.843,8.019A6.554,6.554,0,0,1,47.746.332a6.6,6.6,0,0,1-5.728-2.565Q40.159-4.8,40.093-9.895V-14q0-5.329,1.843-7.919t5.777-2.59q3.9,0,5.744,2.5t1.893,7.711Zm-3.071-4.2a11.253,11.253,0,0,0-1.1-5.686,3.771,3.771,0,0,0-3.47-1.785A3.722,3.722,0,0,0,44.276-20.2a10.988,10.988,0,0,0-1.112,5.462v4.914A11.434,11.434,0,0,0,44.3-4.042a3.764,3.764,0,0,0,3.445,1.868,3.713,3.713,0,0,0,3.378-1.76,11.021,11.021,0,0,0,1.154-5.545Zm7.155-5.678a4.237,4.237,0,0,1,1.237-3.021,3.991,3.991,0,0,1,3-1.295,3.914,3.914,0,0,1,2.947,1.287,4.258,4.258,0,0,1,1.22,3.03,4.137,4.137,0,0,1-1.22,3,3.975,3.975,0,0,1-2.947,1.245,4.075,4.075,0,0,1-2.988-1.245A4.1,4.1,0,0,1,59.434-20.187Zm4.233,2.125a2.1,2.1,0,0,0,1.511-.587,2.02,2.02,0,0,0,.614-1.53,2.15,2.15,0,0,0-.614-1.579,2.043,2.043,0,0,0-1.511-.62,2.037,2.037,0,0,0-1.536.653,2.166,2.166,0,0,0-.623,1.546,2.028,2.028,0,0,0,.623,1.5A2.105,2.105,0,0,0,63.667-18.062Z" transform="translate(281.746 325.011)" fill="#3a277b"/>
      <path id="Trazado_132172" data-name="Trazado 132172" d="M431.893,288.7a4.554,4.554,0,0,1-.506-2.95,2.864,2.864,0,0,1,3.943-2l-.315-.8,1.088-.525,3.294,6.778a3.151,3.151,0,0,1,.239,2.511,3.3,3.3,0,0,1-1.776,1.823,3.867,3.867,0,0,1-1.623.391,2.864,2.864,0,0,1-1.527-.344l.267-1.012a2.606,2.606,0,0,0,2.329,0,2.043,2.043,0,0,0,1.117-1.146,2.1,2.1,0,0,0-.181-1.613l-.3-.592a2.73,2.73,0,0,1-1.547,1.766,2.654,2.654,0,0,1-2.453,0,4.773,4.773,0,0,1-2.053-2.291Zm1.26-.449a3.514,3.514,0,0,0,1.375,1.613,1.747,1.747,0,0,0,1.68,0,1.909,1.909,0,0,0,1.155-1.823l-1.575-3.16a1.909,1.909,0,0,0-2.119-.2,1.776,1.776,0,0,0-1.031,1.337,3.819,3.819,0,0,0,.516,2.253Z" transform="translate(-10.496 -32.122)" fill="#fff"/>
      <path id="Trazado_132173" data-name="Trazado 132173" d="M444.571,287.124a3.361,3.361,0,0,1-2.75.191,3.819,3.819,0,0,1-2.1-2.053l-.1-.22a4.62,4.62,0,0,1-.5-2.034,3.494,3.494,0,0,1,.477-1.8,3.046,3.046,0,0,1,1.318-1.222,2.864,2.864,0,0,1,2.539-.134,4.3,4.3,0,0,1,2,2.2l.239.487-4.707,2.291a2.721,2.721,0,0,0,1.413,1.365,2.081,2.081,0,0,0,1.766-.076,2.186,2.186,0,0,0,.955-.773,3.026,3.026,0,0,0,.439-1.05l1,.21a3.275,3.275,0,0,1-1.986,2.625Zm-3.179-6.186a1.8,1.8,0,0,0-.955,1.117,2.864,2.864,0,0,0,.115,1.757l3.475-1.69v-.1a2.587,2.587,0,0,0-1.2-1.088,1.661,1.661,0,0,0-1.432,0Z" transform="translate(-10.849 -31.994)" fill="#fff"/>
      <path id="Trazado_132174" data-name="Trazado 132174" d="M452.052,281.048a.955.955,0,0,0-.726-.573,3.819,3.819,0,0,0-1.489.153,7.125,7.125,0,0,1-1.652.239,2.243,2.243,0,0,1-1.1-.267,1.671,1.671,0,0,1-.678-.764,1.986,1.986,0,0,1,0-1.795,3.121,3.121,0,0,1,1.556-1.489,3.208,3.208,0,0,1,2.215-.315,2.11,2.11,0,0,1,1.556,1.2l-1.193.573a1.2,1.2,0,0,0-.821-.64,1.719,1.719,0,0,0-1.212.162,1.785,1.785,0,0,0-.878.773.955.955,0,0,0,0,.955.792.792,0,0,0,.659.477,4.382,4.382,0,0,0,1.432-.181,6.979,6.979,0,0,1,1.671-.22,2.243,2.243,0,0,1,1.136.267,1.8,1.8,0,0,1,.735.811,2,2,0,0,1,0,1.862,3.485,3.485,0,0,1-1.661,1.5,3.9,3.9,0,0,1-1.623.42,2.635,2.635,0,0,1-1.4-.334,2.2,2.2,0,0,1-.955-.955l1.184-.573a1.394,1.394,0,0,0,.955.716,2.511,2.511,0,0,0,2.3-1.022A.955.955,0,0,0,452.052,281.048Z" transform="translate(-11.17 -31.838)" fill="#fff"/>
      <path id="Trazado_132175" data-name="Trazado 132175" d="M453.352,272l.821,1.69,1.3-.63.439.955-1.3.63,2.1,4.315a1.031,1.031,0,0,0,.477.535.811.811,0,0,0,.7-.076,2.951,2.951,0,0,0,.525-.353l.468.955a4.229,4.229,0,0,1-.85.563,1.642,1.642,0,0,1-1.432.1,2.339,2.339,0,0,1-1.079-1.174l-2.091-4.306-1.26.621-.449-.955,1.26-.621-.811-1.68Z" transform="translate(-11.42 -31.649)" fill="#fff"/>
      <path id="Trazado_132176" data-name="Trazado 132176" d="M456.166,270.366a.84.84,0,0,1-.067-.582.783.783,0,0,1,.43-.449.726.726,0,0,1,.621-.057.821.821,0,0,1,.42.4.755.755,0,0,1,.057.573.8.8,0,0,1-.439.449.783.783,0,0,1-.611.057.716.716,0,0,1-.41-.391Zm5.566,8.191-1.193.573-3.37-6.941,1.184-.582Z" transform="translate(-11.618 -31.524)" fill="#fff"/>
      <path id="Trazado_132177" data-name="Trazado 132177" d="M461.826,274.191a4.544,4.544,0,0,1-.5-2.024,3.294,3.294,0,0,1,.506-1.8,3.419,3.419,0,0,1,1.422-1.241,3.284,3.284,0,0,1,2.769-.134,4.172,4.172,0,0,1,2.148,2.186v.086a4.507,4.507,0,0,1,.5,2.014,3.323,3.323,0,0,1-.5,1.795,3.494,3.494,0,0,1-1.442,1.251,3.246,3.246,0,0,1-2.769.134,4.21,4.21,0,0,1-2.139-2.177Zm1.26-.439a3.217,3.217,0,0,0,1.442,1.594,2.014,2.014,0,0,0,2.864-1.4,3.627,3.627,0,0,0-.43-2.243,3.36,3.36,0,0,0-1.451-1.594,2.014,2.014,0,0,0-2.864,1.384,3.6,3.6,0,0,0,.439,2.272Z" transform="translate(-11.856 -31.501)" fill="#fff"/>
      <path id="Trazado_132178" data-name="Trazado 132178" d="M469.418,266.26l.458.859a2.864,2.864,0,0,1,1.594-2.014q2.205-1.069,3.437,1.4l2.224,4.592-1.184.573-2.205-4.592a1.728,1.728,0,0,0-.888-.955,1.489,1.489,0,0,0-1.222.153,1.909,1.909,0,0,0-.869.8,2.311,2.311,0,0,0-.286,1.136l2.415,4.945-1.193.582-3.38-6.95Z" transform="translate(-12.173 -31.322)" fill="#fff"/>
      <path id="Trazado_132179" data-name="Trazado 132179" d="M480.713,264.834a4.458,4.458,0,0,1-.5-2.931,2.864,2.864,0,0,1,3.819-2.043l-1.757-3.628,1.184-.573,4.773,9.862-1.1.525-.42-.716a2.683,2.683,0,0,1-1.556,1.843,2.606,2.606,0,0,1-2.444,0,4.554,4.554,0,0,1-2.024-2.205Zm1.251-.439a3.437,3.437,0,0,0,1.384,1.613,1.776,1.776,0,0,0,1.68,0,1.909,1.909,0,0,0,1.155-1.814l-1.556-3.189a1.909,1.909,0,0,0-2.11-.191,1.785,1.785,0,0,0-1.041,1.337A3.819,3.819,0,0,0,481.964,264.4Z" transform="translate(-12.709 -30.908)" fill="#fff"/>
      <path id="Trazado_132180" data-name="Trazado 132180" d="M493.431,263.354a3.36,3.36,0,0,1-2.749.191,3.819,3.819,0,0,1-2.091-2.043l-.105-.22a4.668,4.668,0,0,1-.506-2.043,3.408,3.408,0,0,1,.487-1.8,3.083,3.083,0,0,1,1.317-1.2,2.864,2.864,0,0,1,2.539-.134,4.3,4.3,0,0,1,1.986,2.186l.248.5-4.707,2.291a2.778,2.778,0,0,0,1.4,1.365,2.081,2.081,0,0,0,1.766-.076,2.368,2.368,0,0,0,.955-.783,2.778,2.778,0,0,0,.43-1.05l1,.21A3.227,3.227,0,0,1,493.431,263.354Zm-3.179-6.148a1.737,1.737,0,0,0-.955,1.107,2.759,2.759,0,0,0,.1,1.757l3.485-1.69-.048-.086a2.463,2.463,0,0,0-1.174-1.165,1.633,1.633,0,0,0-1.413.076Z" transform="translate(-13.064 -30.918)" fill="#fff"/>
      <path id="Trazado_132181" data-name="Trazado 132181" d="M503.567,257.226a1.909,1.909,0,0,0,.955-.955,1.5,1.5,0,0,0,.057-1.212l1.117-.554a2.34,2.34,0,0,1,.143,1.337,3.017,3.017,0,0,1-.592,1.356,3.427,3.427,0,0,1-3.9,1.127,4.2,4.2,0,0,1-2.1-2.186l-.1-.2a4.774,4.774,0,0,1-.506-1.986,3.122,3.122,0,0,1,.477-1.747,3.275,3.275,0,0,1,1.432-1.232,3.064,3.064,0,0,1,2.282-.248,2.806,2.806,0,0,1,1.709,1.413l-1.126.544a1.823,1.823,0,0,0-1.05-.859,1.776,1.776,0,0,0-1.337.124,1.824,1.824,0,0,0-1.088,1.337,3.35,3.35,0,0,0,.42,2.119l.1.229a3.331,3.331,0,0,0,1.394,1.6,1.852,1.852,0,0,0,1.7-.009Z" transform="translate(-13.547 -30.679)" fill="#fff"/>
      <path id="Trazado_132182" data-name="Trazado 132182" d="M506.366,252.531a4.554,4.554,0,0,1-.5-2.033,3.284,3.284,0,0,1,1.909-3.036,3.246,3.246,0,0,1,2.769-.134,4.172,4.172,0,0,1,2.148,2.186v.086a4.509,4.509,0,0,1,.5,2,3.217,3.217,0,0,1-.5,1.795,3.447,3.447,0,0,1-1.442,1.26,3.285,3.285,0,0,1-2.769.134,4.21,4.21,0,0,1-2.138-2.177Zm1.26-.439a3.265,3.265,0,0,0,1.442,1.594,2.014,2.014,0,0,0,2.864-1.4,3.627,3.627,0,0,0-.43-2.243,3.322,3.322,0,0,0-1.451-1.594,2,2,0,0,0-2.864,1.384,3.666,3.666,0,0,0,.439,2.263Z" transform="translate(-13.874 -30.52)" fill="#fff"/>
      <path id="Trazado_132183" data-name="Trazado 132183" d="M513.947,244.6l.468.85A2.864,2.864,0,0,1,516,243.435q2.205-1.06,3.437,1.413l2.224,4.582-1.184.582-2.234-4.6a1.737,1.737,0,0,0-.888-.955,1.518,1.518,0,0,0-1.222.143,1.91,1.91,0,0,0-.859.8,2.349,2.349,0,0,0-.286,1.146l2.406,4.945-1.193.582-3.38-6.95Z" transform="translate(-14.189 -30.34)" fill="#fff"/>
      <path id="Trazado_132184" data-name="Trazado 132184" d="M526.992,244.6a.955.955,0,0,0-.726-.573,3.819,3.819,0,0,0-1.489.162,6.683,6.683,0,0,1-1.661.229,2.292,2.292,0,0,1-1.088-.258,1.681,1.681,0,0,1-.687-.764,2.014,2.014,0,0,1,0-1.795,3.122,3.122,0,0,1,1.556-1.489,3.284,3.284,0,0,1,2.215-.325,2.2,2.2,0,0,1,1.5,1.2l-1.2.582a1.184,1.184,0,0,0-.821-.64,1.718,1.718,0,0,0-1.212.153,1.823,1.823,0,0,0-.878.773.954.954,0,0,0,0,.955.821.821,0,0,0,.659.487,4.67,4.67,0,0,0,1.432-.181,7.637,7.637,0,0,1,1.671-.229,2.416,2.416,0,0,1,1.146.267,1.814,1.814,0,0,1,.726.821,1.957,1.957,0,0,1,0,1.852,3.437,3.437,0,0,1-1.661,1.5,3.925,3.925,0,0,1-1.613.43,2.7,2.7,0,0,1-1.413-.344,2.177,2.177,0,0,1-.955-.955l1.184-.582a1.375,1.375,0,0,0,.955.716,2,2,0,0,0,1.346-.22,2.12,2.12,0,0,0,.955-.8.955.955,0,0,0,.067-.974Z" transform="translate(-14.566 -30.186)" fill="#fff"/>
      <path id="Trazado_132185" data-name="Trazado 132185" d="M534.861,242.136a2.769,2.769,0,0,1-1.633,1.8,2.406,2.406,0,0,1-2,.181,3.064,3.064,0,0,1-1.518-1.623l-2.2-4.525,1.184-.573,2.186,4.487c.506,1.05,1.193,1.375,2.053.955a1.909,1.909,0,0,0,1.308-1.909l-2.454-5.06,1.193-.573,3.37,6.941-1.127.554Z" transform="translate(-14.855 -29.986)" fill="#fff"/>
      <path id="Trazado_132186" data-name="Trazado 132186" d="M536.237,233.661l.411.754a2.864,2.864,0,0,1,1.623-1.909,2.205,2.205,0,0,1,2.53.153,2.864,2.864,0,0,1,1.671-2.2c1.518-.745,2.692-.305,3.5,1.289l2.263,4.659-1.193.573L544.82,232.4a1.738,1.738,0,0,0-.888-.955,1.671,1.671,0,0,0-1.317.181,1.718,1.718,0,0,0-.9,2.243l2.243,4.611-1.193.573-2.215-4.544a1.48,1.48,0,0,0-2.224-.8,1.776,1.776,0,0,0-1.107,1.776l2.463,5.069-1.184.582-3.38-6.95Z" transform="translate(-15.2 -29.751)" fill="#fff"/>
      <path id="Trazado_132187" data-name="Trazado 132187" d="M546.256,226.546a.764.764,0,0,1-.057-.573.716.716,0,0,1,.43-.458.726.726,0,0,1,.621-.057.821.821,0,0,1,.42.4.8.8,0,0,1,0,.573.783.783,0,0,1-.43.449.764.764,0,0,1-.621.057A.745.745,0,0,1,546.256,226.546Zm5.556,8.163-1.184.573-3.38-6.941,1.193-.582Z" transform="translate(-15.701 -29.538)" fill="#fff"/>
      <path id="Trazado_132188" data-name="Trazado 132188" d="M551.974,230.2a4.534,4.534,0,0,1-.487-2.94A2.654,2.654,0,0,1,553,225.346a2.692,2.692,0,0,1,2.339-.105l-1.766-3.618,1.193-.582,4.773,9.862-1.088.535-.42-.716a2.692,2.692,0,0,1-1.556,1.833,2.654,2.654,0,0,1-2.453,0A4.564,4.564,0,0,1,552,230.339Zm1.26-.449a3.38,3.38,0,0,0,1.384,1.613,1.757,1.757,0,0,0,1.671,0,1.909,1.909,0,0,0,1.127-1.766l-1.547-3.189a1.909,1.909,0,0,0-2.119-.181,1.738,1.738,0,0,0-1.031,1.327,3.819,3.819,0,0,0,.487,2.2Z" transform="translate(-15.939 -29.339)" fill="#fff"/>
      <path id="Trazado_132189" data-name="Trazado 132189" d="M559.687,226.6a4.449,4.449,0,0,1-.487-2.033,3.3,3.3,0,0,1,.5-1.8,3.4,3.4,0,0,1,1.422-1.232,3.217,3.217,0,0,1,2.769-.134,4.143,4.143,0,0,1,2.148,2.186v.076a4.774,4.774,0,0,1,.5,2.014,3.294,3.294,0,0,1-1.909,3.045,3.227,3.227,0,0,1-2.759.134,4.191,4.191,0,0,1-2.148-2.177Zm1.26-.439a3.351,3.351,0,0,0,1.442,1.594,2.016,2.016,0,0,0,2.864-1.413,3.638,3.638,0,0,0-.43-2.243,3.284,3.284,0,0,0-1.442-1.585,2.016,2.016,0,0,0-2.864,1.384,3.6,3.6,0,0,0,.4,2.263Z" transform="translate(-16.291 -29.344)" fill="#fff"/>
      <path id="Trazado_132190" data-name="Trazado 132190" d="M570.036,218.658a4.469,4.469,0,0,0-.611.239,1.747,1.747,0,0,0-1.1,1.766l2.4,4.936-1.184.573-3.38-6.941,1.155-.563.411.792a2.043,2.043,0,0,1,1.2-1.738,1.194,1.194,0,0,1,.563-.162Z" transform="translate(-16.607 -29.182)" fill="#fff"/>
      <path id="Trazado_132191" data-name="Trazado 132191" d="M577.181,222.644a3.36,3.36,0,0,1-2.749.191,3.819,3.819,0,0,1-2.091-2.053l-.105-.21a4.708,4.708,0,0,1-.506-2.043,3.409,3.409,0,0,1,.487-1.8,3.1,3.1,0,0,1,1.318-1.212,2.921,2.921,0,0,1,2.539-.134,4.325,4.325,0,0,1,1.986,2.2l.248.5-4.707,2.282a2.721,2.721,0,0,0,1.4,1.375,2.119,2.119,0,0,0,1.766-.086,2.281,2.281,0,0,0,.955-.773,2.863,2.863,0,0,0,.43-1.05l.955.21a3.227,3.227,0,0,1-1.928,2.616ZM574,216.487a1.776,1.776,0,0,0-.955,1.117,2.768,2.768,0,0,0,.105,1.757l3.475-1.69v-.1a2.5,2.5,0,0,0-1.174-1.165,1.7,1.7,0,0,0-1.451.057Z" transform="translate(-16.859 -29.073)" fill="#fff"/>
      <path id="Trazado_132192" data-name="Trazado 132192" d="M584.722,216.549a.955.955,0,0,0-.726-.573,3.952,3.952,0,0,0-1.489.153,6.769,6.769,0,0,1-1.661.239,2.186,2.186,0,0,1-1.088-.267,1.661,1.661,0,0,1-.687-.754,2.034,2.034,0,0,1,0-1.8,3.628,3.628,0,0,1,3.819-1.8,2.148,2.148,0,0,1,1.5,1.2l-1.2.582a1.165,1.165,0,0,0-.821-.64,1.671,1.671,0,0,0-1.212.153,1.824,1.824,0,0,0-.878.773.955.955,0,0,0,0,.955.821.821,0,0,0,.659.487,4.994,4.994,0,0,0,1.432-.181,6.587,6.587,0,0,1,1.671-.229,2.416,2.416,0,0,1,1.146.267,1.814,1.814,0,0,1,.726.821,1.957,1.957,0,0,1,0,1.852,3.484,3.484,0,0,1-1.661,1.5,3.9,3.9,0,0,1-1.613.42,2.606,2.606,0,0,1-1.413-.334,2.176,2.176,0,0,1-.955-.955l1.184-.582a1.374,1.374,0,0,0,.955.716,2.434,2.434,0,0,0,2.291-1.022A.955.955,0,0,0,584.722,216.549Z" transform="translate(-17.182 -28.915)" fill="#fff"/>
      <path id="Trazado_132193" data-name="Trazado 132193" d="M477.3,286.057a11,11,0,0,1-.955-2.979,8.974,8.974,0,0,1,0-2.988,5.642,5.642,0,0,1,.85-2.32l.63.668a5.728,5.728,0,0,0-.477,2.94,10.789,10.789,0,0,0,.955,3.628l.258.554a10.663,10.663,0,0,0,3,3.819,5.728,5.728,0,0,0,2.091,1.117l.1.84a5.575,5.575,0,0,1-2.406-.8,9.89,9.89,0,0,1-4.048-4.477Z" transform="translate(-12.531 -31.91)" fill="#fff"/>
      <path id="Trazado_132194" data-name="Trazado 132194" d="M484.438,287.268l-2.94-6.024-1.1.535-.439-.955,1.1-.535-.353-.716a2.616,2.616,0,0,1-.239-2.014,2.511,2.511,0,0,1,1.394-1.432,3.313,3.313,0,0,1,.869-.286l.4.955a3.822,3.822,0,0,0-.668.258,1.318,1.318,0,0,0-.735.773,1.518,1.518,0,0,0,.162,1.117l.353.735,1.48-.716.449.955-1.48.716,2.931,6.034Z" transform="translate(-12.7 -31.823)" fill="#fff"/>
      <path id="Trazado_132195" data-name="Trazado 132195" d="M484.336,276.526a.8.8,0,0,1-.057-.573.745.745,0,0,1,.43-.458.725.725,0,0,1,.621-.057.821.821,0,0,1,.42.4.8.8,0,0,1,.048.573.783.783,0,0,1-.43.449.764.764,0,0,1-.621.057.773.773,0,0,1-.41-.391Zm5.566,8.163-1.193.573-3.38-6.941,1.193-.582Z" transform="translate(-12.895 -31.803)" fill="#fff"/>
      <path id="Trazado_132196" data-name="Trazado 132196" d="M490.033,280.174a4.478,4.478,0,0,1-.5-2.94,2.654,2.654,0,0,1,1.508-1.909,2.692,2.692,0,0,1,2.339-.105l-1.757-3.618,1.212-.6,4.773,9.862-1.088.535-.42-.716a2.692,2.692,0,0,1-1.556,1.833,2.654,2.654,0,0,1-2.453,0,4.573,4.573,0,0,1-2.014-2.215Zm1.251-.439a3.4,3.4,0,0,0,1.384,1.6,1.757,1.757,0,0,0,1.671,0,1.909,1.909,0,0,0,1.155-1.823l-1.547-3.189a1.909,1.909,0,0,0-2.119-.181,1.737,1.737,0,0,0-1.031,1.337A3.819,3.819,0,0,0,491.284,279.735Z" transform="translate(-13.131 -31.604)" fill="#fff"/>
      <path id="Trazado_132197" data-name="Trazado 132197" d="M502.741,278.694a3.36,3.36,0,0,1-2.749.191,3.819,3.819,0,0,1-2.091-2.052l-.115-.22a4.621,4.621,0,0,1-.5-2.033,3.465,3.465,0,0,1,.487-1.814,3.112,3.112,0,0,1,1.308-1.2,2.864,2.864,0,0,1,2.539-.134,4.258,4.258,0,0,1,2,2.2l.239.487-4.707,2.291a2.72,2.72,0,0,0,1.413,1.365,2.081,2.081,0,0,0,1.766-.076,2.281,2.281,0,0,0,.955-.773,3.292,3.292,0,0,0,.43-1.05l1,.21A3.256,3.256,0,0,1,502.741,278.694Zm-3.179-6.158a1.8,1.8,0,0,0-.955,1.117,2.864,2.864,0,0,0,.115,1.757l3.475-1.69v-.1a2.549,2.549,0,0,0-1.174-1.165,1.661,1.661,0,0,0-1.451.076Z" transform="translate(-13.486 -31.612)" fill="#fff"/>
      <path id="Trazado_132198" data-name="Trazado 132198" d="M508.287,275.712l-1.184.573-4.773-9.862,1.193-.573Z" transform="translate(-13.714 -31.37)" fill="#fff"/>
      <path id="Trazado_132199" data-name="Trazado 132199" d="M506.086,265.947a.754.754,0,0,1-.057-.573.687.687,0,0,1,.42-.449.726.726,0,0,1,1.041.334.716.716,0,0,1-.372,1.022.773.773,0,0,1-.621.067A.8.8,0,0,1,506.086,265.947Zm5.556,8.163-1.184.582-3.38-6.95,1.184-.573Z" transform="translate(-13.88 -31.324)" fill="#fff"/>
      <path id="Trazado_132200" data-name="Trazado 132200" d="M514.374,271.628l4.057-1.976.477.955-5.518,2.673-.42-.869,1.356-6.95-3.819,1.833-.477-.955,5.27-2.559.411.84Z" transform="translate(-14.063 -31.276)" fill="#fff"/>
      <path id="Trazado_132201" data-name="Trazado 132201" d="M524.89,267.761a2.865,2.865,0,0,1-.525-.649,2.94,2.94,0,0,1-1.556,1.823,2.73,2.73,0,0,1-1.967.239,2.081,2.081,0,0,1-1.375-1.155,2.2,2.2,0,0,1,0-2.091A4.411,4.411,0,0,1,521.5,264.2l1.155-.563-.267-.544a1.527,1.527,0,0,0-.85-.811,1.661,1.661,0,0,0-1.279.172,1.909,1.909,0,0,0-.955.84,1.06,1.06,0,0,0,0,.955l-1.193.582a1.824,1.824,0,0,1-.124-1.184,2.865,2.865,0,0,1,.63-1.26,3.923,3.923,0,0,1,1.251-.955,3.045,3.045,0,0,1,2.177-.315,2.387,2.387,0,0,1,1.508,1.308l1.556,3.2a4.42,4.42,0,0,0,.955,1.4v.1Zm-2.415.057a2.358,2.358,0,0,0,.955-.811,1.91,1.91,0,0,0,.353-1.1l-.687-1.422-.955.449c-1.451.706-1.976,1.489-1.556,2.339a1.174,1.174,0,0,0,.792.687,1.585,1.585,0,0,0,1.1-.143Z" transform="translate(-14.421 -31.152)" fill="#fff"/>
      <path id="Trazado_132202" data-name="Trazado 132202" d="M530.477,264.005a1.91,1.91,0,0,0,.955-.955,1.461,1.461,0,0,0,.067-1.212l1.117-.554a2.416,2.416,0,0,1,.143,1.337,3.016,3.016,0,0,1-.592,1.356,3.245,3.245,0,0,1-1.184.955,3.2,3.2,0,0,1-2.711.153,4.2,4.2,0,0,1-2.1-2.186l-.1-.2a4.6,4.6,0,0,1-.506-1.986,3.123,3.123,0,0,1,.468-1.747,3.35,3.35,0,0,1,1.442-1.232,3.064,3.064,0,0,1,2.282-.248,2.864,2.864,0,0,1,1.709,1.413l-1.126.544a1.852,1.852,0,0,0-1.05-.859,1.8,1.8,0,0,0-1.346.124,1.833,1.833,0,0,0-1.079,1.337,3.409,3.409,0,0,0,.411,2.119l.115.229a3.284,3.284,0,0,0,1.394,1.6A1.852,1.852,0,0,0,530.477,264.005Z" transform="translate(-14.767 -30.986)" fill="#fff"/>
      <path id="Trazado_132203" data-name="Trazado 132203" d="M531.755,252.1l1.442-.7-.8,2.721-.955.468Zm4.773,9.862-1.193.582-3.361-6.95,1.193-.582Z" transform="translate(-15.033 -30.715)" fill="#fff"/>
      <path id="Trazado_132204" data-name="Trazado 132204" d="M536.676,257.661a4.621,4.621,0,0,1-.5-2.034,3.265,3.265,0,0,1,1.909-3.036,3.217,3.217,0,0,1,2.769-.134,4.143,4.143,0,0,1,2.148,2.186v.076a4.505,4.505,0,0,1,.5,2.014,3.236,3.236,0,0,1-.5,1.795,3.37,3.37,0,0,1-1.442,1.251,3.246,3.246,0,0,1-2.769.134,4.21,4.21,0,0,1-2.139-2.177Zm1.26-.439a3.3,3.3,0,0,0,1.442,1.594,2.016,2.016,0,0,0,2.864-1.413,3.637,3.637,0,0,0-.43-2.243,3.294,3.294,0,0,0-1.451-1.585,2,2,0,0,0-2.864,1.375,3.676,3.676,0,0,0,.42,2.272Z" transform="translate(-15.248 -30.752)" fill="#fff"/>
      <path id="Trazado_132205" data-name="Trazado 132205" d="M544.267,249.72l.468.859a2.864,2.864,0,0,1,1.585-2.014q2.205-1.069,3.437,1.4l2.224,4.592-1.184.573-2.234-4.592a1.8,1.8,0,0,0-.888-.955,1.528,1.528,0,0,0-1.222.153,1.842,1.842,0,0,0-.859.8,2.312,2.312,0,0,0-.286,1.136l2.406,4.955-1.193.573-3.38-6.94Z" transform="translate(-15.563 -30.572)" fill="#fff"/>
      <path id="Trazado_132206" data-name="Trazado 132206" d="M554.941,248.39a11.111,11.111,0,0,1,.955,2.931,9.175,9.175,0,0,1,0,2.979,5.557,5.557,0,0,1-.859,2.368l-.6-.6a5.727,5.727,0,0,0,.449-3.122,11.264,11.264,0,0,0-1.107-3.819l-.105-.21a11.8,11.8,0,0,0-1.5-2.368,9.626,9.626,0,0,0-1.795-1.7,5.432,5.432,0,0,0-1.833-.878l-.1-.85a5.728,5.728,0,0,1,2.377.783,9.26,9.26,0,0,1,2.329,1.909A11.28,11.28,0,0,1,554.941,248.39Z" transform="translate(-15.804 -30.34)" fill="#fff"/>
      <path id="Trazado_132207" data-name="Trazado 132207" d="M315.823,180.383a3.924,3.924,0,0,1-1.212,3,4.506,4.506,0,0,1-3.246,1.165h-.286a5.433,5.433,0,0,1-2.406-.516,3.962,3.962,0,0,1-1.661-1.442,3.637,3.637,0,0,1-.6-2.014,3.37,3.37,0,0,1,1.165-2.749,5.022,5.022,0,0,1,3.341-.955h.64v6.148a3.256,3.256,0,0,0,2.177-.783,2.473,2.473,0,0,0,.821-1.909,2.759,2.759,0,0,0-.334-1.394,3.379,3.379,0,0,0-.888-.955l.735-.955A3.819,3.819,0,0,1,315.823,180.383Zm-8.143.191a2.052,2.052,0,0,0,.687,1.575,3.342,3.342,0,0,0,1.909.792V178.4h-.124a2.931,2.931,0,0,0-1.833.63,1.967,1.967,0,0,0-.64,1.547Z" transform="translate(-4.835 -27.337)" fill="#fff"/>
      <path id="Trazado_132208" data-name="Trazado 132208" d="M313.559,171.758,306.58,169.5V167.92l9.079,3.255v1.184l-9.079,3.275v-1.585Z" transform="translate(-4.843 -26.932)" fill="#fff"/>
      <path id="Trazado_132209" data-name="Trazado 132209" d="M315.823,162.243a3.924,3.924,0,0,1-1.212,3,4.506,4.506,0,0,1-3.246,1.165h-.286a5.432,5.432,0,0,1-2.406-.516,3.962,3.962,0,0,1-1.661-1.442,3.637,3.637,0,0,1-.6-2.014,3.37,3.37,0,0,1,1.165-2.75,5.022,5.022,0,0,1,3.341-.955h.64v6.148a3.256,3.256,0,0,0,2.177-.783,2.473,2.473,0,0,0,.821-1.909,2.759,2.759,0,0,0-.334-1.394,3.533,3.533,0,0,0-.888-1l.735-.955A3.819,3.819,0,0,1,315.823,162.243Zm-8.143.191a2.052,2.052,0,0,0,.687,1.575,3.342,3.342,0,0,0,1.909.792v-4.554h-.124a2.988,2.988,0,0,0-1.833.64A1.967,1.967,0,0,0,307.679,162.433Z" transform="translate(-4.835 -26.515)" fill="#fff"/>
      <path id="Trazado_132210" data-name="Trazado 132210" d="M306.572,155.013l1.146-.048a3.3,3.3,0,0,1-1.308-2.721q0-2.864,3.246-2.864h6v1.547h-6a2.091,2.091,0,0,0-1.451.458,1.766,1.766,0,0,0-.468,1.365,2.253,2.253,0,0,0,.4,1.327,2.673,2.673,0,0,0,1.06.888h6.463v1.556h-9.079Z" transform="translate(-4.835 -26.092)" fill="#fff"/>
      <path id="Trazado_132211" data-name="Trazado 132211" d="M304.28,144.6h2.2v-1.7h1.2v1.7h5.633a1.241,1.241,0,0,0,.821-.229.955.955,0,0,0,.277-.773,3.926,3.926,0,0,0-.1-.735h1.251a4.4,4.4,0,0,1,.172,1.193,1.909,1.909,0,0,1-.63,1.566,2.692,2.692,0,0,1-1.785.535h-5.633v1.613h-1.2v-1.652h-2.2Z" transform="translate(-4.739 -25.796)" fill="#fff"/>
      <path id="Trazado_132212" data-name="Trazado 132212" d="M311.031,141.218a5.289,5.289,0,0,1-2.4-.525,3.819,3.819,0,0,1-1.652-1.461,3.971,3.971,0,0,1-.573-2.129,3.866,3.866,0,0,1,1.279-3.007,4.993,4.993,0,0,1,3.418-1.136h.1a5.375,5.375,0,0,1,2.387.506,3.819,3.819,0,0,1,1.632,1.451,4.009,4.009,0,0,1,.592,2.167,3.819,3.819,0,0,1-1.289,2.988,4.9,4.9,0,0,1-3.4,1.146Zm.181-1.556a3.876,3.876,0,0,0,2.425-.706,2.368,2.368,0,0,0,0-3.752,4.22,4.22,0,0,0-2.6-.7,3.933,3.933,0,0,0-2.425.706,2.291,2.291,0,0,0-.955,1.909,2.225,2.225,0,0,0,.955,1.852,4.22,4.22,0,0,0,2.6.706Z" transform="translate(-4.835 -25.348)" fill="#fff"/>
      <path id="Trazado_132213" data-name="Trazado 132213" d="M313.245,125.307a1.136,1.136,0,0,0-.955.477,4.287,4.287,0,0,0-.6,1.652,7.944,7.944,0,0,1-.611,1.909,2.6,2.6,0,0,1-.831,1.022,2.043,2.043,0,0,1-1.165.334,2.329,2.329,0,0,1-1.909-.955,3.685,3.685,0,0,1-.773-2.415,3.819,3.819,0,0,1,.792-2.5,2.549,2.549,0,0,1,2.043-.955v1.566a1.375,1.375,0,0,0-1.1.535,2.014,2.014,0,0,0-.468,1.365,2.11,2.11,0,0,0,.372,1.327,1.165,1.165,0,0,0,.955.477.955.955,0,0,0,.85-.439,5.585,5.585,0,0,0,.544-1.613,8.315,8.315,0,0,1,.621-1.909,2.7,2.7,0,0,1,.869-1.069,2.158,2.158,0,0,1,1.241-.353,2.31,2.31,0,0,1,1.909.955,4.1,4.1,0,0,1,.735,2.53,4.573,4.573,0,0,1-.391,1.909,3.1,3.1,0,0,1-1.069,1.308,2.568,2.568,0,0,1-1.5.477v-1.547a1.6,1.6,0,0,0,1.232-.63,2.415,2.415,0,0,0,.458-1.537,2.482,2.482,0,0,0-.353-1.413A1.1,1.1,0,0,0,313.245,125.307Z" transform="translate(-4.835 -24.931)" fill="#fff"/>
      <path id="Trazado_132214" data-name="Trazado 132214" d="M377.705,166.5l2.072.754.582-1.594,1.126.411-.582,1.594,5.289,1.909a1.289,1.289,0,0,0,.85.067.955.955,0,0,0,.525-.63,3.742,3.742,0,0,0,.153-.726l1.174.43a4.211,4.211,0,0,1-.248,1.174,1.909,1.909,0,0,1-1.127,1.26,2.731,2.731,0,0,1-1.862-.124l-5.289-1.909-.573,1.547-1.127-.411.573-1.547-2.062-.754Z" transform="translate(-8.042 -26.83)" fill="#fff"/>
      <path id="Trazado_132215" data-name="Trazado 132215" d="M388.718,163.155l-5.728-4.506.544-1.489,7.408,6.177-.4,1.107H380.88l.544-1.489Z" transform="translate(-8.21 -26.445)" fill="#fff"/>
      <path id="Trazado_132216" data-name="Trazado 132216" d="M416.725,233.1l.773.649a3.37,3.37,0,0,1,.955-2.788,2.587,2.587,0,0,1,2.864-.955,3.418,3.418,0,0,1,0-1.585,3.523,3.523,0,0,1,.85-1.547q2.014-2.205,4.392-.124l4.5,4.1-1.041,1.146-4.477-4.01a2.158,2.158,0,0,0-1.384-.649,1.976,1.976,0,0,0-1.356.783,2.043,2.043,0,0,0-.582,1.413,2.081,2.081,0,0,0,.582,1.422L427.255,235l-1.05,1.155-4.4-4a1.728,1.728,0,0,0-2.769.105,2.072,2.072,0,0,0-.439,2.425l4.907,4.458-1.05,1.146-6.683-6.1Z" transform="translate(-9.791 -29.553)" fill="#fff"/>
      <path id="Trazado_132217" data-name="Trazado 132217" d="M436.885,224.656a3.121,3.121,0,0,1-.859-.477,3.427,3.427,0,0,1-.9,2.664,3.208,3.208,0,0,1-2.043,1.126,2.434,2.434,0,0,1-2-.659,2.558,2.558,0,0,1-.907-2.282,5.117,5.117,0,0,1,1.451-2.769l1.022-1.117-.535-.487a1.718,1.718,0,0,0-1.279-.506,1.986,1.986,0,0,0-1.327.735,2.224,2.224,0,0,0-.621,1.317,1.222,1.222,0,0,0,.372,1.1l-1.05,1.155a2.138,2.138,0,0,1-.649-1.241,3.378,3.378,0,0,1,.134-1.642,4.382,4.382,0,0,1,.955-1.594,3.551,3.551,0,0,1,2.234-1.289,2.788,2.788,0,0,1,2.215.764l3.093,2.807a5.279,5.279,0,0,0,1.69,1.107l.1.086Zm-2.606,1.117a2.769,2.769,0,0,0,.649-1.279,2.272,2.272,0,0,0-.1-1.365l-1.375-1.279-.821.9c-1.279,1.413-1.5,2.492-.678,3.236a1.432,1.432,0,0,0,1.174.41,1.909,1.909,0,0,0,1.146-.621Z" transform="translate(-10.323 -29.232)" fill="#fff"/>
      <path id="Trazado_132218" data-name="Trazado 132218" d="M436.9,213.182a3.529,3.529,0,0,0-.554.525,2.033,2.033,0,0,0-.43,2.406l4.773,4.334-1.012,1.107-6.683-6.1,1.012-1.117.792.687a2.434,2.434,0,0,1,.554-2.425,1.777,1.777,0,0,1,.554-.43Z" transform="translate(-10.572 -28.937)" fill="#fff"/>
      <path id="Trazado_132219" data-name="Trazado 132219" d="M442.194,212.284l.1,1.4,2.358,2.148-1.041,1.146-9.547-8.659,1.05-1.146,5.728,5.232-.181-1.279-.306-4.105,1.27-1.394.43,5.165,6.568.63-1.222,1.346Z" transform="translate(-10.62 -28.641)" fill="#fff"/>
      <path id="Trazado_132220" data-name="Trazado 132220" d="M452.618,207.646a4,4,0,0,1-2.921,1.413,4.516,4.516,0,0,1-3.179-1.327l-.21-.191a5.412,5.412,0,0,1-1.442-2,4.134,4.134,0,0,1-.258-2.186,3.656,3.656,0,0,1,.907-1.909,3.408,3.408,0,0,1,2.711-1.251,5.031,5.031,0,0,1,3.131,1.518l.477.43-4.153,4.554a3.189,3.189,0,0,0,2.129.878,2.444,2.444,0,0,0,1.909-.859,2.606,2.606,0,0,0,.687-1.251,3.543,3.543,0,0,0,0-1.346l1.184-.2A3.819,3.819,0,0,1,452.618,207.646Zm-6.158-5.327a2.081,2.081,0,0,0-.554,1.623,3.275,3.275,0,0,0,.888,1.909l3.055-3.37-.086-.076a2.864,2.864,0,0,0-1.785-.764,1.967,1.967,0,0,0-1.547.649Z" transform="translate(-11.096 -28.395)" fill="#fff"/>
      <path id="Trazado_132221" data-name="Trazado 132221" d="M449.281,194.14l1.632,1.48,1.136-1.26.888.811-1.107,1.251L456,200.24a1.232,1.232,0,0,0,.754.382.955.955,0,0,0,.726-.391,4.3,4.3,0,0,0,.42-.611l.955.84a4.439,4.439,0,0,1-.678.955,1.909,1.909,0,0,1-1.518.745,2.778,2.778,0,0,1-1.68-.811l-4.172-3.819-1.165,1.251-.888-.811,1.107-1.222-1.623-1.48Z" transform="translate(-11.263 -28.12)" fill="#fff"/>
      <path id="Trazado_132222" data-name="Trazado 132222" d="M451.625,191.183a.955.955,0,0,1-.315-.592,1.031,1.031,0,0,1,.955-1.022.955.955,0,0,1,.63.258.9.9,0,0,1,.306.592.955.955,0,0,1-.277.687.888.888,0,0,1-.649.334.9.9,0,0,1-.649-.258Zm9.633,6.482-1.041,1.146-6.683-6.1,1.041-1.146Z" transform="translate(-11.402 -27.913)" fill="#fff"/>
      <path id="Trazado_132223" data-name="Trazado 132223" d="M457.425,188.438l.878.735a3.284,3.284,0,0,1,.859-2.864q1.909-2.138,4.353,0l4.449,4.029-1.041,1.155-4.449-4.038a2.091,2.091,0,0,0-1.384-.64,1.776,1.776,0,0,0-1.27.7,2.272,2.272,0,0,0-.592,1.251,2.711,2.711,0,0,0,.191,1.365l4.773,4.353-1.041,1.146-6.683-6.1Z" transform="translate(-11.636 -27.717)" fill="#fff"/>
      <path id="Trazado_132224" data-name="Trazado 132224" d="M466.231,185.4a5.375,5.375,0,0,1-1.843-3,3.4,3.4,0,0,1,3.427-3.9l-.7-.735.955-1.05,6.568,5.957a3.676,3.676,0,0,1,1.346,2.644,3.818,3.818,0,0,1-1.127,2.759,4.62,4.62,0,0,1-1.6,1.136,3.36,3.36,0,0,1-1.814.3l-.153-1.222a3.045,3.045,0,0,0,2.559-.955,2.339,2.339,0,0,0,.668-1.747,2.406,2.406,0,0,0-.9-1.671l-.582-.525a3.217,3.217,0,0,1-.907,2.606,3.1,3.1,0,0,1-2.692,1.041,5.623,5.623,0,0,1-3.208-1.633Zm1.174-1.041a4.124,4.124,0,0,0,2.215,1.155,2.091,2.091,0,0,0,1.833-.716,2.263,2.263,0,0,0,.458-2.492l-3.074-2.788a2.31,2.31,0,0,0-2.4.706,2.062,2.062,0,0,0-.535,1.909,4.411,4.411,0,0,0,1.5,2.224Z" transform="translate(-11.993 -27.331)" fill="#fff"/>
      <path id="Trazado_132225" data-name="Trazado 132225" d="M476,174.468a5.289,5.289,0,0,1-1.823-2.988,3.37,3.37,0,0,1,3.3-3.914L474,164.416l1.05-1.146,9.547,8.659-.955,1.06-.773-.6a3.16,3.16,0,0,1-.9,2.683,3.1,3.1,0,0,1-2.683,1.041,5.4,5.4,0,0,1-3.17-1.528Zm1.174-1.031a4,4,0,0,0,2.215,1.155,2.072,2.072,0,0,0,1.833-.716,2.272,2.272,0,0,0,.468-2.492l-3.084-2.8a2.291,2.291,0,0,0-2.4.716,2.071,2.071,0,0,0-.535,1.909,4.372,4.372,0,0,0,1.5,2.3Z" transform="translate(-12.43 -26.721)" fill="#fff"/>
      <path id="Trazado_132226" data-name="Trazado 132226" d="M477.835,162.3a.955.955,0,0,1-.315-.6.888.888,0,0,1,.267-.678.859.859,0,0,1,.659-.334.952.952,0,0,1,.936.85.9.9,0,0,1-.277.678.888.888,0,0,1-.649.334A.955.955,0,0,1,477.835,162.3Zm9.642,6.473-1.05,1.155-6.683-6.1,1.041-1.155Z" transform="translate(-12.59 -26.605)" fill="#fff"/>
      <path id="Trazado_132227" data-name="Trazado 132227" d="M486.633,158.374a5.605,5.605,0,0,0-.554.525,2.043,2.043,0,0,0-.43,2.415l4.773,4.325-1.05,1.155-6.683-6.1,1.021-1.127.792.687a2.406,2.406,0,0,1,.554-2.415,1.432,1.432,0,0,1,.544-.43Z" transform="translate(-12.824 -26.456)" fill="#fff"/>
      <path id="Trazado_132228" data-name="Trazado 132228" d="M496.188,159.566a3.952,3.952,0,0,1-2.921,1.413,4.477,4.477,0,0,1-3.179-1.327l-.21-.191a5.461,5.461,0,0,1-1.442-2,4.143,4.143,0,0,1-.258-2.186,3.685,3.685,0,0,1,.907-1.909,3.408,3.408,0,0,1,2.711-1.251,5.031,5.031,0,0,1,3.131,1.518l.487.439-4.134,4.611a3.17,3.17,0,0,0,2.129.869,2.5,2.5,0,0,0,1.909-.85,2.864,2.864,0,0,0,.687-1.26,3.7,3.7,0,0,0,0-1.337l1.184-.21A3.819,3.819,0,0,1,496.188,159.566Zm-6.158-5.327a2.11,2.11,0,0,0-.554,1.633,3.408,3.408,0,0,0,.888,1.909l3.055-3.37-.086-.076a2.94,2.94,0,0,0-1.785-.764A1.967,1.967,0,0,0,490.03,154.239Z" transform="translate(-13.07 -26.216)" fill="#fff"/>
      <path id="Trazado_132229" data-name="Trazado 132229" d="M501.572,151.751a2.243,2.243,0,0,0,.6-1.413,1.8,1.8,0,0,0-.468-1.356l.955-1.088a2.768,2.768,0,0,1,.735,1.394,3.466,3.466,0,0,1-.048,1.738,3.991,3.991,0,0,1-.869,1.575,3.752,3.752,0,0,1-2.864,1.356,4.945,4.945,0,0,1-3.236-1.47l-.2-.172a5.4,5.4,0,0,1-1.413-1.909,3.686,3.686,0,0,1-.248-2.11,3.952,3.952,0,0,1,1.022-1.976,3.685,3.685,0,0,1,2.387-1.27,3.3,3.3,0,0,1,2.482.8l-.955,1.088a2.091,2.091,0,0,0-1.518-.477,2.043,2.043,0,0,0-1.413.716,2.139,2.139,0,0,0-.6,1.909,4.019,4.019,0,0,0,1.384,2.129l.22.2a3.876,3.876,0,0,0,2.224,1.146,2.205,2.205,0,0,0,1.823-.812Z" transform="translate(-13.357 -25.895)" fill="#fff"/>
      <path id="Trazado_132230" data-name="Trazado 132230" d="M499.211,139.12l1.633,1.47,1.136-1.251.888.8-1.136,1.26,4.172,3.819a1.289,1.289,0,0,0,.764.382.955.955,0,0,0,.716-.391,3.629,3.629,0,0,0,.42-.611l.955.84a4.346,4.346,0,0,1-.678.955,1.909,1.909,0,0,1-1.518.735,2.683,2.683,0,0,1-1.68-.812l-4.162-3.819-1.146,1.279-.888-.8,1.107-1.222-1.623-1.48Z" transform="translate(-13.525 -25.627)" fill="#fff"/>
      <path id="Trazado_132231" data-name="Trazado 132231" d="M506.4,141.173a5.576,5.576,0,0,1-1.422-2,3.819,3.819,0,0,1-.229-2.186,3.924,3.924,0,0,1,1-1.967,3.819,3.819,0,0,1,2.969-1.365,4.936,4.936,0,0,1,3.294,1.451l.086.076a5.385,5.385,0,0,1,1.413,1.967,3.82,3.82,0,0,1,.239,2.186,3.9,3.9,0,0,1-1.022,2,3.818,3.818,0,0,1-2.959,1.356,4.879,4.879,0,0,1-3.284-1.442Zm1.193-1.031a3.876,3.876,0,0,0,2.263,1.107,2.224,2.224,0,0,0,1.909-.773,2.2,2.2,0,0,0,.573-2.014,4.219,4.219,0,0,0-1.451-2.263,3.819,3.819,0,0,0-2.272-1.1,2.368,2.368,0,0,0-2.52,2.759,4.239,4.239,0,0,0,1.5,2.282Z" transform="translate(-13.82 -25.379)" fill="#fff"/>
      <path id="Trazado_132232" data-name="Trazado 132232" d="M453.771,401.543a5.5,5.5,0,0,1-2,2.864,3.046,3.046,0,0,1-2.864.344,3.313,3.313,0,0,1-2.11-1.843l-1.442,4.124-1.461-.516,4.143-11.867,1.337.468-.258.955a3.207,3.207,0,0,1,2.864-.248,3.1,3.1,0,0,1,2.034,2.024,5.547,5.547,0,0,1-.229,3.551Zm-1.413-.678a3.933,3.933,0,0,0,.181-2.5,2.081,2.081,0,0,0-1.394-1.432,2.291,2.291,0,0,0-2.415.477l-1.422,4.1a2.291,2.291,0,0,0,1.594,1.909,2.091,2.091,0,0,0,1.967-.258,4.344,4.344,0,0,0,1.489-2.291Z" transform="translate(-11.066 -37.207)" fill="#fff"/>
      <path id="Trazado_132233" data-name="Trazado 132233" d="M459.969,408.421a3.192,3.192,0,0,1,.1-.955,3.484,3.484,0,0,1-2.807.21,3.2,3.2,0,0,1-1.833-1.451,2.454,2.454,0,0,1-.172-2.1,2.549,2.549,0,0,1,1.747-1.718,5.079,5.079,0,0,1,3.122.258l1.422.5.239-.668a1.766,1.766,0,0,0,0-1.384,1.976,1.976,0,0,0-1.193-.955,2.244,2.244,0,0,0-1.451-.057,1.212,1.212,0,0,0-.869.773l-1.47-.516a2.052,2.052,0,0,1,.888-1.079,3.208,3.208,0,0,1,1.566-.516,4.249,4.249,0,0,1,1.833.248,3.552,3.552,0,0,1,2.062,1.547,2.864,2.864,0,0,1,.162,2.349l-1.375,3.943a5.136,5.136,0,0,0-.363,1.986v.124Zm-2.043-1.967a2.692,2.692,0,0,0,1.432.1,2.329,2.329,0,0,0,1.222-.611l.611-1.757-1.146-.4c-1.795-.63-2.864-.42-3.246.63a1.4,1.4,0,0,0,.115,1.26A1.909,1.909,0,0,0,457.926,406.454Z" transform="translate(-11.574 -37.393)" fill="#fff"/>
      <path id="Trazado_132234" data-name="Trazado 132234" d="M469.659,399.726l-.726,2.072,1.594.563-.391,1.127-1.6-.554-1.852,5.318a1.222,1.222,0,0,0-.057.85.955.955,0,0,0,.64.516,3.7,3.7,0,0,0,.726.143l-.411,1.184a4.276,4.276,0,0,1-1.184-.239,1.909,1.909,0,0,1-1.27-1.107,2.7,2.7,0,0,1,.086-1.862l1.862-5.318-1.566-.544.4-1.136,1.556.544.726-2.072Z" transform="translate(-12.022 -37.414)" fill="#fff"/>
      <path id="Trazado_132235" data-name="Trazado 132235" d="M476.124,405.869a6.087,6.087,0,0,0-.7-.306,2.053,2.053,0,0,0-2.387.544l-2.11,6.11-1.461-.516,3-8.592,1.422.5-.325,1a2.415,2.415,0,0,1,2.444-.439,1.6,1.6,0,0,1,.611.344Z" transform="translate(-12.225 -37.591)" fill="#fff"/>
      <path id="Trazado_132236" data-name="Trazado 132236" d="M476.2,409.2a5.385,5.385,0,0,1,1.289-2.091,3.886,3.886,0,0,1,1.909-1.079,4.028,4.028,0,0,1,2.215.162,3.819,3.819,0,0,1,2.406,2.2,4.964,4.964,0,0,1-.048,3.609v.1a5.3,5.3,0,0,1-1.26,2.081,3.819,3.819,0,0,1-1.909,1.069,3.962,3.962,0,0,1-2.243-.162,3.818,3.818,0,0,1-2.4-2.2,4.907,4.907,0,0,1,0-3.59Zm1.413.687a3.933,3.933,0,0,0-.134,2.52,2.377,2.377,0,0,0,3.551,1.222,4.21,4.21,0,0,0,1.508-2.215,3.876,3.876,0,0,0,.134-2.549,2.253,2.253,0,0,0-1.48-1.5,2.2,2.2,0,0,0-2.043.248,4.258,4.258,0,0,0-1.537,2.272Z" transform="translate(-12.513 -37.719)" fill="#fff"/>
      <path id="Trazado_132237" data-name="Trazado 132237" d="M488.565,417.243a2.234,2.234,0,0,0,1.537,0,1.766,1.766,0,0,0,1.06-.955l1.384.487a2.712,2.712,0,0,1-.955,1.222,3.618,3.618,0,0,1-1.623.63,3.9,3.9,0,0,1-1.785-.181,3.752,3.752,0,0,1-2.377-2.139,4.9,4.9,0,0,1,.086-3.561l.086-.248a5.4,5.4,0,0,1,1.232-2.062,3.628,3.628,0,0,1,1.852-1.05,3.886,3.886,0,0,1,2.215.172,3.637,3.637,0,0,1,2.1,1.7,3.294,3.294,0,0,1,.229,2.6l-1.384-.487a2.157,2.157,0,0,0-.153-1.585,2.091,2.091,0,0,0-1.212-1.022,2.2,2.2,0,0,0-2.014.162,4.02,4.02,0,0,0-1.422,2.11l-.1.277a3.924,3.924,0,0,0-.191,2.492A2.186,2.186,0,0,0,488.565,417.243Z" transform="translate(-12.952 -37.871)" fill="#fff"/>
      <path id="Trazado_132238" data-name="Trazado 132238" d="M497.426,409.171a.869.869,0,0,1,.42-.525.888.888,0,0,1,.735,0,.859.859,0,0,1,.573,1.155.831.831,0,0,1-.43.516.869.869,0,0,1-.726,0,.821.821,0,0,1-.573-1.126Zm-2.205,11.4-1.47-.516,3-8.592,1.461.516Z" transform="translate(-13.325 -37.838)" fill="#fff"/>
      <path id="Trazado_132239" data-name="Trazado 132239" d="M502.12,413.5l-.325,1.1a3.3,3.3,0,0,1,3-.344c1.814.64,2.368,1.976,1.671,4.029l-1.976,5.661-1.47-.516L505,417.754a2.043,2.043,0,0,0,0-1.518,1.814,1.814,0,0,0-1.136-.9,2.3,2.3,0,0,0-1.384-.057,2.777,2.777,0,0,0-1.193.706l-2.129,6.11-1.47-.516,3-8.592Z" transform="translate(-13.504 -38.038)" fill="#fff"/>
      <path id="Trazado_132240" data-name="Trazado 132240" d="M510.926,413.881a.9.9,0,0,1,.42-.525.888.888,0,0,1,.735,0,.849.849,0,0,1,.563.477.878.878,0,0,1,0,.678.831.831,0,0,1-.43.515.955.955,0,0,1-.726,0,.888.888,0,0,1-.563-.468A.849.849,0,0,1,510.926,413.881Zm-2.205,11.4-1.47-.516,3-8.592,1.461.506Z" transform="translate(-13.937 -38.051)" fill="#fff"/>
      <path id="Trazado_132241" data-name="Trazado 132241" d="M512.414,421.846a5.5,5.5,0,0,1,1.289-2.1,3.942,3.942,0,0,1,1.909-1.069,4.028,4.028,0,0,1,2.215.162,3.819,3.819,0,0,1,2.406,2.2,4.935,4.935,0,0,1,0,3.6v.1a5.3,5.3,0,0,1-1.26,2.081,3.818,3.818,0,0,1-1.909,1.069,4.048,4.048,0,0,1-2.243-.162,3.819,3.819,0,0,1-2.4-2.2,4.907,4.907,0,0,1,0-3.59Zm1.413.687a3.934,3.934,0,0,0-.134,2.52,2.377,2.377,0,0,0,3.551,1.222,4.2,4.2,0,0,0,1.508-2.224,3.819,3.819,0,0,0,.134-2.511,2.253,2.253,0,0,0-1.48-1.5,2.224,2.224,0,0,0-2.053.248A4.267,4.267,0,0,0,513.827,422.533Z" transform="translate(-14.156 -38.292)" fill="#fff"/>
      <path id="Trazado_132242" data-name="Trazado 132242" d="M526.744,429.19a1.107,1.107,0,0,0-.124-1.079,4.622,4.622,0,0,0-1.356-1.117,7.807,7.807,0,0,1-1.575-1.184,2.769,2.769,0,0,1-.687-1.127,2.015,2.015,0,0,1,.067-1.2,2.358,2.358,0,0,1,1.518-1.47,3.675,3.675,0,0,1,2.53.067,3.742,3.742,0,0,1,2.1,1.575,2.52,2.52,0,0,1,.239,2.243l-1.47-.516a1.413,1.413,0,0,0-.153-1.212,2.033,2.033,0,0,0-1.136-.888,2.119,2.119,0,0,0-1.375-.1,1.165,1.165,0,0,0-.764.754.955.955,0,0,0,.134.955,5.729,5.729,0,0,0,1.337,1.041,8,8,0,0,1,1.575,1.212,2.741,2.741,0,0,1,.725,1.165,2.157,2.157,0,0,1-.076,1.289,2.329,2.329,0,0,1-1.566,1.518,4.067,4.067,0,0,1-2.625-.143,4.707,4.707,0,0,1-1.7-.955,3.17,3.17,0,0,1-.878-1.451,2.529,2.529,0,0,1,0-1.575l1.461.516a1.614,1.614,0,0,0,.181,1.375,2.463,2.463,0,0,0,1.308.955,2.539,2.539,0,0,0,1.451.134A1.1,1.1,0,0,0,526.744,429.19Z" transform="translate(-14.576 -38.438)" fill="#fff"/>
      <path id="Trazado_132243" data-name="Trazado 132243" d="M329.008,592.069a5.518,5.518,0,0,1,3.389.773,3.036,3.036,0,0,1,1.4,2.492,3.341,3.341,0,0,1-.907,2.654l4.363-.229.086,1.547-12.554.668-.076-1.413.955-.124a3.217,3.217,0,0,1-1.317-2.568,3.084,3.084,0,0,1,1.1-2.654,5.471,5.471,0,0,1,3.38-1.136Zm-.086,1.566a3.952,3.952,0,0,0-2.387.783,2.071,2.071,0,0,0-.792,1.833A2.282,2.282,0,0,0,327.1,598.3l4.334-.229a2.3,2.3,0,0,0,1.126-2.2,2.091,2.091,0,0,0-.955-1.728A4.306,4.306,0,0,0,328.922,593.634Z" transform="translate(-5.648 -46.153)" fill="#fff"/>
      <path id="Trazado_132244" data-name="Trazado 132244" d="M325.408,585.6a6.608,6.608,0,0,0,0,.764,2.053,2.053,0,0,0,1.413,2l6.435-.344.086,1.547-9.069.487-.076-1.508,1.041-.076a2.425,2.425,0,0,1-1.327-2.1,1.614,1.614,0,0,1,.076-.7Z" transform="translate(-5.628 -45.861)" fill="#fff"/>
      <path id="Trazado_132245" data-name="Trazado 132245" d="M328.41,584.157a5.433,5.433,0,0,1-2.425-.4,3.9,3.9,0,0,1-1.718-1.375,3.99,3.99,0,0,1-.7-2.1,3.876,3.876,0,0,1,1.127-3.065,4.955,4.955,0,0,1,3.351-1.317h.1a5.327,5.327,0,0,1,2.406.382,3.819,3.819,0,0,1,1.718,1.365,3.981,3.981,0,0,1,.7,2.129,3.819,3.819,0,0,1-1.127,3.055,4.889,4.889,0,0,1-3.332,1.327Zm.1-1.575a3.818,3.818,0,0,0,2.377-.83,2.224,2.224,0,0,0,.821-1.91,2.253,2.253,0,0,0-1.031-1.823,4.258,4.258,0,0,0-2.625-.563,3.9,3.9,0,0,0-2.387.84,2.358,2.358,0,0,0,.191,3.733A4.152,4.152,0,0,0,328.515,582.582Z" transform="translate(-5.612 -45.42)" fill="#fff"/>
      <path id="Trazado_132246" data-name="Trazado 132246" d="M323.3,572.033l1-.1a3.351,3.351,0,0,1-1.317-2.635,2.6,2.6,0,0,1,1.317-2.664,3.465,3.465,0,0,1-1.117-1.117,3.419,3.419,0,0,1-.487-1.7q-.172-2.979,3-3.2l6.072-.325.076,1.547-5.976.325a2.091,2.091,0,0,0-1.432.516,1.957,1.957,0,0,0-.4,1.518,2.062,2.062,0,0,0,.592,1.413,2.119,2.119,0,0,0,1.422.582l6.014-.315.086,1.556-5.948.315a1.728,1.728,0,0,0-1.909,2.043,2.081,2.081,0,0,0,1.413,2.014l6.616-.353.086,1.556-9.069.477Z" transform="translate(-5.573 -44.714)" fill="#fff"/>
      <path id="Trazado_132247" data-name="Trazado 132247" d="M327.02,558.148a5.26,5.26,0,0,1-2.415-.4,3.819,3.819,0,0,1-1.728-1.365,4.019,4.019,0,0,1-.687-2.1,3.819,3.819,0,0,1,1.117-3.065,4.955,4.955,0,0,1,3.351-1.327h.124a5.584,5.584,0,0,1,2.4.382,3.819,3.819,0,0,1,1.718,1.365,4.02,4.02,0,0,1,.659,2.177,3.867,3.867,0,0,1-1.127,3.055,4.9,4.9,0,0,1-3.332,1.317Zm.105-1.566a3.933,3.933,0,0,0,2.387-.83,2.373,2.373,0,0,0-.21-3.742,4.287,4.287,0,0,0-2.635-.554,3.819,3.819,0,0,0-2.377.84,2.348,2.348,0,0,0,.181,3.733,4.3,4.3,0,0,0,2.654.554Z" transform="translate(-5.549 -44.242)" fill="#fff"/>
      <path id="Trazado_132248" data-name="Trazado 132248" d="M329.785,543.684a2.215,2.215,0,0,0-.582-1.422,1.776,1.776,0,0,0-1.289-.621l-.086-1.461a2.864,2.864,0,0,1,1.518.458,3.609,3.609,0,0,1,1.232,1.279,3.818,3.818,0,0,1,.506,1.718A3.714,3.714,0,0,1,330,546.653a4.917,4.917,0,0,1-3.322,1.27h-.258a5.612,5.612,0,0,1-2.377-.363,3.819,3.819,0,0,1-1.68-1.308,3.962,3.962,0,0,1-.678-2.119,3.628,3.628,0,0,1,.773-2.587,3.265,3.265,0,0,1,2.32-1.2l.076,1.47a2.177,2.177,0,0,0-1.413.735,2.11,2.11,0,0,0-.487,1.518,2.224,2.224,0,0,0,.955,1.785,4.029,4.029,0,0,0,2.5.516h.286a3.962,3.962,0,0,0,2.387-.773A2.206,2.206,0,0,0,329.785,543.684Z" transform="translate(-5.527 -43.802)" fill="#fff"/>
      <path id="Trazado_132249" data-name="Trazado 132249" d="M318.955,538.712a.955.955,0,0,1-.649-.191.878.878,0,0,1-.3-.668.9.9,0,1,1,1.566.6.878.878,0,0,1-.621.258Zm11.389-2.282.076,1.547-9.06.487-.086-1.556Z" transform="translate(-5.361 -43.632)" fill="#fff"/>
      <path id="Trazado_132250" data-name="Trazado 132250" d="M325.77,534.127a5.279,5.279,0,0,1-2.425-.4,3.819,3.819,0,0,1-1.728-1.365,4.019,4.019,0,0,1-.687-2.1,3.818,3.818,0,0,1,1.127-3.065,4.916,4.916,0,0,1,3.341-1.327h.115a5.441,5.441,0,0,1,2.4.382,3.819,3.819,0,0,1,1.718,1.365,3.99,3.99,0,0,1,.706,2.129,3.818,3.818,0,0,1-1.126,3.055,4.907,4.907,0,0,1-3.332,1.327Zm.1-1.566a3.933,3.933,0,0,0,2.387-.831,2.253,2.253,0,0,0,.812-1.909,2.224,2.224,0,0,0-1.022-1.833,4.286,4.286,0,0,0-2.635-.554,3.886,3.886,0,0,0-2.377.831,2.282,2.282,0,0,0-.831,1.909,2.234,2.234,0,0,0,1.012,1.795,4.229,4.229,0,0,0,2.635.592Z" transform="translate(-5.492 -43.153)" fill="#fff"/>
      <path id="Trazado_132251" data-name="Trazado 132251" d="M320.645,522.258l1.136-.115a3.322,3.322,0,0,1-1.451-2.645c-.1-1.909.955-2.94,3.093-3.074l5.986-.315.086,1.547-6,.325a2.062,2.062,0,0,0-1.432.525,1.776,1.776,0,0,0-.391,1.394,2.234,2.234,0,0,0,.468,1.3,2.769,2.769,0,0,0,1.107.84l6.463-.344.076,1.547-9.06.487Z" transform="translate(-5.466 -42.712)" fill="#fff"/>
      <path id="Trazado_132252" data-name="Trazado 132252" d="M329.233,509.554a3.962,3.962,0,0,1-1.05,3.065A4.477,4.477,0,0,1,325,513.945h-.286a5.45,5.45,0,0,1-2.434-.391,4.029,4.029,0,0,1-1.738-1.346,3.685,3.685,0,0,1-.706-1.976,3.418,3.418,0,0,1,1.022-2.816,5.088,5.088,0,0,1,3.284-1.155h.64l.334,6.139a3.236,3.236,0,0,0,2.119-.9,2.492,2.492,0,0,0,.726-1.957,2.626,2.626,0,0,0-.411-1.365,3.332,3.332,0,0,0-.955-.955l.687-.955A3.819,3.819,0,0,1,329.233,509.554Zm-8.115.63a2.062,2.062,0,0,0,.783,1.556,3.314,3.314,0,0,0,1.909.687l-.239-4.544h-.124a2.864,2.864,0,0,0-1.795.735A1.909,1.909,0,0,0,321.118,510.184Z" transform="translate(-5.443 -42.265)" fill="#fff"/>
      <path id="Trazado_132253" data-name="Trazado 132253" d="M326.071,498.667a1.146,1.146,0,0,0-.955.525,4.526,4.526,0,0,0-.516,1.69,7.791,7.791,0,0,1-.506,1.909,2.587,2.587,0,0,1-.783,1.06,1.909,1.909,0,0,1-1.136.4,2.378,2.378,0,0,1-1.909-.85,3.723,3.723,0,0,1-.9-2.368,3.819,3.819,0,0,1,.668-2.539,2.53,2.53,0,0,1,1.976-1.069l.086,1.556a1.442,1.442,0,0,0-1.069.6,2,2,0,0,0-.382,1.384,2.1,2.1,0,0,0,.439,1.308,1.155,1.155,0,0,0,.955.43.955.955,0,0,0,.821-.5,5.04,5.04,0,0,0,.458-1.632,8.057,8.057,0,0,1,.525-1.909,2.692,2.692,0,0,1,.811-1.117,2.072,2.072,0,0,1,1.212-.411,2.3,2.3,0,0,1,2,.869,4.124,4.124,0,0,1,.869,2.482,4.555,4.555,0,0,1-.286,1.909,3.131,3.131,0,0,1-1.012,1.365,2.539,2.539,0,0,1-1.47.554l-.076-1.547a1.614,1.614,0,0,0,1.2-.7,2.425,2.425,0,0,0,.372-1.556,2.463,2.463,0,0,0-.43-1.394,1.107,1.107,0,0,0-.974-.458Z" transform="translate(-5.422 -41.851)" fill="#fff"/>
      <path id="Trazado_132254" data-name="Trazado 132254" d="M240.162,560.845a5.28,5.28,0,0,1-2.864-2.091,3.389,3.389,0,0,1,1.738-4.9l-.955-.42.487-1.337,8.306,3.084a3.7,3.7,0,0,1,2.243,1.909,3.819,3.819,0,0,1,0,2.988,4.574,4.574,0,0,1-1.06,1.651,3.189,3.189,0,0,1-1.575.955l-.592-1.079a3.017,3.017,0,0,0,2-1.909,2.358,2.358,0,0,0,0-1.909,2.474,2.474,0,0,0-1.356-1.107l-.735-.267a3.169,3.169,0,0,1,.124,2.75,3.093,3.093,0,0,1-2.1,1.976,5.632,5.632,0,0,1-3.666-.3Zm.706-1.394a4.085,4.085,0,0,0,2.482.248,2.033,2.033,0,0,0,1.432-1.346,2.272,2.272,0,0,0-.5-2.492L240.4,554.42a2.291,2.291,0,0,0-1.967,1.556,2.081,2.081,0,0,0,.21,1.967,4.507,4.507,0,0,0,2.224,1.508Z" transform="translate(-1.682 -44.343)" fill="#fff"/>
      <path id="Trazado_132255" data-name="Trazado 132255" d="M249.2,547.078a3.274,3.274,0,0,1,.076,2.864,2.864,2.864,0,0,1-1.556,1.785,3.665,3.665,0,0,1-2.616-.153l-5.537-2.053.544-1.461,5.5,2.043c1.289.477,2.129.2,2.52-.85a2.339,2.339,0,0,0-.42-2.683l-6.2-2.3.544-1.451,8.506,3.16-.506,1.384Z" transform="translate(-1.806 -43.922)" fill="#fff"/>
      <path id="Trazado_132256" data-name="Trazado 132256" d="M253.057,539.914a3.972,3.972,0,0,1-2.177,2.4,4.5,4.5,0,0,1-3.446,0l-.267-.105a5.442,5.442,0,0,1-2.081-1.317,4.058,4.058,0,0,1-1.06-1.909,3.628,3.628,0,0,1,.143-2.091,3.389,3.389,0,0,1,2.053-2.177,5.08,5.08,0,0,1,3.466.248l.611.219-2.138,5.728a3.189,3.189,0,0,0,2.3,0,2.435,2.435,0,0,0,1.442-1.5,2.712,2.712,0,0,0,.172-1.423,3.436,3.436,0,0,0-.487-1.241l1.022-.64A3.819,3.819,0,0,1,253.057,539.914Zm-7.695-2.644a2.043,2.043,0,0,0,.1,1.718,3.322,3.322,0,0,0,1.518,1.4l1.585-4.267h-.115a2.94,2.94,0,0,0-1.909,0A1.91,1.91,0,0,0,245.362,537.269Z" transform="translate(-2.004 -43.546)" fill="#fff"/>
      <path id="Trazado_132257" data-name="Trazado 132257" d="M249.2,527.736a4.273,4.273,0,0,0-.325.7,2.043,2.043,0,0,0,.5,2.4l6.043,2.243-.544,1.451-8.506-3.16.525-1.413.955.344a2.425,2.425,0,0,1-.391-2.454,1.441,1.441,0,0,1,.353-.6Z" transform="translate(-2.114 -43.216)" fill="#fff"/>
      <path id="Trazado_132258" data-name="Trazado 132258" d="M251.315,522.026a4.283,4.283,0,0,0-.325.7,2.043,2.043,0,0,0,.5,2.4l6.043,2.244-.544,1.451-8.506-3.16.525-1.413.955.344a2.425,2.425,0,0,1-.391-2.454,1.441,1.441,0,0,1,.353-.6Z" transform="translate(-2.21 -42.957)" fill="#fff"/>
      <path id="Trazado_132259" data-name="Trazado 132259" d="M248.211,519.175a.955.955,0,0,1-.525-.439.888.888,0,0,1,0-.735.914.914,0,0,1,1.671-.115.9.9,0,0,1,0,.735.869.869,0,0,1-.468.554.9.9,0,0,1-.678,0Zm11.351,2.425-.544,1.451-8.506-3.17.535-1.451Z" transform="translate(-2.17 -42.769)" fill="#fff"/>
      <path id="Trazado_132260" data-name="Trazado 132260" d="M261.051,517.487l-.544,1.461-12.077-4.487.544-1.461Z" transform="translate(-2.208 -42.571)" fill="#fff"/>
      <path id="Trazado_132261" data-name="Trazado 132261" d="M262.573,513.4l-.544,1.451L250,510.361l.535-1.451Z" transform="translate(-2.279 -42.385)" fill="#fff"/>
      <path id="Trazado_132262" data-name="Trazado 132262" d="M265.661,505.488a3.063,3.063,0,0,1-.955-.124,3.494,3.494,0,0,1,.153,2.864,3.2,3.2,0,0,1-1.48,1.795,2.453,2.453,0,0,1-2.1.143,2.577,2.577,0,0,1-1.69-1.785,5.117,5.117,0,0,1,.315-3.112l.525-1.413-.668-.248a1.738,1.738,0,0,0-1.384,0,1.909,1.909,0,0,0-.955,1.174,2.234,2.234,0,0,0-.1,1.461,1.241,1.241,0,0,0,.754.878l-.544,1.461a2.186,2.186,0,0,1-1.06-.955,3.255,3.255,0,0,1-.487-1.575,4.439,4.439,0,0,1,.286-1.833,3.58,3.58,0,0,1,1.633-2.033,2.864,2.864,0,0,1,2.349-.115l3.914,1.451a5.03,5.03,0,0,0,1.976.4l.124.048Zm-2,2a2.8,2.8,0,0,0,.124-1.432,2.234,2.234,0,0,0-.592-1.222l-1.747-.649-.42,1.136q-.955,2.683.573,3.255a1.4,1.4,0,0,0,1.241-.057,1.909,1.909,0,0,0,.8-1.031Z" transform="translate(-2.55 -42.066)" fill="#fff"/>
      <path id="Trazado_132263" data-name="Trazado 132263" d="M154.824,516.923a.955.955,0,0,1-.334-.592.869.869,0,0,1,.258-.687.888.888,0,1,1,1.337,1.165.878.878,0,0,1-.64.353.9.9,0,0,1-.62-.239Zm9.757,6.291-1.012,1.2-6.836-5.967,1.012-1.174Z" transform="translate(2.05 -42.675)" fill="#fff"/>
      <path id="Trazado_132264" data-name="Trazado 132264" d="M160.574,514.094l.888.716a3.322,3.322,0,0,1,.8-2.912q1.909-2.158,4.353-.048l4.525,3.943-1.022,1.165-4.525-3.943a2.119,2.119,0,0,0-1.394-.621,1.785,1.785,0,0,0-1.251.726,2.234,2.234,0,0,0-.573,1.26,2.8,2.8,0,0,0,.21,1.365L167.467,520l-1.022,1.174L159.61,515.2Z" transform="translate(1.818 -42.471)" fill="#fff"/>
      <path id="Trazado_132265" data-name="Trazado 132265" d="M165.8,504.75l1.661,1.451,1.107-1.279.907.792-1.117,1.27,4.267,3.733a1.241,1.241,0,0,0,.764.363.954.954,0,0,0,.716-.4,3.82,3.82,0,0,0,.411-.621l.955.821a4.773,4.773,0,0,1-.659,1.012,1.909,1.909,0,0,1-1.508.764,2.7,2.7,0,0,1-1.69-.773l-4.248-3.7-1.079,1.241-.955-.783,1.088-1.251-1.642-1.442Z" transform="translate(1.583 -42.197)" fill="#fff"/>
      <path id="Trazado_132266" data-name="Trazado 132266" d="M179.505,506.541a3.914,3.914,0,0,1-2.864,1.47,4.525,4.525,0,0,1-3.208-1.26l-.21-.191a5.489,5.489,0,0,1-1.48-1.967,4.057,4.057,0,0,1-.306-2.186,3.618,3.618,0,0,1,.869-1.909A3.428,3.428,0,0,1,175,499.19a5.05,5.05,0,0,1,3.16,1.461l.487.42-4.067,4.621a3.207,3.207,0,0,0,2.158.831,2.472,2.472,0,0,0,1.909-.888,2.787,2.787,0,0,0,.668-1.27,3.551,3.551,0,0,0,0-1.346l1.184-.229a3.819,3.819,0,0,1-.993,3.752Zm-6.253-5.2a2.081,2.081,0,0,0-.525,1.642,3.342,3.342,0,0,0,.955,1.852l2.988-3.427-.086-.076a2.94,2.94,0,0,0-1.8-.726A1.909,1.909,0,0,0,173.252,501.338Z" transform="translate(1.283 -41.945)" fill="#fff"/>
      <path id="Trazado_132267" data-name="Trazado 132267" d="M180.2,493.765a5.724,5.724,0,0,0-.544.535,2.053,2.053,0,0,0-.382,2.415l4.859,4.239-1.022,1.174-6.845-5.976.955-1.136.811.668a2.4,2.4,0,0,1,.506-2.425,1.566,1.566,0,0,1,.535-.439Z" transform="translate(1.063 -41.656)" fill="#fff"/>
      <path id="Trazado_132268" data-name="Trazado 132268" d="M190.624,493.541a3.3,3.3,0,0,1-.859-.468,3.494,3.494,0,0,1-.859,2.692,3.188,3.188,0,0,1-2.014,1.155,2.444,2.444,0,0,1-2.024-.62,2.578,2.578,0,0,1-.955-2.253,5.06,5.06,0,0,1,1.4-2.807l.955-1.136-.535-.468a1.776,1.776,0,0,0-1.3-.487,1.958,1.958,0,0,0-1.308.764,2.3,2.3,0,0,0-.6,1.327,1.222,1.222,0,0,0,.391,1.088l-.955,1.174a2.11,2.11,0,0,1-.668-1.222,3.141,3.141,0,0,1,.105-1.642,4.229,4.229,0,0,1,.955-1.613,3.532,3.532,0,0,1,2.205-1.337,2.806,2.806,0,0,1,2.234.726l3.15,2.74a4.9,4.9,0,0,0,1.709,1.069l.1.086Zm-2.587,1.127a2.712,2.712,0,0,0,.63-1.3,2.311,2.311,0,0,0-.115-1.356l-1.4-1.165-.8.955q-1.909,2.148-.621,3.246a1.432,1.432,0,0,0,1.184.382A1.909,1.909,0,0,0,188.037,494.668Z" transform="translate(0.838 -41.423)" fill="#fff"/>
      <path id="Trazado_132269" data-name="Trazado 132269" d="M194.951,486.923a2.262,2.262,0,0,0,.573-1.432,1.757,1.757,0,0,0-.5-1.346l.955-1.107a2.912,2.912,0,0,1,.773,1.384,3.58,3.58,0,0,1,0,1.738,3.876,3.876,0,0,1-.831,1.594,3.723,3.723,0,0,1-2.864,1.4,4.955,4.955,0,0,1-3.275-1.394l-.191-.172a5.47,5.47,0,0,1-1.461-1.909,3.694,3.694,0,0,1-.286-2.11,3.971,3.971,0,0,1,.955-2,3.656,3.656,0,0,1,2.358-1.308,3.294,3.294,0,0,1,2.5.745l-.955,1.107a2.167,2.167,0,0,0-1.527-.449,2.091,2.091,0,0,0-1.4.745,2.177,2.177,0,0,0-.563,1.909,4.01,4.01,0,0,0,1.423,2.11l.229.191a3.924,3.924,0,0,0,2.243,1.107,2.186,2.186,0,0,0,1.843-.812Z" transform="translate(0.54 -41.086)" fill="#fff"/>
      <path id="Trazado_132270" data-name="Trazado 132270" d="M192.339,474.34,194,475.782l1.117-1.279.9.792-1.107,1.279,4.239,3.7a1.308,1.308,0,0,0,.773.372.955.955,0,0,0,.706-.4,3.423,3.423,0,0,0,.411-.63l.955.831a4.343,4.343,0,0,1-.659,1,1.909,1.909,0,0,1-1.508.773,2.769,2.769,0,0,1-1.69-.783l-4.258-3.7-1.088,1.251-.955-.792,1.088-1.241L191.26,475.5Z" transform="translate(0.383 -40.819)" fill="#fff"/>
      <path id="Trazado_132271" data-name="Trazado 132271" d="M194.634,471.343a.955.955,0,0,1-.334-.592,1.031,1.031,0,0,1,.907-1.031.955.955,0,0,1,.64.239.831.831,0,0,1,.048,1.27.849.849,0,0,1-.64.353A.9.9,0,0,1,194.634,471.343Zm9.757,6.282-1.021,1.165-6.836-5.938,1.022-1.174Z" transform="translate(0.246 -40.609)" fill="#fff"/>
      <path id="Trazado_132272" data-name="Trazado 132272" d="M206.627,471.875l-3.819-6.282,1.041-1.193,4.7,8.43-.773.888-9-3.494,1.041-1.193Z" transform="translate(0.043 -40.368)" fill="#fff"/>
      <path id="Trazado_132273" data-name="Trazado 132273" d="M208.215,466.361a5.327,5.327,0,0,1-1.47-1.976,3.962,3.962,0,0,1-.277-2.186,4.029,4.029,0,0,1,.955-1.986,3.819,3.819,0,0,1,2.94-1.413,4.917,4.917,0,0,1,3.332,1.384l.076.067a5.393,5.393,0,0,1,1.461,1.909,3.914,3.914,0,0,1,.286,2.177,4.077,4.077,0,0,1-.955,2.014,3.819,3.819,0,0,1-2.94,1.413,4.935,4.935,0,0,1-3.313-1.375Zm1.165-1.06a3.819,3.819,0,0,0,2.282,1.069,2.368,2.368,0,0,0,2.463-2.864,4.277,4.277,0,0,0-1.5-2.234,3.819,3.819,0,0,0-2.291-1.06,2.263,2.263,0,0,0-1.909.812,2.205,2.205,0,0,0-.525,2,4.153,4.153,0,0,0,1.48,2.282Z" transform="translate(-0.304 -40.114)" fill="#fff"/>
      <path id="Trazado_132274" data-name="Trazado 132274" d="M118.941,448.36a3.066,3.066,0,0,1-.63-.745,3.542,3.542,0,0,1-1.785,2.186,3.294,3.294,0,0,1-2.31.334,2.463,2.463,0,0,1-1.642-1.327,2.558,2.558,0,0,1,0-2.444,5.022,5.022,0,0,1,2.329-2.091l1.346-.687-.325-.64a1.738,1.738,0,0,0-1.031-.955,1.909,1.909,0,0,0-1.489.229,2.253,2.253,0,0,0-1.05,1.012,1.241,1.241,0,0,0,0,1.155l-1.384.716a2.1,2.1,0,0,1-.172-1.384,3.246,3.246,0,0,1,.706-1.489,4.354,4.354,0,0,1,1.442-1.165,3.618,3.618,0,0,1,2.549-.43,2.864,2.864,0,0,1,1.8,1.5l1.909,3.714a5.174,5.174,0,0,0,1.193,1.623l.057.115Zm-2.864.134a2.664,2.664,0,0,0,1.06-.955,2.253,2.253,0,0,0,.391-1.308l-.85-1.652-1.079.554c-1.7.878-2.282,1.8-1.776,2.8a1.422,1.422,0,0,0,.955.792,1.909,1.909,0,0,0,1.327-.229Z" transform="translate(4.032 -39.288)" fill="#fff"/>
      <path id="Trazado_132275" data-name="Trazado 132275" d="M125.4,443.805a2.31,2.31,0,0,0,1.06-1.117,1.785,1.785,0,0,0,0-1.432l1.308-.668a2.864,2.864,0,0,1,.2,1.566,3.551,3.551,0,0,1-.659,1.6,3.818,3.818,0,0,1-1.365,1.174,3.742,3.742,0,0,1-3.189.248,4.945,4.945,0,0,1-2.492-2.492l-.115-.229a5.394,5.394,0,0,1-.649-2.32,3.723,3.723,0,0,1,.506-2.062,3.877,3.877,0,0,1,1.652-1.489,3.657,3.657,0,0,1,2.673-.353,3.236,3.236,0,0,1,2.043,1.613l-1.3.678a2.167,2.167,0,0,0-1.26-.955,2.082,2.082,0,0,0-1.575.172,2.186,2.186,0,0,0-1.241,1.6,3.981,3.981,0,0,0,.554,2.482l.134.258a3.818,3.818,0,0,0,1.68,1.852,2.2,2.2,0,0,0,2.033-.134Z" transform="translate(3.636 -39.087)" fill="#fff"/>
      <path id="Trazado_132276" data-name="Trazado 132276" d="M135.583,438.722a3.351,3.351,0,0,1-1.909,2.167,2.864,2.864,0,0,1-2.349.258,3.637,3.637,0,0,1-1.823-1.862l-2.711-5.251,1.384-.716,2.683,5.213c.63,1.222,1.442,1.585,2.434,1.069a2.32,2.32,0,0,0,1.5-2.263l-3.026-5.871,1.384-.706,4.153,8.067-1.308.678Z" transform="translate(3.305 -38.844)" fill="#fff"/>
      <path id="Trazado_132277" data-name="Trazado 132277" d="M143.29,436.015a3.981,3.981,0,0,1-3.227.3,4.506,4.506,0,0,1-2.52-2.358l-.124-.248a5.365,5.365,0,0,1-.649-2.377,3.933,3.933,0,0,1,.525-2.138,3.647,3.647,0,0,1,1.508-1.461,3.418,3.418,0,0,1,2.979-.22,5.079,5.079,0,0,1,2.406,2.52l.3.573-5.47,2.816a3.217,3.217,0,0,0,1.69,1.566,2.454,2.454,0,0,0,2.081-.134,2.645,2.645,0,0,0,1.079-.955,3.446,3.446,0,0,0,.487-1.241l1.174.22A3.819,3.819,0,0,1,143.29,436.015Zm-3.9-7.151a2.072,2.072,0,0,0-1.088,1.327,3.332,3.332,0,0,0,.181,2.072l4.038-2.091-.057-.1a2.988,2.988,0,0,0-1.4-1.346A1.957,1.957,0,0,0,139.386,428.864Z" transform="translate(2.853 -38.685)" fill="#fff"/>
      <path id="Trazado_132278" data-name="Trazado 132278" d="M148.665,424.391a4.674,4.674,0,0,0-.706.3,2.043,2.043,0,0,0-1.241,2.1l2.95,5.728-1.375.716-4.162-8.067,1.346-.7.5.955a2.434,2.434,0,0,1,1.365-2.072,1.642,1.642,0,0,1,.668-.21Z" transform="translate(2.519 -38.498)" fill="#fff"/>
      <path id="Trazado_132279" data-name="Trazado 132279" d="M151.3,426.284a5.346,5.346,0,0,1-.659-3.437,3.122,3.122,0,0,1,1.728-2.32,3.169,3.169,0,0,1,2.74-.191l-2.167-4.2,1.384-.716,5.9,11.456-1.27.659-.506-.831a3.189,3.189,0,0,1-1.785,2.2,3.112,3.112,0,0,1-2.864,0,5.442,5.442,0,0,1-2.425-2.549Zm1.461-.554a4.058,4.058,0,0,0,1.68,1.862,2.081,2.081,0,0,0,1.967,0,2.272,2.272,0,0,0,1.308-2.167l-1.909-3.7a2.3,2.3,0,0,0-2.492-.162,2.091,2.091,0,0,0-1.184,1.6,4.468,4.468,0,0,0,.63,2.568Z" transform="translate(2.227 -38.148)" fill="#fff"/>
      <path id="Trazado_132280" data-name="Trazado 132280" d="M160.29,421.855a5.27,5.27,0,0,1-.63-2.377,4.076,4.076,0,0,1,5.432-3.819,4.974,4.974,0,0,1,2.578,2.511l.057.105a5.4,5.4,0,0,1,.63,2.339,3.819,3.819,0,0,1-.535,2.129,4.076,4.076,0,0,1-1.661,1.518,3.819,3.819,0,0,1-3.246.229,4.955,4.955,0,0,1-2.578-2.5Zm1.47-.554a3.953,3.953,0,0,0,1.738,1.843,2.377,2.377,0,0,0,3.332-1.738,4.181,4.181,0,0,0-.573-2.625,3.819,3.819,0,0,0-1.738-1.823,2.358,2.358,0,0,0-3.332,1.7,4.258,4.258,0,0,0,.573,2.644Z" transform="translate(1.815 -38.149)" fill="#fff"/>
      <path id="Trazado_132281" data-name="Trazado 132281" d="M175.483,416.521a1.155,1.155,0,0,0-.869-.659,4.678,4.678,0,0,0-1.738.229,7.741,7.741,0,0,1-1.909.315,2.54,2.54,0,0,1-1.3-.277,2.005,2.005,0,0,1-.831-.878,2.368,2.368,0,0,1,0-2.11,3.676,3.676,0,0,1,1.785-1.785,3.761,3.761,0,0,1,2.6-.439,2.52,2.52,0,0,1,1.785,1.375l-1.384.706a1.422,1.422,0,0,0-.955-.726,2.053,2.053,0,0,0-1.422.21,2.167,2.167,0,0,0-1.012.955,1.165,1.165,0,0,0,0,1.079.955.955,0,0,0,.783.554,5.442,5.442,0,0,0,1.68-.258,8.944,8.944,0,0,1,1.909-.306,2.76,2.76,0,0,1,1.346.277,2.224,2.224,0,0,1,.878.955,2.31,2.31,0,0,1,0,2.177,4.115,4.115,0,0,1-1.909,1.814,4.6,4.6,0,0,1-1.909.544,3.179,3.179,0,0,1-1.661-.363,2.549,2.549,0,0,1-1.107-1.117l1.375-.706a1.594,1.594,0,0,0,1.126.811,2.367,2.367,0,0,0,1.575-.3,2.434,2.434,0,0,0,1.088-.955A1.06,1.06,0,0,0,175.483,416.521Z" transform="translate(1.411 -37.941)" fill="#fff"/>
      <path id="Trazado_132282" data-name="Trazado 132282" d="M83.143,360.133a3.924,3.924,0,0,1-3-1.212A4.487,4.487,0,0,1,79,355.684V355.4a5.442,5.442,0,0,1,.516-2.415,4.086,4.086,0,0,1,1.394-1.661,3.638,3.638,0,0,1,2.014-.6,3.4,3.4,0,0,1,2.759,1.165,5.041,5.041,0,0,1,.955,3.341v.649h-6.1a3.227,3.227,0,0,0,.783,2.167,2.454,2.454,0,0,0,1.909.831,2.673,2.673,0,0,0,1.394-.344,3.246,3.246,0,0,0,.955-.888l.955.745A3.819,3.819,0,0,1,83.143,360.133ZM82.952,352a2.072,2.072,0,0,0-1.575.678,3.341,3.341,0,0,0-.792,1.909h4.544v-.115a2.864,2.864,0,0,0-.63-1.833A1.909,1.909,0,0,0,82.952,352Z" transform="translate(5.471 -35.216)" fill="#fff"/>
      <path id="Trazado_132283" data-name="Trazado 132283" d="M91.936,354.213,93.95,350.9h1.814l-2.988,4.487,3.065,4.592H94.065l-2.1-3.4-2.053,3.4H88.06l3.065-4.592L88.155,350.9h1.757Z" transform="translate(5.06 -35.225)" fill="#fff"/>
      <path id="Trazado_132284" data-name="Trazado 132284" d="M99.908,348.59V350.8h1.69v1.193h-1.69v5.642a1.26,1.26,0,0,0,.229.821.955.955,0,0,0,.764.267,3.746,3.746,0,0,0,.745-.1v1.251a4.84,4.84,0,0,1-1.193.162,1.909,1.909,0,0,1-1.566-.63,2.692,2.692,0,0,1-.535-1.785v-5.633H96.7V350.8h1.652V348.59Z" transform="translate(4.669 -35.12)" fill="#fff"/>
      <path id="Trazado_132285" data-name="Trazado 132285" d="M107.482,360.133a3.962,3.962,0,0,1-3.007-1.212,4.477,4.477,0,0,1-1.155-3.236V355.4a5.441,5.441,0,0,1,.516-2.415,4.019,4.019,0,0,1,1.442-1.661,3.638,3.638,0,0,1,2.014-.6,3.418,3.418,0,0,1,2.749,1.165,5.089,5.089,0,0,1,.955,3.341v.649h-6.072a3.179,3.179,0,0,0,.783,2.167,2.453,2.453,0,0,0,1.909.831,2.673,2.673,0,0,0,1.394-.344,3.485,3.485,0,0,0,.955-.888l.955.745A3.819,3.819,0,0,1,107.482,360.133ZM107.291,352a2.11,2.11,0,0,0-1.585.678,3.332,3.332,0,0,0-.783,1.909h4.544v-.115a2.95,2.95,0,0,0-.64-1.833A1.909,1.909,0,0,0,107.291,352Z" transform="translate(4.369 -35.216)" fill="#fff"/>
      <path id="Trazado_132286" data-name="Trazado 132286" d="M117.662,352.286a3.921,3.921,0,0,0-.764-.067,2.062,2.062,0,0,0-2.081,1.308v6.444H113.27v-9.079h1.508v1.05a2.415,2.415,0,0,1,2.158-1.222,1.671,1.671,0,0,1,.7.115Z" transform="translate(3.918 -35.216)" fill="#fff"/>
      <path id="Trazado_132287" data-name="Trazado 132287" d="M119.37,348.327a.955.955,0,0,1,.229-.63.85.85,0,0,1,.687-.267.869.869,0,0,1,.687.267.955.955,0,0,1,.229.63.878.878,0,0,1-.229.63.9.9,0,0,1-.687.258.869.869,0,0,1-.687-.258.878.878,0,0,1-.229-.63Zm1.68,11.456h-1.556v-9.041h1.556Z" transform="translate(3.641 -35.067)" fill="#fff"/>
      <path id="Trazado_132288" data-name="Trazado 132288" d="M123.3,355.341a5.289,5.289,0,0,1,.525-2.4,3.819,3.819,0,0,1,1.461-1.642,3.9,3.9,0,0,1,2.129-.582,3.819,3.819,0,0,1,3,1.289,4.907,4.907,0,0,1,1.146,3.408v.115a5.356,5.356,0,0,1-.506,2.377,3.819,3.819,0,0,1-1.451,1.671,4,4,0,0,1-2.167.582,3.819,3.819,0,0,1-2.988-1.279,4.936,4.936,0,0,1-1.146-3.4Zm1.556.191a3.952,3.952,0,0,0,.7,2.425,2.377,2.377,0,0,0,3.761,0,4.268,4.268,0,0,0,.7-2.6,3.819,3.819,0,0,0-.716-2.415,2.349,2.349,0,0,0-3.733,0A4.2,4.2,0,0,0,124.856,355.532Z" transform="translate(3.463 -35.216)" fill="#fff"/>
      <path id="Trazado_132289" data-name="Trazado 132289" d="M138.382,352.286a3.813,3.813,0,0,0-.764-.067,2.043,2.043,0,0,0-2.072,1.308v6.444H134v-9.079h1.518v1.05a2.415,2.415,0,0,1,2.167-1.222,1.593,1.593,0,0,1,.687.115Z" transform="translate(2.978 -35.216)" fill="#fff"/>
      <path id="Trazado_132290" data-name="Trazado 132290" d="M143.8,360.133a3.962,3.962,0,0,1-3.007-1.212,4.516,4.516,0,0,1-1.155-3.236V355.4a5.441,5.441,0,0,1,.516-2.415,4.086,4.086,0,0,1,1.442-1.661,3.638,3.638,0,0,1,2.014-.6,3.408,3.408,0,0,1,2.749,1.165,5.041,5.041,0,0,1,.955,3.341v.649h-6.091a3.179,3.179,0,0,0,.783,2.167,2.453,2.453,0,0,0,1.909.831,2.673,2.673,0,0,0,1.394-.344,3.36,3.36,0,0,0,.955-.888l.955.745A3.819,3.819,0,0,1,143.8,360.133ZM143.611,352a2.072,2.072,0,0,0-1.575.678,3.341,3.341,0,0,0-.792,1.909h4.544v-.115a2.941,2.941,0,0,0-.63-1.833,1.909,1.909,0,0,0-1.518-.64Z" transform="translate(2.723 -35.216)" fill="#fff"/>
      <path id="Trazado_132291" data-name="Trazado 132291" d="M154.892,357.555a1.136,1.136,0,0,0-.477-.955,4.706,4.706,0,0,0-1.652-.6,7.425,7.425,0,0,1-1.909-.6,2.7,2.7,0,0,1-1.022-.84,1.909,1.909,0,0,1-.334-1.155,2.358,2.358,0,0,1,.955-1.909,3.685,3.685,0,0,1,2.415-.773,3.819,3.819,0,0,1,2.5.8,2.511,2.511,0,0,1,.955,2.033h-1.566a1.4,1.4,0,0,0-.544-1.1,2.005,2.005,0,0,0-1.356-.458,2.148,2.148,0,0,0-1.327.363,1.155,1.155,0,0,0-.477.955.955.955,0,0,0,.439.85,5.376,5.376,0,0,0,1.613.544,9.009,9.009,0,0,1,1.909.62,2.94,2.94,0,0,1,1.069.869,2.177,2.177,0,0,1,.344,1.241,2.31,2.31,0,0,1-.955,1.909,4.029,4.029,0,0,1-2.52.735,4.544,4.544,0,0,1-1.909-.382,3.15,3.15,0,0,1-1.317-1.079,2.635,2.635,0,0,1-.477-1.5h1.556a1.642,1.642,0,0,0,.621,1.241,2.444,2.444,0,0,0,1.547.458,2.5,2.5,0,0,0,1.413-.363,1.1,1.1,0,0,0,.506-.907Z" transform="translate(2.287 -35.216)" fill="#fff"/>
      <path id="Trazado_132292" data-name="Trazado 132292" d="M126.914,279.6a5.451,5.451,0,0,1-1.967,2.864,3.055,3.055,0,0,1-2.864.382,3.332,3.332,0,0,1-2.129-1.833l-1.394,4.153-1.47-.5,4.01-11.914,1.346.449-.258.955a3.208,3.208,0,0,1,2.864-.277,3.122,3.122,0,0,1,2.062,2,5.547,5.547,0,0,1-.191,3.561Zm-1.413-.668a4.038,4.038,0,0,0,.153-2.5A2.129,2.129,0,0,0,124.231,275a2.282,2.282,0,0,0-2.4.516l-1.384,4.153a2.282,2.282,0,0,0,1.623,1.852,2.1,2.1,0,0,0,1.909-.267,4.363,4.363,0,0,0,1.518-2.329Z" transform="translate(3.744 -31.683)" fill="#fff"/>
      <path id="Trazado_132293" data-name="Trazado 132293" d="M134.466,278.691a4.359,4.359,0,0,0-.706-.3,2.043,2.043,0,0,0-2.377.573l-2.062,6.1-1.47-.5,2.864-8.592,1.432.487-.315.955a2.425,2.425,0,0,1,2.444-.468,1.556,1.556,0,0,1,.611.334Z" transform="translate(3.257 -31.829)" fill="#fff"/>
      <path id="Trazado_132294" data-name="Trazado 132294" d="M137.175,287.915a3.971,3.971,0,0,1-2.463-2.1,4.506,4.506,0,0,1-.057-3.446l.086-.267a5.422,5.422,0,0,1,1.26-2.129,4.067,4.067,0,0,1,1.909-1.107,3.618,3.618,0,0,1,2.091.067,3.408,3.408,0,0,1,2.244,1.986,5.06,5.06,0,0,1-.134,3.475l-.21.621-5.833-1.967a3.236,3.236,0,0,0,.057,2.31,2.434,2.434,0,0,0,1.547,1.384,2.673,2.673,0,0,0,1.422.134,3.666,3.666,0,0,0,1.232-.525l.659,1A3.819,3.819,0,0,1,137.175,287.915Zm2.415-7.771a2.081,2.081,0,0,0-1.718.143,3.332,3.332,0,0,0-1.356,1.566l4.306,1.451v-.115a2.864,2.864,0,0,0,0-1.909A1.909,1.909,0,0,0,139.591,280.143Z" transform="translate(2.963 -31.954)" fill="#fff"/>
      <path id="Trazado_132295" data-name="Trazado 132295" d="M146.954,281.43l-.325,1.1a3.284,3.284,0,0,1,3-.372q2.721.955,1.718,4l-1.909,5.728-1.47-.5,1.909-5.728a2.11,2.11,0,0,0,0-1.527,1.8,1.8,0,0,0-1.155-.878,2.224,2.224,0,0,0-1.384,0,2.644,2.644,0,0,0-1.174.716L144.09,290.1l-1.47-.5,2.864-8.592Z" transform="translate(2.588 -32.057)" fill="#fff"/>
      <path id="Trazado_132296" data-name="Trazado 132296" d="M157.872,292.169a1.136,1.136,0,0,0-.143-1.079,4.372,4.372,0,0,0-1.375-1.1,7.82,7.82,0,0,1-1.575-1.174,2.634,2.634,0,0,1-.706-1.117,2,2,0,0,1,.057-1.2,2.349,2.349,0,0,1,1.5-1.489,3.666,3.666,0,0,1,2.53,0,3.818,3.818,0,0,1,2.119,1.556,2.52,2.52,0,0,1,.258,2.244l-1.48-.506a1.365,1.365,0,0,0-.162-1.212,1.957,1.957,0,0,0-1.146-.869,2.082,2.082,0,0,0-1.365-.076,1.155,1.155,0,0,0-.764.764.955.955,0,0,0,.153.955,5.612,5.612,0,0,0,1.346,1.031,8.413,8.413,0,0,1,1.585,1.184,2.673,2.673,0,0,1,.735,1.165,2.148,2.148,0,0,1-.057,1.289,2.368,2.368,0,0,1-1.547,1.537,4.076,4.076,0,0,1-2.635-.115,4.545,4.545,0,0,1-1.7-.955,3.208,3.208,0,0,1-.955-1.442,2.683,2.683,0,0,1,0-1.575l1.48.5a1.613,1.613,0,0,0,.191,1.375,2.864,2.864,0,0,0,2.769,1.031A1.088,1.088,0,0,0,157.872,292.169Z" transform="translate(2.143 -32.228)" fill="#fff"/>
      <path id="Trazado_132297" data-name="Trazado 132297" d="M166.207,297.54a3.18,3.18,0,0,1,.1-.955,3.456,3.456,0,0,1-2.807.248,3.179,3.179,0,0,1-1.843-1.422,2.434,2.434,0,0,1-.21-2.1,2.578,2.578,0,0,1,1.728-1.747,5.041,5.041,0,0,1,3.122.229l1.432.477.229-.678a1.728,1.728,0,0,0-.048-1.384,1.985,1.985,0,0,0-1.2-.955,2.3,2.3,0,0,0-1.451-.048,1.241,1.241,0,0,0-.859.792l-1.48-.506a2.129,2.129,0,0,1,.878-1.088,3.293,3.293,0,0,1,1.556-.535,4.439,4.439,0,0,1,1.843.229,3.638,3.638,0,0,1,2.081,1.528,2.864,2.864,0,0,1,.181,2.348l-1.337,3.962a5.146,5.146,0,0,0-.325,1.986v.124Zm-2.072-1.909a2.806,2.806,0,0,0,1.432.086,2.348,2.348,0,0,0,1.212-.63l.6-1.766-1.155-.391c-1.8-.6-2.864-.382-3.236.678a1.413,1.413,0,0,0,.1,1.232,1.842,1.842,0,0,0,1.05.735Z" transform="translate(1.741 -32.367)" fill="#fff"/>
      <path id="Trazado_132298" data-name="Trazado 132298" d="M160.607,207a2.272,2.272,0,0,0,1.4.64,1.8,1.8,0,0,0,1.365-.439l1.06,1.012a2.864,2.864,0,0,1-1.413.706,3.561,3.561,0,0,1-1.728-.1A4.057,4.057,0,0,1,158.43,205a5.012,5.012,0,0,1,1.547-3.208l.181-.181a5.537,5.537,0,0,1,1.976-1.375,3.694,3.694,0,0,1,2.119-.2,4.048,4.048,0,0,1,1.909,1.069,3.666,3.666,0,0,1,1.212,2.415,3.265,3.265,0,0,1-.859,2.463l-1.06-1.012a2.129,2.129,0,0,0,.506-1.508,2.072,2.072,0,0,0-.678-1.432,2.205,2.205,0,0,0-1.909-.649,4.086,4.086,0,0,0-2.167,1.337l-.2.21a3.972,3.972,0,0,0-1.2,2.2,2.215,2.215,0,0,0,.8,1.871Z" transform="translate(1.871 -28.384)" fill="#fff"/>
      <path id="Trazado_132299" data-name="Trazado 132299" d="M171.909,203.306a.955.955,0,0,1,.611-.3.9.9,0,0,1,.678.277.869.869,0,0,1,.315.668.955.955,0,0,1-.267.621.888.888,0,0,1-.611.3.955.955,0,0,1-.668-.3.888.888,0,0,1-.325-.621A.955.955,0,0,1,171.909,203.306Zm-6.683,9.48-1.127-1.069,6.263-6.578,1.127,1.069Z" transform="translate(1.614 -28.522)" fill="#fff"/>
      <path id="Trazado_132300" data-name="Trazado 132300" d="M174.472,209.17l-.754.859a3.3,3.3,0,0,1,2.864.955q2.081,1.986-.143,4.353l-4.134,4.344-1.127-1.069,4.143-4.353A2.062,2.062,0,0,0,176,212.9a1.824,1.824,0,0,0-.668-1.289,2.263,2.263,0,0,0-1.241-.621,2.73,2.73,0,0,0-1.375.153l-4.458,4.687-1.117-1.146,6.263-6.568Z" transform="translate(1.476 -28.754)" fill="#fff"/>
      <path id="Trazado_132301" data-name="Trazado 132301" d="M177.007,224.362a3.971,3.971,0,0,1-1.337-2.95,4.506,4.506,0,0,1,1.394-3.141l.2-.21a5.508,5.508,0,0,1,2.033-1.394,4.057,4.057,0,0,1,2.2-.21,3.7,3.7,0,0,1,1.909.955,3.389,3.389,0,0,1,1.184,2.74,5.012,5.012,0,0,1-1.594,3.1l-.439.468-4.458-4.248a3.256,3.256,0,0,0-.955,2.119,2.482,2.482,0,0,0,.811,1.909,2.644,2.644,0,0,0,1.241.716,3.484,3.484,0,0,0,1.337,0l.181,1.184A3.819,3.819,0,0,1,177.007,224.362Zm5.47-6.024a2.053,2.053,0,0,0-1.613-.592,3.322,3.322,0,0,0-1.909.84l3.294,3.141.086-.086a3.026,3.026,0,0,0,.8-1.766,1.909,1.909,0,0,0-.659-1.537Z" transform="translate(1.09 -29.129)" fill="#fff"/>
      <path id="Trazado_132302" data-name="Trazado 132302" d="M463.636,340.692a5.442,5.442,0,0,1-.955,3.341,3.026,3.026,0,0,1-2.568,1.27,3.332,3.332,0,0,1-2.6-1.05v4.372H455.96V336.052h1.422l.067,1.012a3.217,3.217,0,0,1,2.635-1.174,3.112,3.112,0,0,1,2.6,1.232,5.518,5.518,0,0,1,.955,3.427Zm-1.547-.172a3.991,3.991,0,0,0-.659-2.425,2.11,2.11,0,0,0-1.795-.888,2.263,2.263,0,0,0-2.11,1.251v4.334a2.272,2.272,0,0,0,2.129,1.241,2.1,2.1,0,0,0,1.776-.888,4.344,4.344,0,0,0,.62-2.625Z" transform="translate(-11.613 -34.544)" fill="#fff"/>
      <path id="Trazado_132303" data-name="Trazado 132303" d="M471.632,344.242a3.274,3.274,0,0,1-2.664,1.069,2.864,2.864,0,0,1-2.205-.85,3.646,3.646,0,0,1-.773-2.492V336.06h1.556v5.871c0,1.375.563,2.062,1.68,2.062a2.32,2.32,0,0,0,2.368-1.327V336.06h1.547v9.079h-1.48Z" transform="translate(-12.067 -34.552)" fill="#fff"/>
      <path id="Trazado_132304" data-name="Trazado 132304" d="M477.422,336.052l.048,1.146a3.3,3.3,0,0,1,2.721-1.308q2.864,0,2.864,3.246v6h-1.518v-6a2.043,2.043,0,0,0-.449-1.451,1.766,1.766,0,0,0-1.365-.468,2.253,2.253,0,0,0-1.327.4,2.673,2.673,0,0,0-.888,1.06v6.463H476v-9.079Z" transform="translate(-12.521 -34.544)" fill="#fff"/>
      <path id="Trazado_132305" data-name="Trazado 132305" d="M487.938,333.76v2.2h1.69v1.2h-1.69v5.633a1.241,1.241,0,0,0,.229.821.955.955,0,0,0,.773.277,3.926,3.926,0,0,0,.735-.105v1.251a4.449,4.449,0,0,1-1.193.172,1.909,1.909,0,0,1-1.566-.63,2.692,2.692,0,0,1-.535-1.785v-5.633H484.73v-1.2h1.652v-2.2Z" transform="translate(-12.916 -34.448)" fill="#fff"/>
      <path id="Trazado_132306" data-name="Trazado 132306" d="M491.16,340.511a5.289,5.289,0,0,1,.525-2.4,3.819,3.819,0,0,1,1.461-1.652,3.972,3.972,0,0,1,2.129-.573,3.819,3.819,0,0,1,3,1.279,4.945,4.945,0,0,1,1.146,3.418v.1a5.3,5.3,0,0,1-.506,2.377,3.819,3.819,0,0,1-1.451,1.642,4.009,4.009,0,0,1-2.167.592,3.819,3.819,0,0,1-2.988-1.289,4.9,4.9,0,0,1-1.146-3.4Zm1.556.181a3.933,3.933,0,0,0,.7,2.425,2.253,2.253,0,0,0,1.909.955,2.224,2.224,0,0,0,1.909-.955,4.286,4.286,0,0,0,.7-2.6,3.876,3.876,0,0,0-.716-2.425,2.263,2.263,0,0,0-1.909-.955,2.224,2.224,0,0,0-1.852.955A4.22,4.22,0,0,0,492.716,340.692Z" transform="translate(-13.207 -34.544)" fill="#fff"/>
      <path id="Trazado_132307" data-name="Trazado 132307" d="M505.91,340.345a5.327,5.327,0,0,1,.955-3.36,3.37,3.37,0,0,1,5.117-.181V332.03h1.556v12.888h-1.432l-.076-.955a3.141,3.141,0,0,1-2.587,1.146,3.074,3.074,0,0,1-2.568-1.3,5.336,5.336,0,0,1-.955-3.37Zm1.556.172a3.991,3.991,0,0,0,.64,2.415,2.053,2.053,0,0,0,1.757.878,2.263,2.263,0,0,0,2.158-1.327v-4.172a2.263,2.263,0,0,0-2.139-1.279,2.043,2.043,0,0,0-1.776.878,4.392,4.392,0,0,0-.64,2.606Z" transform="translate(-13.876 -34.369)" fill="#fff"/>
      <path id="Trazado_132308" data-name="Trazado 132308" d="M520.212,345.3a4,4,0,0,1-3.007-1.212,4.506,4.506,0,0,1-1.155-3.246v-.286a5.432,5.432,0,0,1,.516-2.406,3.98,3.98,0,0,1,1.442-1.671,3.694,3.694,0,0,1,2-.592,3.4,3.4,0,0,1,2.759,1.165,5.069,5.069,0,0,1,.955,3.341v.64h-6.158a3.217,3.217,0,0,0,.792,2.167,2.444,2.444,0,0,0,1.909.831,2.74,2.74,0,0,0,1.394-.334,3.532,3.532,0,0,0,.955-.888l.955.735A3.819,3.819,0,0,1,520.212,345.3Zm-.2-8.143a2.081,2.081,0,0,0-1.575.687,3.332,3.332,0,0,0-.783,1.909H522.2v-.124a2.989,2.989,0,0,0-.64-1.833,1.967,1.967,0,0,0-1.546-.64Z" transform="translate(-14.335 -34.544)" fill="#fff"/>
      <path id="Trazado_132309" data-name="Trazado 132309" d="M533.407,343.039l2.253-6.979h1.585l-3.255,9.079h-1.146l-3.294-9.079h1.585Z" transform="translate(-14.947 -34.552)" fill="#fff"/>
      <path id="Trazado_132310" data-name="Trazado 132310" d="M542.922,345.3a4,4,0,0,1-3.007-1.212,4.506,4.506,0,0,1-1.155-3.246v-.286a5.432,5.432,0,0,1,.516-2.406,3.98,3.98,0,0,1,1.442-1.671,3.7,3.7,0,0,1,2.014-.592,3.389,3.389,0,0,1,2.75,1.165,5.07,5.07,0,0,1,.955,3.341v.64h-6.158a3.217,3.217,0,0,0,.792,2.167,2.453,2.453,0,0,0,1.909.831,2.7,2.7,0,0,0,1.384-.334,3.533,3.533,0,0,0,1-.888l.955.735A3.819,3.819,0,0,1,542.922,345.3Zm-.191-8.143a2.081,2.081,0,0,0-1.585.687,3.331,3.331,0,0,0-.783,1.909h4.544v-.124a2.989,2.989,0,0,0-.64-1.833A1.909,1.909,0,0,0,542.731,337.159Z" transform="translate(-15.365 -34.544)" fill="#fff"/>
      <path id="Trazado_132311" data-name="Trazado 132311" d="M550.176,336.052V337.2a3.274,3.274,0,0,1,2.721-1.308q2.864,0,2.864,3.246v6H554.2v-6a2.091,2.091,0,0,0-.449-1.451,1.8,1.8,0,0,0-1.375-.468,2.273,2.273,0,0,0-1.327.4,2.865,2.865,0,0,0-.888,1.06v6.463H548.62v-9.079Z" transform="translate(-15.812 -34.544)" fill="#fff"/>
      <path id="Trazado_132312" data-name="Trazado 132312" d="M560.7,333.76v2.2h1.69v1.2H560.7v5.633a1.241,1.241,0,0,0,.22.821.955.955,0,0,0,.773.277,3.726,3.726,0,0,0,.735-.105v1.251a4.334,4.334,0,0,1-1.184.172,1.909,1.909,0,0,1-1.575-.63,2.692,2.692,0,0,1-.525-1.785v-5.633H557.49v-1.2h1.652v-2.2Z" transform="translate(-16.214 -34.448)" fill="#fff"/>
      <path id="Trazado_132313" data-name="Trazado 132313" d="M563.91,340.511a5.422,5.422,0,0,1,.525-2.4,4.076,4.076,0,0,1,6.6-.945,4.946,4.946,0,0,1,1.146,3.418v.1a5.432,5.432,0,0,1-.506,2.377,3.819,3.819,0,0,1-1.451,1.642,4.029,4.029,0,0,1-2.167.592,3.819,3.819,0,0,1-3-1.289,4.9,4.9,0,0,1-1.146-3.4Zm1.566.181a3.866,3.866,0,0,0,.7,2.425,2.253,2.253,0,0,0,1.909.955,2.205,2.205,0,0,0,1.909-.955,4.22,4.22,0,0,0,.7-2.6,3.867,3.867,0,0,0-.707-2.425,2.263,2.263,0,0,0-1.909-.955,2.224,2.224,0,0,0-1.852.955A4.162,4.162,0,0,0,565.475,340.692Z" transform="translate(-16.504 -34.544)" fill="#fff"/>
      <path id="Trazado_132314" data-name="Trazado 132314" d="M427.874,441.976a4.592,4.592,0,0,0-.5-.582,2.033,2.033,0,0,0-2.387-.544l-4.563,4.554-1.1-1.1,6.425-6.415,1.069,1.06-.726.764a2.415,2.415,0,0,1,2.387.668,1.576,1.576,0,0,1,.411.573Z" transform="translate(-9.953 -39.167)" fill="#fff"/>
      <path id="Trazado_132315" data-name="Trazado 132315" d="M426.25,451.456a3.952,3.952,0,0,1-1.27-2.979,4.515,4.515,0,0,1,1.47-3.112l.21-.2a5.421,5.421,0,0,1,2.062-1.346,4.038,4.038,0,0,1,2.2-.153,3.609,3.609,0,0,1,1.852,1,3.408,3.408,0,0,1,1.117,2.769,5.041,5.041,0,0,1-1.661,3.055l-.458.458-4.353-4.353a3.217,3.217,0,0,0-.955,2.091,2.482,2.482,0,0,0,.764,1.909,2.74,2.74,0,0,0,1.222.745,3.665,3.665,0,0,0,1.337.076l.143,1.193A3.819,3.819,0,0,1,426.25,451.456Zm5.613-5.89a2.081,2.081,0,0,0-1.594-.63,3.332,3.332,0,0,0-1.909.792l3.217,3.217.086-.076a2.968,2.968,0,0,0,.84-1.747,1.909,1.909,0,0,0-.64-1.556Z" transform="translate(-10.209 -39.425)" fill="#fff"/>
      <path id="Trazado_132316" data-name="Trazado 132316" d="M431.578,456.425l-1.1-1.1,9.117-9.117,1.1,1.1Z" transform="translate(-10.458 -39.544)" fill="#fff"/>
      <path id="Trazado_132317" data-name="Trazado 132317" d="M437.472,462.46a3.313,3.313,0,0,1,.525-.831,3.485,3.485,0,0,1-2.625-1.031,3.169,3.169,0,0,1-1.012-2.091,2.454,2.454,0,0,1,.745-1.976,2.549,2.549,0,0,1,2.32-.792,5.06,5.06,0,0,1,2.7,1.585l1.069,1.069.506-.506a1.747,1.747,0,0,0,.573-1.26,1.967,1.967,0,0,0-.678-1.356,2.243,2.243,0,0,0-1.279-.687,1.231,1.231,0,0,0-1.117.325l-1.1-1.107a2.129,2.129,0,0,1,1.27-.582,3.284,3.284,0,0,1,1.633.21,4.487,4.487,0,0,1,1.547,1.031,3.58,3.58,0,0,1,1.184,2.291,2.864,2.864,0,0,1-.878,2.177l-2.95,2.96a4.975,4.975,0,0,0-1.184,1.633l-.1.1Zm-.955-2.654a2.758,2.758,0,0,0,1.251.706,2.291,2.291,0,0,0,1.365,0l1.317-1.318-.859-.859q-2.024-2.024-3.2-.84a1.413,1.413,0,0,0-.468,1.155,1.909,1.909,0,0,0,.563,1.155Z" transform="translate(-10.633 -39.86)" fill="#fff"/>
      <path id="Trazado_132318" data-name="Trazado 132318" d="M443.81,467.219a2.2,2.2,0,0,0,1.384.678,1.776,1.776,0,0,0,1.375-.41l1.031,1.041a2.711,2.711,0,0,1-1.423.668,3.456,3.456,0,0,1-1.728-.134,4.048,4.048,0,0,1-2.75-3.9,4.946,4.946,0,0,1,1.623-3.169l.181-.181a5.594,5.594,0,0,1,2.014-1.327,3.761,3.761,0,0,1,2.119-.143,4.048,4.048,0,0,1,1.909,1.117,3.685,3.685,0,0,1,1.146,2.444,3.265,3.265,0,0,1-.955,2.444L448.7,465.3a2.177,2.177,0,0,0,.554-1.489,2.062,2.062,0,0,0-.649-1.451,2.157,2.157,0,0,0-1.909-.7,4.009,4.009,0,0,0-2.2,1.279l-.21.21a3.9,3.9,0,0,0-1.251,2.167,2.148,2.148,0,0,0,.773,1.9Z" transform="translate(-10.966 -40.18)" fill="#fff"/>
      <path id="Trazado_132319" data-name="Trazado 132319" d="M455.189,463.816a.955.955,0,0,1,.621-.286.869.869,0,0,1,.659.3.888.888,0,0,1,.306.678.955.955,0,0,1-.9.9.9.9,0,0,1-.659-.315.85.85,0,0,1-.305-.659A.954.954,0,0,1,455.189,463.816Zm-6.931,9.308-1.1-1.1,6.415-6.415,1.1,1.1Z" transform="translate(-11.214 -40.329)" fill="#fff"/>
      <path id="Trazado_132320" data-name="Trazado 132320" d="M453.192,471.616a5.385,5.385,0,0,1,2.062-1.318,3.819,3.819,0,0,1,2.2-.134,3.924,3.924,0,0,1,1.909,1.1,3.819,3.819,0,0,1,1.212,3.026,4.955,4.955,0,0,1-1.6,3.227l-.076.076a5.346,5.346,0,0,1-2.043,1.327,3.9,3.9,0,0,1-2.186.134,4.134,4.134,0,0,1-1.909-1.117,3.819,3.819,0,0,1-1.2-3.026,4.917,4.917,0,0,1,1.594-3.217Zm.955,1.241a3.819,3.819,0,0,0-1.212,2.205,2.368,2.368,0,0,0,2.664,2.645,4.258,4.258,0,0,0,2.329-1.337,3.885,3.885,0,0,0,1.212-2.215,2.272,2.272,0,0,0-.678-1.986,2.234,2.234,0,0,0-1.957-.668,4.2,4.2,0,0,0-2.339,1.365Z" transform="translate(-11.412 -40.625)" fill="#fff"/>
      <path id="Trazado_132321" data-name="Trazado 132321" d="M464.866,476.954l-.773.85a3.275,3.275,0,0,1,2.864.955q2.033,2.034-.239,4.353l-4.267,4.344-1.088-1.1,4.239-4.248a2.091,2.091,0,0,0,.716-1.346,1.814,1.814,0,0,0-.64-1.3,2.225,2.225,0,0,0-1.222-.649,2.606,2.606,0,0,0-1.375.115l-4.573,4.573-1.1-1.1,6.415-6.415Z" transform="translate(-11.678 -40.893)" fill="#fff"/>
      <path id="Trazado_132322" data-name="Trazado 132322" d="M467.03,492.246a3.943,3.943,0,0,1-1.26-2.979,4.477,4.477,0,0,1,1.47-3.112l.2-.2a5.451,5.451,0,0,1,2.072-1.346,4.038,4.038,0,0,1,2.2-.153,3.6,3.6,0,0,1,1.843.955,3.4,3.4,0,0,1,1.126,2.778,5.031,5.031,0,0,1-1.671,3.055l-.458.449-4.344-4.344a3.236,3.236,0,0,0-.955,2.091,2.454,2.454,0,0,0,.773,1.909,2.683,2.683,0,0,0,1.222.754,3.619,3.619,0,0,0,1.327.076l.153,1.193A3.819,3.819,0,0,1,467.03,492.246Zm5.623-5.89a2.015,2.015,0,0,0-1.594-.63,3.313,3.313,0,0,0-1.909.792l3.217,3.217.086-.086a2.921,2.921,0,0,0,.84-1.747,1.909,1.909,0,0,0-.621-1.547Z" transform="translate(-12.057 -41.273)" fill="#fff"/>
      <path id="Trazado_132323" data-name="Trazado 132323" d="M476.656,498.227a1.126,1.126,0,0,0,.353-1.031,4.459,4.459,0,0,0-.745-1.585,7.749,7.749,0,0,1-.888-1.757,2.6,2.6,0,0,1-.134-1.317,1.967,1.967,0,0,1,.582-1.05,2.377,2.377,0,0,1,2-.668,3.7,3.7,0,0,1,2.253,1.165,3.818,3.818,0,0,1,1.2,2.329,2.511,2.511,0,0,1-.764,2.119l-1.1-1.1a1.423,1.423,0,0,0,.391-1.165,2.033,2.033,0,0,0-.64-1.289,2.139,2.139,0,0,0-1.193-.678,1.184,1.184,0,0,0-1.021.344.955.955,0,0,0-.286.955,5.382,5.382,0,0,0,.754,1.518,8.507,8.507,0,0,1,.888,1.776,2.693,2.693,0,0,1,.143,1.365,2.139,2.139,0,0,1-.63,1.127,2.311,2.311,0,0,1-2.062.687,4.125,4.125,0,0,1-2.31-1.26,4.486,4.486,0,0,1-1.088-1.642,3.064,3.064,0,0,1-.172-1.69,2.6,2.6,0,0,1,.726-1.394l1.1,1.1a1.585,1.585,0,0,0-.43,1.318,2.453,2.453,0,0,0,.764,1.413,2.53,2.53,0,0,0,1.251.745A1.1,1.1,0,0,0,476.656,498.227Z" transform="translate(-12.346 -41.564)" fill="#fff"/>
      <path id="Trazado_132324" data-name="Trazado 132324" d="M489.327,508.136a5.423,5.423,0,0,1-3.026,1.7,3.055,3.055,0,0,1-2.711-.955,3.312,3.312,0,0,1-1.1-2.578L479.4,509.4l-1.1-1.1,8.888-8.888,1,1-.659.764a3.2,3.2,0,0,1,2.692,1.031,3.122,3.122,0,0,1,.955,2.7,5.557,5.557,0,0,1-1.757,3.1Zm-.955-1.222a3.99,3.99,0,0,0,1.26-2.177,2.12,2.12,0,0,0-.649-1.909,2.282,2.282,0,0,0-2.377-.611l-3.065,3.074a2.291,2.291,0,0,0,.63,2.387,2.072,2.072,0,0,0,1.909.62,4.306,4.306,0,0,0,2.272-1.384Z" transform="translate(-12.625 -41.955)" fill="#fff"/>
      <path id="Trazado_132325" data-name="Trazado 132325" d="M492.67,516.326a3.323,3.323,0,0,1-2.635-1.127,2.864,2.864,0,0,1-.955-2.158,3.637,3.637,0,0,1,1.222-2.31l4.181-4.181,1.1,1.1-4.153,4.153c-.955.955-1.06,1.852-.267,2.645a2.32,2.32,0,0,0,2.606.735l4.668-4.668,1.1,1.1-6.415,6.415-1.05-1.041Zm7.637-9.365,1.327,1.327-3.332.153-.878-.888Z" transform="translate(-13.113 -42.278)" fill="#fff"/>
      <path id="Trazado_132326" data-name="Trazado 132326" d="M503.592,522.178a5.364,5.364,0,0,1-3.036,1.69,3.074,3.074,0,0,1-2.711-.955,3.189,3.189,0,0,1-1.021-2.75l-.792.7L495,519.887l9.117-9.117,1.1,1.1-3.4,3.4a3.131,3.131,0,0,1,2.654,1.012,3.074,3.074,0,0,1,.955,2.721,5.509,5.509,0,0,1-1.757,3.084Zm-.955-1.222a4.21,4.21,0,0,0,1.308-2.158,2.043,2.043,0,0,0-.64-1.862,2.282,2.282,0,0,0-2.568-.554l-2.778,2.778a2.348,2.348,0,0,0,.563,2.578,2.024,2.024,0,0,0,1.843.621,4.42,4.42,0,0,0,2.272-1.4Z" transform="translate(-13.382 -42.47)" fill="#fff"/>
      <path id="Trazado_132327" data-name="Trazado 132327" d="M503.378,528.225l-1.1-1.1,9.117-9.117,1.1,1.1Z" transform="translate(-13.712 -42.798)" fill="#fff"/>
      <path id="Trazado_132328" data-name="Trazado 132328" d="M513.408,522.036a.955.955,0,0,1,.611-.3,1.05,1.05,0,0,1,.955.955.97.97,0,0,1-.9.9,1.05,1.05,0,0,1-.955-.955A.859.859,0,0,1,513.408,522.036Zm-6.941,9.308-1.1-1.1,6.425-6.425,1.1,1.1Z" transform="translate(-13.852 -42.967)" fill="#fff"/>
      <path id="Trazado_132329" data-name="Trazado 132329" d="M511.77,535.188a2.263,2.263,0,0,0,1.384.668,1.746,1.746,0,0,0,1.375-.4l1.041,1.041a2.864,2.864,0,0,1-1.432.668,3.589,3.589,0,0,1-1.728-.143,3.818,3.818,0,0,1-1.537-.955,3.761,3.761,0,0,1-1.2-2.959,4.927,4.927,0,0,1,1.613-3.17l.191-.181a5.365,5.365,0,0,1,2-1.327,3.676,3.676,0,0,1,2.119-.143,3.962,3.962,0,0,1,1.909,1.117,3.619,3.619,0,0,1,1.146,2.444,3.236,3.236,0,0,1-.955,2.434l-1.031-1.031a2.129,2.129,0,0,0,.544-1.5,2.072,2.072,0,0,0-.64-1.451,2.186,2.186,0,0,0-1.909-.687,4,4,0,0,0-2.205,1.279l-.21.21A3.934,3.934,0,0,0,511,533.269a2.186,2.186,0,0,0,.773,1.919Z" transform="translate(-14.046 -43.259)" fill="#fff"/>
      <path id="Trazado_132330" data-name="Trazado 132330" d="M519.023,544.01a3.313,3.313,0,0,1,.525-.831,3.484,3.484,0,0,1-2.6-1.031,3.15,3.15,0,0,1-1.012-2.091,2.463,2.463,0,0,1,.754-1.976,2.549,2.549,0,0,1,2.32-.792,5.069,5.069,0,0,1,2.692,1.585l1.069,1.069.506-.5a1.785,1.785,0,0,0,.573-1.26,1.967,1.967,0,0,0-.678-1.365,2.244,2.244,0,0,0-1.279-.687,1.26,1.26,0,0,0-1.117.325l-1.1-1.107a2.129,2.129,0,0,1,1.27-.582,3.285,3.285,0,0,1,1.633.21,4.487,4.487,0,0,1,1.547,1.031,3.58,3.58,0,0,1,1.184,2.291,2.864,2.864,0,0,1-.878,2.177l-2.95,2.959a5.08,5.08,0,0,0-1.184,1.633l-.1.1Zm-.955-2.654a2.672,2.672,0,0,0,1.251.706,2.29,2.29,0,0,0,1.365,0L522,540.745l-.859-.859q-2.014-2.015-3.2-.84a1.413,1.413,0,0,0-.468,1.155,1.91,1.91,0,0,0,.563,1.155Z" transform="translate(-14.33 -43.556)" fill="#fff"/>
      <path id="Trazado_132331" data-name="Trazado 132331" d="M527.436,549a1.136,1.136,0,0,0,.353-1.022,4.488,4.488,0,0,0-.745-1.594,8.014,8.014,0,0,1-.9-1.747,2.73,2.73,0,0,1-.134-1.318,2.015,2.015,0,0,1,.592-1.06,2.367,2.367,0,0,1,2-.668,3.675,3.675,0,0,1,2.253,1.165,3.819,3.819,0,0,1,1.212,2.339,2.558,2.558,0,0,1-.764,2.119L530.2,546.1a1.375,1.375,0,0,0,.391-1.155,2.014,2.014,0,0,0-.63-1.3,2.139,2.139,0,0,0-1.2-.668,1.136,1.136,0,0,0-1.022.344.955.955,0,0,0-.286.955,5.413,5.413,0,0,0,.754,1.527,8.315,8.315,0,0,1,.9,1.766,2.865,2.865,0,0,1,.134,1.375,2.062,2.062,0,0,1-.621,1.117,2.33,2.33,0,0,1-2.072.7,4.058,4.058,0,0,1-2.3-1.27,4.688,4.688,0,0,1-1.1-1.633,3.18,3.18,0,0,1-.162-1.7,2.627,2.627,0,0,1,.726-1.394l1.1,1.1a1.613,1.613,0,0,0-.439,1.317,2.407,2.407,0,0,0,.764,1.413,2.463,2.463,0,0,0,1.251.745A1.1,1.1,0,0,0,527.436,549Z" transform="translate(-14.647 -43.865)" fill="#fff"/>
      <path id="Trazado_132332" data-name="Trazado 132332" d="M389.19,503.015a4.221,4.221,0,0,0-.3-.7,2.043,2.043,0,0,0-2.11-1.241l-5.728,2.96-.716-1.375,8.057-4.182.7,1.346-.955.5a2.425,2.425,0,0,1,2.072,1.365,1.642,1.642,0,0,1,.22.668Z" transform="translate(-8.186 -41.913)" fill="#fff"/>
      <path id="Trazado_132333" data-name="Trazado 132333" d="M385.612,512.778a3.273,3.273,0,0,1,.745-.64,3.465,3.465,0,0,1-2.186-1.776,3.217,3.217,0,0,1-.344-2.3,2.473,2.473,0,0,1,1.317-1.652,2.549,2.549,0,0,1,2.454-.057,5.08,5.08,0,0,1,2.091,2.329l.7,1.346.63-.334a1.709,1.709,0,0,0,.955-1.031,1.909,1.909,0,0,0-.229-1.489,2.3,2.3,0,0,0-1.012-1.05,1.26,1.26,0,0,0-1.165,0l-.716-1.384a2.147,2.147,0,0,1,1.384-.181,3.322,3.322,0,0,1,1.5.706,4.479,4.479,0,0,1,1.165,1.442,3.6,3.6,0,0,1,.43,2.54,2.807,2.807,0,0,1-1.489,1.814l-3.714,1.909a4.984,4.984,0,0,0-1.613,1.2l-.124.057Zm-.134-2.864a2.721,2.721,0,0,0,.955,1.06,2.235,2.235,0,0,0,1.308.382l1.652-.85-.563-1.088c-.878-1.68-1.8-2.272-2.8-1.757a1.384,1.384,0,0,0-.783.955,1.833,1.833,0,0,0,.229,1.327Z" transform="translate(-8.34 -42.186)" fill="#fff"/>
      <path id="Trazado_132334" data-name="Trazado 132334" d="M391.469,514.036a5.317,5.317,0,0,1,3.446-.668,3.36,3.36,0,0,1,2.511,4.458l4.2-2.177.716,1.375-11.456,5.938-.659-1.27.831-.516a3.141,3.141,0,0,1-2.205-1.776,3.084,3.084,0,0,1,0-2.864,5.28,5.28,0,0,1,2.53-2.434Zm.563,1.461a3.933,3.933,0,0,0-1.852,1.68,2.053,2.053,0,0,0,0,1.967,2.253,2.253,0,0,0,2.167,1.3l3.7-1.909a2.291,2.291,0,0,0,.153-2.492,2.072,2.072,0,0,0-1.6-1.174,4.411,4.411,0,0,0-2.568.63Z" transform="translate(-8.555 -42.585)" fill="#fff"/>
      <path id="Trazado_132335" data-name="Trazado 132335" d="M402.379,520.115a.954.954,0,0,1,.678-.086.888.888,0,0,1,.544.487.859.859,0,0,1,.086.735.987.987,0,0,1-1.127.582.9.9,0,0,1-.535-.5.878.878,0,0,1-.1-.726A.954.954,0,0,1,402.379,520.115Zm-9.423,6.778-.716-1.375,8.067-4.182.706,1.375Z" transform="translate(-8.725 -42.888)" fill="#fff"/>
      <path id="Trazado_132336" data-name="Trazado 132336" d="M398.155,526.889a5.412,5.412,0,0,1,2.377-.64,3.82,3.82,0,0,1,2.129.544,3.99,3.99,0,0,1,1.5,1.623,3.819,3.819,0,0,1,.239,3.255,4.935,4.935,0,0,1-2.5,2.587l-.1.048a5.307,5.307,0,0,1-2.349.649,3.819,3.819,0,0,1-2.119-.535,4.01,4.01,0,0,1-1.527-1.652,3.819,3.819,0,0,1-.239-3.246,4.917,4.917,0,0,1,2.492-2.587Zm.554,1.47a3.9,3.9,0,0,0-1.823,1.737,2.368,2.368,0,0,0,1.738,3.332,4.248,4.248,0,0,0,2.625-.582,3.867,3.867,0,0,0,1.824-1.747,2.368,2.368,0,0,0-1.709-3.322,4.239,4.239,0,0,0-2.654.582Z" transform="translate(-8.864 -43.171)" fill="#fff"/>
    </g>
  </g>
</svg>
