<svg xmlns="http://www.w3.org/2000/svg" xmlns:xlink="http://www.w3.org/1999/xlink" width="68" height="68" viewBox="0 0 68 68">
  <defs>
    <filter id="Elipse_180" x="0" y="0" width="68" height="68" filterUnits="userSpaceOnUse">
      <feOffset dy="3" input="SourceAlpha"/>
      <feGaussianBlur stdDeviation="3" result="blur"/>
      <feFlood flood-opacity="0.161"/>
      <feComposite operator="in" in2="blur"/>
      <feComposite in="SourceGraphic"/>
    </filter>
  </defs>
  <g id="Grupo_56197" data-name="Grupo 56197" transform="translate(9 6)">
    <g transform="matrix(1, 0, 0, 1, -9, -6)" filter="url(#Elipse_180)">
      <circle id="Elipse_180-2" data-name="Elipse 180" cx="25" cy="25" r="25" transform="translate(9 6)" fill="#fe62aa"/>
    </g>
    <path id="Trazado_132999" data-name="Trazado 132999" d="M.293-3.516A2.2,2.2,0,0,0,1.9-4.08a2.068,2.068,0,0,0,.557-1.575H7.09A5.48,5.48,0,0,1,5.222-1.377,6.947,6.947,0,0,1,.41.293,7.034,7.034,0,0,1-5.039-1.875,8.542,8.542,0,0,1-7.031-7.881v-.205a9.654,9.654,0,0,1,.886-4.241,6.453,6.453,0,0,1,2.556-2.827,7.622,7.622,0,0,1,3.955-.989,6.86,6.86,0,0,1,4.907,1.714A6.079,6.079,0,0,1,7.09-9.785H2.461a2.71,2.71,0,0,0-.6-1.89,2.073,2.073,0,0,0-1.611-.659q-1.919,0-2.241,2.446a17.261,17.261,0,0,0-.1,2.139,6.78,6.78,0,0,0,.571,3.311A1.978,1.978,0,0,0,.293-3.516Z" transform="translate(25 38)" fill="#fff"/>
  </g>
</svg>
