<svg xmlns="http://www.w3.org/2000/svg" xmlns:xlink="http://www.w3.org/1999/xlink" width="68" height="68" viewBox="0 0 68 68">
  <defs>
    <filter id="Trazado_132978" x="0" y="0" width="68" height="68" filterUnits="userSpaceOnUse">
      <feOffset dy="3" input="SourceAlpha"/>
      <feGaussianBlur stdDeviation="3" result="blur"/>
      <feFlood flood-opacity="0.161"/>
      <feComposite operator="in" in2="blur"/>
      <feComposite in="SourceGraphic"/>
    </filter>
  </defs>
  <g id="Grupo_56195" data-name="Grupo 56195" transform="translate(9 6)">
    <g transform="matrix(1, 0, 0, 1, -9, -6)" filter="url(#Trazado_132978)">
      <path id="Trazado_132978-2" data-name="Trazado 132978" d="M25,0A25,25,0,1,1,0,25,25,25,0,0,1,25,0Z" transform="translate(9 6)" fill="#fe62aa"/>
    </g>
    <path id="Trazado_132997" data-name="Trazado 132997" d="M2.351,0a5.574,5.574,0,0,1-.469-1.421A4.59,4.59,0,0,1-1.926.293,5.623,5.623,0,0,1-5.735-1.062,4.313,4.313,0,0,1-7.3-4.468a4.433,4.433,0,0,1,1.9-3.9A9.7,9.7,0,0,1,.139-9.683H1.663v-.839q0-2.193-1.89-2.193a1.545,1.545,0,0,0-1.758,1.737H-6.921a4.425,4.425,0,0,1,1.956-3.731A8.218,8.218,0,0,1,.022-16.143a7.205,7.205,0,0,1,4.79,1.479,5.144,5.144,0,0,1,1.8,4.058v7.017a7.186,7.186,0,0,0,.674,3.34V0ZM-.74-3.223a2.754,2.754,0,0,0,1.531-.4,2.479,2.479,0,0,0,.872-.894V-7.046H.227q-2.578,0-2.578,2.314A1.413,1.413,0,0,0-1.9-3.64,1.643,1.643,0,0,0-.74-3.223Z" transform="translate(25 36)" fill="#fff"/>
  </g>
</svg>
