<svg xmlns="http://www.w3.org/2000/svg" xmlns:xlink="http://www.w3.org/1999/xlink" width="68" height="68" viewBox="0 0 68 68">
  <defs>
    <filter id="Elipse_180" x="0" y="0" width="68" height="68" filterUnits="userSpaceOnUse">
      <feOffset dy="3" input="SourceAlpha"/>
      <feGaussianBlur stdDeviation="3" result="blur"/>
      <feFlood flood-opacity="0.161"/>
      <feComposite operator="in" in2="blur"/>
      <feComposite in="SourceGraphic"/>
    </filter>
  </defs>
  <g id="Grupo_56196" data-name="Grupo 56196" transform="translate(9 6)">
    <g transform="matrix(1, 0, 0, 1, -9, -6)" filter="url(#Elipse_180)">
      <circle id="Elipse_180-2" data-name="Elipse 180" cx="25" cy="25" r="25" transform="translate(9 6)" fill="#fe62aa"/>
    </g>
    <path id="Trazado_132998" data-name="Trazado 132998" d="M7.654-7.793A9.66,9.66,0,0,1,6.042-1.8,5.4,5.4,0,0,1,1.5.293,4.684,4.684,0,0,1-2.4-1.626L-2.6,0H-7.024V-22.5h4.937v7.925a4.519,4.519,0,0,1,3.56-1.567,5.4,5.4,0,0,1,4.57,2.124A9.71,9.71,0,0,1,7.654-8.042ZM2.7-8.108a6.444,6.444,0,0,0-.608-3.254,2.049,2.049,0,0,0-1.868-.973,2.364,2.364,0,0,0-2.314,1.272v6.288A2.377,2.377,0,0,0,.256-3.516a2.1,2.1,0,0,0,2.212-1.7A12.182,12.182,0,0,0,2.7-8.108Z" transform="translate(25 38)" fill="#fff"/>
  </g>
</svg>
