<svg xmlns="http://www.w3.org/2000/svg" xmlns:xlink="http://www.w3.org/1999/xlink" width="68" height="68" viewBox="0 0 68 68">
  <defs>
    <filter id="Elipse_180" x="0" y="0" width="68" height="68" filterUnits="userSpaceOnUse">
      <feOffset dy="3" input="SourceAlpha"/>
      <feGaussianBlur stdDeviation="3" result="blur"/>
      <feFlood flood-opacity="0.161"/>
      <feComposite operator="in" in2="blur"/>
      <feComposite in="SourceGraphic"/>
    </filter>
  </defs>
  <g id="Grupo_56199" data-name="Grupo 56199" transform="translate(9 6)">
    <g transform="matrix(1, 0, 0, 1, -9, -6)" filter="url(#Elipse_180)">
      <circle id="Elipse_180-2" data-name="Elipse 180" cx="25" cy="25" r="25" transform="translate(9 6)" fill="#fe62aa"/>
    </g>
    <path id="Trazado_133001" data-name="Trazado 133001" d="M.886.293a8.148,8.148,0,0,1-5.9-2.175A7.512,7.512,0,0,1-7.273-7.544v-.41a9.734,9.734,0,0,1,.9-4.292,6.592,6.592,0,0,1,2.629-2.878,7.938,7.938,0,0,1,4.1-1.018A6.861,6.861,0,0,1,5.632-14.07,8.145,8.145,0,0,1,7.566-8.291v1.919H-2.249A3.558,3.558,0,0,0-1.091-4.277a3.443,3.443,0,0,0,2.314.762A4.437,4.437,0,0,0,4.885-5.156L7.141-2.49A6.306,6.306,0,0,1,4.526-.461,8.836,8.836,0,0,1,.886.293ZM.33-12.334q-2.168,0-2.578,2.871h4.98v-.381a2.445,2.445,0,0,0-.6-1.838A2.39,2.39,0,0,0,.33-12.334Z" transform="translate(25 38)" fill="#fff"/>
  </g>
</svg>
